<svg width="103" height="18" viewBox="0 0 103 18" fill="none" xmlns="http://www.w3.org/2000/svg">
<path d="M1.52705 12.812C0.508749 11.781 0 10.5099 0 8.9996C0 7.4893 0.508749 6.21902 1.52705 5.18717C2.54454 4.15612 3.78851 3.64019 5.25814 3.64019C6.72777 3.64019 7.97174 4.15612 8.98924 5.18717C10.0067 6.21823 10.5163 7.4893 10.5163 8.9996V9.7077H2.12351C2.28539 10.5569 2.65618 11.2244 3.2359 11.71C3.81562 12.1956 4.49023 12.438 5.25814 12.438C6.20148 12.438 6.95663 12.202 7.52359 11.7299C7.77956 11.541 8.00204 11.3049 8.19103 11.0218H10.4158C10.1327 11.6829 9.77548 12.2427 9.34408 12.7004C8.23807 13.8064 6.87689 14.359 5.25894 14.359C3.78931 14.359 2.54534 13.8431 1.52784 12.812H1.52705ZM2.22478 7.98848H8.2923C8.17109 7.31467 7.85053 6.74133 7.33141 6.26926C6.8123 5.79719 6.12094 5.56116 5.25814 5.56116C4.5301 5.56116 3.8826 5.78045 3.31644 6.21823C2.75028 6.6568 2.38586 7.24689 2.22398 7.98768L2.22478 7.98848Z" fill="white"/>
<path d="M11.3257 3.84273H13.5504L15.7752 12.2363H17.0902L19.3149 3.84273H21.5397L18.7081 14.1573H14.1573L11.3257 3.84273Z" fill="white"/>
<path d="M23.8753 12.812C22.857 11.781 22.3483 10.5099 22.3483 8.9996C22.3483 7.4893 22.857 6.21902 23.8753 5.18717C24.8928 4.15612 26.1368 3.64019 27.6064 3.64019C29.0761 3.64019 30.32 4.15612 31.3375 5.18717C32.355 6.21823 32.8646 7.4893 32.8646 8.9996V9.7077H24.471C24.6329 10.5569 25.0037 11.2244 25.5834 11.71C26.1631 12.1956 26.8377 12.438 27.6056 12.438C28.549 12.438 29.3041 12.202 29.8711 11.7299C30.1271 11.541 30.3495 11.3049 30.5385 11.0218H32.7633C32.4802 11.6829 32.123 12.2427 31.6916 12.7004C30.5856 13.8064 29.2244 14.359 27.6064 14.359C26.1368 14.359 24.8928 13.8431 23.8753 12.812ZM24.5731 7.98848H30.6406C30.5194 7.31467 30.1988 6.74133 29.6797 6.26926C29.1606 5.79719 28.4692 5.56116 27.6064 5.56116C26.8784 5.56116 26.2309 5.78045 25.6647 6.21823C25.0986 6.6568 24.7342 7.24689 24.5723 7.98768L24.5731 7.98848Z" fill="white"/>
<path d="M34.6851 14.1573V3.84273H36.8086V5.35941H36.9099C37.0582 5.07633 37.2743 4.8068 37.5573 4.55004C38.1769 4.01099 38.9058 3.74146 39.7415 3.74146H40.9551V5.7637H39.6402C38.8173 5.7637 38.1403 6.02366 37.6076 6.54197C37.0749 7.06109 36.8086 7.74527 36.8086 8.59452V14.1565H34.6851V14.1573Z" fill="white"/>
<path d="M41.5612 3.84273H43.7859L46.0107 12.135H47.1231L49.5504 3.84273H51.7752L47.5282 18H45.3034L46.5171 14.1573H44.3936L41.562 3.84273H41.5612Z" fill="white"/>
<path d="M60.156 5.7637L61.5986 3.84193H62.8122V1.61715H64.9357V3.84193H68.0704V5.7637H64.9357V12.2355H68.1716V14.1565H62.8122V5.7629H60.156V5.7637Z" fill="white"/>
<path d="M70.9123 12.812C69.894 11.781 69.3853 10.5099 69.3853 8.9996C69.3853 7.4893 69.894 6.21902 70.9123 5.18717C71.9306 4.15612 73.1738 3.64019 74.6434 3.64019C76.1131 3.64019 77.357 4.15612 78.3745 5.18717C79.3928 6.21823 79.9016 7.4893 79.9016 8.9996V9.7077H71.508C71.6699 10.5569 72.0407 11.2244 72.6204 11.71C73.2001 12.1956 73.8739 12.438 74.6426 12.438C75.586 12.438 76.3411 12.202 76.9081 11.7299C77.1641 11.541 77.3865 11.3049 77.5755 11.0218H79.8003C79.5172 11.6829 79.16 12.2427 78.7286 12.7004C77.6226 13.8064 76.2614 14.359 74.6434 14.359C73.1738 14.359 71.9298 13.8431 70.9123 12.812ZM71.6101 7.98848H77.6776C77.5564 7.31467 77.2358 6.74133 76.7167 6.26926C76.1976 5.79719 75.5062 5.56116 74.6434 5.56116C73.9154 5.56116 73.2679 5.78045 72.7017 6.21823C72.1356 6.6568 71.7711 7.24689 71.6093 7.98768L71.6101 7.98848Z" fill="white"/>
<path d="M82.5912 12.8431C81.6072 11.832 81.1152 10.5514 81.1152 9.0004C81.1152 7.44943 81.6072 6.16879 82.5912 5.15767C83.5752 4.14655 84.8025 3.64099 86.2721 3.64099C87.9172 3.64099 89.2584 4.26775 90.2966 5.52208C90.7416 6.1018 91.0518 6.72219 91.2272 7.38245H89.0024C88.9084 7.04594 88.7329 6.74213 88.4769 6.4726C87.9515 5.86577 87.2162 5.56275 86.2721 5.56275C85.4356 5.56275 84.7387 5.87932 84.1789 6.51327C83.6191 7.14721 83.3392 7.97652 83.3392 9.0012C83.3392 10.0259 83.6191 10.8552 84.1789 11.4891C84.7387 12.1231 85.4356 12.4396 86.2721 12.4396C87.2434 12.4396 88.0049 12.1366 88.5575 11.5298C88.7999 11.2603 88.9825 10.9572 89.1037 10.6199H91.2272C91.0518 11.3073 90.7416 11.9349 90.2966 12.501C89.272 13.7418 87.9307 14.3614 86.2721 14.3614C84.8025 14.3614 83.5752 13.8558 82.5912 12.8447V12.8431Z" fill="white"/>
<path d="M92.9464 0H95.07V5.25814H95.1712C95.3331 4.98862 95.5827 4.71909 95.92 4.44956C96.648 3.91051 97.4773 3.64019 98.4071 3.64019C99.6878 3.64019 100.682 4.01099 101.39 4.75258C102.098 5.49417 102.452 6.57307 102.452 7.98848V14.1573H100.328V8.19102C100.328 7.28756 100.129 6.62411 99.7316 6.19909C99.3337 5.77407 98.7237 5.56195 97.9016 5.56195C97.0794 5.56195 96.4016 5.84185 95.869 6.40163C95.3363 6.96141 95.07 7.69264 95.07 8.59611V14.1581H92.9464V0Z" fill="white"/>
<path d="M59.6561 3.84273H61.8808L57.6338 18H55.409L59.6561 3.84273Z" fill="white"/>
<path d="M54.6028 3.84273H56.8276L52.5806 18H50.3558L54.6028 3.84273Z" fill="white"/>
</svg>
