<svg width="292" height="76" viewBox="0 0 292 76" fill="none" xmlns="http://www.w3.org/2000/svg">
<path fill-rule="evenodd" clip-rule="evenodd" d="M34.3529 57.8914C45.1041 57.8914 53.8196 49.1759 53.8196 38.4247C53.8196 27.6736 45.1041 18.9581 34.3529 18.9581C23.6018 18.9581 14.8863 27.6736 14.8863 38.4247C14.8863 49.1759 23.6018 57.8914 34.3529 57.8914ZM34.3529 72.7777C53.3255 72.7777 68.7059 57.3973 68.7059 38.4247C68.7059 19.4521 53.3255 4.07178 34.3529 4.07178C15.3803 4.07178 0 19.4521 0 38.4247C0 57.3973 15.3803 72.7777 34.3529 72.7777Z" fill="#6938EF"/>
<path d="M34.746 39.1769C38.3235 35.5994 44.1238 35.5994 47.7013 39.1769L65.5148 56.9904C69.0923 60.5679 69.0923 66.3682 65.5148 69.9457V69.9457C61.9373 73.5232 56.137 73.5232 52.5595 69.9457L34.746 52.1322C31.1685 48.5547 31.1685 42.7544 34.746 39.1769V39.1769Z" fill="#F670C7"/>
<path d="M39.748 57.1342L51.0616 68.4478C56.4881 65.4213 61.0091 60.9663 64.1159 55.5915L52.8951 44.3706C50.9241 50.522 45.9769 55.3413 39.748 57.1342Z" fill="#6519BA"/>
<path d="M124.171 57.3187C123.18 58.5429 121.97 59.4756 120.542 60.1169C119.143 60.7581 117.598 61.0788 115.907 61.0788C113.634 61.0788 111.579 60.5832 109.742 59.5922C107.906 58.6303 105.807 56.9106 103.446 54.433C100.677 54.0832 98.1999 53.1942 96.0138 51.766C93.8568 50.3377 92.1662 48.5014 90.942 46.257C89.7469 43.9835 89.1494 41.4768 89.1494 38.7369C89.1494 35.7346 89.8635 33.0384 91.2918 30.6483C92.7492 28.229 94.7458 26.3344 97.2817 24.9644C99.8467 23.5945 102.718 22.9095 105.895 22.9095C109.072 22.9095 111.929 23.5945 114.464 24.9644C117 26.3344 118.997 28.229 120.454 30.6483C121.912 33.0384 122.64 35.7346 122.64 38.7369C122.64 42.2929 121.635 45.4117 119.624 48.0933C117.642 50.775 115.004 52.6404 111.71 53.6897C112.439 54.4476 113.138 54.9868 113.809 55.3075C114.508 55.6572 115.251 55.8321 116.038 55.8321C117.933 55.8321 119.594 55.0743 121.023 53.5586L124.171 57.3187ZM96.3198 38.7369C96.3198 40.6315 96.7279 42.322 97.544 43.8086C98.3893 45.2951 99.5407 46.4611 100.998 47.3063C102.455 48.1225 104.088 48.5306 105.895 48.5306C107.702 48.5306 109.334 48.1225 110.792 47.3063C112.249 46.4611 113.386 45.2951 114.202 43.8086C115.047 42.322 115.47 40.6315 115.47 38.7369C115.47 36.8422 115.047 35.1517 114.202 33.6651C113.386 32.1786 112.249 31.0272 110.792 30.2111C109.334 29.3658 107.702 28.9431 105.895 28.9431C104.088 28.9431 102.455 29.3658 100.998 30.2111C99.5407 31.0272 98.3893 32.1786 97.544 33.6651C96.7279 35.1517 96.3198 36.8422 96.3198 38.7369Z" fill="white"/>
<path d="M151.18 30.5171V54.0395H144.709V51.2413C143.805 52.2615 142.727 53.0485 141.474 53.6023C140.22 54.127 138.865 54.3893 137.407 54.3893C134.318 54.3893 131.869 53.5003 130.062 51.7223C128.255 49.9442 127.351 47.3063 127.351 43.8086V30.5171H134.172V42.803C134.172 46.5922 135.761 48.4868 138.938 48.4868C140.57 48.4868 141.882 47.9622 142.873 46.9129C143.864 45.8344 144.359 44.2458 144.359 42.1472V30.5171H151.18Z" fill="white"/>
<path d="M168.692 54.3893C166.214 54.3893 163.984 53.8792 162.002 52.859C160.049 51.8097 158.519 50.3669 157.411 48.5306C156.304 46.6942 155.75 44.6102 155.75 42.2783C155.75 39.9465 156.304 37.8624 157.411 36.0261C158.519 34.1898 160.049 32.7615 162.002 31.7413C163.984 30.692 166.214 30.1674 168.692 30.1674C171.169 30.1674 173.384 30.692 175.337 31.7413C177.29 32.7615 178.82 34.1898 179.928 36.0261C181.036 37.8624 181.59 39.9465 181.59 42.2783C181.59 44.6102 181.036 46.6942 179.928 48.5306C178.82 50.3669 177.29 51.8097 175.337 52.859C173.384 53.8792 171.169 54.3893 168.692 54.3893ZM168.692 48.7929C170.44 48.7929 171.869 48.2099 172.976 47.044C174.113 45.849 174.681 44.2604 174.681 42.2783C174.681 40.2963 174.113 38.7223 172.976 37.5564C171.869 36.3613 170.44 35.7638 168.692 35.7638C166.943 35.7638 165.5 36.3613 164.363 37.5564C163.226 38.7223 162.658 40.2963 162.658 42.2783C162.658 44.2604 163.226 45.849 164.363 47.044C165.5 48.2099 166.943 48.7929 168.692 48.7929Z" fill="white"/>
<path d="M201.32 52.9028C200.65 53.3983 199.819 53.7772 198.828 54.0395C197.866 54.2727 196.846 54.3893 195.767 54.3893C192.969 54.3893 190.798 53.6752 189.253 52.2469C187.737 50.8187 186.979 48.72 186.979 45.951V36.2884H183.35V31.0418H186.979V25.3142H193.8V31.0418H199.659V36.2884H193.8V45.8635C193.8 46.8546 194.048 47.627 194.543 48.1808C195.068 48.7054 195.797 48.9678 196.729 48.9678C197.808 48.9678 198.726 48.6763 199.484 48.0933L201.32 52.9028Z" fill="white"/>
<path d="M205.149 30.5171H211.969V54.0395H205.149V30.5171ZM208.559 27.238C207.306 27.238 206.286 26.8736 205.499 26.1449C204.712 25.4162 204.318 24.5127 204.318 23.4342C204.318 22.3557 204.712 21.4521 205.499 20.7234C206.286 19.9947 207.306 19.6304 208.559 19.6304C209.812 19.6304 210.833 19.9801 211.62 20.6797C212.407 21.3792 212.8 22.2537 212.8 23.303C212.8 24.4398 212.407 25.3871 211.62 26.1449C210.833 26.8736 209.812 27.238 208.559 27.238Z" fill="white"/>
<path d="M241.341 42.3658C241.341 42.4532 241.297 43.0653 241.21 44.2021H223.415C223.736 45.6595 224.493 46.8108 225.689 47.6561C226.884 48.5014 228.37 48.9241 230.148 48.9241C231.372 48.9241 232.451 48.7492 233.384 48.3994C234.345 48.0205 235.235 47.4375 236.051 46.6505L239.68 50.5855C237.464 53.1214 234.229 54.3893 229.973 54.3893C227.321 54.3893 224.974 53.8792 222.934 52.859C220.894 51.8097 219.32 50.3669 218.212 48.5306C217.104 46.6942 216.551 44.6102 216.551 42.2783C216.551 39.9756 217.09 37.9061 218.168 36.0698C219.276 34.2043 220.777 32.7615 222.672 31.7413C224.596 30.692 226.738 30.1674 229.099 30.1674C231.402 30.1674 233.486 30.6629 235.351 31.6539C237.217 32.6449 238.674 34.0732 239.723 35.9386C240.802 37.775 241.341 39.9173 241.341 42.3658ZM229.143 35.3265C227.598 35.3265 226.301 35.7638 225.251 36.6382C224.202 37.5126 223.561 38.7077 223.328 40.2234H234.914C234.681 38.7369 234.039 37.5564 232.99 36.6819C231.941 35.7783 230.658 35.3265 229.143 35.3265Z" fill="white"/>
<path d="M260.179 30.1674C263.094 30.1674 265.44 31.0418 267.218 32.7907C269.025 34.5395 269.929 37.1337 269.929 40.5732V54.0395H263.108V41.6225C263.108 39.757 262.7 38.3725 261.884 37.4689C261.068 36.5362 259.888 36.0698 258.343 36.0698C256.623 36.0698 255.253 36.6091 254.233 37.6875C253.213 38.7369 252.703 40.3108 252.703 42.4095V54.0395H245.882V30.5171H252.397V33.2716C253.3 32.2806 254.422 31.5227 255.763 30.9981C257.104 30.4443 258.576 30.1674 260.179 30.1674Z" fill="white"/>
<path d="M291.283 52.9028C290.613 53.3983 289.782 53.7772 288.791 54.0395C287.829 54.2727 286.809 54.3893 285.73 54.3893C282.932 54.3893 280.761 53.6752 279.216 52.2469C277.7 50.8187 276.942 48.72 276.942 45.951V36.2884H273.313V31.0418H276.942V25.3142H283.763V31.0418H289.622V36.2884H283.763V45.8635C283.763 46.8546 284.011 47.627 284.506 48.1808C285.031 48.7054 285.76 48.9678 286.692 48.9678C287.771 48.9678 288.689 48.6763 289.447 48.0933L291.283 52.9028Z" fill="white"/>
</svg>
