<svg width="289" height="77" viewBox="0 0 289 77" fill="none" xmlns="http://www.w3.org/2000/svg">
<path d="M24.8168 53.3145C38.5226 53.3145 49.6334 42.2038 49.6334 28.498C49.6334 26.9447 49.4906 25.4247 49.2176 23.9504C47.7434 23.6774 46.2234 23.5347 44.6701 23.5347C30.9643 23.5347 19.8535 34.6454 19.8535 48.3512C19.8535 49.9045 19.9962 51.4245 20.2693 52.8988C21.7435 53.1718 23.2635 53.3145 24.8168 53.3145Z" fill="#175CD3"/>
<path fill-rule="evenodd" clip-rule="evenodd" d="M20.269 52.899C8.73503 50.763 0 40.6507 0 28.4982C0 14.7924 11.1107 3.68164 24.8166 3.68164C36.969 3.68164 47.0813 12.4167 49.2174 23.9506C47.7431 23.6776 46.2231 23.5349 44.6698 23.5349C30.964 23.5349 19.8532 34.6456 19.8532 48.3514C19.8532 49.9048 19.996 51.4247 20.269 52.899Z" fill="#1570EF"/>
<path fill-rule="evenodd" clip-rule="evenodd" d="M24.8161 53.3148C38.5219 53.3148 49.6327 42.2041 49.6327 28.4983C49.6327 26.9449 49.49 25.4249 49.2169 23.9507C60.7509 26.0867 69.4859 36.199 69.4859 48.3515C69.4859 62.0573 58.3752 73.1681 44.6694 73.1681C32.5169 73.1681 22.4046 64.433 20.2686 52.8991C21.7428 53.1721 23.2628 53.3148 24.8161 53.3148Z" fill="#2E90FA"/>
<path d="M117.224 46.1692C116.34 49.0287 114.792 51.1659 112.581 52.5809C110.37 53.9664 107.791 54.6592 104.843 54.6592C101.954 54.6592 99.4481 54.0549 97.3256 52.8462C95.2326 51.6376 93.6112 49.913 92.4616 47.6726C91.3414 45.4322 90.7812 42.7496 90.7812 39.6249C90.7812 36.5001 91.3561 33.8175 92.5058 31.5771C93.6555 29.3367 95.2768 27.6121 97.3698 26.4035C99.4628 25.1949 101.924 24.5905 104.754 24.5905C107.732 24.5905 110.282 25.2243 112.404 26.4919C114.556 27.7301 116.03 29.6167 116.826 32.1519L111.299 34.4955C110.798 32.7268 110.031 31.4739 108.999 30.7369C107.968 29.9705 106.641 29.5872 105.02 29.5872C102.602 29.5872 100.671 30.4569 99.227 32.1961C97.812 33.9059 97.1045 36.3822 97.1045 39.6249C97.1045 42.8381 97.7825 45.3143 99.1386 47.0536C100.495 48.7928 102.455 49.6625 105.02 49.6625C106.611 49.6625 107.982 49.235 109.132 48.3801C110.311 47.5252 111.137 46.2282 111.608 44.4889L117.224 46.1692Z" fill="white"/>
<path d="M124.857 28.924C122.351 28.924 121.098 27.848 121.098 25.696C121.098 23.5146 122.351 22.4238 124.857 22.4238C127.363 22.4238 128.615 23.5146 128.615 25.696C128.615 27.848 127.363 28.924 124.857 28.924ZM127.864 32.1077V54.217H121.806V32.1077H127.864Z" fill="white"/>
<path d="M134.285 54.217V32.1077H139.547L139.945 36.4411C140.505 34.9377 141.346 33.7733 142.466 32.9478C143.616 32.093 145.06 31.6655 146.799 31.6655C147.831 31.6655 148.627 31.8276 149.187 32.1519L148.48 37.2371C148.185 37.1486 147.816 37.0749 147.374 37.016C146.961 36.9275 146.416 36.8833 145.738 36.8833C144.824 36.8833 143.955 37.1044 143.129 37.5466C142.333 37.9593 141.67 38.6078 141.139 39.4922C140.609 40.3471 140.343 41.4378 140.343 42.7644V54.217H134.285Z" fill="white"/>
<path d="M162.546 31.6655C165.494 31.6655 167.778 32.2993 169.4 33.5669C171.051 34.8345 172.141 36.3674 172.672 38.1656L167.012 40.1997C166.422 37.5171 164.963 36.1758 162.634 36.1758C160.954 36.1758 159.642 36.7654 158.699 37.9446C157.785 39.1237 157.328 40.8777 157.328 43.2066C157.328 45.5649 157.8 47.3189 158.743 48.4686C159.716 49.5888 161.028 50.1489 162.679 50.1489C165.243 50.1489 166.776 48.8371 167.277 46.2134L172.76 47.9822C172.259 49.9573 171.139 51.5639 169.4 52.802C167.69 54.0401 165.464 54.6592 162.723 54.6592C160.423 54.6592 158.404 54.2023 156.665 53.2884C154.955 52.3746 153.628 51.0627 152.685 49.3529C151.742 47.6432 151.27 45.5796 151.27 43.1623C151.27 40.7451 151.742 38.6815 152.685 36.9717C153.658 35.262 154.985 33.9501 156.665 33.0363C158.375 32.1224 160.335 31.6655 162.546 31.6655Z" fill="white"/>
<path d="M187.549 31.6655C189.76 31.6655 191.721 32.1224 193.43 33.0363C195.14 33.9501 196.467 35.262 197.41 36.9717C198.383 38.6815 198.869 40.7451 198.869 43.1623C198.869 45.5796 198.383 47.6432 197.41 49.3529C196.467 51.0627 195.14 52.3746 193.43 53.2884C191.721 54.2023 189.76 54.6592 187.549 54.6592C185.309 54.6592 183.334 54.2023 181.624 53.2884C179.944 52.3746 178.617 51.0627 177.644 49.3529C176.701 47.6432 176.229 45.5796 176.229 43.1623C176.229 40.7451 176.701 38.6815 177.644 36.9717C178.617 35.262 179.944 33.9501 181.624 33.0363C183.334 32.1224 185.309 31.6655 187.549 31.6655ZM187.549 36.1758C185.899 36.1758 184.602 36.7654 183.658 37.9446C182.744 39.0942 182.287 40.8335 182.287 43.1623C182.287 45.4912 182.744 47.2452 183.658 48.4244C184.602 49.574 185.899 50.1489 187.549 50.1489C189.171 50.1489 190.438 49.574 191.352 48.4244C192.296 47.2452 192.767 45.4912 192.767 43.1623C192.767 40.8335 192.296 39.0942 191.352 37.9446C190.438 36.7654 189.171 36.1758 187.549 36.1758Z" fill="white"/>
<path d="M214.02 31.6655C216.231 31.6655 218.191 32.1224 219.901 33.0363C221.611 33.9501 222.938 35.262 223.881 36.9717C224.854 38.6815 225.34 40.7451 225.34 43.1623C225.34 45.5796 224.854 47.6432 223.881 49.3529C222.938 51.0627 221.611 52.3746 219.901 53.2884C218.191 54.2023 216.231 54.6592 214.02 54.6592C211.78 54.6592 209.805 54.2023 208.095 53.2884C206.415 52.3746 205.088 51.0627 204.115 49.3529C203.172 47.6432 202.7 45.5796 202.7 43.1623C202.7 40.7451 203.172 38.6815 204.115 36.9717C205.088 35.262 206.415 33.9501 208.095 33.0363C209.805 32.1224 211.78 31.6655 214.02 31.6655ZM214.02 36.1758C212.369 36.1758 211.072 36.7654 210.129 37.9446C209.215 39.0942 208.758 40.8335 208.758 43.1623C208.758 45.4912 209.215 47.2452 210.129 48.4244C211.072 49.574 212.369 50.1489 214.02 50.1489C215.641 50.1489 216.909 49.574 217.823 48.4244C218.766 47.2452 219.238 45.4912 219.238 43.1623C219.238 40.8335 218.766 39.0942 217.823 37.9446C216.909 36.7654 215.641 36.1758 214.02 36.1758Z" fill="white"/>
<path d="M236.378 22.4238V47.4073C236.378 48.4391 236.555 49.1613 236.909 49.574C237.263 49.9867 237.852 50.1931 238.678 50.1931C239.179 50.1931 239.592 50.1636 239.916 50.1047C240.24 50.0457 240.653 49.9278 241.154 49.7509L240.623 53.7306C240.122 54.0254 239.489 54.2465 238.722 54.3939C237.985 54.5707 237.248 54.6592 236.511 54.6592C234.359 54.6592 232.782 54.1433 231.78 53.1115C230.807 52.0503 230.321 50.37 230.321 48.0706V22.4238H236.378Z" fill="white"/>
<path d="M254.788 54.6592C251.31 54.6592 248.524 53.6569 246.431 51.6523C244.338 49.6183 243.291 46.7883 243.291 43.1623C243.291 40.7451 243.763 38.6815 244.706 36.9717C245.65 35.262 246.962 33.9501 248.642 33.0363C250.352 32.1224 252.297 31.6655 254.479 31.6655C256.719 31.6655 258.621 32.1224 260.183 33.0363C261.745 33.9207 262.939 35.144 263.765 36.7064C264.59 38.2393 265.003 39.9933 265.003 41.9684C265.003 42.558 264.988 43.1181 264.959 43.6487C264.929 44.1794 264.885 44.651 264.826 45.0637H249.217C249.453 46.7735 250.042 48.0559 250.985 48.9108C251.958 49.7362 253.211 50.1489 254.744 50.1489C256.041 50.1489 257.088 49.8983 257.884 49.3972C258.679 48.896 259.299 48.2033 259.741 47.3189L264.561 49.1761C263.853 50.9153 262.615 52.2714 260.846 53.2442C259.077 54.1875 257.058 54.6592 254.788 54.6592ZM254.434 36.1316C251.575 36.1316 249.851 37.7087 249.261 40.863H259.21C259.033 39.3301 258.532 38.1656 257.707 37.3697C256.911 36.5443 255.82 36.1316 254.434 36.1316Z" fill="white"/>
<path d="M278.98 54.6592C276.74 54.6592 274.691 54.2612 272.834 53.4653C271.006 52.6693 269.518 51.5491 268.368 50.1047L271.861 46.5672C272.569 47.6284 273.512 48.4981 274.691 49.1761C275.87 49.8541 277.27 50.1931 278.892 50.1931C280.042 50.1931 280.955 50.031 281.633 49.7067C282.341 49.3529 282.695 48.8076 282.695 48.0706C282.695 47.5989 282.533 47.201 282.208 46.8767C281.884 46.523 281.235 46.2429 280.263 46.0366L276.371 45.2406C273.807 44.71 271.979 43.9141 270.888 42.8528C269.827 41.7621 269.296 40.3618 269.296 38.652C269.296 37.4434 269.65 36.3085 270.358 35.2472C271.095 34.186 272.185 33.3311 273.63 32.6825C275.074 32.0045 276.873 31.6655 279.024 31.6655C283.505 31.6655 286.719 33.0363 288.664 35.7778L285.038 39.3153C284.39 38.2836 283.535 37.5024 282.474 36.9717C281.442 36.4116 280.351 36.1316 279.201 36.1316C276.607 36.1316 275.31 36.8538 275.31 38.2983C275.31 38.77 275.516 39.1827 275.929 39.5364C276.342 39.8607 277.094 40.1407 278.184 40.3766L282.695 41.3052C284.876 41.7473 286.438 42.4991 287.382 43.5603C288.325 44.5921 288.797 45.8449 288.797 47.3189C288.797 49.4414 287.942 51.1954 286.232 52.5809C284.552 53.9664 282.135 54.6592 278.98 54.6592Z" fill="white"/>
</svg>
