<svg width="266" height="81" viewBox="0 0 266 81" fill="none" xmlns="http://www.w3.org/2000/svg">
<path d="M36.575 3.84961C16.3751 3.84961 0 20.2248 0 40.4246C0 60.6244 16.3751 76.9996 36.575 76.9996C54.6979 76.9996 69.7422 63.8187 72.6443 46.5205H72.3818C69.675 57.0372 60.1283 64.808 48.7667 64.808C35.3002 64.808 24.3833 53.8912 24.3833 40.4246C24.3833 26.958 35.3002 16.0413 48.7667 16.0413C60.1283 16.0413 69.675 23.8121 72.3818 34.3288H72.6443C69.7422 17.0306 54.6979 3.84961 36.575 3.84961Z" fill="#A4BCFD"/>
<path d="M0 40.4246C0 20.2248 16.3752 3.84961 36.575 3.84961C54.6979 3.84961 69.7422 17.0306 72.6443 34.3288H47.9985C45.2917 23.8121 35.745 16.0413 24.3833 16.0413C10.9168 16.0413 0 26.9581 0 40.4246Z" fill="#3538CD"/>
<path d="M0 40.4245C0 60.6243 16.3752 76.9995 36.575 76.9995C54.6979 76.9995 69.7422 63.8186 72.6443 46.5203H47.9985C45.2917 57.037 35.745 64.8078 24.3833 64.8078C10.9168 64.8078 0 53.8911 0 40.4245Z" fill="#3538CD"/>
<path d="M125.417 34.6174C124.375 27.096 118.59 22.7319 111.085 22.7319C102.241 22.7319 95.5791 29.1788 95.5791 40.1221C95.5791 51.0488 102.158 57.5122 111.085 57.5122C119.135 57.5122 124.474 52.3051 125.417 45.8416L119.234 45.8086C118.457 49.7759 115.217 52.0075 111.167 52.0075C105.679 52.0075 101.745 47.8914 101.745 40.1221C101.745 32.485 105.646 28.2366 111.184 28.2366C115.3 28.2366 118.523 30.5674 119.234 34.6174H125.417Z" fill="white"/>
<path d="M138.075 57.5618C142.059 57.5618 144.439 55.6938 145.53 53.5614H145.729V57.0493H151.481V40.0559C151.481 33.3445 146.01 31.3278 141.166 31.3278C135.827 31.3278 131.727 33.7082 130.405 38.3368L135.992 39.1302C136.587 37.3945 138.273 35.9068 141.199 35.9068C143.976 35.9068 145.497 37.3284 145.497 39.8245V39.9237C145.497 41.6429 143.695 41.7255 139.216 42.2049C134.289 42.7339 129.578 44.2051 129.578 49.9247C129.578 54.9169 133.232 57.5618 138.075 57.5618ZM139.629 53.1647C137.133 53.1647 135.347 52.0241 135.347 49.8255C135.347 47.5277 137.348 46.569 140.026 46.1888C141.596 45.9739 144.737 45.5771 145.514 44.949V47.941C145.514 50.7677 143.232 53.1647 139.629 53.1647Z" fill="white"/>
<path d="M170.177 31.6584H165.169V25.5752H159.184V31.6584H155.581V36.287H159.184V50.4041C159.151 55.1814 162.623 57.5287 167.119 57.3965C168.822 57.3469 169.995 57.0163 170.64 56.8014L169.632 52.1232C169.301 52.2059 168.623 52.3547 167.88 52.3547C166.375 52.3547 165.169 51.8257 165.169 49.4122V36.287H170.177V31.6584Z" fill="white"/>
<path d="M182.488 57.5618C186.472 57.5618 188.853 55.6938 189.944 53.5614H190.142V57.0493H195.895V40.0559C195.895 33.3445 190.423 31.3278 185.58 31.3278C180.24 31.3278 176.141 33.7082 174.818 38.3368L180.406 39.1302C181.001 37.3945 182.687 35.9068 185.613 35.9068C188.39 35.9068 189.911 37.3284 189.911 39.8245V39.9237C189.911 41.6429 188.109 41.7255 183.629 42.2049C178.703 42.7339 173.992 44.2051 173.992 49.9247C173.992 54.9169 177.645 57.5618 182.488 57.5618ZM184.042 53.1647C181.546 53.1647 179.761 52.0241 179.761 49.8255C179.761 47.5277 181.761 46.569 184.439 46.1888C186.009 45.9739 189.15 45.5771 189.927 44.949V47.941C189.927 50.7677 187.646 53.1647 184.042 53.1647Z" fill="white"/>
<path d="M207.896 23.1948H201.912V57.0493H207.896V23.1948Z" fill="white"/>
<path d="M225.125 57.5453C232.563 57.5453 237.291 52.3051 237.291 44.4531C237.291 36.5845 232.563 31.3278 225.125 31.3278C217.686 31.3278 212.958 36.5845 212.958 44.4531C212.958 52.3051 217.686 57.5453 225.125 57.5453ZM225.158 52.7514C221.042 52.7514 219.025 49.0816 219.025 44.4365C219.025 39.7915 221.042 36.0721 225.158 36.0721C229.208 36.0721 231.225 39.7915 231.225 44.4365C231.225 49.0816 229.208 52.7514 225.158 52.7514Z" fill="white"/>
<path d="M253.413 67.0999C260.273 67.0999 265.331 63.9591 265.331 57.4626V31.6584H259.43V35.8572H259.099C258.19 34.0223 256.289 31.3278 251.809 31.3278C245.941 31.3278 241.329 35.9233 241.329 44.2712C241.329 52.553 245.941 56.6857 251.793 56.6857C256.14 56.6857 258.173 54.3549 259.099 52.4869H259.397V57.2973C259.397 61.0332 256.917 62.5705 253.512 62.5705C249.908 62.5705 248.321 60.8679 247.594 59.3801L242.205 60.6861C243.296 64.2401 246.949 67.0999 253.413 67.0999ZM253.462 51.991C249.511 51.991 247.429 48.9163 247.429 44.2382C247.429 39.6261 249.478 36.2374 253.462 36.2374C257.314 36.2374 259.43 39.4278 259.43 44.2382C259.43 49.0816 257.281 51.991 253.462 51.991Z" fill="white"/>
</svg>
