<svg width="274" height="79" viewBox="0 0 274 79" fill="none" xmlns="http://www.w3.org/2000/svg">
<rect y="31.6421" width="15.5645" height="15.5645" fill="#039855"/>
<rect x="46.6934" y="47.2065" width="15.5645" height="15.5645" transform="rotate(180 46.6934 47.2065)" fill="#027A48"/>
<path d="M15.5645 31.6421L31.1289 16.0776V31.6421L15.5645 47.2066V31.6421Z" fill="#A6F4C5"/>
<path d="M31.1289 47.2065L15.5644 62.771L15.5644 47.2065L31.1289 31.642L31.1289 47.2065Z" fill="#6CE9A6"/>
<path d="M0 31.6421L31.129 0.513184V16.0777L15.5645 31.6421H0Z" fill="#32D583"/>
<path d="M46.6934 47.207L15.5644 78.3359L15.5644 62.7715L31.1289 47.207L46.6934 47.207Z" fill="#12B76A"/>
<path d="M80.5919 56.0913C78.1405 56.0913 75.7648 55.7433 73.4647 55.0472C71.1949 54.3511 69.3941 53.4281 68.0625 52.278L70.1053 47.693C71.4067 48.722 72.9956 49.5694 74.872 50.2352C76.7786 50.8707 78.6853 51.1885 80.5919 51.1885C82.9525 51.1885 84.7079 50.8102 85.8579 50.0536C87.0382 49.297 87.6284 48.2983 87.6284 47.0574C87.6284 46.1495 87.2955 45.408 86.6296 44.833C85.9941 44.2277 85.177 43.7586 84.1782 43.4257C83.1795 43.0928 81.8176 42.7145 80.0926 42.2908C77.6714 41.7158 75.7042 41.1408 74.191 40.5658C72.7081 39.9907 71.4218 39.0979 70.3323 37.8874C69.2731 36.6465 68.7434 34.982 68.7434 32.8937C68.7434 31.1384 69.2125 29.5495 70.1507 28.1271C71.1192 26.6744 72.5567 25.5244 74.4634 24.677C76.4003 23.8296 78.7609 23.4059 81.5452 23.4059C83.4822 23.4059 85.3888 23.648 87.2652 24.1322C89.1416 24.6165 90.7607 25.3125 92.1226 26.2205L90.2614 30.8055C88.8692 29.9884 87.4165 29.368 85.9033 28.9443C84.3901 28.5206 82.9223 28.3087 81.4998 28.3087C79.1695 28.3087 77.4293 28.7021 76.2793 29.489C75.1595 30.2759 74.5996 31.32 74.5996 32.6214C74.5996 33.5293 74.9174 34.2708 75.5529 34.8458C76.2187 35.4208 77.051 35.8748 78.0497 36.2077C79.0484 36.5406 80.4103 36.9189 82.1354 37.3426C84.496 37.8874 86.4329 38.4624 87.9461 39.0677C89.4594 39.6427 90.7456 40.5355 91.8048 41.7461C92.8944 42.9566 93.4391 44.5909 93.4391 46.6489C93.4391 48.4042 92.9549 49.9931 91.9864 51.4155C91.0482 52.8379 89.6107 53.9728 87.6738 54.8202C85.7369 55.6676 83.3762 56.0913 80.5919 56.0913Z" fill="white"/>
<path d="M98.7462 31.3957H104.421V55.6374H98.7462V31.3957ZM101.606 27.4008C100.577 27.4008 99.7147 27.083 99.0186 26.4475C98.3225 25.7816 97.9745 24.9645 97.9745 23.996C97.9745 23.0276 98.3225 22.2256 99.0186 21.59C99.7147 20.9242 100.577 20.5913 101.606 20.5913C102.635 20.5913 103.498 20.9091 104.194 21.5446C104.89 22.1499 105.238 22.9217 105.238 23.8599C105.238 24.8586 104.89 25.706 104.194 26.4021C103.528 27.0679 102.665 27.4008 101.606 27.4008Z" fill="white"/>
<path d="M119.359 55.9552C117.392 55.9552 115.47 55.6979 113.594 55.1834C111.717 54.6689 110.219 54.0182 109.099 53.2314L111.278 48.9187C112.368 49.645 113.669 50.2352 115.183 50.6892C116.726 51.1129 118.239 51.3247 119.722 51.3247C123.112 51.3247 124.807 50.4319 124.807 48.6463C124.807 47.7989 124.368 47.2088 123.49 46.8759C122.643 46.543 121.266 46.2252 119.359 45.9225C117.362 45.6199 115.727 45.2719 114.456 44.8784C113.215 44.485 112.126 43.804 111.188 42.8356C110.28 41.8369 109.826 40.4598 109.826 38.7045C109.826 36.4044 110.779 34.5734 112.686 33.2115C114.623 31.8194 117.225 31.1233 120.494 31.1233C122.159 31.1233 123.823 31.32 125.488 31.7134C127.152 32.0766 128.514 32.576 129.573 33.2115L127.394 37.5242C125.336 36.3136 123.021 35.7083 120.449 35.7083C118.784 35.7083 117.513 35.9656 116.635 36.4801C115.788 36.9643 115.364 37.615 115.364 38.4321C115.364 39.34 115.818 39.9907 116.726 40.3842C117.664 40.7473 119.102 41.0954 121.039 41.4283C122.976 41.7309 124.565 42.079 125.805 42.4724C127.046 42.8658 128.105 43.5317 128.983 44.4698C129.891 45.408 130.345 46.7397 130.345 48.4647C130.345 50.7346 129.361 52.5504 127.394 53.9123C125.427 55.2742 122.749 55.9552 119.359 55.9552Z" fill="white"/>
<path d="M157.487 31.3957L146.138 57.5894C145.078 60.2224 143.792 62.0685 142.279 63.1278C140.766 64.2173 138.935 64.7621 136.786 64.7621C135.575 64.7621 134.38 64.5654 133.2 64.1719C132.019 63.7785 131.051 63.2337 130.294 62.5376L132.564 58.3612C133.109 58.8757 133.744 59.2842 134.471 59.5869C135.227 59.8895 135.984 60.0408 136.741 60.0408C137.739 60.0408 138.556 59.7836 139.192 59.2691C139.858 58.7546 140.463 57.8921 141.008 56.6815L141.416 55.7282L130.839 31.3957H136.741L144.367 49.3273L152.039 31.3957H157.487Z" fill="white"/>
<path d="M174.471 31.1233C176.831 31.1233 178.935 31.6378 180.781 32.6668C182.657 33.6958 184.125 35.1484 185.184 37.0248C186.244 38.9012 186.773 41.0651 186.773 43.5165C186.773 45.9679 186.244 48.147 185.184 50.0536C184.125 51.93 182.657 53.3827 180.781 54.4117C178.935 55.4407 176.831 55.9552 174.471 55.9552C171.202 55.9552 168.615 54.8656 166.708 52.6866V64.4443H161.033V31.3957H166.436V34.5734C167.374 33.4234 168.524 32.5608 169.886 31.9858C171.278 31.4108 172.806 31.1233 174.471 31.1233ZM173.835 51.0977C175.923 51.0977 177.633 50.4017 178.965 49.0095C180.327 47.6173 181.008 45.7863 181.008 43.5165C181.008 41.2467 180.327 39.4157 178.965 38.0236C177.633 36.6314 175.923 35.9353 173.835 35.9353C172.473 35.9353 171.248 36.2531 170.158 36.8886C169.069 37.4939 168.206 38.3716 167.57 39.5216C166.935 40.6717 166.617 42.0033 166.617 43.5165C166.617 45.0297 166.935 46.3614 167.57 47.5114C168.206 48.6615 169.069 49.5543 170.158 50.1898C171.248 50.7951 172.473 51.0977 173.835 51.0977Z" fill="white"/>
<path d="M205.91 31.1233C208.967 31.1233 211.418 32.0161 213.264 33.8017C215.11 35.5873 216.033 38.2354 216.033 41.7461V55.6374H210.359V42.4724C210.359 40.3539 209.859 38.765 208.861 37.7058C207.862 36.6163 206.439 36.0715 204.593 36.0715C202.505 36.0715 200.856 36.7071 199.645 37.9782C198.435 39.219 197.829 41.0197 197.829 43.3803V55.6374H192.155V21.9532H197.829V34.2102C198.767 33.2115 199.918 32.4549 201.279 31.9404C202.672 31.3957 204.215 31.1233 205.91 31.1233Z" fill="white"/>
<path d="M246.702 31.3957V55.6374H241.3V52.5504C240.392 53.6399 239.257 54.4873 237.895 55.0926C236.533 55.6676 235.065 55.9552 233.491 55.9552C230.253 55.9552 227.696 55.0624 225.819 53.2768C223.973 51.4609 223.05 48.7825 223.05 45.2416V31.3957H228.725V44.4698C228.725 46.6489 229.209 48.2832 230.177 49.3727C231.176 50.4319 232.583 50.9615 234.399 50.9615C236.427 50.9615 238.031 50.3411 239.211 49.1003C240.422 47.8292 241.027 46.0133 241.027 43.6527V31.3957H246.702Z" fill="white"/>
<path d="M261.622 55.9552C259.655 55.9552 257.733 55.6979 255.857 55.1834C253.98 54.6689 252.482 54.0182 251.362 53.2314L253.541 48.9187C254.631 49.645 255.932 50.2352 257.445 50.6892C258.989 51.1129 260.502 51.3247 261.985 51.3247C265.375 51.3247 267.07 50.4319 267.07 48.6463C267.07 47.7989 266.631 47.2088 265.753 46.8759C264.906 46.543 263.529 46.2252 261.622 45.9225C259.624 45.6199 257.99 45.2719 256.719 44.8784C255.478 44.485 254.389 43.804 253.451 42.8356C252.543 41.8369 252.089 40.4598 252.089 38.7045C252.089 36.4044 253.042 34.5734 254.949 33.2115C256.886 31.8194 259.488 31.1233 262.757 31.1233C264.421 31.1233 266.086 31.32 267.75 31.7134C269.415 32.0766 270.777 32.576 271.836 33.2115L269.657 37.5242C267.599 36.3136 265.284 35.7083 262.711 35.7083C261.047 35.7083 259.776 35.9656 258.898 36.4801C258.051 36.9643 257.627 37.615 257.627 38.4321C257.627 39.34 258.081 39.9907 258.989 40.3842C259.927 40.7473 261.365 41.0954 263.302 41.4283C265.239 41.7309 266.827 42.079 268.068 42.4724C269.309 42.8658 270.368 43.5317 271.246 44.4698C272.154 45.408 272.608 46.7397 272.608 48.4647C272.608 50.7346 271.624 52.5504 269.657 53.9123C267.69 55.2742 265.012 55.9552 261.622 55.9552Z" fill="white"/>
</svg>
