<svg width="252" height="83" viewBox="0 0 252 83" fill="none" xmlns="http://www.w3.org/2000/svg">
<path d="M22.9175 38.5217C24.3368 33.2258 29.7805 27.7821 35.0764 26.3628L68.0935 17.5146C73.3895 16.0953 76.5321 19.238 75.1129 24.5339L66.2646 57.5511C64.8454 62.847 59.4017 68.2907 54.1057 69.7099L21.0886 78.5582C15.7927 79.9774 12.65 76.8348 14.0693 71.5389L22.9175 38.5217Z" fill="#9E77ED"/>
<path d="M9.6812 25.2854C11.1004 19.9895 16.5442 14.5458 21.8401 13.1265L54.8572 4.27826C60.1532 2.85901 63.2958 6.00167 61.8766 11.2976L53.0283 44.3147C51.6091 49.6106 46.1654 55.0543 40.8694 56.4736L7.85228 65.3218C2.55636 66.7411 -0.586304 63.5984 0.832947 58.3025L9.6812 25.2854Z" fill="#6941C6"/>
<path d="M105.792 54.2384H117.149V58.6847H100.282V25.0962H105.792V54.2384Z" fill="white"/>
<path d="M119.92 45.2493C119.92 42.5751 120.468 40.207 121.563 38.145C122.691 36.0829 124.205 34.4881 126.106 33.3604C128.039 32.2005 130.166 31.6206 132.485 31.6206C134.58 31.6206 136.4 32.0394 137.947 32.8771C139.525 33.6826 140.782 34.6975 141.716 35.9218V32.0555H147.274V58.6847H141.716V54.7217C140.782 55.9783 139.509 57.0254 137.898 57.8631C136.287 58.7008 134.451 59.1196 132.389 59.1196C130.101 59.1196 128.007 58.5397 126.106 57.3798C124.205 56.1877 122.691 54.5445 121.563 52.4503C120.468 50.3238 119.92 47.9235 119.92 45.2493ZM141.716 45.3459C141.716 43.5094 141.33 41.9146 140.556 40.5614C139.815 39.2082 138.833 38.1772 137.608 37.4684C136.384 36.7595 135.063 36.4051 133.645 36.4051C132.228 36.4051 130.907 36.7595 129.682 37.4684C128.458 38.145 127.459 39.1599 126.686 40.5131C125.945 41.8341 125.574 43.4128 125.574 45.2493C125.574 47.0858 125.945 48.6967 126.686 50.0822C127.459 51.4676 128.458 52.5308 129.682 53.2719C130.939 53.9807 132.26 54.3351 133.645 54.3351C135.063 54.3351 136.384 53.9807 137.608 53.2719C138.833 52.563 139.815 51.532 140.556 50.1788C141.33 48.7934 141.716 47.1824 141.716 45.3459Z" fill="white"/>
<path d="M178.482 32.0555L162.146 71.2018H156.444L161.856 58.2497L151.369 32.0555H157.507L164.998 52.3536L172.779 32.0555H178.482Z" fill="white"/>
<path d="M207.045 44.7177C207.045 45.7165 206.981 46.6186 206.852 47.4241H186.506C186.667 49.5505 187.456 51.2582 188.874 52.5469C190.291 53.8357 192.031 54.4801 194.093 54.4801C197.057 54.4801 199.152 53.2396 200.376 50.7588H206.32C205.515 53.2074 204.049 55.2211 201.923 56.7999C199.828 58.3464 197.219 59.1196 194.093 59.1196C191.548 59.1196 189.26 58.5558 187.231 57.4281C185.233 56.2682 183.654 54.6573 182.494 52.5953C181.367 50.501 180.803 48.0846 180.803 45.3459C180.803 42.6073 181.351 40.207 182.446 38.145C183.574 36.0507 185.136 34.4398 187.134 33.3121C189.164 32.1844 191.483 31.6206 194.093 31.6206C196.606 31.6206 198.846 32.1683 200.811 33.2638C202.776 34.3592 204.307 35.9057 205.402 37.9033C206.498 39.8687 207.045 42.1401 207.045 44.7177ZM201.294 42.9778C201.262 40.948 200.537 39.321 199.119 38.0966C197.702 36.8723 195.946 36.2601 193.852 36.2601C191.951 36.2601 190.324 36.8723 188.97 38.0966C187.617 39.2887 186.812 40.9158 186.554 42.9778H201.294Z" fill="white"/>
<path d="M217.977 35.9218C218.782 34.5686 219.845 33.5215 221.166 32.7805C222.52 32.0072 224.114 31.6206 225.951 31.6206V37.3234H224.549C222.391 37.3234 220.748 37.8711 219.62 38.9665C218.524 40.062 217.977 41.9629 217.977 44.6693V58.6847H212.467V32.0555H217.977V35.9218Z" fill="white"/>
<path d="M240.681 59.1196C238.587 59.1196 236.702 58.7491 235.027 58.0081C233.383 57.2348 232.079 56.2038 231.112 54.915C230.145 53.594 229.63 52.1281 229.565 50.5171H235.268C235.365 51.6448 235.896 52.5953 236.863 53.3685C237.862 54.1096 239.102 54.4801 240.584 54.4801C242.131 54.4801 243.323 54.1901 244.161 53.6102C245.031 52.998 245.466 52.2247 245.466 51.2904C245.466 50.2916 244.982 49.5505 244.016 49.0673C243.081 48.584 241.583 48.0524 239.521 47.4724C237.524 46.9247 235.896 46.3931 234.64 45.8776C233.383 45.3621 232.288 44.5727 231.354 43.5094C230.451 42.4462 230 41.0447 230 39.3048C230 37.8872 230.419 36.5984 231.257 35.4385C232.095 34.2464 233.287 33.3121 234.833 32.6355C236.412 31.9589 238.216 31.6206 240.246 31.6206C243.275 31.6206 245.707 32.3938 247.544 33.9404C249.412 35.4547 250.411 37.5328 250.54 40.1748H245.031C244.934 38.9827 244.451 38.0322 243.581 37.3234C242.711 36.6145 241.535 36.2601 240.053 36.2601C238.603 36.2601 237.491 36.534 236.718 37.0817C235.945 37.6295 235.558 38.3544 235.558 39.2565C235.558 39.9653 235.816 40.5614 236.331 41.0447C236.847 41.528 237.475 41.9146 238.216 42.2046C238.957 42.4623 240.053 42.8006 241.503 43.2195C243.436 43.735 245.015 44.2666 246.239 44.8143C247.495 45.3298 248.575 46.1031 249.477 47.1341C250.379 48.1651 250.846 49.5344 250.878 51.242C250.878 52.7564 250.46 54.1096 249.622 55.3017C248.784 56.4938 247.592 57.4281 246.046 58.1047C244.531 58.7813 242.743 59.1196 240.681 59.1196Z" fill="white"/>
</svg>
