<svg width="219" height="37" viewBox="0 0 219 37" fill="none" xmlns="http://www.w3.org/2000/svg">
<g clip-path="url(#clip0_329_30)">
<path d="M0.408203 35.9993V0.527344H6.9842V35.9993H0.408203ZM12.5185 35.9993V0.527344H18.9025V35.9993H12.5185ZM23.6166 35.9993V0.527344H30.0006V35.9993H23.6166ZM58.2827 9.40734V35.9993H52.3787V33.4553C49.9307 35.8073 47.9627 36.6233 44.7467 36.6233C41.1467 36.6233 38.2187 35.1353 36.4907 32.4473C35.0987 30.2873 34.6187 28.0313 34.6187 23.6633V9.40734H41.0027V22.4153C41.0027 26.1113 41.3867 27.9833 42.3467 29.1833C43.2587 30.2393 44.4107 30.7673 46.0427 30.7673C48.2507 30.7673 50.0747 29.8553 50.9867 28.2233C51.6587 27.0233 51.8987 25.3433 51.8987 21.9353V9.40734H58.2827ZM62.9691 35.9993V9.40734H68.8251V11.9033C70.6971 9.64735 72.6171 8.78335 75.7371 8.78335C79.4331 8.78335 81.7371 9.98334 83.5611 12.9113C85.7211 10.0313 88.3131 8.78335 92.0571 8.78335C96.2331 8.78335 99.5931 10.4153 101.273 13.2473C102.281 15.0233 102.857 17.5673 102.857 20.6393V35.9993H96.4731V21.4073C96.4731 18.6713 96.0891 17.1833 95.1771 16.1753C94.3131 15.1673 93.0171 14.6393 91.4811 14.6393C89.4171 14.6393 87.7851 15.5993 86.9211 17.3273C86.3451 18.5273 86.1051 20.0153 86.1051 22.8953V35.9993H79.7211V21.4073C79.7211 18.8153 79.3371 17.2313 78.5211 16.2233C77.6571 15.2153 76.2171 14.6393 74.5851 14.6393C72.3291 14.6393 70.7451 15.6473 69.9771 17.5193C69.5451 18.5753 69.3531 20.3513 69.3531 22.8953V35.9993H62.9691ZM107.442 35.9993V9.40734H113.826V35.9993H107.442ZM107.442 6.52734V0.527344H113.826V6.52734H107.442ZM118.54 35.9993V9.40734H124.444V11.9513C126.796 9.64734 128.86 8.78335 131.932 8.78335C135.724 8.78335 138.7 10.2233 140.428 12.8633C141.724 14.9273 142.156 17.1353 142.156 21.7433V35.9993H135.772V22.9913C135.772 19.3433 135.388 17.3753 134.428 16.2233C133.564 15.1673 132.316 14.6393 130.684 14.6393C128.572 14.6393 126.892 15.5513 125.932 17.2313C125.164 18.4793 124.924 20.0153 124.924 23.4713V35.9993H118.54ZM173.58 9.40734V35.9993H167.724V32.5433C165.18 35.4713 162.636 36.6233 158.892 36.6233C151.116 36.6233 145.5 30.8153 145.5 22.7993C145.5 14.6873 151.164 8.78335 159.036 8.78335C162.876 8.78335 165.516 10.0313 167.724 12.9593V9.40734H173.58ZM159.612 14.6393C155.148 14.6393 151.932 18.1433 151.932 22.9433C151.932 27.5993 155.148 30.7673 159.804 30.7673C164.412 30.7673 167.532 27.5513 167.532 22.7993C167.532 17.9993 164.268 14.6393 159.612 14.6393ZM179.435 35.9993V15.2153H176.315V9.40734H179.435V0.527344H185.819V9.40734H189.659V15.2153H185.819V35.9993H179.435ZM218.45 25.5353H197.858C198.626 28.7513 201.41 30.7673 205.202 30.7673C207.842 30.7673 209.426 30.0473 211.058 28.1273H218.018C217.586 29.4713 216.914 30.5753 215.906 31.8233C213.122 35.0873 209.714 36.6233 205.346 36.6233C197.234 36.6233 190.946 30.5753 190.946 22.7993C190.946 14.9753 197.138 8.78335 204.962 8.78335C212.882 8.78335 218.69 14.8313 218.69 23.0873C218.69 24.0473 218.642 24.6233 218.45 25.5353ZM197.666 19.9193H212.402C211.586 16.5113 208.994 14.6393 205.058 14.6393C201.266 14.6393 198.674 16.4633 197.666 19.9193Z" fill="black"/>
</g>
<defs>
<clipPath id="clip0_329_30">
<rect width="219" height="37" fill="white"/>
</clipPath>
</defs>
</svg>
