<svg width="200" height="36" viewBox="0 0 200 36" fill="none" xmlns="http://www.w3.org/2000/svg">
<g clip-path="url(#clip0_1287_1500)">
<path d="M2.98099 25.0108C0.993143 22.998 0 20.5167 0 17.5684C0 14.6202 0.993143 12.1404 2.98099 10.1261C4.96727 8.11335 7.39565 7.1062 10.2646 7.1062C13.1335 7.1062 15.5618 8.11335 17.5481 10.1261C19.5344 12.1389 20.5291 14.6202 20.5291 17.5684V18.9508H4.14536C4.46136 20.6086 5.1852 21.9115 6.31689 22.8595C7.44857 23.8075 8.7655 24.2807 10.2646 24.2807C12.1061 24.2807 13.5802 23.82 14.687 22.8984C15.1867 22.5295 15.621 22.0687 15.9899 21.5161H20.333C19.7804 22.8066 19.083 23.8993 18.2408 24.7929C16.0818 26.9519 13.4246 28.0307 10.2661 28.0307C7.3972 28.0307 4.96883 27.0235 2.98254 25.0108H2.98099ZM4.34305 15.5946H16.1876C15.951 14.2792 15.3252 13.16 14.3118 12.2385C13.2985 11.3169 11.9488 10.8562 10.2646 10.8562C8.84333 10.8562 7.57933 11.2843 6.47411 12.1389C5.36889 12.995 4.6575 14.1469 4.3415 15.5931L4.34305 15.5946Z" fill="white"/>
<path d="M22.1094 7.50146H26.4524L30.7955 23.8868H33.3624L37.7055 7.50146H42.0485L36.5208 27.6367H27.637L22.1094 7.50146Z" fill="white"/>
<path d="M46.606 25.0108C44.6181 22.998 43.625 20.5167 43.625 17.5684C43.625 14.6202 44.6181 12.1404 46.606 10.1261C48.5923 8.11335 51.0206 7.1062 53.8896 7.1062C56.7585 7.1062 59.1868 8.11335 61.1731 10.1261C63.1594 12.1389 64.1541 14.6202 64.1541 17.5684V18.9508H47.7688C48.0848 20.6086 48.8086 21.9115 49.9403 22.8595C51.072 23.8075 52.3889 24.2807 53.888 24.2807C55.7295 24.2807 57.2037 23.82 58.3104 22.8984C58.8101 22.5295 59.2444 22.0687 59.6134 21.5161H63.9564C63.4038 22.8066 62.7064 23.8993 61.8643 24.7929C59.7052 26.9519 57.048 28.0307 53.8896 28.0307C51.0206 28.0307 48.5923 27.0235 46.606 25.0108ZM47.9681 15.5946H59.8126C59.576 14.2792 58.9502 13.16 57.9368 12.2385C56.9235 11.3169 55.5738 10.8562 53.8896 10.8562C52.4683 10.8562 51.2043 11.2843 50.0991 12.1389C48.9939 12.995 48.2825 14.1469 47.9665 15.5931L47.9681 15.5946Z" fill="white"/>
<path d="M67.7109 27.6367V7.50141H71.8563V10.4622H72.054C72.3435 9.90954 72.7654 9.3834 73.318 8.88215C74.5275 7.82986 75.9503 7.30371 77.5817 7.30371H79.9509V11.2514H77.384C75.7775 11.2514 74.4559 11.7588 73.4161 12.7707C72.3762 13.784 71.8563 15.1197 71.8563 16.7775V27.6351H67.7109V27.6367Z" fill="white"/>
<path d="M81.1328 7.50146H85.4759L89.8189 23.6891H91.9904L96.7289 7.50146H101.072L92.7812 35.1382H88.4382L90.8074 27.6367H86.662L81.1344 7.50146H81.1328Z" fill="white"/>
<path d="M117.434 11.2516L120.25 7.50004H122.619V3.15698H126.764V7.50004H132.883V11.2516H126.764V23.8853H133.081V27.6353H122.619V11.25H117.434V11.2516Z" fill="#B9D043"/>
<path d="M138.43 25.0108C136.442 22.998 135.449 20.5167 135.449 17.5684C135.449 14.6202 136.442 12.1404 138.43 10.1261C140.418 8.11335 142.845 7.1062 145.714 7.1062C148.583 7.1062 151.011 8.11335 152.997 10.1261C154.985 12.1389 155.978 14.6202 155.978 17.5684V18.9508H139.593C139.909 20.6086 140.633 21.9115 141.765 22.8595C142.896 23.8075 144.212 24.2807 145.712 24.2807C147.554 24.2807 149.028 23.82 150.135 22.8984C150.634 22.5295 151.069 22.0687 151.438 21.5161H155.781C155.228 22.8066 154.531 23.8993 153.688 24.7929C151.529 26.9519 148.872 28.0307 145.714 28.0307C142.845 28.0307 140.416 27.0235 138.43 25.0108ZM139.792 15.5946H151.637C151.4 14.2792 150.774 13.16 149.761 12.2385C148.748 11.3169 147.398 10.8562 145.714 10.8562C144.293 10.8562 143.029 11.2843 141.923 12.1389C140.818 12.995 140.107 14.1469 139.791 15.5931L139.792 15.5946Z" fill="#B9D043"/>
<path d="M161.229 25.0714C159.308 23.0976 158.348 20.5976 158.348 17.5699C158.348 14.5422 159.308 12.0422 161.229 10.0684C163.15 8.09458 165.546 7.10767 168.415 7.10767C171.626 7.10767 174.244 8.33119 176.271 10.7798C177.14 11.9115 177.745 13.1226 178.088 14.4115H173.744C173.561 13.7546 173.218 13.1615 172.719 12.6353C171.693 11.4507 170.258 10.8592 168.415 10.8592C166.782 10.8592 165.421 11.4772 164.328 12.7147C163.236 13.9523 162.689 15.5712 162.689 17.5715C162.689 19.5718 163.236 21.1907 164.328 22.4282C165.421 23.6658 166.782 24.2837 168.415 24.2837C170.311 24.2837 171.797 23.6922 172.876 22.5076C173.349 21.9815 173.706 21.3899 173.942 20.7315H178.088C177.745 22.0733 177.14 23.2984 176.271 24.4036C174.271 26.8258 171.652 28.0353 168.415 28.0353C165.546 28.0353 163.15 27.0484 161.229 25.0745V25.0714Z" fill="#B9D043"/>
<path d="M181.441 27.6368V0H185.587V10.2646H185.784C186.1 9.7384 186.588 9.21226 187.246 8.68611C188.667 7.63381 190.286 7.10611 192.101 7.10611C194.601 7.10611 196.542 7.82995 197.925 9.27764C199.307 10.7253 199.997 12.8315 199.997 15.5945V27.6368H195.851V15.9899C195.851 14.2262 195.462 12.9311 194.687 12.1014C193.91 11.2717 192.719 10.8576 191.114 10.8576C189.51 10.8576 188.186 11.404 187.147 12.4968C186.107 13.5896 185.587 15.017 185.587 16.7807V27.6383H181.441V27.6368Z" fill="#B9D043"/>
<path d="M116.455 7.50146H120.798L112.507 35.1382H108.164L116.455 7.50146Z" fill="#B9D043"/>
<path d="M106.592 7.50146H110.935L102.644 35.1382H98.3008L106.592 7.50146Z" fill="#B9D043"/>
</g>
<defs>
<clipPath id="clip0_1287_1500">
<rect width="200" height="35.1383" fill="white"/>
</clipPath>
</defs>
</svg>
