<svg width="139" height="330" viewBox="0 0 139 330" fill="none" xmlns="http://www.w3.org/2000/svg">
<path d="M85.4031 294.791L83.6523 313.38C83.5931 313.903 83.9433 314.384 84.4067 314.413L93.6372 314.984C94.0363 315.01 94.3787 314.688 94.4328 314.24L96.1476 297.345L85.4006 294.793L85.4031 294.791Z" fill="white"/>
<path d="M93.598 315.554C93.5722 315.554 93.5465 315.554 93.5182 315.554L84.2877 314.983C83.9272 314.962 83.5951 314.79 83.3531 314.499C83.0827 314.177 82.9565 313.75 83.0055 313.322L84.7563 294.743C84.7717 294.581 84.8567 294.431 84.9906 294.336C85.1245 294.241 85.2918 294.205 85.4515 294.246L96.1985 296.797C96.474 296.862 96.6594 297.124 96.6311 297.405L94.9163 314.301C94.8262 315.034 94.2674 315.557 93.6006 315.557L93.598 315.554ZM85.8223 295.495L84.1332 313.435C84.1177 313.564 84.1512 313.685 84.2233 313.768C84.2465 313.796 84.298 313.845 84.3598 313.847L93.5903 314.419C93.6856 314.416 93.7705 314.316 93.7885 314.169L95.4518 297.781L85.8223 295.495Z" fill="#191F24"/>
<path d="M82.238 308.556C81.6252 310.753 80.3326 316.94 79.7919 320.663C79.4521 322.998 80.93 325.21 83.1881 325.82C89.576 327.548 104.844 327.473 117.556 328.034C118.426 328.073 120.03 327.648 120.743 325.539C123.161 318.387 109.801 316.17 96.5948 308.896C96.3347 308.755 96.0206 308.768 95.7786 308.94C95.6267 309.048 95.4336 309.182 95.2044 309.326C92.9077 310.789 89.0894 310.791 86.7567 309.388L84.1227 307.805C83.3992 307.369 82.4671 307.743 82.238 308.559V308.556Z" fill="white"/>
<path d="M117.583 328.611C117.536 328.611 117.493 328.611 117.449 328.608C114.197 328.464 110.729 328.361 107.374 328.261C97.2936 327.96 87.7721 327.676 82.9573 326.374C80.4057 325.684 78.7708 323.196 79.1493 320.588C79.6874 316.88 80.9748 310.688 81.6107 308.409C81.7678 307.848 82.1669 307.403 82.7076 307.186C83.2457 306.973 83.8379 307.022 84.3348 307.32L86.9688 308.904C89.1342 310.207 92.7311 310.181 94.8218 308.85C95.0407 308.711 95.226 308.585 95.3702 308.482C95.7899 308.183 96.3332 308.155 96.7889 308.404C100.769 310.598 104.799 312.341 108.355 313.881C116.887 317.576 123.054 320.246 121.2 325.725C120.477 327.862 118.834 328.608 117.585 328.608L117.583 328.611ZM82.7024 308.716C82.0819 310.943 80.7894 317.179 80.2719 320.753C79.9758 322.795 81.258 324.741 83.256 325.282C87.942 326.549 97.3991 326.832 107.41 327.131C110.767 327.231 114.238 327.334 117.5 327.478C117.814 327.491 119.421 327.455 120.126 325.367C121.646 320.876 115.881 318.381 107.904 314.926C104.325 313.376 100.27 311.62 96.2431 309.403C96.171 309.365 96.0886 309.367 96.0293 309.411C95.8723 309.524 95.6689 309.663 95.432 309.813C92.9783 311.373 88.9205 311.404 86.3869 309.882L83.7529 308.299C83.5624 308.185 83.3358 308.165 83.1298 308.247C82.9213 308.33 82.7668 308.502 82.7076 308.721L82.7024 308.716Z" fill="#191F24"/>
<path d="M79.4785 322.35C79.4656 322.415 79.4579 322.461 79.4553 322.482C79.1155 324.817 81.3349 326.254 83.4539 327.247C89.7466 330.201 115.159 328.509 116.143 328.442C116.164 328.442 116.176 328.442 116.197 328.442C116.514 328.447 119.74 328.447 120.669 326.441C120.785 326.192 120.855 325.842 120.899 325.515C120.971 324.979 120.932 324.433 120.814 323.905C120.718 323.475 120.293 323.205 119.869 323.316C115.152 324.523 104.137 324.922 93.1298 323.71C85.8124 322.904 82.6351 321.307 80.9384 320.293C80.4749 320.017 79.8853 320.285 79.7797 320.816C79.6922 321.261 79.5841 321.802 79.4759 322.353L79.4785 322.35Z" fill="white"/>
<path d="M100.046 329.569C93.2047 329.569 86.1421 329.18 83.1296 327.766C81.0801 326.803 78.4024 325.202 78.8092 322.406C78.8143 322.38 78.8221 322.326 78.8375 322.249L79.1413 320.712C79.2263 320.279 79.5173 319.913 79.9189 319.736C80.3154 319.561 80.7738 319.586 81.1497 319.81C82.9262 320.874 86.1009 322.377 93.112 323.15C104.485 324.401 115.273 323.889 119.647 322.769C119.998 322.679 120.363 322.733 120.672 322.923C120.986 323.116 121.205 323.423 121.285 323.786C121.424 324.404 121.455 325.011 121.378 325.593C121.318 326.049 121.223 326.417 121.1 326.685C120.023 329.007 116.501 329.013 116.105 329.015C114.688 329.11 107.497 329.571 100.046 329.571V329.569ZM80.4622 320.753C80.4262 320.753 80.3978 320.763 80.3798 320.771C80.3412 320.789 80.2742 320.83 80.2562 320.93L79.955 322.465L79.9344 322.571C79.7052 324.151 80.8407 325.436 83.6137 326.739C89.7545 329.62 114.954 327.954 116.022 327.88C116.035 327.88 116.102 327.877 116.115 327.877C116.251 327.877 119.284 327.908 120.072 326.204C120.113 326.113 120.196 325.892 120.255 325.441C120.314 324.993 120.288 324.517 120.18 324.03C120.162 323.948 120.111 323.904 120.08 323.886C120.046 323.866 119.995 323.845 119.928 323.863C115.456 325.006 104.495 325.539 92.9884 324.272C85.7559 323.474 82.437 321.896 80.5678 320.779C80.5292 320.755 80.4957 320.748 80.4622 320.748V320.753Z" fill="#191F24"/>
<path d="M97.4785 315.256C97.3085 315.256 97.1386 315.179 97.0279 315.032C96.8373 314.783 96.8863 314.427 97.136 314.239L100.99 311.304C101.24 311.114 101.595 311.163 101.783 311.412C101.974 311.662 101.925 312.017 101.675 312.205L97.8209 315.141C97.7179 315.218 97.5969 315.256 97.4785 315.256Z" fill="#191F24"/>
<path d="M102.62 317.359C102.447 317.359 102.277 317.282 102.167 317.133C101.979 316.883 102.03 316.528 102.28 316.34L105.653 313.809C105.903 313.621 106.258 313.672 106.446 313.922C106.634 314.172 106.582 314.527 106.333 314.715L102.96 317.246C102.857 317.323 102.738 317.359 102.62 317.359Z" fill="#191F24"/>
<path d="M58.1846 123.376L89.6341 125.99L30.5307 282.623L30.53 282.624L30.5267 282.626L30.5131 282.638L30.4593 282.684C30.4122 282.724 30.3433 282.782 30.2574 282.854C30.0853 282.997 29.8456 283.193 29.5749 283.403C29.0221 283.834 28.3793 284.295 27.9206 284.518L28.1392 284.968L27.9205 284.518C27.5721 284.688 27.2666 284.846 26.987 284.99C26.4245 285.282 25.9667 285.518 25.475 285.685C24.7909 285.916 24.0698 285.993 23.006 285.762L23.0058 285.762C17.5989 284.586 15.0545 279.327 17.2665 274.216C36.6636 229.417 45.2799 174.22 48.1289 155.968C48.3041 154.846 48.4574 153.864 48.5901 153.033C49.8146 145.358 52.2492 137.867 54.382 132.289C55.4477 129.501 56.4366 127.195 57.1587 125.586C57.5197 124.782 57.8139 124.153 58.0175 123.725C58.0828 123.587 58.1387 123.471 58.1846 123.376Z" fill="white" stroke="black"/>
<path d="M68.3611 130.851C68.4005 130.539 68.4346 130.282 68.4614 130.087L109.339 133.094C117.6 159.35 115.854 197.997 111.648 231.611C107.428 265.338 100.746 293.9 99.3105 299.58L99.3102 299.581C99.161 300.176 98.6756 300.626 98.0585 300.74L98.0579 300.74C93.7896 301.54 87.4934 300.879 83.9528 300.381C82.8168 300.222 82.0246 299.179 82.1724 298.039L82.1724 298.039C83.628 286.759 83.1071 261.678 81.2575 236.974C80.3321 224.613 79.0729 212.33 77.5581 201.894C76.0454 191.473 74.2722 182.85 72.3064 177.836C68.3007 167.618 67.3492 155.575 67.407 146.059C67.4358 141.306 67.7163 137.195 67.9895 134.272C68.126 132.811 68.2607 131.648 68.3611 130.851Z" fill="white" stroke="black"/>
<path d="M76.2157 201.864C75.9171 201.864 75.6699 201.632 75.6519 201.331C75.6467 201.233 75.0082 191.351 70.3041 180.347C68.8468 176.935 67.7937 172.878 67.1784 168.282C67.1372 167.973 67.3535 167.687 67.665 167.646C67.974 167.604 68.2598 167.821 68.301 168.132C68.9034 172.625 69.9282 176.585 71.3469 179.901C76.1308 191.094 76.7796 201.164 76.7848 201.264C76.8028 201.576 76.5659 201.844 76.2518 201.864C76.2415 201.864 76.2286 201.864 76.2183 201.864H76.2157Z" fill="#191F24"/>
<path d="M87.4631 172.89C85.9105 172.89 84.3657 172.408 83.0706 171.474L78.1219 167.895C76.4535 166.687 75.4313 164.815 75.3206 162.758L74.4735 147.006C74.4349 146.292 74.7155 145.608 75.2408 145.126C75.7686 144.645 76.4792 144.423 77.1847 144.529C81.4588 145.149 89.9812 146.043 99.065 145.08C99.7215 145.008 100.381 145.219 100.878 145.651C101.372 146.081 101.668 146.704 101.689 147.361L102.168 162.403C102.255 165.168 100.682 167.684 98.1561 168.816L90.5116 172.238C89.5384 172.673 88.4956 172.89 87.458 172.89H87.4631ZM76.8448 145.636C76.5359 145.636 76.2398 145.749 76.008 145.96C75.7325 146.213 75.5858 146.568 75.6064 146.941L76.4535 162.694C76.5462 164.406 77.3958 165.966 78.7862 166.973L83.7349 170.552C85.5681 171.878 87.9884 172.128 90.0533 171.203L97.6978 167.781C99.8013 166.839 101.112 164.743 101.04 162.439L100.561 147.397C100.551 147.049 100.399 146.733 100.139 146.506C99.876 146.277 99.5361 146.171 99.1885 146.208C89.9864 147.183 81.3532 146.277 77.0276 145.651C76.9684 145.644 76.9066 145.639 76.8474 145.639L76.8448 145.636Z" fill="#191F24"/>
<path d="M48.8055 169.318C48.3137 169.318 47.8245 169.169 47.4074 168.872L46.465 168.206C46.2101 168.025 46.1483 167.67 46.3312 167.415C46.5114 167.16 46.8641 167.098 47.1216 167.281L48.064 167.948C48.4553 168.226 48.9626 168.262 49.39 168.046L57.8068 163.767C58.1956 163.568 58.4557 163.193 58.502 162.76L60.3996 145.236C60.4743 144.551 59.9979 143.931 59.3182 143.825L49.0681 142.237C48.7592 142.188 48.548 141.899 48.5943 141.59C48.6433 141.281 48.9368 141.073 49.2406 141.117L59.4907 142.705C60.7729 142.903 61.6664 144.07 61.5248 145.357L59.6272 162.881C59.5396 163.697 59.0478 164.405 58.3166 164.779L49.8998 169.058C49.5522 169.236 49.1763 169.32 48.8029 169.32L48.8055 169.318Z" fill="#191F24"/>
<path d="M22.901 295.263C24.0236 289.653 24.5102 288.499 27.2034 284.174C29.204 280.958 24.3403 276.112 21.8634 275.739C17.7309 274.889 18.3926 276.197 13.6679 282.253L9.96802 286.805C9.96802 286.805 21.92 300.166 22.901 295.263Z" fill="white"/>
<path d="M21.7588 296.898C18.3961 296.898 11.0246 288.857 9.52095 287.176C9.33557 286.967 9.32786 286.656 9.50552 286.439L13.0175 282.155C14.3126 280.497 15.1288 279.173 15.8549 277.963C16.0171 277.695 16.3646 277.608 16.6324 277.77C16.9002 277.932 16.9877 278.28 16.8281 278.548C16.084 279.789 15.2446 281.143 13.9032 282.863L10.6899 286.782C14.4336 290.904 20.1907 296.226 21.9158 295.747C21.9982 295.724 22.2171 295.665 22.3201 295.144C23.3268 290.108 23.677 288.646 25.7702 285.149C25.9299 284.882 26.28 284.794 26.5478 284.954C26.8156 285.116 26.9031 285.463 26.7435 285.731C24.7403 289.078 24.4288 290.381 23.4323 295.366C23.2341 296.362 22.6599 296.718 22.2145 296.839C22.0729 296.877 21.921 296.895 21.7588 296.895V296.898Z" fill="#191F24"/>
<path d="M23.6522 293.151L18.8683 285.934C16.636 282.566 11.8907 282.064 9.00443 284.891L3.52793 289.484C3.52793 289.484 2.48003 292.643 2.81475 294.683C3.24731 297.337 4.1021 301.122 5.75252 304.871C8.2938 310.641 15.328 322.23 17.8333 326.303C18.3585 327.156 19.6716 328.003 20.5857 327.593C21.6722 327.107 22.7948 326.234 23.8839 325.214C25.5653 323.636 25.0014 316.262 24.3989 311.125C24.0127 307.832 24.3011 299.431 24.4427 295.968C24.4839 294.969 24.2084 293.985 23.6548 293.151H23.6522Z" fill="white"/>
<path d="M19.9765 328.271C18.8848 328.271 17.7545 327.398 17.2679 326.603C14.4639 322.046 7.67174 310.825 5.15105 305.104C3.45429 301.249 2.59434 297.361 2.17208 294.779C1.81934 292.626 2.86211 289.447 2.90846 289.31C2.94193 289.21 3.00116 289.122 3.08097 289.055L8.55748 284.462C10.0225 283.025 12.0771 282.309 14.1601 282.531C16.2431 282.752 18.1021 283.88 19.2607 285.626L24.0446 292.843C24.6677 293.782 24.9715 294.872 24.9252 295.994C24.7836 299.442 24.4977 307.81 24.8788 311.062C26.3516 323.601 24.7243 325.128 24.1888 325.63C22.9014 326.837 21.7711 327.651 20.736 328.114C20.4914 328.222 20.2366 328.271 19.9791 328.271H19.9765ZM3.93578 289.817C3.7401 290.453 3.02431 292.961 3.28951 294.596C3.70147 297.114 4.53827 300.902 6.18611 304.645C8.74799 310.462 16.0526 322.468 18.2308 326.011C18.6505 326.696 19.6933 327.337 20.2674 327.079C21.1866 326.667 22.2139 325.923 23.4086 324.803C23.9339 324.311 25.0179 321.999 23.7485 311.196C23.3572 307.864 23.6455 299.424 23.7871 295.95C23.8232 295.067 23.5837 294.21 23.0945 293.471L18.3106 286.254C17.34 284.789 15.7822 283.844 14.0365 283.661C12.2908 283.476 10.5683 284.076 9.31444 285.304L3.9332 289.82L3.93578 289.817Z" fill="#191F24"/>
<path d="M24.0258 301.961C23.9769 301.961 23.9254 301.954 23.8765 301.941L18.727 300.527C18.4257 300.445 18.2481 300.133 18.3305 299.832C18.4129 299.531 18.7244 299.351 19.0282 299.436L24.1777 300.849C24.479 300.932 24.6566 301.243 24.5742 301.544C24.5047 301.797 24.2756 301.961 24.0284 301.961H24.0258Z" fill="#191F24"/>
<path d="M23.7424 306.543C23.6934 306.543 23.642 306.535 23.593 306.522L18.4435 305.106C18.1423 305.024 17.9646 304.712 18.047 304.411C18.1294 304.107 18.441 303.929 18.7448 304.014L23.8943 305.431C24.1955 305.513 24.3732 305.824 24.2908 306.126C24.2213 306.378 23.9921 306.543 23.7449 306.543H23.7424Z" fill="#191F24"/>
<path d="M18.5258 327.971C19.051 327.971 19.548 327.886 20.0037 327.732C21.5408 327.201 25.3875 326.058 24.9575 320.543C24.5121 314.827 20.1659 311.918 16.9938 308.166C14.5735 305.303 14.8155 293.338 14.0534 290.993C12.9952 287.735 9.41116 285.998 6.26223 287.213C5.35077 287.566 4.15863 288.737 3.46602 289.486C1.51693 291.587 1.28778 296.152 1.47574 299.507C1.83106 305.792 5.52583 318.303 10.1964 324.343C12.4751 327.292 15.9871 327.969 18.5258 327.969V327.971Z" fill="white"/>
<path d="M18.4429 328.545C16.2749 328.545 12.2506 328.046 9.66556 324.699C4.78126 318.38 1.1689 305.584 0.829028 299.549C0.666819 296.685 0.731171 291.523 2.96863 289.108C3.79513 288.215 4.98983 287.071 5.97596 286.693C7.62895 286.054 9.43643 286.129 11.0637 286.901C12.6961 287.679 13.9525 289.108 14.5113 290.825C14.7919 291.688 14.9309 293.57 15.1112 295.954C15.4304 300.218 15.8656 306.06 17.3461 307.808C18.067 308.661 18.8677 309.487 19.6453 310.288C22.3205 313.051 25.0858 315.906 25.4437 320.505C25.8942 326.3 21.9343 327.649 20.2452 328.226L20.1114 328.273C19.5913 328.453 19.0299 328.543 18.4506 328.543L18.4429 328.545ZM8.26491 287.396C7.62638 287.396 6.99039 287.514 6.38018 287.749C5.77769 287.98 4.83535 288.758 3.79515 289.878C2.36874 291.418 1.69672 294.917 1.95677 299.482C2.28891 305.373 5.806 317.855 10.559 324.004C12.8505 326.967 16.481 327.41 18.4403 327.41C18.8961 327.41 19.3312 327.34 19.7328 327.201L19.8719 327.155C21.4348 326.622 24.6892 325.512 24.3082 320.595C23.9812 316.403 21.476 313.815 18.824 311.078C18.0361 310.265 17.2199 309.423 16.4732 308.54C14.7559 306.511 14.3233 300.705 13.9731 296.039C13.8083 293.822 13.6642 291.909 13.4273 291.176C12.9664 289.754 11.9236 288.57 10.5719 287.926C9.83293 287.573 9.04764 287.398 8.26491 287.398V287.396Z" fill="#191F24"/>
<path d="M18.3899 328.557C17.7668 328.557 17.1489 328.518 16.5464 328.441C16.2349 328.4 16.016 328.117 16.0572 327.805C16.0958 327.494 16.3816 327.277 16.6906 327.316C17.2442 327.388 17.8158 327.424 18.3874 327.424C19.4559 327.424 20.4137 327.03 21.0136 326.34C21.5234 325.753 21.7345 325.007 21.6187 324.177C20.8514 318.639 17.9033 315.809 14.4892 312.537C11.5334 309.702 10.8382 300.783 10.4648 295.994C10.3696 294.781 10.2898 293.734 10.2125 293.453C9.89068 292.279 8.18103 290.87 6.1444 290.646C4.96259 290.518 3.33535 290.767 2.31575 292.701C2.16899 292.977 1.82655 293.085 1.55106 292.938C1.27556 292.791 1.16741 292.449 1.31417 292.173C2.32862 290.255 4.1361 289.29 6.27057 289.524C8.56982 289.776 10.8279 291.406 11.3068 293.159C11.4072 293.528 11.4715 294.313 11.5977 295.912C11.9324 300.222 12.6328 309.19 15.277 311.726C18.6937 315.004 21.9225 318.101 22.7438 324.031C22.9009 325.176 22.5919 326.263 21.8684 327.092C21.0522 328.027 19.7855 328.565 18.3874 328.565L18.3899 328.557Z" fill="#191F24"/>
<path d="M76.4766 44.6406L79.937 25.644L95.4139 29.6246L93.2768 42.8511L76.4766 44.6406Z" fill="white"/>
<path d="M76.3935 45.2104C76.2365 45.2104 76.0871 45.1461 75.979 45.0302C75.858 44.8989 75.8039 44.7187 75.8374 44.5436L79.2978 25.5471C79.3262 25.3926 79.4163 25.2561 79.5502 25.1712C79.6815 25.0862 79.8437 25.0604 79.9956 25.0991L95.4725 29.0796C95.7557 29.1517 95.9385 29.4298 95.8921 29.7182L93.7551 42.9421C93.7139 43.1944 93.5105 43.3875 93.2556 43.4158L76.4528 45.2053C76.4322 45.2053 76.4115 45.2079 76.3935 45.2079V45.2104ZM80.302 26.3478L77.0861 44.0003L92.7046 42.337L94.6897 30.0503L80.3046 26.3504L80.302 26.3478Z" fill="#191F24"/>
<path d="M68.314 13.9798L68.314 13.9802C68.1695 15.4647 68.8695 16.3666 70.2674 17.8251C70.3925 17.9557 70.5223 18.0899 70.6563 18.2284C72.0094 19.6274 73.7952 21.4738 75.5917 24.5612L75.5917 24.5613C76.6171 26.3241 77.2934 27.8884 77.834 29.1389C78.0196 29.5682 78.1893 29.9606 78.3515 30.3113C79.0119 31.7385 79.5003 32.3532 80.2961 32.4781C81.1307 32.6085 81.7474 32.122 82.6078 31.4001L82.6445 31.3693C83.4366 30.7044 84.4301 29.8705 85.851 29.9839L85.8514 29.9839C86.7895 30.0595 87.5095 30.5123 88.0984 31.123C88.6755 31.7214 89.1508 32.4973 89.6017 33.2595C89.6442 33.3314 89.6866 33.4032 89.7288 33.4749C90.6158 34.9785 91.4578 36.4058 92.8759 37.0746C94.7112 37.9401 98.8719 37.8618 104.979 33.2877C105.786 32.6824 106.047 31.59 105.599 30.6898C104.885 29.2574 103.985 27.4709 102.984 25.8418L102.984 25.8417C100.81 22.3036 98.9301 20.1052 97.5734 18.5184C97.4362 18.358 97.3043 18.2038 97.1781 18.0551C96.498 17.2542 95.9441 16.5731 95.6125 15.9264C95.2659 15.2504 95.1477 14.5855 95.3557 13.8388C95.6566 12.7583 96.3773 12.0185 97.2325 11.4742C98.077 10.9368 99.0907 10.5664 100.031 10.237C100.113 10.208 100.196 10.1793 100.277 10.1509C101.145 9.84771 101.931 9.57362 102.549 9.22281C103.217 8.84411 103.589 8.4327 103.682 7.90263L103.682 7.90259C103.786 7.31358 103.561 6.51786 102.971 5.61482C102.391 4.72613 101.501 3.80177 100.409 2.9845C98.214 1.34185 95.308 0.206038 92.6423 0.567346L92.438 0.59504C90.1114 0.978545 88.7101 2.41772 87.1243 4.04639C87.0459 4.12688 86.9671 4.20783 86.8876 4.28914C85.1691 6.04881 83.2225 7.90822 79.7335 8.29563C78.5005 8.43299 77.4865 8.33675 76.6024 8.25284C76.3579 8.22963 76.1233 8.20736 75.8968 8.19124C74.8544 8.11707 73.8979 8.15678 72.6599 8.75134L68.314 13.9798ZM68.314 13.9798C68.4312 12.7652 69.0712 11.6697 69.9265 10.7585M68.314 13.9798L69.9265 10.7585M69.9265 10.7585C70.7809 9.84832 71.8196 9.15571 72.6596 8.75149L69.9265 10.7585Z" fill="white" stroke="black"/>
<path d="M83.7514 16.1255L85.2215 15.3608C85.2215 15.3608 89.9926 25.32 91.8593 27.8716C93.7259 30.4231 102.066 25.2402 102.066 25.2402L102.269 23.4018L103.265 22.7529C103.574 22.5521 103.775 22.22 103.814 21.8544C103.852 21.4887 103.721 21.1231 103.458 20.8631C101.445 18.8676 97.1761 14.3412 95.1009 9.93582C95.1009 9.93582 88.0821 9.52128 83.7488 16.1281L83.7514 16.1255Z" fill="white"/>
<path d="M93.549 29.15C92.6041 29.15 91.8111 28.8848 91.3193 28.2128C89.6715 25.9599 85.9046 18.2562 84.8824 16.1398L83.9297 16.6367C83.7006 16.7551 83.42 16.7062 83.2474 16.5157C83.0749 16.3252 83.0517 16.0394 83.1934 15.8257C87.6554 9.0206 94.7566 9.35788 95.0527 9.37848C95.2587 9.39136 95.444 9.51495 95.5316 9.7029C97.6017 14.0954 101.987 18.6965 103.776 20.4679C104.162 20.849 104.35 21.3794 104.296 21.9201C104.242 22.4608 103.948 22.9397 103.493 23.2358L102.72 23.7405L102.545 25.3136C102.527 25.4861 102.429 25.6406 102.28 25.7333C101.163 26.4285 96.5795 29.1552 93.5465 29.1552L93.549 29.15ZM85.3587 14.8473C85.4849 14.9013 85.5879 14.9992 85.6471 15.1228C85.6935 15.2206 90.4181 25.0639 92.2308 27.5434C93.2787 28.9775 98.1656 26.9048 101.448 24.9094L101.623 23.3439C101.641 23.174 101.734 23.0247 101.878 22.932L102.875 22.2831C103.042 22.175 103.148 21.9999 103.168 21.8017C103.189 21.6034 103.119 21.4103 102.978 21.2713C100.758 19.0699 96.7752 14.7932 94.6613 10.5062C93.4203 10.5294 88.8656 10.9002 85.3587 14.8473Z" fill="#191F24"/>
<path d="M86.1059 23.4644C85.465 24.3591 84.81 24.7508 84.2383 24.8651C83.6036 24.9919 82.9743 24.7968 82.4393 24.3907C81.9003 23.9816 81.4909 23.3813 81.3146 22.777C81.1383 22.1727 81.2084 21.6281 81.5181 21.2425L81.1283 20.9294C82.8972 18.7305 86.7335 23.4269 86.7335 23.4269L86.3112 23.1593C86.243 23.2669 86.1745 23.3685 86.1059 23.4644Z" fill="white" stroke="black"/>
<path d="M17.4996 147.359L10.5066 146.087C10.5066 146.087 9.59768 153.932 7.92409 155.655C5.19743 158.461 2.80292 159.674 1.81164 161.268C-3.94036 170.516 13.6838 179.528 11.8145 172.522C10.2903 166.803 12.5432 164.849 12.5432 164.849C15.1051 162.627 18.8256 164.223 18.8514 164.175C20.252 161.631 18.6582 157.781 17.5846 155.714C17.0542 154.694 16.8482 153.538 16.9692 152.398L17.4996 147.359Z" fill="white"/>
<path d="M10.151 175.59C8.15301 175.59 5.23839 174.094 3.01123 171.766C-0.253556 168.352 -0.89724 164.42 1.24495 160.973C1.8217 160.043 2.77436 159.284 3.97934 158.318C5.01182 157.492 6.18076 156.557 7.43467 155.267C8.6963 153.969 9.61289 148.158 9.86007 146.029C9.87809 145.874 9.96048 145.733 10.0866 145.637C10.2128 145.545 10.3725 145.506 10.5244 145.535L17.5174 146.806C17.8083 146.858 18.0117 147.128 17.9808 147.422L17.4505 152.461C17.3397 153.509 17.5303 154.546 18.004 155.458C19.1292 157.628 20.7899 161.681 19.2631 164.451C19.0365 164.866 18.5988 164.727 18.4314 164.673C15.4653 163.733 13.748 164.485 12.8288 165.28C12.8159 165.293 10.8797 167.139 12.2778 172.379C12.7721 174.235 11.9842 174.997 11.4719 175.286C11.1088 175.489 10.6582 175.587 10.151 175.587V175.59ZM10.9132 146.758C10.6531 148.735 9.78282 154.477 8.24827 156.055C6.94544 157.396 5.69413 158.398 4.68997 159.201C3.56996 160.097 2.68424 160.808 2.21049 161.57C-0.413186 165.79 2.47055 169.557 3.83259 170.981C6.34813 173.612 9.7648 174.946 10.9183 174.3C11.3225 174.073 11.4126 173.525 11.1835 172.672C9.58457 166.681 11.9842 164.513 12.0872 164.425C13.1892 163.47 15.1821 162.551 18.4597 163.499C19.3686 161.186 17.9603 157.837 16.9973 155.98C16.4206 154.871 16.1888 153.612 16.3227 152.342L16.799 147.826L10.9132 146.755V146.758Z" fill="#191F24"/>
<path d="M54.4707 52.1391C55.0231 51.8477 55.4692 51.6295 55.7946 51.4769L59.0758 89.2464C46.4005 97.6392 36.4433 113.069 29.6555 126.371C26.234 133.076 23.6075 139.261 21.8364 143.77C20.9507 146.025 20.2786 147.861 19.8276 149.135C19.6021 149.771 19.4319 150.268 19.3179 150.605C19.2949 150.673 19.2742 150.735 19.2558 150.79L6.54752 151.244C8.61291 110.476 21.074 85.4783 33.0057 70.6721C39.0004 63.2333 44.8676 58.3593 49.2293 55.3477C51.4102 53.8418 53.2148 52.8015 54.4707 52.1391Z" fill="white" stroke="black"/>
<path d="M55.4023 100.273L45.2346 148.586C45.2346 148.586 86.6391 155.687 101.071 153.094C115.499 150.501 117.186 146.698 117.186 146.698L111.086 93.5635L55.4023 100.273Z" fill="white"/>
<path d="M92.5518 154.242C74.9817 154.242 46.4793 149.393 45.0555 149.149C44.9036 149.123 44.7697 149.036 44.6822 148.909C44.5946 148.783 44.5637 148.626 44.5972 148.474L54.7649 100.162C54.8138 99.9249 55.0094 99.7447 55.2515 99.7164L110.935 93.0066C111.085 92.9886 111.237 93.0297 111.355 93.125C111.474 93.2177 111.551 93.3542 111.566 93.5061L117.666 146.641C117.676 146.741 117.661 146.842 117.619 146.935C117.545 147.102 115.645 151.044 101.087 153.66C98.8032 154.069 95.8732 154.244 92.5543 154.244L92.5518 154.242ZM45.8253 148.129C50.8976 148.974 87.6392 154.919 100.884 152.542C113.255 150.32 116.064 147.202 116.515 146.574L110.503 94.1987L55.7896 100.793L45.8279 148.129H45.8253Z" fill="#191F24"/>
<path d="M88.8405 43.7479C88.8335 43.6932 88.8269 43.6415 88.8208 43.5927L92.4849 43.7369L92.4849 43.7371L92.4958 43.7372C99.8614 43.8669 106.253 46.0682 110.987 49.9897C115.716 53.9075 118.82 59.5664 119.578 66.6768L119.578 66.6773C119.596 66.8466 119.654 67.0191 119.776 67.1662C119.899 67.3134 120.055 67.3999 120.21 67.4466C120.497 67.5329 120.828 67.4984 121.128 67.4371C121.745 67.311 122.572 66.9927 123.469 66.6343C123.614 66.5767 123.76 66.5178 123.909 66.4579C125.664 65.7534 127.728 64.9246 129.599 64.6707L129.6 64.6706C130.172 64.5926 130.798 64.7645 131.454 65.1623C132.11 65.5598 132.763 66.1631 133.365 66.8826C134.574 68.327 135.511 70.1559 135.844 71.4852C138.112 80.5549 139.032 90.1684 138.195 97.4703C137.775 101.126 136.921 104.156 135.612 106.247C134.316 108.319 132.599 109.44 130.401 109.403L130.401 109.403C121.878 109.259 115.018 105.1 109.501 98.8793C103.977 92.651 99.8232 84.3792 96.7414 76.0898C93.6615 67.8054 91.663 59.534 90.4345 53.3304C89.8204 50.2295 89.3992 47.6475 89.1315 45.8417C88.9977 44.9389 88.9024 44.2302 88.8405 43.7479Z" fill="white" stroke="black"/>
<path d="M120.972 125.942C120.887 129.39 118.348 132.291 114.942 132.817C82.3011 137.861 58.6646 131.349 48.6589 127.662C45.5357 126.511 43.6355 123.344 44.0655 120.043L120.972 125.942ZM120.972 125.942C121.059 122.449 121.522 117.918 122.037 112.884C123.23 101.209 124.7 86.8243 122.408 76.3773L120.972 125.942ZM116.773 62.2702L116.774 62.2701L121.927 76.5163C123.542 83.9082 123.263 93.3212 122.531 102.378C122.242 105.954 121.882 109.482 121.543 112.8C121.026 117.854 120.56 122.421 120.472 125.929L120.472 125.93C120.393 129.137 118.031 131.834 114.865 132.322L114.865 132.322C82.3273 137.351 58.7777 130.858 48.8318 127.193C45.9294 126.123 44.1613 123.179 44.5613 120.108L53.5549 51.2528L74.137 44.7853L73.9871 44.3083L74.137 44.7853C78.5328 43.404 83.2479 42.7725 87.7198 42.5755L87.7199 42.5755C93.2024 42.3333 99.5255 44.6374 104.971 48.3438C110.416 52.0498 114.904 57.104 116.773 62.2702Z" fill="white" stroke="black"/>
<path d="M124.084 94.019C124.063 94.019 124.045 94.019 124.024 94.0164C123.713 93.9855 123.486 93.7049 123.52 93.3934C124.238 86.4184 123.059 76.6755 120.36 67.3266C120.273 67.0253 120.448 66.7112 120.747 66.6237C121.048 66.5361 121.362 66.7112 121.45 67.0099C124.225 76.6317 125.392 86.2896 124.647 93.5066C124.617 93.7976 124.372 94.0164 124.084 94.0164V94.019Z" fill="white"/>
<path d="M91.8168 43.0743C91.8168 43.0743 73.724 41.3518 59.3312 44.1969C50.801 45.8834 34.6213 52.1761 46.9698 64.8722C59.3209 77.5683 67.8201 76.3607 71.8934 69.257C75.9666 62.1532 83.2274 45.7237 91.8168 43.0743Z" fill="white"/>
<path d="M63.4704 75.1043C58.6067 75.1043 52.7672 71.7314 46.4797 65.2687C42.5583 61.2393 41.1087 57.4647 42.1721 54.0506C44.4018 46.8953 56.6937 44.1249 59.1346 43.6434C73.4425 40.8137 91.6022 42.4951 91.785 42.5131C92.0528 42.5388 92.2665 42.75 92.2948 43.0203C92.3231 43.2881 92.1558 43.5404 91.8983 43.6202C84.9902 45.7496 78.7645 57.4698 74.6449 65.225C73.7952 66.8213 72.9945 68.3301 72.2993 69.5428C70.4686 72.7381 67.8475 74.6357 64.7192 75.0296C64.3098 75.0811 63.8927 75.1069 63.4679 75.1069L63.4704 75.1043ZM79.0297 43.1336C73.0357 43.1336 65.798 43.4812 59.356 44.7557C52.9165 46.0276 44.8344 49.3156 43.2561 54.3879C42.3266 57.372 43.6835 60.7681 47.2933 64.4783C53.8718 71.2396 59.8504 74.4992 64.5802 73.9019C67.3403 73.5543 69.6704 71.8498 71.3183 68.9764C72.0032 67.7817 72.8013 66.2806 73.6459 64.692C77.441 57.5496 82.9845 47.1142 89.4317 43.4709C87.1891 43.3241 83.448 43.1336 79.0323 43.1336H79.0297Z" fill="#191F24"/>
<path d="M53.9841 57.1291C51.7003 57.1291 49.5788 56.3567 47.4778 54.6857C47.2332 54.49 47.1919 54.1347 47.3876 53.8901C47.5833 53.6455 47.9386 53.6043 48.1832 53.8C53.8734 58.3238 59.6795 55.6049 69.7751 48.2231C71.2221 47.1649 72.5172 46.2894 73.6269 45.6226C73.8947 45.4604 74.2449 45.5479 74.4045 45.8157C74.5667 46.0835 74.4792 46.4311 74.2114 46.5933C73.1326 47.2421 71.8658 48.0969 70.4445 49.1371C63.5905 54.1502 58.4719 57.1317 53.9841 57.1317V57.1291Z" fill="#191F24"/>
<path d="M127.664 67.2298C128.545 66.3956 128.877 65.1469 128.57 63.9728C128.346 63.1154 128.164 62.0108 128.22 60.7904C128.346 57.9993 127.365 52.8087 124.778 50.5017C122.875 48.8049 117.893 47.6617 113.495 48.4496C112.862 48.5629 112.329 49.0521 112.262 49.6932C112.21 50.1979 112.416 50.7978 113.336 51.3153C115.009 52.2577 115.895 51.5496 117.056 52.2782C118.498 53.182 121.279 57.7959 119.353 58.8825C117.602 59.8712 117.007 55.5817 115.625 54.6805C114.523 53.9621 113.202 54.2093 112.54 55.3216C111.58 56.9334 116.621 63.7591 118.781 65.4352C119.572 66.048 120.573 66.8307 121.526 67.5774C123.344 69.0013 125.929 68.8802 127.605 67.2916L127.667 67.2324L127.664 67.2298Z" fill="white"/>
<path d="M124.308 69.1218C123.17 69.1218 122.032 68.7588 121.089 68.0198C120.137 67.2731 119.138 66.493 118.347 65.8802C116.321 64.307 110.7 57.1544 111.967 55.0302C112.353 54.3814 112.951 53.9359 113.646 53.7737C114.377 53.6038 115.16 53.7557 115.847 54.2037C116.527 54.6466 116.97 55.5735 117.438 56.557C117.814 57.3423 118.28 58.3207 118.69 58.4495C118.726 58.4623 118.811 58.4881 118.986 58.3877C119.138 58.3027 119.341 58.1276 119.354 57.6204C119.39 56.0678 117.655 53.3798 116.666 52.7593C116.246 52.4966 115.881 52.476 115.376 52.4503C114.75 52.4168 113.973 52.3756 112.971 51.8118C111.735 51.1166 111.55 50.2463 111.612 49.6387C111.699 48.7736 112.397 48.0578 113.308 47.8956C117.58 47.1309 122.856 48.1118 125.067 50.0815C127.797 52.5121 128.834 57.8238 128.7 60.8182C128.657 61.7992 128.767 62.8137 129.032 63.8333C129.393 65.2211 128.986 66.681 127.966 67.6465L127.905 67.7057C126.908 68.6481 125.608 69.127 124.305 69.127L124.308 69.1218ZM114.238 54.8397C114.125 54.8397 114.011 54.8525 113.903 54.8783C113.504 54.971 113.172 55.2233 112.943 55.6095C112.294 56.6986 116.723 63.1819 119.045 64.9842C119.835 65.597 120.837 66.3823 121.79 67.129C123.373 68.3674 125.667 68.2619 127.13 66.8792L127.191 66.82C127.91 66.1403 128.196 65.1052 127.938 64.1165C127.645 62.9888 127.521 61.8584 127.57 60.7642C127.691 58.0736 126.741 53.0837 124.316 50.9235C122.578 49.376 117.819 48.2354 113.509 49.0053C113.095 49.0799 112.778 49.3838 112.742 49.7494C112.727 49.8961 112.683 50.3416 113.53 50.8205C114.302 51.2556 114.856 51.2839 115.44 51.3148C116.012 51.3457 116.604 51.3766 117.274 51.7963C118.52 52.579 120.538 55.6353 120.492 57.6436C120.469 58.6451 119.967 59.1369 119.547 59.3738C119.045 59.6545 118.62 59.6133 118.352 59.5283C117.474 59.2502 116.962 58.1791 116.419 57.0436C116.056 56.2841 115.644 55.4216 115.232 55.1538C114.915 54.9452 114.573 54.8397 114.24 54.8397H114.238Z" fill="#191F24"/>
<path d="M94.2829 65.8741C94.2829 65.8741 94.9524 35.4483 108.326 47.4852C108.326 47.4852 102.975 37.7887 94.2829 42.4696C85.5906 47.1505 85.2559 65.2047 85.2559 65.2047L94.2829 65.8741Z" fill="#B9D043"/>
<path d="M94.1991 66.4451C94.1862 66.4451 94.1708 66.4451 94.1579 66.4451L85.1308 65.7757C84.8296 65.7525 84.6004 65.5002 84.6056 65.1989C84.6184 64.4497 85.0484 46.7585 93.9313 41.9746C103.015 37.0852 108.682 47.1139 108.739 47.2143C108.873 47.4563 108.811 47.7601 108.595 47.9326C108.378 48.1051 108.069 48.0948 107.863 47.9095C105.237 45.5458 102.979 44.7477 101.153 45.5355C95.2264 48.0974 94.7707 65.7113 94.7655 65.889C94.763 66.0434 94.696 66.1902 94.5802 66.2958C94.4746 66.391 94.3381 66.4425 94.1991 66.4425V66.4451ZM85.7616 64.684L93.6532 65.2685C93.7846 62.0268 94.7115 47.0855 100.705 44.4953C102.158 43.8645 103.775 43.9958 105.533 44.879C103.303 42.6183 99.4851 40.2727 94.4694 42.9736C86.9872 47.0031 85.9033 61.687 85.7616 64.684Z" fill="#191F24"/>
<path d="M80.8108 60.5704C87.428 57.8025 95.1138 59.8752 99.4626 65.5809C101.834 68.6913 104.28 73.004 106.355 78.9698C112.875 97.7091 115.725 122.558 114.502 129.078C113.279 135.594 107.704 138.756 100.408 141.354C96.6663 142.685 80.3345 141.918 69.3608 141.218C63.5031 140.844 58.8839 136.102 58.6625 130.239C58.1604 116.95 57.5399 94.4983 58.6908 86.3028C60.761 71.5467 72.4093 64.085 80.8082 60.5704H80.8108Z" fill="#B9D043"/>
<path d="M90.8768 142.655C84.5506 142.655 76.3628 142.246 69.2383 141.79C63.0691 141.396 58.2414 136.442 58.0097 130.265C57.523 117.378 56.8794 94.522 58.0432 86.2287C60.1107 71.4957 71.3986 63.8615 80.503 60.0508C87.3622 57.1799 95.308 59.317 99.8242 65.2416C102.587 68.8669 104.935 73.4243 106.802 78.7875C113.12 96.9552 116.267 122.281 114.972 129.186C113.638 136.306 107.232 139.501 100.512 141.893C98.9591 142.444 95.393 142.655 90.8794 142.655H90.8768ZM80.7193 60.5761L80.9381 61.0988C72.104 64.7936 61.1561 72.1832 59.1632 86.3883C58.0123 94.5967 58.656 117.376 59.14 130.224C59.3512 135.816 63.7231 140.302 69.3078 140.66C86.4173 141.751 97.3627 141.811 100.128 140.827C107.528 138.193 112.693 135.17 113.854 128.98C114.987 122.942 112.397 98.3353 105.728 79.1634C103.903 73.9135 101.611 69.4617 98.9205 65.9316C94.7158 60.4164 87.321 58.4313 80.9356 61.0988L80.7167 60.5761H80.7193Z" fill="#191F24"/>
<path d="M94.6598 113C94.6598 113 100.373 140.853 100.373 144.067C100.373 147.28 96.802 147.28 92.1597 147.638C87.5174 147.996 62.5217 149.422 55.7347 142.996C48.9502 136.569 48.5923 114.429 51.0924 111.213C53.5925 108 58.2348 105.142 58.2348 105.142C58.2348 105.142 74.6102 109.212 89.6596 107.284C89.6596 107.284 92.86 106.468 94.6598 112.997V113Z" fill="#B9D043"/>
<path d="M81.1946 148.602C72.0104 148.602 59.8113 147.724 55.2617 143.414C48.091 136.622 48.0035 114.162 50.5628 110.872C53.0963 107.615 57.6613 104.785 57.8544 104.666C57.9832 104.587 58.1403 104.563 58.287 104.6C58.4492 104.641 74.7191 108.614 89.4801 106.734C89.9255 106.641 93.2882 106.201 95.1214 112.857C95.124 112.87 95.1266 112.88 95.1291 112.893C95.3634 114.033 100.855 140.839 100.855 144.076C100.855 147.577 97.2765 147.837 93.1337 148.136L92.1166 148.211C90.9992 148.296 86.6221 148.605 81.192 148.605L81.1946 148.602ZM58.2535 105.756C57.3549 106.332 53.5778 108.843 51.4588 111.567C49.0823 114.62 49.4015 136.297 56.0444 142.59C61.6367 147.889 81.3001 147.904 92.0343 147.078L93.0539 147.003C97.4361 146.686 99.7225 146.411 99.7225 144.073C99.7225 140.986 94.1996 113.992 94.0246 113.137C92.4153 107.318 89.735 107.839 89.7067 107.844C89.6912 107.846 89.6629 107.851 89.6475 107.854C75.6485 109.646 60.3339 106.242 58.251 105.756H58.2535Z" fill="#191F24"/>
<path d="M106.202 126.95C105.919 126.95 105.674 126.739 105.641 126.453C104.191 114.633 101.457 102.382 98.1404 92.8452C96.3149 87.5953 94.0234 83.1435 91.3328 79.6135C87.1282 74.0984 79.7335 72.1133 73.3507 74.7807C70.1322 76.1273 67.1764 77.7442 64.5708 79.5903C64.3159 79.7706 63.9606 79.7114 63.7803 79.4539C63.6001 79.199 63.6593 78.8462 63.9168 78.6634C66.592 76.771 69.6173 75.1128 72.913 73.7328C79.7721 70.8645 87.7178 72.999 92.2339 78.9235C94.9966 82.5487 97.3448 87.106 99.2115 92.4693C102.554 102.078 105.308 114.414 106.766 126.312C106.804 126.623 106.583 126.907 106.271 126.943C106.248 126.945 106.225 126.948 106.202 126.948V126.95Z" fill="#191F24"/>
<path d="M78.7203 120.305C69.5362 120.305 57.337 119.427 52.7874 115.116C52.5608 114.9 52.5505 114.542 52.7668 114.316C52.9831 114.087 53.341 114.079 53.5676 114.295C59.1599 119.594 78.8233 119.609 89.5575 118.783C89.869 118.762 90.1419 118.991 90.1651 119.303C90.1883 119.615 89.9565 119.887 89.6424 119.911C88.525 119.996 84.1479 120.305 78.7178 120.305H78.7203Z" fill="#191F24"/>
<g clip-path="url(#clip0_218_5336)">
<path d="M79.5252 89.607L80.2914 88.4665L80.9844 88.4302L80.9178 87.1603L82.1304 87.0967L82.197 88.3671L83.9869 88.2733L84.0444 89.3706L82.2545 89.4644L82.4481 93.1599L84.2959 93.0631L84.3534 94.16L81.2931 94.3204L81.0419 89.5275L79.5252 89.607Z" fill="#191F24"/>
<path d="M79.1822 88.5252L80.4526 88.4587L78.4511 96.6697L77.1807 96.7363L79.1822 88.5252Z" fill="#191F24"/>
<path d="M76.2967 88.6766L77.5671 88.61L75.5656 96.8211L74.2952 96.8877L76.2967 88.6766Z" fill="#191F24"/>
<path d="M69.207 94.1837C68.5947 93.6255 68.2661 92.9149 68.2209 92.0525C68.1757 91.1901 68.4282 90.4495 68.9788 89.8298C69.529 89.2106 70.2238 88.8788 71.063 88.8348C71.9022 88.7909 72.6279 89.0482 73.2398 89.6065C73.8517 90.1648 74.1807 90.8754 74.2259 91.7378L74.247 92.1421L69.4547 92.3933C69.5725 92.8734 69.8042 93.2434 70.1498 93.5033C70.4953 93.7633 70.8878 93.8815 71.3263 93.8585C71.8649 93.8303 72.2891 93.6729 72.5987 93.3864C72.7392 93.2708 72.8592 93.1294 72.9586 92.9621L74.229 92.8955C74.0871 93.2814 73.8999 93.6118 73.6673 93.8861C73.0688 94.5507 72.3081 94.907 71.3842 94.9554C70.5451 94.9994 69.8193 94.742 69.2074 94.1837L69.207 94.1837ZM69.461 91.4085L72.9257 91.227C72.8363 90.8458 72.6361 90.528 72.3256 90.274C72.015 90.02 71.6132 89.9059 71.1205 89.9317C70.7048 89.9535 70.3416 90.0981 70.0314 90.365C69.7213 90.6324 69.5308 90.9803 69.4606 91.4081L69.461 91.4085Z" fill="#191F24"/>
</g>
<defs>
<clipPath id="clip0_218_5336">
<rect width="16" height="9.36719" fill="white" transform="translate(68 87.8374) rotate(-3)"/>
</clipPath>
</defs>
</svg>
