<svg xmlns="http://www.w3.org/2000/svg" xmlns:xlink="http://www.w3.org/1999/xlink" viewBox="0 0 478.1 62.9">
  <defs>
    <linearGradient id="a" data-name="Безымянный градиент" x1="61" y1="50.24" x2="-2" y2="12.24" gradientTransform="matrix(1, 0, 0, -1, 0, 63.89)" gradientUnits="userSpaceOnUse">
      <stop offset="0" stop-color="#eadbc4"/>
      <stop offset="0.63" stop-color="#d4b98e"/>
      <stop offset="1" stop-color="#bd8b46"/>
    </linearGradient>
  </defs>
  <title>logo</title>
  <path d="M39.5,18.8c1.7-2.2,3.1-2.5,4.3-2.5s3.3,1.7,3.3,4.1-1.1,4.9-2.9,5-2.1-3.3-2-3.6.9-1.6.3-2.5a1.5,1.5,0,0,0-2.4.4l-.3.6c-.8,5,3.3,5.8,4.4,5.8,2.7,0,4.9-3.3,4.9-6.7s-2.2-5.7-5.2-5.7a6.5,6.5,0,0,0-5.1,2.2c-.2.2-13.5,17.7-14.3,18.6s1.9,1.1,2.1,1.3Zm-8,39.7a27.1,27.1,0,1,1,27-27A27.1,27.1,0,0,1,31.5,58.5Zm0-53.4A26.4,26.4,0,1,0,57.8,31.5,26.4,26.4,0,0,0,31.5,5.1Zm0,57.8A31.5,31.5,0,1,1,62.9,31.5,31.5,31.5,0,0,1,31.5,62.9Zm0-60.8A29.4,29.4,0,1,0,60.9,31.5,29.4,29.4,0,0,0,31.5,2.1ZM50.2,34.5c0-.7-.3-1.8-1.2-1.7s-1.4.4-.2,2.5.4,4.9-3.2,6.5c-6.6,2.9-14.8-3-15.1-3.1l-1.3,2a19.9,19.9,0,0,0,11.4,3.2c8.7-.3,9.6-7.1,9.6-7.6A5.4,5.4,0,0,0,50.2,34.5Zm-1.7,7.3a1,1,0,0,0-.9.6c-1,1.5-2,3.5-7.6,3.4s-11.5-4.8-11.8-5S39.7,24.6,39.8,24.6a3.7,3.7,0,0,1-.7-3.1C39,21.5,28,36.2,27.5,36.9L20.8,33c-6.1-3-11.2,0-11.2,3.8A4.6,4.6,0,0,0,12,41.1a5.2,5.2,0,0,0,2.3,4.7c5.2,3.6,12-3.3,12.1-3.2A23.2,23.2,0,0,0,40,47.2c6.5,0,9-3.9,9.1-4.6S49,41.9,48.5,41.8Zm-35-8.6c3.4-.6,7.8,3,9,3.8l-.5.6c-3.3-1.8-7.8-2.5-9.6,1.8A3.5,3.5,0,0,1,13.5,33.2Zm4.9,11.7c-5.8.3-5.2-3.2-5.2-3.2a9.2,9.2,0,0,0,9.1-1l-2.2-1.3a7.7,7.7,0,0,1-6.4.6,2.3,2.3,0,0,1,2.4-1.9c3.3-.2,7.6,2.7,8.2,3.2S21.5,44.8,18.4,44.9Z" transform="translate(0 0)" style="fill: url(#a)"/>
  <path d="M80.1,41.1h2.8V21.5H80.1V20.3h8.1v1.2h-3V41.1h5.3c3,0,3.5-1.1,3.5-3.7V36h1.5v6.3H80.1ZM439,42.6c-6.2,0-9.1-5.6-9.1-11.3s3.2-11.3,9-11.3c2.5,0,4.1.7,5.2,1.9l1-1.9h1.1v7.2h-1.4c0-3.9-2.3-5.9-5.8-5.9s-6.6,3.1-6.6,10,2.8,10,6.9,10,5.6-2.2,5.6-6h1.4v7.3h-1.1l-.9-2A7,7,0,0,1,439,42.6Zm-44-7.2c0,2,.4,3.5,1.4,4.5a5.4,5.4,0,0,0,4.2,1.5,4.2,4.2,0,0,0,3.2-1.2,4.3,4.3,0,0,0,1.1-3.1,4.8,4.8,0,0,0-.4-2.2,3.1,3.1,0,0,0-1.2-1.4,11.4,11.4,0,0,0-3.4-1.2l-2-.4a6.4,6.4,0,0,1-3.7-2.1,5.3,5.3,0,0,1-1.3-3.6,6,6,0,0,1,6.3-6.1,6.8,6.8,0,0,1,2.6.4,6.2,6.2,0,0,1,2,1.5V20.6h2.1v7.5h-2.2V26.8a5.2,5.2,0,0,0-1.1-3.8,3.7,3.7,0,0,0-3.1-1.4,5,5,0,0,0-3.1,1,3.8,3.8,0,0,0-1.1,2.8,3.5,3.5,0,0,0,1.9,3.2,16.6,16.6,0,0,0,3.4,1.1l1.6.4a6.6,6.6,0,0,1,3.9,2.1,6.3,6.3,0,0,1,1.2,4.1,6.7,6.7,0,0,1-1.8,4.9,6.6,6.6,0,0,1-4.9,1.8,7.4,7.4,0,0,1-3.4-.7,6.4,6.4,0,0,1-2.6-2.1v2.3h-1.8V34.3H395Zm23.7-14a4.7,4.7,0,0,0-4.4,2.4c-.9,1.7-1.4,4.3-1.4,7.8s.5,6,1.4,7.7a4.7,4.7,0,0,0,4.4,2.4,4.8,4.8,0,0,0,4.4-2.4,17,17,0,0,0,1.4-7.7c0-3.5-.5-6.1-1.4-7.8A4.8,4.8,0,0,0,418.7,21.4Zm0-1.3c2.9,0,5.1.9,6.5,2.8s2.2,4.8,2.2,8.7-.8,6.7-2.2,8.6-3.6,2.8-6.5,2.8-5.1-.9-6.5-2.8-2.2-4.8-2.2-8.6.7-6.8,2.2-8.7S415.8,20.1,418.7,20.1Zm30.4,21h2.3V22h-2.3V20.6h7.2V22H454v8.2h9.2V22h-2.3V20.6h7.2V22h-2.3V41.1h2.3v1.4h-7.2V41.1h2.3V31.9H454v9.2h2.3v1.4h-7.2Zm20.5,1.4V41.1h2.9V22h-2.9V20.6h8.5V22h-2.8V41.1h2.8v1.4ZM361.9,41.1h2.7V21.5h-2.7V20.3h8.3c4.9,0,7.7,2,7.7,5.6s-2.3,4.5-4.6,5c2.8.4,5.8,2,5.8,5.3s-2.6,6.1-8.2,6.1h-9ZM367,21.5v9h3.2c3.7,0,5.3-1.9,5.3-4.5s-1.6-4.5-5.4-4.5Zm0,10.1v9.5h3.8c4.2,0,5.8-2.2,5.8-4.8s-2.3-4.7-5.8-4.7Zm-18,11c-5.3,0-7.9-3.2-7.9-8.1v-13h-2.7V20.3h7.8v1.2h-2.7v13c0,4.1,1.8,6.7,5.8,6.7s5.5-2.9,5.5-6.8V21.5h-2.7V20.3h7v1.2h-2.7V34.6C356.4,39.5,354.3,42.6,349,42.6Zm-27.2-1.5h2.7V21.5h-2.7V20.3h8v1.2h-2.9V41.1h5.3c2.9,0,3.5-1.1,3.5-3.7V36h1.4v6.3H321.8Zm-10.9,1.5c-6.2,0-9.1-5.6-9.1-11.3S305,20,310.8,20c2.5,0,4.1.7,5.2,1.9l1-1.9h1.1v7.2h-1.4c0-3.9-2.3-5.9-5.7-5.9s-6.7,3.1-6.7,10,2.9,10,6.9,10,5.6-2.2,5.6-6h1.4v7.3h-1l-1-2A7,7,0,0,1,310.9,42.6Zm-38.1-.3V41.1h2l7.4-20.8h1.9l7.3,20.8h2.1v1.2h-6.8V41.1H289l-2-5.8h-8.7l-2,5.8h2.4v1.2Zm9.9-19.4-4,11.3h7.9ZM260.2,41.1h2.9V21.5h-2.9c-2.8,0-3.5.5-3.5,3.4v1.8h-1.4V20.3h18v6.4h-1.4V24.9c0-2.9-.7-3.4-3.5-3.4h-2.9V41.1h2.9v1.2h-8.2Zm-15.4,1.2V41.1h2.7V21.5h-2.7V20.3h7.8v1.2h-2.7V41.1h2.7v1.2Zm-4-20.8-7.2,20.8h-1.8l-7.4-20.8h-2.3V20.3h7.2v1.2h-2.6L233,39.3l6.2-17.8h-2.3V20.3h6.3v1.2ZM204.5,42.6c-6.3,0-9.4-5.6-9.4-11.3S198.2,20,204.5,20s9.4,5.6,9.4,11.3S210.7,42.6,204.5,42.6Zm0-1.3c3.8,0,6.9-3.2,6.9-10s-3.1-10-6.9-10-6.9,3.2-6.9,10S200.7,41.3,204.5,41.3Zm-25.7,1h-7.1V41.1h2.8V21.5h-2.8V20.3h5L188,38V21.5h-2.7V20.3h7v1.2h-2.7V42.4h-1.3L176.1,23.2V41.1h2.7Zm-29.3,0V41.1h2l7.3-20.8h2L168,41.1h2.2v1.2h-6.8V41.1h2.3l-2-5.8H155l-2.1,5.8h2.5v1.2Zm9.8-19.4-3.9,11.3h7.9ZM140,42.3V41.1h2.7V21.5H140V20.3h7.8v1.2h-2.7V41.1h2.7v1.2Zm-10.9.3c-6.2,0-9.1-5.6-9.1-11.3S123.2,20,129,20c2.5,0,4.1.7,5.2,1.9l1-1.9h1.1v7.2h-1.4c0-3.9-2.3-5.9-5.8-5.9s-6.6,3.1-6.6,10,2.9,10,6.9,10,5.6-2.2,5.6-6h1.4v7.3h-1l-1-2A7,7,0,0,1,129.1,42.6Zm-21.8,0c-5.2,0-7.8-3.2-7.8-8.1v-13H96.8V20.3h7.8v1.2h-2.7v13c0,4.1,1.7,6.7,5.8,6.7s5.4-2.9,5.4-6.8V21.5h-2.7V20.3h7.1v1.2h-2.7V34.6C114.8,39.5,112.6,42.6,107.3,42.6Z" transform="translate(0 0)" style="fill: #928683"/>
</svg>
