<svg width="145" height="127" viewBox="0 0 145 127" fill="none" xmlns="http://www.w3.org/2000/svg">
<path d="M10.0961 122.788C11.0503 121.889 11.5274 120.785 11.5274 119.476C11.5274 118.166 11.0503 117.065 10.0961 116.17C9.14706 115.271 7.98573 114.822 6.61206 114.822C5.23839 114.822 4.07443 115.271 3.1202 116.17C2.1712 117.065 1.69672 118.166 1.69672 119.476C1.69672 120.785 2.1712 121.889 3.1202 122.788C4.07443 123.683 5.23839 124.13 6.61206 124.13C7.98573 124.13 9.14706 123.683 10.0961 122.788ZM10.6623 115.65C11.7738 116.701 12.3296 117.976 12.3296 119.476C12.3296 120.976 11.7738 122.251 10.6623 123.301C9.55078 124.352 8.2007 124.877 6.61206 124.877C5.03391 124.877 3.68645 124.352 2.56969 123.301C1.45291 122.251 0.894531 120.976 0.894531 119.476C0.894531 117.976 1.45291 116.701 2.56969 115.65C3.68645 114.6 5.03391 114.074 6.61206 114.074C8.2007 114.074 9.55078 114.6 10.6623 115.65Z" fill="#565656"/>
<path d="M14.4316 123.983H15.0766C15.129 123.944 15.1998 123.876 15.2889 123.778C15.3832 123.68 15.5458 123.448 15.7765 123.081C16.0072 122.71 16.2117 122.297 16.39 121.843C16.5682 121.388 16.7281 120.761 16.8696 119.959C17.0164 119.158 17.0899 118.296 17.0899 117.372V114.221H23.7748V123.983H25.2219V126.981H24.4197V124.731H15.2338V126.981H14.4316V123.983ZM17.8921 117.372C17.8921 118.271 17.8265 119.112 17.6955 119.893C17.5696 120.675 17.4176 121.308 17.2393 121.792C17.0663 122.271 16.8881 122.683 16.7045 123.03C16.5211 123.372 16.3637 123.619 16.2327 123.77L16.0439 123.983H22.9647V114.976H17.8921V117.372Z" fill="#565656"/>
<path d="M29.0215 124.731V114.221H29.8315V119.029H36.6738V114.221H37.476V124.731H36.6738V119.776H29.8315V124.731H29.0215Z" fill="#565656"/>
<path d="M48.6927 120.905L46.1918 115.276L43.6988 120.905H48.6927ZM49.0152 121.652H43.3763L42.0078 124.731H41.1191L45.7906 114.221H46.6008L51.2645 124.731H50.3837L49.0152 121.652Z" fill="#565656"/>
<path d="M60.2083 123.301C59.0915 122.251 58.5332 120.976 58.5332 119.476C58.5332 117.976 59.0915 116.701 60.2083 115.65C61.325 114.6 62.6726 114.074 64.2506 114.074C64.8222 114.074 65.37 114.152 65.8944 114.309C66.4187 114.46 66.8513 114.648 67.192 114.873C67.5381 115.093 67.8396 115.313 68.0965 115.533C68.3586 115.753 68.5473 115.936 68.6627 116.082L68.8436 116.324L68.2774 116.779C68.2459 116.73 68.1934 116.659 68.1201 116.566C68.0519 116.473 67.8947 116.315 67.6482 116.09C67.4017 115.865 67.1318 115.669 66.8381 115.503C66.5498 115.332 66.1722 115.176 65.7056 115.034C65.239 114.893 64.754 114.822 64.2506 114.822C62.877 114.822 61.713 115.271 60.7589 116.17C59.8099 117.065 59.3354 118.166 59.3354 119.476C59.3354 120.785 59.8099 121.889 60.7589 122.788C61.713 123.683 62.877 124.13 64.2506 124.13C64.7645 124.13 65.2547 124.064 65.7213 123.932C66.1879 123.795 66.5734 123.631 66.8775 123.441C67.1868 123.25 67.4568 123.06 67.6875 122.869C67.9182 122.679 68.0886 122.52 68.1987 122.393L68.356 122.18L68.9223 122.627C68.8803 122.686 68.8148 122.766 68.7256 122.869C68.6418 122.972 68.4504 123.152 68.1516 123.411C67.8579 123.67 67.5432 123.9 67.2077 124.1C66.8775 124.301 66.4423 124.481 65.9023 124.643C65.3675 124.799 64.8169 124.877 64.2506 124.877C62.6726 124.877 61.325 124.352 60.2083 123.301Z" fill="#565656"/>
<path d="M81.3332 114.221V124.731H80.5311V114.976H73.6889V124.731H72.8789V114.221H81.3332Z" fill="#565656"/>
<path d="M92.5502 120.905L90.0492 115.276L87.5562 120.905H92.5502ZM92.8726 121.652H87.2337L85.8654 124.731H84.9766L89.6482 114.221H90.4582L95.1219 124.731H94.2411L92.8726 121.652Z" fill="#565656"/>
<path d="M106.975 114.221V124.731H106.165V114.976H100.77V117.372C100.77 118.892 100.696 120.167 100.55 121.198C100.408 122.224 100.196 122.996 99.9125 123.514C99.6345 124.027 99.3357 124.384 99.0159 124.584C98.6961 124.779 98.316 124.877 97.8755 124.877C97.734 124.877 97.5819 124.862 97.4194 124.833C97.262 124.804 97.1389 124.774 97.0497 124.745L96.9082 124.701V123.983C97.228 124.081 97.5217 124.13 97.789 124.13C98.0984 124.13 98.371 124.044 98.6069 123.873C98.8481 123.702 99.0788 123.389 99.299 122.935C99.5192 122.481 99.6844 121.787 99.7945 120.854C99.9099 119.915 99.9675 118.755 99.9675 117.372V114.221H106.975Z" fill="#565656"/>
<path d="M116.013 124.731H111.986V114.221H112.796V118.274H116.013C117.056 118.274 117.921 118.584 118.608 119.204C119.295 119.825 119.638 120.592 119.638 121.506C119.638 122.415 119.295 123.179 118.608 123.8C117.921 124.42 117.056 124.731 116.013 124.731ZM112.796 123.983H116.013C116.852 123.983 117.531 123.751 118.05 123.287C118.574 122.818 118.836 122.224 118.836 121.506C118.836 120.783 118.574 120.189 118.05 119.725C117.531 119.261 116.852 119.029 116.013 119.029H112.796V123.983Z" fill="#565656"/>
<path d="M123.832 124.731V114.221H124.642V119.029H131.484V114.221H132.287V124.731H131.484V119.776H124.642V124.731H123.832Z" fill="#565656"/>
<path d="M140.12 114.221H144.384V124.731H143.581V120.377H139.956L137.297 124.731H136.416L139.153 120.231C139.091 120.221 139.001 120.201 138.886 120.172C138.775 120.138 138.574 120.052 138.28 119.915C137.991 119.774 137.741 119.605 137.525 119.41C137.311 119.214 137.111 118.928 136.927 118.552C136.744 118.176 136.652 117.758 136.652 117.299C136.652 116.429 136.98 115.699 137.635 115.108C138.296 114.516 139.125 114.221 140.12 114.221ZM143.581 114.976H140.12C139.324 114.976 138.681 115.193 138.193 115.628C137.707 116.063 137.463 116.622 137.463 117.306C137.463 117.985 137.707 118.542 138.193 118.977C138.681 119.412 139.324 119.63 140.12 119.63H143.581V114.976Z" fill="#565656"/>
<path d="M50.1098 21.9928L59.9637 0.899414H56.778L46.9512 21.9928H50.1098Z" fill="black"/>
<path fill-rule="evenodd" clip-rule="evenodd" d="M72.1682 105.304L68.8758 105.969H92.1749L90.3306 105.315C88.8739 104.677 87.5708 103.774 86.499 102.658C85.4271 101.543 84.6086 100.239 84.0922 98.8244C80.054 90.4097 73.4916 76.7571 67.4992 64.2906C60.6114 49.961 54.4768 37.1985 53.7952 35.7591C53.2103 34.5242 52.6312 33.3634 52.0707 32.2404C51.4098 30.9156 50.7749 29.6431 50.1878 28.3634V28.1621H36.9785V28.8413C38.5396 29.0805 39.9622 29.8165 41.0017 30.9229C42.0412 32.0293 42.6327 33.4369 42.6746 34.9038V35.256C42.688 35.4991 42.688 35.7426 42.6746 35.9855C42.6158 36.7158 42.3942 37.4269 42.0235 38.0734L35.8393 51.0035C31.8522 59.4055 27.7024 68.0842 23.5524 76.6119L22.1148 79.5552C20.9969 81.8969 19.8516 84.226 18.708 86.5514C18.2424 87.4984 17.7771 88.4447 17.314 89.391C16.7991 90.4467 16.2842 91.5776 15.7693 92.7087L15.7679 92.7115L15.3068 93.7682C14.9 94.6989 14.466 95.6548 13.9507 96.5604C13.0793 98.6657 11.6803 100.548 9.86922 102.053C8.05816 103.558 5.88708 104.641 3.53528 105.214L0.660156 105.893H22.7658V105.214C21.5489 105.232 20.3442 104.986 19.2473 104.497C18.1504 104.008 17.1913 103.289 16.446 102.397C16.0446 101.605 15.8501 100.737 15.8784 99.8629C15.9066 98.9887 16.1569 98.133 16.6089 97.3654L23.1184 83.7813C23.1976 83.6491 23.2583 83.517 23.3166 83.3898C23.3583 83.2991 23.3988 83.211 23.4439 83.1273C23.4815 83.0576 23.5353 82.9638 23.5963 82.8574C23.7117 82.6565 23.8528 82.4104 23.9592 82.1965C24.2183 81.8622 24.5501 81.582 24.9332 81.374C25.3163 81.166 25.7423 81.0348 26.1834 80.989H63.6681C64.1093 81.0348 64.5351 81.166 64.9182 81.374C65.3014 81.582 65.6332 81.8622 65.8922 82.1965L66.1092 82.6241C66.5161 83.4291 66.8958 84.2089 67.2484 85.0139C69.2827 89.215 71.4254 93.8435 74.0293 99.5539C74.6426 100.644 74.8793 101.882 74.7074 103.101C74.4852 103.626 74.138 104.098 73.6918 104.481C73.2553 104.856 72.735 105.137 72.1682 105.304ZM63.3379 78.2228C63.437 78.1747 63.5223 78.1054 63.5868 78.0206L63.7224 77.7942C63.7699 77.7087 63.7947 77.6138 63.7947 77.5175C63.7947 77.4213 63.7699 77.3264 63.7224 77.2408C62.5396 74.7669 61.2245 72.021 59.8533 69.158C56.7909 62.7638 53.4488 55.7852 50.676 49.9469L45.6309 39.5074C45.5806 39.402 45.4961 39.3139 45.3891 39.2552C45.2821 39.1966 45.1581 39.1705 45.0343 39.1804C44.9081 39.176 44.7834 39.2075 44.6768 39.2704C44.5704 39.3333 44.4869 39.4247 44.4375 39.5324L26.1292 77.442C26.0813 77.532 26.0564 77.6312 26.0564 77.7315C26.0564 77.8318 26.0813 77.9308 26.1292 78.0206C26.1836 78.1084 26.263 78.1806 26.3587 78.2294C26.4543 78.2782 26.5626 78.3017 26.6716 78.2973H63.0171C63.129 78.2964 63.2389 78.2709 63.3379 78.2228Z" fill="black"/>
<path d="M107.497 105.968C111.959 105.262 117.308 103.808 119.883 99.6065C120.814 98.0878 121.279 95.7014 121.279 92.4471C121.279 77.0578 121.279 61.6685 121.279 46.2791C121.279 40.453 115.334 36.5158 109.97 38.7902L107.551 39.8158L106.816 38.087L128.784 28.1904L129.831 28.8733V92.4471C129.831 95.8098 130.238 98.2505 131.053 99.7693C133.399 104.144 139.473 104.761 143.788 105.968H107.497Z" fill="black"/>
</svg>
