<svg width="154" height="127" viewBox="0 0 154 127" fill="none" xmlns="http://www.w3.org/2000/svg">
<g clip-path="url(#clip0_302_200)">
<path d="M123.077 81.7721C129.812 75.6095 134.663 70.0843 137.631 65.1967C140.598 60.3091 142.083 55.3683 142.083 50.3746C142.083 44.7432 140.428 40.3336 137.117 37.1461C133.806 33.9585 129.069 32.3648 122.906 32.3648C110.807 32.3648 102.907 38.4211 99.1411 51.4902H97.0533L103.712 27.8486C103.712 27.8486 103.464 33.1617 108.182 33.1617C109.437 33.1617 111.264 32.7366 113.66 31.8866C116.514 31.0366 118.911 30.4523 120.851 30.1334C122.792 29.7084 125.075 29.496 127.7 29.496C135.005 29.496 140.826 31.3022 145.164 34.9149C149.615 38.5274 151.841 43.2556 151.841 49.0995C151.841 53.4558 150.415 57.9184 147.561 62.4873C144.708 66.9499 139.483 72.0319 133.692 77.6283C123.84 87.1524 108.099 99.4631 108.099 99.4631C119.232 99.4631 132.192 99.4631 138.246 99.4631C147.855 99.4631 150.854 96.9279 153.765 88.6254C153.765 94.3694 153.765 105.968 153.765 105.968H92.2676C92.2676 105.968 117.249 87.0138 123.077 81.7721Z" fill="black"/>
<path d="M49.4713 21.9927L59.3246 0.899414H56.14L46.3125 21.9927H49.4713Z" fill="black"/>
<path fill-rule="evenodd" clip-rule="evenodd" d="M71.5298 105.304L68.2367 105.969H91.536L89.6922 105.315C88.2348 104.677 86.932 103.774 85.861 102.658C84.7886 101.543 83.9698 100.239 83.4532 98.8243C79.4159 90.4097 72.8529 76.757 66.8607 64.2904C59.9723 49.9608 53.8377 37.1985 53.1572 35.7591C52.5715 34.5242 51.9926 33.3633 51.4327 32.2402C50.7711 30.9154 50.1367 29.6431 49.5496 28.3633V28.1621H36.3396V28.8412C37.9014 29.0805 39.3235 29.8165 40.3634 30.9229C41.4032 32.0291 41.9943 33.4368 42.0363 34.9038V35.256C42.0498 35.4989 42.0498 35.7426 42.0363 35.9855C41.9766 36.7158 41.7557 37.4268 41.3856 38.0734L35.2008 51.0035C31.2137 59.4054 27.0638 68.0841 22.914 76.6119L21.4756 79.555C20.3585 81.8969 19.2129 84.226 18.0701 86.5514C17.6037 87.4984 17.1387 88.4447 16.675 89.391C16.1599 90.4467 15.6461 91.5776 15.1309 92.7087L15.1295 92.7115L14.6686 93.7682C14.2619 94.6989 13.828 95.6548 13.3115 96.5604C12.4411 98.6657 11.0421 100.548 9.23081 102.053C7.41959 103.558 5.2491 104.641 2.89694 105.214L0.0214844 105.893H22.1277V105.214C20.9103 105.232 19.705 104.986 18.6083 104.497C17.5115 104.008 16.553 103.289 15.8074 102.396C15.4061 101.605 15.2109 100.737 15.2393 99.8629C15.2678 98.9887 15.5186 98.133 15.97 97.3654L22.4802 83.7813C22.5588 83.6492 22.6198 83.517 22.6781 83.3898C22.7201 83.2991 22.7608 83.211 22.8055 83.1272C22.8435 83.0575 22.8964 82.9638 22.9574 82.8574C23.0726 82.6564 23.2136 82.4103 23.3207 82.1965C23.5797 81.8622 23.9118 81.582 24.2941 81.3739C24.6778 81.1659 25.1035 81.0348 25.5454 80.989H63.0295C63.4701 81.0348 63.8971 81.1659 64.2794 81.3739C64.6631 81.582 64.9952 81.8622 65.2542 82.1965L65.4711 82.6241C65.8778 83.4291 66.2574 84.2089 66.6099 85.0139C68.6435 89.2149 70.7868 93.8435 73.3911 99.5539C74.0039 100.644 74.2412 101.882 74.069 103.101C73.8467 103.626 73.4996 104.098 73.0536 104.481C72.617 104.856 72.0964 105.137 71.5298 105.304ZM62.6987 78.2226C62.799 78.1745 62.883 78.1054 62.9481 78.0206L63.0837 77.7942C63.1311 77.7087 63.1555 77.6138 63.1555 77.5175C63.1555 77.4212 63.1311 77.3264 63.0837 77.2408C61.9015 74.7668 60.5865 72.021 59.2145 69.158C56.1519 62.7636 52.8101 55.7851 50.0377 49.9469L44.9917 39.5072C44.9416 39.4019 44.8575 39.3138 44.7504 39.2552C44.6433 39.1965 44.52 39.1703 44.3952 39.1802C44.2692 39.176 44.1444 39.2075 44.0387 39.2703C43.9316 39.3332 43.8489 39.4245 43.7987 39.5324L25.4898 77.442C25.4424 77.532 25.418 77.631 25.418 77.7313C25.418 77.8317 25.4424 77.9306 25.4898 78.0206C25.5454 78.1084 25.6241 78.1806 25.7203 78.2294C25.8152 78.2781 25.9237 78.3016 26.0335 78.2973H62.3787C62.4899 78.2964 62.5997 78.2708 62.6987 78.2226Z" fill="black"/>
<path d="M0.388672 123.983H1.03398C1.0855 123.944 1.15734 123.875 1.24546 123.778C1.34036 123.68 1.50305 123.448 1.73352 123.081C1.96399 122.71 2.1687 122.297 2.34766 121.843C2.52526 121.388 2.68523 120.761 2.82622 119.959C2.97399 119.158 3.04721 118.296 3.04721 117.372V114.221H9.73222V123.983H11.1788V126.981H10.3762V124.73H1.19124V126.981H0.388672V123.983ZM3.84979 117.372C3.84979 118.271 3.78336 119.112 3.65186 119.893C3.52713 120.675 3.3753 121.308 3.19634 121.792C3.02281 122.27 2.84522 122.683 2.6622 123.03C2.47782 123.372 2.32054 123.619 2.18903 123.77L2.0006 123.983H8.92149V114.976H3.84979V117.372Z" fill="#565656"/>
<path d="M22.9776 119.102L23.1904 119.182C23.2853 119.217 23.4467 119.307 23.6785 119.454C23.909 119.6 24.111 119.764 24.2831 119.945C24.4621 120.126 24.6248 120.384 24.7712 120.721C24.9176 121.054 24.9908 121.415 24.9908 121.806C24.9908 122.647 24.6709 123.345 24.0323 123.902C23.3924 124.454 22.556 124.73 21.5229 124.73H17.1738V114.221H21.3657C22.2781 114.221 23.0142 114.47 23.5755 114.968C24.1421 115.462 24.4255 116.09 24.4255 116.852C24.4255 117.174 24.3726 117.472 24.2682 117.746C24.1679 118.02 24.0472 118.237 23.9063 118.398C23.7693 118.56 23.631 118.696 23.4887 118.809C23.3477 118.916 23.2298 118.989 23.1349 119.029L22.9776 119.102ZM17.9845 123.983H21.5229C22.3513 123.983 23.002 123.783 23.4738 123.382C23.9456 122.981 24.1815 122.456 24.1815 121.806C24.1815 121.117 23.9483 120.57 23.4819 120.165C23.0142 119.754 22.3621 119.549 21.5229 119.549H17.9845V123.983ZM21.3657 114.976H17.9845V118.801H21.3657C22.0842 118.801 22.6373 118.63 23.0251 118.288C23.4182 117.941 23.6148 117.463 23.6148 116.852C23.6148 116.28 23.4155 115.826 23.0169 115.489C22.6238 115.147 22.0733 114.976 21.3657 114.976Z" fill="#565656"/>
<path d="M32.2775 123.983H39.1984V124.73H31.4668V114.221H39.0412V114.976H32.2775V118.875H37.7505V119.629H32.2775V123.983Z" fill="#565656"/>
<path d="M52.7811 123.301C51.664 122.251 51.1055 120.976 51.1055 119.476C51.1055 117.976 51.664 116.7 52.7811 115.65C53.8969 114.599 55.2445 114.074 56.8225 114.074C57.3946 114.074 57.9423 114.152 58.467 114.309C58.9916 114.46 59.4241 114.648 59.7644 114.873C60.1101 115.093 60.4124 115.313 60.6686 115.533C60.9303 115.753 61.1201 115.936 61.2353 116.082L61.4156 116.324L60.8503 116.779C60.8178 116.73 60.7663 116.659 60.693 116.566C60.6239 116.473 60.4666 116.314 60.2199 116.09C59.9745 115.865 59.7047 115.669 59.4105 115.503C59.1218 115.332 58.7449 115.176 58.2785 115.034C57.8108 114.893 57.3268 114.822 56.8225 114.822C55.4492 114.822 54.286 115.271 53.3316 116.17C52.3826 117.064 51.9081 118.166 51.9081 119.476C51.9081 120.785 52.3826 121.889 53.3316 122.788C54.286 123.683 55.4492 124.13 56.8225 124.13C57.3363 124.13 57.8271 124.064 58.2934 123.932C58.7598 123.795 59.1462 123.631 59.4499 123.441C59.759 123.25 60.0288 123.06 60.2592 122.869C60.4911 122.679 60.6605 122.52 60.7717 122.393L60.9289 122.18L61.4943 122.627C61.4522 122.686 61.3872 122.766 61.2977 122.869C61.2136 122.972 61.0225 123.152 60.7242 123.411C60.43 123.67 60.1155 123.9 59.7806 124.1C59.4499 124.301 59.0147 124.481 58.4751 124.643C57.9396 124.799 57.3892 124.877 56.8225 124.877C55.2445 124.877 53.8969 124.352 52.7811 123.301Z" fill="#565656"/>
<path d="M76.1007 114.221V124.73H75.2994V114.976H68.4572V124.73H67.6465V114.221H76.1007Z" fill="#565656"/>
<path d="M89.5157 120.905L87.0144 115.276L84.5213 120.905H89.5157ZM89.8384 121.652H84.1986L82.8307 124.73H81.9414L86.6131 114.221H87.4238L92.0875 124.73H91.2063L89.8384 121.652Z" fill="#565656"/>
<path d="M106.137 114.221V124.73H105.328V114.976H99.9313V117.372C99.9313 118.892 99.8581 120.167 99.7117 121.198C99.5694 122.224 99.3579 122.996 99.0745 123.514C98.7966 124.027 98.497 124.384 98.177 124.584C97.8584 124.779 97.4775 124.877 97.0369 124.877C96.8959 124.877 96.744 124.862 96.5814 124.833C96.4241 124.804 96.3007 124.774 96.2113 124.745L96.0703 124.701V123.983C96.3902 124.081 96.683 124.129 96.9501 124.129C97.2606 124.129 97.5331 124.044 97.769 123.873C98.0103 123.702 98.2408 123.389 98.4604 122.935C98.6814 122.481 98.8468 121.787 98.9566 120.854C99.0718 119.915 99.1287 118.755 99.1287 117.372V114.221H106.137Z" fill="#565656"/>
<path d="M117.371 124.73H113.344V114.221H114.154V118.274H117.371C118.413 118.274 119.278 118.584 119.966 119.204C120.653 119.825 120.996 120.592 120.996 121.506C120.996 122.414 120.653 123.179 119.966 123.8C119.278 124.42 118.413 124.73 117.371 124.73ZM114.154 123.983H117.371C118.209 123.983 118.888 123.751 119.407 123.287C119.932 122.818 120.193 122.224 120.193 121.506C120.193 120.783 119.932 120.189 119.407 119.725C118.888 119.261 118.209 119.029 117.371 119.029H114.154V123.983Z" fill="#565656"/>
<path d="M127.385 124.73V114.221H128.196V119.029H135.037V114.221H135.839V124.73H135.037V119.776H128.196V124.73H127.385Z" fill="#565656"/>
<path d="M151.99 124.73H151.188V115.65L143.693 124.73H143.049V114.221H143.858V123.301L151.346 114.221H151.99V124.73Z" fill="#565656"/>
</g>
<defs>
<clipPath id="clip0_302_200">
<rect width="154" height="127" fill="white"/>
</clipPath>
</defs>
</svg>
