<svg width="155" height="125" viewBox="0 0 155 125" fill="none" xmlns="http://www.w3.org/2000/svg">
<g clip-path="url(#clip0_302_215)">
<path d="M2.92188 114.221H11.132V114.976H7.42827V124.73H6.62567V114.976H2.92188V114.221Z" fill="#565656"/>
<path d="M16.8848 114.221H20.9112C21.9551 114.221 22.82 114.531 23.5074 115.152C24.1934 115.772 24.5377 116.539 24.5377 117.453C24.5377 118.362 24.1934 119.126 23.5074 119.747C22.82 120.367 21.9551 120.678 20.9112 120.678H17.6955V124.73H16.8848V114.221ZM20.9112 114.976H17.6955V119.93H20.9112C21.7504 119.93 22.4296 119.698 22.9488 119.234C23.4721 118.765 23.7352 118.171 23.7352 117.453C23.7352 116.73 23.4721 116.136 22.9488 115.672C22.4296 115.208 21.7504 114.976 20.9112 114.976Z" fill="#565656"/>
<path d="M39.7905 124.73H38.9893V115.65L31.4936 124.73H30.8496V114.221H31.659V123.301L39.1465 114.221H39.7905V124.73Z" fill="#565656"/>
<path d="M54.5037 123.301C53.3866 122.251 52.8281 120.976 52.8281 119.476C52.8281 117.976 53.3866 116.7 54.5037 115.65C55.6195 114.599 56.9671 114.074 58.5451 114.074C59.1172 114.074 59.6649 114.152 60.1896 114.309C60.7143 114.46 61.1467 114.648 61.487 114.873C61.8327 115.093 62.135 115.313 62.3913 115.533C62.6543 115.753 62.8427 115.936 62.9579 116.082L63.1382 116.324L62.5729 116.779C62.5404 116.73 62.4889 116.659 62.4157 116.566C62.3465 116.473 62.1893 116.314 61.9425 116.09C61.6971 115.865 61.4274 115.669 61.1332 115.503C60.8444 115.332 60.4675 115.176 60.0011 115.034C59.5334 114.893 59.0494 114.822 58.5451 114.822C57.1718 114.822 56.0086 115.271 55.0542 116.17C54.1052 117.064 53.6307 118.166 53.6307 119.476C53.6307 120.785 54.1052 121.889 55.0542 122.788C56.0086 123.683 57.1718 124.13 58.5451 124.13C59.0589 124.13 59.5497 124.064 60.0161 123.932C60.4824 123.795 60.8688 123.631 61.1725 123.441C61.4816 123.25 61.7514 123.06 61.9818 122.869C62.2137 122.679 62.3832 122.52 62.4943 122.393L62.6516 122.18L63.2169 122.627C63.1749 122.686 63.1098 122.766 63.0203 122.869C62.9363 122.972 62.7451 123.152 62.4469 123.411C62.1527 123.67 61.8381 123.9 61.5033 124.1C61.1725 124.301 60.7373 124.481 60.1977 124.643C59.6622 124.799 59.1118 124.877 58.5451 124.877C56.9671 124.877 55.6195 124.352 54.5037 123.301Z" fill="#565656"/>
<path d="M77.8253 114.221V124.73H77.0241V114.976H70.1818V124.73H69.3711V114.221H77.8253Z" fill="#565656"/>
<path d="M91.2385 120.905L88.7372 115.276L86.244 120.905H91.2385ZM91.5612 121.652H85.9214L84.5535 124.73H83.6641L88.3359 114.221H89.1466L93.8103 124.73H92.929L91.5612 121.652Z" fill="#565656"/>
<path d="M107.859 114.221V124.73H107.05V114.976H101.654V117.372C101.654 118.892 101.581 120.167 101.434 121.198C101.292 122.224 101.081 122.996 100.797 123.514C100.519 124.027 100.22 124.384 99.9012 124.584C99.5812 124.779 99.2003 124.877 98.7597 124.877C98.6187 124.877 98.4669 124.862 98.3042 124.833C98.1469 124.804 98.0235 124.774 97.934 124.745L97.793 124.701V123.983C98.113 124.081 98.4058 124.129 98.6742 124.129C98.9834 124.129 99.2558 124.044 99.4917 123.873C99.7331 123.702 99.9635 123.389 100.183 122.935C100.404 122.481 100.569 121.787 100.679 120.854C100.794 119.915 100.851 118.755 100.851 117.372V114.221H107.859Z" fill="#565656"/>
<path d="M119.095 124.73H115.068V114.221H115.878V118.274H119.095C120.137 118.274 121.002 118.584 121.69 119.204C122.377 119.825 122.72 120.592 122.72 121.506C122.72 122.414 122.377 123.179 121.69 123.8C121.002 124.42 120.137 124.73 119.095 124.73ZM115.878 123.983H119.095C119.933 123.983 120.612 123.751 121.131 123.287C121.656 122.818 121.918 122.224 121.918 121.506C121.918 120.783 121.656 120.189 121.131 119.725C120.612 119.261 119.933 119.029 119.095 119.029H115.878V123.983Z" fill="#565656"/>
<path d="M129.109 124.73V114.221H129.92V119.029H136.762V114.221H137.564V124.73H136.762V119.776H129.92V124.73H129.109Z" fill="#565656"/>
<path d="M153.712 124.73H152.911V115.65L145.415 124.73H144.771V114.221H145.58V123.301L153.068 114.221H153.712V124.73Z" fill="#565656"/>
<path d="M130.128 64.6217C137.221 65.0341 142.97 67.0135 147.378 70.56C151.891 74.1064 154.148 78.6013 154.148 84.0447C154.148 88.5808 152.59 92.6634 149.474 96.2922C146.357 99.8387 142.057 102.643 136.575 104.705C131.201 106.684 125.236 107.674 118.68 107.674C110.208 107.674 102.502 105.9 94.8463 102.557L91.918 87.1375C91.918 87.1375 97.7774 97.6794 104.333 101.488C110.345 104.982 115.563 105.694 121.905 105.694C129.537 105.694 135.125 103.839 138.671 100.127C142.326 96.416 144.152 91.7973 144.152 86.2715C144.152 79.5911 141.627 74.56 136.575 71.1785C131.631 67.7145 124.484 65.9826 115.133 65.9826C114.704 65.9826 114.49 65.7352 114.49 65.2403C114.49 64.7455 114.704 64.4981 115.133 64.4981C123.733 64.4981 130.181 62.931 134.479 59.7969C138.778 56.6629 140.929 52.4155 140.929 47.0546C140.929 41.6936 138.994 37.3637 135.125 34.0647C131.363 30.7656 126.418 29.1161 120.293 29.1161C107.581 29.1161 100.832 37.6234 94.4979 46.807L97.3992 31.714C97.3992 31.714 115.745 27.5078 122.549 27.5078C131.256 27.5078 137.973 29.1573 142.702 32.4564C147.431 35.673 149.796 39.673 149.796 44.4565C149.796 48.9927 147.807 53.1165 143.831 56.8279C139.854 60.5393 135.286 63.1372 130.128 64.6217Z" fill="black"/>
<path d="M49.8541 21.9927L59.7074 0.899414H56.5214L46.6953 21.9927H49.8541Z" fill="black"/>
<path fill-rule="evenodd" clip-rule="evenodd" d="M71.9112 105.304L68.6196 105.969H91.9188L90.0737 105.315C88.6176 104.677 87.3148 103.774 86.2425 102.658C85.1714 101.543 84.3526 100.239 83.8361 98.8243C79.7974 90.4097 73.2358 76.757 67.2435 64.2904C60.3552 49.9608 54.2206 37.1985 53.5386 35.7591C52.9543 34.5242 52.3755 33.3633 51.8142 32.2402C51.154 30.9154 50.5181 29.6431 49.9311 28.3633V28.1621H36.7224V28.8412C38.2828 29.0805 39.7064 29.8165 40.7448 30.9229C41.7847 32.0291 42.3758 33.4368 42.4178 34.9038V35.256C42.4313 35.4989 42.4313 35.7426 42.4178 35.9855C42.3595 36.7158 42.1385 37.4268 41.767 38.0734L35.5836 51.0035C31.5965 59.4054 27.4467 68.0841 23.2955 76.6119L21.8584 79.555C20.7413 81.8969 19.5958 84.226 18.4515 86.5514C17.9865 87.4984 17.5201 88.4447 17.0578 89.391C16.5427 90.4467 16.0275 91.5776 15.5137 92.7087L15.5124 92.7115L15.0501 93.7682C14.6433 94.6989 14.2095 95.6548 13.6943 96.5604C12.8226 98.6657 11.4235 100.548 9.61227 102.053C7.8024 103.558 5.63055 104.641 3.2784 105.214L0.404297 105.893H22.5091V105.214C21.2931 105.232 20.0879 104.986 18.9911 104.497C17.8944 104.008 16.9345 103.289 16.1902 102.396C15.7889 101.605 15.5937 100.737 15.6222 99.8629C15.6506 98.9887 15.9001 98.133 16.3529 97.3654L22.8616 83.7813C22.9416 83.6492 23.0026 83.517 23.0609 83.3898C23.1016 83.2991 23.1423 83.211 23.187 83.1272C23.225 83.0575 23.2792 82.9638 23.3402 82.8574C23.4554 82.6564 23.5964 82.4103 23.7035 82.1965C23.9625 81.8622 24.2933 81.582 24.677 81.3739C25.0606 81.1659 25.4863 81.0348 25.9269 80.989H63.4123C63.8529 81.0348 64.2786 81.1659 64.6623 81.3739C65.0446 81.582 65.3767 81.8622 65.6356 82.1965L65.8526 82.6241C66.2593 83.4291 66.6389 84.2089 66.9927 85.0139C69.0263 89.2149 71.1697 93.8435 73.7726 99.5539C74.3868 100.644 74.6227 101.882 74.4505 103.101C74.2295 103.626 73.8811 104.098 73.4351 104.481C72.9985 104.856 72.4793 105.137 71.9112 105.304ZM63.0815 78.2226C63.1804 78.1745 63.2659 78.1054 63.331 78.0206L63.4665 77.7942C63.514 77.7087 63.5384 77.6138 63.5384 77.5175C63.5384 77.4212 63.514 77.3264 63.4665 77.2408C62.283 74.7668 60.968 72.021 59.5973 69.158C56.5348 62.7636 53.1929 55.7851 50.4192 49.9469L45.3746 39.5072C45.3244 39.4019 45.2404 39.3138 45.1333 39.2552C45.0262 39.1965 44.9014 39.1703 44.7781 39.1802C44.652 39.176 44.5273 39.2075 44.4202 39.2703C44.3144 39.3332 44.2304 39.4245 44.1816 39.5324L25.8727 77.442C25.8252 77.532 25.8008 77.631 25.8008 77.7313C25.8008 77.8317 25.8252 77.9306 25.8727 78.0206C25.9269 78.1084 26.0069 78.1806 26.1018 78.2294C26.1981 78.2781 26.3065 78.3016 26.415 78.2973H62.7615C62.8727 78.2964 62.9825 78.2708 63.0815 78.2226Z" fill="black"/>
</g>
<defs>
<clipPath id="clip0_302_215">
<rect width="155" height="125" fill="white"/>
</clipPath>
</defs>
</svg>
