<svg width="165" height="50" viewBox="0 0 165 50" fill="none" xmlns="http://www.w3.org/2000/svg">
<g clip-path="url(#clip0_395_3160)">
<path d="M69.8741 32.8571C69.8741 34.3607 69.299 34.9356 67.8839 34.9356H62.8865V29.8057H67.8839C69.299 29.8057 69.8741 30.5133 69.8741 31.8842V32.8571ZM67.8839 26.4446H57.4471V29.5845L59.3046 29.8499V42.4095H62.8865V38.2965H67.8839C71.9967 38.2965 73.412 36.218 73.412 32.9898V31.7515C73.412 28.7001 72.0853 26.4446 67.8839 26.4446ZM144.967 26.4446H146.293V42.4095H142.711V31.0878L135.326 42.4095H131.213V26.4446H134.795V37.3702L140.19 29.0096C141.561 26.8868 142.755 26.4446 144.967 26.4446ZM43.8703 6.9419H53.6438V8.93188C53.6438 10.524 53.5111 11.8506 53.1572 13.0447H50.1058V10.3028H43.8703C42.0129 10.3028 41.5705 10.7894 41.5705 12.8237V17.0249C41.5705 19.0592 42.0129 19.5457 43.8703 19.5457H53.6438V22.9067H43.8703C39.3153 22.9067 37.9885 21.5801 37.9885 17.0249V12.8237C37.9885 8.22433 39.3153 6.9419 43.8703 6.9419ZM142.711 6.9419H146.293V22.9067H142.711V16.4941H134.795V22.9067H131.213V6.9419H134.795V13.1332H142.711V6.9419ZM48.2927 39.0486H42.1012V35.9528H48.2927C49.4868 35.9528 49.929 36.5277 49.929 37.4563C49.929 38.385 49.4868 39.0486 48.2927 39.0486ZM49.2213 31.2208C49.2213 32.1939 48.7351 32.7244 47.4966 32.7244H42.1012V29.8499H47.4966C48.7351 29.8499 49.2213 30.2921 49.2213 31.2208ZM51.2664 33.9729C52.1059 33.4605 52.8035 32.3715 52.8035 30.6901C52.8035 28.5231 51.5653 26.4446 47.8947 26.4446H38.5192V42.4095H48.2485C51.7863 42.4095 53.5111 40.5964 53.5111 37.6333C53.5111 35.6409 52.3669 34.4666 51.2664 33.9729ZM118.299 26.4446H128.161V28.4348C128.161 30.0269 128.029 31.3535 127.675 32.5476H124.623V29.8057H118.299C116.442 29.8057 116 30.2921 116 32.3264V36.5277C116 38.562 116.442 39.0486 118.299 39.0486H128.161V42.4095H118.299C113.744 42.4095 112.417 41.0828 112.417 36.5277V32.3264C112.417 27.727 113.744 26.4446 118.299 26.4446ZM88.0942 36.5277C88.0942 38.562 87.652 39.0486 85.7947 39.0486H81.5492C79.6917 39.0486 79.2495 38.562 79.2495 36.5277V32.3264C79.2495 30.2921 79.6917 29.8057 81.5492 29.8057H85.7947C87.652 29.8057 88.0942 30.2921 88.0942 32.3264V36.5277ZM85.7947 26.4446H81.5492C76.994 26.4446 75.6674 27.727 75.6674 32.3264V36.5277C75.6674 41.0828 76.994 42.4095 81.5492 42.4095H85.7947C90.3941 42.4095 91.6765 41.0828 91.6765 36.5277V32.3264C91.6765 27.727 90.3941 26.4446 85.7947 26.4446ZM62.0103 10.3028H68.3263V19.0592H60.664C61.1537 18.2036 61.3603 17.0109 61.5157 15.4771L62.0103 10.3028ZM71.9082 6.9419H58.8622L58.0663 15.0349C57.6683 18.8823 57.0932 19.5014 56.0318 19.5014H55.8108V24.4103H59.2161L59.3487 22.3759H69.8741L70.0068 24.4103H73.412V19.4572H71.9082V6.9419ZM100.079 26.4446H109.897V28.4348C109.897 30.0269 109.764 31.3535 109.41 32.5476H106.359V29.8057H100.079C98.2215 29.8057 97.7793 30.2921 97.7793 32.3264V36.5277C97.7793 38.562 98.2215 39.0486 100.079 39.0486H109.897V42.4095H100.079C95.5239 42.4095 94.1972 41.0828 94.1972 36.5277V32.3264C94.1972 27.727 95.5239 26.4446 100.079 26.4446ZM161.418 17.0249C161.418 19.0592 160.976 19.5457 159.118 19.5457H155.182C153.325 19.5457 152.883 19.0592 152.883 17.0249V12.8237C152.883 10.7894 153.325 10.3028 155.182 10.3028H159.118C160.976 10.3028 161.418 10.7894 161.418 12.8237V17.0249ZM159.118 6.9419H155.182C150.627 6.9419 149.3 8.22433 149.3 12.8237V17.0249C149.3 21.5801 151.069 22.9067 155.624 22.9067H158.676C163.275 22.9067 165 21.5801 165 17.0249V12.8237C165 8.22433 163.718 6.9419 159.118 6.9419ZM75.9327 17.0249V12.8237C75.9327 8.22433 77.2152 6.9419 81.8145 6.9419H91.1899V10.3028H81.6375C79.7802 10.3028 79.5148 10.6123 79.5148 12.6467V13.1774H88.5807V16.4941H79.5148V17.2019C79.5148 19.2362 79.7802 19.5457 81.6375 19.5457H91.3228V22.9067H81.8145C77.2152 22.9067 75.9327 21.5801 75.9327 17.0249ZM118.653 10.3028H124.27V14.2388H116.353V12.8237C116.353 11.0106 116.575 10.3028 118.653 10.3028ZM116.353 17.5556H124.27V22.9067H127.852V6.9419H118.653C114.142 6.9419 112.771 8.18016 112.771 12.8237V22.9067H116.353V17.5556ZM21.0948 26.4446H24.677V42.4095H13.2231C8.62362 42.4095 6.89898 40.6847 6.89898 36.0855V26.4446H10.481V36.1738C10.481 38.2083 11.2771 39.0486 13.1345 39.0486H21.0948V26.4446ZM3.44939 3.44812H28.1266V45.9033H3.44939V3.44812ZM0 49.3525H31.576V-0.00131989H0V49.3525ZM93.4898 22.9067V19.5014C94.9491 19.5014 95.3028 18.617 95.6125 15.6539L96.5854 6.9419H109.41V22.9067H105.828V10.3028H99.6512L99.0177 16.4058C98.487 21.6684 97.0717 23.0837 93.4898 22.9067ZM163.408 26.4446H164.734V42.4095H161.153V31.0878L153.767 42.4095H149.654V26.4446H153.236V37.3702L158.632 29.0096C160.003 26.8868 161.197 26.4446 163.408 26.4446ZM19.326 13.9293H10.481V10.3028H19.326C20.6525 10.3028 21.2717 11.0106 21.2717 12.0718C21.2717 13.1332 20.741 13.9293 19.326 13.9293ZM24.854 11.6738C24.854 9.02039 23.5716 6.9419 19.8122 6.9419H6.89898V22.9067H10.481V17.2902H18.751C20.6085 17.2902 21.0948 17.8209 21.0948 19.6784V22.9067H24.677V19.1033C24.677 17.2064 24.004 16.0935 22.5093 15.7149C24.0644 15.1893 24.854 13.6857 24.854 11.6738Z" fill="white"/>
</g>
<defs>
<clipPath id="clip0_395_3160">
<rect width="165" height="49.3532" fill="white"/>
</clipPath>
</defs>
</svg>
