<svg width="215" height="51" viewBox="0 0 215 51" fill="none" xmlns="http://www.w3.org/2000/svg">
<path d="M126 35V16.9101H129.628V18.5899H129.757C130.034 18.2281 130.371 17.8835 130.768 17.5562C131.701 16.867 132.746 16.5225 133.903 16.5225C135.631 16.5225 137.073 17.1685 138.231 18.4607C139.406 19.7356 139.993 21.4154 139.993 23.5C139.993 25.5846 139.406 27.273 138.231 28.5652C137.073 29.8401 135.631 30.4775 133.903 30.4775C132.746 30.4775 131.701 30.133 130.768 29.4438C130.371 29.1165 130.034 28.7719 129.757 28.4101H129.628V35H126ZM130.561 20.6573C129.939 21.3292 129.628 22.2768 129.628 23.5C129.628 24.7232 129.939 25.6794 130.561 26.3685C131.183 27.0405 131.994 27.3764 132.996 27.3764C133.947 27.3764 134.724 27.0318 135.329 26.3427C135.933 25.6536 136.236 24.706 136.236 23.5C136.236 22.294 135.933 21.3464 135.329 20.6573C134.724 19.9682 133.947 19.6236 132.996 19.6236C131.994 19.6236 131.183 19.9682 130.561 20.6573Z" fill="white"/>
<path d="M143.491 28.4618C142.109 27.1007 141.418 25.4468 141.418 23.5C141.418 21.5532 142.109 19.9079 143.491 18.564C144.873 17.203 146.601 16.5225 148.674 16.5225C150.729 16.5225 152.448 17.203 153.83 18.564C155.23 19.9079 155.929 21.5532 155.929 23.5C155.929 25.4468 155.23 27.1007 153.83 28.4618C152.448 29.8056 150.729 30.4775 148.674 30.4775C146.601 30.4775 144.873 29.8056 143.491 28.4618ZM146.186 20.709C145.512 21.4326 145.175 22.3629 145.175 23.5C145.175 24.6371 145.512 25.5674 146.186 26.291C146.86 27.0146 147.689 27.3764 148.674 27.3764C149.658 27.3764 150.487 27.0146 151.161 26.291C151.835 25.5674 152.172 24.6371 152.172 23.5C152.172 22.3629 151.835 21.4326 151.161 20.709C150.487 19.9854 149.658 19.6236 148.674 19.6236C147.689 19.6236 146.86 19.9854 146.186 20.709Z" fill="white"/>
<path d="M158.011 30.0899V12H161.639V26.9888H164.619V30.0899H158.011Z" fill="white"/>
<path d="M165.145 16.9101H168.903L171.494 26.9888H172.53L175.381 16.9101H179.138L173.826 35H170.069L171.494 30.0899H168.644L165.145 16.9101Z" fill="white"/>
<path d="M179.522 20.0112V16.9101H181.206V14.0674H184.834V16.9101H188.565V20.0112H184.834V26.9888H188.721V30.0899H181.206V20.0112H179.522Z" fill="white"/>
<path d="M192.051 28.4618C190.687 27.1007 190.004 25.4468 190.004 23.5C190.004 21.5532 190.687 19.9079 192.051 18.564C193.433 17.203 195.126 16.5225 197.13 16.5225C199.169 16.5225 200.845 17.1944 202.157 18.5382C203.47 19.882 204.127 21.536 204.127 23.5V24.2753H193.762C193.9 25.1367 194.289 25.8689 194.928 26.4719C195.567 27.0749 196.301 27.3764 197.13 27.3764C198.046 27.3764 198.832 27.118 199.488 26.6011C199.748 26.3772 199.955 26.1187 200.11 25.8258H203.997C203.704 26.7045 203.272 27.4798 202.702 28.1517C201.32 29.7022 199.462 30.4775 197.13 30.4775C195.126 30.4775 193.433 29.8056 192.051 28.4618ZM193.891 22.0787H200.24C200.102 21.3895 199.748 20.8124 199.177 20.3472C198.625 19.8648 197.942 19.6236 197.13 19.6236C196.318 19.6236 195.627 19.8562 195.057 20.3213C194.487 20.7865 194.099 21.3723 193.891 22.0787Z" fill="white"/>
<path d="M206.319 30.0899V16.9101H209.947V18.8483H210.077C210.232 18.4348 210.465 18.073 210.776 17.7629C211.485 17.0221 212.374 16.6517 213.445 16.6517H215V20.1404H213.057C212.072 20.1404 211.303 20.4075 210.75 20.9416C210.215 21.4584 209.947 22.182 209.947 23.1124V30.0899H206.319Z" fill="white"/>
<path opacity="0.55" d="M21.5 51C33.3708 51 43 41.3805 43 29.5C43 17.6194 33.3708 8 21.5 8C9.62919 8 0 17.6292 0 29.5C0 41.3708 9.62919 51 21.5 51Z" fill="white"/>
<path opacity="0.55" d="M94.5 35C100.855 35 106 30.0696 106 24C106 17.9304 100.845 13 94.5 13C88.1545 13 83 17.9304 83 24C83 30.0696 88.1545 35 94.5 35Z" fill="white"/>
<path opacity="0.8" d="M93.2842 11.92C90.2554 8.8949 86.1436 7.18256 81.8497 7.15402C78.0638 7.135 74.412 8.43827 71.5079 10.7975L65.0478 14.8785C63.5334 15.8298 61.7507 16.2579 59.968 16.0867C58.1852 15.9155 56.5079 15.1639 55.214 13.9463L48.1597 7.3538C47.8146 6.95425 47.46 6.57373 47.0958 6.20273C45.1405 4.25257 42.821 2.69244 40.2715 1.62699C37.7124 0.56154 34.9712 0.00978868 32.2012 0.000275722C26.6038 -0.0282632 21.2268 2.15972 17.2492 6.06955C15.2843 8.01019 13.7125 10.3123 12.639 12.8428C11.5655 15.3827 11.0096 18.1034 11 20.8527V21.0429C11 26.0087 12.7732 30.8128 16.0032 34.5989C19.2332 38.3851 23.7188 40.906 28.6549 41.7241C28.837 41.7432 29.0191 41.7717 29.2108 41.8002C30.1693 41.9334 31.1469 42 32.115 42C34.8849 42 37.6357 41.4578 40.1948 40.4018C42.7539 39.3459 45.083 37.8048 47.0479 35.8641C47.3258 35.5883 47.6038 35.3029 47.8625 35.008L52.7028 30.4703C54.6006 28.7009 57.1117 27.7306 59.7188 27.7686C62.3258 27.8162 64.8082 28.8626 66.6389 30.6986L68.6037 32.6583C68.8625 33.0198 69.1405 33.3717 69.4376 33.7237C71.92 36.6347 75.3609 38.5658 79.1468 39.1842C79.2906 39.2032 79.4248 39.2222 79.5686 39.2412C80.3066 39.3459 81.0542 39.3935 81.8018 39.3935C86.0957 39.3935 90.2171 37.7001 93.2554 34.6845C96.2938 31.6689 97.9998 27.5784 97.9998 23.3165C98.019 19.0547 96.3321 14.9547 93.3034 11.9295L93.2842 11.92Z" fill="url(#paint0_linear_2035_1750)"/>
<defs>
<linearGradient id="paint0_linear_2035_1750" x1="54.4855" y1="41.9905" x2="54.4855" y2="-0.00923747" gradientUnits="userSpaceOnUse">
<stop stop-color="white"/>
<stop offset="1" stop-color="white"/>
</linearGradient>
</defs>
</svg>
