<svg width="200" height="71" viewBox="0 0 200 71" fill="none" xmlns="http://www.w3.org/2000/svg">
<path d="M1.37877 38.7237C0.696713 38.4963 0.0822455 37.9494 0.00850943 37.5008C-0.0713713 37.0522 0.420202 36.8678 1.10226 37.0952C9.05347 39.707 17.4041 40.5182 25.5949 39.5964C33.8656 38.6684 41.952 35.9767 49.2765 31.5767C49.6329 31.3616 50.401 31.5521 50.9847 32.0068C51.5685 32.4616 51.7528 33.0024 51.3903 33.2175C43.9245 37.6974 35.6599 40.4444 27.1802 41.3969C18.6207 42.3556 9.82155 41.4891 1.38492 38.7176" fill="white"/>
<path d="M2.33971 44.3341C1.65765 44.1067 1.04318 43.5598 0.969447 43.1111C0.889566 42.6625 1.38114 42.4782 2.0632 42.7055C10.0144 45.3173 18.365 46.1285 26.5559 45.2067C34.8266 44.2788 42.913 41.5871 50.2374 37.187C50.5938 36.9719 51.3619 37.1624 51.9456 37.6172C52.5294 38.0719 52.7137 38.6127 52.3512 38.8278C44.8854 43.3078 36.6208 46.0548 28.1412 47.0073C19.5817 47.966 10.7825 47.0995 2.34585 44.3279" fill="white"/>
<path d="M2.58082 44.3958C1.92949 44.2606 1.229 43.7629 1.02008 43.2774C0.811158 42.7919 1.17369 42.5092 1.82503 42.6383C10.0773 44.3282 18.5201 44.1746 26.5881 42.3126C34.7175 40.4321 42.4536 36.8247 49.2312 31.6073C49.5507 31.3615 50.3003 31.5152 50.9025 31.9515C51.5108 32.3878 51.7443 32.947 51.4248 33.1928C44.5366 38.4963 36.653 42.1712 28.3639 44.0886C20.0071 46.0182 11.2202 46.1657 2.58082 44.3958Z" fill="white"/>
<path fill-rule="evenodd" clip-rule="evenodd" d="M30.0921 2.55195C31.9355 -1.17828 38.6455 -1.43024 41.6072 5.95648C43.7455 11.2906 45.5828 19.4394 45.8163 27.5328C46.3386 45.2622 44.784 57.5345 40.9067 70.7531C40.6425 67.3117 38.7745 65.3514 37.4104 63.391C43.4506 54.7015 42.3568 43.7812 37.4534 38.2258C24.5619 23.6182 41.1955 4.02069 30.0859 2.5581" fill="white"/>
<path fill-rule="evenodd" clip-rule="evenodd" d="M21.9511 5.68576C11.4315 0.240973 6.67549 12.2551 6.22693 27.5325C5.70464 45.2619 7.25924 57.5341 11.1365 70.7528C10.3377 60.1828 7.61563 46.196 14.5898 38.2254C27.4138 23.5626 8.91215 7.97798 21.9511 5.68576Z" fill="white"/>
<path d="M73.9169 27.2928C73.9415 27.2375 74.0767 27.0777 74.3102 26.8011C74.5498 26.5246 74.9124 26.2296 75.3978 25.9101C75.8832 25.5905 76.51 25.3078 77.2781 25.062C78.0461 24.8162 78.9801 24.6871 80.0862 24.6871C81.1922 24.6871 82.3167 24.8592 83.306 25.2034C84.2953 25.5475 85.1432 26.0576 85.856 26.7458C86.5688 27.4341 87.1218 28.3006 87.5151 29.3576C87.9083 30.4146 88.1111 31.6621 88.1111 33.1124V45.5261H82.5748V33.8622C82.5748 30.8079 81.1676 29.2777 78.3472 29.2777C76.8971 29.2777 75.7972 29.8062 75.0475 30.8571C74.2979 31.9141 73.9231 33.2415 73.9231 34.8516V45.5261H68.3867V18.7569C68.3867 17.8597 68.6509 17.239 69.1794 16.901C69.7078 16.5568 70.4022 16.3848 71.2747 16.3848C71.883 16.3848 72.4422 16.4524 72.9522 16.5814C73.4684 16.7166 73.7879 16.8088 73.9231 16.858V27.2928H73.9169Z" fill="white"/>
<path d="M111.984 45.3596C111.904 45.3842 111.615 45.4395 111.118 45.5194C110.62 45.5993 109.95 45.6792 109.121 45.7591C108.291 45.839 107.308 45.9127 106.177 45.9742C105.047 46.0418 103.805 46.0725 102.46 46.0725C100.512 46.0725 98.9081 45.9066 97.6546 45.5809C96.4011 45.249 95.4056 44.7943 94.6683 44.2166C93.9309 43.6389 93.4209 42.9568 93.1444 42.1825C92.8679 41.4082 92.7266 40.554 92.7266 39.6322C92.7266 38.5014 92.8986 37.512 93.2427 36.6701C93.5868 35.8282 94.1398 35.1338 94.9018 34.593C95.6637 34.0522 96.6469 33.6527 97.8451 33.3885C99.0433 33.1242 100.5 32.9952 102.214 32.9952C103.4 32.9952 104.389 33.0259 105.176 33.0935C105.968 33.1611 106.429 33.2041 106.558 33.2349V32.6019C106.558 31.3605 106.134 30.4141 105.292 29.7566C104.451 29.099 103.142 28.7672 101.378 28.7672C100.586 28.7672 99.8912 28.8409 99.2829 28.9823C98.6746 29.1236 98.1584 29.2957 97.7222 29.4985C97.2859 29.6951 96.9172 29.8918 96.6161 30.0884C96.3151 30.2851 96.0693 30.4387 95.8849 30.5432C95.5162 30.3342 95.1844 29.9963 94.8956 29.5354C94.6068 29.0745 94.4594 28.5521 94.4594 27.9744C94.4594 27.3968 94.6437 26.899 95.0124 26.4934C95.3811 26.0878 95.8726 25.756 96.4932 25.504C97.1139 25.252 97.8266 25.0738 98.6254 24.9694C99.4304 24.8649 100.254 24.8096 101.096 24.8096C102.706 24.8096 104.174 24.9509 105.501 25.2275C106.829 25.504 107.978 25.9772 108.942 26.6532C109.901 27.323 110.651 28.2202 111.173 29.3387C111.695 30.4572 111.966 31.8644 111.966 33.5483V45.3658L111.984 45.3596ZM106.527 36.664C106.448 36.6394 106.288 36.6087 106.054 36.5841C105.821 36.5595 105.526 36.5288 105.182 36.5042C104.838 36.4796 104.463 36.4612 104.057 36.4427C103.646 36.4304 103.234 36.4243 102.81 36.4243C101.833 36.4243 101.046 36.5042 100.438 36.664C99.8298 36.8237 99.3628 37.0388 99.0371 37.3154C98.7053 37.5919 98.4841 37.9238 98.3674 38.3048C98.2506 38.6858 98.1892 39.0914 98.1892 39.5093C98.1892 39.878 98.2445 40.2344 98.3489 40.5786C98.4534 40.9227 98.6685 41.23 99.0003 41.5065C99.3321 41.7831 99.7929 42.0043 100.383 42.1764C100.979 42.3484 101.747 42.4345 102.693 42.4345C103.695 42.4345 104.524 42.3914 105.182 42.2993C105.839 42.2071 106.288 42.1333 106.527 42.0842V36.6701V36.664Z" fill="white"/>
<path d="M137.557 45.5203C137.398 45.5449 137.09 45.5941 136.63 45.6617C136.169 45.7293 135.597 45.7846 134.909 45.8399C134.221 45.8952 133.447 45.9443 132.574 45.9996C131.708 46.055 130.798 46.0795 129.846 46.0795C125.526 46.0795 122.282 45.084 120.125 43.0929C117.962 41.1018 116.887 38.3425 116.887 34.809C116.887 33.1743 117.139 31.7363 117.636 30.5011C118.134 29.2597 118.816 28.2211 119.67 27.3792C120.524 26.5373 121.514 25.8982 122.632 25.4619C123.75 25.0255 124.942 24.8105 126.208 24.8105C127.105 24.8105 127.91 24.9211 128.617 25.1484C129.324 25.3758 129.926 25.6339 130.417 25.9412C130.909 26.2485 131.278 26.525 131.542 26.7893C131.806 27.0535 131.966 27.2256 132.015 27.3055V18.7696C132.015 17.8723 132.279 17.2517 132.808 16.9137C133.336 16.5695 134.03 16.3975 134.903 16.3975C135.511 16.3975 136.07 16.4651 136.58 16.5941C137.097 16.7293 137.416 16.8215 137.551 16.8707V45.5326L137.557 45.5203ZM122.577 35.3989C122.577 36.3207 122.7 37.1688 122.952 37.9492C123.203 38.7297 123.584 39.4057 124.101 39.9833C124.617 40.561 125.274 41.0096 126.079 41.3292C126.884 41.6426 127.837 41.8024 128.943 41.8024C129.784 41.8024 130.473 41.7594 131.001 41.6856C131.529 41.6057 131.874 41.5258 132.027 41.4459V34.5263C132.027 33.0268 131.646 31.7731 130.878 30.7715C130.116 29.7698 128.967 29.272 127.437 29.272C125.907 29.272 124.715 29.8312 123.861 30.9497C123.007 32.0681 122.577 33.5553 122.577 35.3989Z" fill="white"/>
<path d="M161.511 45.3596C161.431 45.3842 161.143 45.4395 160.645 45.5194C160.147 45.5993 159.477 45.6792 158.648 45.7591C157.818 45.839 156.835 45.9127 155.705 45.9742C154.574 46.0418 153.333 46.0725 151.987 46.0725C150.039 46.0725 148.435 45.9066 147.182 45.5809C145.928 45.249 144.933 44.7943 144.196 44.2166C143.458 43.6389 142.948 42.9568 142.672 42.1825C142.395 41.4082 142.254 40.554 142.254 39.6322C142.254 38.5014 142.426 37.512 142.77 36.6701C143.114 35.8282 143.667 35.1338 144.429 34.593C145.191 34.0522 146.174 33.6527 147.372 33.3885C148.571 33.1242 150.027 32.9952 151.741 32.9952C152.927 32.9952 153.916 33.0259 154.703 33.0935C155.496 33.1611 155.957 33.2041 156.086 33.2349V32.6019C156.086 31.3605 155.662 30.4141 154.82 29.7566C153.978 29.099 152.669 28.7672 150.906 28.7672C150.113 28.7672 149.419 28.8409 148.81 28.9823C148.202 29.1236 147.686 29.2957 147.25 29.4985C146.813 29.6951 146.445 29.8918 146.143 30.0884C145.842 30.2851 145.597 30.4387 145.412 30.5432C145.044 30.3342 144.712 29.9963 144.423 29.5354C144.134 29.0745 143.987 28.5521 143.987 27.9744C143.987 27.3968 144.171 26.899 144.54 26.4934C144.908 26.0878 145.4 25.756 146.021 25.504C146.641 25.252 147.354 25.0738 148.153 24.9694C148.958 24.8649 149.781 24.8096 150.623 24.8096C152.233 24.8096 153.701 24.9509 155.029 25.2275C156.356 25.504 157.505 25.9772 158.47 26.6532C159.428 27.323 160.178 28.2202 160.7 29.3387C161.223 30.4572 161.493 31.8644 161.493 33.5483V45.3658L161.511 45.3596ZM156.055 36.664C155.975 36.6394 155.815 36.6087 155.582 36.5841C155.348 36.5595 155.053 36.5288 154.709 36.5042C154.365 36.4796 153.99 36.4612 153.585 36.4427C153.173 36.4304 152.761 36.4243 152.337 36.4243C151.36 36.4243 150.574 36.5042 149.965 36.664C149.357 36.8237 148.89 37.0388 148.564 37.3154C148.233 37.5919 148.011 37.9238 147.895 38.3048C147.778 38.6858 147.717 39.0914 147.717 39.5093C147.717 39.878 147.772 40.2344 147.876 40.5786C147.981 40.9227 148.196 41.23 148.528 41.5065C148.859 41.7831 149.32 42.0043 149.91 42.1764C150.506 42.3484 151.274 42.4345 152.221 42.4345C153.222 42.4345 154.052 42.3914 154.709 42.2993C155.367 42.2071 155.815 42.1333 156.055 42.0842V36.6701V36.664Z" fill="white"/>
<path d="M176.762 24.6868C178.372 24.6868 179.859 24.9388 181.229 25.4365C182.599 25.9343 183.705 26.7271 184.547 27.8087C185.205 26.9667 186.108 26.2354 187.257 25.6148C188.406 24.9941 189.844 24.6868 191.583 24.6868C192.744 24.6868 193.838 24.8527 194.864 25.1784C195.89 25.5103 196.787 25.9958 197.549 26.641C198.311 27.2863 198.913 28.0852 199.35 29.0316C199.786 29.978 200.001 31.0718 200.001 32.3132V45.5134H194.465V33.8495C194.465 32.2948 194.133 31.1394 193.475 30.3897C192.818 29.64 191.853 29.2651 190.587 29.2651C189.321 29.2651 188.283 29.7014 187.546 30.5679C186.808 31.4344 186.44 32.7311 186.44 34.4395V45.5073H180.903V34.163C180.903 32.5037 180.559 31.2685 179.877 30.4696C179.189 29.6646 178.101 29.2651 176.596 29.2651C175.49 29.2651 174.673 29.3573 174.144 29.5416C173.616 29.726 173.222 29.8858 172.958 30.0148V45.5134H167.422V26.5796C167.526 26.5243 167.827 26.3952 168.331 26.1863C168.829 25.9773 169.486 25.7561 170.285 25.5349C171.084 25.3136 172.037 25.1108 173.13 24.9388C174.224 24.7667 175.428 24.6807 176.749 24.6807L176.762 24.6868Z" fill="white"/>
</svg>
