<svg width="197" height="34" viewBox="0 0 197 34" fill="none" xmlns="http://www.w3.org/2000/svg">
<path d="M164.674 0H155.816V7.75682H146.376V0H137.53V7.75682H133.711V13.7551H137.53V25.0245C137.53 31.1227 140.043 33.2676 146.522 33.2676C148.365 33.2676 149.173 33.2221 151.2 33.0722V26.0969C150.588 26.1801 149.971 26.2135 149.353 26.1969C146.614 26.1969 146.388 25.2199 146.388 22.7343V13.7551H155.828V25.0245C155.828 31.1227 158.341 33.2676 164.82 33.2676C166.663 33.2676 167.471 33.2221 169.494 33.0722V26.0969C168.883 26.1802 168.267 26.2136 167.651 26.1969C164.912 26.1969 164.686 25.2199 164.686 22.7343V13.7551H169.494V7.75682H164.674V0Z" fill="white"/>
<path d="M51.2892 16.2954C51.2892 13.7552 51.1552 12.8328 50.661 11.7104C48.9062 7.66157 43.29 7.02539 39.6924 7.02539C32.0491 7.02539 28.3176 9.75187 28.0914 15.4638H36.4089C36.7231 13.5144 37.5355 12.9282 39.6924 12.9282C41.6692 12.9282 42.6241 13.6098 42.6241 15.123C42.6241 17.5632 39.3867 17.4178 37.812 17.6587C33.0459 18.3903 27.0234 19.0219 27.0234 25.8381C27.0234 30.8139 30.1687 33.7404 35.4289 33.7404C38.5323 33.7404 40.7352 32.8588 42.846 30.5595C42.8717 31.3532 42.9928 32.1399 43.2062 32.8997H52.198C51.2097 30.7549 51.2097 28.1692 51.2097 25.729C51.2013 21.8529 51.2892 19.4672 51.2892 16.2954ZM42.6576 22.9753C42.6576 24.6339 42.5236 25.4155 42.1215 26.1562C41.7424 26.7833 41.2196 27.2928 40.6043 27.6346C39.989 27.9763 39.3024 28.1386 38.6119 28.1056C37.0413 28.1056 36.099 27.1332 36.099 25.57C36.099 24.2068 36.8654 23.3252 38.5281 22.9389C39.9646 22.5981 41.4598 22.3528 42.6618 21.4757L42.6576 22.9753Z" fill="white"/>
<path d="M12.7611 26.538C10.2483 26.538 8.8955 24.4886 8.8955 20.5852C8.8955 16.2955 10.2441 14.0007 12.8072 14.0007C14.5578 14.0007 15.8645 15.2685 16.1325 17.268H24.6302C24.1778 11.2197 19.4244 7.1709 12.7234 7.1709C5.12622 7.1709 0 12.5375 0 20.5397C0 28.292 5.17229 33.5632 12.6773 33.5632C19.4662 33.5632 23.9642 29.6098 24.8228 22.83H16.3126C15.9524 25.3202 14.784 26.538 12.7611 26.538Z" fill="white"/>
<path d="M196.998 21.7071C196.998 12.8324 192.006 7.125 184.187 7.125C176.723 7.125 171.371 12.7824 171.371 20.6347C171.371 29.0232 177.26 33.6582 184.501 33.6582C189.527 33.6582 195.063 31.0271 196.504 25.3651H188.203C187.303 26.8783 186.226 27.4645 184.471 27.4645C181.728 27.4645 180.066 25.6469 179.932 22.4387H196.998V21.7071ZM179.961 17.6174C180.409 14.7364 181.846 13.3232 184.229 13.3232C186.838 13.3232 188.094 15.0318 188.32 17.6174H179.961Z" fill="white"/>
<path d="M68.9081 16.6862C67.8317 16.4908 63.786 16.2318 63.786 14.296C63.786 13.269 64.6237 12.7828 66.2109 12.7828C68.2798 12.7828 69.0463 13.319 69.3604 15.123H77.4057C76.9115 8.53859 71.8774 7.02539 66.391 7.02539C59.0619 7.02539 55.1083 9.8064 55.1083 14.9776C55.1083 21.1713 60.4565 22.0483 64.8163 23.0753C68.0118 23.8569 69.3604 23.9523 69.3604 25.5155C69.3604 26.7333 68.3259 27.5149 66.5711 27.5149C64.2802 27.5149 63.2458 26.6333 63.0196 24.5385H54.6016C55.1418 31.5637 60.3979 33.5631 66.3785 33.5631C73.7076 33.5631 78.0674 30.2959 78.0674 24.7339C78.08 18.831 73.3139 17.5632 68.9081 16.6862Z" fill="white"/>
<path d="M119.265 7.125C111.801 7.125 106.453 12.7824 106.453 20.6347C106.453 29.0232 112.342 33.6582 119.579 33.6582C124.604 33.6582 130.145 31.0271 131.582 25.3651H123.264C122.368 26.8783 121.287 27.4645 119.533 27.4645C116.794 27.4645 115.127 25.6469 114.993 22.4387H132.084V21.7071C132.084 12.8324 127.088 7.125 119.265 7.125ZM115.039 17.6129C115.487 14.7319 116.928 13.3187 119.311 13.3187C121.916 13.3187 123.176 15.0272 123.402 17.6129H115.039Z" fill="white"/>
<path d="M94.7161 16.6862C93.6356 16.4908 89.5899 16.2318 89.5899 14.296C89.5899 13.269 90.4275 12.7828 92.019 12.7828C94.0879 12.7828 94.8501 13.319 95.1642 15.123H103.214C102.72 8.53859 97.6813 7.02539 92.1991 7.02539C84.8699 7.02539 80.9122 9.8064 80.9122 14.9776C80.9122 21.1713 86.2645 22.0483 90.6243 23.0753C93.8157 23.8569 95.1642 23.9523 95.1642 25.5155C95.1642 26.7333 94.1298 27.5149 92.3792 27.5149C90.0841 27.5149 89.0496 26.6333 88.8276 24.5385H80.418C80.9582 31.5637 86.2185 33.5631 92.1991 33.5631C99.524 33.5631 103.888 30.2959 103.888 24.7339C103.888 18.831 99.122 17.5632 94.7161 16.6862Z" fill="white"/>
</svg>
