<svg width="38" height="40" viewBox="0 0 38 40" fill="none" xmlns="http://www.w3.org/2000/svg">
<g clip-path="url(#clip0_137_4205)">
<path d="M5.84438 3.07729C5.84438 2.04766 5.84438 1.03284 5.84438 0.0106201C6.82253 0.0106201 7.7866 0.0106201 8.76475 0.0106201C8.76475 1.02914 8.76475 2.04025 8.76475 3.06618C15.5872 3.06618 22.399 3.06618 29.2285 3.06618C29.2285 2.05136 29.2285 1.03284 29.2285 0.0106201C30.2066 0.0106201 31.1707 0.0106201 32.1488 0.0106201C32.1488 1.02544 32.1488 2.04395 32.1488 3.08099C32.2157 3.08099 32.2685 3.08099 32.3212 3.08099C32.9018 3.0884 33.4823 3.06247 34.0594 3.11433C35.8785 3.27359 37.4864 4.75877 37.877 6.63285C37.9544 7.00322 37.9966 7.39211 37.9966 7.77359C38.0036 16.9514 38.0036 26.1292 38.0001 35.3106C38.0001 37.3032 36.9129 38.981 35.1501 39.7069C34.6927 39.8958 34.2177 39.9921 33.7251 40.0032C33.6477 40.0069 33.5703 40.0032 33.4929 40.0032C23.817 40.0032 14.1446 40.0032 4.46864 40.0032C2.34697 40.0032 0.591233 38.5477 0.109196 36.3773C0.0388258 36.0551 0.00364059 35.7181 0.00364059 35.3884C0.00012207 26.1551 0.00012207 16.9254 0.00012207 7.69581C0.00012207 5.46988 1.52716 3.54766 3.6066 3.15507C3.99716 3.08099 4.40179 3.0921 4.79938 3.08099C5.14068 3.06988 5.48197 3.07729 5.84438 3.07729ZM35.0762 15.3958C24.3483 15.3958 13.6379 15.3958 2.92401 15.3958C2.92401 15.4477 2.92401 15.4884 2.92401 15.5292C2.92401 22.1329 2.92401 28.7366 2.92753 35.344C2.92753 35.481 2.9416 35.6218 2.96975 35.7551C3.12808 36.4773 3.70512 36.9255 4.46864 36.9255C14.1375 36.9255 23.8064 36.9255 33.4788 36.9255C33.5457 36.9255 33.616 36.9366 33.6829 36.9218C33.8588 36.8847 34.0453 36.8699 34.2036 36.7921C34.8053 36.5069 35.0798 35.9958 35.0798 35.3106C35.0798 28.7255 35.0798 22.144 35.0798 15.5588C35.0762 15.5069 35.0762 15.4588 35.0762 15.3958ZM29.2355 6.16618C22.4025 6.16618 15.5907 6.16618 8.76827 6.16618C8.76827 7.19211 8.76827 8.20322 8.76827 9.22174C7.79012 9.22174 6.82605 9.22174 5.84438 9.22174C5.84438 8.19581 5.84438 7.17729 5.84438 6.15877C5.30605 6.15877 4.78531 6.15507 4.26457 6.16248C4.1766 6.16248 4.09216 6.1847 4.00771 6.20692C3.35327 6.39211 2.93105 6.97359 2.92753 7.70692C2.92401 9.19952 2.92753 10.6921 2.92753 12.1847C2.92753 12.2254 2.93457 12.2625 2.93457 12.3032C13.652 12.3032 24.3623 12.3032 35.0798 12.3032C35.0798 11.718 35.0798 11.144 35.0798 10.5699C35.0798 9.59581 35.0868 8.62174 35.0762 7.64766C35.0657 6.90322 34.5625 6.27729 33.8694 6.19211C33.426 6.14025 32.9757 6.16618 32.5288 6.15877C32.4092 6.15507 32.2896 6.15877 32.1523 6.15877C32.1523 7.19211 32.1523 8.21063 32.1523 9.22915C31.1742 9.22915 30.2101 9.22915 29.239 9.22915C29.2355 8.20322 29.2355 7.19211 29.2355 6.16618Z" fill="#91C745"/>
<path d="M14.6055 21.5329C13.6344 21.5329 12.6703 21.5329 11.7028 21.5329C11.7028 20.5144 11.7028 19.4996 11.7028 18.4736C12.6668 18.4736 13.6309 18.4736 14.6055 18.4736C14.6055 19.4885 14.6055 20.5033 14.6055 21.5329Z" fill="#91C745"/>
<path d="M17.5505 18.47C18.5252 18.47 19.4857 18.47 20.4568 18.47C20.4568 19.4885 20.4568 20.5033 20.4568 21.5292C19.4928 21.5292 18.5287 21.5292 17.5505 21.5292C17.5505 20.5144 17.5505 19.4996 17.5505 18.47Z" fill="#91C745"/>
<path d="M23.3912 21.5329C23.3912 20.5107 23.3912 19.4996 23.3912 18.4736C24.3588 18.4736 25.3229 18.4736 26.2975 18.4736C26.2975 19.4922 26.2975 20.507 26.2975 21.5329C25.3335 21.5329 24.3694 21.5329 23.3912 21.5329Z" fill="#91C745"/>
<path d="M29.2426 18.47C30.2172 18.47 31.1777 18.47 32.1489 18.47C32.1489 19.4885 32.1489 20.5033 32.1489 21.5292C31.1848 21.5292 30.2207 21.5292 29.2426 21.5292C29.2426 20.5144 29.2426 19.4996 29.2426 18.47Z" fill="#91C745"/>
<path d="M8.76128 24.6293C8.76128 25.6515 8.76128 26.6663 8.76128 27.6885C7.79368 27.6885 6.82961 27.6885 5.85498 27.6885C5.85498 26.6737 5.85498 25.6589 5.85498 24.6293C6.81905 24.6293 7.78665 24.6293 8.76128 24.6293Z" fill="#91C745"/>
<path d="M14.609 24.6293C14.609 25.6515 14.609 26.6663 14.609 27.6885C13.6415 27.6885 12.6774 27.6885 11.7028 27.6885C11.7028 26.6737 11.7028 25.6589 11.7028 24.6293C12.6668 24.6293 13.6309 24.6293 14.609 24.6293Z" fill="#91C745"/>
<path d="M20.4568 24.6293C20.4568 25.6515 20.4568 26.6663 20.4568 27.6848C19.4892 27.6848 18.5252 27.6848 17.5505 27.6848C17.5505 26.67 17.5505 25.6552 17.5505 24.6293C18.5111 24.6293 19.4787 24.6293 20.4568 24.6293Z" fill="#91C745"/>
<path d="M26.3011 24.6293C26.3011 25.6515 26.3011 26.6663 26.3011 27.6885C25.3335 27.6885 24.3694 27.6885 23.3948 27.6885C23.3948 26.6737 23.3948 25.6589 23.3948 24.6293C24.3589 24.6293 25.3229 24.6293 26.3011 24.6293Z" fill="#91C745"/>
<path d="M29.239 27.6811C29.239 26.6589 29.239 25.6441 29.239 24.6218C30.2066 24.6218 31.1707 24.6218 32.1453 24.6218C32.1453 25.6366 32.1453 26.6515 32.1453 27.6811C31.1812 27.6811 30.2136 27.6811 29.239 27.6811Z" fill="#91C745"/>
<path d="M5.85498 30.7775C6.82609 30.7775 7.79017 30.7775 8.76128 30.7775C8.76128 31.796 8.76128 32.8108 8.76128 33.8367C7.7972 33.8367 6.83313 33.8367 5.85498 33.8367C5.85498 32.8219 5.85498 31.8071 5.85498 30.7775Z" fill="#91C745"/>
<path d="M14.609 30.7811C14.609 31.8071 14.609 32.8182 14.609 33.8404C13.6415 33.8404 12.6774 33.8404 11.7028 33.8404C11.7028 32.8256 11.7028 31.8108 11.7028 30.7811C12.6668 30.7811 13.6309 30.7811 14.609 30.7811Z" fill="#91C745"/>
<path d="M17.547 33.8367C17.547 32.8108 17.547 31.7997 17.547 30.7775C18.5146 30.7775 19.4787 30.7775 20.4533 30.7775C20.4533 31.7923 20.4533 32.8071 20.4533 33.8367C19.4892 33.8367 18.5216 33.8367 17.547 33.8367Z" fill="#91C745"/>
</g>
<defs>
<clipPath id="clip0_137_4205">
<rect width="38" height="40" fill="white" transform="translate(0.00012207 -0.000366211)"/>
</clipPath>
</defs>
</svg>
