<svg width="40" height="40" viewBox="0 0 40 40" fill="none" xmlns="http://www.w3.org/2000/svg">
<g clip-path="url(#clip0_137_4222)">
<path d="M0.00012207 39.9923C0.155678 38.6849 0.211233 37.433 0.459381 36.2219C1.70383 30.133 5.06679 25.57 10.4557 22.4849C10.6668 22.3663 10.789 22.3997 10.9594 22.5441C16.2298 26.9552 23.8223 26.9626 29.1001 22.5589C29.3038 22.3886 29.4409 22.3774 29.6631 22.5071C35.452 25.87 38.8779 30.8367 39.8223 37.4849C39.9223 38.196 39.926 38.9219 39.9927 39.6367C40.0186 39.9256 39.9186 40.0034 39.6335 40.0034C36.6372 39.996 33.6446 39.996 30.6483 39.996C21.6964 39.996 12.7446 39.996 3.79271 39.996C2.69642 39.996 1.59642 39.996 0.500122 39.996C0.381604 39.9923 0.259381 39.9923 0.00012207 39.9923Z" fill="#91C745"/>
<path d="M8.40007 11.7182C8.41859 5.29596 13.6408 0.0811371 20.0445 0.0848408C26.4741 0.0922483 31.7259 5.35522 31.6889 11.7515C31.6519 18.1849 26.4111 23.4034 20.026 23.3701C13.5927 23.3367 8.38156 18.1145 8.40007 11.7182Z" fill="#91C745"/>
</g>
<defs>
<clipPath id="clip0_137_4222">
<rect width="40" height="40" fill="white" transform="translate(0.00012207 -0.000366211)"/>
</clipPath>
</defs>
</svg>
