<svg width="200" height="36" viewBox="0 0 200 36" fill="none" xmlns="http://www.w3.org/2000/svg">
<g clip-path="url(#clip0_1316_2064)">
<path d="M2.98099 25.011C0.993143 22.9983 0 20.517 0 17.5687C0 14.6204 0.993143 12.1407 2.98099 10.1263C4.96727 8.1136 7.39565 7.10645 10.2646 7.10645C13.1335 7.10645 15.5618 8.1136 17.5481 10.1263C19.5344 12.1391 20.5291 14.6204 20.5291 17.5687V18.951H4.14536C4.46136 20.6088 5.1852 21.9117 6.31689 22.8597C7.44857 23.8077 8.7655 24.281 10.2646 24.281C12.1061 24.281 13.5802 23.8202 14.687 22.8987C15.1867 22.5297 15.621 22.069 15.9899 21.5164H20.333C19.7804 22.8068 19.083 23.8996 18.2408 24.7931C16.0818 26.9522 13.4246 28.0309 10.2661 28.0309C7.3972 28.0309 4.96883 27.0238 2.98254 25.011H2.98099ZM4.34305 15.5949H16.1876C15.951 14.2795 15.3252 13.1603 14.3118 12.2387C13.2985 11.3172 11.9488 10.8564 10.2646 10.8564C8.84333 10.8564 7.57933 11.2845 6.47411 12.1391C5.36889 12.9953 4.6575 14.1472 4.3415 15.5933L4.34305 15.5949Z" fill="white"/>
<path d="M22.1094 7.50195H26.4524L30.7955 23.8873H33.3624L37.7055 7.50195H42.0485L36.5208 27.6372H27.637L22.1094 7.50195Z" fill="white"/>
<path d="M46.606 25.011C44.6181 22.9983 43.625 20.517 43.625 17.5687C43.625 14.6204 44.6181 12.1407 46.606 10.1263C48.5923 8.1136 51.0206 7.10645 53.8896 7.10645C56.7585 7.10645 59.1868 8.1136 61.1731 10.1263C63.1594 12.1391 64.1541 14.6204 64.1541 17.5687V18.951H47.7688C48.0848 20.6088 48.8086 21.9117 49.9403 22.8597C51.072 23.8077 52.3889 24.281 53.888 24.281C55.7295 24.281 57.2037 23.8202 58.3104 22.8987C58.8101 22.5297 59.2444 22.069 59.6134 21.5164H63.9564C63.4038 22.8068 62.7064 23.8996 61.8643 24.7931C59.7052 26.9522 57.048 28.0309 53.8896 28.0309C51.0206 28.0309 48.5923 27.0238 46.606 25.011ZM47.9681 15.5949H59.8126C59.576 14.2795 58.9502 13.1603 57.9368 12.2387C56.9235 11.3172 55.5738 10.8564 53.8896 10.8564C52.4683 10.8564 51.2043 11.2845 50.0991 12.1391C48.9939 12.9953 48.2825 14.1472 47.9665 15.5933L47.9681 15.5949Z" fill="white"/>
<path d="M67.7109 27.6367V7.50141H71.8563V10.4622H72.054C72.3435 9.90954 72.7654 9.3834 73.318 8.88215C74.5275 7.82986 75.9503 7.30371 77.5817 7.30371H79.9509V11.2514H77.384C75.7775 11.2514 74.4559 11.7588 73.4161 12.7707C72.3762 13.784 71.8563 15.1197 71.8563 16.7775V27.6351H67.7109V27.6367Z" fill="white"/>
<path d="M81.1328 7.50195H85.4759L89.8189 23.6896H91.9904L96.7289 7.50195H101.072L92.7812 35.1387H88.4382L90.8074 27.6372H86.662L81.1344 7.50195H81.1328Z" fill="white"/>
<path d="M117.434 11.2518L120.25 7.50028H122.619V3.15723H126.764V7.50028H132.883V11.2518H126.764V23.8856H133.081V27.6355H122.619V11.2502H117.434V11.2518Z" fill="white"/>
<path d="M138.43 25.011C136.442 22.9983 135.449 20.517 135.449 17.5687C135.449 14.6204 136.442 12.1407 138.43 10.1263C140.418 8.1136 142.845 7.10645 145.714 7.10645C148.583 7.10645 151.011 8.1136 152.997 10.1263C154.985 12.1391 155.978 14.6204 155.978 17.5687V18.951H139.593C139.909 20.6088 140.633 21.9117 141.765 22.8597C142.896 23.8077 144.212 24.281 145.712 24.281C147.554 24.281 149.028 23.8202 150.135 22.8987C150.634 22.5297 151.069 22.069 151.438 21.5164H155.781C155.228 22.8068 154.531 23.8996 153.688 24.7931C151.529 26.9522 148.872 28.0309 145.714 28.0309C142.845 28.0309 140.416 27.0238 138.43 25.011ZM139.792 15.5949H151.637C151.4 14.2795 150.774 13.1603 149.761 12.2387C148.748 11.3172 147.398 10.8564 145.714 10.8564C144.293 10.8564 143.029 11.2845 141.923 12.1391C140.818 12.9953 140.107 14.1472 139.791 15.5933L139.792 15.5949Z" fill="white"/>
<path d="M161.229 25.0712C159.308 23.0973 158.348 20.5974 158.348 17.5697C158.348 14.542 159.308 12.042 161.229 10.0682C163.15 8.09434 165.546 7.10742 168.415 7.10742C171.626 7.10742 174.244 8.33095 176.271 10.7796C177.14 11.9112 177.745 13.1223 178.088 14.4112H173.744C173.561 13.7543 173.218 13.1612 172.719 12.6351C171.693 11.4505 170.258 10.8589 168.415 10.8589C166.782 10.8589 165.421 11.4769 164.328 12.7145C163.236 13.952 162.689 15.5709 162.689 17.5712C162.689 19.5715 163.236 21.1904 164.328 22.428C165.421 23.6655 166.782 24.2835 168.415 24.2835C170.311 24.2835 171.797 23.692 172.876 22.5074C173.349 21.9812 173.706 21.3897 173.942 20.7312H178.088C177.745 22.0731 177.14 23.2981 176.271 24.4034C174.271 26.8255 171.652 28.035 168.415 28.035C165.546 28.035 163.15 27.0481 161.229 25.0743V25.0712Z" fill="white"/>
<path d="M181.441 27.6368V0H185.587V10.2646H185.784C186.1 9.7384 186.588 9.21226 187.246 8.68611C188.667 7.63381 190.286 7.10611 192.101 7.10611C194.601 7.10611 196.542 7.82995 197.925 9.27764C199.307 10.7253 199.997 12.8315 199.997 15.5945V27.6368H195.851V15.9899C195.851 14.2262 195.462 12.9311 194.687 12.1014C193.91 11.2717 192.719 10.8576 191.114 10.8576C189.51 10.8576 188.186 11.404 187.147 12.4968C186.107 13.5896 185.587 15.017 185.587 16.7807V27.6383H181.441V27.6368Z" fill="white"/>
<path d="M116.455 7.50195H120.798L112.507 35.1387H108.164L116.455 7.50195Z" fill="white"/>
<path d="M106.592 7.50195H110.935L102.644 35.1387H98.3008L106.592 7.50195Z" fill="white"/>
</g>
<defs>
<clipPath id="clip0_1316_2064">
<rect width="200" height="35.1383" fill="white"/>
</clipPath>
</defs>
</svg>
