<svg width="190" height="56" viewBox="0 0 190 56" fill="none" xmlns="http://www.w3.org/2000/svg">
<path d="M25.4654 2.80701H31V30.0415H25.2556C24.3042 30.0415 23.4472 29.4792 23.0779 28.6139L22.8681 28.1245C20.4805 30.0415 17.7029 31 14.5293 31C11.734 31 9.23411 30.3765 7.03565 29.1354C4.83719 27.8914 3.11448 26.1608 1.87046 23.9408C0.620532 21.7208 0 19.2153 0 16.4243C0 12.2231 1.36222 8.76783 4.09256 6.06128C6.81994 3.35473 10.2979 2 14.5264 2C17.7324 2 20.5455 2.97599 22.9656 4.92506L23.3084 4.17631C23.6925 3.34308 24.5346 2.80701 25.4625 2.80701H25.4654ZM11.3557 20.9109C12.5141 22.0879 13.9915 22.6764 15.7792 22.6764C17.567 22.6764 19.0444 22.0879 20.2027 20.9109C21.3611 19.7339 21.9432 18.2539 21.9432 16.4738C21.9432 14.6937 21.364 13.2137 20.2027 12.0367C19.0444 10.8597 17.5758 10.2711 15.8029 10.2711C14.0299 10.2711 12.5111 10.8597 11.3528 12.0367C10.1945 13.2137 9.61233 14.6937 9.61233 16.4738C9.61233 18.2539 10.1915 19.7368 11.3528 20.9109H11.3557Z" fill="white"/>
<path d="M87.4878 2H90V8.43702C90 9.75362 88.9394 10.82 87.63 10.82H86.3088C84.635 10.82 83.4203 11.2162 82.6679 12.0055C81.9154 12.7979 81.5392 14.0668 81.5392 15.8213V30H72V2.15489H76.8733C77.7828 2.15489 78.6122 2.67915 79.0063 3.50128L79.8476 5.24979C81.6932 3.08426 84.2409 2 87.4878 2Z" fill="white"/>
<path d="M107.5 30.997C102.999 30.997 99.2905 29.583 96.3737 26.7521C93.4569 23.9212 92 20.3381 92 15.997C92 11.6558 93.4569 8.03069 96.3737 5.21781C99.2905 2.40493 102.999 1 107.5 1C112.001 1 115.71 2.41396 118.626 5.24489C121.543 8.07581 123 11.6588 123 16C123 20.3412 121.534 23.9242 118.6 26.7551C115.665 29.586 111.965 31 107.5 31V30.997ZM103.203 20.5307C104.329 21.71 105.762 22.3026 107.5 22.3026C109.238 22.3026 110.662 21.713 111.77 20.5307C112.878 19.3514 113.434 17.8412 113.434 16C113.434 14.1588 112.878 12.6516 111.77 11.4693C110.662 10.29 109.238 9.69735 107.5 9.69735C106.342 9.69735 105.307 9.96811 104.406 10.5036C103.502 11.0421 102.795 11.7882 102.284 12.7419C101.773 13.6955 101.516 14.7816 101.516 15.997C101.516 17.8381 102.077 19.3484 103.203 20.5277V20.5307Z" fill="white"/>
<path d="M96.9261 37H103L95.5653 56H90.6011L83 37H89.1031L93.0686 48.8086L96.9261 37Z" fill="white"/>
<path d="M106 56V37H112V56H106Z" fill="white"/>
<path d="M130.997 37V41.7229H125.674V56H120.296V41.7229H115V37H131H130.997Z" fill="white"/>
<path d="M146.021 56L144.919 52.9057H137.918L136.815 56H131L138.762 37H144.069L152 56H146.015H146.021ZM143.593 48.8086L141.418 42.9171L139.246 48.8086H143.593Z" fill="white"/>
<path d="M153.383 38.9981C173.692 39.1336 192.811 32.0747 189.657 0.00653067C156.796 -0.434655 149.619 21.5871 150.015 32.8388C150.015 32.8388 164.891 26.6247 173.686 14.0466C173.686 14.0466 171.773 24.0583 153.383 38.9952V38.9981Z" fill="white"/>
<path d="M142.375 27.7832C151.973 17.5139 140.158 4.16813 134.03 2C121.912 20.0775 135.029 25.9344 138.693 28C138.693 28 135.904 22.316 137.032 15.378C137.032 15.378 138.894 23.986 142.375 27.7832Z" fill="white"/>
<path d="M61.0299 2.83598C60.1486 2.83598 59.3379 3.31368 58.9384 4.07573L58.4244 5.05103C55.9158 3.01796 53.0165 2 49.7296 2C45.8316 2 42.5681 3.27956 39.942 5.83867C37.316 8.39779 36 11.5654 36 15.3387C36 19.1119 37.3042 22.3705 39.9156 24.9126C42.527 27.4575 45.7963 28.7285 49.7296 28.7285C52.3409 28.7285 54.7291 28.0575 56.8998 26.7097V27.4973C56.8998 29.0413 56.3564 30.2782 55.2725 31.2137C54.1915 32.1435 52.8432 32.6127 51.2247 32.6155H44.0456C42.7473 32.6155 41.6957 33.6335 41.6957 34.8903V40H51.3833C55.8541 39.9829 59.4055 38.7716 62.0345 36.3575C64.6782 33.9292 66 30.6308 66 26.4651V2.83598H61.0299ZM55.4987 19.547C54.3971 20.6474 52.9989 21.1962 51.304 21.1962C49.6091 21.1962 48.2109 20.6474 47.1094 19.547C46.0078 18.4466 45.4556 17.0447 45.4556 15.3387C45.4556 13.6326 46.0049 12.2876 47.1094 11.2043C48.2109 10.1209 49.6091 9.58066 51.304 9.58066C52.9989 9.58066 54.3971 10.1209 55.4987 11.2043C56.6002 12.2876 57.1525 13.6667 57.1525 15.3387C57.1525 17.0106 56.6002 18.4494 55.4987 19.547Z" fill="white"/>
</svg>
