<svg width="347" height="80" viewBox="0 0 347 80" fill="none" xmlns="http://www.w3.org/2000/svg">
<path d="M88.3977 37.4216L89.5601 33.6988L85.714 33.8195C85.3891 33.8195 83.0271 33.7523 80.7355 32.0904C80.9064 32.1072 81.0773 32.1308 81.2514 32.1308C83.61 32.1308 85.8916 30.71 86.8062 28.6794L88.4612 25.0102C86.3876 25.0372 84.4912 24.7757 84.4912 24.7757C84.4745 24.7725 82.9803 24.5813 81.2514 22.8155C80.0119 21.5489 78.4773 20.8786 76.8157 20.8786C76.0887 20.8786 75.4387 21.0095 74.8792 21.187C74.9664 20.8888 75.0501 20.5871 75.0969 20.2756C75.6264 16.8411 73.4151 14.2208 73.4151 14.224L70.5237 10.642L68.7313 14.8506C68.7247 14.864 68.2725 15.8493 67.4617 16.3317C67.2172 15.0953 66.6175 13.7047 65.3341 12.3744C62.9152 9.86817 59.9704 9.49611 58.4292 9.49611C57.7157 9.49611 57.2064 9.5732 57.0826 9.59328L53.5916 10.2801C53.7925 9.49958 54.2213 8.14249 55.0052 6.91949L56.9316 3.91702L52.0838 4.47002L50.5394 1.18951L47.5508 2.73095L44.7868 0L42.0295 2.73095L39.031 1.18951L37.4898 4.47002L32.6453 3.91702L34.5751 6.91949C35.359 8.14249 35.788 9.49612 35.9856 10.2769L32.6554 9.62005L32.5416 9.59997C32.3741 9.5732 31.868 9.49611 31.1511 9.49611C29.6101 9.49611 26.6651 9.87139 24.2528 12.3744C22.9665 13.7013 22.3666 15.0953 22.1188 16.3317C21.3147 15.856 20.8657 14.8841 20.8657 14.8841L19.0699 10.6522L16.1318 14.2575C15.7732 14.7232 14.001 17.1861 14.4834 20.2823C14.5337 20.5906 14.6142 20.8923 14.7011 21.1905C14.145 21.0127 13.4951 20.8821 12.7681 20.8821C11.1064 20.8821 9.57188 21.5523 8.32891 22.8187C6.60693 24.5781 5.1194 24.7757 5.1327 24.7757C5.1327 24.7757 3.56144 25.0573 1.12919 25.0136L2.77409 28.6826C3.68877 30.7167 5.97374 32.134 8.32891 32.134C8.50648 32.134 8.6774 32.1107 8.85152 32.0938C6.56679 33.7558 4.20472 33.8227 3.92002 33.8262L0 33.6988L1.18608 37.4181C1.78257 39.3349 3.77595 42.5114 7.59525 42.8532C7.17978 44.5955 6.25844 46.5457 4.23477 47.3868L1.31685 48.5897L2.90806 51.3609C3.806 52.8553 5.91341 54.6043 8.9153 54.6043C9.56523 54.6011 10.1918 54.5374 10.7947 54.41C10.9488 55.0936 11.1431 55.7772 11.371 56.4539C12.2654 59.1146 11.4951 60.9709 11.485 60.991L10.0442 64.01L13.2607 64.8578C13.3008 64.8712 14.2724 65.1359 15.4885 65.1359C16.0414 65.1359 16.5674 65.0789 17.0632 64.9616C17.4383 64.8746 17.7969 64.7574 18.1419 64.6166C18.5574 65.3637 19.0632 66.0441 19.6528 66.6538C21.7134 68.7682 24.6316 69.8405 28.3302 69.8405H28.3435L30.9836 69.807L25.5293 72.0721L29.6702 74.0724C31.1745 74.8063 32.9603 75.6741 34.7761 76.3377L34.2601 77.7516L35.6876 78.4017C35.8149 78.4587 38.5587 79.6884 43.1217 79.9497C43.1217 79.9497 44.2241 80 44.8304 80C45.4368 80 46.5256 79.9465 46.5256 79.9465C51.0586 79.6783 53.7824 78.462 53.9098 78.4017L55.3404 77.7483L54.8175 76.331C56.687 75.6474 58.5366 74.7459 59.9771 74.0424L64.0409 72.0686L58.6036 69.8003L61.2536 69.8338C64.9556 69.8338 67.877 68.7615 69.9341 66.6437C70.5205 66.0374 71.0264 65.357 71.4451 64.6099C71.7904 64.7507 72.1521 64.8679 72.5272 64.9549C73.0198 65.0722 73.5458 65.1292 74.0985 65.1292C75.2947 65.1292 76.2763 64.8645 76.3032 64.8578L79.5329 64.0034L78.1256 61.0413C78.0921 60.9642 77.3215 59.1111 78.216 56.4472C78.4438 55.7671 78.6349 55.0834 78.7891 54.4033C79.3955 54.5307 80.0286 54.5976 80.682 54.5976C84.5045 54.5976 86.3373 51.907 86.6925 51.324L88.2669 48.583L85.349 47.3836C83.3219 46.5425 82.404 44.5888 81.992 42.8497C85.7576 42.5282 87.7813 39.3515 88.3977 37.4216ZM36.2402 11.5601L36.2001 11.5703L36.2336 11.5267L36.2402 11.5601Z" fill="white"/>
<path d="M44.7908 11.3945C41.702 11.398 39.387 12.4098 38.8809 13.5994L44.7908 15.9316L50.7008 13.5994C50.1984 12.4098 47.8831 11.398 44.7908 11.3945Z" fill="white"/>
<path d="M44.8505 73.1343H44.8436H44.7934H44.7365H44.7331C42.8604 73.1477 40.284 72.7623 39.0411 72.4004L37.5469 76.4449C38.5317 76.7966 41.8686 77.4669 44.7934 77.4669C47.7116 77.4669 51.0518 76.7934 52.0335 76.4449L50.5425 72.4004C49.2964 72.7658 46.7232 73.1477 44.8505 73.1343Z" fill="white"/>
<path d="M56.1561 69.1133C55.0436 69.7431 52.5611 70.688 51.1172 71.127L52.3299 74.4678C54.5646 73.8578 56.4073 73.1442 57.9317 72.3802L55.4155 71.5424L56.1561 69.1133Z" fill="white"/>
<path d="M33.428 69.1133L34.1718 71.5424L31.6523 72.3802C33.1734 73.1442 35.0261 73.8578 37.2508 74.4678L38.4634 71.127C37.0262 70.688 34.5402 69.7397 33.428 69.1133Z" fill="white"/>
<path d="M44.7914 7.5294C47.1198 7.5294 49.4047 8.08562 51.1602 9.06422C51.321 8.5246 51.5456 7.87121 51.8503 7.18758L51.187 7.26814L50.4901 7.34176L50.1953 6.70845L49.3075 4.83206L47.6894 5.67656L47.0594 5.99829L46.557 5.5023L44.7981 3.75977L43.0424 5.5023L42.5399 5.99829L41.91 5.67656L40.2818 4.83206L39.4041 6.70845L39.1026 7.34176L38.4057 7.26814L37.7422 7.18758C38.0471 7.87468 38.2682 8.5246 38.4325 9.06422C40.1914 8.08562 42.4695 7.5294 44.7914 7.5294Z" fill="white"/>
<path d="M80.3388 29.2174C80.6405 29.3212 80.9486 29.3681 81.2535 29.3681C82.5701 29.3681 83.8434 28.5171 84.2822 27.542C84.2822 27.542 81.8667 27.3945 79.2702 24.7574C78.4427 23.903 77.5682 23.6484 76.8178 23.6484C75.6519 23.6484 74.7773 24.2649 74.7773 24.2649C77.9132 25.9336 78.5533 28.6143 80.3388 29.2174Z" fill="white"/>
<path d="M8.32607 29.3681C8.63097 29.3681 8.93906 29.3212 9.23411 29.2174C11.0265 28.6143 11.6696 25.9336 14.8054 24.2649C14.8054 24.2649 13.9277 23.6484 12.7685 23.6484C12.0148 23.6484 11.1403 23.903 10.3094 24.7574C7.71629 27.3945 5.30078 27.542 5.30078 27.542C5.733 28.5171 7.00946 29.3681 8.32607 29.3681Z" fill="white"/>
<path d="M81.1898 40.1105C81.2435 40.114 81.2906 40.114 81.3474 40.114C84.634 40.114 85.7497 36.5923 85.7497 36.5923H85.6861C85.083 36.5923 80.1949 36.4517 76.7408 32.0587C74.4659 29.1702 72.6031 26.6305 68.9212 25.6319L68.5594 25.5682L68.4789 25.1996C68.3784 24.6367 68.7638 24.1107 69.6381 23.5411C74.7171 20.2136 71.2697 15.9716 71.2697 15.9716C71.2697 15.9716 69.8191 19.3659 66.5727 19.3659C66.4956 19.3659 66.4118 19.3627 66.3313 19.3627C65.9629 19.3424 65.6077 19.329 65.2492 19.2519L64.6495 19.1346C64.6495 19.1346 65.5742 16.6183 63.343 14.3064C61.6611 12.5606 59.614 12.2656 58.4314 12.2656C57.8349 12.2656 57.4564 12.3427 57.4564 12.3427C58.5787 13.8104 59.3894 16.243 58.093 17.7441C56.9739 19.0343 54.2402 19.098 54.2402 21.0212C54.2402 21.8355 55.0007 22.787 56.3676 23.6414C60.4785 26.2317 64.5591 29.6662 66.2542 34.2702C68.3749 40.0134 65.9863 43.8234 62.5758 46.0082C62.5758 46.0082 63.6444 46.9932 65.1957 47.1171C65.5105 47.1474 65.8188 47.1608 66.107 47.1608C69.3802 47.1608 71.0719 45.6259 71.0719 45.6259C71.0719 45.6259 70.7939 47.747 69.0887 49.7173C67.5174 51.5369 65.4536 52.6058 62.3076 52.6526C62.3076 52.6526 62.2071 54.1136 63.6008 55.3767C64.4921 56.1744 66.5525 56.4356 66.5525 56.4356C66.5525 56.4356 62.6962 57.2164 62.2709 62.9128C62.0396 65.9988 61.2523 67.0711 61.2523 67.0711H61.3227C70.2713 67.0711 70.0403 59.3945 70.0403 59.3945C70.0403 59.3945 70.6634 61.6662 73.1592 62.2594C73.4608 62.3397 73.7825 62.3699 74.0906 62.3699C74.8947 62.3699 75.5917 62.1823 75.5917 62.1823C75.5917 62.1823 74.2849 59.4247 75.5816 55.5678C76.6571 52.3678 76.4827 49.9954 76.4827 49.9954C76.4827 49.9954 77.689 51.8183 80.6773 51.8351H80.7076C83.1967 51.8351 84.2823 49.9486 84.2823 49.9486C78.3155 47.4723 78.9051 39.4772 78.9051 39.4772C78.9051 39.4772 79.6789 40.0538 81.1898 40.1105ZM79.3942 48.4608C76.9686 47.2646 75.434 44.0881 75.0622 42.942C74.6602 49.2416 71.5847 53.6143 67.9898 57.823C66.1237 60.0042 65.4738 62.1253 65.4738 62.1253C65.4738 62.1253 65.8321 59.7229 67.447 57.7659C70.8008 53.7351 73.9869 48.7189 74.2246 42.9187C74.3888 38.8709 73.3468 35.5871 71.7221 32.8831C72.6299 35.7009 72.5026 39.1523 69.4169 42.3724C69.4169 42.3724 75.5582 35.0108 66.9714 27.4649C63.5338 24.593 59.7749 22.8205 57.8384 21.564C64.8337 23.8459 68.2479 21.3328 68.2479 21.3328C66.0131 23.2696 63.1218 23.2362 61.3294 22.9581C61.8153 23.1958 62.3212 23.4439 62.8672 23.7354C68.7636 26.9386 74.0637 32.2094 74.9683 39.5109V39.4539C76.3421 46.6211 79.3942 48.4608 79.3942 48.4608Z" fill="white"/>
<path d="M23.0273 56.4356C23.0273 56.4356 25.0877 56.1776 25.9789 55.3767C27.3694 54.1136 27.2722 52.6526 27.2722 52.6526C24.123 52.609 22.0624 51.5369 20.481 49.7208C18.7893 47.7504 18.5078 45.6294 18.5078 45.6294C18.5078 45.6294 20.1998 47.164 23.4696 47.164C23.7644 47.164 24.0693 47.1506 24.3843 47.1206C25.9354 46.9964 27.0074 46.0114 27.0074 46.0114C23.5969 43.8266 21.2048 40.0134 23.3221 34.2702C25.0207 29.6697 29.0981 26.2317 33.209 23.6414C34.5758 22.787 35.3363 21.8389 35.3363 21.0212C35.3363 19.098 32.6058 19.0343 31.4867 17.7441C30.1903 16.243 31.0045 13.8069 32.1234 12.3427C32.1234 12.3427 31.7515 12.2656 31.1518 12.2656C29.9726 12.2656 27.9255 12.5606 26.2437 14.3064C24.0058 16.6183 24.9337 19.1346 24.9337 19.1346L24.334 19.2519C23.9755 19.329 23.6169 19.3424 23.2519 19.3627C23.1682 19.3627 23.0943 19.3659 23.014 19.3659C19.7609 19.3659 18.317 15.975 18.317 15.975C18.317 15.975 14.8693 20.2171 19.9451 23.5443C20.8194 24.1139 21.2014 24.6401 21.1009 25.203L21.0206 25.5716L20.6519 25.6353C16.9767 26.6338 15.1106 29.1737 12.8358 32.0621C9.38835 36.4482 4.50685 36.5923 3.89706 36.5923H3.83008C3.83008 36.5923 4.94572 40.114 8.23256 40.114C8.286 40.114 8.33304 40.114 8.38994 40.1105C9.90086 40.057 10.6781 39.4772 10.6781 39.4772C10.6781 39.4772 11.2611 47.4689 5.30086 49.9486C5.30086 49.9486 6.38645 51.8351 8.8756 51.8351H8.90589C11.8977 51.8183 13.1005 49.9954 13.1005 49.9954C13.1005 49.9954 12.9261 52.3678 13.9982 55.5678C15.2949 59.4247 13.995 62.1823 13.995 62.1823C13.995 62.1823 14.6917 62.3699 15.4926 62.3699C15.8042 62.3699 16.1224 62.3397 16.4206 62.2594C18.9132 61.6662 19.5397 59.3945 19.5397 59.3945C19.5397 59.3945 19.3119 67.0711 28.2605 67.0711H28.3243C28.3243 67.0711 27.5401 65.9988 27.3123 62.9128C26.8835 57.2164 23.0273 56.4356 23.0273 56.4356ZM21.59 57.823C17.9953 53.6143 14.923 49.2416 14.5176 42.942C14.1457 44.0847 12.6181 47.2646 10.1925 48.4608C10.1925 48.4608 13.2411 46.6211 14.6114 39.4539V39.5109C15.5192 32.2129 20.8162 26.9386 26.7161 23.7354C27.2554 23.4404 27.7679 23.1926 28.2504 22.9581C26.458 23.2362 23.5666 23.2696 21.3321 21.3328C21.3321 21.3328 24.7461 23.8459 31.7382 21.564C29.8017 22.8205 26.0459 24.593 22.6086 27.4649C14.0184 35.0108 20.1628 42.3724 20.1628 42.3724C17.074 39.149 16.9499 35.7009 17.8579 32.8831C16.2295 35.5904 15.1909 38.8709 15.3584 42.9187C15.5931 48.7189 18.7792 53.7351 22.1262 57.7659C23.7442 59.7194 24.1094 62.1253 24.1094 62.1253C24.1094 62.1253 23.4529 60.0042 21.59 57.823Z" fill="white"/>
<path d="M38.1725 28.3654C38.32 28.5228 38.4641 28.6938 38.6015 28.8646C38.635 28.9047 38.6651 28.9417 38.6986 28.9885C38.8259 29.1595 38.9567 29.3405 39.0806 29.5247C39.1074 29.5616 39.1342 29.6052 39.1643 29.6486C39.315 29.8766 39.4556 30.1111 39.5965 30.3523C40.8863 32.5807 42.9535 33.911 44.7861 33.9142C46.6221 33.911 48.6825 32.5807 49.9791 30.3523C50.1232 30.1044 50.2671 29.8633 50.418 29.6387C50.4414 29.6052 50.4648 29.575 50.485 29.5415C50.6123 29.3504 50.7463 29.1628 50.8869 28.9818C50.9172 28.9417 50.9438 28.9082 50.9707 28.8747C51.1147 28.697 51.2623 28.5228 51.413 28.3619C51.4398 28.3351 51.4598 28.3118 51.4834 28.2917C52.14 27.618 52.9239 27.1054 53.9492 26.8206L53.4936 26.5559H53.4667L51.6509 25.5005L49.7848 24.4316L44.7994 27.1456L44.7861 27.1357L44.776 27.1456L39.7874 24.4316L37.9248 25.497L36.1055 26.5527H36.0853L35.623 26.8174C36.6515 27.1022 37.4322 27.6081 38.0922 28.2816C38.1223 28.3084 38.1425 28.3386 38.1725 28.3654ZM42.7691 28.1475H44.8799H46.9871V29.5951C46.4913 28.9885 45.5264 29.1127 45.5264 29.1127V31.2C45.5264 31.2 45.5634 32.2255 45.9219 32.6711H44.8799H43.8345C44.1997 32.2289 44.2332 31.2 44.2332 31.2V29.1127C44.2332 29.1127 43.2717 28.9885 42.7691 29.5951V28.1475Z" fill="white"/>
<path d="M44.3588 25.3428V16.8686L38.9648 15.0391L40.3888 23.252L44.3588 25.3428ZM43.1996 18.9495V20.3101L42.9383 20.1893C42.925 20.1792 42.543 20.0922 41.8729 19.5627C40.7674 18.7048 40.7474 17.9141 40.7474 17.9141L43.1996 18.9495Z" fill="white"/>
<path d="M49.1961 23.252L50.6135 15.0391L45.2227 16.8686V25.3428L49.1961 23.252ZM46.3819 18.9495L48.8343 17.9176C48.8343 17.9176 48.8144 18.7083 47.7054 19.5659C47.0387 20.0954 46.6533 20.1826 46.64 20.1926L46.3787 20.3133V18.9495H46.3819Z" fill="white"/>
<path d="M36.7308 44.9876C37.2568 45.1787 37.8935 45.2189 38.2183 45.2189C38.2319 45.1787 38.2486 45.1284 38.2654 45.0682C38.2954 44.971 38.3223 44.8771 38.3424 44.7698C38.4328 44.3008 38.4663 43.7679 38.473 43.4263C38.2518 43.2887 37.9403 43.0443 37.7662 42.679C37.5652 42.2568 37.2802 42.0625 36.8616 42.0625C36.3188 42.0625 35.7358 42.3875 35.4878 42.5416C35.2903 43.7111 36.1513 44.7732 36.7308 44.9876Z" fill="white"/>
<path d="M48.6592 40.4902C47.6574 41.5791 45.6975 43.4759 45.6004 43.573L45.4832 43.6935L39.2886 43.5963C39.2851 44.2096 39.1846 44.7323 39.0873 45.1143C39.0706 45.178 39.0539 45.2449 39.0371 45.3121L46.4078 46.6355C47.1752 46.0993 49.2858 44.5581 50.1032 43.955C49.5069 43.0837 49.4498 42.0516 49.584 41.3246C49.1954 41.0732 48.8971 40.7919 48.6592 40.4902Z" fill="white"/>
<path d="M49.5021 33.0395C48.0749 34.4568 46.7046 34.9796 45.4816 35.1003C45.2607 35.1236 45.0361 35.137 44.8083 35.137H44.7916H44.7782C44.5504 35.137 44.3226 35.1236 44.1015 35.1003C43.887 35.0802 43.6626 35.0465 43.438 34.9964C43.3577 35.3147 43.2572 35.9815 43.5454 36.6113C43.8032 37.1844 44.3293 37.61 45.0964 37.8913L45.3545 37.9919L45.3577 38.2701C45.3577 38.3538 45.4181 40.1566 47.3846 40.6558C47.7063 40.3242 47.9979 40.0257 48.2121 39.7779C47.8102 38.833 48.0213 37.868 48.6042 37.3956C48.5774 37.4959 48.3227 39.8616 50.219 40.7396L50.5306 40.8871L50.4368 41.2187C50.4067 41.3191 49.7735 43.6077 52.0684 44.4589L52.4737 44.6131L52.293 45.0084C52.2526 45.0957 51.3514 47.1731 53.4721 48.3525H58.0721V44.7001C56.4371 44.4991 55.7436 43.1856 55.566 42.2541C54.8055 42.1235 54.2159 41.795 53.814 41.2589C52.8491 39.989 53.68 38.8263 53.6899 38.7626C53.6867 38.7727 53.6899 40.0123 54.4538 40.7765C54.8324 41.1451 55.2813 41.4299 55.9615 41.4934L56.2965 41.5236L56.3268 41.8654C56.3334 41.939 56.5176 43.6144 58.0756 43.8791L58.0721 36.4204C58.0721 35.2644 58.4105 34.1016 58.8159 33.0293H49.5021V33.0395Z" fill="white"/>
<path d="M37.1219 36.4559L36.998 41.2071L37.5374 41.2877L38.8575 36.7306L38.1873 35.3301L37.1219 36.4559Z" fill="white"/>
<path d="M51.6751 58.2471C51.7152 58.2471 51.7623 58.2538 51.8056 58.2639C52.6264 58.4984 52.8343 61.4605 54.2748 61.7252C54.4157 61.7554 54.5462 61.7621 54.6602 61.7621C55.0757 61.7621 55.3234 61.5844 55.5916 61.2696C55.5916 61.2696 54.8678 60.1301 54.325 59.363C53.6049 58.3576 53.0454 57.1413 51.7051 57.1413C51.6751 57.1413 51.6349 57.1413 51.6014 57.1448C51.1591 57.1681 50.8877 57.3825 50.8877 57.3825C50.3449 57.0409 49.8391 56.9234 49.38 56.9234C48.5392 56.9234 47.8858 57.3089 47.561 57.3089H47.5474L44.5524 57.0139C44.0833 56.9705 43.7148 56.4981 43.5806 56.3137C43.5471 56.2633 43.5304 56.2334 43.5304 56.2334C43.5304 56.1528 43.5304 56.069 43.5237 55.9954C43.4232 53.5459 41.5269 52.4972 40.8536 52.4803C40.8536 52.4803 40.9341 52.0146 40.7496 51.8371L40.0896 52.638L37.9221 51.5488L39.4665 53.3551L38.1566 54.8259C37.9925 54.9935 38.0125 55.2213 38.0795 55.3152L38.6457 55.8144L39.3626 55.3789C39.3995 55.3519 39.4633 55.3452 39.5436 55.3452C39.7414 55.3452 40.0394 55.3955 40.3076 55.3955C40.5989 55.3955 40.8536 55.3318 40.8839 55.0572C40.7932 55.9652 39.9524 57.5434 40.5051 58.7832L40.9139 59.7182L38.2671 59.3362L37.0276 61.4302C36.6456 62.1272 36.5853 62.8813 36.9537 63.29L37.4163 63.8698C37.4163 63.8698 38.0662 63.1795 38.2135 62.7271L38.0024 62.4958C37.8248 62.3015 37.8349 62.1272 37.9423 61.9163L38.7196 60.6261L41.8453 61.3633L42.0094 61.082C42.2204 60.73 42.5253 60.6229 42.8605 60.6229C42.9977 60.6229 43.1385 60.6395 43.2858 60.6631C43.8656 60.7768 44.8204 60.931 45.7752 60.931C46.8239 60.931 47.8624 60.7434 48.4153 60.1235C49.5477 61.8023 51.8425 62.0702 51.6615 62.9214L51.0586 65.7965C51.4574 65.7796 51.8425 65.7529 52.2078 65.7025L52.7806 62.7102C52.8444 62.3853 52.9045 61.9463 52.9045 61.9463C52.6836 61.722 52.1474 61.2461 51.846 60.6698C51.4406 59.8924 51.6615 59.4869 51.283 58.4749C51.2965 58.4815 51.4103 58.2471 51.6751 58.2471ZM39.9825 54.0451C39.8283 54.0419 39.7177 53.9113 39.7246 53.7571C39.7379 53.6096 39.8618 53.4924 40.0128 53.5058C40.1667 53.5125 40.2773 53.6466 40.2706 53.7938C40.2573 53.9413 40.13 54.0553 39.9825 54.0451Z" fill="white"/>
<path d="M35.7152 60.9693C35.7152 60.9693 36.7503 60.5437 36.8441 60.2389L36.7067 59.8936C36.6097 59.6693 36.6229 59.4246 36.8106 59.2905L37.9297 58.5164L39.7992 58.8751C39.7992 58.8751 39.4608 58.4529 39.4943 57.8866L37.712 57.5078L36.0302 58.5333C35.3098 59.0726 35.2561 59.9541 35.494 60.4768L35.7152 60.9693Z" fill="white"/>
<path d="M48.9297 65.8389C49.2649 65.8255 49.6333 65.8186 50.0387 65.8186C50.0387 65.8186 51.0002 63.0075 51.0538 62.917C50.5145 62.679 49.3954 62.0859 48.9632 61.8145C49.2481 62.24 49.9416 62.7293 49.8042 63.1046L48.9297 65.8389Z" fill="white"/>
<path d="M58.0797 49.166H31.502V59.1647C31.502 63.2526 34.4603 65.8126 38.8256 65.8126C42.4742 65.8126 43.4357 65.9534 44.7924 67.3003C45.7273 66.3688 46.5011 66.0205 48.0891 65.8897L48.126 65.7355L48.9636 63.1455C48.9166 63.0885 47.5463 61.5304 47.5463 61.5304C47.0037 61.7113 46.5481 61.7415 45.7807 61.7415C44.9934 61.7415 44.1058 61.6511 43.1441 61.4701C43.047 61.4466 42.9564 61.4399 42.866 61.4399C42.7488 61.4399 42.7387 61.45 42.7086 61.5068L42.5412 61.7817L42.2363 62.2844L41.6632 62.1535L39.1137 61.5539L38.7652 62.1302L38.8189 62.1904L39.1304 62.5323L38.993 62.9779C38.8054 63.5609 38.1958 64.2411 38.0114 64.4287L37.375 65.1123L36.7952 64.3787L36.3598 63.8323C35.9007 63.3197 35.7936 62.5323 36.0515 61.7081C36.0448 61.7148 36.0347 61.718 36.0246 61.718L35.3045 62.0162L34.9794 61.3125L34.7516 60.8133C34.3595 59.9353 34.5036 58.6521 35.5592 57.878L37.6129 56.7187L39.5661 57.1041C39.6129 56.9162 39.6833 56.2462 39.7402 56.0752C39.7033 56.072 39.6666 56.0618 39.6297 56.0618L38.5039 56.4807L37.4186 55.7302C37.4186 55.7302 36.993 55.3214 37.3782 54.9127L38.4303 53.3208L35.7668 49.9768L39.8609 51.6589L40.1323 51.3205L40.685 50.6604L41.3115 51.2568C41.4891 51.4278 41.5895 51.6388 41.6398 51.85C42.769 52.289 44.7892 53.5856 44.9668 55.6932L44.3336 55.948V55.9646C44.4777 56.1357 44.5981 56.2061 44.635 56.2128L47.5564 56.5008C47.6303 56.4874 47.7239 56.4539 47.8278 56.4237C48.1896 56.2998 48.7358 56.1223 49.3823 56.1223C49.9084 56.1223 50.4177 56.2428 50.9068 56.4708C51.0878 56.4036 51.3087 56.3533 51.5634 56.3367L51.7042 56.3332C53.2688 56.3332 54.0461 57.5027 54.6692 58.4342C54.7731 58.5951 54.8768 58.7492 54.9842 58.8999C55.5302 59.6706 56.2439 60.7999 56.2739 60.8467L56.5956 61.3494L56.2003 61.8085C55.8954 62.1604 55.4398 62.5724 54.6556 62.5724C54.4948 62.5724 54.3172 62.5558 54.1264 62.5189C53.9589 62.4886 53.8082 62.4386 53.6607 62.3781C53.6373 62.5323 53.607 62.7167 53.5769 62.8741L53.0644 65.5479C56.1299 64.7941 58.0765 62.4787 58.0765 59.1681L58.0797 49.166Z" fill="#FFDD2D"/>
<path d="M31.5047 48.3611H52.1727C51.1408 47.2955 51.1543 45.9451 51.4188 45.0672C51.1174 44.9231 50.8694 44.7489 50.6482 44.5612C49.8409 45.1576 47.3752 46.9537 46.7319 47.4029L46.5945 47.4965L38.4835 46.0289H38.3192C38.1249 46.0289 37.8402 46.0222 37.5284 45.9853C37.4415 46.3506 37.1265 46.602 36.7647 46.602C36.7246 46.602 36.6775 46.5985 36.6339 46.5886C36.4229 46.5517 36.2387 46.4443 36.1148 46.2669C35.9875 46.0926 35.9372 45.8849 35.9739 45.6705L36.0042 45.4962C35.1666 44.9065 34.396 43.5896 34.7378 42.2023L34.7713 42.055L34.8886 41.9712C34.9053 41.9578 35.0459 41.8639 35.2538 41.7432L34.664 41.6527C34.443 41.6126 34.2955 41.4083 34.329 41.1904C34.366 40.9693 34.5736 40.8117 34.7913 40.8553L36.1951 41.0764L36.3224 36.1306L38.4131 33.9191L39.7164 36.6636L38.3394 41.4217L39.5789 41.616C39.7967 41.6495 39.9474 41.8537 39.9139 42.0783C39.8804 42.2761 39.7129 42.4134 39.5152 42.4134C39.4952 42.4134 39.4718 42.4134 39.4516 42.4102L38.4431 42.2459C38.4567 42.2761 38.4766 42.2927 38.4902 42.3264C38.5973 42.5475 38.8352 42.7084 38.9758 42.7753L45.1606 42.8725C45.4219 42.6179 46.0719 41.9812 46.7385 41.3077C45.2175 40.7314 44.6646 39.4179 44.5708 38.5466C43.7199 38.1848 43.1335 37.6419 42.8087 36.935C42.4134 36.0602 42.554 35.1858 42.6579 34.7602C41.8336 34.4587 40.966 33.9092 40.0814 33.0312H30.7676C31.1663 34.1035 31.5047 35.2663 31.5047 36.4221V48.3611Z" fill="#FFDD2D"/>
<path d="M40.0173 53.5069C39.8665 53.4935 39.7392 53.6108 39.7291 53.7582C39.7193 53.9122 39.833 54.043 39.9872 54.0463C40.1345 54.0597 40.2653 53.9459 40.2786 53.7949C40.2786 53.6477 40.1714 53.5104 40.0173 53.5069Z" fill="#333333"/>
<path d="M58.0435 71.6377L56.5124 71.0515L56.9345 69.4698L57.4003 67.7441C57.4003 67.7441 54.6865 69.2153 50.8638 70.321C49.7784 70.6326 48.9576 70.7734 48.9576 70.7734V71.9461C48.9576 71.9461 46.9139 72.3013 44.8467 72.3013H44.8233H44.793H44.7528H44.7294C42.6622 72.3013 40.6185 71.9461 40.6185 71.9461V70.7734C40.6185 70.7734 39.7945 70.6326 38.7123 70.321C34.8896 69.2153 32.1793 67.7441 32.1793 67.7441L32.6381 69.4698L33.0703 71.0515L31.536 71.6377L29.834 72.2745C31.7872 73.2159 34.4909 74.5899 36.9667 75.2668L36.3838 76.8616C36.3838 76.8616 39.5231 78.2926 44.7528 78.306V78.3092H44.7696H44.793H44.8132H44.8265V78.306C50.0631 78.2926 53.199 76.8616 53.199 76.8616L52.6126 75.2668C55.0884 74.5899 57.799 73.2159 59.7421 72.2745L58.0435 71.6377ZM31.6498 72.3816L34.1692 71.544L33.4255 69.1146C34.5345 69.7447 37.0239 70.6896 38.4643 71.1286L37.2482 74.4691C35.0236 73.8559 33.1708 73.1423 31.6498 72.3816ZM44.793 77.4681C41.8682 77.4681 38.5281 76.7947 37.5465 76.4462L39.0406 72.4019C40.2802 72.7638 42.8599 73.149 44.7329 73.1356H44.7361H44.793H44.8432H44.8501C46.7228 73.149 49.2959 72.7638 50.5421 72.4019L52.0331 76.4462C51.0514 76.7979 47.7146 77.4681 44.793 77.4681ZM52.3313 74.4691L51.1184 71.1286C52.5623 70.6896 55.0451 69.7447 56.1573 69.1146L55.417 71.544L57.933 72.3816C56.4085 73.1423 54.5658 73.8559 52.3313 74.4691Z" fill="#333333"/>
<path d="M44.7921 8.50753C47.908 8.50753 50.4006 9.53942 51.7776 10.642C51.7776 10.642 52.1864 8.1791 53.5833 6.00453L51.0739 6.28933L49.7608 3.49805L47.2379 4.79813L44.7921 2.37891L42.3532 4.79813L39.8271 3.49805L38.5171 6.28933L36.0078 6.00453C37.4047 8.1791 37.8135 10.642 37.8135 10.642C39.1939 9.53942 41.6799 8.50753 44.7921 8.50753ZM38.4031 7.26768L39.1001 7.34154L39.4015 6.70823L40.2793 4.8316L41.9077 5.67263L42.5374 5.99436L43.0401 5.49862L44.7955 3.75608L46.5545 5.49862L47.0569 5.99436L47.6869 5.67263L49.3049 4.8316L50.1928 6.70823L50.4878 7.34154L51.1845 7.26768L51.848 7.18737C51.5431 7.87422 51.3185 8.52414 51.1577 9.06376C49.4022 8.08541 47.1172 7.52918 44.7889 7.52918C42.4704 7.52918 40.1889 8.08541 38.4265 9.06376C38.2625 8.52414 38.0413 7.87075 37.7364 7.18737L38.4031 7.26768Z" fill="#333333"/>
<path d="M81.3455 41.1876C85.3759 41.1876 86.7228 37.0863 86.7797 36.9121L87.2286 35.4677L85.7177 35.5148H85.7108C85.1781 35.5148 80.7323 35.3973 77.5797 31.39L77.2817 31.0179C75.221 28.3977 73.2678 25.908 69.7768 24.772C69.8773 24.6816 70.0214 24.5678 70.2191 24.4404C72.0719 23.2206 73.1506 21.7396 73.422 20.0206C73.8173 17.4338 72.1689 15.3733 72.0953 15.2895L70.973 13.9021L70.2728 15.5475C70.2258 15.6514 69.0466 18.285 66.5673 18.285H66.3831C66.2122 18.2748 66.0513 18.2681 65.8905 18.2548C65.9777 17.0786 65.7632 15.2592 64.1148 13.5536C62.1348 11.4995 59.7025 11.1914 58.4295 11.1914C57.7493 11.1914 57.2971 11.2752 57.2501 11.2819L55.5549 11.617L56.6001 12.9942C57.421 14.0563 58.1647 16.0165 57.2836 17.0419C57.0023 17.3669 56.4226 17.6316 55.8665 17.8963C54.724 18.4223 53.166 19.1528 53.166 21.0158C53.166 22.2222 54.1009 23.4821 55.796 24.5544C60.8149 27.7108 63.9104 31.0045 65.2472 34.6401C67.3145 40.2326 64.6175 43.4227 61.9976 45.1013L60.8216 45.8585L61.8501 46.8036C61.9875 46.9241 63.2472 48.0333 65.1066 48.1942C65.4583 48.2175 65.7967 48.2376 66.1117 48.2376C67.3044 48.2376 68.3196 48.0499 69.1436 47.7986C68.9158 48.1974 68.6378 48.6029 68.2861 49.0117C66.7884 50.7473 64.9458 51.5382 62.2956 51.5784L61.3107 51.5952L61.2336 52.5835C61.2235 52.7813 61.1499 54.6143 62.8854 56.1724C63.1499 56.4136 63.4716 56.6112 63.8067 56.7755C62.6308 57.8344 61.4346 59.6773 61.2036 62.837C61.0093 65.4741 60.3793 66.4492 60.3726 66.4591L59.2838 68.1213L61.2504 68.1481C64.5003 68.1481 66.9894 67.2501 68.7148 65.4741C69.7335 64.4219 70.3164 63.2358 70.6614 62.1836C71.2276 62.6662 71.9578 63.0883 72.9095 63.3129C73.2713 63.3967 73.6665 63.4435 74.0921 63.4435C75.01 63.4435 75.7771 63.2492 75.8643 63.2291L77.1208 62.894L76.5645 61.7213C76.5244 61.6274 75.4757 59.2751 76.6049 55.9176C77.0905 54.4668 77.3386 53.1667 77.4592 52.1547C78.2498 52.5669 79.3085 52.9087 80.6788 52.9119C83.7879 52.9119 85.1582 50.5899 85.2217 50.4927L85.8349 49.4271L84.6991 48.9581C80.9936 47.4201 80.173 43.2886 80.0087 41.0503C80.3436 41.114 80.7256 41.1742 81.1578 41.1876H81.3455ZM84.2836 49.9466C84.2836 49.9466 83.1983 51.8329 80.7089 51.8329H80.6788C77.6902 51.8163 76.4842 49.9935 76.4842 49.9935C76.4842 49.9935 76.6583 52.3659 75.5796 55.5659C74.283 59.4225 75.5897 62.1804 75.5897 62.1804C75.5897 62.1804 74.8928 62.368 74.0887 62.368C73.7806 62.368 73.4589 62.3378 73.1572 62.2574C70.6614 61.6643 70.0381 59.3925 70.0381 59.3925C70.0381 59.3925 70.2694 67.0691 61.3208 67.0691H61.2504C61.2504 67.0691 62.0377 65.9968 62.2722 62.9108C62.6977 57.2145 66.554 56.4337 66.554 56.4337C66.554 56.4337 64.4968 56.1757 63.6055 55.3748C62.2118 54.1116 62.3091 52.6507 62.3091 52.6507C65.4583 52.6071 67.5187 51.5348 69.0902 49.7154C70.792 47.745 71.0735 45.624 71.0735 45.624C71.0735 45.624 69.3815 47.1586 66.1082 47.1586C65.8201 47.1586 65.512 47.1452 65.197 47.1152C63.6491 46.9913 62.5771 46.006 62.5771 46.006C65.9843 43.8212 68.3765 40.0082 66.2557 34.2648C64.5572 29.6643 60.4766 26.2263 56.3691 23.6363C55.002 22.7816 54.2415 21.8335 54.2415 21.0158C54.2415 19.0926 56.9755 19.0321 58.0978 17.7387C59.391 16.2376 58.5802 13.8017 57.4579 12.3373C57.4579 12.3373 57.8364 12.2602 58.4327 12.2602C59.6153 12.2602 61.6624 12.5584 63.3442 14.301C65.579 16.6129 64.651 19.1293 64.651 19.1293L65.2507 19.2467C65.609 19.3238 65.9641 19.3372 66.3328 19.3538C66.4131 19.3538 66.4937 19.3573 66.5739 19.3573C69.8204 19.3573 71.2712 15.9629 71.2712 15.9629C71.2712 15.9629 74.7218 20.2082 69.6428 23.5322C68.7685 24.1021 68.3831 24.628 68.4836 25.191L68.5641 25.5595L68.9259 25.6232C72.6078 26.6217 74.4706 29.1616 76.7455 32.0501C80.1996 36.4428 85.0877 36.5836 85.6909 36.5836H85.7544C85.7544 36.5836 84.6388 40.1054 81.3522 40.1054C81.2985 40.1054 81.2517 40.1054 81.1948 40.1019C79.6836 40.0484 78.9098 39.4686 78.9098 39.4686C78.9098 39.4686 78.3168 47.4669 84.2836 49.9466Z" fill="#333333"/>
<path d="M74.2647 25.2137C75.7689 26.0146 76.6435 27.0866 77.4106 28.0384C78.1645 28.9665 78.8814 29.8613 80.0003 30.2331C80.399 30.3704 80.8211 30.4341 81.2501 30.4341C82.932 30.4341 84.6204 29.4054 85.2603 27.9814L85.9036 26.5539L84.3456 26.4602C84.272 26.4568 82.2685 26.2758 80.0372 23.9939C79.1193 23.0592 78.0103 22.5664 76.8141 22.5664C75.3535 22.5664 74.2713 23.2969 74.1506 23.3708L72.7168 24.3793L74.2647 25.2137ZM76.8176 23.6454C77.568 23.6454 78.4425 23.9002 79.27 24.7546C81.8666 27.3917 84.2821 27.539 84.2821 27.539C83.8432 28.5109 82.5699 29.3653 81.2533 29.3653C80.9484 29.3653 80.6435 29.3184 80.3386 29.2146C78.5531 28.6113 77.913 25.9308 74.774 24.2621C74.774 24.2621 75.6517 23.6454 76.8176 23.6454Z" fill="#333333"/>
<path d="M74.9717 39.4525V39.5063C74.0672 32.2082 68.767 26.9375 62.8706 23.7307C62.3243 23.4393 61.8219 23.1911 61.3328 22.9534C63.1284 23.2315 66.0197 23.265 68.251 21.3281C68.251 21.3281 64.8371 23.8413 57.8418 21.5594C59.7783 22.8159 63.5407 24.5886 66.9746 27.4602C75.5613 35.0062 69.4169 42.3677 69.4169 42.3677C72.5025 39.1476 72.6299 35.6963 71.7221 32.8785C73.3468 35.5825 74.3856 38.8663 74.2248 42.914C73.9869 48.7142 70.8008 53.7304 67.4469 57.7613C65.8355 59.7183 65.4737 62.1206 65.4737 62.1206C65.4737 62.1206 66.1237 59.9996 67.9897 57.8183C71.5847 53.6097 74.657 49.237 75.0589 42.9373C75.4308 44.08 76.9619 47.26 79.3907 48.4562C79.3976 48.4594 76.3455 46.62 74.9717 39.4525Z" fill="#333333"/>
<path d="M29.2079 66.4555C29.2044 66.4453 28.5814 65.4702 28.3804 62.8331C28.1459 59.6734 26.9532 57.8305 25.7738 56.7716C26.1156 56.6107 26.4306 56.4132 26.6951 56.1685C28.4272 54.6104 28.3535 52.7774 28.3434 52.5798L28.2765 51.5913L27.2847 51.5745C24.6414 51.5309 22.7955 50.7401 21.2979 49.0078C20.9494 48.599 20.6679 48.1935 20.4401 47.7949C21.2644 48.0463 22.2727 48.2339 23.4688 48.2339C23.7905 48.2339 24.1222 48.2136 24.4739 48.1903C26.3333 48.0294 27.593 46.9237 27.7337 46.7997L28.7624 45.8548L27.5864 45.0976C24.9564 43.4153 22.2695 40.2254 24.3333 34.6364C25.6701 31.0006 28.7624 27.7069 33.7877 24.5505C35.4831 23.4782 36.4111 22.2183 36.4111 21.0121C36.4111 19.1489 34.8565 18.4152 33.7141 17.8924C33.158 17.6277 32.5782 17.363 32.297 17.038C31.4123 16.016 32.1595 14.0524 32.9769 12.9903L34.0291 11.6131L32.327 11.278C32.2768 11.2713 31.8313 11.1875 31.1478 11.1875C29.8746 11.1875 27.449 11.4959 25.4657 13.5497C23.8139 15.2588 23.5962 17.0782 23.6799 18.2511C23.5191 18.2645 23.3583 18.2712 23.1908 18.2811H23.0098C20.5238 18.2811 19.3479 15.6475 19.3011 15.5436L18.6009 13.8982L17.4685 15.2856C17.4047 15.3693 15.7497 17.4334 16.1519 20.0169C16.4198 21.7357 17.4986 23.217 19.3513 24.4365C19.5523 24.5639 19.6931 24.6777 19.7936 24.7681C16.3058 25.9041 14.356 28.3972 12.2957 31.0175L11.9974 31.3893C8.84824 35.3969 4.39232 35.5141 3.85962 35.5141L2.3418 35.4673L2.80431 36.9114C2.85775 37.0856 4.20121 41.1872 8.23501 41.1872L8.42932 41.1805C8.85489 41.1671 9.23687 41.1101 9.57846 41.0429C9.41099 43.278 8.59014 47.4095 4.88143 48.9508L3.74903 49.42L4.36202 50.4856C4.42236 50.5827 5.79611 52.9048 8.91178 52.9048C10.272 52.9013 11.3307 52.5598 12.1247 52.1476C12.2454 53.1594 12.4932 54.4595 12.9791 55.9105C14.108 59.2679 13.0562 61.6202 13.016 61.7139L12.4597 62.8868L13.7194 63.222C13.8031 63.242 14.5772 63.4364 15.4919 63.4364C15.9206 63.4364 16.3159 63.3893 16.6711 63.3058C17.6259 63.0812 18.363 62.6591 18.9225 62.1764C19.2641 63.2287 19.8505 64.4147 20.8657 65.4669C22.5943 67.2427 25.0803 68.1407 28.3302 68.1407L30.3001 68.114L29.2079 66.4555ZM28.2565 67.0684C19.3077 67.0684 19.5355 59.3919 19.5355 59.3919C19.5355 59.3919 18.9124 61.6639 16.4164 62.2568C16.1182 62.3373 15.8 62.3673 15.4884 62.3673C14.6843 62.3673 13.9908 62.1797 13.9908 62.1797C13.9908 62.1797 15.2907 59.4221 13.9942 55.5652C12.9222 52.3654 13.0963 49.9931 13.0963 49.9931C13.0963 49.9931 11.8935 51.8159 8.90169 51.8325H8.87164C6.38225 51.8325 5.2969 49.946 5.2969 49.946C11.2603 47.4697 10.6742 39.4749 10.6742 39.4749C10.6742 39.4749 9.9001 40.0512 8.38573 40.1082C8.33229 40.1114 8.28205 40.1114 8.22836 40.1114C4.93832 40.1114 3.82612 36.5899 3.82612 36.5899H3.89311C4.49945 36.5899 9.38095 36.4491 12.835 32.0563C15.1099 29.1679 16.9759 26.6314 20.6512 25.6295L21.0198 25.5658L21.1001 25.1972C21.2006 24.6343 20.8186 24.1081 19.9444 23.5385C14.8653 20.2113 18.316 15.9692 18.316 15.9692C18.316 15.9692 19.7601 19.3601 23.0132 19.3601C23.0935 19.3601 23.1674 19.3569 23.2511 19.3569C23.6161 19.3365 23.9782 19.3231 24.3333 19.2461L24.933 19.1288C24.933 19.1288 24.005 16.6124 26.2429 14.3005C27.9248 12.5548 29.9718 12.2598 31.151 12.2598C31.7507 12.2598 32.1226 12.3369 32.1226 12.3369C31.0038 13.8045 30.1928 16.2371 31.486 17.7383C32.6051 19.0284 35.3356 19.0921 35.3356 21.0154C35.3356 21.8296 34.5751 22.7812 33.2082 23.6356C29.0973 26.2259 25.0167 29.6639 23.3213 34.2644C21.2041 40.0075 23.5927 43.8176 27.0066 46.0055C27.0066 46.0055 25.9346 46.9906 24.3835 47.1145C24.0685 47.1448 23.7636 47.1582 23.4688 47.1582C20.199 47.1582 18.5071 45.6236 18.5071 45.6236C18.5071 45.6236 18.7886 47.7446 20.4803 49.7149C22.0616 51.5343 24.1222 52.6066 27.2714 52.6502C27.2714 52.6502 27.3719 54.1112 25.9782 55.3743C25.0837 56.1718 23.0265 56.4333 23.0265 56.4333C23.0265 56.4333 26.8862 57.2138 27.3083 62.9101C27.5394 65.9964 28.3201 67.0684 28.3201 67.0684H28.2565Z" fill="#333333"/>
<path d="M8.32453 30.4384C8.75675 30.4384 9.17887 30.3747 9.5776 30.2374C10.7033 29.8654 11.4168 28.9708 12.1707 28.0425C12.9413 27.0909 13.8089 26.0186 15.3132 25.2178L16.8611 24.3869L15.4238 23.3783C15.3033 23.3012 14.2244 22.5742 12.7672 22.5742C11.5678 22.5742 10.4553 23.0633 9.54066 24.0015C7.30937 26.2801 5.30933 26.4643 5.2357 26.4678L3.67773 26.5583L4.31757 27.989C4.96085 29.4063 6.64614 30.4384 8.32453 30.4384ZM10.3081 24.7587C11.1388 23.9043 12.0133 23.6497 12.7672 23.6497C13.9264 23.6497 14.8041 24.2662 14.8041 24.2662C11.6683 25.9383 11.025 28.6156 9.23256 29.2187C8.93777 29.3225 8.62942 29.3696 8.32453 29.3696C7.00792 29.3696 5.7349 28.5184 5.29924 27.5433C5.29924 27.5401 7.71154 27.3926 10.3081 24.7587Z" fill="#333333"/>
<path d="M15.3588 42.9157C15.1914 38.868 16.2299 35.5842 17.8581 32.8802C16.9503 35.6982 17.0742 39.1496 20.1633 42.3697C20.1633 42.3697 14.0188 35.0079 22.6088 27.4619C26.0464 24.5903 29.8053 22.8178 31.7384 21.5613C24.7463 23.8432 21.3324 21.3301 21.3324 21.3301C23.5636 23.2667 26.455 23.2332 28.2508 22.9519C27.7649 23.1899 27.2559 23.4377 26.7163 23.7292C20.8132 26.9359 15.5162 32.2067 14.6084 39.5048V39.4478C13.2381 46.615 10.1895 48.4547 10.1895 48.4547C12.6151 47.2584 14.1427 44.082 14.5146 42.9358C14.92 49.2355 17.9923 53.6082 21.587 57.8168C23.4531 59.9981 24.1099 62.1191 24.1099 62.1191C24.1099 62.1191 23.7447 59.7167 22.1264 57.7598C18.7794 53.7356 15.5933 48.7159 15.3588 42.9157Z" fill="#333333"/>
<path d="M42.7695 28.1504V29.598C43.2685 28.9914 44.2334 29.1154 44.2334 29.1154V31.2029C44.2334 31.2029 44.1999 32.2281 43.8347 32.6738H44.8801H45.9222C45.5636 32.2316 45.5266 31.2029 45.5266 31.2029V29.1154C45.5266 29.1154 46.4916 28.9914 46.9876 29.598V28.1504H44.8801H42.7695Z" fill="#333333"/>
<path d="M41.8718 19.5646C42.5385 20.0938 42.9237 20.1811 42.9372 20.191L43.1985 20.3117V18.9479L40.7461 17.916C40.7461 17.9192 40.7695 18.7067 41.8718 19.5646Z" fill="#333333"/>
<path d="M47.7041 19.5646C48.8131 18.7067 48.8331 17.916 48.8331 17.916L46.3809 18.9479V20.3117L46.6387 20.191C46.6555 20.1811 47.0374 20.0938 47.7041 19.5646Z" fill="#333333"/>
<path d="M52.1227 14.0149C52.1227 11.9474 48.6418 10.0879 44.7991 10.0879H44.7956H44.7855H44.7757C40.9327 10.0879 37.4518 11.9474 37.4518 14.0149L37.5289 14.5243L39.0632 23.3334L37.5223 24.2282L33.5353 26.557H33.5488C33.5488 26.557 32.6509 27.016 32.2354 27.3008C30.7178 28.3563 30.3962 29.8943 31.2771 30.5309C31.4951 29.2779 32.4866 27.9644 34.3428 27.9644C35.6796 27.9644 36.698 28.6545 37.5223 29.6898C37.7333 29.9513 37.9343 30.2295 38.122 30.5309C38.353 30.9096 38.5842 31.2413 38.8155 31.563H28.5469C29.3005 33.081 30.0177 34.6894 30.0177 36.4352V59.1667C30.0177 64.6688 34.249 67.2957 38.8256 67.2957C42.3634 67.2957 42.8392 67.1351 44.7924 69.0784C46.7356 67.1316 47.2111 67.2957 50.7524 67.2957C55.3324 67.2957 59.5571 64.6688 59.5571 59.1667V36.4352C59.5571 34.6894 60.274 33.081 61.0311 31.563H50.7593C50.9871 31.2447 51.2181 30.9096 51.4494 30.5309C51.6402 30.2295 51.838 29.9513 52.0458 29.6898C52.8765 28.6513 53.8917 27.9644 55.2285 27.9644C57.0845 27.9644 58.0728 29.2744 58.2939 30.5309C59.1751 29.8943 58.8569 28.3563 57.329 27.3008C56.9204 27.016 56.0225 26.557 56.0225 26.557H56.0358L52.049 24.2282L50.5147 23.3334L52.049 14.5243L52.1227 14.0149ZM38.9628 15.0404L44.3568 16.8699V25.3439L40.3867 23.2496L38.9628 15.0404ZM40.0784 33.0408C40.963 33.922 41.8307 34.4681 42.6547 34.7697C42.5476 35.1953 42.407 36.0733 42.8057 36.9478C43.1305 37.6515 43.7201 38.1943 44.5678 38.5562C44.6617 39.4272 45.2111 40.7375 46.7356 41.3172C46.0689 41.9907 45.4187 42.624 45.1542 42.8821L38.9729 42.7849C38.8322 42.7145 38.5943 42.5569 38.4872 42.3325C38.4736 42.3023 38.4534 42.2854 38.4436 42.252L39.4519 42.4163C39.4755 42.4195 39.4955 42.4195 39.5157 42.4195C39.71 42.4195 39.8809 42.2854 39.9144 42.0844C39.9479 41.8601 39.7972 41.6556 39.5792 41.6221L38.3397 41.4278L39.7166 36.6729L38.4133 33.9287L36.3229 36.1402L36.1956 41.086L34.7918 40.8649C34.5738 40.8213 34.3662 40.9821 34.3293 41.2C34.2958 41.4176 34.4433 41.6221 34.6645 41.6623L35.254 41.7528C35.043 41.8735 34.9056 41.9672 34.8888 41.9806L34.7681 42.0643L34.7346 42.2118C34.393 43.5992 35.1669 44.9158 36.0012 45.5055L35.971 45.6798C35.9375 45.8944 35.9845 46.1022 36.1118 46.2764C36.2323 46.4539 36.4199 46.5612 36.6278 46.5979C36.6711 46.6046 36.7182 46.6081 36.7583 46.6081C37.1201 46.6081 37.4351 46.3567 37.5255 45.9916C37.837 46.0283 38.122 46.035 38.3163 46.035H38.4803L46.5915 47.4994L46.7289 47.4089C47.3754 46.9566 49.8379 45.1605 50.6452 44.5673C50.8664 44.7585 51.1144 44.9327 51.4159 45.0767C51.1546 45.9547 51.1378 47.3051 52.1729 48.3707H31.5017V36.4384C31.5017 35.2823 31.1633 34.1198 30.7646 33.0475H40.0784V33.0408ZM50.1025 43.9576C49.2816 44.5607 47.171 46.1022 46.4073 46.6383L39.0366 45.3147C39.0534 45.2478 39.0701 45.184 39.0869 45.1169C39.1839 44.7349 39.2812 44.2121 39.2878 43.5992L45.4825 43.6995L45.5997 43.5788C45.6936 43.4851 47.6569 41.5887 48.6585 40.4963C48.8964 40.7945 49.1947 41.0793 49.5833 41.3306C49.4493 42.0544 49.5062 43.0863 50.1025 43.9576ZM37.7634 42.681C37.9377 43.0462 38.2525 43.2908 38.4704 43.4281C38.4635 43.7699 38.4301 44.3026 38.3397 44.7718C38.3195 44.8757 38.2929 44.9729 38.2626 45.07C38.2458 45.1303 38.2291 45.1806 38.2158 45.2207C37.8907 45.2207 37.2509 45.1806 36.7283 44.9897C36.1485 44.7751 35.2841 43.7129 35.4853 42.5435C35.7365 42.3893 36.316 42.0643 36.8588 42.0643C37.2777 42.0611 37.5624 42.2587 37.7634 42.681ZM36.9962 41.2099L37.1201 36.4619L38.1855 35.3326L38.8556 36.7334L37.5356 41.2905L36.9962 41.2099ZM50.0355 65.8248C49.6335 65.8248 49.2617 65.8315 48.9267 65.8449L49.8045 63.1141C49.9416 62.7353 49.2481 62.2495 48.9634 61.8239C49.3956 62.0953 50.5147 62.6885 51.0541 62.9265C50.9972 63.0135 50.0355 65.8248 50.0355 65.8248ZM52.7896 62.722L52.2165 65.7108C51.8513 65.7611 51.4627 65.7879 51.0642 65.8047L51.6671 62.9297C51.8481 62.0753 49.553 61.8105 48.4206 60.132C47.868 60.7551 46.826 60.9393 45.7807 60.9393C44.8259 60.9393 43.8711 60.7853 43.2914 60.6713C43.1441 60.6478 43.0032 60.6312 42.866 60.6312C42.5308 60.6312 42.226 60.735 42.0149 61.0902L41.8474 61.3716L38.7217 60.6344L37.9444 61.9211C37.8338 62.1288 37.8272 62.3065 38.0047 62.5009L38.2158 62.7321C38.0717 63.1877 37.4218 63.8746 37.4218 63.8746L36.9561 63.295C36.5874 62.8828 36.6477 62.1323 37.0332 61.4353L38.2727 59.341L40.9194 59.723L40.5074 58.7848C39.9545 57.5449 40.7953 55.9667 40.886 55.0588C40.8557 55.3334 40.6045 55.3939 40.3097 55.3939C40.0417 55.3939 39.7435 55.3436 39.5457 55.3436C39.4686 55.3436 39.4016 55.3503 39.3649 55.377L38.648 55.8128L38.0816 55.3133C38.0146 55.2162 37.9912 54.9918 38.1587 54.8243L39.4686 53.3566L37.921 51.5504L40.0885 52.6395L40.7485 51.8387C40.9295 52.0161 40.8525 52.4819 40.8525 52.4819C41.5292 52.4987 43.4253 53.5475 43.5258 55.9935C43.5327 56.0674 43.5327 56.1511 43.5327 56.2314C43.5327 56.2314 43.5495 56.2617 43.583 56.312C43.7169 56.4962 44.0854 56.9686 44.5545 57.0122L47.5495 57.3072H47.5631C47.8914 57.3072 48.5447 56.9218 49.3823 56.9218C49.8379 56.9218 50.347 57.039 50.8898 57.3808C50.8898 57.3808 51.1612 57.1664 51.6035 57.1429C51.637 57.1396 51.674 57.1396 51.7075 57.1396C53.0509 57.1396 53.607 58.3525 54.3274 59.3611C54.8699 60.1285 55.5937 61.2677 55.5937 61.2677C55.3255 61.586 55.0778 61.7602 54.6623 61.7602C54.5483 61.7602 54.4178 61.7503 54.2771 61.7235C52.8364 61.4588 52.6288 58.4967 51.8079 58.262C51.7643 58.2486 51.7173 58.2454 51.6772 58.2454C51.4124 58.2454 51.2952 58.4799 51.2952 58.4799C51.6705 59.4885 51.4528 59.8972 51.8547 60.6745C52.1562 61.2511 52.6923 61.7268 52.9135 61.9513C52.9135 61.958 52.8531 62.3935 52.7896 62.722ZM36.7046 59.894L36.842 60.239C36.7517 60.5407 35.7131 60.9695 35.7131 60.9695L35.4885 60.4802C35.2506 59.9577 35.3008 59.0763 36.0246 58.5369L37.7065 57.5115L39.4888 57.8902C39.4553 58.4563 39.7937 58.8787 39.7937 58.8787L37.9242 58.52L36.8051 59.2942C36.6177 59.4248 36.6041 59.6694 36.7046 59.894ZM53.0709 65.5467L53.5836 62.8727C53.6102 62.7153 53.6437 62.5311 53.6673 62.3769C53.8114 62.4372 53.9653 62.4875 54.1331 62.5175C54.3239 62.5544 54.5015 62.5713 54.6623 62.5713C55.4462 62.5713 55.9018 62.159 56.2067 61.8073L56.602 61.3483L56.2806 60.8456C56.2503 60.7953 55.54 59.6694 54.9906 58.8988C54.8835 58.7478 54.7795 58.5971 54.6756 58.433C54.0525 57.5015 53.2718 56.3321 51.7075 56.3321L51.5666 56.3353C51.3087 56.3522 51.0876 56.4025 50.91 56.4694C50.4174 56.2381 49.9116 56.1209 49.3855 56.1209C48.7391 56.1209 48.1928 56.2986 47.831 56.4226C47.7271 56.4528 47.6333 56.4863 47.5596 56.4996L44.6348 56.2114C44.5981 56.2047 44.4774 56.1343 44.3334 55.96V55.9466L44.9665 55.6921C44.789 53.5844 42.7653 52.2876 41.6364 51.8486C41.5861 51.6376 41.4856 51.4264 41.3081 51.2557L40.6781 50.659L40.1254 51.3226L39.854 51.6609L35.7599 49.9789L38.4234 53.3229L37.3715 54.9148C36.9861 55.3235 37.4117 55.7322 37.4117 55.7322L38.497 56.4796L39.6228 56.0607C39.6629 56.0607 39.6964 56.0706 39.7334 56.074C39.6797 56.2448 39.6095 56.9151 39.5624 57.1027L37.6092 56.7173L35.5555 57.8768C34.5002 58.6507 34.3561 59.9342 34.7482 60.8121L34.976 61.3113L35.3008 62.015L36.018 61.7168C36.0278 61.7134 36.0379 61.7102 36.0446 61.7035C35.7867 62.5276 35.8907 63.3116 36.3529 63.8277L36.7884 64.3773L37.3681 65.1112L38.0047 64.4276C38.1921 64.2399 38.7987 63.5598 38.9861 62.9765L39.1236 62.5311L38.812 62.1893L38.7618 62.1288L39.1103 61.5525L41.6598 62.1524L42.2326 62.283L42.5375 61.7803L42.7052 61.5057C42.7353 61.4487 42.7454 61.4387 42.8626 61.4387C42.953 61.4387 43.0434 61.4486 43.1406 61.4687C44.1021 61.6497 44.9899 61.7401 45.7773 61.7401C46.5413 61.7401 46.9969 61.7102 47.5429 61.5292C47.5429 61.5292 48.9132 63.0839 48.9602 63.1441L48.1226 65.7309L48.0857 65.8885C46.4977 66.0159 45.7236 66.3642 44.789 67.2992C43.4322 65.9522 42.4705 65.8114 38.8221 65.8114C34.4566 65.8114 31.4983 63.2514 31.4983 59.1635V49.1681H58.0728L58.0797 59.1635C58.0829 62.4808 56.1365 64.7927 53.0709 65.5467ZM58.8165 33.0408C58.4112 34.1129 58.0728 35.2756 58.0728 36.4317L58.0762 43.8907C56.5183 43.6292 56.3341 41.9506 56.3274 41.8767L56.2974 41.5349L55.9622 41.5049C55.2854 41.4412 54.8364 41.1529 54.4579 40.7843C53.6942 40.0204 53.6907 38.7805 53.6939 38.7706C53.6841 38.8343 52.8531 39.9968 53.8181 41.2669C54.2234 41.8031 54.8098 42.1315 55.5703 42.2621C55.7479 43.1936 56.4412 44.5071 58.0762 44.7081V48.3605H53.4797C51.359 47.1812 52.2569 45.1035 52.3002 45.0165L52.4813 44.6211L52.0759 44.467C49.7808 43.6158 50.4108 41.3239 50.4443 41.2268L50.5381 40.8917L50.2266 40.7442C48.3302 39.8662 48.5883 37.4973 48.6117 37.4001C48.0288 37.8726 47.8177 38.8375 48.2196 39.7824C48.0019 40.0305 47.7103 40.332 47.3922 40.6604C45.4288 40.1612 45.3685 38.3552 45.3685 38.2714L45.3653 37.9933L45.1072 37.8927C44.34 37.6079 43.814 37.1823 43.5561 36.6094C43.2645 35.9761 43.3684 35.3126 43.449 34.9943C43.6733 35.0446 43.8977 35.0813 44.1122 35.0982C44.3334 35.1215 44.5612 35.1351 44.789 35.1351H44.8023H44.819C45.0468 35.1351 45.2714 35.1215 45.4926 35.0982C46.7154 34.9774 48.0857 34.4515 49.5129 33.0373H58.8165V33.0408ZM51.6538 25.5015L53.4696 26.557H53.4964L53.952 26.8217C52.9268 27.1065 52.1429 27.6191 51.4863 28.2926C51.4627 28.3127 51.4393 28.3397 51.4159 28.363C51.2651 28.5238 51.1144 28.6981 50.9735 28.8756C50.9469 28.9093 50.9201 28.946 50.8898 28.9829C50.7492 29.1639 50.6184 29.3483 50.4911 29.5426C50.4711 29.5761 50.4477 29.6095 50.4241 29.6398C50.2734 29.8641 50.1293 30.1055 49.9852 30.3534C48.692 32.5818 46.6282 33.9118 44.7924 33.9153C42.9596 33.9118 40.896 32.5818 39.6028 30.3534C39.462 30.1122 39.3213 29.8775 39.1706 29.6497C39.1403 29.6061 39.1135 29.5627 39.0869 29.5257C38.9596 29.3416 38.8322 29.1606 38.7015 28.9896C38.668 28.9428 38.6379 28.9058 38.6044 28.8657C38.4635 28.6949 38.3195 28.5238 38.1754 28.3664C38.1454 28.3429 38.1252 28.3127 38.0951 28.2859C37.4351 27.6124 36.6544 27.103 35.6259 26.8217L36.0882 26.557H36.1084L37.9242 25.5015L39.7903 24.4325L44.7757 27.1467L44.7855 27.1368L44.7991 27.1467L49.7843 24.4325L51.6538 25.5015ZM49.1947 23.2531L45.2212 25.3474V16.8699L50.6118 15.0404L49.1947 23.2531ZM44.789 15.9384L38.879 13.6027C39.3817 12.4132 41.6999 11.4014 44.789 11.3979C47.8813 11.4014 50.1997 12.4132 50.6989 13.6027L44.789 15.9384Z" fill="#333333"/>
<path d="M123.012 51.9432V35.6571H132.547V29.7305H106.533V35.6571H116.069V51.9432H123.012Z" fill="#5B5B5B"/>
<path d="M142.04 42.6567V29.7305H135.328V51.9432H141.253L152.826 39.017V51.9432H159.537V29.7305H153.612L142.04 42.6567Z" fill="#5B5B5B"/>
<path d="M182.118 43.6834V51.9432H188.83V29.7305H182.118V37.8503H171.333V29.7305H164.621V51.9432H171.333V43.6834H182.118Z" fill="#5B5B5B"/>
<path d="M207.523 51.9432C209.051 51.9432 210.439 51.8032 211.735 51.4299C215.207 50.4498 217.475 47.6033 217.475 43.73C217.475 40.0434 215.531 37.477 212.43 36.3102C210.948 35.7503 209.189 35.7037 207.523 35.7037H200.626V29.7305H193.914V51.9432H207.523ZM206.366 40.9301C207.291 40.9301 208.171 40.9301 208.958 41.2101C210.069 41.5834 210.717 42.5167 210.717 43.6368C210.717 44.8033 210.069 45.7834 209.004 46.2501C208.264 46.5766 207.523 46.5766 206.366 46.5766H200.626V40.9301H206.366Z" fill="#5B5B5B"/>
<path d="M229.509 43.5434L237.515 51.9432H246.45L235.294 40.3701L246.034 29.7305H237.609L229.509 38.0835H227.657V29.7305H220.943V51.9432H227.657V43.5434H229.509Z" fill="#5B5B5B"/>
<path d="M260.26 29.123C251.234 29.123 245.818 34.2562 245.818 40.8826C245.818 47.5092 251.234 52.6424 260.26 52.6424C269.242 52.6424 274.658 47.5092 274.658 40.8826C274.658 34.2562 269.242 29.123 260.26 29.123ZM260.26 47.2291C255.771 47.2291 252.901 44.5226 252.901 40.8826C252.901 37.2428 255.771 34.5827 260.26 34.5827C264.706 34.5827 267.621 37.2428 267.621 40.8826C267.621 44.5226 264.706 47.2291 260.26 47.2291Z" fill="#5B5B5B"/>
<path d="M297.011 28.4688H290.3V30.7088C281.874 30.8954 276.828 34.4886 276.828 40.8351C276.828 47.1816 281.874 50.4949 290.3 50.6815V52.9213H297.011V50.6815C305.483 50.4949 310.526 47.1816 310.526 40.8351C310.526 34.4886 305.483 30.8954 297.011 30.7088V28.4688ZM290.3 45.9216C285.67 45.735 283.633 43.8217 283.633 40.8351C283.633 37.8485 285.67 35.7019 290.3 35.5153V45.9216ZM297.011 35.5153C301.685 35.7019 303.677 37.8485 303.677 40.8351C303.677 43.8217 301.685 45.735 297.011 45.9216V35.5153Z" fill="#5B5B5B"/>
<path d="M332.856 28.4688H326.145V30.7088C317.72 30.8954 312.676 34.4886 312.676 40.8351C312.676 47.1816 317.72 50.4949 326.145 50.6815V52.9213H332.856V50.6815C341.328 50.4949 346.374 47.1816 346.374 40.8351C346.374 34.4886 341.328 30.8954 332.856 30.7088V28.4688ZM326.145 45.9216C321.517 45.735 319.48 43.8217 319.48 40.8351C319.48 37.8485 321.517 35.7019 326.145 35.5153V45.9216ZM332.856 35.5153C337.533 35.7019 339.523 37.8485 339.523 40.8351C339.523 43.8217 337.533 45.735 332.856 45.9216V35.5153Z" fill="#5B5B5B"/>
</svg>
