<svg width="304" height="80" viewBox="0 0 304 80" fill="none" xmlns="http://www.w3.org/2000/svg">
<g clip-path="url(#clip0_346_1793)">
<path d="M33.4272 0.0292969H0V79.9716L33.4272 0.0292969Z" fill="#FA0C00"/>
<path d="M56.9453 0.0292969H90.329V79.9716L56.9453 0.0292969Z" fill="#FA0C00"/>
<path d="M45.1864 29.4922L66.4622 79.9706H52.5034L46.1446 63.8994H30.5742L45.1864 29.4922Z" fill="#FA0C00"/>
<path d="M144.864 50.868L148.806 62.1701C148.936 62.4532 149.132 62.5839 149.481 62.5839H157.059C157.473 62.5839 157.538 62.3878 157.473 61.9741L141.815 18.486C141.75 18.1376 141.685 18.0723 141.336 18.0723H131.929C131.667 18.0723 131.515 18.2683 131.515 18.5514C131.384 20.8379 131.188 21.5348 130.905 22.2098L116.946 61.9088C116.881 62.3879 117.033 62.5838 117.425 62.5838H124.198C124.612 62.5838 124.808 62.4532 124.96 62.0394L128.684 50.868H144.864ZM130.84 43.4857C132.887 37.3011 135.587 29.3744 136.676 24.8448H136.741C138.091 29.5921 141.271 38.9997 142.708 43.4857H130.84Z" fill="#FA0C00"/>
<path d="M177.602 63.2581C181.674 63.2581 186.008 62.5177 190.407 60.6231C190.755 60.4925 190.82 60.3401 190.82 60.0134C190.69 58.7939 190.537 57.03 190.537 55.6798V14.7396C190.537 14.4783 190.537 14.3477 190.211 14.3477H182.828C182.545 14.3477 182.415 14.4783 182.415 14.8267V28.6985C181.26 28.5678 180.455 28.5025 179.496 28.5025C167.585 28.5025 160.268 36.3639 160.268 46.1852C160.268 57.5744 167.781 63.2581 177.602 63.2581V63.2581ZM182.414 55.6798C181.195 56.0718 179.845 56.2243 178.473 56.2243C173.072 56.2243 168.652 53.1755 168.652 45.7714C168.652 39.2167 173.203 35.3404 179.235 35.3404C180.455 35.3404 181.522 35.4711 182.414 35.8195V55.6798Z" fill="#FA0C00"/>
<path d="M214.371 28.502C204.202 28.502 197.908 36.298 197.908 45.9233C197.908 54.5251 202.917 63.2576 214.219 63.2576C223.779 63.2576 230.486 56.2237 230.486 45.7055C230.486 36.4287 224.802 28.502 214.371 28.502ZM213.958 35.3398C219.707 35.3398 222.146 40.2831 222.146 45.9233C222.146 52.8919 218.553 56.3543 214.371 56.3543C209.21 56.3543 206.162 52.0208 206.162 45.7709C206.162 39.3467 209.406 35.3398 213.958 35.3398V35.3398Z" fill="#FA0C00"/>
<path d="M238.118 14.3477C237.835 14.3477 237.639 14.4783 237.639 14.8267V61.1676C237.639 61.3636 237.835 61.712 238.118 61.7773C241.362 62.779 244.76 63.2581 248.266 63.2581C258.305 63.2581 268.061 57.03 268.061 44.4866C268.061 35.4057 261.833 28.5025 252.077 28.5025C249.834 28.5025 247.743 28.8509 245.914 29.4607L245.827 14.8921C245.827 14.413 245.696 14.3477 245.217 14.3477H238.118ZM259.72 45.3141C259.72 52.8271 254.581 56.3549 249.028 56.3549C247.874 56.3549 246.85 56.2896 245.914 56.0065V36.2332C246.981 35.8195 248.266 35.4711 250.639 35.4711C255.996 35.4711 259.72 38.8682 259.72 45.3141Z" fill="#FA0C00"/>
<path d="M295.612 47.7526C298.922 47.7526 301.644 47.6872 302.58 47.4695C302.929 47.4041 303.06 47.2735 303.125 46.9904C303.321 46.25 303.408 44.7038 303.408 42.8092C303.408 36.3633 299.532 28.502 289.514 28.502C279.279 28.502 273.596 36.8424 273.596 46.25C273.596 54.5904 277.995 63.2576 290.32 63.2576C294.937 63.2576 297.92 62.5171 300.49 61.2977C300.751 61.167 300.882 60.9492 300.882 60.5573V54.9171C300.882 54.5904 300.686 54.5251 300.49 54.6558C297.92 55.7446 295.133 56.289 292.084 56.289C285.181 56.289 282.045 52.4781 281.849 47.7526H295.612ZM281.849 41.9164C282.393 38.6063 284.484 35.0132 289.166 35.0132C294.327 35.0132 295.677 39.3467 295.677 41.3067C295.677 41.372 295.677 41.6551 295.677 41.8511C295.394 41.9164 294.523 41.9164 291.953 41.9164H281.849Z" fill="#FA0C00"/>
</g>
<defs>
<clipPath id="clip0_346_1793">
<rect width="303.407" height="80" fill="white"/>
</clipPath>
</defs>
</svg>
