<svg width="349" height="80" viewBox="0 0 349 80" fill="none" xmlns="http://www.w3.org/2000/svg">
<g clip-path="url(#clip0_346_1794)">
<path d="M45.6381 29.4857H66.5905V66.5905H0V29.4857H20.9524V48H45.5619V29.4857H45.6381ZM116.495 48.4571C116.495 54.781 112.381 58.4381 106.667 58.4381C101.105 58.4381 96.9143 54.7048 96.9143 48.4571V18.5905H87.619V48.381C87.619 60.1143 96 67.581 106.743 67.581C117.562 67.581 125.867 60.1143 125.867 48.381V18.5905H116.571V48.4571H116.495ZM149.79 32.381C146.21 32.381 142.248 33.9048 140.19 37.4095V33.2952H131.505V66.5905H140.495V47.3905C140.495 43.5048 142.781 40.4571 146.743 40.4571C151.086 40.4571 152.914 43.3524 152.914 47.0857V66.5143H161.905V45.5619C161.829 38.2476 158.019 32.381 149.79 32.381ZM182.781 46.4C182.781 46.4 179.733 45.7905 177.829 45.4095C175.924 45.0286 174.781 44.0381 174.781 42.4381C174.781 40.5333 176.457 39.1619 178.819 39.1619C182.171 39.1619 183.467 40.8381 183.771 42.8952H191.543C191.467 38.3238 187.886 32.381 178.971 32.381C171.81 32.381 166.552 37.3333 166.552 43.2762C166.552 47.9238 169.448 51.8095 175.848 53.181L180.419 54.1714C183.01 54.7048 184 55.9238 184 57.4476C184 59.2 182.4 60.7238 179.429 60.7238C175.848 60.7238 173.867 58.6667 173.41 56.3048H165.41C165.867 61.2571 169.448 67.581 179.505 67.581C188.19 67.581 192.61 62.0191 192.61 56.6095C192.686 51.7333 189.333 47.7714 182.781 46.4ZM230.933 49.8286C230.933 59.8857 224.61 67.3524 215.238 67.3524C210.667 67.3524 207.238 65.5238 205.638 63.3143V79.3905H196.648V33.2952H205.333V37.4095C206.857 34.819 210.514 32.5333 215.543 32.5333C225.295 32.5333 230.933 40 230.933 49.8286ZM222.095 49.9048C222.095 44.0381 218.438 40.6095 213.867 40.6095C209.295 40.6095 205.562 44.0381 205.562 49.9048C205.562 55.7714 209.295 59.2762 213.867 59.2762C218.438 59.2762 222.095 55.8476 222.095 49.9048ZM273.905 33.2952H282.59V66.5905H273.6V62.4762C272.076 65.1429 268.571 67.3524 264 67.3524C254.629 67.3524 248.305 59.8857 248.305 49.8286C248.305 39.9238 253.943 32.5333 263.619 32.5333C268.648 32.5333 272.229 34.819 273.829 37.4095V33.2952H273.905ZM273.752 49.9048C273.752 44.0381 270.019 40.6095 265.448 40.6095C260.876 40.6095 257.219 44.0381 257.219 49.9048C257.219 55.8476 260.876 59.2762 265.448 59.2762C270.019 59.2762 273.752 55.7714 273.752 49.9048ZM235.124 66.5143H244.114V18.5905H235.124V66.5143ZM336 32.381C332.8 32.381 329.143 33.4476 327.01 36.0381V18.5905H318.019V66.5143H327.01V47.0095C327.238 43.3524 329.448 40.5333 333.257 40.5333C337.6 40.5333 339.429 43.4286 339.429 47.1619V66.5905H348.419V45.6381C348.343 38.2476 344.457 32.381 336 32.381ZM304 46.4C304 46.4 300.952 45.7905 299.048 45.4095C297.143 45.0286 296 44.0381 296 42.4381C296 40.5333 297.676 39.1619 300.038 39.1619C303.39 39.1619 304.686 40.8381 304.99 42.8952H312.762C312.686 38.3238 309.105 32.381 300.19 32.381C293.029 32.381 287.771 37.3333 287.771 43.2762C287.771 47.9238 290.667 51.8095 297.067 53.181L301.638 54.1714C304.229 54.7048 305.219 55.9238 305.219 57.4476C305.219 59.2 303.619 60.7238 300.648 60.7238C297.067 60.7238 295.086 58.6667 294.629 56.3048H286.629C287.086 61.2571 290.667 67.581 300.724 67.581C309.41 67.581 313.829 62.0191 313.829 56.6095C313.905 51.7333 310.552 47.7714 304 46.4ZM45.6381 0H20.9524V18.5905H45.5619V0H45.6381Z" fill="#858585"/>
</g>
<defs>
<clipPath id="clip0_346_1794">
<rect width="348.952" height="80" fill="white"/>
</clipPath>
</defs>
</svg>
