<svg width="312" height="70" viewBox="0 0 312 70" fill="none" xmlns="http://www.w3.org/2000/svg">
<g clip-path="url(#clip0_346_1795)">
<path fill-rule="evenodd" clip-rule="evenodd" d="M253.614 20.9912C254.805 23.0455 255.194 25.3827 255.323 28.0103L255.492 31.5125V56.0022L255.665 59.5081C256.01 65.2336 260.233 69.4671 266.002 69.8273L269.49 70V31.5125L269.662 28.0103C269.806 25.4121 270.192 23.0308 271.401 20.9618C272.633 18.8396 274.401 17.079 276.529 15.8565C278.657 14.6341 281.068 13.9929 283.522 13.9974C285.976 14.0018 288.386 14.6518 290.509 15.882C292.632 17.1122 294.394 18.8793 295.618 21.0059C296.809 23.0602 297.18 25.4415 297.324 28.0103L297.496 31.5015V56.0022L297.669 59.5081C298.029 65.263 302.219 69.4965 308.007 69.8273L311.494 70V28.0103C311.494 20.5854 308.545 13.4644 303.296 8.21313C298.047 2.96187 290.927 0.010283 283.502 0.0073597C279.528 0.00316869 275.599 0.847098 271.977 2.48277C268.355 4.11844 265.124 6.50818 262.5 9.49234C259.874 6.50936 256.643 4.12019 253.022 2.48403C249.4 0.847881 245.472 0.00231701 241.498 0.00368407C235.684 0.00368407 230.289 1.76765 225.821 4.81416C223.094 1.77132 216.993 0.00368407 213.491 0.00368407V70L216.993 69.8273C222.851 69.4414 227.085 65.3218 227.313 59.5081L227.5 56.0022V31.5125L227.673 28.0103C227.82 25.368 228.187 23.0455 229.382 20.9765C230.615 18.8557 232.382 17.0954 234.509 15.8715C236.635 14.6475 239.045 14.0027 241.498 14.0015C243.953 14.002 246.365 14.6481 248.491 15.8749C250.618 17.1017 252.385 18.8661 253.614 20.9912V20.9912ZM13.9978 69.831L17.5 70H69.9963L69.8236 66.5088C69.3495 60.7539 65.274 56.5498 59.5007 56.1749L55.9985 56.0022H24.5044L66.4941 13.9978L66.3214 10.5103C66.0494 4.69656 61.8012 0.496125 55.9985 0.176404L52.4963 0.0183835L0 0.00368407L0.172722 3.50589C0.632087 9.2057 4.76638 13.498 10.4919 13.8288L13.9978 14.0015H45.4919L3.5022 56.0059L3.67493 59.5081C4.02037 65.2777 8.18406 69.4561 13.9978 69.8273V69.831ZM199.751 10.2494C203.001 13.4992 205.58 17.3575 207.339 21.6039C209.098 25.8504 210.003 30.4018 210.003 34.9982C210.003 39.5946 209.098 44.146 207.339 48.3924C205.58 52.6389 203.001 56.4972 199.751 59.747C193.184 66.3087 184.28 69.9947 174.996 69.9947C165.713 69.9947 156.809 66.3087 150.242 59.747C136.575 46.0799 136.575 23.9164 150.242 10.2494C153.49 7.00066 157.345 4.42342 161.589 2.66483C165.832 0.906233 170.381 0.000725469 174.974 8.43689e-06C179.575 -0.00318591 184.132 0.900726 188.383 2.66004C192.634 4.41936 196.497 6.99956 199.751 10.2531V10.2494ZM189.847 20.1607C193.783 24.1003 195.995 29.4417 195.995 35.011C195.995 40.5804 193.783 45.9218 189.847 49.8614C185.907 53.798 180.566 56.0093 174.996 56.0093C169.427 56.0093 164.086 53.798 160.146 49.8614C156.209 45.9218 153.998 40.5804 153.998 35.011C153.998 29.4417 156.209 24.1003 160.146 20.1607C164.086 16.224 169.427 14.0127 174.996 14.0127C180.566 14.0127 185.907 16.224 189.847 20.1607V20.1607ZM101.52 8.43689e-06C106.114 0.0012081 110.662 0.907294 114.906 2.66652C119.149 4.42575 123.005 7.00367 126.252 10.2531C139.923 23.9164 139.923 46.0836 126.252 59.747C119.685 66.3087 110.781 69.9947 101.498 69.9947C92.2143 69.9947 83.3106 66.3087 76.7435 59.747C63.0764 46.0799 63.0764 23.9164 76.7435 10.2494C79.991 7.00066 83.8466 4.42342 88.0902 2.66483C92.3338 0.906233 96.8822 0.000725469 101.476 8.43689e-06H101.52ZM116.348 20.1533C120.286 24.0931 122.498 29.4353 122.498 35.0055C122.498 40.5757 120.286 45.918 116.348 49.8577C112.409 53.7944 107.067 56.0057 101.498 56.0057C95.9285 56.0057 90.587 53.7944 86.6474 49.8577C82.7108 45.9181 80.4995 40.5767 80.4995 35.0074C80.4995 29.438 82.7108 24.0966 86.6474 20.157C90.587 16.2204 95.9285 14.009 101.498 14.009C107.067 14.009 112.409 16.2204 116.348 20.157V20.1533Z" fill="#2D8CFF"/>
</g>
<defs>
<clipPath id="clip0_346_1795">
<rect width="311.494" height="70" fill="white"/>
</clipPath>
</defs>
</svg>
