<svg width="391" height="80" viewBox="0 0 391 80" fill="none" xmlns="http://www.w3.org/2000/svg">
<g clip-path="url(#clip0_346_1796)">
<path d="M146.369 21.5385L137.785 54.5231L129.2 21.5385H120.554L122.554 28.6154L115.015 55.6308L106.769 21.5385H98.4615L110.154 64.6154H119.262L126.277 41.5692L132.831 64.6154H141.908L154.215 21.5385H146.369ZM233.723 34.0308C231.845 33.5963 229.927 33.3591 228 33.3231C217.538 33.3231 211.815 40.3077 211.815 50.5538C211.815 60.7385 217.538 65.3846 224.277 65.3846C227.859 65.2677 231.31 64.0062 234.123 61.7846V64.6154H241.292V21.5385H233.723V34.0308ZM233.723 55.8154C231.262 58.0615 228.954 59.2923 226.523 59.2923C222.338 59.2923 219.662 56.5231 219.662 50.0308C219.662 43.0154 222.985 39.3538 228.769 39.3538C230.462 39.3538 232.154 39.6923 233.692 40.3077V55.8154H233.723ZM197.538 39.0769H197.262V34.0308H190.185V64.6154H197.785V46.4C200.154 41.9077 203.046 40.4308 207.877 40.4308H208.646V33.8462C207.962 33.7705 207.274 33.7295 206.585 33.7231C202.462 33.7231 199.631 35.3231 197.538 39.1077V39.0769ZM168.677 33.2615C158.215 33.2615 153.292 40.0308 153.292 49.3538C153.292 58.6462 158.215 65.3538 168.677 65.3538C179.138 65.3538 184.123 58.6462 184.123 49.3538C184.123 40.0308 179.077 33.2615 168.646 33.2615H168.677ZM168.677 59.2308C163.754 59.2308 161.108 56.0308 161.108 49.3538C161.108 42.6462 163.754 39.4462 168.708 39.4462C173.631 39.4462 176.215 42.6462 176.215 49.3538C176.215 56.0308 173.6 59.2308 168.646 59.2308H168.677ZM292.708 39.0462H292.462V34.0308H285.354V64.6154H292.923V46.4C295.292 41.9077 298.185 40.4308 303.015 40.4308H303.785V33.8462C303.1 33.7705 302.412 33.7295 301.723 33.7231C297.631 33.7231 294.8 35.3231 292.677 39.1077H292.708V39.0462ZM264.769 21.5385H250.677V64.6154H258.8V49.6308H264.738C273.938 49.6308 280.615 44.6769 280.615 35.4154C280.615 26.1846 273.938 21.5385 264.738 21.5385H264.769ZM264.831 43.3231H258.8V27.9077H264.8C269.723 27.9077 272.123 30.6154 272.123 35.4154C272.123 40.2462 269.877 43.3231 264.8 43.3231H264.831ZM375.662 42.6154C375.662 40.3077 378.185 39.4154 380.892 39.4154C383.754 39.4462 386.615 39.9077 389.354 40.7385V34.4615C386.403 33.6277 383.345 33.2338 380.277 33.2923C372.954 33.2923 367.815 36.7692 367.815 42.4308C367.815 53.4154 382.954 50.5846 382.954 55.9385C382.954 58.5538 380.585 59.2615 377.108 59.2615C374.646 59.2615 370.738 58.3385 367.908 57.3231V63.5692C370.748 64.7046 373.772 65.3197 376.831 65.3846C383.969 65.3846 390.769 63.2615 390.769 55.6308C390.862 45.0154 375.692 47.7538 375.692 42.6154H375.662ZM321.815 33.2923C312.031 33.2923 306.954 40.8923 306.954 49.1692C306.954 60.5538 312.923 65.3846 322.646 65.3846C326.458 65.3926 330.249 64.8009 333.877 63.6308V57.3231C330.708 58.4923 327.815 59.2 324.738 59.2C319.077 59.2 315.292 57.6615 315.108 50.9846H334.677C334.862 49.4769 334.954 47.9692 334.923 46.4923C334.923 40.0308 331.508 33.2923 321.785 33.2923H321.815ZM315.169 45.9692C315.631 41.7231 317.938 39.0154 321.723 39.0154C325.785 39.0154 327.015 42.2462 327.015 45.9692H315.169ZM348.092 42.6154C348.092 40.3077 350.585 39.4154 353.292 39.4154C356.154 39.4462 359.015 39.9077 361.754 40.7385V34.4615C358.812 33.6308 355.763 33.2369 352.708 33.2923C345.385 33.2923 340.215 36.7692 340.215 42.4308C340.215 53.4154 355.385 50.5846 355.385 55.9385C355.385 58.5538 352.985 59.2615 349.538 59.2615C347.077 59.2615 343.169 58.3385 340.308 57.3231V63.5692C343.148 64.7052 346.172 65.3203 349.231 65.3846C356.369 65.3846 363.2 63.2615 363.2 55.6308C363.262 45.0154 348.092 47.7538 348.092 42.6154ZM5.29231 40C5.29231 53.7538 13.2923 65.6 24.8615 71.2308L8.30769 25.8769C6.31994 30.32 5.2924 35.1326 5.29231 40ZM40 74.7077C44.0308 74.7077 47.9077 74 51.5385 72.7385L51.2923 72.2769L40.6154 43.0462L30.2154 73.2923C33.2923 74.2154 36.5846 74.7077 40 74.7077ZM44.7692 23.7231L57.3231 61.0462L60.8 49.4769C62.2769 44.6769 63.4154 41.2308 63.4154 38.2462C63.4154 33.9385 61.8769 30.9846 60.5846 28.7077C58.8 25.8154 57.1692 23.3846 57.1692 20.5538C57.1692 17.3538 59.5692 14.4 63.0154 14.4H63.4462C57.0508 8.52895 48.6815 5.27785 40 5.29231C34.2517 5.29123 28.5934 6.71917 23.5339 9.4476C18.4744 12.1761 14.1726 16.1195 11.0154 20.9231L13.2308 20.9846C16.8615 20.9846 22.4615 20.5231 22.4615 20.5231C24.3692 20.4308 24.5846 23.1692 22.7077 23.3846C22.7077 23.3846 20.8308 23.6308 18.7077 23.7231L31.3846 61.3231L38.9846 38.5538L33.5692 23.7231C32.3563 23.6562 31.1455 23.5535 29.9385 23.4154C28.0615 23.2923 28.2769 20.4308 30.1538 20.5231C30.1538 20.5231 35.8769 20.9846 39.2923 20.9846C42.9231 20.9846 48.5231 20.5231 48.5231 20.5231C50.4 20.4308 50.6462 23.1692 48.7692 23.3846C48.7692 23.3846 46.8923 23.6 44.7692 23.7231ZM57.4462 70C62.6966 66.9471 67.0542 62.5695 70.0834 57.3052C73.1123 52.0409 74.7071 46.0735 74.7077 40C74.7077 33.9692 73.1692 28.3077 70.4615 23.3538C71.0114 28.8039 70.1862 34.3049 68.0615 39.3538L57.4462 70ZM40 80C29.3914 80 19.2172 75.7858 11.7157 68.2843C4.21428 60.7828 0 50.6086 0 40C0 29.3914 4.21428 19.2172 11.7157 11.7157C19.2172 4.21428 29.3914 0 40 0C50.6086 0 60.7828 4.21428 68.2843 11.7157C75.7858 19.2172 80 29.3914 80 40C80 50.6086 75.7858 60.7828 68.2843 68.2843C60.7828 75.7858 50.6086 80 40 80Z" fill="#163B54"/>
</g>
<defs>
<clipPath id="clip0_346_1796">
<rect width="390.769" height="80" fill="white"/>
</clipPath>
</defs>
</svg>
