<svg width="232" height="80" viewBox="0 0 232 80" fill="none" xmlns="http://www.w3.org/2000/svg">
<g clip-path="url(#clip0_346_1797)">
<path d="M4.81333 3.45121L49.08 0.18187C54.5173 -0.284797 55.9147 0.0298699 59.3333 2.5152L73.464 12.4699C75.7947 14.1819 76.5707 14.6485 76.5707 16.5125V71.1073C76.5707 74.5287 75.328 76.5527 70.9787 76.862L19.5733 79.974C16.3093 80.1287 14.7547 79.662 13.0453 77.4833L2.64 63.9527C0.773333 61.462 0 59.598 0 57.4193V8.89121C0 6.09388 1.24267 3.76054 4.81333 3.45121Z" fill="white"/>
<path fill-rule="evenodd" clip-rule="evenodd" d="M49.08 0.18187L4.81333 3.45121C1.24267 3.76054 0 6.09388 0 8.89121V57.4193C0 59.598 0.773333 61.462 2.64 63.9527L13.0453 77.4833C14.7547 79.662 16.3093 80.1287 19.5733 79.974L70.9787 76.862C75.3253 76.5527 76.5707 74.5287 76.5707 71.1073V16.5125C76.5707 14.7445 75.872 14.2352 73.816 12.7259C73.6976 12.6407 73.5795 12.5553 73.4613 12.4699L59.3333 2.5152C55.9147 0.0298699 54.5173 -0.284797 49.08 0.18187ZM20.736 15.6192C16.5387 15.9019 15.5867 15.9659 13.2027 14.0272L7.14133 9.20588C6.52533 8.58188 6.83467 7.80321 8.38667 7.64854L50.9413 4.53921C54.5147 4.22721 56.376 5.47254 57.7733 6.56054L65.072 11.8485C65.384 12.0059 66.16 12.9365 65.2267 12.9365L21.28 15.5819L20.736 15.6192ZM15.8427 70.6407V24.2939C15.8427 22.2699 16.464 21.3365 18.3253 21.1792L68.8 18.2245C70.512 18.0699 71.2853 19.1579 71.2853 21.1792V67.2167C71.2853 69.2407 70.9733 70.9527 68.1787 71.1073L19.8773 73.9073C17.0827 74.062 15.8427 73.1313 15.8427 70.6407ZM63.5227 26.7793C63.832 28.1793 63.5227 29.5793 62.1227 29.7393L59.7947 30.2007V64.4193C57.7733 65.5073 55.912 66.1287 54.3573 66.1287C51.872 66.1287 51.2507 65.35 49.3893 63.0193L34.1653 39.0673V62.2407L38.9813 63.3313C38.9813 63.3313 38.9813 66.1313 35.096 66.1313L24.384 66.7527C24.072 66.1287 24.384 64.574 25.4693 64.2647L28.2667 63.4887V32.8487L24.384 32.534C24.072 31.134 24.848 29.1127 27.024 28.9553L38.5173 28.182L54.3573 52.4433V30.9793L50.32 30.5153C50.008 28.8007 51.2507 27.5553 52.8027 27.4033L63.5227 26.7793Z" fill="black"/>
<path d="M110.49 56.6706V35.5773H110.856L126.066 56.6706H130.856V25.6734H125.53V46.7453H125.165L109.954 25.6734H105.146V56.668H110.493L110.49 56.6706ZM145.906 57.1453C152.933 57.1453 157.208 52.548 157.208 44.9213C157.208 37.316 152.912 32.6973 145.906 32.6973C138.925 32.6973 134.608 37.3373 134.608 44.9213C134.608 52.548 138.861 57.1453 145.906 57.1453ZM145.906 52.676C142.192 52.676 140.066 49.8413 140.066 44.9213C140.066 40.0226 142.192 37.1666 145.906 37.1666C149.602 37.1666 151.728 40.0226 151.728 44.9213C151.728 49.8413 149.624 52.676 145.906 52.676ZM162.074 27.4146V33.3213H158.36V37.5746H162.074V50.3986C162.074 54.9533 164.224 56.78 169.616 56.78C170.645 56.78 171.634 56.6733 172.408 56.5213V52.3533C171.762 52.4173 171.354 52.46 170.602 52.46C168.37 52.46 167.381 51.4306 167.381 49.1106V37.5746H172.408V33.3213H167.381V27.412H162.074V27.4146ZM175.6 56.6706H180.906V33.1693H175.6V56.6706ZM178.242 29.284C180.002 29.284 181.421 27.8626 181.421 26.0814C181.421 24.2974 180.005 22.8574 178.242 22.8574C176.504 22.8574 175.064 24.2974 175.064 26.0814C175.064 27.8626 176.504 29.2813 178.242 29.2813V29.284ZM195.464 57.1453C202.488 57.1453 206.762 52.548 206.762 44.9213C206.762 37.316 202.466 32.6973 195.464 32.6973C188.48 32.6973 184.162 37.3373 184.162 44.9213C184.162 52.548 188.416 57.1453 195.464 57.1453ZM195.464 52.676C191.746 52.676 189.618 49.8413 189.618 44.9213C189.618 40.0226 191.746 37.1666 195.464 37.1666C199.157 37.1666 201.285 40.0226 201.285 44.9213C201.285 49.8413 199.178 52.676 195.464 52.676ZM209.933 56.6706H215.261V42.988C215.261 39.5293 217.261 37.3373 220.437 37.3373C223.682 37.3373 225.184 39.1427 225.184 42.7293V56.6706H230.514V41.4626C230.514 35.8546 227.656 32.6973 222.416 32.6973C218.912 32.6973 216.549 34.308 215.432 36.9293H215.066V33.1693H209.933V56.6706Z" fill="#C0C0C0"/>
</g>
<defs>
<clipPath id="clip0_346_1797">
<rect width="232" height="80" fill="white"/>
</clipPath>
</defs>
</svg>
