<svg width="90" height="90" viewBox="0 0 90 90" fill="none" xmlns="http://www.w3.org/2000/svg">
<path d="M0 43.2C0 22.8375 0 12.6375 6.3375 6.3375C12.6375 0 22.8375 0 43.2 0H46.8C67.1625 0 77.3625 0 83.6625 6.3375C90 12.6375 90 22.8375 90 43.2V46.8C90 67.1625 90 77.3625 83.6625 83.6625C77.3625 90 67.1625 90 46.8 90H43.2C22.8375 90 12.6375 90 6.3375 83.6625C0 77.3625 0 67.1625 0 46.8V43.2Z" fill="#2787F5"/>
<path d="M47.8875 64.8375C27.375 64.8375 15.675 50.775 15.1875 27.375H25.4625C25.8 44.55 33.375 51.825 39.375 53.325V27.375H49.05V42.1875C54.975 41.55 61.2 34.8 63.3 27.375H72.975C72.1837 31.2258 70.6063 34.8719 68.3414 38.0853C66.0766 41.2986 63.1731 44.01 59.8125 46.05C63.5637 47.914 66.877 50.5522 69.5337 53.7907C72.1905 57.0292 74.1302 60.7943 75.225 64.8375H64.575C63.5922 61.3257 61.5948 58.182 58.8331 55.8005C56.0714 53.419 52.6682 51.9056 49.05 51.45V64.8375H47.8875V64.8375Z" fill="white"/>
</svg>
