<svg width="263" height="80" viewBox="0 0 263 80" fill="none" xmlns="http://www.w3.org/2000/svg">
<path d="M138.842 36.3139H135.075C134.93 35.509 134.661 34.8007 134.266 34.1889C133.872 33.5772 133.389 33.058 132.817 32.6314C132.246 32.2048 131.606 31.8828 130.898 31.6655C130.197 31.4482 129.453 31.3395 128.664 31.3395C127.239 31.3395 125.963 31.6977 124.836 32.4141C123.718 33.1304 122.832 34.1809 122.18 35.5653C121.536 36.9498 121.214 38.6402 121.214 40.6364C121.214 42.6487 121.536 44.3471 122.18 45.7315C122.832 47.116 123.722 48.1624 124.849 48.8707C125.975 49.5791 127.243 49.9332 128.652 49.9332C129.433 49.9332 130.173 49.8286 130.873 49.6193C131.582 49.402 132.222 49.084 132.793 48.6655C133.365 48.2469 133.848 47.7358 134.242 47.1321C134.644 46.5204 134.922 45.8201 135.075 45.0312L138.842 45.0433C138.641 46.2588 138.251 47.3776 137.671 48.3999C137.099 49.4141 136.363 50.2914 135.461 51.032C134.568 51.7644 133.546 52.3319 132.395 52.7344C131.244 53.1368 129.988 53.3381 128.628 53.3381C126.487 53.3381 124.579 52.831 122.905 51.8168C121.23 50.7945 119.91 49.3336 118.944 47.4339C117.987 45.5343 117.508 43.2685 117.508 40.6364C117.508 37.9962 117.991 35.7303 118.956 33.8388C119.922 31.9392 121.242 30.4822 122.917 29.468C124.591 28.4458 126.495 27.9347 128.628 27.9347C129.94 27.9347 131.163 28.1238 132.298 28.5021C133.441 28.8724 134.467 29.4197 135.377 30.1442C136.287 30.8606 137.039 31.7379 137.635 32.7763C138.23 33.8066 138.633 34.9858 138.842 36.3139ZM146.627 41.9886V53H143.017V28.2727H146.578V37.473H146.808C147.243 36.4749 147.907 35.6821 148.8 35.0945C149.694 34.5069 150.861 34.2131 152.301 34.2131C153.573 34.2131 154.684 34.4747 155.634 34.9979C156.592 35.5211 157.332 36.3018 157.855 37.3402C158.387 38.3705 158.652 39.6584 158.652 41.2038V53H155.042V41.6385C155.042 40.2782 154.692 39.2237 153.992 38.4751C153.292 37.7185 152.318 37.3402 151.07 37.3402C150.217 37.3402 149.452 37.5213 148.776 37.8835C148.108 38.2457 147.581 38.777 147.194 39.4773C146.816 40.1695 146.627 41.0066 146.627 41.9886ZM168.867 53.4105C167.692 53.4105 166.629 53.1932 165.679 52.7585C164.73 52.3158 163.977 51.6759 163.422 50.8388C162.874 50.0017 162.6 48.9754 162.6 47.7599C162.6 46.7135 162.802 45.8523 163.204 45.1761C163.607 44.5 164.15 43.9647 164.834 43.5703C165.518 43.1759 166.283 42.8781 167.128 42.6768C167.973 42.4756 168.835 42.3227 169.712 42.218C170.823 42.0893 171.724 41.9846 172.417 41.9041C173.109 41.8156 173.612 41.6747 173.926 41.4815C174.24 41.2884 174.397 40.9744 174.397 40.5398V40.4553C174.397 39.4008 174.099 38.5838 173.503 38.0043C172.916 37.4247 172.038 37.1349 170.871 37.1349C169.656 37.1349 168.698 37.4046 167.998 37.9439C167.305 38.4751 166.826 39.0668 166.561 39.7188L163.168 38.946C163.57 37.8191 164.158 36.9096 164.931 36.2173C165.712 35.517 166.609 35.0099 167.623 34.696C168.637 34.3741 169.704 34.2131 170.823 34.2131C171.563 34.2131 172.348 34.3016 173.177 34.4787C174.014 34.6477 174.795 34.9616 175.52 35.4205C176.252 35.8793 176.852 36.5353 177.319 37.3885C177.785 38.2337 178.019 39.3324 178.019 40.6847V53H174.493V50.4645H174.348C174.115 50.9313 173.765 51.3902 173.298 51.8409C172.831 52.2917 172.231 52.666 171.499 52.9638C170.766 53.2616 169.889 53.4105 168.867 53.4105ZM169.652 50.5128C170.65 50.5128 171.503 50.3156 172.211 49.9212C172.928 49.5268 173.471 49.0116 173.841 48.3757C174.22 47.7318 174.409 47.0436 174.409 46.3111V43.9205C174.28 44.0492 174.03 44.17 173.66 44.2827C173.298 44.3873 172.883 44.4799 172.417 44.5604C171.95 44.6328 171.495 44.7012 171.052 44.7656C170.609 44.822 170.239 44.8703 169.941 44.9105C169.241 44.9991 168.601 45.148 168.022 45.3572C167.45 45.5665 166.991 45.8684 166.645 46.2628C166.307 46.6491 166.138 47.1643 166.138 47.8082C166.138 48.7017 166.468 49.3778 167.128 49.8366C167.788 50.2874 168.629 50.5128 169.652 50.5128ZM191.484 34.4545V37.3523H181.354V34.4545H191.484ZM184.071 30.0114H187.681V47.5547C187.681 48.255 187.786 48.7822 187.995 49.1364C188.204 49.4825 188.474 49.7199 188.804 49.8487C189.142 49.9695 189.508 50.0298 189.903 50.0298C190.192 50.0298 190.446 50.0097 190.663 49.9695C190.881 49.9292 191.05 49.897 191.17 49.8729L191.822 52.8551C191.613 52.9356 191.315 53.0161 190.929 53.0966C190.542 53.1851 190.059 53.2334 189.48 53.2415C188.53 53.2576 187.645 53.0885 186.824 52.7344C186.003 52.3802 185.339 51.8329 184.831 51.0923C184.324 50.3518 184.071 49.4221 184.071 48.3033V30.0114ZM212.502 36.0845C212.268 35.352 211.954 34.696 211.56 34.1165C211.174 33.5289 210.711 33.0298 210.172 32.6193C209.632 32.2008 209.016 31.8828 208.324 31.6655C207.64 31.4482 206.887 31.3395 206.066 31.3395C204.674 31.3395 203.418 31.6977 202.299 32.4141C201.181 33.1304 200.295 34.1809 199.643 35.5653C198.999 36.9418 198.677 38.6281 198.677 40.6243C198.677 42.6286 199.003 44.3229 199.655 45.7074C200.307 47.0919 201.201 48.1423 202.336 48.8587C203.471 49.575 204.762 49.9332 206.211 49.9332C207.556 49.9332 208.727 49.6596 209.725 49.1122C210.731 48.5649 211.508 47.7921 212.055 46.794C212.61 45.7879 212.888 44.6046 212.888 43.2443L213.854 43.4254H206.779V40.3466H216.498V43.1598C216.498 45.2365 216.056 47.0395 215.17 48.5689C214.293 50.0902 213.077 51.2654 211.524 52.0945C209.978 52.9235 208.208 53.3381 206.211 53.3381C203.974 53.3381 202.01 52.8229 200.319 51.7926C198.637 50.7623 197.325 49.3014 196.383 47.4098C195.441 45.5102 194.971 43.2564 194.971 40.6484C194.971 38.6764 195.244 36.9055 195.792 35.3359C196.339 33.7663 197.108 32.4342 198.098 31.3395C199.096 30.2367 200.267 29.3956 201.611 28.8161C202.963 28.2285 204.44 27.9347 206.042 27.9347C207.378 27.9347 208.622 28.1319 209.773 28.5263C210.932 28.9207 211.962 29.4801 212.864 30.2045C213.774 30.929 214.526 31.7902 215.122 32.7884C215.717 33.7784 216.12 34.8771 216.329 36.0845H212.502ZM221.234 53V28.2727H230.048C231.972 28.2727 233.566 28.6229 234.829 29.3232C236.093 30.0234 237.039 30.9813 237.667 32.1967C238.295 33.4041 238.608 34.7644 238.608 36.2777C238.608 37.799 238.291 39.1674 237.655 40.3828C237.027 41.5902 236.077 42.5481 234.805 43.2564C233.541 43.9567 231.952 44.3068 230.036 44.3068H223.975V41.1435H229.698C230.913 41.1435 231.899 40.9342 232.656 40.5156C233.413 40.089 233.968 39.5095 234.322 38.777C234.676 38.0445 234.854 37.2114 234.854 36.2777C234.854 35.344 234.676 34.5149 234.322 33.7905C233.968 33.0661 233.409 32.4986 232.644 32.0881C231.887 31.6776 230.889 31.4723 229.65 31.4723H224.965V53H221.234ZM241.763 31.4844V28.2727H260.9V31.4844H253.185V53H249.466V31.4844H241.763Z" fill="white"/>
<path fill-rule="evenodd" clip-rule="evenodd" d="M28.2517 0.864293C23.292 2.77457 19.6956 6.11829 17.1622 11.1742L15.9741 13.5452L14.1258 14.1318C8.42691 15.941 3.95364 20.0313 1.59027 25.595C-0.280944 29.999 -0.524119 35.8875 0.984573 40.2576C1.72651 42.4072 3.24972 45.249 4.50072 46.8183C5.01954 47.4692 5.02271 47.5427 4.60765 49.3308C4.00143 51.9401 4.05899 56.1727 4.7365 58.8423C6.19925 64.6064 10.32 69.6639 15.71 72.3108C19.4535 74.1491 23.5915 74.8912 27.1879 74.3691L28.8962 74.1211L30.4252 75.4736C32.2209 77.0623 34.6128 78.565 36.678 79.402C38.0613 79.9627 38.5305 80 44.2257 80C50.1984 80 50.3257 79.9884 51.9564 79.3005C57.0047 77.1699 61.3417 72.9674 63.1525 68.4521C63.8707 66.6608 63.9694 66.572 65.8765 66.0031C68.1317 65.3306 70.6833 63.9326 72.7047 62.2624C75.6941 59.7925 77.7578 56.7252 79.0983 52.7594C80.1288 49.7106 80.2965 45.0199 79.4954 41.6622C78.8256 38.8562 77.5194 36.0181 76.0273 34.1274L74.9493 32.7612L75.3984 30.9913C76.0463 28.4392 75.9867 24.0148 75.2682 21.2873C74.2792 17.5342 72.8325 15.0331 69.9788 12.1427C67.1576 9.2848 64.9065 7.81434 61.7299 6.75407C59.1988 5.90935 55.7738 5.54332 53.154 5.83742L51.1595 6.06169L49.673 4.77821C47.7218 3.09379 45.7075 1.84072 43.4336 0.896823C41.6176 0.142815 41.489 0.128533 36.0407 0.0647955L30.4959 0L28.2517 0.864293ZM39.4731 5.56898C41.695 6.12992 45.3843 8.07696 44.9706 8.4705C44.8512 8.58369 41.1893 10.718 36.8328 13.2133C32.4762 15.7083 28.5851 18.0623 28.1856 18.444L27.4596 19.1382L27.4334 28.6759C27.4189 33.9216 27.3299 39.1897 27.2354 40.3827L27.0635 42.5519L23.9688 40.7794L20.8743 39.0069L20.8664 28.4175C20.8579 16.7955 20.9255 16.1447 22.4616 13.0731C24.2383 9.51992 28.353 6.35922 32.2122 5.58379C33.0109 5.42325 33.902 5.23786 34.1924 5.17174C34.9328 5.00327 38.2084 5.24976 39.4731 5.56898ZM58.8551 11.7769C61.3777 12.3725 63.5145 13.6367 65.8087 15.8905C68.0213 18.0642 69.3549 20.4299 69.9392 23.2177C70.2825 24.8553 70.3334 28.5603 70.0126 28.5603C69.8223 28.5603 60.3054 23.1235 54.7913 19.8647C53.7772 19.2652 52.6537 18.7748 52.2951 18.7748C51.9366 18.7748 50.0337 19.714 48.0664 20.8618C46.0993 22.0096 41.8164 24.4684 38.549 26.3258C35.2816 28.1831 32.3376 29.8779 32.007 30.0924L31.4055 30.4819L31.4789 26.5736L31.5521 22.6652L38.0209 18.96C48.14 13.1635 49.9323 12.2096 51.4867 11.7933C53.388 11.2842 56.7362 11.2765 58.8551 11.7769ZM15.314 29.8237C15.314 38.2159 15.3766 39.9043 15.7047 40.3737C15.9197 40.681 18.2067 42.1279 20.7874 43.5891C25.4122 46.2079 34.6088 51.5669 35.3806 52.093C35.7325 52.3328 35.7325 52.3934 35.3806 52.6388C34.2096 53.4553 29.659 56.0545 29.392 56.0595C29.2204 56.0627 27.6164 55.1981 25.8276 54.1381C24.0385 53.0781 20.0798 50.7944 17.0302 49.0632C10.616 45.4214 8.87233 43.9179 7.26172 40.639C4.25701 34.5225 5.29757 27.9459 10.0106 23.265C11.7009 21.5862 14.2367 19.8864 15.116 19.8425C15.225 19.8372 15.314 24.3287 15.314 29.8237ZM52.9613 25.3287C54.1106 26.024 58.073 28.3149 61.7666 30.4198C69.0605 34.5762 70.6983 35.8589 72.3066 38.6745C74.1461 41.8952 74.8614 45.857 74.2129 49.2369C73.7498 51.6526 72.0732 54.9651 70.3963 56.7781C69.0687 58.2134 66.0445 60.2969 65.2885 60.2969C65.0227 60.2969 64.9524 58.2795 64.9524 50.6304C64.9524 42.6519 64.8848 40.8331 64.5651 40.214C64.2981 39.6969 63.2095 38.9112 61.0666 37.6883C54.206 33.7738 44.358 27.9393 44.3617 27.7915C44.367 27.5926 50.1998 24.1225 50.585 24.0891C50.7426 24.0754 51.812 24.6331 52.9613 25.3287ZM45.7439 33.4043L48.5823 35.0155V40.0857V45.1556L44.3451 47.5769C42.0147 48.9085 40.0244 49.9563 39.9225 49.905C39.8206 49.8537 37.8657 48.7561 35.5786 47.4658L31.4201 45.1194L31.4206 40.0796L31.4211 35.0398L35.7112 32.6078L40.0012 30.1757L41.4534 30.9844C42.2521 31.429 44.183 32.5181 45.7439 33.4043ZM56.8334 39.9159L59.1437 41.2753V51.8719C59.1437 60.6811 59.0732 62.7427 58.7254 64.0936C57.423 69.1538 52.9576 73.4742 47.763 74.7008C43.6192 75.6791 38.9582 74.7989 35.5588 72.3964L34.8129 71.8693L36.0869 71.1272C36.7876 70.7192 40.5689 68.5423 44.4898 66.2898C48.5076 63.9818 51.8492 61.8874 52.1468 61.491C52.6532 60.8163 52.678 60.3133 52.7514 49.155L52.828 37.5222L53.6755 38.0392C54.1415 38.3238 55.5628 39.1682 56.8334 39.9159ZM48.5765 53.7512L48.5704 57.5199L43.8899 60.1427C41.3153 61.5851 37.6051 63.721 35.6446 64.8886C30.2905 68.0774 28.9994 68.5611 25.4574 68.7047C20.6741 68.8983 17.6232 67.6939 14.1873 64.2555C11.1055 61.1715 9.76926 57.9219 9.76926 53.5116C9.76926 52.0194 9.85296 51.5458 10.0993 51.6428C10.2807 51.7142 13.578 53.5878 17.4263 55.8061C21.2746 58.0245 25.0172 60.1781 25.7433 60.5923C26.4694 61.0065 27.3991 61.3474 27.8091 61.35C28.2781 61.3529 30.1384 60.431 32.8258 58.8637C40.6127 54.3222 48.1833 50.0065 48.3843 49.9944C48.4931 49.9878 48.5797 51.6783 48.5765 53.7512Z" fill="#F7F7F8"/>
</svg>
