<svg width="279" height="455" viewBox="0 0 279 455" fill="none" xmlns="http://www.w3.org/2000/svg">
<g filter="url(#filter0_d_530_206)">
<rect x="137.789" y="396.746" width="99.8496" height="40.7001" rx="12" transform="rotate(160 137.789 396.746)" fill="white"/>
</g>
<g filter="url(#filter1_d_530_206)">
<rect x="174.206" y="406.3" width="99.8496" height="40.7001" rx="12" fill="white"/>
</g>
<path fill-rule="evenodd" clip-rule="evenodd" d="M120.495 88.2375C115.057 92.4861 109.499 94.8988 106.706 94.5354C99.702 93.6243 96.0373 68.9379 100.092 58.5306C104.147 48.1232 130.63 40.5522 134.367 59.7273C135.663 66.3824 133.572 72.7206 129.995 78.1221L141.758 112.009L120.001 114.68L120.495 88.2375Z" fill="white"/>
<path fill-rule="evenodd" clip-rule="evenodd" d="M111.112 45.7569C113.922 44.936 121.603 43.6657 123.027 43.491C123.937 43.3793 124.948 43.4655 125.385 42.5663C125.743 41.83 125.439 40.6962 125.474 39.8885C125.514 38.9501 125.62 38.0157 125.728 37.0834C126.037 34.4302 126.682 31.863 127.722 29.3992C129.674 24.7769 132.896 20.9485 137.245 18.4169C142.048 15.6215 147.724 14.4195 153.232 14.1907C159.125 13.9456 164.644 15.2177 170.376 16.3487C175.838 17.4263 181.421 17.429 186.809 15.9136C192.238 14.3869 196.052 10.8837 200.37 7.47292C204.791 3.98111 210.018 1.41062 215.72 1.1539C221.042 0.914404 226.168 2.48816 230.884 4.85221C235.296 7.06407 239.062 9.91453 241.526 14.2747C244.177 18.9648 244.841 24.3888 242.016 29.1683C237.921 36.0963 229.076 38.8438 221.531 39.6051C217.166 40.0457 212.794 39.7784 208.508 38.842C202.791 37.593 197.655 34.917 192.203 32.9036C189.645 31.9588 187.032 31.2456 184.335 30.8319C181.718 30.4303 179.186 30.4095 177.083 32.2144C174.858 34.1238 172.881 35.9738 170.233 37.3232C167.692 38.6177 164.942 39.505 162.106 39.8311C156.588 40.4655 150.944 39.4203 145.449 38.9307C140.969 38.5316 136.183 38.1731 131.842 39.6186C130.031 40.2218 127.413 41.3294 126.978 43.3362C138.52 43.9901 144.663 57.367 142.735 67.9774C141.694 73.7043 132.16 81.4202 127.788 79.0134C125.019 77.4887 126.267 74.8873 127.071 73.1724C128.611 69.8885 128.785 65.8915 124.983 64.2036C121.703 62.7479 119.025 67.49 118.963 67.4926C118.116 67.5298 110.359 64.3299 104.627 58.9744C99.732 59.8713 98.5859 56.7215 99.4378 53.9259C100.29 51.1303 107.229 46.8916 111.112 45.7569Z" fill="white" stroke="black"/>
<path fill-rule="evenodd" clip-rule="evenodd" d="M167.469 188.662C165.822 211.072 59.7269 277.049 59.1079 278.901C58.6952 280.135 92.1315 356.924 92.1315 356.924L82.8571 360.517C82.8571 360.517 31.5716 279.192 34.2058 270.526C37.9772 258.12 116.524 188.9 116.524 188.9L167.469 188.662Z" fill="white"/>
<path fill-rule="evenodd" clip-rule="evenodd" d="M89.6916 345.362L74.5497 350.858C42.6209 314.941 30.1057 285.306 32.3877 270.207C34.6697 255.107 114.422 188.717 114.422 188.717L168.556 188.717C166.709 240.615 68.3715 279.098 67.0562 281.31C65.7409 283.521 78.6851 305.181 89.6916 345.362Z" fill="white" stroke="black"/>
<path fill-rule="evenodd" clip-rule="evenodd" d="M92.6806 355.193C93.5298 354.39 94.8886 354.403 95.6382 355.301C96.8812 356.792 98.5652 358.966 99.0784 360.372C99.9234 362.686 100.771 367.408 100.771 367.408C98.0778 368.385 52.3625 384.974 52.3625 384.974C52.3625 384.974 48.2051 379.439 52.0895 377.468C55.9739 375.497 58.517 374.121 58.517 374.121L77.3026 356.018C77.7075 355.627 78.3555 355.648 78.7358 356.063L81.3984 358.97C81.3984 358.97 85.8011 359.355 88.1541 358.501C89.5375 357.999 91.3893 356.414 92.6806 355.193Z" fill="white" stroke="black"/>
<path fill-rule="evenodd" clip-rule="evenodd" d="M155.271 188.662L202.533 301.785L248.985 397.421H238.026L118.121 188.662H155.271Z" fill="white"/>
<path fill-rule="evenodd" clip-rule="evenodd" d="M246.94 392.062C248.013 391.597 249.284 392.072 249.68 393.172C250.337 394.996 251.174 397.614 251.174 399.11C251.174 401.573 250.351 406.299 250.351 406.299C247.485 406.299 198.835 406.299 198.835 406.299C198.835 406.299 196.827 399.68 201.154 399.152C205.48 398.625 208.342 398.199 208.342 398.199L232.206 387.593C232.72 387.364 233.321 387.605 233.536 388.124L235.041 391.764C235.041 391.764 239.046 393.627 241.55 393.627C243.023 393.627 245.307 392.769 246.94 392.062Z" fill="white" stroke="black"/>
<path fill-rule="evenodd" clip-rule="evenodd" d="M244.791 377.554L220.439 382.107C201.61 354.508 122.81 241.343 114.17 188.662H168.383C197.236 226.745 226.843 349.498 244.791 377.554Z" fill="white" stroke="black"/>
<path fill-rule="evenodd" clip-rule="evenodd" d="M37.1682 161.279L71.7827 171.628L62.9389 186.313L36.0282 170.528C23.4638 169.787 17.5276 168.553 18.2196 166.828C18.8031 165.373 20.1907 165.125 21.4688 164.896C22.4644 164.718 23.3936 164.551 23.8245 163.836C24.8086 162.202 21.3627 157.951 17.9196 154.056C14.4765 150.161 17.2331 149.979 18.8979 150.29C24.6219 152.606 30.712 156.269 37.1682 161.279ZM186.946 165.239L205.072 159.283C221.735 190.843 231.474 208.063 234.288 210.943C236.351 213.056 248.048 217.712 255.859 220.007C258.995 220.928 258.663 223.515 257.889 224.425C253.002 230.163 247.663 229.018 241.851 227.771C240.169 227.41 238.447 227.04 236.684 226.827C232.123 226.274 231.055 228.709 230.045 231.01C229.151 233.048 228.303 234.98 225.118 234.642C225.184 234.018 225.274 233.318 225.371 232.562C225.996 227.678 226.919 220.474 223.779 216.74C222.168 214.824 209.89 197.657 186.946 165.239Z" fill="white"/>
<path fill-rule="evenodd" clip-rule="evenodd" d="M127.496 98.4697L119.493 98.0917C104.446 116.701 102.349 157.229 91.6153 163.877C81.4667 170.163 65.6263 167.231 46.7021 162.97L42.669 176.018C61.3211 191.761 98.2529 202.462 111.424 192.147C132.481 175.656 131.723 126.081 127.496 98.4697Z" fill="white" stroke="black"/>
<path fill-rule="evenodd" clip-rule="evenodd" d="M173.728 192.49C173.728 192.49 126.581 198.279 104.367 201.007C101.197 201.396 101.234 196.76 101.41 194.401C103.435 167.179 120.559 136 115.915 98.1744L135.538 92.5899C155.345 117.093 165.079 149.06 173.728 192.49Z" fill="white" stroke="black"/>
<path fill-rule="evenodd" clip-rule="evenodd" d="M136.601 92.4603L136.829 92.4323C185.09 114.493 217.458 153.902 233.933 210.658L219.743 215.282C208.739 205.279 194.606 188.43 177.344 164.738C183.563 179.523 188.659 194.845 191.471 209.579L129.034 217.246C113.208 188.276 128.907 93.405 128.907 93.405L133.218 92.8757L136.601 92.4603Z" fill="white"/>
<path d="M136.829 92.4323L136.768 91.936L136.908 91.9188L137.037 91.9776L136.829 92.4323ZM233.933 210.658L234.414 210.519L234.548 210.984L234.088 211.134L233.933 210.658ZM219.743 215.282L219.898 215.758L219.622 215.848L219.407 215.652L219.743 215.282ZM177.344 164.738L176.883 164.932L177.748 164.443L177.344 164.738ZM191.471 209.579L191.962 209.486L192.062 210.01L191.532 210.076L191.471 209.579ZM129.034 217.246L129.095 217.742L128.758 217.783L128.596 217.485L129.034 217.246ZM128.907 93.405L128.414 93.3233L128.475 92.9543L128.846 92.9087L128.907 93.405ZM136.89 92.9286L136.662 92.9566L136.54 91.9641L136.768 91.936L136.89 92.9286ZM233.453 210.798C217.013 154.163 184.734 114.88 136.621 92.887L137.037 91.9776C185.446 114.106 217.903 153.64 234.414 210.519L233.453 210.798ZM219.588 214.807L233.778 210.183L234.088 211.134L219.898 215.758L219.588 214.807ZM177.748 164.443C195.005 188.13 209.114 204.944 220.079 214.912L219.407 215.652C208.364 205.613 194.206 188.731 176.939 165.032L177.748 164.443ZM177.804 164.544C184.033 179.351 189.142 194.707 191.962 209.486L190.98 209.673C188.176 194.983 183.093 179.695 176.883 164.932L177.804 164.544ZM191.532 210.076L129.095 217.742L128.973 216.749L191.41 209.083L191.532 210.076ZM128.596 217.485C124.582 210.139 122.593 198.681 121.839 185.703C121.083 172.705 121.563 158.106 122.537 144.426C123.511 130.744 124.98 117.969 126.206 108.616C126.819 103.939 127.37 100.117 127.769 97.4637C127.969 96.137 128.13 95.1024 128.241 94.3993C128.297 94.0477 128.34 93.779 128.369 93.5981C128.384 93.5076 128.395 93.439 128.403 93.393C128.406 93.37 128.409 93.3527 128.411 93.341C128.412 93.3352 128.413 93.3308 128.413 93.3279C128.414 93.3264 128.414 93.3253 128.414 93.3245C128.414 93.3238 128.414 93.3233 128.907 93.405C129.401 93.4866 129.401 93.4869 129.4 93.4876C129.4 93.4883 129.4 93.4893 129.4 93.4907C129.399 93.4935 129.399 93.4978 129.398 93.5035C129.396 93.5149 129.393 93.5319 129.389 93.5546C129.382 93.6001 129.371 93.6681 129.356 93.758C129.327 93.9378 129.284 94.2053 129.229 94.5557C129.118 95.2564 128.957 96.2884 128.758 97.6123C128.36 100.26 127.809 104.076 127.197 108.746C125.974 118.086 124.507 130.84 123.535 144.497C122.562 158.156 122.085 172.707 122.837 185.645C123.59 198.603 125.573 209.867 129.473 217.006L128.596 217.485ZM128.846 92.9087L133.157 92.3794L133.279 93.372L128.968 93.9012L128.846 92.9087ZM133.157 92.3794L136.54 91.9641L136.662 92.9566L133.279 93.372L133.157 92.3794Z" fill="black"/>
<defs>
<filter id="filter0_d_530_206" x="29.418" y="361.878" width="108.994" height="73.6416" filterUnits="userSpaceOnUse" color-interpolation-filters="sRGB">
<feFlood flood-opacity="0" result="BackgroundImageFix"/>
<feColorMatrix in="SourceAlpha" type="matrix" values="0 0 0 0 0 0 0 0 0 0 0 0 0 0 0 0 0 0 127 0" result="hardAlpha"/>
<feOffset dy="4"/>
<feGaussianBlur stdDeviation="2"/>
<feComposite in2="hardAlpha" operator="out"/>
<feColorMatrix type="matrix" values="0 0 0 0 0 0 0 0 0 0 0 0 0 0 0 0 0 0 0.25 0"/>
<feBlend mode="normal" in2="BackgroundImageFix" result="effect1_dropShadow_530_206"/>
<feBlend mode="normal" in="SourceGraphic" in2="effect1_dropShadow_530_206" result="shape"/>
</filter>
<filter id="filter1_d_530_206" x="170.206" y="406.3" width="107.85" height="48.7002" filterUnits="userSpaceOnUse" color-interpolation-filters="sRGB">
<feFlood flood-opacity="0" result="BackgroundImageFix"/>
<feColorMatrix in="SourceAlpha" type="matrix" values="0 0 0 0 0 0 0 0 0 0 0 0 0 0 0 0 0 0 127 0" result="hardAlpha"/>
<feOffset dy="4"/>
<feGaussianBlur stdDeviation="2"/>
<feComposite in2="hardAlpha" operator="out"/>
<feColorMatrix type="matrix" values="0 0 0 0 0 0 0 0 0 0 0 0 0 0 0 0 0 0 0.25 0"/>
<feBlend mode="normal" in2="BackgroundImageFix" result="effect1_dropShadow_530_206"/>
<feBlend mode="normal" in="SourceGraphic" in2="effect1_dropShadow_530_206" result="shape"/>
</filter>
</defs>
</svg>
