<svg width="578" height="531" viewBox="0 0 578 531" fill="none" xmlns="http://www.w3.org/2000/svg">
<path fill-rule="evenodd" clip-rule="evenodd" d="M538.984 152.533C538.568 152.23 537.579 152.123 537.12 152.032C535.209 151.655 533.24 151.491 531.292 151.491C525.284 151.501 519.179 152.09 513.272 153.111C509.521 153.758 504.986 155.939 501.255 154.755C494.755 152.691 488.185 152.793 482.018 155.738C476.379 158.432 472.099 163.547 469.601 169.074C469.224 169.909 467.695 172.98 467.262 175.05C467.077 175.474 466.899 175.899 466.739 176.332C466.285 177.56 465.876 178.81 465.498 180.062C465.335 180.596 464.928 181.775 465.412 182.003C464.639 183.43 463.954 184.9 463.384 186.417C461.724 190.83 459.91 195.672 459.326 200.349C459.111 202.081 459.102 203.824 459.303 205.559C459.402 206.417 459.361 208.141 459.942 208.794C461.177 210.178 461.81 208.24 461.671 207.317C460.609 200.285 462.661 193.68 465.091 187.069C466.664 182.794 469.247 178.883 472.141 175.342C474.483 172.474 476.995 170.217 480.205 168.316C484.132 165.991 488.329 164.113 492.487 162.228C495.223 160.988 497.961 159.78 500.772 158.712C501.398 158.474 502.381 157.864 503.074 157.862C504.54 157.857 506.618 158.938 508.034 159.341C512.691 160.665 517.407 162.36 522.221 163.037C525.308 163.471 528.201 162.982 531.088 161.953C531.383 161.849 531.878 161.579 532.484 161.193C534.628 160.368 536.655 159.33 538.421 157.833C539.438 156.971 540.362 155.856 541.203 154.835C541.455 154.53 541.566 154.181 541.57 153.848C541.761 153.749 541.887 153.632 541.916 153.496C542.126 152.492 540.211 152.474 538.984 152.533Z" fill="#B5CF2E"/>
<path fill-rule="evenodd" clip-rule="evenodd" d="M50.9711 236.249C49.7925 237.203 48.6365 238.178 47.5088 239.192C46.6493 239.966 45.1283 240.891 44.8197 242.062C44.499 243.279 45.5115 244.418 46.3115 245.154C50.5415 249.046 55.3047 251.677 61.1662 252.115C70.1915 252.789 78.0461 250.483 85.877 245.949C91.3775 242.763 95.0211 238.051 95.8169 231.688C102.368 234.411 108.703 238.163 114.087 242.769C116.744 245.042 119.032 247.56 121.148 250.35C122.504 252.138 123.815 253.955 125.031 255.841C125.56 256.661 126.098 258.114 126.971 258.586C127.996 259.141 129.236 258.271 129.185 257.132C129.142 256.183 128.118 255.083 127.639 254.307C126.844 253.02 126.036 251.741 125.186 250.488C123.81 248.461 122.388 246.462 120.837 244.564C117.351 240.302 112.917 236.78 108.32 233.777C99.5003 228.015 89.8212 224.386 79.0903 224.078C72.492 223.889 66.9412 226.143 61.2986 229.51C57.7854 231.606 54.1589 233.667 50.9711 236.249Z" fill="#DDE3E9"/>
<path fill-rule="evenodd" clip-rule="evenodd" d="M136.563 208.383C129.687 201.301 122.787 194.308 115.105 188.073C110.577 184.398 105.806 181.058 101.133 177.573C101.672 178.046 102.201 178.532 102.717 179.03C101.258 178.04 99.349 177.48 97.8028 176.563C96.0779 175.541 94.4286 174.372 92.8114 173.193C89.6543 170.892 86.5449 168.548 83.2995 166.368C79.684 163.938 75.937 161.694 72.2599 159.357C69.1391 157.373 65.9802 155.201 62.6417 153.58C60.822 152.696 58.9981 151.648 57.1711 150.726C56.5596 150.417 50.3549 146.5 50.3706 146.488C50.7135 146.23 53.8359 147.697 54.3187 147.894C55.7292 148.47 57.0781 149.159 58.4342 149.846C57.6898 148.378 57.1007 146.836 56.78 145.211C56.6809 144.711 55.887 141.062 56.2932 140.756C56.4961 140.603 58.4756 147.131 58.577 147.759C58.6594 148.268 58.6473 149.002 58.8142 149.485C59.0836 150.264 59.07 150.029 59.6635 150.468C60.7513 151.273 62.1952 151.776 63.3726 152.449C64.0074 152.804 65.9731 154.209 67.157 154.609C70.7393 156.35 74.3703 159.026 77.774 161.248C76.8807 159.569 76.2009 157.814 75.7052 155.975C75.5872 155.538 74.3151 151.62 74.6237 151.387C74.971 151.126 77.395 157.11 77.5386 157.676C77.8054 158.728 77.8607 159.9 78.1949 160.923C78.5611 162.047 79.7051 162.445 80.7359 163.101C84.5286 165.51 88.1917 168.071 91.7932 170.749C95.7234 163.76 91.1919 155.32 87.3734 149.455C84.62 145.229 80.9147 141.605 77.0015 138.442C71.7794 134.22 65.8046 130.847 59.8372 127.762C52.8839 124.167 45.3687 121.94 37.5557 120.911C33.4693 120.373 29.2888 120.388 25.1611 120.56C23.1448 120.645 21.2094 120.912 19.2771 121.569C18.4061 121.866 17.5644 122.24 16.7442 122.659C16.121 122.976 14.6134 123.313 14.2551 123.787C11.3054 127.626 9.79645 131.451 10.0269 136.276C10.2448 140.842 11.687 145.411 13.6444 149.485C15.8242 154.021 18.6278 158.138 22.2944 161.593C25.0918 164.229 28.2193 166.524 31.3262 168.788C42.3766 176.841 56.3866 183.845 70.6986 182.046C75.3315 181.464 79.7379 179.843 83.8555 177.642C84.8261 177.123 85.7905 176.598 86.7065 175.986C87.3242 175.573 88.975 173.712 89.5958 173.645C90.4477 173.552 92.2812 175.284 93.0801 175.811C99.1506 179.818 105.062 184.042 110.849 188.437C117.007 193.114 122.862 198.107 128.545 203.336C130.962 205.561 133.364 207.79 135.711 210.089C136.257 210.623 137.593 212.593 138.584 212.683C139.211 212.739 139.633 212.204 139.544 211.624C139.389 210.616 137.268 209.108 136.563 208.383Z" fill="#A6C01E"/>
<path fill-rule="evenodd" clip-rule="evenodd" d="M531.765 180.899C529.103 180.317 526.161 180.362 523.448 180.409C508.897 180.608 494.609 187.497 485.31 198.504C477.393 207.875 475.216 219.525 473.652 231.303C473.497 232.472 473.431 233.634 473.344 234.806C473.325 235.057 473.297 235.281 473.266 235.493C472.652 236.043 472.328 236.684 472.693 237.388C471.338 240.353 470.192 243.393 469.208 246.529C466.313 255.759 463.369 265.165 465.183 274.87C465.607 269.529 466.498 264.068 467.564 258.814C467.625 258.512 467.692 258.213 467.76 257.915C467.768 257.884 467.774 257.852 467.781 257.821C468.159 256.212 468.649 254.652 469.246 253.116C469.252 253.099 469.258 253.082 469.264 253.066C469.343 252.864 469.427 252.662 469.509 252.461C469.681 252.045 469.856 251.63 470.042 251.217C470.105 251.075 470.165 250.933 470.224 250.79C471.092 248.662 471.459 246.263 472.237 244.061C472.423 243.56 472.617 243.061 472.821 242.565C472.834 242.536 472.845 242.507 472.858 242.478C473.409 241.142 474.018 239.823 474.662 238.517C475.012 238.255 475.198 237.602 475.5 237.009C475.562 236.892 476.05 236.114 476.195 235.665C476.575 234.931 476.952 234.198 477.334 233.466C477.323 233.47 477.311 233.474 477.3 233.479C477.681 232.775 478.065 232.076 478.445 231.378C478.529 231.225 478.613 231.072 478.697 230.918C478.834 230.674 478.971 230.43 479.107 230.186C480.381 227.905 481.733 225.67 483.136 223.463C483.637 222.675 484.834 221.545 485.063 220.661C485.072 220.627 485.073 220.597 485.079 220.566C488.124 216.288 491.63 212.343 495.835 209.217C495.326 209.767 494.246 211.631 493.96 212C493.086 213.13 492.137 214.182 491.185 215.247C489.479 217.155 487.814 219.122 486.334 221.203C483.628 225.01 481.294 229.015 479.086 233.101C479.066 233.124 479.042 233.147 479.023 233.172C477.913 234.539 477.215 236.606 476.417 238.17C479.577 236.706 483.071 235.753 486.313 234.454C489.548 233.158 492.693 231.715 495.731 230.021C499.767 227.769 503.955 225.227 507.769 222.351C512.139 219.639 515.813 215.908 519.055 211.991C522.891 207.358 526.406 202.684 528.58 197.058C529.648 194.294 530.489 191.41 530.987 188.494C531.009 188.367 531.036 188.229 531.066 188.086C531.576 187.079 532.032 186.049 532.414 184.996C533.021 183.324 534.455 181.486 531.765 180.899Z" fill="#B9D043"/>
<path fill-rule="evenodd" clip-rule="evenodd" d="M80.437 200.475C79.6031 199.572 78.666 198.756 77.5655 198.175C77.2873 198.028 75.2151 197.044 75.0802 197.26C74.7658 197.762 80.1864 200.186 80.437 200.475ZM90.2621 194.44C90.2551 194.478 90.9735 195.697 91.1695 196.072C91.5857 196.869 91.9699 197.681 92.3314 198.496C91.7965 197.058 91.246 195.724 90.2621 194.44ZM40.0163 204.364C39.3243 204.587 38.4923 203.708 39.3899 203.492C40.1162 203.318 40.0805 203.278 40.4066 202.692C40.6714 202.217 40.8346 201.638 41.067 201.14C41.5599 200.082 42.119 199.074 42.8053 198.129C44.2762 196.103 46.0682 194.358 48.0782 192.887C51.5859 190.321 55.519 187.974 59.6912 186.796C66.3248 184.922 73.875 184.806 80.519 186.105C84.6343 186.91 88.3942 188.309 91.1265 191.622C92.4923 193.278 93.5644 195.218 94.033 197.353C94.1556 197.912 94.1321 198.532 94.2852 199.079C94.521 199.92 94.4172 199.696 95.4003 199.859C96.4732 200.038 97.5454 200.22 98.6175 200.406C101.425 200.891 104.248 201.407 106.984 202.195C107.884 202.454 108.764 202.771 109.625 203.139C110.275 203.417 112.866 204.291 113.18 205.135C113.704 206.542 111.949 205.905 111.403 205.598C110.925 205.33 110.435 205.079 109.937 204.849C108.684 204.269 107.378 203.82 106.043 203.464C104.6 203.078 103.128 202.79 101.661 202.501C100.293 202.232 98.9205 201.988 97.5454 201.753C96.7817 201.624 96.018 201.497 95.2535 201.372C94.9919 201.328 94.532 201.102 94.5663 201.442C92.9593 201.132 91.2218 201.176 89.5851 201.091C87.5805 200.987 85.5682 200.901 83.5567 200.963C82.1058 201.009 80.6541 201.104 79.2103 201.299C78.3669 201.413 77.537 201.579 76.7095 201.79C76.2549 201.907 74.4625 202.153 74.2149 202.548C74.3212 202.378 76.2994 202.544 76.5513 202.534C77.5584 202.496 78.5574 202.396 79.5609 202.284C81.4233 202.076 83.2857 201.967 85.1536 201.983C85.1465 202.311 83.8706 202.895 83.559 203.112C82.8609 203.6 82.1917 204.131 81.5677 204.715C80.469 205.741 79.1525 207.014 78.3927 208.231C78.6168 207.872 79.7217 207.406 80.1137 207.131C80.7424 206.693 81.3585 206.224 81.941 205.724C82.4783 205.261 82.9804 204.761 83.4739 204.252C83.9674 203.742 84.6366 202.68 85.2855 202.341C85.3246 202.32 85.6073 202.543 85.7673 202.467C85.9298 202.391 86.1312 202.008 86.1718 201.992C86.7755 201.76 87.9218 202.049 88.5566 202.079C90.202 202.155 91.8465 202.254 93.4903 202.345C94.0002 202.373 94.4328 202.256 94.6257 202.632C94.8303 203.033 94.4547 204.087 94.3477 204.523C93.951 206.144 93.2474 207.598 92.1386 208.854C90.063 211.207 87.5025 212.775 84.6108 213.824C73.5346 217.843 61.7507 219.452 50.6777 215.272C46.0935 213.541 39.1896 210.449 40.0163 204.364Z" fill="#B5CF2E"/>
<g filter="url(#filter0_d_257_11481)">
<mask id="mask0_257_11481" style="mask-type:luminance" maskUnits="userSpaceOnUse" x="30" y="279" width="518" height="184">
<path d="M547.398 279.556H30.4541V462.282H547.398V279.556Z" fill="white"/>
</mask>
<g mask="url(#mask0_257_11481)">
<g opacity="0.6">
<path fill-rule="evenodd" clip-rule="evenodd" d="M547.173 393.683C554.708 444.694 371.963 477.966 214.671 454.746C57.3775 431.526 -14.781 340.85 60.2765 292.534C135.334 244.218 539.637 342.673 547.173 393.683Z" fill="white"/>
</g>
</g>
</g>
<mask id="mask1_257_11481" style="mask-type:luminance" maskUnits="userSpaceOnUse" x="107" y="59" width="125" height="237">
<path d="M231.922 59.3472H107.762V295.174H231.922V59.3472Z" fill="white"/>
</mask>
<g mask="url(#mask1_257_11481)">
<path d="M225.675 59.3472H114.009C110.559 59.3472 107.762 62.1441 107.762 65.5942V288.927C107.762 292.377 110.559 295.174 114.009 295.174H225.675C229.125 295.174 231.922 292.377 231.922 288.927V65.5942C231.922 62.1441 229.125 59.3472 225.675 59.3472Z" fill="#F2F2F2"/>
<path fill-rule="evenodd" clip-rule="evenodd" d="M169.452 280.337C175.92 280.337 181.165 275.092 181.165 268.623C181.165 262.155 175.92 256.91 169.452 256.91C162.983 256.91 157.738 262.155 157.738 268.623C157.738 275.092 162.983 280.337 169.452 280.337Z" fill="white"/>
<path fill-rule="evenodd" clip-rule="evenodd" d="M159.3 74.9648C160.163 74.9648 160.862 74.2656 160.862 73.4031C160.862 72.5405 160.163 71.8413 159.3 71.8413C158.437 71.8413 157.738 72.5405 157.738 73.4031C157.738 74.2656 158.437 74.9648 159.3 74.9648Z" fill="white"/>
<path d="M179.603 71.8413H166.328C165.466 71.8413 164.767 72.5405 164.767 73.4031C164.767 74.2656 165.466 74.9648 166.328 74.9648H179.603C180.466 74.9648 181.165 74.2656 181.165 73.4031C181.165 72.5405 180.466 71.8413 179.603 71.8413Z" fill="white"/>
<mask id="mask2_257_11481" style="mask-type:luminance" maskUnits="userSpaceOnUse" x="118" y="81" width="103" height="160">
<path d="M220.99 81.2119H118.694V240.512H220.99V81.2119Z" fill="white"/>
</mask>
<g mask="url(#mask2_257_11481)">
<mask id="mask3_257_11481" style="mask-type:luminance" maskUnits="userSpaceOnUse" x="118" y="81" width="103" height="43">
<path d="M220.99 81.2119H118.694V123.38H220.99V81.2119Z" fill="white"/>
</mask>
<g mask="url(#mask3_257_11481)">
<path d="M217.866 81.2119H121.818C120.093 81.2119 118.694 82.6104 118.694 84.3354V120.256C118.694 121.981 120.093 123.38 121.818 123.38H217.866C219.591 123.38 220.99 121.981 220.99 120.256V84.3354C220.99 82.6104 219.591 81.2119 217.866 81.2119Z" fill="white"/>
<mask id="mask4_257_11481" style="mask-type:luminance" maskUnits="userSpaceOnUse" x="149" y="93" width="58" height="18">
<path d="M206.153 93.8623H149.148V110.729H206.153V93.8623Z" fill="white"/>
</mask>
<g mask="url(#mask4_257_11481)">
<path d="M203.81 93.8623H151.491C150.197 93.8623 149.148 94.9111 149.148 96.205V97.8448C149.148 99.1386 150.197 100.187 151.491 100.187H203.81C205.104 100.187 206.153 99.1386 206.153 97.8448V96.205C206.153 94.9111 205.104 93.8623 203.81 93.8623Z" fill="#DDE3E9"/>
<path d="M185.069 104.404H151.491C150.197 104.404 149.148 105.453 149.148 106.747V108.387C149.148 109.681 150.197 110.729 151.491 110.729H185.069C186.363 110.729 187.412 109.681 187.412 108.387V106.747C187.412 105.453 186.363 104.404 185.069 104.404Z" fill="#DDE3E9"/>
</g>
<path fill-rule="evenodd" clip-rule="evenodd" d="M135.093 111.666C140.268 111.666 144.464 107.471 144.464 102.296C144.464 97.121 140.268 92.9253 135.093 92.9253C129.918 92.9253 125.723 97.121 125.723 102.296C125.723 107.471 129.918 111.666 135.093 111.666Z" fill="#C5CFD6"/>
</g>
<mask id="mask5_257_11481" style="mask-type:luminance" maskUnits="userSpaceOnUse" x="118" y="129" width="103" height="34">
<path d="M220.99 129.626H118.694V162.424H220.99V129.626Z" fill="white"/>
</mask>
<g mask="url(#mask5_257_11481)">
<path d="M217.866 129.626H121.818C120.093 129.626 118.694 131.025 118.694 132.75V159.3C118.694 161.025 120.093 162.424 121.818 162.424H217.866C219.591 162.424 220.99 161.025 220.99 159.3V132.75C220.99 131.025 219.591 129.626 217.866 129.626Z" fill="white"/>
<mask id="mask6_257_11481" style="mask-type:luminance" maskUnits="userSpaceOnUse" x="149" y="139" width="58" height="14">
<path d="M206.153 139.466H149.148V152.585H206.153V139.466Z" fill="white"/>
</mask>
<g mask="url(#mask6_257_11481)">
<path d="M203.81 139.466H151.491C150.197 139.466 149.148 140.515 149.148 141.808V142.043C149.148 143.337 150.197 144.385 151.491 144.385H203.81C205.104 144.385 206.153 143.337 206.153 142.043V141.808C206.153 140.515 205.104 139.466 203.81 139.466Z" fill="#DDE3E9"/>
<path d="M185.069 147.665H151.491C150.197 147.665 149.148 148.714 149.148 150.008V150.242C149.148 151.536 150.197 152.585 151.491 152.585H185.069C186.363 152.585 187.412 151.536 187.412 150.242V150.008C187.412 148.714 186.363 147.665 185.069 147.665Z" fill="#DDE3E9"/>
</g>
<path fill-rule="evenodd" clip-rule="evenodd" d="M135.093 155.395C140.268 155.395 144.464 151.2 144.464 146.025C144.464 140.85 140.268 136.654 135.093 136.654C129.918 136.654 125.723 140.85 125.723 146.025C125.723 151.2 129.918 155.395 135.093 155.395Z" fill="#C5CFD6"/>
</g>
<mask id="mask7_257_11481" style="mask-type:luminance" maskUnits="userSpaceOnUse" x="118" y="168" width="103" height="34">
<path d="M220.99 168.671H118.694V201.468H220.99V168.671Z" fill="white"/>
</mask>
<g mask="url(#mask7_257_11481)">
<path d="M217.866 168.671H121.818C120.093 168.671 118.694 170.069 118.694 171.794V198.344C118.694 200.07 120.093 201.468 121.818 201.468H217.866C219.591 201.468 220.99 200.07 220.99 198.344V171.794C220.99 170.069 219.591 168.671 217.866 168.671Z" fill="white"/>
<mask id="mask8_257_11481" style="mask-type:luminance" maskUnits="userSpaceOnUse" x="149" y="178" width="58" height="14">
<path d="M206.153 178.51H149.148V191.629H206.153V178.51Z" fill="white"/>
</mask>
<g mask="url(#mask8_257_11481)">
<path d="M203.81 178.51H151.491C150.197 178.51 149.148 179.559 149.148 180.852V181.087C149.148 182.38 150.197 183.429 151.491 183.429H203.81C205.104 183.429 206.153 182.38 206.153 181.087V180.852C206.153 179.559 205.104 178.51 203.81 178.51Z" fill="#DDE3E9"/>
<path d="M185.069 186.709H151.491C150.197 186.709 149.148 187.758 149.148 189.052V189.286C149.148 190.58 150.197 191.629 151.491 191.629H185.069C186.363 191.629 187.412 190.58 187.412 189.286V189.052C187.412 187.758 186.363 186.709 185.069 186.709Z" fill="#DDE3E9"/>
</g>
<path fill-rule="evenodd" clip-rule="evenodd" d="M135.093 194.44C140.268 194.44 144.464 190.244 144.464 185.069C144.464 179.894 140.268 175.699 135.093 175.699C129.918 175.699 125.723 179.894 125.723 185.069C125.723 190.244 129.918 194.44 135.093 194.44Z" fill="#AFB9C5"/>
</g>
<mask id="mask9_257_11481" style="mask-type:luminance" maskUnits="userSpaceOnUse" x="118" y="207" width="103" height="34">
<path d="M220.99 207.715H118.694V240.512H220.99V207.715Z" fill="white"/>
</mask>
<g mask="url(#mask9_257_11481)">
<path d="M217.866 207.715H121.818C120.093 207.715 118.694 209.113 118.694 210.838V237.388C118.694 239.113 120.093 240.512 121.818 240.512H217.866C219.591 240.512 220.99 239.113 220.99 237.388V210.838C220.99 209.113 219.591 207.715 217.866 207.715Z" fill="white"/>
<mask id="mask10_257_11481" style="mask-type:luminance" maskUnits="userSpaceOnUse" x="149" y="217" width="58" height="14">
<path d="M206.153 217.554H149.148V230.673H206.153V217.554Z" fill="white"/>
</mask>
<g mask="url(#mask10_257_11481)">
<path d="M203.81 217.554H151.491C150.197 217.554 149.148 218.603 149.148 219.897V220.131C149.148 221.425 150.197 222.474 151.491 222.474H203.81C205.104 222.474 206.153 221.425 206.153 220.131V219.897C206.153 218.603 205.104 217.554 203.81 217.554Z" fill="#DDE3E9"/>
<path d="M185.069 225.753H151.491C150.197 225.753 149.148 226.802 149.148 228.096V228.33C149.148 229.624 150.197 230.673 151.491 230.673H185.069C186.363 230.673 187.412 229.624 187.412 228.33V228.096C187.412 226.802 186.363 225.753 185.069 225.753Z" fill="#DDE3E9"/>
</g>
<path fill-rule="evenodd" clip-rule="evenodd" d="M135.093 233.484C140.268 233.484 144.464 229.288 144.464 224.113C144.464 218.938 140.268 214.743 135.093 214.743C129.918 214.743 125.723 218.938 125.723 224.113C125.723 229.288 129.918 233.484 135.093 233.484Z" fill="#C5CFD6"/>
</g>
</g>
</g>
<mask id="mask11_257_11481" style="mask-type:luminance" maskUnits="userSpaceOnUse" x="121" y="79" width="163" height="237">
<path d="M283.46 79.6499H121.817V315.476H283.46V79.6499Z" fill="white"/>
</mask>
<g mask="url(#mask11_257_11481)">
<path fill-rule="evenodd" clip-rule="evenodd" d="M131.298 249.882C130.263 249.882 129.232 249.903 128.198 249.957C127.411 249.998 126.207 249.835 125.541 250.326C124.848 250.836 124.896 251.879 125.005 252.616C125.576 256.514 126.972 259.971 129.891 262.733C134.387 266.984 139.54 269.145 145.638 270.107C149.922 270.783 153.876 269.845 157.029 266.799C159.334 271.075 161.081 275.807 161.958 280.583C162.391 282.939 162.523 285.268 162.447 287.668C162.398 289.204 162.314 290.738 162.149 292.268C162.077 292.932 161.738 293.938 161.998 294.567C162.303 295.304 163.333 295.376 163.796 294.746C164.181 294.223 164.11 293.195 164.189 292.576C164.321 291.546 164.442 290.516 164.528 289.482C164.67 287.809 164.773 286.131 164.766 284.45C164.748 280.676 163.909 276.888 162.761 273.305C160.559 266.431 156.986 260.322 151.43 255.529C148.013 252.582 144.102 251.389 139.666 250.748C136.903 250.349 134.096 249.882 131.298 249.882Z" fill="#B5CF2E"/>
<path fill-rule="evenodd" clip-rule="evenodd" d="M147.252 277.213C136.086 277.213 128.566 286.212 125.011 295.566C123.67 299.091 123.356 302.962 122.839 306.664C122.673 307.852 122.735 309.662 122.252 310.72C122.078 311.104 121.676 311.242 121.868 311.765C121.985 312.081 122.212 312.276 122.555 312.338C123.257 312.468 124.25 311.703 124.852 311.401C129.847 308.896 133.128 305.023 135.805 300.285C137.465 297.348 139.148 294.298 140.134 291.074C140.736 289.104 141.087 287.03 141.293 284.986C141.374 284.181 141.452 283.357 141.447 282.548C141.443 281.745 141.069 281.32 140.8 280.621C144.526 279.211 148.731 278.827 152.505 280.288C155.996 281.639 158.895 284.251 160.519 287.534C160.94 288.386 161.266 289.286 161.503 290.204C161.658 290.805 161.665 291.585 161.953 292.128C162.65 293.446 164.116 292.566 163.976 291.339C163.583 287.918 161.626 284.483 159.124 282.104C155.969 279.104 151.693 277.213 147.252 277.213Z" fill="#B5CF2E"/>
<path d="M277.213 79.6499H165.547C162.097 79.6499 159.3 82.4468 159.3 85.897V309.229C159.3 312.68 162.097 315.476 165.547 315.476H277.213C280.663 315.476 283.46 312.68 283.46 309.229V85.897C283.46 82.4468 280.663 79.6499 277.213 79.6499Z" fill="#DDE3E9"/>
<path fill-rule="evenodd" clip-rule="evenodd" d="M220.99 300.64C227.458 300.64 232.703 295.395 232.703 288.927C232.703 282.458 227.458 277.213 220.99 277.213C214.521 277.213 209.276 282.458 209.276 288.927C209.276 295.395 214.521 300.64 220.99 300.64Z" fill="white"/>
<path fill-rule="evenodd" clip-rule="evenodd" d="M210.838 95.2676C211.701 95.2676 212.4 94.5687 212.4 93.7058C212.4 92.8429 211.701 92.144 210.838 92.144C209.975 92.144 209.276 92.8429 209.276 93.7058C209.276 94.5687 209.975 95.2676 210.838 95.2676Z" fill="white"/>
<path d="M231.141 92.144H217.866C217.004 92.144 216.305 92.8433 216.305 93.7058C216.305 94.5683 217.004 95.2676 217.866 95.2676H231.141C232.004 95.2676 232.703 94.5683 232.703 93.7058C232.703 92.8433 232.004 92.144 231.141 92.144Z" fill="white"/>
<mask id="mask12_257_11481" style="mask-type:luminance" maskUnits="userSpaceOnUse" x="170" y="101" width="103" height="160">
<path d="M272.528 101.515H170.232V260.815H272.528V101.515Z" fill="white"/>
</mask>
<g mask="url(#mask12_257_11481)">
<mask id="mask13_257_11481" style="mask-type:luminance" maskUnits="userSpaceOnUse" x="170" y="101" width="103" height="43">
<path d="M272.528 101.515H170.232V143.682H272.528V101.515Z" fill="white"/>
</mask>
<g mask="url(#mask13_257_11481)">
<path d="M269.404 101.515H173.356C171.631 101.515 170.232 102.913 170.232 104.638V140.559C170.232 142.284 171.631 143.682 173.356 143.682H269.404C271.13 143.682 272.528 142.284 272.528 140.559V104.638C272.528 102.913 271.13 101.515 269.404 101.515Z" fill="white"/>
<mask id="mask14_257_11481" style="mask-type:luminance" maskUnits="userSpaceOnUse" x="177" y="114" width="58" height="18">
<path d="M234.265 114.165H177.261V131.032H234.265V114.165Z" fill="white"/>
</mask>
<g mask="url(#mask14_257_11481)">
<path d="M231.923 114.165H179.603C178.31 114.165 177.261 115.214 177.261 116.508V118.148C177.261 119.441 178.31 120.49 179.603 120.49H231.923C233.216 120.49 234.265 119.441 234.265 118.148V116.508C234.265 115.214 233.216 114.165 231.923 114.165Z" fill="#DDE3E9"/>
<path d="M213.181 124.707H179.603C178.31 124.707 177.261 125.756 177.261 127.05V128.69C177.261 129.983 178.31 131.032 179.603 131.032H213.181C214.475 131.032 215.524 129.983 215.524 128.69V127.05C215.524 125.756 214.475 124.707 213.181 124.707Z" fill="#DDE3E9"/>
</g>
<path fill-rule="evenodd" clip-rule="evenodd" d="M261.596 128.065C264.615 128.065 267.062 125.617 267.062 122.599C267.062 119.58 264.615 117.132 261.596 117.132C258.577 117.132 256.13 119.58 256.13 122.599C256.13 125.617 258.577 128.065 261.596 128.065Z" fill="#DDE3E9"/>
<path fill-rule="evenodd" clip-rule="evenodd" d="M261.596 124.941C262.889 124.941 263.938 123.892 263.938 122.599C263.938 121.305 262.889 120.256 261.596 120.256C260.302 120.256 259.253 121.305 259.253 122.599C259.253 123.892 260.302 124.941 261.596 124.941Z" fill="#F2F2F2"/>
</g>
<mask id="mask15_257_11481" style="mask-type:luminance" maskUnits="userSpaceOnUse" x="170" y="149" width="103" height="34">
<path d="M272.528 149.929H170.232V182.726H272.528V149.929Z" fill="white"/>
</mask>
<g mask="url(#mask15_257_11481)">
<path d="M269.404 149.929H173.356C171.631 149.929 170.232 151.328 170.232 153.053V179.603C170.232 181.328 171.631 182.726 173.356 182.726H269.404C271.13 182.726 272.528 181.328 272.528 179.603V153.053C272.528 151.328 271.13 149.929 269.404 149.929Z" fill="white"/>
<mask id="mask16_257_11481" style="mask-type:luminance" maskUnits="userSpaceOnUse" x="200" y="159" width="58" height="14">
<path d="M257.691 159.769H200.687V172.887H257.691V159.769Z" fill="white"/>
</mask>
<g mask="url(#mask16_257_11481)">
<path d="M255.348 159.769H203.029C201.735 159.769 200.687 160.817 200.687 162.111V162.345C200.687 163.639 201.735 164.688 203.029 164.688H255.348C256.642 164.688 257.691 163.639 257.691 162.345V162.111C257.691 160.817 256.642 159.769 255.348 159.769Z" fill="#DDE3E9"/>
<path d="M236.607 167.968H203.029C201.735 167.968 200.687 169.017 200.687 170.31V170.545C200.687 171.838 201.735 172.887 203.029 172.887H236.607C237.901 172.887 238.95 171.838 238.95 170.545V170.31C238.95 169.017 237.901 167.968 236.607 167.968Z" fill="#DDE3E9"/>
</g>
<path fill-rule="evenodd" clip-rule="evenodd" d="M186.631 175.698C191.806 175.698 196.002 171.503 196.002 166.328C196.002 161.153 191.806 156.957 186.631 156.957C181.456 156.957 177.261 161.153 177.261 166.328C177.261 171.503 181.456 175.698 186.631 175.698Z" fill="#C5CFD6"/>
</g>
<mask id="mask17_257_11481" style="mask-type:luminance" maskUnits="userSpaceOnUse" x="170" y="188" width="103" height="34">
<path d="M272.528 188.974H170.232V221.771H272.528V188.974Z" fill="white"/>
</mask>
<g mask="url(#mask17_257_11481)">
<path d="M269.404 188.974H173.356C171.631 188.974 170.232 190.372 170.232 192.097V218.647C170.232 220.372 171.631 221.771 173.356 221.771H269.404C271.13 221.771 272.528 220.372 272.528 218.647V192.097C272.528 190.372 271.13 188.974 269.404 188.974Z" fill="white"/>
<mask id="mask18_257_11481" style="mask-type:luminance" maskUnits="userSpaceOnUse" x="177" y="198" width="58" height="14">
<path d="M234.265 198.813H177.261V211.932H234.265V198.813Z" fill="white"/>
</mask>
<g mask="url(#mask18_257_11481)">
<path d="M231.923 198.813H179.603C178.31 198.813 177.261 199.862 177.261 201.156V201.39C177.261 202.684 178.31 203.733 179.603 203.733H231.923C233.216 203.733 234.265 202.684 234.265 201.39V201.156C234.265 199.862 233.216 198.813 231.923 198.813Z" fill="#DDE3E9"/>
<path d="M213.181 207.012H179.603C178.31 207.012 177.261 208.061 177.261 209.355V209.589C177.261 210.883 178.31 211.932 179.603 211.932H213.181C214.475 211.932 215.524 210.883 215.524 209.589V209.355C215.524 208.061 214.475 207.012 213.181 207.012Z" fill="#AFB9C5"/>
</g>
<path fill-rule="evenodd" clip-rule="evenodd" d="M261.596 210.838C264.615 210.838 267.062 208.391 267.062 205.372C267.062 202.353 264.615 199.906 261.596 199.906C258.577 199.906 256.13 202.353 256.13 205.372C256.13 208.391 258.577 210.838 261.596 210.838Z" fill="#DDE3E9"/>
<path fill-rule="evenodd" clip-rule="evenodd" d="M261.596 207.715C262.889 207.715 263.938 206.666 263.938 205.372C263.938 204.078 262.889 203.029 261.596 203.029C260.302 203.029 259.253 204.078 259.253 205.372C259.253 206.666 260.302 207.715 261.596 207.715Z" fill="#F2F2F2"/>
</g>
<mask id="mask19_257_11481" style="mask-type:luminance" maskUnits="userSpaceOnUse" x="170" y="228" width="103" height="33">
<path d="M272.528 228.018H170.232V260.815H272.528V228.018Z" fill="white"/>
</mask>
<g mask="url(#mask19_257_11481)">
<path d="M269.404 228.018H173.356C171.631 228.018 170.232 229.416 170.232 231.141V257.691C170.232 259.416 171.631 260.815 173.356 260.815H269.404C271.13 260.815 272.528 259.416 272.528 257.691V231.141C272.528 229.416 271.13 228.018 269.404 228.018Z" fill="white"/>
<mask id="mask20_257_11481" style="mask-type:luminance" maskUnits="userSpaceOnUse" x="200" y="237" width="58" height="14">
<path d="M257.691 237.857H200.687V250.976H257.691V237.857Z" fill="white"/>
</mask>
<g mask="url(#mask20_257_11481)">
<path d="M255.348 237.857H203.029C201.735 237.857 200.687 238.906 200.687 240.2V240.434C200.687 241.728 201.735 242.776 203.029 242.776H255.348C256.642 242.776 257.691 241.728 257.691 240.434V240.2C257.691 238.906 256.642 237.857 255.348 237.857Z" fill="#DDE3E9"/>
<path d="M236.607 246.056H203.029C201.735 246.056 200.687 247.105 200.687 248.399V248.633C200.687 249.927 201.735 250.976 203.029 250.976H236.607C237.901 250.976 238.95 249.927 238.95 248.633V248.399C238.95 247.105 237.901 246.056 236.607 246.056Z" fill="#DDE3E9"/>
</g>
<path fill-rule="evenodd" clip-rule="evenodd" d="M186.631 253.787C191.806 253.787 196.002 249.591 196.002 244.416C196.002 239.241 191.806 235.045 186.631 235.045C181.456 235.045 177.261 239.241 177.261 244.416C177.261 249.591 181.456 253.787 186.631 253.787Z" fill="#C5CFD6"/>
</g>
</g>
</g>
<mask id="mask21_257_11481" style="mask-type:luminance" maskUnits="userSpaceOnUse" x="210" y="99" width="263" height="271">
<path d="M472.434 99.1719H210.838V369.357H472.434V99.1719Z" fill="white"/>
</mask>
<g mask="url(#mask21_257_11481)">
<path d="M466.187 99.1719H217.085C213.635 99.1719 210.838 101.969 210.838 105.419V363.11C210.838 366.56 213.635 369.357 217.085 369.357H466.187C469.637 369.357 472.434 366.56 472.434 363.11V105.419C472.434 101.969 469.637 99.1719 466.187 99.1719Z" fill="#F2F2F2"/>
<path d="M453.692 132.75H411.524C408.074 132.75 405.277 135.547 405.277 138.997V189.754C405.277 193.205 408.074 196.001 411.524 196.001H453.692C457.142 196.001 459.939 193.205 459.939 189.754V138.997C459.939 135.547 457.142 132.75 453.692 132.75Z" fill="white"/>
<path fill-rule="evenodd" clip-rule="evenodd" d="M432.608 169.451C439.509 169.451 445.102 163.858 445.102 156.957C445.102 150.056 439.509 144.463 432.608 144.463C425.708 144.463 420.114 150.056 420.114 156.957C420.114 163.858 425.708 169.451 432.608 169.451Z" fill="#DDE3E9"/>
<path d="M449.788 172.575H415.43C414.136 172.575 413.087 173.624 413.087 174.917C413.087 176.211 414.136 177.26 415.43 177.26H449.788C451.082 177.26 452.131 176.211 452.131 174.917C452.131 173.624 451.082 172.575 449.788 172.575Z" fill="#DDE3E9"/>
<path d="M443.541 180.384H421.677C420.383 180.384 419.334 181.433 419.334 182.726C419.334 184.02 420.383 185.069 421.677 185.069H443.541C444.835 185.069 445.884 184.02 445.884 182.726C445.884 181.433 444.835 180.384 443.541 180.384Z" fill="#DDE3E9"/>
<path d="M210.838 105.419C210.838 101.969 213.635 99.1719 217.085 99.1719H466.187C469.637 99.1719 472.434 101.969 472.434 105.419V120.256H210.838V105.419Z" fill="#C5CFD6"/>
<path fill-rule="evenodd" clip-rule="evenodd" d="M220.99 113.228C222.715 113.228 224.113 111.829 224.113 110.104C224.113 108.379 222.715 106.98 220.99 106.98C219.265 106.98 217.866 108.379 217.866 110.104C217.866 111.829 219.265 113.228 220.99 113.228Z" fill="#F2F2F2"/>
<path fill-rule="evenodd" clip-rule="evenodd" d="M230.36 113.228C232.085 113.228 233.483 111.829 233.483 110.104C233.483 108.379 232.085 106.98 230.36 106.98C228.635 106.98 227.236 108.379 227.236 110.104C227.236 111.829 228.635 113.228 230.36 113.228Z" fill="#F2F2F2"/>
<path fill-rule="evenodd" clip-rule="evenodd" d="M239.731 113.228C241.456 113.228 242.854 111.829 242.854 110.104C242.854 108.379 241.456 106.98 239.731 106.98C238.006 106.98 236.607 108.379 236.607 110.104C236.607 111.829 238.006 113.228 239.731 113.228Z" fill="#F2F2F2"/>
<mask id="mask22_257_11481" style="mask-type:luminance" maskUnits="userSpaceOnUse" x="405" y="202" width="55" height="152">
<path d="M459.939 202.249H405.277V353.74H459.939V202.249Z" fill="white"/>
</mask>
<g mask="url(#mask22_257_11481)">
<path d="M453.692 202.249H411.524C408.074 202.249 405.277 205.045 405.277 208.496V347.493C405.277 350.943 408.074 353.74 411.524 353.74H453.692C457.142 353.74 459.939 350.943 459.939 347.493V208.496C459.939 205.045 457.142 202.249 453.692 202.249Z" fill="white"/>
<mask id="mask23_257_11481" style="mask-type:luminance" maskUnits="userSpaceOnUse" x="419" y="216" width="27" height="124">
<path d="M445.883 216.304H419.333V339.684H445.883V216.304Z" fill="white"/>
</mask>
<g mask="url(#mask23_257_11481)">
<path d="M442.759 216.304H422.457C420.731 216.304 419.333 217.703 419.333 219.428V233.484C419.333 235.209 420.731 236.607 422.457 236.607H442.759C444.485 236.607 445.883 235.209 445.883 233.484V219.428C445.883 217.703 444.485 216.304 442.759 216.304Z" fill="#DDE3E9"/>
<path d="M442.759 242.854H422.457C420.731 242.854 419.333 244.252 419.333 245.978V259.253C419.333 260.978 420.731 262.376 422.457 262.376H442.759C444.485 262.376 445.883 260.978 445.883 259.253V245.978C445.883 244.252 444.485 242.854 442.759 242.854Z" fill="#AFB9C5"/>
<path d="M442.759 268.624H422.457C420.731 268.624 419.333 270.022 419.333 271.747V285.022C419.333 286.747 420.731 288.146 422.457 288.146H442.759C444.485 288.146 445.883 286.747 445.883 285.022V271.747C445.883 270.022 444.485 268.624 442.759 268.624Z" fill="#DDE3E9"/>
<path d="M442.759 320.162H422.457C420.731 320.162 419.333 321.56 419.333 323.285V336.56C419.333 338.285 420.731 339.684 422.457 339.684H442.759C444.485 339.684 445.883 338.285 445.883 336.56V323.285C445.883 321.56 444.485 320.162 442.759 320.162Z" fill="#DDE3E9"/>
<path d="M442.759 294.393H422.457C420.731 294.393 419.333 295.791 419.333 297.516V310.791C419.333 312.516 420.731 313.915 422.457 313.915H442.759C444.485 313.915 445.883 312.516 445.883 310.791V297.516C445.883 295.791 444.485 294.393 442.759 294.393Z" fill="#C5CFD6"/>
</g>
</g>
<mask id="mask24_257_11481" style="mask-type:luminance" maskUnits="userSpaceOnUse" x="223" y="133" width="177" height="221">
<path d="M399.031 133.531H223.332V353.74H399.031V133.531Z" fill="white"/>
</mask>
<g mask="url(#mask24_257_11481)">
<mask id="mask25_257_11481" style="mask-type:luminance" maskUnits="userSpaceOnUse" x="223" y="133" width="177" height="38">
<path d="M399.031 133.531H223.332V170.232H399.031V133.531Z" fill="white"/>
</mask>
<g mask="url(#mask25_257_11481)">
<path d="M395.907 133.531H226.456C224.73 133.531 223.332 134.929 223.332 136.654V167.109C223.332 168.834 224.73 170.232 226.456 170.232H395.907C397.632 170.232 399.031 168.834 399.031 167.109V136.654C399.031 134.929 397.632 133.531 395.907 133.531Z" fill="white"/>
<mask id="mask26_257_11481" style="mask-type:luminance" maskUnits="userSpaceOnUse" x="230" y="144" width="131" height="16">
<path d="M360.768 144.541H230.36V159.222H360.768V144.541Z" fill="white"/>
</mask>
<g mask="url(#mask26_257_11481)">
<path d="M358.425 144.541H232.703C231.409 144.541 230.36 145.59 230.36 146.884V147.704C230.36 148.997 231.409 150.046 232.703 150.046H358.425C359.719 150.046 360.768 148.997 360.768 147.704V146.884C360.768 145.59 359.719 144.541 358.425 144.541Z" fill="#DDE3E9"/>
<path d="M315.552 153.716H232.703C231.409 153.716 230.36 154.765 230.36 156.059V156.879C230.36 158.173 231.409 159.222 232.703 159.222H315.552C316.845 159.222 317.894 158.173 317.894 156.879V156.059C317.894 154.765 316.845 153.716 315.552 153.716Z" fill="#DDE3E9"/>
</g>
<path fill-rule="evenodd" clip-rule="evenodd" d="M380.253 157.348C383.272 157.348 385.719 154.901 385.719 151.882C385.719 148.863 383.272 146.416 380.253 146.416C377.234 146.416 374.787 148.863 374.787 151.882C374.787 154.901 377.234 157.348 380.253 157.348Z" fill="#DDE3E9"/>
<path fill-rule="evenodd" clip-rule="evenodd" d="M380.254 154.224C381.548 154.224 382.596 153.176 382.596 151.882C382.596 150.588 381.548 149.539 380.254 149.539C378.96 149.539 377.911 150.588 377.911 151.882C377.911 153.176 378.96 154.224 380.254 154.224Z" fill="#F2F2F2"/>
</g>
<mask id="mask27_257_11481" style="mask-type:luminance" maskUnits="userSpaceOnUse" x="223" y="176" width="177" height="31">
<path d="M399.031 176.479H223.332V206.934H399.031V176.479Z" fill="white"/>
</mask>
<g mask="url(#mask27_257_11481)">
<path d="M395.907 176.479H226.456C224.73 176.479 223.332 177.878 223.332 179.603V203.81C223.332 205.535 224.73 206.934 226.456 206.934H395.907C397.632 206.934 399.031 205.535 399.031 203.81V179.603C399.031 177.878 397.632 176.479 395.907 176.479Z" fill="white"/>
<mask id="mask28_257_11481" style="mask-type:luminance" maskUnits="userSpaceOnUse" x="230" y="185" width="131" height="13">
<path d="M360.768 185.616H230.36V197.797H360.768V185.616Z" fill="white"/>
</mask>
<g mask="url(#mask28_257_11481)">
<path d="M358.484 185.616H232.644C231.383 185.616 230.36 186.638 230.36 187.9C230.36 189.161 231.383 190.184 232.644 190.184H358.484C359.745 190.184 360.768 189.161 360.768 187.9C360.768 186.638 359.745 185.616 358.484 185.616Z" fill="#DDE3E9"/>
<path d="M315.61 193.229H232.644C231.383 193.229 230.36 194.252 230.36 195.514C230.36 196.775 231.383 197.798 232.644 197.798H315.61C316.872 197.798 317.894 196.775 317.894 195.514C317.894 194.252 316.872 193.229 315.61 193.229Z" fill="#DDE3E9"/>
</g>
<path fill-rule="evenodd" clip-rule="evenodd" d="M380.253 197.173C383.272 197.173 385.719 194.726 385.719 191.707C385.719 188.688 383.272 186.241 380.253 186.241C377.234 186.241 374.787 188.688 374.787 191.707C374.787 194.726 377.234 197.173 380.253 197.173Z" fill="#DDE3E9"/>
<path fill-rule="evenodd" clip-rule="evenodd" d="M380.254 194.05C381.548 194.05 382.596 193.001 382.596 191.707C382.596 190.413 381.548 189.364 380.254 189.364C378.96 189.364 377.911 190.413 377.911 191.707C377.911 193.001 378.96 194.05 380.254 194.05Z" fill="#F2F2F2"/>
</g>
<mask id="mask29_257_11481" style="mask-type:luminance" maskUnits="userSpaceOnUse" x="223" y="213" width="177" height="31">
<path d="M399.031 213.181H223.332V243.635H399.031V213.181Z" fill="white"/>
</mask>
<g mask="url(#mask29_257_11481)">
<path d="M395.907 213.181H226.456C224.73 213.181 223.332 214.579 223.332 216.304V240.512C223.332 242.237 224.73 243.635 226.456 243.635H395.907C397.632 243.635 399.031 242.237 399.031 240.512V216.304C399.031 214.579 397.632 213.181 395.907 213.181Z" fill="white"/>
<mask id="mask30_257_11481" style="mask-type:luminance" maskUnits="userSpaceOnUse" x="230" y="222" width="131" height="13">
<path d="M360.768 222.317H230.36V234.499H360.768V222.317Z" fill="white"/>
</mask>
<g mask="url(#mask30_257_11481)">
<path d="M358.484 222.317H232.644C231.383 222.317 230.36 223.34 230.36 224.601C230.36 225.862 231.383 226.885 232.644 226.885H358.484C359.745 226.885 360.768 225.862 360.768 224.601C360.768 223.34 359.745 222.317 358.484 222.317Z" fill="#DDE3E9"/>
<path d="M315.61 229.931H232.644C231.383 229.931 230.36 230.953 230.36 232.215C230.36 233.476 231.383 234.499 232.644 234.499H315.61C316.872 234.499 317.894 233.476 317.894 232.215C317.894 230.953 316.872 229.931 315.61 229.931Z" fill="#DDE3E9"/>
</g>
<path fill-rule="evenodd" clip-rule="evenodd" d="M380.253 233.874C383.272 233.874 385.719 231.427 385.719 228.408C385.719 225.389 383.272 222.942 380.253 222.942C377.234 222.942 374.787 225.389 374.787 228.408C374.787 231.427 377.234 233.874 380.253 233.874Z" fill="#DDE3E9"/>
<path fill-rule="evenodd" clip-rule="evenodd" d="M380.254 230.751C381.548 230.751 382.596 229.702 382.596 228.408C382.596 227.114 381.548 226.065 380.254 226.065C378.96 226.065 377.911 227.114 377.911 228.408C377.911 229.702 378.96 230.751 380.254 230.751Z" fill="#AFB9C5"/>
</g>
<mask id="mask31_257_11481" style="mask-type:luminance" maskUnits="userSpaceOnUse" x="223" y="323" width="177" height="31">
<path d="M399.031 323.285H223.332V353.74H399.031V323.285Z" fill="white"/>
</mask>
<g mask="url(#mask31_257_11481)">
<path d="M395.907 323.285H226.456C224.73 323.285 223.332 324.684 223.332 326.409V350.616C223.332 352.341 224.73 353.74 226.456 353.74H395.907C397.632 353.74 399.031 352.341 399.031 350.616V326.409C399.031 324.684 397.632 323.285 395.907 323.285Z" fill="white"/>
<mask id="mask32_257_11481" style="mask-type:luminance" maskUnits="userSpaceOnUse" x="230" y="332" width="131" height="13">
<path d="M360.768 332.421H230.36V344.603H360.768V332.421Z" fill="white"/>
</mask>
<g mask="url(#mask32_257_11481)">
<path d="M358.484 332.421H232.644C231.383 332.421 230.36 333.444 230.36 334.705C230.36 335.967 231.383 336.99 232.644 336.99H358.484C359.745 336.99 360.768 335.967 360.768 334.705C360.768 333.444 359.745 332.421 358.484 332.421Z" fill="#DDE3E9"/>
<path d="M315.61 340.035H232.644C231.383 340.035 230.36 341.058 230.36 342.319C230.36 343.581 231.383 344.603 232.644 344.603H315.61C316.872 344.603 317.894 343.581 317.894 342.319C317.894 341.058 316.872 340.035 315.61 340.035Z" fill="#DDE3E9"/>
</g>
<path fill-rule="evenodd" clip-rule="evenodd" d="M380.253 343.979C383.272 343.979 385.719 341.531 385.719 338.513C385.719 335.494 383.272 333.046 380.253 333.046C377.234 333.046 374.787 335.494 374.787 338.513C374.787 341.531 377.234 343.979 380.253 343.979Z" fill="#DDE3E9"/>
<path fill-rule="evenodd" clip-rule="evenodd" d="M380.254 340.855C381.548 340.855 382.596 339.806 382.596 338.513C382.596 337.219 381.548 336.17 380.254 336.17C378.96 336.17 377.911 337.219 377.911 338.513C377.911 339.806 378.96 340.855 380.254 340.855Z" fill="#F2F2F2"/>
</g>
<mask id="mask33_257_11481" style="mask-type:luminance" maskUnits="userSpaceOnUse" x="223" y="286" width="177" height="32">
<path d="M399.031 286.583H223.332V317.038H399.031V286.583Z" fill="white"/>
</mask>
<g mask="url(#mask33_257_11481)">
<path d="M395.907 286.583H226.456C224.73 286.583 223.332 287.982 223.332 289.707V313.914C223.332 315.639 224.73 317.038 226.456 317.038H395.907C397.632 317.038 399.031 315.639 399.031 313.914V289.707C399.031 287.982 397.632 286.583 395.907 286.583Z" fill="white"/>
<mask id="mask34_257_11481" style="mask-type:luminance" maskUnits="userSpaceOnUse" x="230" y="295" width="131" height="13">
<path d="M360.768 295.72H230.36V307.901H360.768V295.72Z" fill="white"/>
</mask>
<g mask="url(#mask34_257_11481)">
<path d="M358.484 295.72H232.644C231.383 295.72 230.36 296.742 230.36 298.004C230.36 299.265 231.383 300.288 232.644 300.288H358.484C359.745 300.288 360.768 299.265 360.768 298.004C360.768 296.742 359.745 295.72 358.484 295.72Z" fill="#DDE3E9"/>
<path d="M315.61 303.333H232.644C231.383 303.333 230.36 304.356 230.36 305.618C230.36 306.879 231.383 307.902 232.644 307.902H315.61C316.872 307.902 317.894 306.879 317.894 305.618C317.894 304.356 316.872 303.333 315.61 303.333Z" fill="#DDE3E9"/>
</g>
<path fill-rule="evenodd" clip-rule="evenodd" d="M380.253 307.277C383.272 307.277 385.719 304.83 385.719 301.811C385.719 298.792 383.272 296.345 380.253 296.345C377.234 296.345 374.787 298.792 374.787 301.811C374.787 304.83 377.234 307.277 380.253 307.277Z" fill="#DDE3E9"/>
<path fill-rule="evenodd" clip-rule="evenodd" d="M380.254 304.154C381.548 304.154 382.596 303.105 382.596 301.811C382.596 300.517 381.548 299.468 380.254 299.468C378.96 299.468 377.911 300.517 377.911 301.811C377.911 303.105 378.96 304.154 380.254 304.154Z" fill="#F2F2F2"/>
</g>
<mask id="mask35_257_11481" style="mask-type:luminance" maskUnits="userSpaceOnUse" x="223" y="249" width="177" height="32">
<path d="M399.031 249.882H223.332V280.337H399.031V249.882Z" fill="white"/>
</mask>
<g mask="url(#mask35_257_11481)">
<path d="M395.907 249.882H226.456C224.73 249.882 223.332 251.281 223.332 253.006V277.213C223.332 278.938 224.73 280.337 226.456 280.337H395.907C397.632 280.337 399.031 278.938 399.031 277.213V253.006C399.031 251.281 397.632 249.882 395.907 249.882Z" fill="white"/>
<mask id="mask36_257_11481" style="mask-type:luminance" maskUnits="userSpaceOnUse" x="230" y="259" width="131" height="13">
<path d="M360.768 259.019H230.36V271.2H360.768V259.019Z" fill="white"/>
</mask>
<g mask="url(#mask36_257_11481)">
<path d="M358.484 259.019H232.644C231.383 259.019 230.36 260.041 230.36 261.303C230.36 262.564 231.383 263.587 232.644 263.587H358.484C359.745 263.587 360.768 262.564 360.768 261.303C360.768 260.041 359.745 259.019 358.484 259.019Z" fill="#DDE3E9"/>
<path d="M315.61 266.632H232.644C231.383 266.632 230.36 267.655 230.36 268.916C230.36 270.178 231.383 271.2 232.644 271.2H315.61C316.872 271.2 317.894 270.178 317.894 268.916C317.894 267.655 316.872 266.632 315.61 266.632Z" fill="#DDE3E9"/>
</g>
<path fill-rule="evenodd" clip-rule="evenodd" d="M380.253 270.576C383.272 270.576 385.719 268.129 385.719 265.11C385.719 262.091 383.272 259.644 380.253 259.644C377.234 259.644 374.787 262.091 374.787 265.11C374.787 268.129 377.234 270.576 380.253 270.576Z" fill="#DDE3E9"/>
<path fill-rule="evenodd" clip-rule="evenodd" d="M380.254 267.452C381.548 267.452 382.596 266.404 382.596 265.11C382.596 263.816 381.548 262.767 380.254 262.767C378.96 262.767 377.911 263.816 377.911 265.11C377.911 266.404 378.96 267.452 380.254 267.452Z" fill="#F2F2F2"/>
</g>
</g>
</g>
<path fill-rule="evenodd" clip-rule="evenodd" d="M537.237 232.216C534.157 230.127 530.061 229.58 526.375 229.58C511.979 229.58 498.447 234.921 486.757 242.88C480.351 247.24 474.621 252.794 469.563 258.575C466.642 261.914 464.039 265.524 462.195 269.54C460.951 272.25 460.098 275.075 459.519 277.987C458.814 281.537 458.253 285.159 458 288.768C457.9 290.189 457.075 297.73 459.438 297.858C459.424 298.044 459.421 298.221 459.435 298.38C454.304 306.403 451.135 315.805 448.195 324.718C445.637 332.476 443.358 340.298 441.879 348.323C439.931 358.887 438.651 369.612 438.043 380.329C437.913 382.632 437.823 384.936 437.746 387.242C437.68 389.209 437.614 391.176 437.549 393.144C437.477 395.348 437.089 397.886 437.44 400.077C437.745 401.986 439.396 401.697 439.47 399.798C439.558 397.504 439.543 395.206 439.644 392.911C439.777 389.865 439.915 386.819 440.064 383.773C441.102 362.618 444.995 341.773 452.179 321.789C455.087 313.702 458.419 306.048 462.701 298.567C466.466 291.989 470.995 285.621 475.624 279.691C480.123 273.927 484.801 268.298 490.313 263.415C494.787 259.453 499.708 256.001 504.766 252.789C511.191 248.71 517.603 244.729 524.563 241.598C528.18 239.971 531.866 238.514 535.512 236.951C536.168 236.671 536.871 236.398 537.502 236.073C539.606 234.987 538.914 233.353 537.237 232.216Z" fill="#A6C01E"/>
<path fill-rule="evenodd" clip-rule="evenodd" d="M479.32 306.106C485.159 306.106 490.355 306.865 495.734 309.185C500.378 311.188 504.611 313.839 508.72 316.725C514.499 320.785 519.052 325.509 522.238 331.77C524.142 335.509 525.539 340.801 524.26 344.881C522.755 349.685 518.619 353.692 513.172 352.846C509.804 352.322 506.718 350.093 504.158 347.995C501.095 345.484 498.644 342.466 496.62 339.114C493.318 333.645 491.379 327.464 488.574 321.749C487.243 319.037 485.957 316.307 484.362 313.729C483.574 312.453 482.734 311.189 481.536 310.24C480.896 309.732 478.196 308.855 479.228 307.715C464.087 307.914 450.673 319.543 447.766 333.937C447.495 335.279 447.284 336.631 447.06 337.982C446.919 338.834 446.976 341.977 446.214 342.522C444.534 343.723 445.239 340.074 445.312 339.548C445.499 338.19 445.697 336.834 445.906 335.479C447.041 328.112 450.321 321.264 455.79 316.01C462.044 310.003 470.483 306.106 479.32 306.106Z" fill="#B5CF2E"/>
<path fill-rule="evenodd" clip-rule="evenodd" d="M58.5181 287.939C73.0944 312.393 90.0713 336.071 100.267 362.808C99.8558 359.656 99.4201 356.508 98.932 353.365C96.3457 336.7 93.1301 320.157 89.752 303.634C88.0317 295.222 86.2114 286.839 84.3451 278.458C83.3417 273.956 82.35 269.452 81.3255 264.955C81.0771 263.865 80.864 261.962 80.5539 260.034C90.4618 292.547 100.017 325.085 107.006 358.38C107.922 362.749 108.703 367.111 109.343 371.466C109.561 370.472 109.777 369.479 110.012 368.488C112.84 356.613 117.082 344.833 122.133 333.729C124.547 328.419 127.32 323.226 130.586 318.386C132.622 315.369 137.425 311.784 139.282 308.694C129.123 327.327 125.455 350.641 119.589 370.898C118.157 375.842 116.717 380.777 115.305 385.721C124.151 367.981 137.875 353.405 156.958 347.089C133.859 362.35 120.005 389.078 110.669 416.413C110.638 416.737 110.602 417.061 110.57 417.386C113.317 412.172 116.778 407.456 121.467 404.153C131.507 397.082 142.642 399.142 152.38 405.208C144.737 400.35 130.926 404.773 124.495 409.711C119.892 413.245 115.958 417.987 112.541 422.613C111.723 423.722 110.605 425.016 109.426 426.396C107.772 437.134 105.076 447.798 101.259 458.378C101.889 455.341 101.434 450.485 101.609 448.221C101.628 447.976 101.643 447.73 101.662 447.487C101.082 449.803 100.521 452.092 99.9815 454.346C101.054 450.047 101.637 445.558 102.092 441.023C102.209 439.075 102.324 437.126 102.444 435.178C102.406 431.479 102.254 427.766 101.996 424.047C101.083 420.433 100.06 417.024 99.2163 414.188C96.1732 403.958 91.7104 394.158 86.2185 385.015C81.2075 376.671 75.2091 369.114 68.2846 362.279C64.5516 358.594 60.6449 355.087 56.7932 351.53C55.4004 350.244 52.9109 347.082 50.7578 345.433C66.4383 354.078 82.578 363.43 94.0171 377.36C92.6756 372.21 91.2192 367.132 89.6786 362.157C81.8611 336.915 71.991 310.754 58.5181 287.939Z" fill="white"/>
<path fill-rule="evenodd" clip-rule="evenodd" d="M74.1836 426.362C74.1836 454.395 76.4035 477.119 106.2 477.119C135.996 477.119 138.216 454.395 138.216 426.362" fill="white"/>
<path d="M410.744 67.9369C410.744 66.6431 409.695 65.5942 408.401 65.5942C407.107 65.5942 406.059 66.6431 406.059 67.9369V82.7737C406.059 84.0675 407.107 85.1163 408.401 85.1163C409.695 85.1163 410.744 84.0675 410.744 82.7737V67.9369Z" fill="#DDE3E9"/>
<path d="M421.677 55.4427C421.677 54.1489 420.628 53.1001 419.334 53.1001C418.04 53.1001 416.991 54.1489 416.991 55.4427V82.7736C416.991 84.0674 418.04 85.1163 419.334 85.1163C420.628 85.1163 421.677 84.0674 421.677 82.7736V55.4427Z" fill="#DDE3E9"/>
<path d="M432.609 49.1957C432.609 47.9019 431.56 46.853 430.266 46.853C428.973 46.853 427.924 47.9019 427.924 49.1957V82.7736C427.924 84.0674 428.973 85.1163 430.266 85.1163C431.56 85.1163 432.609 84.0674 432.609 82.7736V49.1957Z" fill="#DDE3E9"/>
<path d="M443.541 55.4427C443.541 54.1489 442.492 53.1001 441.198 53.1001C439.904 53.1001 438.855 54.1489 438.855 55.4427V82.7736C438.855 84.0674 439.904 85.1163 441.198 85.1163C442.492 85.1163 443.541 84.0674 443.541 82.7736V55.4427Z" fill="#DDE3E9"/>
<path d="M454.474 42.9486C454.474 41.6548 453.426 40.606 452.132 40.606C450.838 40.606 449.789 41.6548 449.789 42.9486V82.7736C449.789 84.0674 450.838 85.1162 452.132 85.1162C453.426 85.1162 454.474 84.0674 454.474 82.7736V42.9486Z" fill="#C5CFD6"/>
<path fill-rule="evenodd" clip-rule="evenodd" d="M21.8643 279.756C21.8643 271.058 28.8938 263.938 37.4819 263.938V279.756L26.8088 291.269C23.7727 288.454 21.8643 284.325 21.8643 279.756Z" fill="#F2F2F2"/>
<path fill-rule="evenodd" clip-rule="evenodd" d="M37.0693 279.556H52.841C52.841 283.633 51.1779 287.453 48.5487 290.229C45.657 293.265 41.539 295.173 37.0693 295.173C32.9522 295.173 29.1835 293.526 26.291 290.923L37.0693 279.556Z" fill="#AFB9C5"/>
<path fill-rule="evenodd" clip-rule="evenodd" d="M53.0996 279.556C53.0996 270.968 46.0701 263.938 37.4819 263.938V279.556H53.0996ZM29.6731 263.938L35.9201 277.994L21.8643 271.747C23.2542 268.104 26.3754 265.328 29.6731 263.938Z" fill="#C5CFD6"/>
<path fill-rule="evenodd" clip-rule="evenodd" d="M530.036 286.724C528.536 288.317 526.41 289.317 524.046 289.317C519.503 289.317 515.821 285.646 515.821 281.118C515.821 276.59 519.503 272.919 524.046 272.919V257.691C511.123 257.691 500.545 268.236 500.545 281.118C500.545 294 511.123 304.544 524.046 304.544C530.834 304.544 536.969 301.682 541.151 297.128L530.036 286.724Z" fill="#F2F2F2"/>
<path fill-rule="evenodd" clip-rule="evenodd" d="M523.973 257.691V272.919C528.501 272.919 532.172 276.59 532.172 281.118H547.399C547.399 268.236 536.855 257.691 523.973 257.691Z" fill="#AFB9C5"/>
<path fill-rule="evenodd" clip-rule="evenodd" d="M531.857 281.118C531.857 283.778 530.604 286.143 528.658 287.67L538.233 299.859C543.807 295.495 547.399 288.73 547.399 281.118H531.857Z" fill="#C5CFD6"/>
<path fill-rule="evenodd" clip-rule="evenodd" d="M381.11 71.454C379.956 72.6753 378.321 73.4422 376.502 73.4422C373.008 73.4422 370.176 70.6278 370.176 67.1561C370.176 63.6844 373.008 60.87 376.502 60.87V49.1958C366.562 49.1958 358.425 57.2797 358.425 67.1561C358.425 77.0325 366.562 85.1164 376.502 85.1164C381.724 85.1164 386.443 82.9213 389.66 79.43L381.11 71.454Z" fill="#F2F2F2"/>
<path fill-rule="evenodd" clip-rule="evenodd" d="M376.386 49.1958V60.87C379.858 60.87 382.672 63.6844 382.672 67.1561H394.346C394.346 57.2797 386.262 49.1958 376.386 49.1958Z" fill="#AFB9C5"/>
<path fill-rule="evenodd" clip-rule="evenodd" d="M382.69 67.1558C382.69 69.1511 381.75 70.9248 380.29 72.0699L387.471 81.2116C391.652 77.9388 394.346 72.8656 394.346 67.1558H382.69Z" fill="#C5CFD6"/>
<path fill-rule="evenodd" clip-rule="evenodd" d="M96.8365 85.1056C96.833 85.1143 96.8295 85.1231 96.8242 85.1336C96.8295 85.1248 96.8365 85.0898 96.8365 85.1056Z" fill="#C5CFD6"/>
<path fill-rule="evenodd" clip-rule="evenodd" d="M96.8282 85.1199C96.8282 85.1219 96.8262 85.1259 96.8262 85.1299C96.8262 85.1199 96.8442 85.0899 96.8282 85.1199Z" fill="#C5CFD6"/>
<path fill-rule="evenodd" clip-rule="evenodd" d="M96.8824 84.9849C96.8714 85.0161 96.8573 85.0459 96.8448 85.0771C96.8511 85.0615 96.8573 85.049 96.8636 85.0333C96.7009 85.44 96.8042 85.1757 96.8824 84.9849Z" fill="#C5CFD6"/>
<path fill-rule="evenodd" clip-rule="evenodd" d="M96.8469 85.0796C96.8405 85.0938 96.8342 85.1096 96.8279 85.1238C96.7821 85.2122 96.8469 85.0796 96.8469 85.0796Z" fill="#C5CFD6"/>
<path fill-rule="evenodd" clip-rule="evenodd" d="M96.8216 85.1321C96.8111 85.1531 96.8706 85.0516 96.8216 85.1321V85.1321Z" fill="#C5CFD6"/>
<path fill-rule="evenodd" clip-rule="evenodd" d="M96.8281 85.1187L96.8321 85.1147C96.8301 85.1167 96.8301 85.1187 96.8281 85.1187Z" fill="#C5CFD6"/>
<path d="M130.407 44.5103H62.4702C60.7451 44.5103 59.3467 45.9087 59.3467 47.6338V90.5823C59.3467 92.3074 60.7451 93.7058 62.4702 93.7058H130.407C132.132 93.7058 133.531 92.3074 133.531 90.5823V47.6338C133.531 45.9087 132.132 44.5103 130.407 44.5103Z" fill="#DDE3E9"/>
<path fill-rule="evenodd" clip-rule="evenodd" d="M87.4585 58.5664L65.5938 93.7061H109.323L87.4585 58.5664Z" fill="#AFB9C5"/>
<path fill-rule="evenodd" clip-rule="evenodd" d="M108.933 67.9365L89.8018 93.7056H128.065L108.933 67.9365Z" fill="#C5CFD6"/>
<path fill-rule="evenodd" clip-rule="evenodd" d="M117.132 67.9367C121.014 67.9367 124.16 64.7903 124.16 60.9088C124.16 57.0273 121.014 53.8809 117.132 53.8809C113.251 53.8809 110.104 57.0273 110.104 60.9088C110.104 64.7903 113.251 67.9367 117.132 67.9367Z" fill="white"/>
<path fill-rule="evenodd" clip-rule="evenodd" d="M469.305 418.543C469.308 418.551 469.312 418.56 469.317 418.571C469.312 418.562 469.305 418.527 469.305 418.543Z" fill="#C5CFD6"/>
<path fill-rule="evenodd" clip-rule="evenodd" d="M469.313 418.556C469.313 418.558 469.315 418.562 469.315 418.566C469.315 418.556 469.297 418.526 469.313 418.556Z" fill="#C5CFD6"/>
<path fill-rule="evenodd" clip-rule="evenodd" d="M469.258 418.422C469.269 418.453 469.283 418.483 469.295 418.514C469.289 418.499 469.283 418.486 469.277 418.47C469.439 418.877 469.336 418.613 469.258 418.422Z" fill="#C5CFD6"/>
<path fill-rule="evenodd" clip-rule="evenodd" d="M469.293 418.516C469.299 418.53 469.306 418.546 469.312 418.56C469.358 418.649 469.293 418.516 469.293 418.516Z" fill="#C5CFD6"/>
<path fill-rule="evenodd" clip-rule="evenodd" d="M469.32 418.569C469.271 418.488 469.331 418.59 469.32 418.569V418.569Z" fill="#C5CFD6"/>
<path fill-rule="evenodd" clip-rule="evenodd" d="M469.313 418.555L469.309 418.551C469.311 418.553 469.311 418.555 469.313 418.555Z" fill="#C5CFD6"/>
<path d="M416.992 358.425H521.63C523.355 358.425 524.754 359.823 524.754 361.548V428.704C524.754 430.429 523.355 431.828 521.63 431.828H416.992C415.267 431.828 413.869 430.429 413.869 428.704V361.548C413.869 359.823 415.267 358.425 416.992 358.425Z" fill="#DDE3E9"/>
<path fill-rule="evenodd" clip-rule="evenodd" d="M483.581 379.509L515.64 431.828H451.521L483.581 379.509Z" fill="#AFB9C5"/>
<path fill-rule="evenodd" clip-rule="evenodd" d="M450.526 393.522L478.868 431.828H422.184L450.526 393.522Z" fill="#C5CFD6"/>
<path fill-rule="evenodd" clip-rule="evenodd" d="M438.466 393.565C432.643 393.565 427.924 388.845 427.924 383.023C427.924 377.201 432.643 372.481 438.466 372.481C444.288 372.481 449.008 377.201 449.008 383.023C449.008 388.845 444.288 393.565 438.466 393.565Z" fill="white"/>
<defs>
<filter id="filter0_d_257_11481" x="26.4541" y="279.556" width="524.944" height="190.727" filterUnits="userSpaceOnUse" color-interpolation-filters="sRGB">
<feFlood flood-opacity="0" result="BackgroundImageFix"/>
<feColorMatrix in="SourceAlpha" type="matrix" values="0 0 0 0 0 0 0 0 0 0 0 0 0 0 0 0 0 0 127 0" result="hardAlpha"/>
<feOffset dy="4"/>
<feGaussianBlur stdDeviation="2"/>
<feComposite in2="hardAlpha" operator="out"/>
<feColorMatrix type="matrix" values="0 0 0 0 0 0 0 0 0 0 0 0 0 0 0 0 0 0 0.25 0"/>
<feBlend mode="normal" in2="BackgroundImageFix" result="effect1_dropShadow_257_11481"/>
<feBlend mode="normal" in="SourceGraphic" in2="effect1_dropShadow_257_11481" result="shape"/>
</filter>
</defs>
</svg>
