<svg width="609" height="559" viewBox="0 0 609 559" fill="none" xmlns="http://www.w3.org/2000/svg">
<path fill-rule="evenodd" clip-rule="evenodd" d="M458.71 157.013C482.772 157.013 502.279 137.507 502.279 113.444C502.279 89.3816 482.772 69.875 458.71 69.875C434.647 69.875 415.141 89.3816 415.141 113.444C415.141 137.507 434.647 157.013 458.71 157.013Z" fill="#F2F2F2"/>
<path fill-rule="evenodd" clip-rule="evenodd" d="M458.708 81.384C460.071 81.384 461.175 80.2799 461.175 78.9178C461.175 77.5558 460.071 76.4517 458.708 76.4517C457.346 76.4517 456.242 77.5558 456.242 78.9178C456.242 80.2799 457.346 81.384 458.708 81.384Z" fill="black" fill-opacity="0.1"/>
<path fill-rule="evenodd" clip-rule="evenodd" d="M424.183 115.91C425.545 115.91 426.649 114.806 426.649 113.444C426.649 112.082 425.545 110.978 424.183 110.978C422.821 110.978 421.717 112.082 421.717 113.444C421.717 114.806 422.821 115.91 424.183 115.91Z" fill="black" fill-opacity="0.1"/>
<path fill-rule="evenodd" clip-rule="evenodd" d="M493.236 115.91C494.598 115.91 495.702 114.806 495.702 113.444C495.702 112.082 494.598 110.978 493.236 110.978C491.874 110.978 490.77 112.082 490.77 113.444C490.77 114.806 491.874 115.91 493.236 115.91Z" fill="black" fill-opacity="0.1"/>
<path fill-rule="evenodd" clip-rule="evenodd" d="M458.708 150.437C460.071 150.437 461.175 149.333 461.175 147.971C461.175 146.608 460.071 145.504 458.708 145.504C457.346 145.504 456.242 146.608 456.242 147.971C456.242 149.333 457.346 150.437 458.708 150.437Z" fill="black" fill-opacity="0.1"/>
<path fill-rule="evenodd" clip-rule="evenodd" d="M458.709 83.8501L460.353 112.622H457.064L458.709 83.8501Z" fill="#AFB9C5"/>
<path fill-rule="evenodd" clip-rule="evenodd" d="M473.258 127.993L458.145 115.205L460.47 112.88L473.258 127.993Z" fill="#AFB9C5"/>
<path fill-rule="evenodd" clip-rule="evenodd" d="M458.708 116.732C460.524 116.732 461.996 115.26 461.996 113.444C461.996 111.628 460.524 110.156 458.708 110.156C456.892 110.156 455.42 111.628 455.42 113.444C455.42 115.26 456.892 116.732 458.708 116.732Z" fill="#C5CFD6"/>
<mask id="mask0_341_7538" style="mask-type:luminance" maskUnits="userSpaceOnUse" x="23" y="200" width="559" height="267">
<path d="M581.196 200.583H23.8398V466.108H581.196V200.583Z" fill="white"/>
</mask>
<g mask="url(#mask0_341_7538)">
<g opacity="0.345889">
<path fill-rule="evenodd" clip-rule="evenodd" d="M412.504 342.293C406.836 278.954 102.728 156.704 46.2716 216.697C-10.1849 276.69 44.091 389.282 162.403 418.113C280.715 446.945 418.172 405.632 412.504 342.293Z" fill="#F2F2F2"/>
<path fill-rule="evenodd" clip-rule="evenodd" d="M224.541 383.448C229.618 329.639 502.025 225.783 552.596 276.749C603.168 327.715 590.368 434.918 484.388 459.411C378.409 483.905 219.464 437.256 224.541 383.448Z" fill="#DDE3E9"/>
</g>
</g>
<mask id="mask1_341_7538" style="mask-type:luminance" maskUnits="userSpaceOnUse" x="20" y="0" width="82" height="173">
<path d="M101.935 0H20.5508V172.632H101.935V0Z" fill="white"/>
</mask>
<g mask="url(#mask1_341_7538)">
<path fill-rule="evenodd" clip-rule="evenodd" d="M61.2422 172.364C80.5376 172.364 96.1797 164.083 96.1797 153.867C96.1797 143.653 80.5376 135.371 61.2422 135.371C41.9467 135.371 26.3047 143.653 26.3047 153.867C26.3047 164.083 41.9467 172.364 61.2422 172.364Z" fill="#F2F2F2"/>
<path fill-rule="evenodd" clip-rule="evenodd" d="M101.935 166.609C101.935 143.909 83.7161 125.506 61.2427 125.506C38.7692 125.506 20.5508 143.909 20.5508 166.609" fill="#DDE3E9"/>
<path d="M63.2978 0H59.1875V131.529H63.2978V0Z" fill="#DDE3E9"/>
</g>
<mask id="mask2_341_7538" style="mask-type:luminance" maskUnits="userSpaceOnUse" x="94" y="0" width="62" height="131">
<path d="M155.369 0H94.5371V130.707H155.369V0Z" fill="white"/>
</mask>
<g mask="url(#mask2_341_7538)">
<g opacity="0.7">
<path fill-rule="evenodd" clip-rule="evenodd" d="M124.953 130.707C139.376 130.707 151.068 124.024 151.068 115.78C151.068 107.537 139.376 100.854 124.953 100.854C110.53 100.854 98.8379 107.537 98.8379 115.78C98.8379 124.024 110.53 130.707 124.953 130.707Z" fill="#F2F2F2"/>
<path fill-rule="evenodd" clip-rule="evenodd" d="M155.369 126.063C155.369 107.744 141.752 92.8926 124.953 92.8926C108.155 92.8926 94.5371 107.744 94.5371 126.063" fill="#DDE3E9"/>
<path d="M127.419 0H123.309V111.8H127.419V0Z" fill="#DDE3E9"/>
</g>
</g>
<path d="M480.082 192.556L495.346 177.285C497.914 174.716 502.079 174.716 504.648 177.285L545.284 217.938C547.75 220.405 549.135 223.75 549.135 227.237V496.523" stroke="#CBCBCB" stroke-width="8"/>
<path d="M570.51 495.701H526.941C525.579 495.701 524.475 496.805 524.475 498.167V498.989C524.475 500.351 525.579 501.456 526.941 501.456H570.51C571.872 501.456 572.976 500.351 572.976 498.989V498.167C572.976 496.805 571.872 495.701 570.51 495.701Z" fill="#AFB9C5"/>
<path d="M450.899 183.594C461.494 173 478.67 173 489.264 183.594C499.858 194.188 499.858 211.364 489.264 221.959L472.989 238.235L434.623 199.87L450.899 183.594Z" fill="#C5CFD6"/>
<path fill-rule="evenodd" clip-rule="evenodd" d="M450.677 222.389C461.27 232.983 471.55 239.88 473.637 237.793C475.724 235.707 468.828 225.427 458.233 214.833C447.639 204.238 437.359 197.342 435.273 199.428C433.186 201.516 440.083 211.795 450.677 222.389Z" fill="#F2F2F2"/>
<path d="M301.348 502.647H229.275V394.105H301.348V502.647Z" fill="url(#paint0_linear_341_7538)"/>
<path d="M301.35 502.647H328.841V394.105H301.35V502.647Z" fill="white"/>
<path d="M325.866 402.283H305.062V398.566H325.866V402.283Z" fill="#B9D043"/>
<path d="M325.866 409.717H305.062V406H325.866V409.717Z" fill="#B9D043"/>
<path d="M325.866 417.151H305.062V413.434H325.866V417.151Z" fill="#B9D043"/>
<path d="M325.866 424.586H305.062V420.869H325.866V424.586Z" fill="#B9D043"/>
<path d="M325.866 432.021H305.062V428.303H325.866V432.021Z" fill="#B9D043"/>
<path d="M325.866 439.455H305.062V435.737H325.866V439.455Z" fill="#B9D043"/>
<path d="M325.866 446.889H305.062V443.172H325.866V446.889Z" fill="#B9D043"/>
<path d="M325.866 454.324H305.062V450.606H325.866V454.324Z" fill="#B9D043"/>
<path d="M325.866 461.758H305.062V458.041H325.866V461.758Z" fill="#B9D043"/>
<path d="M325.866 469.192H305.062V465.475H325.866V469.192Z" fill="#B9D043"/>
<path d="M325.866 476.627H305.062V472.91H325.866V476.627Z" fill="#B9D043"/>
<path d="M325.866 484.061H305.062V480.345H325.866V484.061Z" fill="#B9D043"/>
<path d="M325.866 491.496H305.062V487.778H325.866V491.496Z" fill="#B9D043"/>
<path d="M325.866 498.93H305.062V495.212H325.866V498.93Z" fill="#B9D043"/>
<path d="M233.84 493.846C235.151 493.235 236.736 492.162 237.978 491.256C238.602 490.8 239.146 490.381 239.534 490.077C239.728 489.924 239.883 489.801 239.99 489.714C239.998 489.709 240.003 489.704 240.01 489.699C244.366 490.442 247.307 490.259 249.181 489.875C250.131 489.679 250.805 489.432 251.249 489.229C251.354 489.181 251.445 489.136 251.524 489.094C253.536 492.786 254.084 496.108 254.125 498.523C254.145 499.771 254.031 500.779 253.913 501.47C253.856 501.8 253.798 502.058 253.754 502.236H217.8C217.764 501.289 218.345 500.388 219.449 499.514C220.676 498.543 222.449 497.688 224.369 496.945C226.282 496.205 228.31 495.586 230.029 495.076C230.23 495.016 230.429 494.958 230.623 494.9C232.054 494.477 233.244 494.125 233.84 493.846Z" fill="white"/>
<path d="M233.84 493.846C235.151 493.235 236.736 492.162 237.978 491.256C238.602 490.8 239.146 490.381 239.534 490.077C239.728 489.924 239.883 489.801 239.99 489.714C239.998 489.709 240.003 489.704 240.01 489.699C244.366 490.442 247.307 490.259 249.181 489.875C250.131 489.679 250.805 489.432 251.249 489.229C251.354 489.181 251.445 489.136 251.524 489.094C253.536 492.786 254.084 496.108 254.125 498.523C254.145 499.771 254.031 500.779 253.913 501.47C253.856 501.8 253.798 502.058 253.754 502.236H217.8C217.764 501.289 218.345 500.388 219.449 499.514C220.676 498.543 222.449 497.688 224.369 496.945C226.282 496.205 228.31 495.586 230.029 495.076C230.23 495.016 230.429 494.958 230.623 494.9C232.054 494.477 233.244 494.125 233.84 493.846ZM233.84 493.846L233.665 493.474" stroke="black"/>
<path d="M220.445 399.325C222.794 413.495 233.628 461.43 238.286 489.747C246.799 490.481 250.887 489.492 253.053 488.988C252.629 479.112 251.788 455.494 251.887 445.135C252.049 427.628 252.861 404.543 245.242 391.875L219.617 393.915C219.773 395.282 219.916 396.396 220.041 397.19C220.163 397.954 220.304 398.658 220.445 399.325Z" fill="white"/>
<path d="M151.307 502.647H187.939C187.939 502.647 189.986 496.338 185.549 488.521C185.549 488.521 182.601 490.808 173.769 489.261C173.769 489.261 170.084 492.289 167.539 493.474C164.98 494.671 150.32 497.454 151.307 502.647Z" fill="white"/>
<path d="M172.807 488.551C179.845 490.277 184.944 490.109 187.359 489.84C189.319 478.534 192.412 453.657 195.196 441.997C199.519 423.873 203.746 398.949 200.808 390.056L175.266 383.698C175.182 384.498 173.102 460.783 172.807 488.551Z" fill="white"/>
<path d="M273.744 357.498C273.268 352.779 268.696 349.728 264.09 350.863L244.269 355.746L220.163 361.274C211.226 363.277 200.431 365.69 190.912 367.856C180.233 370.298 173.143 378.463 175.482 389.227L176.11 392.29C177.299 398.088 182.426 402.173 188.332 401.774C212.891 400.111 264.236 394.838 269.334 392.249C276.121 388.798 278.163 376.601 273.744 357.498Z" fill="white"/>
<path d="M316.127 357.695C315.616 352.665 313.168 347.269 313.168 347.269L286.643 355.951L262.529 361.455C253.59 363.448 242.79 365.851 233.27 368.007C222.587 370.439 215.494 378.568 217.834 389.285L220.513 402.282C235.455 402.078 297.906 399.898 311.714 392.293C318.379 388.621 320.547 376.715 316.127 357.695Z" fill="white"/>
<path d="M236.858 316.368C236.858 316.368 249.476 310.611 252.948 316.384C254.848 319.544 253.534 325.415 249.23 327.88C244.928 330.345 220.61 340.733 197.658 346.525C197.658 346.525 196.678 343.301 195.098 339.911C195.098 339.911 205.394 335.598 215.63 328.338C225.866 321.076 236.858 316.368 236.858 316.368Z" fill="#F57787"/>
<path d="M240.083 277.386L229.275 320.215C229.275 320.215 230.392 331.043 241.413 325.729C252.436 320.414 259.739 286.293 259.739 286.293L240.083 277.386Z" fill="white"/>
<path d="M258.254 301.175C256.93 300.852 255.667 300.497 254.448 300.128C253.199 299.758 252.012 299.374 250.885 298.973C240.716 295.447 235.221 291.213 235.221 291.213C238.417 277.157 242.27 267.72 245.695 261.5C245.786 261.346 245.877 261.208 245.954 261.038C246.046 260.885 246.135 260.729 246.227 260.576C248.069 257.481 250.719 254.88 253.672 252.74C253.977 252.524 254.265 252.325 254.569 252.108L255.833 274.679L256.047 277.004L258.254 301.175Z" fill="white"/>
<mask id="mask3_341_7538" style="mask-type:luminance" maskUnits="userSpaceOnUse" x="235" y="252" width="24" height="50">
<path d="M258.254 301.175C256.93 300.852 255.667 300.497 254.448 300.128C253.199 299.758 252.012 299.374 250.885 298.973C240.716 295.447 235.221 291.213 235.221 291.213C238.417 277.157 242.27 267.72 245.695 261.5C245.786 261.346 245.877 261.208 245.954 261.038C246.046 260.885 246.135 260.729 246.227 260.576C248.069 257.481 250.719 254.88 253.672 252.74C253.977 252.524 254.265 252.325 254.569 252.108L255.833 274.679L256.047 277.004L258.254 301.175Z" fill="white"/>
</mask>
<g mask="url(#mask3_341_7538)">
<path d="M254.448 300.128L254.682 299.341L254.686 299.341L254.448 300.128ZM250.885 298.973L251.155 298.196L251.161 298.199L250.885 298.973ZM235.221 291.213L234.719 291.865L234.303 291.543L234.419 291.031L235.221 291.213ZM245.695 261.5L244.975 261.104L244.98 261.093L244.987 261.082L245.695 261.5ZM245.954 261.037L245.204 260.7L245.224 260.657L245.248 260.617L245.954 261.037ZM246.228 260.576L246.934 260.996L246.933 260.997L246.228 260.576ZM253.672 252.74L253.19 252.075L253.198 252.069L253.672 252.74ZM254.57 252.108L254.095 251.437L255.308 250.58L255.391 252.063L254.57 252.108ZM255.833 274.679L255.015 274.754L255.014 274.74L255.013 274.725L255.833 274.679ZM258.059 301.974C256.718 301.646 255.439 301.287 254.211 300.915L254.686 299.341C255.894 299.707 257.143 300.058 258.449 300.377L258.059 301.974ZM254.215 300.916C252.954 300.542 251.753 300.154 250.61 299.748L251.161 298.199C252.273 298.594 253.446 298.974 254.682 299.341L254.215 300.916ZM250.616 299.75C245.479 297.968 241.517 296.007 238.835 294.486C237.493 293.726 236.471 293.076 235.781 292.613C235.436 292.381 235.173 292.197 234.996 292.069C234.907 292.004 234.84 291.955 234.793 291.921C234.77 291.903 234.752 291.89 234.74 291.88C234.734 291.875 234.729 291.872 234.725 291.87C234.724 291.868 234.723 291.867 234.721 291.866C234.721 291.866 234.72 291.866 234.72 291.865C234.72 291.865 234.719 291.865 235.221 291.213C235.722 290.562 235.722 290.562 235.722 290.562C235.722 290.562 235.723 290.563 235.724 290.563C235.726 290.564 235.729 290.567 235.734 290.571C235.742 290.577 235.757 290.588 235.777 290.603C235.815 290.632 235.876 290.677 235.958 290.735C236.12 290.853 236.367 291.026 236.697 291.247C237.354 291.689 238.342 292.317 239.645 293.056C242.252 294.534 246.123 296.452 251.155 298.196L250.616 299.75ZM234.419 291.031C237.63 276.915 241.506 267.403 244.975 261.104L246.415 261.897C243.033 268.037 239.205 277.401 236.022 291.395L234.419 291.031ZM244.987 261.082C245.104 260.885 245.153 260.815 245.204 260.7L246.703 261.375C246.602 261.601 246.468 261.807 246.402 261.919L244.987 261.082ZM245.248 260.617C245.293 260.542 245.337 260.467 245.382 260.389C245.428 260.312 245.475 260.234 245.521 260.155L246.933 260.997C246.888 261.072 246.844 261.147 246.799 261.224C246.754 261.301 246.707 261.38 246.66 261.459L245.248 260.617ZM245.521 260.155C247.436 256.94 250.173 254.26 253.19 252.075L254.155 253.405C251.264 255.5 248.704 258.024 246.934 260.996L245.521 260.155ZM253.198 252.069C253.351 251.96 253.501 251.855 253.649 251.752C253.798 251.647 253.944 251.544 254.095 251.437L255.045 252.78C254.891 252.888 254.742 252.994 254.594 253.097C254.445 253.202 254.298 253.304 254.147 253.411L253.198 252.069ZM255.391 252.063L256.655 274.633L255.013 274.725L253.749 252.154L255.391 252.063ZM256.652 274.604L256.865 276.929L255.228 277.079L255.015 274.754L256.652 274.604ZM256.865 276.929L259.073 301.101L257.435 301.25L255.228 277.079L256.865 276.929Z" fill="black"/>
</g>
<path d="M322.151 262.472C321.888 269.152 320.715 279.88 319.697 290.654C319.372 294.071 319.063 297.504 318.8 300.812C318.616 302.876 315.497 313.882 315.372 315.851C314.816 325.27 310.184 332.32 314.569 346.665C315.62 350.097 315.881 351.868 315.881 353.284C315.881 354.268 314.6 355.3 314.092 355.578C312.253 356.64 308.641 357.377 304.255 357.916H304.239C295.608 358.963 283.966 359.163 276.939 359.163C267.504 359.163 253.345 357.67 251.554 355.3C249.917 353.13 251.43 349.974 252.201 345.618C255.677 325.962 254.441 315.713 254.225 301.521C254.225 301.168 254.21 300.812 254.21 300.444C253.855 278.556 252.403 259.825 253.422 253.068C253.731 252.853 254.024 252.652 254.333 252.437C255.831 251.421 257.298 250.513 258.718 249.712C258.841 249.651 258.997 249.559 259.15 249.466C259.583 249.22 260.031 248.988 260.448 248.757C260.603 248.665 260.771 248.589 260.942 248.511C264.139 246.956 268.801 245.295 271.473 244.371C271.812 244.263 272.122 244.155 272.385 244.08C274.901 243.925 277.634 243.895 280.583 243.97C283.146 244.048 287.069 244.386 291.33 244.941H291.345C296.163 245.556 301.429 246.464 305.613 247.603L305.69 247.634C306.479 247.88 311.589 249.789 316.916 255.468C318.692 257.347 320.514 259.655 322.151 262.472Z" fill="white"/>
<mask id="mask4_341_7538" style="mask-type:luminance" maskUnits="userSpaceOnUse" x="250" y="243" width="73" height="117">
<path d="M322.151 262.472C321.888 269.152 320.715 279.88 319.697 290.654C319.372 294.071 319.063 297.504 318.8 300.812C318.616 302.876 315.497 313.882 315.372 315.851C314.816 325.27 310.184 332.32 314.569 346.665C315.62 350.097 315.881 351.868 315.881 353.284C315.881 354.268 314.6 355.3 314.092 355.578C312.253 356.64 308.641 357.377 304.255 357.916H304.239C295.608 358.963 283.966 359.163 276.939 359.163C267.504 359.163 253.345 357.67 251.554 355.3C249.917 353.13 251.43 349.974 252.201 345.618C255.677 325.962 254.441 315.713 254.225 301.521C254.225 301.168 254.21 300.812 254.21 300.444C253.855 278.556 252.403 259.825 253.422 253.068C253.731 252.853 254.024 252.652 254.333 252.437C255.831 251.421 257.298 250.513 258.718 249.712C258.841 249.651 258.997 249.559 259.15 249.466C259.583 249.22 260.031 248.988 260.448 248.757C260.603 248.665 260.771 248.589 260.942 248.511C264.139 246.956 268.801 245.295 271.473 244.371C271.812 244.263 272.122 244.155 272.385 244.08C274.901 243.925 277.634 243.895 280.583 243.97C283.146 244.048 287.069 244.386 291.33 244.941H291.345C296.163 245.556 301.429 246.464 305.613 247.603L305.69 247.634C306.479 247.88 311.589 249.789 316.916 255.468C318.692 257.347 320.514 259.655 322.151 262.472Z" fill="white"/>
</mask>
<g mask="url(#mask4_341_7538)">
<path d="M318.8 300.813L319.619 300.878L319.618 300.886L318.8 300.813ZM315.372 315.851L314.551 315.803V315.799L315.372 315.851ZM314.092 355.578L313.68 354.866L313.689 354.861L313.697 354.856L314.092 355.578ZM304.255 357.916L304.355 358.732L304.305 358.738H304.255V357.916ZM304.239 357.916L304.141 357.1L304.19 357.094H304.239V357.916ZM251.554 355.3L250.898 355.796L250.897 355.795L251.554 355.3ZM252.201 345.618L253.011 345.761V345.762L252.201 345.618ZM254.224 301.521L253.402 301.534V301.528V301.521H254.224ZM254.21 300.444L255.032 300.43V300.438V300.444H254.21ZM253.422 253.068L252.61 252.946L252.663 252.596L252.952 252.394L253.422 253.068ZM254.333 252.437L253.863 251.763L253.871 251.757L254.333 252.437ZM258.718 249.712L258.314 248.996L258.334 248.985L258.354 248.974L258.718 249.712ZM259.15 249.466L258.727 248.762L258.735 248.757L258.744 248.752L259.15 249.466ZM260.447 248.757L260.868 249.464L260.857 249.471L260.845 249.477L260.447 248.757ZM260.942 248.512L261.302 249.252L261.292 249.256L261.282 249.261L260.942 248.512ZM271.473 244.371L271.204 243.594L271.214 243.591L271.224 243.588L271.473 244.371ZM272.385 244.08L272.157 243.29L272.244 243.264L272.334 243.26L272.385 244.08ZM280.583 243.971L280.604 243.149H280.608L280.583 243.971ZM291.33 244.941V245.764H291.276L291.224 245.757L291.33 244.941ZM291.345 244.941V244.119H291.397L291.449 244.126L291.345 244.941ZM305.613 247.603L305.828 246.81L305.878 246.823L305.925 246.842L305.613 247.603ZM305.69 247.635L305.446 248.42L305.412 248.409L305.379 248.396L305.69 247.635ZM316.916 255.469L316.319 256.034L316.317 256.031L316.916 255.469ZM322.973 262.506C322.709 269.214 321.531 279.984 320.514 290.732L318.878 290.577C319.899 279.775 321.068 269.089 321.33 262.441L322.973 262.506ZM320.514 290.732C320.191 294.147 319.882 297.575 319.619 300.878L317.98 300.748C318.244 297.432 318.553 293.996 318.878 290.576L320.514 290.732ZM319.618 300.886C319.566 301.474 319.319 302.612 319.004 303.946C318.682 305.305 318.269 306.942 317.861 308.568C317.451 310.197 317.045 311.814 316.735 313.148C316.416 314.512 316.218 315.494 316.192 315.903L314.551 315.799C314.587 315.223 314.826 314.091 315.133 312.774C315.448 311.425 315.857 309.793 316.266 308.167C316.676 306.537 317.086 304.912 317.404 303.567C317.729 302.195 317.941 301.184 317.981 300.74L319.618 300.886ZM316.192 315.9C316.05 318.313 315.647 320.566 315.201 322.785C314.753 325.016 314.267 327.192 313.931 329.528C313.266 334.16 313.203 339.385 315.355 346.425L313.783 346.906C311.55 339.602 311.61 334.129 312.304 329.295C312.648 326.898 313.15 324.648 313.589 322.461C314.032 320.259 314.416 318.098 314.551 315.803L316.192 315.9ZM315.355 346.425C316.416 349.89 316.703 351.751 316.703 353.284H315.059C315.059 351.986 314.823 350.304 313.783 346.906L315.355 346.425ZM316.703 353.284C316.703 354.101 316.197 354.804 315.781 355.254C315.34 355.73 314.823 356.115 314.485 356.299L313.697 354.856C313.868 354.763 314.246 354.493 314.573 354.138C314.925 353.757 315.059 353.452 315.059 353.284H316.703ZM314.503 356.289C313.475 356.884 312.015 357.355 310.312 357.744C308.593 358.138 306.562 358.461 304.355 358.732L304.155 357.101C306.332 356.833 308.302 356.518 309.945 356.142C311.603 355.762 312.869 355.335 313.68 354.866L314.503 356.289ZM304.255 358.738H304.239V357.094H304.255V358.738ZM304.339 358.732C295.653 359.786 283.968 359.985 276.939 359.985V358.341C283.962 358.341 295.562 358.141 304.141 357.1L304.339 358.732ZM276.939 359.985C272.186 359.985 266.251 359.61 261.269 358.936C258.781 358.598 256.508 358.183 254.732 357.697C253.845 357.453 253.06 357.186 252.426 356.893C251.814 356.609 251.246 356.257 250.898 355.796L252.209 354.805C252.308 354.936 252.575 355.149 253.117 355.401C253.638 355.642 254.326 355.881 255.167 356.111C256.844 356.57 259.036 356.973 261.491 357.306C266.395 357.97 272.257 358.341 276.939 358.341V359.985ZM250.897 355.795C249.865 354.427 249.885 352.801 250.163 351.142C250.304 350.307 250.523 349.406 250.745 348.473C250.97 347.53 251.204 346.537 251.392 345.475L253.011 345.762C252.814 346.878 252.569 347.913 252.344 348.855C252.118 349.807 251.914 350.647 251.785 351.415C251.524 352.967 251.605 354.003 252.21 354.805L250.897 355.795ZM251.392 345.475C254.85 325.918 253.619 315.77 253.402 301.534L255.047 301.509C255.262 315.656 256.503 326.008 253.011 345.761L251.392 345.475ZM253.402 301.521C253.402 301.355 253.399 301.187 253.395 301.006C253.392 300.828 253.388 300.638 253.388 300.444H255.032C255.032 300.619 255.035 300.79 255.039 300.971C255.042 301.148 255.047 301.335 255.047 301.521H253.402ZM253.388 300.458C253.21 289.523 252.76 279.384 252.479 271.11C252.2 262.879 252.085 256.417 252.61 252.946L254.235 253.191C253.739 256.477 253.841 262.759 254.122 271.054C254.401 279.307 254.854 289.477 255.032 300.43L253.388 300.458ZM252.952 252.394C253.108 252.285 253.26 252.181 253.41 252.077C253.561 251.973 253.71 251.87 253.863 251.763L254.803 253.112C254.647 253.22 254.495 253.325 254.345 253.429C254.195 253.533 254.045 253.636 253.892 253.742L252.952 252.394ZM253.871 251.757C255.387 250.728 256.874 249.809 258.314 248.996L259.122 250.428C257.722 251.218 256.274 252.113 254.794 253.118L253.871 251.757ZM258.354 248.974C258.442 248.933 258.566 248.859 258.727 248.762L259.574 250.171C259.428 250.259 259.241 250.37 259.082 250.449L258.354 248.974ZM258.744 248.752C259.173 248.508 259.668 248.249 260.05 248.038L260.845 249.477C260.393 249.727 259.993 249.933 259.557 250.181L258.744 248.752ZM260.027 248.051C260.229 247.931 260.442 247.836 260.602 247.764L261.282 249.261C261.101 249.343 260.977 249.399 260.868 249.464L260.027 248.051ZM260.582 247.773C263.83 246.193 268.537 244.516 271.204 243.594L271.742 245.148C269.065 246.073 264.448 247.721 261.302 249.252L260.582 247.773ZM271.224 243.588C271.529 243.491 271.882 243.369 272.157 243.29L272.612 244.869C272.36 244.942 272.096 245.036 271.721 245.154L271.224 243.588ZM272.334 243.26C274.879 243.103 277.637 243.072 280.604 243.149L280.562 244.793C277.632 244.717 274.922 244.747 272.435 244.9L272.334 243.26ZM280.608 243.149C283.208 243.227 287.159 243.569 291.437 244.126L291.224 245.757C286.979 245.204 283.085 244.868 280.558 244.792L280.608 243.149ZM291.33 244.119H291.345V245.764H291.33V244.119ZM291.449 244.126C296.286 244.743 301.593 245.657 305.828 246.81L305.397 248.397C301.263 247.272 296.04 246.369 291.241 245.757L291.449 244.126ZM305.925 246.842L306.002 246.874L305.379 248.396L305.301 248.364L305.925 246.842ZM305.935 246.85C306.835 247.131 312.075 249.106 317.516 254.906L316.317 256.031C311.103 250.473 306.123 248.631 305.446 248.42L305.935 246.85ZM317.514 254.904C319.327 256.823 321.189 259.181 322.862 262.06L321.441 262.886C319.839 260.129 318.056 257.872 316.319 256.034L317.514 254.904Z" fill="black"/>
</g>
<path d="M254.539 204.528C254.539 204.528 255.634 219.06 260.025 220.036C264.417 221.011 263.338 214.839 263.338 214.839L262.724 207.938L254.539 204.528Z" fill="#192C4A"/>
<path d="M289.976 221.879C289.918 222.207 289.851 222.602 289.78 223.055C289.558 224.455 289.284 226.411 289.08 228.634C288.672 233.068 288.532 238.611 289.647 242.925V242.926C289.819 243.587 290.189 244.625 291.19 245.214L291.286 245.271H291.296C291.588 245.442 291.923 245.556 292.302 245.62C292.455 245.71 292.598 245.896 292.685 246.224C292.781 246.582 292.796 247.07 292.697 247.651C292.5 248.812 291.861 250.271 290.679 251.654C288.329 254.403 283.818 256.858 276.38 255.975L289.976 221.879ZM289.976 221.879L280.588 229.251L275.86 232.964C275.781 233.276 275.692 233.602 275.601 233.934C275.561 234.081 275.52 234.229 275.479 234.379V235.17C275.501 235.399 275.604 236.63 275.599 238.101C275.593 239.61 275.474 241.44 274.995 242.696L274.993 242.701C274.797 243.191 274.535 243.628 274.153 243.934L274.116 243.963L274.074 243.984L274.053 243.994C274 244.022 273.938 244.045 273.903 244.059L273.9 244.059C273.839 244.082 273.761 244.109 273.674 244.139C273.5 244.198 273.277 244.271 273.05 244.343C272.771 244.432 272.449 244.532 272.221 244.604C272.176 244.618 272.135 244.63 272.099 244.641C271.48 245.714 270.44 248.263 270.563 250.679C270.626 251.925 270.998 253.107 271.866 254.042C272.735 254.975 274.146 255.71 276.38 255.975L289.976 221.879Z" fill="white"/>
<path d="M289.976 221.879C289.918 222.207 289.851 222.602 289.78 223.055C289.558 224.455 289.284 226.411 289.08 228.634C288.672 233.068 288.532 238.611 289.647 242.925V242.926C289.819 243.587 290.189 244.625 291.19 245.214L291.286 245.271H291.296C291.588 245.442 291.923 245.556 292.302 245.62C292.455 245.71 292.598 245.896 292.685 246.224C292.781 246.582 292.796 247.07 292.697 247.651C292.5 248.812 291.861 250.271 290.679 251.654C288.329 254.403 283.818 256.858 276.38 255.975M289.976 221.879L276.38 255.975M289.976 221.879L280.588 229.251L275.86 232.964C275.781 233.276 275.692 233.602 275.601 233.934C275.561 234.081 275.52 234.229 275.479 234.379V235.17C275.501 235.399 275.604 236.63 275.599 238.101C275.593 239.61 275.474 241.44 274.995 242.696L274.993 242.701C274.797 243.191 274.535 243.628 274.153 243.934L274.116 243.963L274.074 243.984L274.053 243.994C274 244.022 273.938 244.045 273.903 244.059L273.9 244.059C273.839 244.082 273.761 244.109 273.674 244.139C273.5 244.198 273.277 244.271 273.05 244.343C272.771 244.432 272.449 244.532 272.221 244.604C272.176 244.618 272.135 244.63 272.099 244.641C271.48 245.714 270.44 248.263 270.563 250.679C270.626 251.925 270.998 253.107 271.866 254.042C272.735 254.975 274.146 255.71 276.38 255.975" stroke="black"/>
<path d="M283.729 229.621C284.554 228.503 285.475 227.704 286.307 226.984C286.556 226.768 286.797 226.559 287.025 226.35C288.02 225.441 288.829 224.498 289.231 222.904C289.925 220.149 290.76 216.237 291.111 212.255C291.461 208.261 291.318 204.253 290.1 201.27C289.266 199.226 286.85 197.206 283.578 195.67C280.326 194.142 276.312 193.133 272.402 193.05C268.488 192.967 264.723 193.814 261.924 195.949C259.145 198.069 257.265 201.502 257.178 206.717V206.72L257.183 206.783C257.187 206.838 257.193 206.92 257.202 207.028C257.219 207.243 257.246 207.559 257.282 207.963C257.355 208.772 257.468 209.929 257.629 211.326C257.95 214.121 258.459 217.871 259.215 221.697C259.97 225.526 260.969 229.413 262.261 232.49C262.908 234.028 263.622 235.349 264.405 236.357C265.177 237.348 265.996 238.009 266.859 238.296C266.875 238.297 266.894 238.298 266.917 238.3C266.988 238.304 267.095 238.309 267.234 238.312C267.513 238.319 267.922 238.318 268.437 238.288C269.469 238.225 270.922 238.043 272.596 237.56C275.942 236.596 280.18 234.432 283.729 229.621Z" fill="white"/>
<path d="M289.231 222.904C288.829 224.498 288.02 225.441 287.025 226.35C286.797 226.559 286.556 226.768 286.307 226.984C285.475 227.704 284.554 228.503 283.729 229.621C280.18 234.432 275.942 236.596 272.596 237.56C270.922 238.043 269.469 238.225 268.437 238.288C267.922 238.318 267.513 238.319 267.234 238.312C267.095 238.309 266.988 238.304 266.917 238.3C266.894 238.298 266.875 238.297 266.859 238.296C265.996 238.009 265.177 237.348 264.405 236.357C263.622 235.349 262.908 234.028 262.261 232.49C260.969 229.413 259.97 225.526 259.215 221.697C258.459 217.871 257.95 214.121 257.629 211.326C257.468 209.929 257.355 208.772 257.282 207.963C257.246 207.559 257.219 207.243 257.202 207.028C257.193 206.92 257.187 206.838 257.183 206.783L257.178 206.72V206.717C257.265 201.502 259.145 198.069 261.924 195.949C264.723 193.814 268.488 192.967 272.402 193.05C276.312 193.133 280.326 194.142 283.578 195.67C286.85 197.206 289.266 199.226 290.1 201.27C291.318 204.253 291.461 208.261 291.111 212.255C290.76 216.237 289.925 220.149 289.231 222.904ZM289.231 222.904L289.629 223.004" stroke="black"/>
<path d="M290.601 196.278C290.471 190.885 285.05 188.871 285.05 188.871C279.654 186.328 268.439 187.424 256.876 190.022C255.704 190.285 254.403 190.122 253.151 189.958C251.506 189.742 249.946 189.527 248.872 190.278C246.582 191.876 248.861 199.178 248.861 199.178C253.322 212.778 269.733 208.356 274.665 206.678C275.837 210.178 275.687 215.047 278.611 217.558C280.278 218.989 283.173 219.029 286.116 218.536C286.479 219.229 287.84 219.841 288.117 220.793C289.044 223.972 288.912 228.942 288.883 232.779L290.274 232.094C290.457 231.055 304.851 196.723 290.601 196.278Z" fill="white"/>
<mask id="mask5_341_7538" style="mask-type:luminance" maskUnits="userSpaceOnUse" x="247" y="187" width="50" height="46">
<path d="M290.601 196.278C290.471 190.885 285.05 188.871 285.05 188.871C279.654 186.328 268.439 187.424 256.876 190.022C255.704 190.285 254.403 190.122 253.151 189.958C251.506 189.742 249.946 189.527 248.872 190.278C246.582 191.876 248.861 199.178 248.861 199.178C253.322 212.778 269.733 208.356 274.665 206.678C275.837 210.178 275.687 215.047 278.611 217.558C280.278 218.989 283.173 219.029 286.116 218.536C286.479 219.229 287.84 219.841 288.117 220.793C289.044 223.972 288.912 228.942 288.883 232.779L290.274 232.094C290.457 231.055 304.851 196.723 290.601 196.278Z" fill="white"/>
</mask>
<g mask="url(#mask5_341_7538)">
<path d="M285.05 188.871L284.763 189.642L284.731 189.63L284.699 189.615L285.05 188.871ZM256.876 190.022L257.057 190.824H257.056L256.876 190.022ZM248.861 199.178L248.08 199.435L248.077 199.429L248.076 199.423L248.861 199.178ZM274.664 206.678L274.4 205.899L275.182 205.633L275.444 206.416L274.664 206.678ZM286.116 218.536L285.98 217.725L286.568 217.627L286.844 218.155L286.116 218.536ZM288.117 220.793L287.327 221.023L287.327 221.022L288.117 220.793ZM288.883 232.779L289.245 233.516L288.051 234.105L288.061 232.773L288.883 232.779ZM290.274 232.094L291.083 232.237L291.012 232.648L290.637 232.832L290.274 232.094ZM289.78 196.298C289.721 193.906 288.499 192.257 287.241 191.176C286.611 190.635 285.983 190.247 285.511 189.995C285.276 189.869 285.082 189.779 284.951 189.72C284.885 189.691 284.835 189.67 284.803 189.657C284.786 189.651 284.775 189.646 284.768 189.644C284.765 189.642 284.763 189.642 284.762 189.642H284.763C284.763 189.642 284.763 189.642 285.05 188.871C285.336 188.101 285.336 188.101 285.337 188.101C285.337 188.101 285.337 188.101 285.338 188.101C285.338 188.102 285.339 188.102 285.34 188.102C285.341 188.103 285.343 188.103 285.345 188.104C285.35 188.106 285.355 188.108 285.363 188.111C285.377 188.116 285.396 188.123 285.419 188.133C285.466 188.152 285.533 188.18 285.615 188.216C285.78 188.289 286.011 188.398 286.287 188.546C286.836 188.839 287.571 189.292 288.312 189.928C289.798 191.204 291.351 193.258 291.423 196.258L289.78 196.298ZM284.699 189.615C282.197 188.436 278.22 188.06 273.322 188.339C268.458 188.617 262.811 189.531 257.057 190.824L256.696 189.22C262.504 187.915 268.245 186.982 273.228 186.699C278.177 186.416 282.506 186.764 285.401 188.128L284.699 189.615ZM257.056 190.824C255.717 191.125 254.267 190.934 253.043 190.774L253.257 189.143C254.538 189.311 255.691 189.445 256.696 189.22L257.056 190.824ZM253.043 190.774C252.203 190.663 251.468 190.566 250.812 190.577C250.163 190.589 249.691 190.709 249.343 190.952L248.4 189.605C249.126 189.097 249.971 188.948 250.782 188.934C251.586 188.919 252.453 189.037 253.257 189.143L253.043 190.774ZM249.343 190.952C249.066 191.145 248.821 191.6 248.72 192.44C248.624 193.248 248.684 194.23 248.822 195.213C248.958 196.188 249.164 197.121 249.338 197.813C249.424 198.157 249.502 198.441 249.558 198.636C249.586 198.734 249.608 198.809 249.623 198.86C249.631 198.886 249.637 198.905 249.64 198.917C249.642 198.923 249.643 198.928 249.644 198.93C249.645 198.932 249.645 198.932 249.645 198.933C249.645 198.932 249.645 198.933 248.861 199.178C248.076 199.423 248.076 199.423 248.076 199.423C248.076 199.422 248.075 199.422 248.075 199.421C248.075 199.42 248.074 199.417 248.073 199.416C248.072 199.412 248.071 199.405 248.068 199.398C248.063 199.382 248.057 199.36 248.048 199.332C248.031 199.274 248.007 199.192 247.976 199.087C247.917 198.877 247.834 198.577 247.743 198.212C247.561 197.486 247.341 196.493 247.194 195.441C247.047 194.399 246.968 193.256 247.088 192.246C247.204 191.268 247.533 190.21 248.401 189.604L249.343 190.952ZM249.642 198.922C250.702 202.155 252.453 204.273 254.532 205.636C256.624 207.009 259.1 207.652 261.646 207.837C266.755 208.209 271.965 206.728 274.4 205.899L274.929 207.456C272.433 208.306 266.971 209.874 261.526 209.477C258.795 209.278 256.023 208.581 253.63 207.011C251.223 205.432 249.25 203.002 248.08 199.435L249.642 198.922ZM275.444 206.416C275.755 207.345 275.973 208.349 276.17 209.341C276.371 210.349 276.548 211.333 276.78 212.297C277.246 214.228 277.889 215.855 279.146 216.934L278.075 218.181C276.408 216.75 275.665 214.688 275.182 212.681C274.939 211.676 274.751 210.63 274.558 209.662C274.363 208.678 274.161 207.761 273.885 206.938L275.444 206.416ZM279.146 216.934C279.804 217.499 280.758 217.832 281.964 217.95C283.166 218.068 284.548 217.965 285.98 217.725L286.251 219.347C284.74 219.6 283.202 219.723 281.804 219.587C280.411 219.45 279.084 219.048 278.075 218.181L279.146 216.934ZM286.844 218.155C286.868 218.2 286.936 218.291 287.101 218.444C287.268 218.599 287.446 218.74 287.682 218.941C288.085 219.285 288.69 219.82 288.906 220.563L287.327 221.022C287.266 220.813 287.053 220.567 286.615 220.193C286.431 220.036 286.182 219.834 285.983 219.65C285.783 219.463 285.545 219.218 285.387 218.917L286.844 218.155ZM288.906 220.562C289.399 222.253 289.6 224.374 289.679 226.508C289.76 228.652 289.719 230.88 289.705 232.786L288.061 232.773C288.075 230.842 288.115 228.666 288.037 226.57C287.958 224.466 287.762 222.512 287.327 221.023L288.906 220.562ZM288.519 232.042L289.911 231.357L290.637 232.832L289.245 233.516L288.519 232.042ZM289.464 231.953C289.483 231.847 289.526 231.719 289.553 231.639C289.588 231.534 289.635 231.401 289.692 231.245C289.804 230.934 289.963 230.507 290.154 229.991C290.536 228.954 291.055 227.534 291.628 225.857C292.775 222.499 294.135 218.132 295.045 213.794C295.961 209.433 296.399 205.203 295.781 202.075C295.474 200.522 294.919 199.31 294.1 198.48C293.299 197.667 292.176 197.149 290.575 197.1L290.627 195.457C292.589 195.518 294.133 196.171 295.271 197.325C296.391 198.461 297.049 200.013 297.394 201.757C298.079 205.225 297.579 209.726 296.654 214.132C295.724 218.563 294.341 223.002 293.184 226.388C292.604 228.083 292.081 229.518 291.696 230.56C291.504 231.083 291.348 231.5 291.237 231.806C291.181 231.959 291.139 232.078 291.111 232.164C291.074 232.274 291.077 232.277 291.083 232.237L289.464 231.953Z" fill="black"/>
</g>
<path d="M335.173 324.043C336.42 323.53 337.401 322.913 337.99 322.282C338.269 319.663 337.913 315.814 337.351 312.074L337.35 312.072L337.31 311.83V311.828C336.741 308.654 336.016 304.954 335.237 301.191C335.215 301.084 335.197 301 335.186 300.942C335.18 300.913 335.176 300.89 335.173 300.875L335.17 300.856L335.169 300.856C333.972 294.98 332.679 288.95 331.685 284.388C331.187 282.107 330.765 280.192 330.467 278.849C330.318 278.177 330.2 277.648 330.119 277.287L330.11 277.249L309.254 287.824C309.28 287.931 309.313 288.064 309.352 288.221C309.467 288.683 309.635 289.356 309.849 290.196C310.279 291.877 310.895 294.231 311.639 296.921C313.128 302.306 315.13 309.028 317.184 314.406C317.991 316.51 318.801 318.401 319.589 319.922C320.382 321.454 321.131 322.569 321.801 323.161C323.998 325.077 327.432 325.563 330.696 325.175C332.319 324.982 333.874 324.576 335.173 324.043Z" fill="white" stroke="black"/>
<path d="M301.35 272.915C303.411 281.553 309.888 297.923 309.888 297.923C314.426 298.682 320.509 297.839 325.551 296.014C331.371 293.907 335.528 289.482 335.528 289.482C335.528 289.482 331.233 277.312 327.377 268.567C323.915 260.717 321.837 257.786 320.339 256.231C318.084 253.849 314.447 251.119 311.865 249.879L301.35 272.915Z" fill="white"/>
<mask id="mask6_341_7538" style="mask-type:luminance" maskUnits="userSpaceOnUse" x="300" y="248" width="37" height="52">
<path d="M336.698 248.056H300.527V299.024H336.698V248.056Z" fill="white"/>
<path d="M301.35 272.914C303.411 281.552 309.888 297.923 309.888 297.923C314.426 298.682 320.509 297.839 325.551 296.013C331.371 293.906 335.528 289.481 335.528 289.481C335.528 289.481 331.233 277.311 327.377 268.566C323.915 260.716 321.837 257.786 320.339 256.23C318.084 253.849 314.447 251.119 311.865 249.878L301.35 272.914Z" fill="black"/>
</mask>
<g mask="url(#mask6_341_7538)">
<path d="M309.887 297.923L309.752 298.734L309.294 298.657L309.123 298.226L309.887 297.923ZM335.527 289.481L336.303 289.208L336.47 289.68L336.127 290.045L335.527 289.481ZM320.338 256.231L319.746 256.801L319.741 256.796L320.338 256.231ZM311.864 249.879L311.117 249.537L311.465 248.774L312.221 249.137L311.864 249.879ZM302.149 272.724C303.167 276.992 305.286 283.204 307.164 288.377C308.1 290.959 308.972 293.27 309.611 294.937C309.93 295.769 310.191 296.441 310.371 296.905C310.461 297.136 310.532 297.315 310.58 297.437C310.603 297.497 310.621 297.543 310.634 297.575C310.64 297.59 310.645 297.602 310.648 297.609C310.649 297.613 310.65 297.616 310.651 297.618C310.651 297.619 310.652 297.62 310.652 297.62C310.652 297.621 310.652 297.621 310.652 297.621C310.652 297.621 310.652 297.621 309.887 297.923C309.123 298.226 309.123 298.226 309.123 298.226C309.123 298.225 309.122 298.223 309.122 298.222C309.121 298.221 309.12 298.217 309.118 298.213C309.115 298.205 309.111 298.194 309.104 298.177C309.092 298.146 309.074 298.099 309.049 298.038C309.001 297.915 308.931 297.735 308.839 297.501C308.658 297.035 308.396 296.361 308.076 295.524C307.435 293.852 306.559 291.531 305.618 288.939C303.742 283.767 301.592 277.475 300.549 273.105L302.149 272.724ZM310.023 297.113C314.385 297.842 320.322 297.033 325.271 295.241L325.83 296.786C320.695 298.647 314.465 299.523 309.752 298.734L310.023 297.113ZM325.271 295.241C328.072 294.226 330.492 292.646 332.218 291.308C333.079 290.641 333.761 290.038 334.227 289.605C334.46 289.388 334.637 289.213 334.756 289.095C334.816 289.035 334.86 288.99 334.889 288.96C334.903 288.945 334.913 288.934 334.921 288.927C334.924 288.923 334.926 288.921 334.927 288.92C334.928 288.919 334.928 288.918 334.929 288.918C334.928 288.918 334.928 288.919 335.527 289.481C336.127 290.045 336.127 290.045 336.126 290.045V290.045L336.125 290.046C336.124 290.047 336.123 290.049 336.122 290.05C336.118 290.053 336.115 290.057 336.11 290.062C336.101 290.072 336.087 290.086 336.07 290.104C336.035 290.14 335.985 290.191 335.919 290.257C335.787 290.388 335.595 290.576 335.347 290.807C334.852 291.269 334.131 291.905 333.225 292.607C331.418 294.008 328.847 295.694 325.83 296.786L325.271 295.241ZM335.527 289.481C334.752 289.755 334.752 289.755 334.752 289.755C334.752 289.754 334.751 289.754 334.751 289.754C334.751 289.752 334.751 289.749 334.749 289.747C334.747 289.741 334.744 289.732 334.74 289.721C334.732 289.698 334.719 289.663 334.704 289.618C334.672 289.528 334.623 289.393 334.562 289.218C334.437 288.87 334.254 288.361 334.023 287.724C333.561 286.448 332.905 284.657 332.128 282.593C330.574 278.462 328.542 273.25 326.624 268.898L328.128 268.235C330.065 272.628 332.109 277.874 333.667 282.014C334.446 284.085 335.105 285.883 335.569 287.163C335.801 287.804 335.985 288.314 336.109 288.665C336.172 288.84 336.22 288.976 336.253 289.068C336.269 289.114 336.281 289.149 336.29 289.172C336.294 289.184 336.297 289.193 336.299 289.199C336.3 289.202 336.301 289.204 336.302 289.205C336.302 289.206 336.303 289.207 336.303 289.208C336.303 289.208 336.303 289.208 335.527 289.481ZM326.624 268.898C323.174 261.075 321.143 258.251 319.746 256.801L320.931 255.66C322.53 257.322 324.655 260.358 328.128 268.235L326.624 268.898ZM319.741 256.796C317.546 254.477 313.987 251.811 311.509 250.619L312.221 249.137C314.904 250.428 318.622 253.222 320.936 255.666L319.741 256.796ZM312.613 250.22L302.097 273.256L300.601 272.573L311.117 249.537L312.613 250.22Z" fill="black"/>
</g>
<path d="M328.097 278.129L315.63 272.786L305.807 247.647C305.807 247.647 307.607 248.192 309.979 249.142H309.989C310.034 249.164 310.138 249.198 310.308 249.266L310.49 249.346C312.61 250.331 320.826 255.141 326.514 272.617C326.56 272.764 326.605 272.91 326.65 273.058C327.254 275.073 327.698 276.692 327.937 277.528L328.006 277.778L328.097 278.129Z" fill="white"/>
<path d="M338.387 322.392L338.386 322.406C338.202 323.974 337.768 325.102 336.991 325.501L334.982 326.707C332.358 328.31 327.598 331.035 321.677 333.577C307.318 339.768 286.459 346.951 275.213 350.243C275.213 350.243 274.103 347.071 272.371 343.768C272.371 343.768 282.542 339.052 292.541 331.406C302.554 323.778 316.955 314.51 316.955 314.51L320.592 310.238C320.592 310.238 333.52 298.361 335.596 300.75C335.596 300.75 335.617 300.869 335.661 301.077C335.97 302.316 336.996 306.874 337.722 311.717L337.763 311.97C338.331 315.763 338.695 319.715 338.387 322.392Z" fill="white"/>
<mask id="mask7_341_7538" style="mask-type:luminance" maskUnits="userSpaceOnUse" x="272" y="300" width="67" height="51">
<path d="M338.387 322.392L338.386 322.406C338.202 323.974 337.768 325.102 336.991 325.501L334.982 326.707C332.358 328.31 327.598 331.035 321.677 333.577C307.318 339.768 286.459 346.951 275.213 350.243C275.213 350.243 274.103 347.071 272.371 343.768C272.371 343.768 282.542 339.052 292.541 331.406C302.554 323.778 316.955 314.51 316.955 314.51L320.592 310.238C320.592 310.238 333.52 298.361 335.596 300.75C335.596 300.75 335.617 300.869 335.661 301.077C335.97 302.316 336.996 306.874 337.722 311.717L337.763 311.97C338.331 315.763 338.695 319.715 338.387 322.392Z" fill="white"/>
</mask>
<g mask="url(#mask7_341_7538)">
<path d="M338.386 322.405L339.204 322.485L339.203 322.493L339.203 322.502L338.386 322.405ZM336.991 325.501L336.568 324.797L336.591 324.783L336.615 324.77L336.991 325.501ZM334.981 326.707L334.553 326.006L334.559 326.003L334.981 326.707ZM321.676 333.576L321.351 332.821H321.352L321.676 333.576ZM275.213 350.243L275.444 351.031L274.695 351.251L274.437 350.514L275.213 350.243ZM272.371 343.767L271.643 344.15L271.242 343.385L272.026 343.022L272.371 343.767ZM292.541 331.406L292.042 330.753L292.043 330.753L292.541 331.406ZM316.955 314.51L317.582 315.042L317.503 315.135L317.4 315.201L316.955 314.51ZM320.592 310.238L319.966 309.705L319.999 309.667L320.036 309.632L320.592 310.238ZM335.595 300.75L336.216 300.211L336.366 300.383L336.405 300.608L335.595 300.75ZM335.661 301.077L334.863 301.276L334.86 301.262L334.857 301.249L335.661 301.077ZM337.722 311.717L336.911 311.851L336.91 311.844L336.909 311.839L337.722 311.717ZM337.763 311.969L338.575 311.835L338.575 311.842L338.576 311.848L337.763 311.969ZM339.206 322.471L339.204 322.485L337.568 322.325L337.569 322.311L339.206 322.471ZM339.203 322.502C339.105 323.329 338.937 324.09 338.665 324.719C338.394 325.344 337.986 325.914 337.367 326.233L336.615 324.77C336.773 324.69 336.97 324.495 337.157 324.065C337.341 323.638 337.482 323.051 337.57 322.309L339.203 322.502ZM337.414 326.207L335.404 327.413L334.559 326.003L336.568 324.797L337.414 326.207ZM335.41 327.408C332.764 329.025 327.968 331.77 322 334.332L321.352 332.821C327.227 330.299 331.951 327.595 334.553 326.006L335.41 327.408ZM322.002 334.331C307.608 340.538 286.716 347.731 275.444 351.031L274.982 349.454C286.201 346.169 307.028 338.998 321.351 332.821L322.002 334.331ZM275.213 350.243C274.437 350.514 274.437 350.514 274.437 350.514C274.437 350.514 274.437 350.513 274.437 350.512C274.436 350.512 274.435 350.51 274.434 350.507C274.433 350.502 274.429 350.493 274.425 350.482C274.418 350.459 274.405 350.424 274.389 350.38C274.356 350.29 274.307 350.156 274.243 349.985C274.114 349.642 273.924 349.15 273.68 348.555C273.193 347.365 272.493 345.772 271.643 344.15L273.099 343.386C273.98 345.067 274.701 346.711 275.202 347.932C275.453 348.544 275.648 349.051 275.782 349.406C275.849 349.583 275.9 349.724 275.935 349.82C275.952 349.868 275.966 349.905 275.975 349.93C275.979 349.943 275.982 349.953 275.985 349.96C275.986 349.963 275.987 349.966 275.988 349.967C275.988 349.968 275.988 349.969 275.989 349.97V349.971C275.989 349.971 275.989 349.971 275.213 350.243ZM272.371 343.767C272.026 343.022 272.026 343.022 272.026 343.022C272.026 343.022 272.026 343.022 272.026 343.021C272.027 343.021 272.029 343.02 272.031 343.019C272.035 343.017 272.043 343.014 272.052 343.009C272.07 343 272.099 342.987 272.136 342.97C272.211 342.935 272.323 342.881 272.47 342.81C272.763 342.668 273.195 342.456 273.745 342.178C274.846 341.621 276.419 340.798 278.303 339.738C282.074 337.615 287.082 334.546 292.042 330.753L293.041 332.06C288.001 335.913 282.924 339.023 279.109 341.17C277.201 342.244 275.607 343.078 274.488 343.645C273.928 343.928 273.487 344.144 273.186 344.29C273.034 344.363 272.918 344.418 272.839 344.456C272.8 344.474 272.77 344.488 272.749 344.498C272.739 344.503 272.731 344.506 272.725 344.51C272.723 344.511 272.721 344.511 272.719 344.512C272.719 344.513 272.718 344.513 272.718 344.513C272.717 344.513 272.717 344.513 272.717 344.513C272.717 344.513 272.717 344.514 272.371 343.767ZM292.043 330.753C297.069 326.923 303.187 322.689 308.043 319.416C310.473 317.778 312.589 316.379 314.098 315.389C314.852 314.894 315.455 314.502 315.869 314.233C316.076 314.098 316.237 313.995 316.345 313.925C316.4 313.89 316.441 313.863 316.469 313.845C316.483 313.836 316.492 313.83 316.5 313.826C316.503 313.823 316.506 313.821 316.508 313.82C316.509 313.82 316.51 313.819 316.51 313.819C316.511 313.819 316.511 313.818 316.511 313.818C316.511 313.818 316.511 313.818 316.955 314.51C317.4 315.201 317.4 315.201 317.4 315.201C317.399 315.202 317.398 315.202 317.398 315.202C317.396 315.203 317.393 315.205 317.39 315.207C317.384 315.212 317.373 315.218 317.36 315.227C317.332 315.245 317.291 315.272 317.237 315.306C317.13 315.375 316.971 315.479 316.765 315.612C316.353 315.88 315.752 316.271 315 316.764C313.495 317.751 311.385 319.146 308.962 320.779C304.115 324.046 298.027 328.26 293.039 332.06L292.043 330.753ZM316.33 313.977L319.966 309.705L321.218 310.771L317.582 315.042L316.33 313.977ZM320.592 310.238C320.036 309.632 320.036 309.632 320.036 309.632C320.036 309.632 320.037 309.632 320.037 309.631C320.037 309.631 320.038 309.631 320.039 309.63C320.04 309.628 320.043 309.626 320.046 309.623C320.053 309.617 320.063 309.608 320.075 309.597C320.1 309.574 320.137 309.54 320.185 309.497C320.282 309.409 320.424 309.281 320.604 309.12C320.964 308.797 321.481 308.339 322.107 307.797C323.358 306.716 325.053 305.294 326.816 303.945C328.571 302.602 330.428 301.306 331.998 300.494C332.777 300.091 333.539 299.779 334.214 299.661C334.866 299.548 335.671 299.583 336.216 300.211L334.975 301.289C334.974 301.288 334.973 301.287 334.97 301.285C334.965 301.282 334.948 301.274 334.915 301.267C334.841 301.251 334.708 301.245 334.496 301.282C334.066 301.357 333.478 301.579 332.753 301.954C331.315 302.698 329.551 303.923 327.815 305.251C326.087 306.573 324.42 307.971 323.182 309.041C322.564 309.575 322.054 310.027 321.7 310.345C321.523 310.504 321.385 310.629 321.291 310.714C321.244 310.756 321.208 310.789 321.184 310.811C321.172 310.822 321.163 310.83 321.157 310.836C321.154 310.838 321.152 310.84 321.15 310.841C321.149 310.842 321.149 310.842 321.149 310.843C321.149 310.843 321.149 310.843 320.592 310.238ZM335.595 300.75C336.405 300.608 336.405 300.608 336.405 300.608C336.405 300.608 336.405 300.608 336.406 300.61C336.406 300.613 336.407 300.617 336.408 300.623C336.41 300.635 336.414 300.655 336.419 300.679C336.428 300.73 336.444 300.807 336.465 300.905L334.857 301.249C334.833 301.14 334.816 301.052 334.805 300.991C334.799 300.96 334.794 300.936 334.791 300.92C334.79 300.912 334.788 300.905 334.787 300.9C334.787 300.898 334.787 300.896 334.787 300.895C334.787 300.894 334.787 300.893 334.786 300.893C334.786 300.893 334.786 300.892 334.786 300.891C334.786 300.891 334.786 300.891 335.595 300.75ZM336.459 300.878C336.773 302.138 337.803 306.721 338.535 311.594L336.909 311.839C336.186 307.025 335.166 302.493 334.863 301.276L336.459 300.878ZM338.533 311.583L338.575 311.835L336.953 312.103L336.911 311.851L338.533 311.583ZM338.576 311.848C339.144 315.645 339.525 319.692 339.204 322.485L337.571 322.298C337.864 319.739 337.517 315.88 336.95 312.091L338.576 311.848Z" fill="black"/>
</g>
<path d="M274.414 343.072C274.414 343.072 271.866 344.575 269.269 344.04C267.833 343.745 267.252 343.169 266.19 342.986C265.128 342.805 262.3 342.463 260.898 341.789C259.498 341.117 258.951 341.042 259.001 342.419C259.05 343.794 261.813 344.985 262.563 345.366C263.312 345.748 264.253 346.97 264.353 347.122C264.456 347.276 259.749 349.687 258.482 349.198C258.482 349.198 258.105 350.307 258.32 350.927C258.534 351.546 259.502 351.763 259.578 352.075C259.653 352.385 259.355 353.021 259.565 353.517C259.774 354.01 260.639 354.012 260.988 354.814C261.336 355.616 260.952 355.63 261.206 356.467C261.461 357.305 262.554 357.456 262.762 357.887C262.969 358.318 262.859 358.823 263.318 359.121C263.778 359.418 268.01 358.088 269.557 357.441C271.101 356.792 275.231 350.973 279.801 348.991L274.414 343.072Z" fill="white"/>
<mask id="mask8_341_7538" style="mask-type:luminance" maskUnits="userSpaceOnUse" x="258" y="341" width="22" height="19">
<path d="M274.414 343.072C274.414 343.072 271.866 344.575 269.269 344.04C267.833 343.745 267.252 343.169 266.19 342.986C265.128 342.805 262.3 342.463 260.898 341.789C259.498 341.117 258.951 341.042 259.001 342.419C259.05 343.794 261.813 344.985 262.563 345.366C263.312 345.748 264.253 346.97 264.353 347.122C264.456 347.276 259.749 349.687 258.482 349.198C258.482 349.198 258.105 350.307 258.32 350.927C258.534 351.546 259.502 351.763 259.578 352.075C259.653 352.385 259.355 353.021 259.565 353.517C259.774 354.01 260.639 354.012 260.988 354.814C261.336 355.616 260.952 355.63 261.206 356.467C261.461 357.305 262.554 357.456 262.762 357.887C262.969 358.318 262.859 358.823 263.318 359.121C263.778 359.418 268.01 358.088 269.557 357.441C271.101 356.792 275.231 350.973 279.801 348.991L274.414 343.072Z" fill="white"/>
</mask>
<g mask="url(#mask8_341_7538)">
<path d="M269.269 344.04L269.434 343.235H269.435L269.269 344.04ZM260.898 341.789L261.254 341.048V341.049L260.898 341.789ZM264.353 347.122L263.669 347.578L263.668 347.576L264.353 347.122ZM258.482 349.198L257.704 348.933L257.98 348.122L258.779 348.431L258.482 349.198ZM258.32 350.927L257.543 351.196L257.543 351.195L258.32 350.927ZM259.578 352.075L260.377 351.881L260.378 351.883L259.578 352.075ZM259.566 353.517L260.322 353.195L260.323 353.196L259.566 353.517ZM261.206 356.467L260.42 356.706V356.706L261.206 356.467ZM262.762 357.887L263.502 357.53L263.503 357.531L262.762 357.887ZM263.318 359.121L262.871 359.811L262.87 359.811L263.318 359.121ZM269.557 357.441L269.875 358.199L269.874 358.199L269.557 357.441ZM279.801 348.991L280.409 348.437L281.182 349.287L280.129 349.744L279.801 348.991ZM274.414 343.072C274.832 343.78 274.832 343.78 274.832 343.78H274.831C274.831 343.78 274.83 343.78 274.83 343.781C274.83 343.781 274.828 343.782 274.827 343.783C274.825 343.785 274.821 343.786 274.818 343.788C274.811 343.792 274.802 343.798 274.789 343.804C274.765 343.818 274.731 343.837 274.688 343.86C274.603 343.905 274.481 343.969 274.328 344.041C274.023 344.186 273.589 344.371 273.067 344.539C272.035 344.87 270.594 345.152 269.103 344.845L269.435 343.235C270.541 343.462 271.673 343.26 272.564 342.974C273.004 342.833 273.37 342.676 273.624 342.556C273.75 342.496 273.848 342.445 273.912 342.411C273.944 342.394 273.967 342.38 273.982 342.372C273.989 342.368 273.994 342.366 273.997 342.364C273.998 342.363 273.998 342.363 273.998 342.362V342.363H273.998C273.998 342.363 273.997 342.364 274.414 343.072ZM269.104 344.845C268.296 344.68 267.726 344.431 267.255 344.222C266.782 344.011 266.464 343.868 266.052 343.797L266.329 342.177C266.979 342.288 267.483 342.524 267.924 342.72C268.368 342.918 268.806 343.106 269.434 343.235L269.104 344.845ZM266.052 343.797C265.576 343.715 264.528 343.572 263.519 343.38C262.503 343.188 261.349 342.918 260.542 342.53L261.254 341.049C261.848 341.334 262.81 341.572 263.825 341.765C264.845 341.958 265.743 342.075 266.329 342.177L266.052 343.797ZM260.542 342.53C260.198 342.365 259.943 342.255 259.751 342.192C259.658 342.163 259.597 342.149 259.563 342.145C259.528 342.14 259.543 342.148 259.588 342.137C259.642 342.125 259.712 342.094 259.774 342.036C259.831 341.983 259.848 341.936 259.849 341.934C259.849 341.934 259.846 341.942 259.842 341.963C259.838 341.983 259.833 342.012 259.829 342.052C259.82 342.132 259.817 342.242 259.822 342.39L258.18 342.448C258.166 342.074 258.185 341.687 258.31 341.355C258.457 340.967 258.757 340.639 259.224 340.534C259.601 340.449 259.976 340.537 260.258 340.629C260.56 340.726 260.899 340.878 261.254 341.048L260.542 342.53ZM259.822 342.39C259.825 342.461 259.869 342.616 260.086 342.859C260.296 343.094 260.603 343.338 260.969 343.577C261.71 344.062 262.512 344.418 262.935 344.634L262.19 346.099C261.864 345.933 260.91 345.503 260.069 344.954C259.645 344.676 259.205 344.34 258.859 343.954C258.521 343.574 258.201 343.064 258.18 342.448L259.822 342.39ZM262.935 344.634C263.453 344.897 263.961 345.397 264.307 345.775C264.667 346.167 264.957 346.545 265.039 346.668L263.668 347.576C263.671 347.579 263.658 347.56 263.622 347.514C263.591 347.472 263.548 347.417 263.496 347.352C263.391 347.222 263.253 347.056 263.096 346.886C262.759 346.519 262.422 346.217 262.19 346.099L262.935 344.634ZM265.038 346.667C265.19 346.895 265.193 347.135 265.16 347.297C265.13 347.442 265.069 347.545 265.036 347.594C264.971 347.694 264.897 347.762 264.865 347.79C264.791 347.857 264.704 347.917 264.634 347.963C264.483 348.062 264.279 348.179 264.047 348.304C263.577 348.557 262.936 348.868 262.252 349.158C261.572 349.446 260.827 349.723 260.154 349.897C259.818 349.984 259.48 350.05 259.166 350.075C258.867 350.098 258.512 350.09 258.186 349.964L258.779 348.431C258.77 348.428 258.839 348.451 259.039 348.436C259.224 348.421 259.461 348.378 259.743 348.305C260.305 348.16 260.968 347.916 261.61 347.644C262.25 347.373 262.845 347.083 263.268 346.856C263.483 346.741 263.639 346.649 263.732 346.589C263.783 346.555 263.789 346.547 263.772 346.562C263.77 346.564 263.716 346.61 263.662 346.692C263.636 346.732 263.578 346.827 263.55 346.965C263.518 347.12 263.521 347.354 263.669 347.578L265.038 346.667ZM258.482 349.198C259.261 349.462 259.261 349.462 259.261 349.462C259.261 349.461 259.261 349.461 259.261 349.461C259.261 349.461 259.261 349.461 259.261 349.461C259.261 349.46 259.261 349.46 259.261 349.461C259.261 349.462 259.261 349.463 259.26 349.466C259.258 349.471 259.255 349.48 259.251 349.492C259.243 349.517 259.232 349.555 259.218 349.603C259.191 349.701 259.156 349.835 259.128 349.983C259.062 350.329 259.067 350.571 259.097 350.659L257.543 351.195C257.358 350.664 257.444 350.04 257.513 349.676C257.552 349.47 257.599 349.288 257.635 349.158C257.653 349.093 257.67 349.039 257.682 349.001C257.688 348.982 257.693 348.966 257.697 348.954C257.699 348.949 257.7 348.944 257.701 348.941C257.702 348.939 257.703 348.937 257.703 348.936C257.703 348.936 257.704 348.935 257.704 348.934C257.704 348.933 257.704 348.933 257.704 348.933C257.704 348.933 257.704 348.933 258.482 349.198ZM259.096 350.658C259.096 350.658 259.135 350.734 259.431 350.916C259.529 350.975 259.721 351.086 259.853 351.18C259.928 351.232 260.025 351.306 260.115 351.404C260.204 351.5 260.323 351.658 260.377 351.881L258.78 352.269C258.814 352.414 258.887 352.498 258.907 352.52C258.928 352.543 258.936 352.544 258.906 352.523C258.829 352.469 258.752 352.428 258.571 352.317C258.31 352.157 257.758 351.815 257.543 351.196L259.096 350.658ZM260.378 351.883C260.434 352.117 260.409 352.343 260.393 352.465C260.379 352.576 260.345 352.775 260.334 352.848C260.296 353.098 260.314 353.177 260.322 353.195L258.808 353.838C258.606 353.362 258.668 352.874 258.707 352.605C258.735 352.418 258.748 352.369 258.762 352.258C258.775 352.158 258.76 352.188 258.779 352.267L260.378 351.883ZM260.323 353.196C260.291 353.123 260.25 353.108 260.302 353.144C260.374 353.195 260.444 353.229 260.63 353.335C260.952 353.517 261.456 353.829 261.742 354.486L260.234 355.142C260.171 354.997 260.069 354.907 259.818 354.765C259.718 354.707 259.512 354.6 259.352 354.485C259.172 354.358 258.943 354.156 258.808 353.837L260.323 353.196ZM261.742 354.486C261.851 354.738 261.919 354.965 261.948 355.184C261.978 355.408 261.963 355.586 261.951 355.709C261.933 355.884 261.914 355.967 261.993 356.229L260.42 356.706C260.338 356.438 260.301 356.211 260.293 356C260.285 355.8 260.306 355.63 260.314 355.547C260.324 355.461 260.323 355.434 260.319 355.403C260.314 355.368 260.299 355.291 260.234 355.142L261.742 354.486ZM261.993 356.227C262.024 356.329 262.113 356.44 262.421 356.623C262.523 356.683 262.769 356.817 262.914 356.911C263.068 357.011 263.345 357.205 263.502 357.53L262.021 358.243C262.074 358.353 262.137 358.366 262.02 358.291C261.894 358.209 261.812 358.173 261.583 358.037C261.229 357.826 260.644 357.443 260.42 356.706L261.993 356.227ZM263.503 357.531C263.593 357.718 263.641 357.898 263.673 358.035C263.688 358.102 263.702 358.17 263.713 358.219C263.724 358.273 263.733 358.314 263.742 358.35C263.751 358.384 263.758 358.407 263.764 358.422C263.77 358.436 263.773 358.442 263.772 358.441C263.768 358.433 263.76 358.428 263.765 358.432L262.87 359.811C262.395 359.501 262.23 359.071 262.149 358.759C262.123 358.654 262.08 358.446 262.071 358.405C262.05 358.316 262.034 358.271 262.02 358.242L263.503 357.531ZM263.765 358.431C263.692 358.384 263.631 358.363 263.599 358.354C263.566 358.345 263.544 358.342 263.54 358.342C263.534 358.341 263.553 358.343 263.608 358.34C263.719 358.334 263.887 358.311 264.115 358.268C264.565 358.181 265.159 358.031 265.803 357.845C267.093 357.474 268.505 356.99 269.239 356.683L269.874 358.199C269.062 358.539 267.585 359.044 266.257 359.425C265.593 359.617 264.945 359.783 264.424 359.882C264.166 359.932 263.916 359.969 263.701 359.982C263.594 359.987 263.474 359.989 263.354 359.975C263.253 359.963 263.059 359.932 262.871 359.811L263.765 358.431ZM269.238 356.683C269.314 356.651 269.471 356.554 269.726 356.341C269.969 356.138 270.256 355.87 270.589 355.541C270.92 355.214 271.284 354.84 271.684 354.43C272.081 354.023 272.511 353.583 272.965 353.132C274.765 351.347 277.034 349.295 279.474 348.236L280.129 349.744C277.999 350.669 275.918 352.518 274.123 354.299C273.68 354.74 273.258 355.172 272.86 355.579C272.464 355.985 272.088 356.37 271.744 356.711C271.401 357.049 271.075 357.357 270.779 357.604C270.496 357.841 270.185 358.069 269.875 358.199L269.238 356.683ZM279.193 349.544L273.807 343.625L275.023 342.519L280.409 348.437L279.193 349.544Z" fill="black"/>
</g>
<path d="M295.295 368.828H262.711V365.855H295.295C296.175 365.855 296.89 366.519 296.89 367.341C296.89 368.163 296.175 368.828 295.295 368.828Z" fill="#9EB236"/>
<path d="M277.914 368.828H196.776C195.804 368.828 194.951 368.18 194.693 367.245L178.084 307.523C177.718 306.201 178.713 304.893 180.086 304.893H258.548C260.376 304.893 261.98 306.111 262.469 307.872L279.016 367.379C279.218 368.108 278.669 368.828 277.914 368.828Z" fill="#9EB236"/>
<path d="M274.939 368.828H193.803C192.831 368.828 191.979 368.18 191.719 367.245L175.112 307.523C174.745 306.201 175.74 304.893 177.113 304.893H255.574C257.402 304.893 259.006 306.111 259.496 307.872L276.043 367.379C276.246 368.108 275.696 368.828 274.939 368.828Z" fill="#B9D043"/>
<defs>
<linearGradient id="paint0_linear_341_7538" x1="265.312" y1="394.105" x2="265.312" y2="502.647" gradientUnits="userSpaceOnUse">
<stop stop-color="#F2F2F2"/>
<stop offset="1" stop-color="#8C8C8C"/>
</linearGradient>
</defs>
</svg>
