<svg width="232" height="66" viewBox="0 0 232 66" fill="none" xmlns="http://www.w3.org/2000/svg">
<path d="M157.243 27.1947L157.242 27.1961V27.1947H157.243ZM157.243 27.1947H161.935V42.0016H171.405V38.6128H165.687V27.1961H171.226V23.806H165.687V19.8813H161.935V23.806H159.791L157.243 27.1947Z" fill="#C0DE29"/>
<path d="M157.243 27.1947L157.242 27.1961V27.1947H157.243ZM157.243 27.1947H161.935V42.0016H171.405V38.6128H165.687V27.1961H171.226V23.806H165.687V19.8813H161.935V23.806H159.791L157.243 27.1947Z" stroke="#C0DE29"/>
<path d="M176.237 39.6266C174.438 37.8077 173.539 35.5654 173.539 32.9012C173.539 30.2369 174.438 27.996 176.237 26.1758C178.036 24.3569 180.233 23.4468 182.83 23.4468C185.426 23.4468 187.624 24.3569 189.422 26.1758C191.221 27.9946 192.12 30.2369 192.12 32.9012V34.1503H177.29C177.576 35.6484 178.231 36.8258 179.255 37.6825C180.279 38.5392 181.47 38.9668 182.828 38.9668C184.495 38.9668 185.829 38.5504 186.831 37.7177C187.283 37.3843 187.676 36.9679 188.01 36.4685H191.941C191.441 37.6347 190.81 38.6222 190.047 39.4296C188.093 41.3807 185.688 42.3555 182.83 42.3555C180.233 42.3555 178.035 41.4454 176.237 39.6266ZM177.47 31.1175H188.191C187.976 29.9288 187.41 28.9174 186.493 28.0847C185.575 27.2519 184.354 26.8355 182.83 26.8355C181.543 26.8355 180.399 27.2224 179.399 27.9946C178.398 28.7683 177.755 29.8092 177.469 31.1161L177.47 31.1175Z" fill="#C0DE29"/>
<path d="M176.237 39.6266C174.438 37.8077 173.539 35.5654 173.539 32.9012C173.539 30.2369 174.438 27.996 176.237 26.1758C178.036 24.3569 180.233 23.4468 182.83 23.4468C185.426 23.4468 187.624 24.3569 189.422 26.1758C191.221 27.9946 192.12 30.2369 192.12 32.9012V34.1503H177.29C177.576 35.6484 178.231 36.8258 179.255 37.6825C180.279 38.5392 181.47 38.9668 182.828 38.9668C184.495 38.9668 185.829 38.5504 186.831 37.7177C187.283 37.3843 187.676 36.9679 188.01 36.4685H191.941C191.441 37.6347 190.81 38.6222 190.047 39.4296C188.093 41.3807 185.688 42.3555 182.83 42.3555C180.233 42.3555 178.035 41.4454 176.237 39.6266ZM177.47 31.1175H188.191C187.976 29.9288 187.41 28.9174 186.493 28.0847C185.575 27.2519 184.354 26.8355 182.83 26.8355C181.543 26.8355 180.399 27.2224 179.399 27.9946C178.398 28.7683 177.755 29.8092 177.469 31.1161L177.47 31.1175Z" stroke="#C0DE29"/>
<path d="M196.889 39.68C195.151 37.8963 194.281 35.6372 194.281 32.9012C194.281 30.1651 195.151 27.906 196.889 26.1223C198.628 24.3386 200.796 23.4468 203.393 23.4468C206.3 23.4468 208.669 24.5524 210.504 26.7652C211.29 27.7878 211.838 28.8822 212.148 30.047H208.217C208.051 29.4533 207.741 28.9174 207.288 28.4419C206.36 27.3714 205.061 26.8369 203.393 26.8369C201.915 26.8369 200.683 27.3953 199.695 28.5137C198.705 29.632 198.211 31.0949 198.211 32.9025C198.211 34.7101 198.705 36.1731 199.695 37.2914C200.683 38.4097 201.915 38.9682 203.393 38.9682C205.109 38.9682 206.455 38.4337 207.431 37.3632C207.859 36.8877 208.182 36.3532 208.396 35.7581H212.148C211.838 36.9707 211.29 38.0778 210.504 39.0765C208.693 41.2653 206.323 42.3583 203.393 42.3583C200.796 42.3583 198.628 41.4665 196.889 39.6828V39.68Z" fill="#C0DE29"/>
<path d="M196.889 39.68C195.151 37.8963 194.281 35.6372 194.281 32.9012C194.281 30.1651 195.151 27.906 196.889 26.1223C198.628 24.3386 200.796 23.4468 203.393 23.4468C206.3 23.4468 208.669 24.5524 210.504 26.7652C211.29 27.7878 211.838 28.8822 212.148 30.047H208.217C208.051 29.4533 207.741 28.9174 207.288 28.4419C206.36 27.3714 205.061 26.8369 203.393 26.8369C201.915 26.8369 200.683 27.3953 199.695 28.5137C198.705 29.632 198.211 31.0949 198.211 32.9025C198.211 34.7101 198.705 36.1731 199.695 37.2914C200.683 38.4097 201.915 38.9682 203.393 38.9682C205.109 38.9682 206.455 38.4337 207.431 37.3632C207.859 36.8877 208.182 36.3532 208.396 35.7581H212.148C211.838 36.9707 211.29 38.0778 210.504 39.0765C208.693 41.2653 206.323 42.3583 203.393 42.3583C200.796 42.3583 198.628 41.4665 196.889 39.6828V39.68Z" stroke="#C0DE29"/>
<path d="M215.203 41.9979V17.0234H218.955V26.2992H219.134C219.42 25.8237 219.861 25.3483 220.457 24.8728C221.743 23.9219 223.209 23.445 224.852 23.445C227.114 23.445 228.871 24.0991 230.122 25.4073C231.373 26.7155 231.998 28.6188 231.998 31.1157V41.9979H228.246V31.473C228.246 29.8792 227.893 28.7088 227.192 27.9591C226.489 27.2093 225.411 26.8351 223.958 26.8351C222.506 26.8351 221.308 27.3289 220.367 28.3164C219.426 29.3039 218.955 30.5938 218.955 32.1876V41.9993H215.203V41.9979Z" fill="#C0DE29"/>
<path d="M215.203 41.9979V17.0234H218.955V26.2992H219.134C219.42 25.8237 219.861 25.3483 220.457 24.8728C221.743 23.9219 223.209 23.445 224.852 23.445C227.114 23.445 228.871 24.0991 230.122 25.4073C231.373 26.7155 231.998 28.6188 231.998 31.1157V41.9979H228.246V31.473C228.246 29.8792 227.893 28.7088 227.192 27.9591C226.489 27.2093 225.411 26.8351 223.958 26.8351C222.506 26.8351 221.308 27.3289 220.367 28.3164C219.426 29.3039 218.955 30.5938 218.955 32.1876V41.9993H215.203V41.9979Z" stroke="#C0DE29"/>
<path d="M156.379 23.8057H160.31L152.806 48.7801H148.875L156.379 23.8057Z" fill="#C0DE29"/>
<path d="M156.379 23.8057H160.31L152.806 48.7801H148.875L156.379 23.8057Z" stroke="#C0DE29"/>
<path d="M147.426 23.8057H151.357L143.853 48.7801H139.922L147.426 23.8057Z" fill="#C0DE29"/>
<path d="M147.426 23.8057H151.357L143.853 48.7801H139.922L147.426 23.8057Z" stroke="#C0DE29"/>
<path d="M96.1707 42.3135C94.4085 42.3135 92.8397 41.9374 91.4642 41.1852C90.0888 40.4116 89.0035 39.3585 88.2084 38.0261C87.4132 36.6936 87.0156 35.1785 87.0156 33.4808C87.0156 31.7615 87.4132 30.2464 88.2084 28.9354C89.0035 27.603 90.0888 26.5607 91.4642 25.8085C92.8397 25.0563 94.4085 24.6803 96.1707 24.6803C97.9545 24.6803 99.5341 25.0563 100.909 25.8085C102.306 26.5607 103.392 27.5923 104.165 28.9032C104.96 30.2142 105.358 31.74 105.358 33.4808C105.358 35.1785 104.96 36.6936 104.165 38.0261C103.392 39.3585 102.306 40.4116 100.909 41.1852C99.5341 41.9374 97.9545 42.3135 96.1707 42.3135ZM96.1707 38.8642C97.1593 38.8642 98.0404 38.6493 98.8141 38.2195C99.5878 37.7897 100.19 37.1664 100.619 36.3498C101.071 35.5331 101.296 34.5768 101.296 33.4808C101.296 32.3632 101.071 31.4069 100.619 30.6117C100.19 29.7951 99.5878 29.1718 98.8141 28.742C98.0404 28.3122 97.1701 28.0973 96.203 28.0973C95.2144 28.0973 94.3333 28.3122 93.5596 28.742C92.8074 29.1718 92.2057 29.7951 91.7544 30.6117C91.3031 31.4069 91.0774 32.3632 91.0774 33.4808C91.0774 34.5768 91.3031 35.5331 91.7544 36.3498C92.2057 37.1664 92.8074 37.7897 93.5596 38.2195C94.3333 38.6493 95.2036 38.8642 96.1707 38.8642ZM118.979 24.6803C120.354 24.6803 121.579 24.9489 122.654 25.4862C123.75 26.0234 124.609 26.8508 125.233 27.9684C125.856 29.0644 126.168 30.4828 126.168 32.2235V42.0879H122.138V32.7393C122.138 31.2135 121.773 30.0745 121.042 29.3223C120.333 28.5701 119.333 28.194 118.044 28.194C117.098 28.194 116.26 28.3874 115.53 28.7743C114.799 29.1611 114.229 29.7414 113.821 30.515C113.434 31.2672 113.241 32.2236 113.241 33.3841V42.0879H109.211V24.8737H113.047V29.5157L112.37 28.0973C112.972 27.0013 113.843 26.1631 114.982 25.5829C116.142 24.9811 117.474 24.6803 118.979 24.6803ZM131.827 42.0879V23.9066C131.827 22.1014 132.354 20.6615 133.407 19.5869C134.481 18.4909 136.007 17.9429 137.984 17.9429C138.694 17.9429 139.36 18.0181 139.983 18.1685C140.628 18.319 141.165 18.5554 141.595 18.8777L140.499 21.9079C140.198 21.6715 139.854 21.4996 139.467 21.3922C139.081 21.2632 138.683 21.1987 138.275 21.1987C137.436 21.1987 136.802 21.4351 136.373 21.9079C135.943 22.3592 135.728 23.047 135.728 23.9711V25.9052L135.857 27.7105V42.0879H131.827ZM128.991 28.2263V25.0026H140.467V28.2263H128.991Z" fill="white"/>
<path d="M69.6925 39.802C68.0486 38.1155 67.2266 35.9793 67.2266 33.3923C67.2266 30.8052 68.0486 28.6691 69.6925 26.9825C71.3366 25.2959 73.3867 24.4526 75.842 24.4526C78.5906 24.4526 80.8313 25.4981 82.5659 27.5904C83.3093 28.5573 83.8276 29.5922 84.1207 30.6935H80.4037C80.2465 30.1322 79.9535 29.6254 79.5256 29.1758C78.6478 28.1636 77.4195 27.6582 75.842 27.6582C74.4445 27.6582 73.2801 28.1862 72.3452 29.2437C71.4099 30.3011 70.9421 31.6844 70.9421 33.3936C70.9421 35.1028 71.4099 36.4861 72.3452 37.5435C73.2801 38.6009 74.4445 39.129 75.842 39.129C77.4648 39.129 78.7372 38.6236 79.6604 37.6114C80.0653 37.1618 80.3704 36.6563 80.573 36.0937H84.1207C83.8276 37.2403 83.3093 38.2871 82.5659 39.2314C80.854 41.3011 78.6131 42.3346 75.842 42.3346C73.3867 42.3346 71.3366 41.4913 69.6925 39.8047V39.802Z" fill="white"/>
<path d="M69.6925 39.802C68.0486 38.1155 67.2266 35.9793 67.2266 33.3923C67.2266 30.8052 68.0486 28.6691 69.6925 26.9825C71.3366 25.2959 73.3867 24.4526 75.842 24.4526C78.5906 24.4526 80.8313 25.4981 82.5659 27.5904C83.3093 28.5573 83.8276 29.5922 84.1207 30.6935H80.4037C80.2465 30.1322 79.9535 29.6254 79.5256 29.1758C78.6478 28.1636 77.4195 27.6582 75.842 27.6582C74.4445 27.6582 73.2801 28.1862 72.3452 29.2437C71.4099 30.3011 70.9421 31.6844 70.9421 33.3936C70.9421 35.1028 71.4099 36.4861 72.3452 37.5435C73.2801 38.6009 74.4445 39.129 75.842 39.129C77.4648 39.129 78.7372 38.6236 79.6604 37.6114C80.0653 37.1618 80.3704 36.6563 80.573 36.0937H84.1207C83.8276 37.2403 83.3093 38.2871 82.5659 39.2314C80.854 41.3011 78.6131 42.3346 75.842 42.3346C73.3867 42.3346 71.3366 41.4913 69.6925 39.8047V39.802Z" stroke="white"/>
<path d="M54.9922 40.6311C57.6589 42.1707 57.6589 46.0197 54.9922 47.5593L34.1614 59.586C31.4947 61.1256 28.1614 59.2011 28.1614 56.1219L28.1614 32.0685C28.1614 28.9893 31.4947 27.0648 34.1614 28.6044L54.9922 40.6311Z" fill="white"/>
<path d="M59.3203 29.5287C61.987 31.0683 61.987 34.9173 59.3203 36.4569L22.3291 57.8138C19.6624 59.3534 16.3291 57.4289 16.3291 54.3497L16.3291 11.6359C16.3291 8.55675 19.6624 6.63224 22.3291 8.17184L59.3203 29.5287Z" fill="#C0DE29"/>
<path d="M54.9922 18.4231C57.6589 19.9627 57.6589 23.8117 54.9922 25.3513L34.1614 37.378C31.4947 38.9176 28.1614 36.9931 28.1614 33.9139L28.1614 9.86053C28.1614 6.78133 31.4947 4.85683 34.1614 6.39643L54.9922 18.4231Z" fill="white"/>
</svg>
