<svg width="350" height="725" viewBox="0 0 350 725" fill="none" xmlns="http://www.w3.org/2000/svg">
<g clip-path="url(#clip0_548_304)">
<path d="M317.779 38.4705C317.373 38.4254 317.035 38.1378 316.926 37.7442L296.778 -34.7877C296.601 -35.4249 297.08 -36.0553 297.741 -36.0553H323.254C323.697 -36.0553 324.087 -35.7645 324.213 -35.3403L338.975 14.3142C339.091 14.7033 339.43 14.9839 339.834 15.0243L393.681 20.409C394.068 20.4477 394.397 20.7069 394.526 21.0737L403.441 46.5472C403.685 47.2421 403.119 47.9527 402.387 47.8714L317.779 38.4705Z" fill="#F5F5F5"/>
<path d="M317.779 173.585C317.373 173.54 317.035 173.253 316.926 172.859L296.778 100.327C296.601 99.6899 297.08 99.0594 297.741 99.0594H323.254C323.697 99.0594 324.087 99.3503 324.213 99.7744L338.975 149.429C339.091 149.818 339.43 150.099 339.834 150.139L393.681 155.524C394.068 155.562 394.397 155.822 394.526 156.188L403.441 181.662C403.685 182.357 403.119 183.067 402.387 182.986L317.779 173.585Z" fill="#F5F5F5"/>
<path d="M355.04 60.3806C355.446 60.4257 355.783 60.7132 355.893 61.1068L376.04 133.639C376.217 134.276 375.738 134.906 375.077 134.906H349.564C349.122 134.906 348.732 134.616 348.606 134.191L333.843 84.5369C333.728 84.1478 333.388 83.8672 332.984 83.8268L279.137 78.4421C278.75 78.4034 278.421 78.1442 278.293 77.7774L269.377 52.3039C269.134 51.609 269.699 50.8984 270.431 50.9797L355.04 60.3806Z" fill="#F5F5F5"/>
<path d="M317.779 308.7C317.373 308.655 317.035 308.368 316.926 307.974L296.778 235.442C296.601 234.805 297.08 234.175 297.741 234.175H323.254C323.697 234.175 324.087 234.465 324.213 234.89L338.975 284.544C339.091 284.933 339.43 285.214 339.834 285.254L393.681 290.639C394.068 290.678 394.397 290.937 394.526 291.304L403.441 316.777C403.685 317.472 403.119 318.183 402.387 318.101L317.779 308.7Z" fill="#F5F5F5"/>
<path d="M355.04 195.496C355.446 195.541 355.783 195.828 355.893 196.222L376.04 268.754C376.217 269.391 375.738 270.021 375.077 270.021H349.564C349.122 270.021 348.732 269.731 348.606 269.306L333.843 219.652C333.728 219.263 333.388 218.982 332.984 218.942L279.137 213.557C278.75 213.518 278.421 213.259 278.293 212.892L269.377 187.419C269.134 186.724 269.699 186.013 270.431 186.095L355.04 195.496Z" fill="#F5F5F5"/>
<path d="M317.779 443.818C317.373 443.773 317.035 443.485 316.926 443.091L296.778 370.559C296.601 369.922 297.08 369.292 297.741 369.292H323.254C323.697 369.292 324.087 369.583 324.213 370.007L338.975 419.661C339.091 420.05 339.43 420.331 339.834 420.371L393.681 425.756C394.068 425.795 394.397 426.054 394.526 426.421L403.441 451.894C403.685 452.589 403.119 453.3 402.387 453.219L317.779 443.818Z" fill="#F5F5F5"/>
<path d="M355.04 330.613C355.446 330.658 355.783 330.946 355.893 331.339L376.04 403.871C376.217 404.508 375.738 405.139 375.077 405.139H349.564C349.122 405.139 348.732 404.848 348.606 404.424L333.843 354.769C333.728 354.38 333.388 354.1 332.984 354.059L279.137 348.675C278.75 348.636 278.421 348.377 278.293 348.01L269.377 322.536C269.134 321.841 269.699 321.131 270.431 321.212L355.04 330.613Z" fill="#F5F5F5"/>
<path d="M317.779 578.93C317.373 578.885 317.035 578.598 316.926 578.204L296.778 505.672C296.601 505.035 297.08 504.405 297.741 504.405H323.254C323.697 504.405 324.087 504.695 324.213 505.12L338.975 554.774C339.091 555.163 339.43 555.444 339.834 555.484L393.681 560.869C394.068 560.908 394.397 561.167 394.526 561.534L403.441 587.007C403.685 587.702 403.119 588.413 402.387 588.331L317.779 578.93Z" fill="#F5F5F5"/>
<path d="M355.04 465.725C355.446 465.77 355.783 466.058 355.893 466.452L376.04 538.983C376.217 539.621 375.738 540.251 375.077 540.251H349.564C349.122 540.251 348.732 539.96 348.606 539.536L333.843 489.882C333.728 489.493 333.388 489.212 332.984 489.172L279.137 483.787C278.75 483.748 278.421 483.489 278.293 483.122L269.377 457.649C269.134 456.954 269.699 456.243 270.431 456.324L355.04 465.725Z" fill="#F5F5F5"/>
<path d="M317.779 714.046C317.373 714.001 317.035 713.713 316.926 713.32L296.778 640.788C296.601 640.151 297.08 639.52 297.741 639.52H323.254C323.697 639.52 324.087 639.811 324.213 640.235L338.975 689.89C339.091 690.279 339.43 690.559 339.834 690.6L393.681 695.984C394.068 696.023 394.397 696.282 394.526 696.649L403.441 722.123C403.685 722.818 403.119 723.528 402.387 723.447L317.779 714.046Z" fill="#F5F5F5"/>
<path d="M355.04 600.841C355.446 600.886 355.783 601.173 355.893 601.567L376.04 674.099C376.217 674.736 375.738 675.367 375.077 675.367H349.564C349.122 675.367 348.732 675.076 348.606 674.652L333.843 624.997C333.728 624.608 333.388 624.327 332.984 624.287L279.137 618.902C278.75 618.864 278.421 618.604 278.293 618.238L269.377 592.764C269.134 592.069 269.699 591.359 270.431 591.44L355.04 600.841Z" fill="#F5F5F5"/>
<path d="M184.042 39.8484C183.636 39.8033 183.299 39.5158 183.189 39.1222L163.042 -33.4098C162.865 -34.047 163.344 -34.6774 164.005 -34.6774H189.518C189.961 -34.6774 190.35 -34.3866 190.477 -33.9624L205.239 15.6921C205.354 16.0812 205.694 16.3618 206.098 16.4022L259.945 21.7869C260.332 21.8256 260.661 22.0848 260.789 22.4516L269.705 47.9251C269.948 48.62 269.383 49.3306 268.651 49.2493L184.042 39.8484Z" fill="#F5F5F5"/>
<path d="M221.303 -73.3565C221.709 -73.3114 222.047 -73.0238 222.156 -72.6302L242.304 -0.0982906C242.481 0.538905 242.002 1.16936 241.341 1.16936H215.828C215.385 1.16936 214.995 0.878503 214.869 0.454325L200.107 -49.2002C199.991 -49.5893 199.652 -49.8699 199.248 -49.9102L145.401 -55.295C145.014 -55.3336 144.685 -55.5929 144.556 -55.9597L135.641 -81.4332C135.397 -82.1281 135.963 -82.8387 136.695 -82.7574L221.303 -73.3565Z" fill="#F5F5F5"/>
<path d="M184.042 174.965C183.636 174.92 183.299 174.632 183.189 174.239L163.042 101.707C162.865 101.069 163.344 100.439 164.005 100.439H189.518C189.961 100.439 190.35 100.73 190.477 101.154L205.239 150.809C205.354 151.198 205.694 151.478 206.098 151.519L259.945 156.903C260.332 156.942 260.661 157.201 260.789 157.568L269.705 183.042C269.948 183.736 269.383 184.447 268.651 184.366L184.042 174.965Z" fill="#F5F5F5"/>
<path d="M221.303 61.76C221.709 61.8051 222.047 62.0926 222.156 62.4862L242.304 135.018C242.481 135.655 242.002 136.286 241.341 136.286H215.828C215.385 136.286 214.995 135.995 214.869 135.571L200.107 85.9163C199.991 85.5272 199.652 85.2466 199.248 85.2062L145.401 79.8215C145.014 79.7828 144.685 79.5236 144.556 79.1568L135.641 53.6833C135.397 52.9884 135.963 52.2778 136.695 52.3591L221.303 61.76Z" fill="#F5F5F5"/>
<path d="M184.041 310.078C183.635 310.033 183.298 309.746 183.188 309.352L163.041 236.82C162.864 236.183 163.343 235.553 164.004 235.553H189.517C189.96 235.553 190.349 235.843 190.476 236.268L205.238 285.922C205.353 286.311 205.693 286.592 206.097 286.632L259.944 292.017C260.331 292.056 260.66 292.315 260.788 292.682L269.704 318.155C269.947 318.85 269.382 319.561 268.65 319.479L184.041 310.078Z" fill="#F5F5F5"/>
<path d="M221.303 196.874C221.709 196.919 222.047 197.206 222.156 197.6L242.304 270.132C242.481 270.769 242.002 271.399 241.341 271.399H215.828C215.385 271.399 214.995 271.108 214.869 270.684L200.107 221.03C199.991 220.641 199.652 220.36 199.248 220.32L145.401 214.935C145.014 214.896 144.685 214.637 144.556 214.27L135.641 188.797C135.397 188.102 135.963 187.391 136.695 187.473L221.303 196.874Z" fill="#F5F5F5"/>
<path d="M184.041 445.194C183.635 445.149 183.298 444.861 183.188 444.467L163.041 371.935C162.864 371.298 163.343 370.668 164.004 370.668H189.517C189.96 370.668 190.349 370.959 190.476 371.383L205.238 421.037C205.353 421.426 205.693 421.707 206.097 421.747L259.944 427.132C260.331 427.171 260.66 427.43 260.788 427.797L269.704 453.27C269.947 453.965 269.382 454.676 268.65 454.595L184.041 445.194Z" fill="#F5F5F5"/>
<path d="M221.303 331.989C221.709 332.034 222.047 332.322 222.156 332.715L242.304 405.247C242.481 405.884 242.002 406.515 241.341 406.515H215.828C215.385 406.515 214.995 406.224 214.869 405.8L200.107 356.145C199.991 355.756 199.652 355.476 199.248 355.435L145.401 350.05C145.014 350.012 144.685 349.753 144.556 349.386L135.641 323.912C135.397 323.217 135.963 322.507 136.695 322.588L221.303 331.989Z" fill="#F5F5F5"/>
<path d="M184.042 580.308C183.636 580.263 183.299 579.975 183.189 579.582L163.042 507.05C162.865 506.413 163.344 505.782 164.005 505.782H189.518C189.961 505.782 190.35 506.073 190.477 506.497L205.239 556.152C205.354 556.541 205.694 556.821 206.098 556.862L259.945 562.246C260.332 562.285 260.661 562.544 260.789 562.911L269.705 588.385C269.948 589.08 269.383 589.79 268.651 589.709L184.042 580.308Z" fill="#F5F5F5"/>
<path d="M221.302 467.103C221.708 467.148 222.046 467.436 222.155 467.829L242.303 540.361C242.48 540.998 242.001 541.629 241.34 541.629H215.827C215.384 541.629 214.994 541.338 214.868 540.914L200.106 491.259C199.99 490.87 199.651 490.59 199.247 490.549L145.4 485.164C145.013 485.126 144.684 484.867 144.555 484.5L135.64 459.026C135.396 458.331 135.962 457.621 136.694 457.702L221.302 467.103Z" fill="#F5F5F5"/>
<path d="M184.041 715.424C183.635 715.378 183.298 715.091 183.188 714.697L163.041 642.165C162.864 641.528 163.343 640.898 164.004 640.898H189.517C189.96 640.898 190.349 641.189 190.476 641.613L205.238 691.267C205.353 691.656 205.693 691.937 206.097 691.977L259.944 697.362C260.331 697.401 260.66 697.66 260.788 698.027L269.704 723.5C269.947 724.195 269.382 724.906 268.65 724.825L184.041 715.424Z" fill="#F5F5F5"/>
<path d="M221.303 602.219C221.709 602.264 222.047 602.551 222.156 602.945L242.304 675.477C242.481 676.114 242.002 676.745 241.341 676.745H215.828C215.385 676.745 214.995 676.454 214.869 676.03L200.107 626.375C199.991 625.986 199.652 625.705 199.248 625.665L145.401 620.28C145.014 620.242 144.685 619.982 144.556 619.616L135.641 594.142C135.397 593.447 135.963 592.736 136.695 592.818L221.303 602.219Z" fill="#F5F5F5"/>
<path d="M48.9272 39.8484C48.5212 39.8033 48.1834 39.5158 48.0741 39.1222L27.9263 -33.4098C27.7493 -34.047 28.2285 -34.6774 28.8899 -34.6774H54.4027C54.8453 -34.6774 55.2352 -34.3866 55.3613 -33.9624L70.1234 15.6921C70.2391 16.0812 70.5785 16.3618 70.9825 16.4022L124.83 21.7869C125.216 21.8256 125.546 22.0848 125.674 22.4516L134.59 47.9251C134.833 48.62 134.267 49.3306 133.536 49.2493L48.9272 39.8484Z" fill="#F5F5F5"/>
<path d="M86.1871 -73.3565C86.5931 -73.3114 86.9308 -73.0238 87.0402 -72.6302L107.188 -0.0982906C107.365 0.538905 106.886 1.16936 106.224 1.16936H80.7115C80.269 1.16936 79.8791 0.878503 79.753 0.454325L64.9908 -49.2002C64.8751 -49.5893 64.5357 -49.8699 64.1318 -49.9102L10.2845 -55.295C9.8978 -55.3336 9.56853 -55.5929 9.44015 -55.9597L0.524423 -81.4332C0.281196 -82.1281 0.846947 -82.8387 1.57871 -82.7574L86.1871 -73.3565Z" fill="#F5F5F5"/>
<path d="M48.9282 174.965C48.5222 174.92 48.1844 174.632 48.0751 174.239L27.9273 101.707C27.7503 101.069 28.2295 100.439 28.8908 100.439H54.4037C54.8463 100.439 55.2362 100.73 55.3623 101.154L70.1244 150.809C70.2401 151.198 70.5795 151.478 70.9834 151.519L124.831 156.903C125.217 156.942 125.547 157.201 125.675 157.568L134.591 183.042C134.834 183.736 134.268 184.447 133.537 184.366L48.9282 174.965Z" fill="#F5F5F5"/>
<path d="M86.189 61.76C86.595 61.8051 86.9328 62.0926 87.0421 62.4862L107.19 135.018C107.367 135.655 106.888 136.286 106.226 136.286H80.7135C80.2709 136.286 79.881 135.995 79.7549 135.571L64.9928 85.9163C64.8771 85.5272 64.5377 85.2466 64.1337 85.2062L10.2865 79.8215C9.89976 79.7828 9.57048 79.5236 9.4421 79.1568L0.526376 53.6833C0.283149 52.9884 0.8489 52.2778 1.58067 52.3591L86.189 61.76Z" fill="#F5F5F5"/>
<path d="M48.9272 310.078C48.5212 310.033 48.1834 309.746 48.0741 309.352L27.9263 236.82C27.7493 236.183 28.2285 235.553 28.8899 235.553H54.4027C54.8453 235.553 55.2352 235.843 55.3613 236.268L70.1234 285.922C70.2391 286.311 70.5785 286.592 70.9825 286.632L124.83 292.017C125.216 292.056 125.546 292.315 125.674 292.682L134.59 318.155C134.833 318.85 134.267 319.561 133.536 319.479L48.9272 310.078Z" fill="#F5F5F5"/>
<path d="M86.188 196.874C86.5941 196.919 86.9318 197.206 87.0411 197.6L107.189 270.132C107.366 270.769 106.887 271.399 106.225 271.399H80.7125C80.27 271.399 79.8801 271.108 79.7539 270.684L64.9918 221.03C64.8761 220.641 64.5367 220.36 64.1328 220.32L10.2855 214.935C9.89878 214.896 9.56951 214.637 9.44112 214.27L0.525399 188.797C0.282173 188.102 0.847923 187.391 1.57969 187.473L86.188 196.874Z" fill="#F5F5F5"/>
<path d="M48.9272 445.193C48.5212 445.148 48.1834 444.861 48.0741 444.467L27.9263 371.935C27.7493 371.298 28.2285 370.668 28.8899 370.668H54.4027C54.8453 370.668 55.2352 370.958 55.3613 371.383L70.1234 421.037C70.2391 421.426 70.5785 421.707 70.9825 421.747L124.83 427.132C125.216 427.171 125.546 427.43 125.674 427.797L134.59 453.27C134.833 453.965 134.267 454.676 133.536 454.594L48.9272 445.193Z" fill="#F5F5F5"/>
<path d="M86.188 331.989C86.5941 332.034 86.9318 332.321 87.0411 332.715L107.189 405.247C107.366 405.884 106.887 406.515 106.225 406.515H80.7125C80.27 406.515 79.8801 406.224 79.7539 405.8L64.9918 356.145C64.8761 355.756 64.5367 355.475 64.1328 355.435L10.2855 350.05C9.89878 350.012 9.56951 349.752 9.44112 349.386L0.525399 323.912C0.282173 323.217 0.847923 322.507 1.57969 322.588L86.188 331.989Z" fill="#F5F5F5"/>
<path d="M48.9272 580.308C48.5212 580.263 48.1834 579.975 48.0741 579.581L27.9263 507.049C27.7493 506.412 28.2285 505.782 28.8899 505.782H54.4027C54.8453 505.782 55.2352 506.073 55.3613 506.497L70.1234 556.151C70.2391 556.54 70.5785 556.821 70.9825 556.861L124.83 562.246C125.216 562.285 125.546 562.544 125.674 562.911L134.59 588.384C134.833 589.079 134.267 589.79 133.536 589.709L48.9272 580.308Z" fill="#F5F5F5"/>
<path d="M86.188 467.103C86.5941 467.148 86.9318 467.436 87.0411 467.829L107.189 540.361C107.366 540.999 106.887 541.629 106.225 541.629H80.7125C80.27 541.629 79.8801 541.338 79.7539 540.914L64.9918 491.26C64.8761 490.87 64.5367 490.59 64.1328 490.549L10.2855 485.165C9.89878 485.126 9.56951 484.867 9.44112 484.5L0.525399 459.027C0.282173 458.332 0.847923 457.621 1.57969 457.702L86.188 467.103Z" fill="#F5F5F5"/>
<path d="M48.9272 715.424C48.5212 715.378 48.1834 715.091 48.0741 714.697L27.9263 642.165C27.7493 641.528 28.2285 640.898 28.8899 640.898H54.4027C54.8453 640.898 55.2352 641.189 55.3613 641.613L70.1234 691.267C70.2391 691.656 70.5785 691.937 70.9825 691.977L124.83 697.362C125.216 697.401 125.546 697.66 125.674 698.027L134.59 723.5C134.833 724.195 134.267 724.906 133.536 724.825L48.9272 715.424Z" fill="#F5F5F5"/>
<path d="M86.188 602.219C86.5941 602.264 86.9318 602.551 87.0411 602.945L107.189 675.477C107.366 676.114 106.887 676.745 106.225 676.745H80.7125C80.27 676.745 79.8801 676.454 79.7539 676.03L64.9918 626.375C64.8761 625.986 64.5367 625.705 64.1328 625.665L10.2855 620.28C9.89878 620.242 9.56951 619.982 9.44112 619.616L0.525399 594.142C0.282173 593.447 0.847923 592.736 1.57969 592.818L86.188 602.219Z" fill="#F5F5F5"/>
</g>
<defs>
<clipPath id="clip0_548_304">
<rect width="350" height="725" fill="white"/>
</clipPath>
</defs>
</svg>
