<svg width="404" height="1620" viewBox="0 0 404 1620" fill="none" xmlns="http://www.w3.org/2000/svg">
<path d="M317.779 122.781C317.373 122.736 317.035 122.448 316.926 122.055L296.778 49.5229C296.601 48.8857 297.08 48.2552 297.741 48.2552H323.254C323.697 48.2552 324.087 48.5461 324.213 48.9702L338.975 98.6247C339.091 99.0138 339.43 99.2944 339.834 99.3348L393.681 104.72C394.068 104.758 394.397 105.017 394.526 105.384L403.441 130.858C403.685 131.553 403.119 132.263 402.387 132.182L317.779 122.781Z" fill="#F5F5F5"/>
<path d="M355.04 9.5764C355.446 9.62151 355.783 9.90904 355.893 10.3026L376.04 82.8346C376.217 83.4718 375.738 84.1022 375.077 84.1022H349.564C349.122 84.1022 348.732 83.8114 348.606 83.3872L333.843 33.7327C333.728 33.3436 333.388 33.063 332.984 33.0226L279.137 27.6379C278.75 27.5992 278.421 27.34 278.293 26.9732L269.377 1.4997C269.134 0.804766 269.699 0.0941577 270.431 0.175465L355.04 9.5764Z" fill="#F5F5F5"/>
<path d="M317.779 257.896C317.373 257.851 317.035 257.563 316.926 257.17L296.778 184.638C296.601 184 297.08 183.37 297.741 183.37H323.254C323.697 183.37 324.087 183.661 324.213 184.085L338.975 233.739C339.091 234.129 339.43 234.409 339.834 234.45L393.681 239.834C394.068 239.873 394.397 240.132 394.526 240.499L403.441 265.972C403.685 266.667 403.119 267.378 402.387 267.297L317.779 257.896Z" fill="#F5F5F5"/>
<path d="M355.04 144.69C355.446 144.735 355.783 145.023 355.893 145.416L376.04 217.948C376.217 218.586 375.738 219.216 375.077 219.216H349.564C349.122 219.216 348.732 218.925 348.606 218.501L333.843 168.846C333.728 168.457 333.388 168.177 332.984 168.136L279.137 162.752C278.75 162.713 278.421 162.454 278.293 162.087L269.377 136.613C269.134 135.919 269.699 135.208 270.431 135.289L355.04 144.69Z" fill="#F5F5F5"/>
<path d="M317.779 393.011C317.373 392.965 317.035 392.678 316.926 392.284L296.778 319.752C296.601 319.115 297.08 318.485 297.741 318.485H323.254C323.697 318.485 324.087 318.776 324.213 319.2L338.975 368.854C339.091 369.243 339.43 369.524 339.834 369.564L393.681 374.949C394.068 374.988 394.397 375.247 394.526 375.614L403.441 401.087C403.685 401.782 403.119 402.493 402.387 402.411L317.779 393.011Z" fill="#F5F5F5"/>
<path d="M355.04 279.806C355.446 279.851 355.783 280.139 355.893 280.532L376.04 353.064C376.217 353.701 375.738 354.332 375.077 354.332H349.564C349.122 354.332 348.732 354.041 348.606 353.617L333.843 303.962C333.728 303.573 333.388 303.293 332.984 303.252L279.137 297.867C278.75 297.829 278.421 297.57 278.293 297.203L269.377 271.729C269.134 271.034 269.699 270.324 270.431 270.405L355.04 279.806Z" fill="#F5F5F5"/>
<path d="M317.779 528.126C317.373 528.081 317.035 527.793 316.926 527.4L296.778 454.868C296.601 454.23 297.08 453.6 297.741 453.6H323.254C323.697 453.6 324.087 453.891 324.213 454.315L338.975 503.969C339.091 504.359 339.43 504.639 339.834 504.68L393.681 510.064C394.068 510.103 394.397 510.362 394.526 510.729L403.441 536.202C403.685 536.897 403.119 537.608 402.387 537.527L317.779 528.126Z" fill="#F5F5F5"/>
<path d="M355.04 414.921C355.446 414.966 355.783 415.254 355.893 415.647L376.04 488.179C376.217 488.816 375.738 489.447 375.077 489.447H349.564C349.122 489.447 348.732 489.156 348.606 488.732L333.843 439.077C333.728 438.688 333.388 438.408 332.984 438.367L279.137 432.983C278.75 432.944 278.421 432.685 278.293 432.318L269.377 406.844C269.134 406.149 269.699 405.439 270.431 405.52L355.04 414.921Z" fill="#F5F5F5"/>
<path d="M317.779 663.241C317.373 663.196 317.035 662.908 316.926 662.515L296.778 589.983C296.601 589.345 297.08 588.715 297.741 588.715H323.254C323.697 588.715 324.087 589.006 324.213 589.43L338.975 639.084C339.091 639.474 339.43 639.754 339.834 639.795L393.681 645.179C394.068 645.218 394.397 645.477 394.526 645.844L403.441 671.317C403.685 672.012 403.119 672.723 402.387 672.642L317.779 663.241Z" fill="#F5F5F5"/>
<path d="M355.04 550.036C355.446 550.081 355.783 550.369 355.893 550.762L376.04 623.294C376.217 623.931 375.738 624.562 375.077 624.562H349.564C349.122 624.562 348.732 624.271 348.606 623.847L333.843 574.192C333.728 573.803 333.388 573.522 332.984 573.482L279.137 568.097C278.75 568.059 278.421 567.799 278.293 567.433L269.377 541.959C269.134 541.264 269.699 540.554 270.431 540.635L355.04 550.036Z" fill="#F5F5F5"/>
<path d="M317.779 798.355C317.373 798.31 317.035 798.023 316.926 797.629L296.778 725.097C296.601 724.46 297.08 723.83 297.741 723.83H323.254C323.697 723.83 324.087 724.121 324.213 724.545L338.975 774.199C339.091 774.588 339.43 774.869 339.834 774.909L393.681 780.294C394.068 780.333 394.397 780.592 394.526 780.959L403.441 806.432C403.685 807.127 403.119 807.838 402.387 807.756L317.779 798.355Z" fill="#F5F5F5"/>
<path d="M355.04 685.151C355.446 685.196 355.783 685.483 355.893 685.877L376.04 758.409C376.217 759.046 375.738 759.677 375.077 759.677H349.564C349.122 759.677 348.732 759.386 348.606 758.962L333.843 709.307C333.728 708.918 333.388 708.637 332.984 708.597L279.137 703.212C278.75 703.174 278.421 702.914 278.293 702.548L269.377 677.074C269.134 676.379 269.699 675.669 270.431 675.75L355.04 685.151Z" fill="#F5F5F5"/>
<path d="M317.779 933.47C317.373 933.425 317.035 933.138 316.926 932.744L296.778 860.212C296.601 859.575 297.08 858.945 297.741 858.945H323.254C323.697 858.945 324.087 859.236 324.213 859.66L338.975 909.314C339.091 909.703 339.43 909.984 339.834 910.024L393.681 915.409C394.068 915.448 394.397 915.707 394.526 916.074L403.441 941.547C403.685 942.242 403.119 942.953 402.387 942.871L317.779 933.47Z" fill="#F5F5F5"/>
<path d="M355.04 820.266C355.446 820.311 355.783 820.598 355.893 820.992L376.04 893.524C376.217 894.161 375.738 894.792 375.077 894.792H349.564C349.122 894.792 348.732 894.501 348.606 894.077L333.843 844.422C333.728 844.033 333.388 843.752 332.984 843.712L279.137 838.327C278.75 838.289 278.421 838.029 278.293 837.663L269.377 812.189C269.134 811.494 269.699 810.784 270.431 810.865L355.04 820.266Z" fill="#F5F5F5"/>
<path d="M317.779 1068.59C317.373 1068.54 317.035 1068.25 316.926 1067.86L296.778 995.327C296.601 994.69 297.08 994.059 297.741 994.059H323.254C323.697 994.059 324.087 994.35 324.213 994.774L338.975 1044.43C339.091 1044.82 339.43 1045.1 339.834 1045.14L393.681 1050.52C394.068 1050.56 394.397 1050.82 394.526 1051.19L403.441 1076.66C403.685 1077.36 403.119 1078.07 402.387 1077.99L317.779 1068.59Z" fill="#F5F5F5"/>
<path d="M355.04 955.381C355.446 955.426 355.783 955.713 355.893 956.107L376.04 1028.64C376.217 1029.28 375.738 1029.91 375.077 1029.91H349.564C349.122 1029.91 348.732 1029.62 348.606 1029.19L333.843 979.537C333.728 979.148 333.388 978.867 332.984 978.827L279.137 973.442C278.75 973.403 278.421 973.144 278.293 972.777L269.377 947.304C269.134 946.609 269.699 945.898 270.431 945.98L355.04 955.381Z" fill="#F5F5F5"/>
<path d="M317.779 1203.7C317.373 1203.66 317.035 1203.37 316.926 1202.97L296.778 1130.44C296.601 1129.81 297.08 1129.17 297.741 1129.17H323.254C323.697 1129.17 324.087 1129.47 324.213 1129.89L338.975 1179.54C339.091 1179.93 339.43 1180.21 339.834 1180.25L393.681 1185.64C394.068 1185.68 394.397 1185.94 394.526 1186.3L403.441 1211.78C403.685 1212.47 403.119 1213.18 402.387 1213.1L317.779 1203.7Z" fill="#F5F5F5"/>
<path d="M355.04 1090.5C355.446 1090.54 355.783 1090.83 355.893 1091.22L376.04 1163.75C376.217 1164.39 375.738 1165.02 375.077 1165.02H349.564C349.122 1165.02 348.732 1164.73 348.606 1164.31L333.843 1114.65C333.728 1114.26 333.388 1113.98 332.984 1113.94L279.137 1108.56C278.75 1108.52 278.421 1108.26 278.293 1107.89L269.377 1082.42C269.134 1081.72 269.699 1081.01 270.431 1081.09L355.04 1090.5Z" fill="#F5F5F5"/>
<path d="M317.779 1338.82C317.373 1338.77 317.035 1338.49 316.926 1338.09L296.778 1265.56C296.601 1264.92 297.08 1264.29 297.741 1264.29H323.254C323.697 1264.29 324.087 1264.58 324.213 1265.01L338.975 1314.66C339.091 1315.05 339.43 1315.33 339.834 1315.37L393.681 1320.76C394.068 1320.79 394.397 1321.05 394.526 1321.42L403.441 1346.89C403.685 1347.59 403.119 1348.3 402.387 1348.22L317.779 1338.82Z" fill="#F5F5F5"/>
<path d="M355.04 1225.61C355.446 1225.66 355.783 1225.95 355.893 1226.34L376.04 1298.87C376.217 1299.51 375.738 1300.14 375.077 1300.14H349.564C349.122 1300.14 348.732 1299.85 348.606 1299.42L333.843 1249.77C333.728 1249.38 333.388 1249.1 332.984 1249.06L279.137 1243.67C278.75 1243.64 278.421 1243.38 278.293 1243.01L269.377 1217.54C269.134 1216.84 269.699 1216.13 270.431 1216.21L355.04 1225.61Z" fill="#F5F5F5"/>
<path d="M317.779 1473.93C317.373 1473.89 317.035 1473.6 316.926 1473.2L296.778 1400.67C296.601 1400.04 297.08 1399.4 297.741 1399.4H323.254C323.697 1399.4 324.087 1399.7 324.213 1400.12L338.975 1449.77C339.091 1450.16 339.43 1450.44 339.834 1450.48L393.681 1455.87C394.068 1455.91 394.397 1456.17 394.526 1456.53L403.441 1482.01C403.685 1482.7 403.119 1483.41 402.387 1483.33L317.779 1473.93Z" fill="#F5F5F5"/>
<path d="M355.04 1360.73C355.446 1360.77 355.783 1361.06 355.893 1361.45L376.04 1433.98C376.217 1434.62 375.738 1435.25 375.077 1435.25H349.564C349.122 1435.25 348.732 1434.96 348.606 1434.54L333.843 1384.88C333.728 1384.49 333.388 1384.21 332.984 1384.17L279.137 1378.79C278.75 1378.75 278.421 1378.49 278.293 1378.12L269.377 1352.65C269.134 1351.95 269.699 1351.24 270.431 1351.32L355.04 1360.73Z" fill="#F5F5F5"/>
<path d="M317.779 1609.05C317.373 1609 317.035 1608.71 316.926 1608.32L296.778 1535.79C296.601 1535.15 297.08 1534.52 297.741 1534.52H323.254C323.697 1534.52 324.087 1534.81 324.213 1535.24L338.975 1584.89C339.091 1585.28 339.43 1585.56 339.834 1585.6L393.681 1590.98C394.068 1591.02 394.397 1591.28 394.526 1591.65L403.441 1617.12C403.685 1617.82 403.119 1618.53 402.387 1618.45L317.779 1609.05Z" fill="#F5F5F5"/>
<path d="M355.04 1495.84C355.446 1495.89 355.783 1496.17 355.893 1496.57L376.04 1569.1C376.217 1569.74 375.738 1570.37 375.077 1570.37H349.564C349.122 1570.37 348.732 1570.08 348.606 1569.65L333.843 1520C333.728 1519.61 333.388 1519.33 332.984 1519.29L279.137 1513.9C278.75 1513.86 278.421 1513.6 278.293 1513.24L269.377 1487.76C269.134 1487.07 269.699 1486.36 270.431 1486.44L355.04 1495.84Z" fill="#F5F5F5"/>
<path d="M184.042 124.159C183.636 124.114 183.299 123.826 183.189 123.433L163.042 50.9008C162.865 50.2636 163.344 49.6331 164.005 49.6331H189.518C189.961 49.6331 190.35 49.924 190.477 50.3482L205.239 100.003C205.354 100.392 205.694 100.672 206.098 100.713L259.945 106.097C260.332 106.136 260.661 106.395 260.789 106.762L269.705 132.236C269.948 132.931 269.383 133.641 268.651 133.56L184.042 124.159Z" fill="#F5F5F5"/>
<path d="M221.303 10.9548C221.709 10.9999 222.047 11.2875 222.156 11.6811L242.304 84.213C242.481 84.8502 242.002 85.4806 241.341 85.4806H215.828C215.385 85.4806 214.995 85.1898 214.869 84.7656L200.107 35.1111C199.991 34.722 199.652 34.4414 199.248 34.401L145.401 29.0163C145.014 28.9776 144.685 28.7184 144.556 28.3516L135.641 2.87812C135.397 2.18318 135.963 1.47258 136.695 1.55388L221.303 10.9548Z" fill="#F5F5F5"/>
<path d="M184.042 259.274C183.636 259.229 183.299 258.941 183.189 258.547L163.042 186.016C162.865 185.378 163.344 184.748 164.005 184.748H189.518C189.961 184.748 190.35 185.039 190.477 185.463L205.239 235.117C205.354 235.507 205.694 235.787 206.098 235.827L259.945 241.212C260.332 241.251 260.661 241.51 260.789 241.877L269.705 267.35C269.948 268.045 269.383 268.756 268.651 268.675L184.042 259.274Z" fill="#F5F5F5"/>
<path d="M221.303 146.069C221.709 146.114 222.047 146.402 222.156 146.795L242.304 219.327C242.481 219.964 242.002 220.595 241.341 220.595H215.828C215.385 220.595 214.995 220.304 214.869 219.88L200.107 170.225C199.991 169.836 199.652 169.556 199.248 169.515L145.401 164.131C145.014 164.092 144.685 163.833 144.556 163.466L135.641 137.992C135.397 137.297 135.963 136.587 136.695 136.668L221.303 146.069Z" fill="#F5F5F5"/>
<path d="M184.042 394.388C183.636 394.343 183.299 394.056 183.189 393.662L163.042 321.13C162.865 320.493 163.344 319.863 164.005 319.863H189.518C189.961 319.863 190.35 320.153 190.477 320.578L205.239 370.232C205.354 370.621 205.694 370.902 206.098 370.942L259.945 376.327C260.332 376.366 260.661 376.625 260.789 376.992L269.705 402.465C269.948 403.16 269.383 403.871 268.651 403.789L184.042 394.388Z" fill="#F5F5F5"/>
<path d="M221.303 281.184C221.709 281.229 222.047 281.516 222.156 281.91L242.304 354.442C242.481 355.079 242.002 355.71 241.341 355.71H215.828C215.385 355.71 214.995 355.419 214.869 354.995L200.107 305.34C199.991 304.951 199.652 304.67 199.248 304.63L145.401 299.245C145.014 299.207 144.685 298.947 144.556 298.581L135.641 273.107C135.397 272.412 135.963 271.702 136.695 271.783L221.303 281.184Z" fill="#F5F5F5"/>
<path d="M184.042 529.503C183.636 529.458 183.299 529.171 183.189 528.777L163.042 456.245C162.865 455.608 163.344 454.978 164.005 454.978H189.518C189.961 454.978 190.35 455.268 190.477 455.693L205.239 505.347C205.354 505.736 205.694 506.017 206.098 506.057L259.945 511.442C260.332 511.481 260.661 511.74 260.789 512.107L269.705 537.58C269.948 538.275 269.383 538.986 268.651 538.904L184.042 529.503Z" fill="#F5F5F5"/>
<path d="M221.303 416.299C221.709 416.344 222.047 416.631 222.156 417.025L242.304 489.557C242.481 490.194 242.002 490.824 241.341 490.824H215.828C215.385 490.824 214.995 490.534 214.869 490.109L200.107 440.455C199.991 440.066 199.652 439.785 199.248 439.745L145.401 434.36C145.014 434.321 144.685 434.062 144.556 433.695L135.641 408.222C135.397 407.527 135.963 406.816 136.695 406.898L221.303 416.299Z" fill="#F5F5F5"/>
<path d="M184.042 664.618C183.636 664.573 183.299 664.286 183.189 663.892L163.042 591.36C162.865 590.723 163.344 590.093 164.005 590.093H189.518C189.961 590.093 190.35 590.383 190.477 590.808L205.239 640.462C205.354 640.851 205.694 641.132 206.098 641.172L259.945 646.557C260.332 646.596 260.661 646.855 260.789 647.222L269.705 672.695C269.948 673.39 269.383 674.101 268.651 674.019L184.042 664.618Z" fill="#F5F5F5"/>
<path d="M221.303 551.414C221.709 551.459 222.047 551.746 222.156 552.14L242.304 624.672C242.481 625.309 242.002 625.94 241.341 625.94H215.828C215.385 625.94 214.995 625.649 214.869 625.225L200.107 575.57C199.991 575.181 199.652 574.9 199.248 574.86L145.401 569.475C145.014 569.437 144.685 569.177 144.556 568.811L135.641 543.337C135.397 542.642 135.963 541.932 136.695 542.013L221.303 551.414Z" fill="#F5F5F5"/>
<path d="M184.042 799.733C183.636 799.688 183.299 799.401 183.189 799.007L163.042 726.475C162.865 725.838 163.344 725.208 164.005 725.208H189.518C189.961 725.208 190.35 725.498 190.477 725.923L205.239 775.577C205.354 775.966 205.694 776.247 206.098 776.287L259.945 781.672C260.332 781.711 260.661 781.97 260.789 782.337L269.705 807.81C269.948 808.505 269.383 809.216 268.651 809.134L184.042 799.733Z" fill="#F5F5F5"/>
<path d="M221.303 686.529C221.709 686.574 222.047 686.861 222.156 687.255L242.304 759.787C242.481 760.424 242.002 761.054 241.341 761.054H215.828C215.385 761.054 214.995 760.764 214.869 760.339L200.107 710.685C199.991 710.296 199.652 710.015 199.248 709.975L145.401 704.59C145.014 704.551 144.685 704.292 144.556 703.925L135.641 678.452C135.397 677.757 135.963 677.046 136.695 677.128L221.303 686.529Z" fill="#F5F5F5"/>
<path d="M184.042 934.848C183.636 934.803 183.299 934.516 183.189 934.122L163.042 861.59C162.865 860.953 163.344 860.323 164.005 860.323H189.518C189.961 860.323 190.35 860.613 190.477 861.038L205.239 910.692C205.354 911.081 205.694 911.362 206.098 911.402L259.945 916.787C260.332 916.826 260.661 917.085 260.789 917.452L269.705 942.925C269.948 943.62 269.383 944.331 268.651 944.249L184.042 934.848Z" fill="#F5F5F5"/>
<path d="M221.303 821.644C221.709 821.689 222.047 821.976 222.156 822.37L242.304 894.902C242.481 895.539 242.002 896.169 241.341 896.169H215.828C215.385 896.169 214.995 895.879 214.869 895.454L200.107 845.8C199.991 845.411 199.652 845.13 199.248 845.09L145.401 839.705C145.014 839.666 144.685 839.407 144.556 839.04L135.641 813.567C135.397 812.872 135.963 812.161 136.695 812.243L221.303 821.644Z" fill="#F5F5F5"/>
<path d="M184.042 1069.96C183.636 1069.92 183.299 1069.63 183.189 1069.24L163.042 996.707C162.865 996.069 163.344 995.439 164.005 995.439H189.518C189.961 995.439 190.35 995.73 190.477 996.154L205.239 1045.81C205.354 1046.2 205.694 1046.48 206.098 1046.52L259.945 1051.9C260.332 1051.94 260.661 1052.2 260.789 1052.57L269.705 1078.04C269.948 1078.74 269.383 1079.45 268.651 1079.37L184.042 1069.96Z" fill="#F5F5F5"/>
<path d="M221.303 956.76C221.709 956.805 222.047 957.093 222.156 957.486L242.304 1030.02C242.481 1030.66 242.002 1031.29 241.341 1031.29H215.828C215.385 1031.29 214.995 1030.99 214.869 1030.57L200.107 980.916C199.991 980.527 199.652 980.247 199.248 980.206L145.401 974.821C145.014 974.783 144.685 974.524 144.556 974.157L135.641 948.683C135.397 947.988 135.963 947.278 136.695 947.359L221.303 956.76Z" fill="#F5F5F5"/>
<path d="M184.042 1205.08C183.636 1205.03 183.299 1204.75 183.189 1204.35L163.042 1131.82C162.865 1131.18 163.344 1130.55 164.005 1130.55H189.518C189.961 1130.55 190.35 1130.84 190.477 1131.27L205.239 1180.92C205.354 1181.31 205.694 1181.59 206.098 1181.63L259.945 1187.02C260.332 1187.06 260.661 1187.31 260.789 1187.68L269.705 1213.16C269.948 1213.85 269.383 1214.56 268.651 1214.48L184.042 1205.08Z" fill="#F5F5F5"/>
<path d="M221.303 1091.87C221.709 1091.92 222.047 1092.21 222.156 1092.6L242.304 1165.13C242.481 1165.77 242.002 1166.4 241.341 1166.4H215.828C215.385 1166.4 214.995 1166.11 214.869 1165.68L200.107 1116.03C199.991 1115.64 199.652 1115.36 199.248 1115.32L145.401 1109.94C145.014 1109.9 144.685 1109.64 144.556 1109.27L135.641 1083.8C135.397 1083.1 135.963 1082.39 136.695 1082.47L221.303 1091.87Z" fill="#F5F5F5"/>
<path d="M184.042 1340.19C183.636 1340.15 183.299 1339.86 183.189 1339.47L163.042 1266.94C162.865 1266.3 163.344 1265.67 164.005 1265.67H189.518C189.961 1265.67 190.35 1265.96 190.477 1266.38L205.239 1316.04C205.354 1316.43 205.694 1316.71 206.098 1316.75L259.945 1322.13C260.332 1322.17 260.661 1322.43 260.789 1322.8L269.705 1348.27C269.948 1348.97 269.383 1349.68 268.651 1349.59L184.042 1340.19Z" fill="#F5F5F5"/>
<path d="M221.303 1226.99C221.709 1227.03 222.047 1227.32 222.156 1227.72L242.304 1300.25C242.481 1300.88 242.002 1301.51 241.341 1301.51H215.828C215.385 1301.51 214.995 1301.22 214.869 1300.8L200.107 1251.15C199.991 1250.76 199.652 1250.48 199.248 1250.44L145.401 1245.05C145.014 1245.01 144.685 1244.75 144.556 1244.39L135.641 1218.91C135.397 1218.22 135.963 1217.51 136.695 1217.59L221.303 1226.99Z" fill="#F5F5F5"/>
<path d="M184.042 1475.31C183.636 1475.26 183.299 1474.98 183.189 1474.58L163.042 1402.05C162.865 1401.41 163.344 1400.78 164.005 1400.78H189.518C189.961 1400.78 190.35 1401.07 190.477 1401.5L205.239 1451.15C205.354 1451.54 205.694 1451.82 206.098 1451.86L259.945 1457.25C260.332 1457.29 260.661 1457.54 260.789 1457.91L269.705 1483.38C269.948 1484.08 269.383 1484.79 268.651 1484.71L184.042 1475.31Z" fill="#F5F5F5"/>
<path d="M221.303 1362.1C221.709 1362.15 222.047 1362.44 222.156 1362.83L242.304 1435.36C242.481 1436 242.002 1436.63 241.341 1436.63H215.828C215.385 1436.63 214.995 1436.34 214.869 1435.91L200.107 1386.26C199.991 1385.87 199.652 1385.59 199.248 1385.55L145.401 1380.16C145.014 1380.13 144.685 1379.87 144.556 1379.5L135.641 1354.03C135.397 1353.33 135.963 1352.62 136.695 1352.7L221.303 1362.1Z" fill="#F5F5F5"/>
<path d="M184.042 1610.42C183.636 1610.38 183.299 1610.09 183.189 1609.7L163.042 1537.17C162.865 1536.53 163.344 1535.9 164.005 1535.9H189.518C189.961 1535.9 190.35 1536.19 190.477 1536.61L205.239 1586.27C205.354 1586.66 205.694 1586.94 206.098 1586.98L259.945 1592.36C260.332 1592.4 260.661 1592.66 260.789 1593.03L269.705 1618.5C269.948 1619.2 269.383 1619.91 268.651 1619.82L184.042 1610.42Z" fill="#F5F5F5"/>
<path d="M221.303 1497.22C221.709 1497.26 222.047 1497.55 222.156 1497.94L242.304 1570.48C242.481 1571.11 242.002 1571.74 241.341 1571.74H215.828C215.385 1571.74 214.995 1571.45 214.869 1571.03L200.107 1521.38C199.991 1520.99 199.652 1520.71 199.248 1520.66L145.401 1515.28C145.014 1515.24 144.685 1514.98 144.556 1514.62L135.641 1489.14C135.397 1488.45 135.963 1487.74 136.695 1487.82L221.303 1497.22Z" fill="#F5F5F5"/>
<path d="M48.9272 124.159C48.5212 124.114 48.1834 123.826 48.0741 123.433L27.9263 50.9008C27.7493 50.2636 28.2285 49.6331 28.8899 49.6331H54.4027C54.8453 49.6331 55.2352 49.924 55.3613 50.3482L70.1234 100.003C70.2391 100.392 70.5785 100.672 70.9825 100.713L124.83 106.097C125.216 106.136 125.546 106.395 125.674 106.762L134.59 132.236C134.833 132.931 134.267 133.641 133.536 133.56L48.9272 124.159Z" fill="#F5F5F5"/>
<path d="M86.188 10.9543C86.5941 10.9994 86.9318 11.287 87.0411 11.6806L107.189 84.2125C107.366 84.8497 106.887 85.4801 106.225 85.4801H80.7125C80.27 85.4801 79.8801 85.1893 79.7539 84.7651L64.9918 35.1106C64.8761 34.7215 64.5367 34.4409 64.1328 34.4005L10.2855 29.0158C9.89878 28.9771 9.56951 28.7179 9.44112 28.3511L0.525399 2.87763C0.282173 2.1827 0.847923 1.47209 1.57969 1.55339L86.188 10.9543Z" fill="#F5F5F5"/>
<path d="M48.9272 259.274C48.5212 259.229 48.1834 258.941 48.0741 258.547L27.9263 186.016C27.7493 185.378 28.2285 184.748 28.8899 184.748H54.4027C54.8453 184.748 55.2352 185.039 55.3613 185.463L70.1234 235.117C70.2391 235.507 70.5785 235.787 70.9825 235.827L124.83 241.212C125.216 241.251 125.546 241.51 125.674 241.877L134.59 267.35C134.833 268.045 134.267 268.756 133.536 268.675L48.9272 259.274Z" fill="#F5F5F5"/>
<path d="M86.188 146.069C86.5941 146.114 86.9318 146.402 87.0411 146.795L107.189 219.327C107.366 219.964 106.887 220.595 106.225 220.595H80.7125C80.27 220.595 79.8801 220.304 79.7539 219.88L64.9918 170.225C64.8761 169.836 64.5367 169.556 64.1328 169.515L10.2855 164.131C9.89878 164.092 9.56951 163.833 9.44112 163.466L0.525399 137.992C0.282173 137.297 0.847923 136.587 1.57969 136.668L86.188 146.069Z" fill="#F5F5F5"/>
<path d="M48.9272 394.388C48.5212 394.343 48.1834 394.056 48.0741 393.662L27.9263 321.13C27.7493 320.493 28.2285 319.863 28.8899 319.863H54.4027C54.8453 319.863 55.2352 320.153 55.3613 320.578L70.1234 370.232C70.2391 370.621 70.5785 370.902 70.9825 370.942L124.83 376.327C125.216 376.366 125.546 376.625 125.674 376.992L134.59 402.465C134.833 403.16 134.267 403.871 133.536 403.789L48.9272 394.388Z" fill="#F5F5F5"/>
<path d="M86.188 281.184C86.5941 281.229 86.9318 281.516 87.0411 281.91L107.189 354.442C107.366 355.079 106.887 355.71 106.225 355.71H80.7125C80.27 355.71 79.8801 355.419 79.7539 354.995L64.9918 305.34C64.8761 304.951 64.5367 304.67 64.1328 304.63L10.2855 299.245C9.89878 299.207 9.56951 298.947 9.44112 298.581L0.525399 273.107C0.282173 272.412 0.847923 271.702 1.57969 271.783L86.188 281.184Z" fill="#F5F5F5"/>
<path d="M48.9272 529.503C48.5212 529.458 48.1834 529.171 48.0741 528.777L27.9263 456.245C27.7493 455.608 28.2285 454.978 28.8899 454.978H54.4027C54.8453 454.978 55.2352 455.268 55.3613 455.693L70.1234 505.347C70.2391 505.736 70.5785 506.017 70.9825 506.057L124.83 511.442C125.216 511.481 125.546 511.74 125.674 512.107L134.59 537.58C134.833 538.275 134.267 538.986 133.536 538.904L48.9272 529.503Z" fill="#F5F5F5"/>
<path d="M86.188 416.299C86.5941 416.344 86.9318 416.631 87.0411 417.025L107.189 489.557C107.366 490.194 106.887 490.824 106.225 490.824H80.7125C80.27 490.824 79.8801 490.534 79.7539 490.109L64.9918 440.455C64.8761 440.066 64.5367 439.785 64.1328 439.745L10.2855 434.36C9.89878 434.321 9.56951 434.062 9.44112 433.695L0.525399 408.222C0.282173 407.527 0.847923 406.816 1.57969 406.898L86.188 416.299Z" fill="#F5F5F5"/>
<path d="M48.9272 664.618C48.5212 664.573 48.1834 664.286 48.0741 663.892L27.9263 591.36C27.7493 590.723 28.2285 590.093 28.8899 590.093H54.4027C54.8453 590.093 55.2352 590.383 55.3613 590.808L70.1234 640.462C70.2391 640.851 70.5785 641.132 70.9825 641.172L124.83 646.557C125.216 646.596 125.546 646.855 125.674 647.222L134.59 672.695C134.833 673.39 134.267 674.101 133.536 674.019L48.9272 664.618Z" fill="#F5F5F5"/>
<path d="M86.188 551.414C86.5941 551.459 86.9318 551.746 87.0411 552.14L107.189 624.672C107.366 625.309 106.887 625.94 106.225 625.94H80.7125C80.27 625.94 79.8801 625.649 79.7539 625.225L64.9918 575.57C64.8761 575.181 64.5367 574.9 64.1328 574.86L10.2855 569.475C9.89878 569.437 9.56951 569.177 9.44112 568.811L0.525399 543.337C0.282173 542.642 0.847923 541.932 1.57969 542.013L86.188 551.414Z" fill="#F5F5F5"/>
<path d="M48.9272 799.733C48.5212 799.688 48.1834 799.401 48.0741 799.007L27.9263 726.475C27.7493 725.838 28.2285 725.207 28.8899 725.207H54.4027C54.8453 725.207 55.2352 725.498 55.3613 725.922L70.1234 775.577C70.2391 775.966 70.5785 776.247 70.9825 776.287L124.83 781.672C125.216 781.71 125.546 781.97 125.674 782.336L134.59 807.81C134.833 808.505 134.267 809.215 133.536 809.134L48.9272 799.733Z" fill="#F5F5F5"/>
<path d="M86.188 686.529C86.5941 686.574 86.9318 686.861 87.0411 687.255L107.189 759.787C107.366 760.424 106.887 761.054 106.225 761.054H80.7125C80.27 761.054 79.8801 760.764 79.7539 760.339L64.9918 710.685C64.8761 710.296 64.5367 710.015 64.1328 709.975L10.2855 704.59C9.89878 704.551 9.56951 704.292 9.44112 703.925L0.525399 678.452C0.282173 677.757 0.847923 677.046 1.57969 677.128L86.188 686.529Z" fill="#F5F5F5"/>
<path d="M48.9272 934.848C48.5212 934.803 48.1834 934.516 48.0741 934.122L27.9263 861.59C27.7493 860.953 28.2285 860.323 28.8899 860.323H54.4027C54.8453 860.323 55.2352 860.613 55.3613 861.038L70.1234 910.692C70.2391 911.081 70.5785 911.362 70.9825 911.402L124.83 916.787C125.216 916.826 125.546 917.085 125.674 917.452L134.59 942.925C134.833 943.62 134.267 944.331 133.536 944.249L48.9272 934.848Z" fill="#F5F5F5"/>
<path d="M86.188 821.644C86.5941 821.689 86.9318 821.976 87.0411 822.37L107.189 894.902C107.366 895.539 106.887 896.169 106.225 896.169H80.7125C80.27 896.169 79.8801 895.879 79.7539 895.454L64.9918 845.8C64.8761 845.411 64.5367 845.13 64.1328 845.09L10.2855 839.705C9.89878 839.666 9.56951 839.407 9.44112 839.04L0.525399 813.567C0.282173 812.872 0.847923 812.161 1.57969 812.243L86.188 821.644Z" fill="#F5F5F5"/>
<path d="M48.9272 1069.96C48.5212 1069.92 48.1834 1069.63 48.0741 1069.24L27.9263 996.707C27.7493 996.069 28.2285 995.439 28.8899 995.439H54.4027C54.8453 995.439 55.2352 995.73 55.3613 996.154L70.1234 1045.81C70.2391 1046.2 70.5785 1046.48 70.9825 1046.52L124.83 1051.9C125.216 1051.94 125.546 1052.2 125.674 1052.57L134.59 1078.04C134.833 1078.74 134.267 1079.45 133.536 1079.37L48.9272 1069.96Z" fill="#F5F5F5"/>
<path d="M86.188 956.76C86.5941 956.805 86.9318 957.093 87.0411 957.486L107.189 1030.02C107.366 1030.66 106.887 1031.29 106.225 1031.29H80.7125C80.27 1031.29 79.8801 1030.99 79.7539 1030.57L64.9918 980.916C64.8761 980.527 64.5367 980.247 64.1328 980.206L10.2855 974.821C9.89878 974.783 9.56951 974.524 9.44112 974.157L0.525399 948.683C0.282173 947.988 0.847923 947.278 1.57969 947.359L86.188 956.76Z" fill="#F5F5F5"/>
<path d="M48.9272 1205.08C48.5212 1205.03 48.1834 1204.75 48.0741 1204.35L27.9263 1131.82C27.7493 1131.18 28.2285 1130.55 28.8899 1130.55H54.4027C54.8453 1130.55 55.2352 1130.84 55.3613 1131.27L70.1234 1180.92C70.2391 1181.31 70.5785 1181.59 70.9825 1181.63L124.83 1187.02C125.216 1187.06 125.546 1187.31 125.674 1187.68L134.59 1213.16C134.833 1213.85 134.267 1214.56 133.536 1214.48L48.9272 1205.08Z" fill="#F5F5F5"/>
<path d="M86.188 1091.87C86.5941 1091.92 86.9318 1092.21 87.0411 1092.6L107.189 1165.13C107.366 1165.77 106.887 1166.4 106.225 1166.4H80.7125C80.27 1166.4 79.8801 1166.11 79.7539 1165.68L64.9918 1116.03C64.8761 1115.64 64.5367 1115.36 64.1328 1115.32L10.2855 1109.94C9.89878 1109.9 9.56951 1109.64 9.44112 1109.27L0.525399 1083.8C0.282173 1083.1 0.847923 1082.39 1.57969 1082.47L86.188 1091.87Z" fill="#F5F5F5"/>
<path d="M48.9272 1340.19C48.5212 1340.15 48.1834 1339.86 48.0741 1339.47L27.9263 1266.94C27.7493 1266.3 28.2285 1265.67 28.8899 1265.67H54.4027C54.8453 1265.67 55.2352 1265.96 55.3613 1266.38L70.1234 1316.04C70.2391 1316.43 70.5785 1316.71 70.9825 1316.75L124.83 1322.13C125.216 1322.17 125.546 1322.43 125.674 1322.8L134.59 1348.27C134.833 1348.97 134.267 1349.68 133.536 1349.59L48.9272 1340.19Z" fill="#F5F5F5"/>
<path d="M86.188 1226.99C86.5941 1227.03 86.9318 1227.32 87.0411 1227.71L107.189 1300.25C107.366 1300.88 106.887 1301.51 106.225 1301.51H80.7125C80.27 1301.51 79.8801 1301.22 79.7539 1300.8L64.9918 1251.15C64.8761 1250.76 64.5367 1250.48 64.1328 1250.43L10.2855 1245.05C9.89878 1245.01 9.56951 1244.75 9.44112 1244.39L0.525399 1218.91C0.282173 1218.22 0.847923 1217.51 1.57969 1217.59L86.188 1226.99Z" fill="#F5F5F5"/>
<path d="M48.9272 1475.31C48.5212 1475.26 48.1834 1474.97 48.0741 1474.58L27.9263 1402.05C27.7493 1401.41 28.2285 1400.78 28.8899 1400.78H54.4027C54.8453 1400.78 55.2352 1401.07 55.3613 1401.5L70.1234 1451.15C70.2391 1451.54 70.5785 1451.82 70.9825 1451.86L124.83 1457.25C125.216 1457.28 125.546 1457.54 125.674 1457.91L134.59 1483.38C134.833 1484.08 134.267 1484.79 133.536 1484.71L48.9272 1475.31Z" fill="#F5F5F5"/>
<path d="M86.188 1362.1C86.5941 1362.15 86.9318 1362.44 87.0411 1362.83L107.189 1435.36C107.366 1436 106.887 1436.63 106.225 1436.63H80.7125C80.27 1436.63 79.8801 1436.34 79.7539 1435.91L64.9918 1386.26C64.8761 1385.87 64.5367 1385.59 64.1328 1385.55L10.2855 1380.16C9.89878 1380.13 9.56951 1379.87 9.44112 1379.5L0.525399 1354.03C0.282173 1353.33 0.847923 1352.62 1.57969 1352.7L86.188 1362.1Z" fill="#F5F5F5"/>
<path d="M48.9272 1610.42C48.5212 1610.38 48.1834 1610.09 48.0741 1609.7L27.9263 1537.17C27.7493 1536.53 28.2285 1535.9 28.8899 1535.9H54.4027C54.8453 1535.9 55.2352 1536.19 55.3613 1536.61L70.1234 1586.27C70.2391 1586.66 70.5785 1586.94 70.9825 1586.98L124.83 1592.36C125.216 1592.4 125.546 1592.66 125.674 1593.03L134.59 1618.5C134.833 1619.2 134.267 1619.91 133.536 1619.82L48.9272 1610.42Z" fill="#F5F5F5"/>
<path d="M86.188 1497.22C86.5941 1497.26 86.9318 1497.55 87.0411 1497.94L107.189 1570.48C107.366 1571.11 106.887 1571.74 106.225 1571.74H80.7125C80.27 1571.74 79.8801 1571.45 79.7539 1571.03L64.9918 1521.38C64.8761 1520.99 64.5367 1520.71 64.1328 1520.66L10.2855 1515.28C9.89878 1515.24 9.56951 1514.98 9.44112 1514.62L0.525399 1489.14C0.282173 1488.45 0.847923 1487.74 1.57969 1487.82L86.188 1497.22Z" fill="#F5F5F5"/>
</svg>
