<svg width="71" height="13" viewBox="0 0 71 13" fill="none" xmlns="http://www.w3.org/2000/svg">
<g clip-path="url(#clip0_395_4410)">
<path d="M1.05825 8.87859C0.352565 8.16406 0 7.2832 0 6.23656C0 5.18991 0.352565 4.3096 1.05825 3.59453C1.76338 2.88 2.62545 2.52246 3.64391 2.52246C4.66237 2.52246 5.52444 2.88 6.22957 3.59453C6.93471 4.30905 7.28782 5.18991 7.28782 6.23656V6.72728H1.4716C1.58378 7.31581 1.84074 7.77834 2.24249 8.11488C2.64424 8.45142 3.11175 8.61942 3.64391 8.61942C4.29765 8.61942 4.82097 8.45584 5.21388 8.1287C5.39126 7.99773 5.54544 7.83416 5.67641 7.63798H7.21819C7.02202 8.09609 6.77445 8.48403 6.47549 8.80122C5.70902 9.5677 4.76571 9.95066 3.64446 9.95066C2.626 9.95066 1.76393 9.59312 1.0588 8.87859H1.05825ZM1.54178 5.53585H5.74659C5.6626 5.06889 5.44045 4.67156 5.0807 4.34442C4.72095 4.01727 4.24184 3.8537 3.64391 3.8537C3.13938 3.8537 2.69066 4.00567 2.29831 4.30905C1.90595 4.61299 1.65341 5.02192 1.54123 5.53529L1.54178 5.53585Z" fill="white"/>
<path d="M7.84961 2.66309H9.39139L10.9332 8.47986H11.8444L13.3862 2.66309H14.928L12.9657 9.81109H9.81193L7.84961 2.66309Z" fill="white"/>
<path d="M16.5465 8.87859C15.8408 8.16406 15.4883 7.2832 15.4883 6.23656C15.4883 5.18991 15.8408 4.3096 16.5465 3.59453C17.2517 2.88 18.1137 2.52246 19.1322 2.52246C20.1507 2.52246 21.0127 2.88 21.7179 3.59453C22.423 4.30905 22.7761 5.18991 22.7761 6.23656V6.72728H16.9593C17.0715 7.31581 17.3285 7.77834 17.7302 8.11488C18.132 8.45142 18.5995 8.61942 19.1316 8.61942C19.7854 8.61942 20.3087 8.45584 20.7016 8.1287C20.879 7.99773 21.0332 7.83416 21.1641 7.63798H22.7059C22.5097 8.09609 22.2622 8.48403 21.9632 8.80122C21.1967 9.5677 20.2534 9.95066 19.1322 9.95066C18.1137 9.95066 17.2517 9.59312 16.5465 8.87859ZM17.0301 5.53585H21.2349C21.1509 5.06889 20.9287 4.67156 20.569 4.34442C20.2092 4.01727 19.7301 3.8537 19.1322 3.8537C18.6277 3.8537 18.1789 4.00567 17.7866 4.30905C17.3942 4.61299 17.1417 5.02192 17.0295 5.53529L17.0301 5.53585Z" fill="white"/>
<path d="M24.0371 9.81098V2.66296H25.5087V3.71402H25.5789C25.6817 3.51784 25.8314 3.33106 26.0276 3.15312C26.457 2.77956 26.9621 2.59277 27.5412 2.59277H28.3823V3.9942H27.471C26.9007 3.9942 26.4316 4.17435 26.0624 4.53354C25.6933 4.89329 25.5087 5.36743 25.5087 5.95597V9.81043H24.0371V9.81098Z" fill="white"/>
<path d="M28.8027 2.66309H30.3445L31.8863 8.40969H32.6572L34.3393 2.66309H35.8811L32.9379 12.4741H31.3961L32.2372 9.81111H30.7656L28.8033 2.66309H28.8027Z" fill="white"/>
<path d="M41.6875 3.99467L42.6872 2.66288H43.5282V1.12109H44.9998V2.66288H47.1722V3.99467H44.9998V8.47966H47.2423V9.8109H43.5282V3.99412H41.6875V3.99467Z" fill="white"/>
<path d="M49.1422 8.87859C48.4366 8.16406 48.084 7.2832 48.084 6.23656C48.084 5.18991 48.4366 4.3096 49.1422 3.59453C49.8479 2.88 50.7094 2.52246 51.7279 2.52246C52.7464 2.52246 53.6084 2.88 54.3136 3.59453C55.0192 4.30905 55.3718 5.18991 55.3718 6.23656V6.72728H49.555C49.6672 7.31581 49.9242 7.77834 50.3259 8.11488C50.7277 8.45142 51.1946 8.61942 51.7273 8.61942C52.3811 8.61942 52.9044 8.45584 53.2973 8.1287C53.4747 7.99773 53.6289 7.83416 53.7598 7.63798H55.3016C55.1054 8.09609 54.8579 8.48403 54.5589 8.80122C53.7924 9.5677 52.8491 9.95066 51.7279 9.95066C50.7094 9.95066 49.8474 9.59312 49.1422 8.87859ZM49.6258 5.53585H53.8306C53.7466 5.06889 53.5244 4.67156 53.1647 4.34442C52.8049 4.01727 52.3258 3.8537 51.7279 3.8537C51.2234 3.8537 50.7746 4.00567 50.3823 4.30905C49.9899 4.61299 49.7374 5.02192 49.6252 5.53529L49.6258 5.53585Z" fill="white"/>
<path d="M57.2358 8.90058C56.5539 8.19986 56.2129 7.31237 56.2129 6.23754C56.2129 5.16271 56.5539 4.27522 57.2358 3.5745C57.9177 2.87379 58.7682 2.52344 59.7866 2.52344C60.9267 2.52344 61.8561 2.95779 62.5756 3.82705C62.884 4.2288 63.099 4.65873 63.2205 5.11629H61.6788C61.6136 4.88309 61.492 4.67254 61.3146 4.48576C60.9504 4.06522 60.4409 3.85523 59.7866 3.85523C59.2069 3.85523 58.724 4.07462 58.336 4.51394C57.9481 4.95327 57.7541 5.52799 57.7541 6.23809C57.7541 6.9482 57.9481 7.52291 58.336 7.96224C58.724 8.40157 59.2069 8.62095 59.7866 8.62095C60.4597 8.62095 60.9874 8.41096 61.3704 7.99042C61.5384 7.80364 61.6649 7.59365 61.7489 7.35989H63.2205C63.099 7.83625 62.884 8.27115 62.5756 8.66351C61.8655 9.52337 60.9361 9.95275 59.7866 9.95275C58.7682 9.95275 57.9177 9.60239 57.2358 8.90168V8.90058Z" fill="white"/>
<path d="M64.4121 9.81105V0H65.8837V3.64391H65.9539C66.0661 3.45713 66.239 3.27035 66.4728 3.08357C66.9773 2.71 67.552 2.52267 68.1964 2.52267C69.0839 2.52267 69.773 2.77963 70.2637 3.29356C70.7544 3.80749 70.9992 4.55517 70.9992 5.53605V9.81105H69.5276V5.67641C69.5276 5.05031 69.3895 4.59054 69.1143 4.29599C68.8385 4.00145 68.4158 3.85446 67.846 3.85446C67.2763 3.85446 66.8066 4.04842 66.4374 4.43636C66.0683 4.82429 65.8837 5.33103 65.8837 5.95714V9.8116H64.4121V9.81105Z" fill="white"/>
<path d="M41.3416 2.66309H42.8834L39.9402 12.4741H38.3984L41.3416 2.66309Z" fill="white"/>
<path d="M37.8397 2.66309H39.3815L36.4383 12.4741H34.8965L37.8397 2.66309Z" fill="white"/>
</g>
<defs>
<clipPath id="clip0_395_4410">
<rect width="71" height="12.4741" fill="white"/>
</clipPath>
</defs>
</svg>
