<svg width="179" height="57" viewBox="0 0 179 57" fill="none" xmlns="http://www.w3.org/2000/svg">
<g clip-path="url(#clip0_262_2160)">
<path d="M3.92968 20.8513C3.98144 20.3855 4.31136 19.9979 4.76299 19.8724L33.5417 11.8784C34.2728 11.6753 34.9962 12.2251 34.9962 12.9839V22.0927C34.9962 22.6006 34.6624 23.048 34.1758 23.1927L14.5067 29.0402C14.0603 29.1729 13.7383 29.5624 13.6919 30.0259L11.5465 51.481C11.5021 51.9247 11.2046 52.3025 10.7838 52.4499L1.72015 55.6221C0.922755 55.9011 0.107379 55.252 0.200674 54.4123L3.92968 20.8513Z" fill="#2E64B6"/>
<path d="M40.4271 26.7048L40.427 26.7049L20.758 32.5524C20.0593 32.7602 19.5801 33.4025 19.5801 34.1316V43.2404C19.5801 44.3299 20.6186 45.1193 21.6684 44.8277L50.447 36.8337C51.0954 36.6536 51.5692 36.0971 51.6435 35.4282L55.3725 1.86722C55.5064 0.66171 54.3358 -0.270359 53.1909 0.130353L44.1273 3.30262C43.523 3.51412 43.096 4.05657 43.0323 4.69359L43.0323 4.69363L40.8868 26.1487C40.8606 26.4102 40.6789 26.63 40.4271 26.7048Z" fill="#FDFDFD" stroke="#2E64B6"/>
<path d="M67.6992 35.4942V24.8195H71.6946C72.5995 24.8195 73.3771 24.9669 74.0278 25.2617C74.6785 25.5464 75.1766 25.9633 75.5222 26.5122C75.878 27.051 76.056 27.7068 76.056 28.4795C76.056 29.2317 75.878 29.8824 75.5222 30.4314C75.1766 30.9702 74.6785 31.3871 74.0278 31.6819C73.3771 31.9766 72.5995 32.1241 71.6946 32.1241H68.3245L68.8277 31.5903V35.4942H67.6992ZM68.8277 31.6819L68.3245 31.1328H71.6641C72.7315 31.1328 73.5398 30.9041 74.0888 30.4466C74.648 29.9789 74.9275 29.3232 74.9275 28.4795C74.9275 27.6254 74.648 26.9646 74.0888 26.4969C73.5398 26.0294 72.7315 25.7955 71.6641 25.7955H68.3245L68.8277 25.2617V31.6819ZM81.0317 35.5705C80.1981 35.5705 79.466 35.3977 78.8358 35.052C78.2055 34.6962 77.7124 34.2132 77.3566 33.6032C77.0008 32.9832 76.8228 32.2766 76.8228 31.4836C76.8228 30.6906 76.9906 29.9892 77.3261 29.3792C77.6718 28.7692 78.1394 28.2914 78.729 27.9457C79.3288 27.5899 79.9998 27.412 80.742 27.412C81.4942 27.412 82.1602 27.5848 82.7397 27.9304C83.3293 28.2659 83.7919 28.7437 84.1274 29.3639C84.4629 29.9739 84.6306 30.6805 84.6306 31.4836C84.6306 31.5344 84.6256 31.5903 84.6154 31.6513C84.6154 31.7022 84.6154 31.758 84.6154 31.8191H77.6463V31.0108H84.0359L83.6089 31.3311C83.6089 30.7516 83.4818 30.2381 83.2277 29.7909C82.9836 29.3334 82.6482 28.9776 82.2211 28.7234C81.7942 28.4693 81.3011 28.3421 80.742 28.3421C80.1931 28.3421 79.6999 28.4693 79.2628 28.7234C78.8257 28.9776 78.4851 29.3334 78.241 29.7909C77.9971 30.2484 77.8751 30.7719 77.8751 31.3616V31.5294C77.8751 32.1393 78.0072 32.6782 78.2716 33.1458C78.546 33.6032 78.9222 33.9642 79.4001 34.2285C79.888 34.4826 80.4421 34.6098 81.0622 34.6098C81.5502 34.6098 82.0027 34.5234 82.4194 34.3506C82.8464 34.1776 83.2124 33.9134 83.5174 33.5576L84.1274 34.259C83.7716 34.686 83.3243 35.0114 82.7855 35.235C82.2567 35.4586 81.6722 35.5705 81.0317 35.5705ZM91.8309 34.5487L91.587 34.8385V27.4882H92.6697V34.8385L92.3798 34.5487H96.848L96.5582 34.8385V27.4882H97.6409V35.4942H86.5698V27.4882H87.6525V34.8385L87.3781 34.5487H91.8309ZM103.691 35.5705C102.857 35.5705 102.125 35.3977 101.495 35.052C100.865 34.6962 100.372 34.2132 100.016 33.6032C99.6601 32.9832 99.4821 32.2766 99.4821 31.4836C99.4821 30.6906 99.6499 29.9892 99.9854 29.3792C100.331 28.7692 100.799 28.2914 101.388 27.9457C101.988 27.5899 102.659 27.412 103.401 27.412C104.153 27.412 104.82 27.5848 105.399 27.9304C105.989 28.2659 106.451 28.7437 106.787 29.3639C107.122 29.9739 107.29 30.6805 107.29 31.4836C107.29 31.5344 107.285 31.5903 107.275 31.6513C107.275 31.7022 107.275 31.758 107.275 31.8191H100.306V31.0108H106.695L106.268 31.3311C106.268 30.7516 106.141 30.2381 105.887 29.7909C105.643 29.3334 105.307 28.9776 104.88 28.7234C104.453 28.4693 103.96 28.3421 103.401 28.3421C102.852 28.3421 102.359 28.4693 101.922 28.7234C101.485 28.9776 101.144 29.3334 100.9 29.7909C100.656 30.2484 100.534 30.7719 100.534 31.3616V31.5294C100.534 32.1393 100.667 32.6782 100.931 33.1458C101.205 33.6032 101.582 33.9642 102.059 34.2285C102.547 34.4826 103.101 34.6098 103.722 34.6098C104.209 34.6098 104.662 34.5234 105.079 34.3506C105.506 34.1776 105.872 33.9134 106.177 33.5576L106.787 34.259C106.431 34.686 105.983 35.0114 105.445 35.235C104.916 35.4586 104.332 35.5705 103.691 35.5705ZM109.229 35.4942V27.4882H110.312V31.0261H115.359V27.4882H116.442V35.4942H115.359V31.9563H110.312V35.4942H109.229ZM119.062 35.4942V27.4882H120.145V33.8473L125.498 27.4882H126.458V35.4942H125.375V29.1199L120.038 35.4942H119.062ZM134.273 35.4942V32.6121L134.472 32.8408H131.757C130.73 32.8408 129.927 32.6171 129.347 32.1699C128.768 31.7225 128.479 31.0719 128.479 30.2178C128.479 29.3029 128.789 28.6218 129.408 28.1745C130.029 27.717 130.857 27.4882 131.895 27.4882H135.265V35.4942H134.273ZM128.417 35.4942L130.613 32.4138H131.742L129.592 35.4942H128.417ZM134.273 32.2918V28.1134L134.472 28.4337H131.925C131.182 28.4337 130.603 28.576 130.186 28.8607C129.78 29.1453 129.577 29.6079 129.577 30.2484C129.577 31.4378 130.333 32.0326 131.849 32.0326H134.472L134.273 32.2918Z" fill="#818181"/>
<path d="M73.4789 22.515C72.6553 22.515 71.8878 22.3829 71.1761 22.1186C70.4746 21.8441 69.8647 21.4578 69.3461 20.9597C68.8277 20.4614 68.4211 19.8769 68.1262 19.2059C67.8415 18.5349 67.6992 17.7979 67.6992 16.9947C67.6992 16.1916 67.8415 15.4545 68.1262 14.7836C68.4211 14.1126 68.8277 13.5279 69.3461 13.0298C69.8749 12.5316 70.4899 12.1504 71.1913 11.8861C71.8929 11.6116 72.6604 11.4744 73.494 11.4744C74.4192 11.4744 75.2528 11.6371 75.9949 11.9624C76.7473 12.2775 77.3776 12.7452 77.8859 13.3653L76.2999 14.8292C75.934 14.4125 75.5274 14.1023 75.08 13.899C74.6327 13.6856 74.1447 13.5788 73.6161 13.5788C73.1179 13.5788 72.6604 13.6601 72.2436 13.8228C71.8268 13.9854 71.4659 14.2193 71.1609 14.5243C70.8559 14.8292 70.6169 15.1902 70.4441 15.607C70.2815 16.0238 70.2002 16.4864 70.2002 16.9947C70.2002 17.503 70.2815 17.9656 70.4441 18.3824C70.6169 18.7993 70.8559 19.1601 71.1609 19.4651C71.4659 19.7701 71.8268 20.004 72.2436 20.1667C72.6604 20.3293 73.1179 20.4106 73.6161 20.4106C74.1447 20.4106 74.6327 20.3089 75.08 20.1056C75.5274 19.8921 75.934 19.5719 76.2999 19.1449L77.8859 20.6089C77.3776 21.2291 76.7473 21.7017 75.9949 22.0271C75.2528 22.3524 74.4141 22.515 73.4789 22.515ZM82.4155 22.4541C81.5412 22.4541 80.7635 22.2711 80.0823 21.905C79.4113 21.5391 78.8777 21.0409 78.4811 20.4106C78.0949 19.7701 77.9016 19.0432 77.9016 18.2299C77.9016 17.4065 78.0949 16.6796 78.4811 16.0492C78.8777 15.4088 79.4113 14.9106 80.0823 14.5548C80.7635 14.1887 81.5412 14.0058 82.4155 14.0058C83.2797 14.0058 84.0522 14.1887 84.7335 14.5548C85.4146 14.9106 85.9484 15.4037 86.3346 16.0339C86.721 16.6643 86.9142 17.3963 86.9142 18.2299C86.9142 19.0432 86.721 19.7701 86.3346 20.4106C85.9484 21.0409 85.4146 21.5391 84.7335 21.905C84.0522 22.2711 83.2797 22.4541 82.4155 22.4541ZM82.4155 20.5022C82.812 20.5022 83.1678 20.4106 83.483 20.2276C83.7982 20.0446 84.0472 19.7854 84.2302 19.4499C84.4132 19.1042 84.5047 18.6976 84.5047 18.2299C84.5047 17.7521 84.4132 17.3455 84.2302 17.0099C84.0472 16.6744 83.7982 16.4152 83.483 16.2322C83.1678 16.0492 82.812 15.9578 82.4155 15.9578C82.019 15.9578 81.6632 16.0492 81.3481 16.2322C81.0329 16.4152 80.7787 16.6744 80.5856 17.0099C80.4026 17.3455 80.311 17.7521 80.311 18.2299C80.311 18.6976 80.4026 19.1042 80.5856 19.4499C80.7787 19.7854 81.0329 20.0446 81.3481 20.2276C81.6632 20.4106 82.019 20.5022 82.4155 20.5022ZM88.0929 22.3321V14.1278H92.2865C93.3132 14.1278 94.1164 14.3159 94.696 14.692C95.2754 15.058 95.5652 15.5765 95.5652 16.2475C95.5652 16.9185 95.2907 17.4471 94.7416 17.8335C94.2029 18.2096 93.4862 18.3977 92.5915 18.3977L92.8355 17.8487C93.8317 17.8487 94.574 18.0317 95.0619 18.3977C95.5602 18.7637 95.8092 19.2974 95.8092 19.9989C95.8092 20.7206 95.5346 21.29 94.9857 21.7069C94.4367 22.1236 93.598 22.3321 92.4695 22.3321H88.0929ZM90.2735 20.7156H92.2712C92.7085 20.7156 93.0338 20.6445 93.2472 20.5022C93.471 20.3496 93.5827 20.1209 93.5827 19.8159C93.5827 19.5007 93.481 19.272 93.2777 19.1296C93.0745 18.9771 92.7543 18.9009 92.317 18.9009H90.2735V20.7156ZM90.2735 17.498H92.0731C92.4898 17.498 92.8 17.4216 93.0033 17.2692C93.2167 17.1167 93.3235 16.8982 93.3235 16.6135C93.3235 16.3186 93.2167 16.1 93.0033 15.9578C92.8 15.8155 92.4898 15.7442 92.0731 15.7442H90.2735V17.498ZM101.956 22.4541C101.264 22.4541 100.659 22.3016 100.141 21.9966C99.6225 21.6916 99.2161 21.2291 98.9211 20.6089C98.6365 19.9786 98.494 19.1856 98.494 18.2299C98.494 17.2641 98.6313 16.4711 98.9058 15.851C99.1803 15.2308 99.5767 14.7683 100.095 14.4633C100.614 14.1583 101.234 14.0058 101.956 14.0058C102.728 14.0058 103.42 14.1837 104.03 14.5395C104.65 14.8852 105.138 15.3731 105.494 16.0035C105.86 16.6338 106.043 17.376 106.043 18.2299C106.043 19.094 105.86 19.8414 105.494 20.4716C105.138 21.1019 104.65 21.5899 104.03 21.9355C103.42 22.2813 102.728 22.4541 101.956 22.4541ZM97.1063 25.2904V14.1278H99.3786V15.8053L99.3328 18.2452L99.4853 20.6698V25.2904H97.1063ZM101.544 20.5022C101.94 20.5022 102.291 20.4106 102.596 20.2276C102.911 20.0446 103.16 19.7854 103.343 19.4499C103.537 19.1042 103.633 18.6976 103.633 18.2299C103.633 17.7521 103.537 17.3455 103.343 17.0099C103.16 16.6744 102.911 16.4152 102.596 16.2322C102.291 16.0492 101.94 15.9578 101.544 15.9578C101.147 15.9578 100.792 16.0492 100.477 16.2322C100.161 16.4152 99.9122 16.6744 99.7292 17.0099C99.5463 17.3455 99.4547 17.7521 99.4547 18.2299C99.4547 18.6976 99.5463 19.1042 99.7292 19.4499C99.9122 19.7854 100.161 20.0446 100.477 20.2276C100.792 20.4106 101.147 20.5022 101.544 20.5022ZM111.263 22.4541C110.328 22.4541 109.504 22.2711 108.793 21.905C108.091 21.5391 107.547 21.0409 107.161 20.4106C106.775 19.7701 106.582 19.0432 106.582 18.2299C106.582 17.4065 106.77 16.6796 107.146 16.0492C107.532 15.4088 108.056 14.9106 108.717 14.5548C109.377 14.1887 110.124 14.0058 110.958 14.0058C111.761 14.0058 112.483 14.1787 113.124 14.5243C113.774 14.8598 114.288 15.3478 114.664 15.9883C115.04 16.6186 115.228 17.376 115.228 18.2604C115.228 18.3519 115.223 18.4587 115.212 18.5807C115.203 18.6924 115.193 18.7993 115.182 18.9009H108.518V17.5132H113.932L113.017 17.9249C113.017 17.498 112.93 17.1269 112.758 16.8117C112.585 16.4966 112.346 16.2525 112.041 16.0797C111.736 15.8967 111.38 15.8053 110.973 15.8053C110.567 15.8053 110.206 15.8967 109.891 16.0797C109.586 16.2525 109.347 16.5016 109.174 16.8269C109.001 17.1421 108.915 17.5183 108.915 17.9554V18.3215C108.915 18.7687 109.011 19.1652 109.205 19.5109C109.408 19.8464 109.687 20.1056 110.043 20.2886C110.409 20.4614 110.836 20.5478 111.324 20.5478C111.761 20.5478 112.143 20.4817 112.468 20.3496C112.803 20.2175 113.108 20.0192 113.383 19.7548L114.649 21.1273C114.272 21.5544 113.8 21.8847 113.23 22.1186C112.661 22.3422 112.005 22.4541 111.263 22.4541ZM116.594 22.3321V14.1278H119.08L122.175 19.7396H121.185L124.494 14.1278H126.72L126.751 22.3321H124.601V16.5677L124.967 16.8117L122.145 21.5391H121.139L118.302 16.644L118.744 16.5372V22.3321H116.594ZM132.582 22.4541C131.647 22.4541 130.823 22.2711 130.112 21.905C129.411 21.5391 128.867 21.0409 128.48 20.4106C128.093 19.7701 127.901 19.0432 127.901 18.2299C127.901 17.4065 128.089 16.6796 128.465 16.0492C128.851 15.4088 129.375 14.9106 130.035 14.5548C130.697 14.1887 131.444 14.0058 132.277 14.0058C133.08 14.0058 133.802 14.1787 134.442 14.5243C135.093 14.8598 135.607 15.3478 135.983 15.9883C136.359 16.6186 136.547 17.376 136.547 18.2604C136.547 18.3519 136.542 18.4587 136.532 18.5807C136.521 18.6924 136.511 18.7993 136.501 18.9009H129.837V17.5132H135.251L134.335 17.9249C134.335 17.498 134.249 17.1269 134.076 16.8117C133.904 16.4966 133.665 16.2525 133.36 16.0797C133.055 15.8967 132.699 15.8053 132.292 15.8053C131.886 15.8053 131.525 15.8967 131.21 16.0797C130.905 16.2525 130.666 16.5016 130.493 16.8269C130.321 17.1421 130.233 17.5183 130.233 17.9554V18.3215C130.233 18.7687 130.331 19.1652 130.524 19.5109C130.727 19.8464 131.007 20.1056 131.362 20.2886C131.728 20.4614 132.155 20.5478 132.643 20.5478C133.08 20.5478 133.461 20.4817 133.787 20.3496C134.122 20.2175 134.427 20.0192 134.701 19.7548L135.967 21.1273C135.592 21.5544 135.119 21.8847 134.549 22.1186C133.98 22.3422 133.325 22.4541 132.582 22.4541ZM137.913 22.3321V14.1278H140.277V17.3302H143.845V14.1278H146.224V22.3321H143.845V19.267H140.277V22.3321H137.913ZM148.044 22.3321V14.1278H150.408V17.3302H153.976V14.1278H156.355V22.3321H153.976V19.267H150.408V22.3321H148.044ZM166.623 22.3321V14.1278H168.987V22.3321H166.623ZM162.49 16.7507C163.567 16.7608 164.376 17.0049 164.916 17.4827C165.464 17.9504 165.738 18.6162 165.738 19.4804C165.738 20.3852 165.429 21.0917 164.808 21.6C164.188 22.0983 163.308 22.3474 162.17 22.3474L158.175 22.3321V14.1278H160.538V16.7507H162.49ZM161.956 20.6547C162.414 20.6648 162.765 20.5681 163.009 20.3648C163.253 20.1615 163.375 19.8565 163.375 19.4499C163.375 19.0432 163.253 18.7535 163.009 18.5807C162.765 18.3977 162.414 18.3012 161.956 18.2909L160.538 18.2757V20.6547H161.956ZM174.833 22.4541C173.898 22.4541 173.074 22.2711 172.363 21.905C171.662 21.5391 171.118 21.0409 170.731 20.4106C170.344 19.7701 170.151 19.0432 170.151 18.2299C170.151 17.4065 170.34 16.6796 170.716 16.0492C171.102 15.4088 171.626 14.9106 172.286 14.5548C172.947 14.1887 173.695 14.0058 174.528 14.0058C175.331 14.0058 176.053 14.1787 176.693 14.5243C177.344 14.8598 177.858 15.3478 178.234 15.9883C178.609 16.6186 178.797 17.376 178.797 18.2604C178.797 18.3519 178.793 18.4587 178.782 18.5807C178.772 18.6924 178.762 18.7993 178.752 18.9009H172.088V17.5132H177.502L176.586 17.9249C176.586 17.498 176.5 17.1269 176.327 16.8117C176.155 16.4966 175.915 16.2525 175.611 16.0797C175.306 15.8967 174.95 15.8053 174.543 15.8053C174.137 15.8053 173.775 15.8967 173.461 16.0797C173.155 16.2525 172.917 16.5016 172.744 16.8269C172.571 17.1421 172.484 17.5183 172.484 17.9554V18.3215C172.484 18.7687 172.582 19.1652 172.775 19.5109C172.978 19.8464 173.258 20.1056 173.613 20.2886C173.979 20.4614 174.406 20.5478 174.894 20.5478C175.331 20.5478 175.712 20.4817 176.038 20.3496C176.373 20.2175 176.678 20.0192 176.952 19.7548L178.218 21.1273C177.843 21.5544 177.37 21.8847 176.8 22.1186C176.231 22.3422 175.575 22.4541 174.833 22.4541Z" fill="#818181"/>
</g>
<defs>
<clipPath id="clip0_262_2160">
<rect width="179" height="56.2244" fill="white"/>
</clipPath>
</defs>
</svg>
