<svg width="208" height="66" viewBox="0 0 208 66" fill="none" xmlns="http://www.w3.org/2000/svg">
<g clip-path="url(#clip0_395_4390)">
<path d="M5.66836 23.5733L5.6684 23.5733L39.1096 14.2841C39.6406 14.1366 40.1659 14.5359 40.1659 15.087V25.6715C40.1659 26.0404 39.9234 26.3653 39.5701 26.4704L16.7145 33.2653C16.7145 33.2653 16.7145 33.2653 16.7144 33.2653C16.001 33.4773 15.4867 34.0998 15.4126 34.8402L12.9195 59.7712C12.9195 59.7712 12.9195 59.7712 12.9195 59.7713C12.8873 60.0935 12.6712 60.368 12.3656 60.4749L1.83359 64.1611C1.25445 64.3638 0.662296 63.8923 0.730051 63.2825L5.0632 24.2842C5.10079 23.9459 5.34043 23.6644 5.66836 23.5733Z" stroke="white"/>
<path d="M47.0006 31.1085L47.0005 31.1085L24.1448 37.9034C23.3673 38.1346 22.834 38.8495 22.834 39.6608V50.2454C22.834 51.4577 23.9897 52.3363 25.1579 52.0118L58.599 42.7226C59.3206 42.5222 59.8479 41.9029 59.9306 41.1586L64.2636 2.16031C64.4127 0.818771 63.1099 -0.218472 61.8359 0.227456L51.3039 3.91366C50.6314 4.14903 50.1562 4.75269 50.0853 5.4616L50.0853 5.46164L47.5922 30.3927C47.5586 30.7293 47.3247 31.0122 47.0006 31.1085Z" fill="#FDFDFD" stroke="white"/>
<path d="M78.666 41.245V28.8408H83.3087C84.3601 28.8408 85.2637 29.0122 86.0199 29.3547C86.776 29.6855 87.3548 30.1699 87.7564 30.8078C88.1699 31.4339 88.3767 32.1959 88.3767 33.0938C88.3767 33.9679 88.1699 34.724 87.7564 35.3619C87.3548 35.988 86.776 36.4724 86.0199 36.815C85.2637 37.1575 84.3601 37.3288 83.3087 37.3288H79.3925L79.9773 36.7086V41.245H78.666ZM79.9773 36.815L79.3925 36.177H83.2732C84.5136 36.177 85.4528 35.9112 86.0908 35.3796C86.7405 34.8362 87.0653 34.0742 87.0653 33.0938C87.0653 32.1014 86.7405 31.3335 86.0908 30.79C85.4528 30.2467 84.5136 29.975 83.2732 29.975H79.3925L79.9773 29.3547V36.815ZM94.1585 41.3336C93.1899 41.3336 92.3392 41.1328 91.6068 40.7311C90.8744 40.3176 90.3015 39.7564 89.888 39.0476C89.4745 38.3271 89.2677 37.506 89.2677 36.5846C89.2677 35.6631 89.4627 34.848 89.8525 34.1392C90.2543 33.4304 90.7976 32.8752 91.4828 32.4735C92.1797 32.06 92.9595 31.8534 93.8219 31.8534C94.696 31.8534 95.4699 32.0542 96.1432 32.4558C96.8284 32.8456 97.3659 33.4008 97.7557 34.1215C98.1456 34.8303 98.3405 35.6514 98.3405 36.5846C98.3405 36.6436 98.3346 36.7086 98.3228 36.7795C98.3228 36.8386 98.3228 36.9035 98.3228 36.9744H90.2247V36.0352H97.6495L97.1532 36.4074C97.1532 35.734 97.0056 35.1374 96.7103 34.6176C96.4267 34.086 96.0369 33.6726 95.5407 33.3772C95.0445 33.0819 94.4716 32.9342 93.8219 32.9342C93.184 32.9342 92.6109 33.0819 92.1031 33.3772C91.5951 33.6726 91.1993 34.086 90.9157 34.6176C90.6323 35.1492 90.4905 35.7576 90.4905 36.4428V36.6378C90.4905 37.3466 90.644 37.9727 90.9512 38.516C91.2701 39.0476 91.7072 39.4671 92.2625 39.7742C92.8295 40.0695 93.4733 40.2172 94.194 40.2172C94.7611 40.2172 95.2868 40.1168 95.771 39.916C96.2672 39.7151 96.6925 39.408 97.0469 38.9946L97.7557 39.8096C97.3422 40.3058 96.8225 40.6839 96.1964 40.9438C95.582 41.2036 94.9028 41.3336 94.1585 41.3336ZM106.707 40.1463L106.424 40.483V31.9419H107.682V40.483L107.345 40.1463H112.537L112.2 40.483V31.9419H113.459V41.245H100.594V31.9419H101.852V40.483L101.533 40.1463H106.707ZM120.489 41.3336C119.52 41.3336 118.67 41.1328 117.937 40.7311C117.205 40.3176 116.632 39.7564 116.218 39.0476C115.805 38.3271 115.598 37.506 115.598 36.5846C115.598 35.6631 115.793 34.848 116.183 34.1392C116.585 33.4304 117.128 32.8752 117.813 32.4735C118.51 32.06 119.29 31.8534 120.152 31.8534C121.026 31.8534 121.8 32.0542 122.474 32.4558C123.159 32.8456 123.696 33.4008 124.086 34.1215C124.476 34.8303 124.671 35.6514 124.671 36.5846C124.671 36.6436 124.665 36.7086 124.653 36.7795C124.653 36.8386 124.653 36.9035 124.653 36.9744H116.555V36.0352H123.98L123.484 36.4074C123.484 35.734 123.336 35.1374 123.041 34.6176C122.757 34.086 122.367 33.6726 121.871 33.3772C121.375 33.0819 120.802 32.9342 120.152 32.9342C119.514 32.9342 118.941 33.0819 118.433 33.3772C117.925 33.6726 117.53 34.086 117.246 34.6176C116.962 35.1492 116.821 35.7576 116.821 36.4428V36.6378C116.821 37.3466 116.974 37.9727 117.282 38.516C117.6 39.0476 118.038 39.4671 118.593 39.7742C119.16 40.0695 119.804 40.2172 120.524 40.2172C121.091 40.2172 121.617 40.1168 122.101 39.916C122.598 39.7151 123.023 39.408 123.377 38.9946L124.086 39.8096C123.673 40.3058 123.153 40.6839 122.527 40.9438C121.912 41.2036 121.233 41.3336 120.489 41.3336ZM126.924 41.245V31.9419H128.182V36.053H134.047V31.9419H135.306V41.245H134.047V37.1339H128.182V41.245H126.924ZM138.35 41.245V31.9419H139.609V39.3312L145.829 31.9419H146.945V41.245H145.686V33.8379L139.485 41.245H138.35ZM156.026 41.245V37.8959L156.257 38.1616H153.102C151.909 38.1616 150.975 37.9018 150.302 37.382C149.629 36.8622 149.293 36.1062 149.293 35.1138C149.293 34.0506 149.653 33.2591 150.373 32.7394C151.094 32.2078 152.057 31.9419 153.262 31.9419H157.178V41.245H156.026ZM149.221 41.245L151.773 37.6655H153.085L150.586 41.245H149.221ZM156.026 37.5238V32.6684L156.257 33.0406H153.297C152.434 33.0406 151.761 33.2059 151.277 33.5367C150.805 33.8675 150.569 34.405 150.569 35.1492C150.569 36.5314 151.447 37.2226 153.209 37.2226H156.257L156.026 37.5238Z" fill="white"/>
<path d="M85.382 26.1623C84.4251 26.1623 83.5332 26.0089 82.7061 25.7017C81.8911 25.3827 81.1823 24.9338 80.5797 24.355C79.9773 23.7761 79.5048 23.0969 79.1621 22.3171C78.8313 21.5374 78.666 20.681 78.666 19.7477C78.666 18.8145 78.8313 17.9579 79.1621 17.1783C79.5048 16.3986 79.9773 15.7193 80.5797 15.1405C81.1941 14.5615 81.9088 14.1186 82.7239 13.8114C83.5391 13.4925 84.4309 13.333 85.3996 13.333C86.4747 13.333 87.4433 13.5221 88.3057 13.9001C89.18 14.2662 89.9124 14.8097 90.5031 15.5303L88.6601 17.2314C88.2349 16.7471 87.7624 16.3867 87.2425 16.1505C86.7228 15.9025 86.1557 15.7783 85.5415 15.7783C84.9625 15.7783 84.4309 15.8729 83.9467 16.0619C83.4623 16.2509 83.0429 16.5226 82.6885 16.877C82.3341 17.2314 82.0564 17.6509 81.8556 18.1351C81.6667 18.6195 81.5721 19.157 81.5721 19.7477C81.5721 20.3383 81.6667 20.8759 81.8556 21.3602C82.0564 21.8446 82.3341 22.2639 82.6885 22.6183C83.0429 22.9727 83.4623 23.2445 83.9467 23.4335C84.4309 23.6225 84.9625 23.717 85.5415 23.717C86.1557 23.717 86.7228 23.5989 87.2425 23.3626C87.7624 23.1145 88.2349 22.7425 88.6601 22.2462L90.5031 23.9474C89.9124 24.6681 89.18 25.2173 88.3057 25.5954C87.4433 25.9734 86.4688 26.1623 85.382 26.1623ZM95.7665 26.0915C94.7505 26.0915 93.8468 25.8789 93.0553 25.4535C92.2756 25.0283 91.6555 24.4494 91.1947 23.717C90.7459 22.9727 90.5213 22.1281 90.5213 21.183C90.5213 20.2262 90.7459 19.3815 91.1947 18.649C91.6555 17.9049 92.2756 17.3259 93.0553 16.9125C93.8468 16.4871 94.7505 16.2746 95.7665 16.2746C96.7707 16.2746 97.6684 16.4871 98.46 16.9125C99.2515 17.3259 99.8717 17.8989 100.321 18.6313C100.769 19.3638 100.994 20.2143 100.994 21.183C100.994 22.1281 100.769 22.9727 100.321 23.717C99.8717 24.4494 99.2515 25.0283 98.46 25.4535C97.6684 25.8789 96.7707 26.0915 95.7665 26.0915ZM95.7665 23.8234C96.2272 23.8234 96.6407 23.717 97.0069 23.5043C97.3732 23.2917 97.6625 22.9905 97.8752 22.6006C98.0879 22.199 98.1941 21.7265 98.1941 21.183C98.1941 20.6278 98.0879 20.1553 97.8752 19.7654C97.6625 19.3755 97.3732 19.0743 97.0069 18.8617C96.6407 18.649 96.2272 18.5427 95.7665 18.5427C95.3057 18.5427 94.8923 18.649 94.5261 18.8617C94.1599 19.0743 93.8645 19.3755 93.6401 19.7654C93.4275 20.1553 93.3211 20.6278 93.3211 21.183C93.3211 21.7265 93.4275 22.199 93.6401 22.6006C93.8645 22.9905 94.1599 23.2917 94.5261 23.5043C94.8923 23.717 95.3057 23.8234 95.7665 23.8234ZM102.364 25.9498V16.4163H107.237C108.43 16.4163 109.363 16.6349 110.037 17.0719C110.71 17.4973 111.047 18.0997 111.047 18.8794C111.047 19.6591 110.728 20.2734 110.09 20.7223C109.464 21.1594 108.631 21.3779 107.591 21.3779L107.875 20.7401C109.032 20.7401 109.895 20.9527 110.462 21.3779C111.041 21.8033 111.33 22.4234 111.33 23.2386C111.33 24.0773 111.011 24.7389 110.373 25.2233C109.735 25.7075 108.761 25.9498 107.449 25.9498H102.364ZM104.898 24.0714H107.219C107.727 24.0714 108.105 23.9887 108.353 23.8234C108.613 23.6461 108.743 23.3803 108.743 23.0259C108.743 22.6597 108.625 22.3939 108.389 22.2285C108.152 22.0513 107.78 21.9627 107.272 21.9627H104.898V24.0714ZM104.898 20.3325H106.989C107.473 20.3325 107.833 20.2438 108.07 20.0666C108.318 19.8894 108.442 19.6355 108.442 19.3047C108.442 18.9621 108.318 18.7081 108.07 18.5427C107.833 18.3774 107.473 18.2946 106.989 18.2946H104.898V20.3325ZM118.472 26.0915C117.669 26.0915 116.966 25.9143 116.364 25.5599C115.761 25.2055 115.289 24.6681 114.946 23.9474C114.615 23.215 114.45 22.2935 114.45 21.183C114.45 20.0607 114.609 19.1393 114.928 18.4187C115.247 17.6981 115.708 17.1606 116.311 16.8062C116.913 16.4518 117.634 16.2746 118.472 16.2746C119.37 16.2746 120.174 16.4813 120.882 16.8947C121.603 17.2965 122.17 17.8634 122.583 18.5959C123.009 19.3283 123.221 20.1907 123.221 21.183C123.221 22.1871 123.009 23.0555 122.583 23.7879C122.17 24.5203 121.603 25.0874 120.882 25.489C120.174 25.8907 119.37 26.0915 118.472 26.0915ZM112.837 29.3874V16.4163H115.478V18.3655L115.425 21.2007L115.602 24.0182V29.3874H112.837ZM117.994 23.8234C118.455 23.8234 118.862 23.717 119.217 23.5043C119.583 23.2917 119.872 22.9905 120.085 22.6006C120.309 22.199 120.422 21.7265 120.422 21.183C120.422 20.6278 120.309 20.1553 120.085 19.7654C119.872 19.3755 119.583 19.0743 119.217 18.8617C118.862 18.649 118.455 18.5427 117.994 18.5427C117.533 18.5427 117.12 18.649 116.754 18.8617C116.387 19.0743 116.098 19.3755 115.885 19.7654C115.673 20.1553 115.566 20.6278 115.566 21.183C115.566 21.7265 115.673 22.199 115.885 22.6006C116.098 22.9905 116.387 23.2917 116.754 23.5043C117.12 23.717 117.533 23.8234 117.994 23.8234ZM129.288 26.0915C128.201 26.0915 127.244 25.8789 126.417 25.4535C125.602 25.0283 124.97 24.4494 124.521 23.717C124.072 22.9727 123.848 22.1281 123.848 21.183C123.848 20.2262 124.066 19.3815 124.503 18.649C124.952 17.9049 125.561 17.3259 126.328 16.9125C127.096 16.4871 127.964 16.2746 128.933 16.2746C129.867 16.2746 130.705 16.4754 131.45 16.877C132.206 17.2669 132.802 17.8339 133.239 18.5782C133.677 19.3106 133.895 20.1907 133.895 21.2185C133.895 21.3247 133.889 21.4489 133.877 21.5906C133.866 21.7205 133.854 21.8446 133.842 21.9627H126.098V20.3502H132.389L131.326 20.8286C131.326 20.3325 131.225 19.9013 131.024 19.535C130.824 19.1689 130.546 18.8853 130.191 18.6845C129.837 18.4718 129.424 18.3655 128.951 18.3655C128.478 18.3655 128.059 18.4718 127.693 18.6845C127.338 18.8853 127.061 19.1747 126.86 19.5527C126.659 19.919 126.559 20.3561 126.559 20.8641V21.2894C126.559 21.8091 126.671 22.2698 126.896 22.6715C127.132 23.0614 127.457 23.3626 127.87 23.5753C128.295 23.7761 128.792 23.8765 129.359 23.8765C129.867 23.8765 130.31 23.7997 130.688 23.6461C131.077 23.4926 131.432 23.2622 131.751 22.955L133.222 24.5498C132.784 25.0461 132.235 25.4299 131.574 25.7017C130.912 25.9615 130.15 26.0915 129.288 26.0915ZM135.482 25.9498V16.4163H138.371L141.967 22.9373H140.817L144.662 16.4163H147.249L147.285 25.9498H144.786V19.2515L145.211 19.535L141.933 25.0283H140.763L137.467 19.3402L137.981 19.2161V25.9498H135.482ZM154.061 26.0915C152.974 26.0915 152.017 25.8789 151.19 25.4535C150.375 25.0283 149.743 24.4494 149.294 23.717C148.845 22.9727 148.621 22.1281 148.621 21.183C148.621 20.2262 148.839 19.3815 149.277 18.649C149.725 17.9049 150.334 17.3259 151.101 16.9125C151.87 16.4871 152.738 16.2746 153.706 16.2746C154.639 16.2746 155.478 16.4754 156.222 16.877C156.978 17.2669 157.575 17.8339 158.013 18.5782C158.45 19.3106 158.667 20.1907 158.667 21.2185C158.667 21.3247 158.662 21.4489 158.65 21.5906C158.638 21.7205 158.626 21.8446 158.614 21.9627H150.871V20.3502H157.162L156.098 20.8286C156.098 20.3325 155.998 19.9013 155.797 19.535C155.597 19.1689 155.319 18.8853 154.965 18.6845C154.61 18.4718 154.197 18.3655 153.723 18.3655C153.251 18.3655 152.833 18.4718 152.466 18.6845C152.111 18.8853 151.834 19.1747 151.633 19.5527C151.433 19.919 151.331 20.3561 151.331 20.8641V21.2894C151.331 21.8091 151.445 22.2698 151.669 22.6715C151.905 23.0614 152.23 23.3626 152.643 23.5753C153.069 23.7761 153.565 23.8765 154.131 23.8765C154.639 23.8765 155.082 23.7997 155.461 23.6461C155.85 23.4926 156.205 23.2622 156.523 22.955L157.994 24.5498C157.558 25.0461 157.009 25.4299 156.346 25.7017C155.685 25.9615 154.923 26.0915 154.061 26.0915ZM160.255 25.9498V16.4163H163.002V20.1375H167.149V16.4163H169.913V25.9498H167.149V22.3881H163.002V25.9498H160.255ZM172.027 25.9498V16.4163H174.774V20.1375H178.921V16.4163H181.685V25.9498H178.921V22.3881H174.774V25.9498H172.027ZM193.617 25.9498V16.4163H196.363V25.9498H193.617ZM188.814 19.4642C190.066 19.4759 191.006 19.7595 191.633 20.3147C192.27 20.8582 192.589 21.6319 192.589 22.6361C192.589 23.6875 192.229 24.5085 191.507 25.0991C190.787 25.6781 189.765 25.9675 188.442 25.9675L183.799 25.9498V16.4163H186.546V19.4642H188.814ZM188.194 24.0006C188.726 24.0123 189.134 23.9001 189.417 23.6638C189.701 23.4275 189.842 23.0731 189.842 22.6006C189.842 22.1281 189.701 21.7914 189.417 21.5906C189.134 21.3779 188.726 21.2658 188.194 21.2539L186.546 21.2362V24.0006H188.194ZM203.157 26.0915C202.07 26.0915 201.113 25.8789 200.286 25.4535C199.471 25.0283 198.839 24.4494 198.39 23.717C197.941 22.9727 197.717 22.1281 197.717 21.183C197.717 20.2262 197.935 19.3815 198.373 18.649C198.821 17.9049 199.43 17.3259 200.197 16.9125C200.965 16.4871 201.834 16.2746 202.802 16.2746C203.735 16.2746 204.574 16.4754 205.318 16.877C206.074 17.2669 206.671 17.8339 207.109 18.5782C207.545 19.3106 207.763 20.1907 207.763 21.2185C207.763 21.3247 207.758 21.4489 207.746 21.5906C207.734 21.7205 207.722 21.8446 207.71 21.9627H199.967V20.3502H206.258L205.194 20.8286C205.194 20.3325 205.094 19.9013 204.893 19.535C204.693 19.1689 204.414 18.8853 204.061 18.6845C203.706 18.4718 203.293 18.3655 202.819 18.3655C202.347 18.3655 201.927 18.4718 201.562 18.6845C201.207 18.8853 200.93 19.1747 200.729 19.5527C200.529 19.919 200.427 20.3561 200.427 20.8641V21.2894C200.427 21.8091 200.541 22.2698 200.765 22.6715C201.001 23.0614 201.326 23.3626 201.739 23.5753C202.165 23.7761 202.661 23.8765 203.227 23.8765C203.735 23.8765 204.178 23.7997 204.557 23.6461C204.946 23.4926 205.301 23.2622 205.619 22.955L207.09 24.5498C206.654 25.0461 206.105 25.4299 205.442 25.7017C204.781 25.9615 204.019 26.0915 203.157 26.0915Z" fill="white"/>
</g>
<defs>
<clipPath id="clip0_395_4390">
<rect width="208" height="65.3334" fill="white"/>
</clipPath>
</defs>
</svg>
