<svg width="302" height="91" viewBox="0 0 302 91" fill="none" xmlns="http://www.w3.org/2000/svg">
<path d="M127.891 60.1394C127.891 62.8915 126.838 63.9436 124.248 63.9436H115.101V54.5544H124.248C126.838 54.5544 127.891 55.8494 127.891 58.3587V60.1394ZM124.248 48.4026H105.146V54.1496L108.545 54.6352V77.6233H115.101V70.0952H124.248C131.776 70.0952 134.366 66.2909 134.366 60.3822V58.1158C134.366 52.5308 131.938 48.4026 124.248 48.4026ZM265.333 48.4026H267.761V77.6233H261.204V56.901L247.687 77.6233H240.159V48.4026H246.716V68.3998L256.591 53.0974C259.1 49.2119 261.285 48.4026 265.333 48.4026ZM80.296 12.7067H98.1844V16.349C98.1844 19.263 97.9415 21.6911 97.2938 23.8767H91.7088V18.8582H80.296C76.8962 18.8582 76.0866 19.7487 76.0866 23.4722V31.1616C76.0866 34.885 76.8962 35.7755 80.296 35.7755H98.1844V41.927H80.296C71.9589 41.927 69.5305 39.499 69.5305 31.1616V23.4722C69.5305 15.0539 71.9589 12.7067 80.296 12.7067ZM261.204 12.7067H267.761V41.927H261.204V30.1902H246.716V41.927H240.159V12.7067H246.716V24.0387H261.204V12.7067ZM88.3903 71.4717H77.0579V65.8055H88.3903C90.5758 65.8055 91.3852 66.8578 91.3852 68.5573C91.3852 70.2572 90.5758 71.4717 88.3903 71.4717ZM90.0898 57.1445C90.0898 58.9255 89.1999 59.8965 86.9332 59.8965H77.0579V54.6352H86.9332C89.1999 54.6352 90.0898 55.4446 90.0898 57.1445ZM93.833 62.1817C95.3696 61.2438 96.6465 59.2505 96.6465 56.1731C96.6465 52.2068 94.3801 48.4026 87.6617 48.4026H70.5019V77.6233H88.3094C94.7846 77.6233 97.9415 74.3047 97.9415 68.8813C97.9415 65.2346 95.8473 63.0853 93.833 62.1817ZM216.524 48.4026H234.574V52.0452C234.574 54.9592 234.331 57.3873 233.683 59.5729H228.098V54.5544H216.524C213.124 54.5544 212.315 55.4446 212.315 59.1681V66.8578C212.315 70.5812 213.124 71.4717 216.524 71.4717H234.574V77.6233H216.524C208.186 77.6233 205.758 75.1948 205.758 66.8578V59.1681C205.758 50.7498 208.186 48.4026 216.524 48.4026ZM161.239 66.8578C161.239 70.5812 160.43 71.4717 157.03 71.4717H149.26C145.86 71.4717 145.051 70.5812 145.051 66.8578V59.1681C145.051 55.4446 145.86 54.5544 149.26 54.5544H157.03C160.43 54.5544 161.239 55.4446 161.239 59.1681V66.8578ZM157.03 48.4026H149.26C140.922 48.4026 138.494 50.7498 138.494 59.1681V66.8578C138.494 75.1948 140.922 77.6233 149.26 77.6233H157.03C165.449 77.6233 167.796 75.1948 167.796 66.8578V59.1681C167.796 50.7498 165.449 48.4026 157.03 48.4026ZM113.498 18.8582H125.058V34.885H111.034C111.93 33.3191 112.308 31.1361 112.592 28.3286L113.498 18.8582ZM131.614 12.7067H107.736L106.279 27.5193C105.55 34.5613 104.498 35.6944 102.555 35.6944H102.151V44.6791H108.383L108.626 40.9557H127.891L128.134 44.6791H134.366V35.6135H131.614V12.7067ZM183.175 48.4026H201.144V52.0452C201.144 54.9592 200.902 57.3873 200.254 59.5729H194.669V54.5544H183.175C179.775 54.5544 178.966 55.4446 178.966 59.1681V66.8578C178.966 70.5812 179.775 71.4717 183.175 71.4717H201.144V77.6233H183.175C174.838 77.6233 172.409 75.1948 172.409 66.8578V59.1681C172.409 50.7498 174.838 48.4026 183.175 48.4026ZM295.443 31.1616C295.443 34.885 294.634 35.7755 291.235 35.7755H284.03C280.631 35.7755 279.821 34.885 279.821 31.1616V23.4722C279.821 19.7487 280.631 18.8582 284.03 18.8582H291.235C294.634 18.8582 295.443 19.7487 295.443 23.4722V31.1616ZM291.235 12.7067H284.03C275.693 12.7067 273.265 15.0539 273.265 23.4722V31.1616C273.265 39.499 276.502 41.927 284.84 41.927H290.425C298.843 41.927 302 39.499 302 31.1616V23.4722C302 15.0539 299.653 12.7067 291.235 12.7067ZM138.98 31.1616V23.4722C138.98 15.0539 141.327 12.7067 149.745 12.7067H166.905V18.8582H149.421C146.022 18.8582 145.536 19.4247 145.536 23.1482V24.1195H162.13V30.1902H145.536V31.4856C145.536 35.209 146.022 35.7755 149.421 35.7755H167.148V41.927H149.745C141.327 41.927 138.98 39.499 138.98 31.1616ZM217.171 18.8582H227.451V26.0622H212.962V23.4722C212.962 20.1536 213.367 18.8582 217.171 18.8582ZM212.962 32.1329H227.451V41.927H234.007V12.7067H217.171C208.915 12.7067 206.406 14.9731 206.406 23.4722V41.927H212.962V32.1329ZM38.61 48.4026H45.1663V77.6233H24.2022C15.7838 77.6233 12.6272 74.4663 12.6272 66.0484V48.4026H19.1835V66.21C19.1835 69.9338 20.6405 71.4717 24.0402 71.4717H38.61V48.4026ZM6.31343 6.31201H51.4802V84.0179H6.31343V6.31201ZM0 90.3311H57.7937V-0.00151062H0V90.3311ZM171.115 41.927V35.6944C173.786 35.6944 174.433 34.0756 175 28.6523L176.781 12.7067H200.254V41.927H193.698V18.8582H182.392L181.232 30.0285C180.261 39.6606 177.671 42.251 171.115 41.927ZM299.086 48.4026H301.514V77.6233H294.958V56.901L281.44 77.6233H273.913V48.4026H280.469V68.3998L290.344 53.0974C292.853 49.2119 295.039 48.4026 299.086 48.4026ZM35.3725 25.4957H19.1835V18.8582H35.3725C37.8003 18.8582 38.9336 20.1536 38.9336 22.096C38.9336 24.0387 37.9623 25.4957 35.3725 25.4957ZM45.4903 21.3674C45.4903 16.511 43.1431 12.7067 36.2624 12.7067H12.6272V41.927H19.1835V31.6472H34.32C37.7198 31.6472 38.61 32.6186 38.61 36.0184V41.927H45.1663V34.9658C45.1663 31.4938 43.9346 29.4569 41.1988 28.764C44.0451 27.8019 45.4903 25.0498 45.4903 21.3674Z" fill="url(#paint0_linear_395_4289)"/>
<defs>
<linearGradient id="paint0_linear_395_4289" x1="0" y1="45.1648" x2="302" y2="45.1648" gradientUnits="userSpaceOnUse">
<stop stop-color="#F6F6F6"/>
<stop offset="0.505" stop-color="#2E64B6"/>
<stop offset="1" stop-color="#FF0000"/>
</linearGradient>
</defs>
</svg>
