<svg width="40" height="40" viewBox="0 0 40 40" fill="none" xmlns="http://www.w3.org/2000/svg">
<path d="M7.30005 25.0999H8.60004V26.9999H7.30005V25.0999Z" fill="black"/>
<path d="M7.30005 31.5H8.60004V33.4H7.30005V31.5Z" fill="black"/>
<path d="M4.7002 28.2998H6.00018V30.1998H4.7002V28.2998Z" fill="black"/>
<path d="M20.7002 17.5H22.0002V19.4H20.7002V17.5Z" fill="black"/>
<path d="M24.5 17.5H25.8V19.4H24.5V17.5Z" fill="black"/>
<path d="M39.2001 11.9999L40.0001 11.1999L36.6 6.49988V4.79987H35.3V6.49988L31.9001 11.1999L32.7001 11.9999V12.3999H28.2001V8.59985H26.9001V9.8999H25.6V7.99988H26.2001V6.69989H25.3L23.6 2.69989V0.899902H22.3V2.69989L20.6 6.69989H19.7001V7.99988H20.3V9.8999H19.0001V8.59985H17.7001V14.9999H16.4001V13.6999H15.1V14.9999H13.8V13.6999H12.5001V21.3999H10.9001L9.40009 19.8999V16.6999L10.8 15.9999L6.80005 4.09985V0.999878H5.50006V4.09985L1.50006 15.9999L2.90009 16.6999V19.8999L0.800049 21.9999L1.60004 23.5999V38.0999H1.00006V39.3999H39.3V38.0999H38.7001V12.1999L39.2001 11.9999ZM28.3 13.6999H32.8V17.2999L30.9001 15.3999L28.3 17.9999V13.7999V13.6999ZM28.3 19.9999H32.8V21.2999H28.3V19.9999ZM21.9001 7.8999H24.5001V9.79987H21.9001V7.8999ZM19.4001 11.0999H27.1V14.8999H23.9001V12.2999H22.6V14.8999H19.4001V11.0999ZM19.4001 16.1999H27.1V21.2999H19.4001V16.1999ZM14.3 16.1999H18.1V21.2999H14.3V16.1999ZM4.70007 19.3999V16.7999H8.50006V19.3999H4.70007ZM7.60004 22.5999H5.70007L6.50006 20.6999H6.90009L7.70007 22.5999H7.60004ZM2.90009 22.0999L4.30005 20.6999H5.00006L4.20007 22.5999H3.10004L2.80005 22.0999H2.90009ZM9.80005 37.8999H3.40009V23.8999H9.80005V37.8999ZM10.1 22.5999H9.00006L8.20007 20.6999H8.90009L10.3 22.0999L10.0001 22.5999H10.1ZM16.2001 37.8999H11.1V29.5999H16.2001V37.8999ZM24.5001 37.8999H21.3V30.1999H24.5001V37.8999ZM23.2001 23.8999L20.0001 29.4999V37.9999H17.4001V28.7999L13.6 24.1999L11.0001 27.2999V23.4999L11.4001 22.6999H28.2001V23.5999L24.5001 26.2999L23.1 23.9999L23.2001 23.8999ZM32.1 37.8999H30.8V35.2999H29.5001V37.8999H28.2001V35.2999H26.9001V37.8999H25.6V34.0999H32.0001V37.8999H32.1ZM32.1 32.7999H25.7001V28.9999H32.1V32.7999ZM35.3 37.8999H33.4001V32.4999L35.3 33.2999V37.9999V37.8999ZM37.9001 37.8999H36.6V32.3999L33.4001 31.0999V28.4999L34.2001 26.8999L29.6 23.5999V22.6999H37.9001V37.9999V37.8999ZM37.9001 21.2999H34.1V18.0999H37.9001V21.2999ZM37.9001 16.8999H34.1V12.3999H37.9001V16.8999Z" fill="black"/>
<path d="M35.3 13.7H36.6V15.5999H35.3V13.7Z" fill="black"/>
<path d="M28.3 30.2998H29.6V31.5998H28.3V30.2998Z" fill="black"/>
<path d="M13 31.5H14.3V32.8H13V31.5Z" fill="black"/>
<path d="M13.6001 34.7H14.9001V35.9999H13.6001V34.7Z" fill="black"/>
<path d="M17.5 24.5H18.8V25.8H17.5V24.5Z" fill="black"/>
<path d="M35.3 24.5H36.6V25.8H35.3V24.5Z" fill="black"/>
</svg>
