<svg width="93" height="34" viewBox="0 0 93 34" fill="none" xmlns="http://www.w3.org/2000/svg">
<path d="M73.0999 8.69995H19.3999V33H73.0999V8.69995Z" stroke="black" stroke-width="0.8" stroke-linecap="round" stroke-linejoin="round"/>
<path d="M73.4998 10.6001H18.8997C18.6788 10.6001 18.4998 10.7792 18.4998 11.0001V11.3001C18.4998 11.521 18.6788 11.7001 18.8997 11.7001H73.4998C73.7207 11.7001 73.8997 11.521 73.8997 11.3001V11.0001C73.8997 10.7792 73.7207 10.6001 73.4998 10.6001Z" fill="black"/>
<path d="M74.2997 7.6001H18.3997C18.1788 7.6001 17.9998 7.77918 17.9998 8.00009V8.30009C17.9998 8.52101 18.1788 8.70009 18.3997 8.70009H74.2997C74.5207 8.70009 74.6998 8.52101 74.6998 8.30009V8.00009C74.6998 7.77918 74.5207 7.6001 74.2997 7.6001Z" fill="black"/>
<path d="M74.0998 4.6001H18.1998C17.9789 4.6001 17.7998 4.77918 17.7998 5.00009V5.30009C17.7998 5.52101 17.9789 5.70009 18.1998 5.70009H74.0998C74.3207 5.70009 74.4998 5.52101 74.4998 5.30009V5.00009C74.4998 4.77918 74.3207 4.6001 74.0998 4.6001Z" fill="black"/>
<path d="M73.6998 25.3H18.6998C18.5893 25.3 18.4998 25.3896 18.4998 25.5001V27.0001C18.4998 27.1105 18.5893 27.2001 18.6998 27.2001H73.6998C73.8102 27.2001 73.8997 27.1105 73.8997 27.0001V25.5001C73.8997 25.3896 73.8102 25.3 73.6998 25.3Z" fill="black"/>
<path d="M56.1999 2.80005H73.0999V7.60005H19.3999V2.80005H36.1999H56.1999Z" stroke="black" stroke-width="0.8" stroke-linecap="round" stroke-linejoin="round"/>
<path d="M27.6999 11.7H25.8999V26H27.6999V11.7Z" stroke="black" stroke-width="0.8" stroke-linecap="round" stroke-linejoin="round"/>
<path d="M33.2997 11.7H31.4998V26H33.2997V11.7Z" stroke="black" stroke-width="0.8" stroke-linecap="round" stroke-linejoin="round"/>
<path d="M38.6999 11.7H36.8999V26H38.6999V11.7Z" stroke="black" stroke-width="0.8" stroke-linecap="round" stroke-linejoin="round"/>
<path d="M44.4997 11.7H42.6997V26H44.4997V11.7Z" stroke="black" stroke-width="0.8" stroke-linecap="round" stroke-linejoin="round"/>
<path d="M49.9997 11.7H48.1997V26H49.9997V11.7Z" stroke="black" stroke-width="0.8" stroke-linecap="round" stroke-linejoin="round"/>
<path d="M55.3998 11.7H53.5999V26H55.3998V11.7Z" stroke="black" stroke-width="0.8" stroke-linecap="round" stroke-linejoin="round"/>
<path d="M60.6999 11.7H58.8999V26H60.6999V11.7Z" stroke="black" stroke-width="0.8" stroke-linecap="round" stroke-linejoin="round"/>
<path d="M66.1999 11.7H64.3999V26H66.1999V11.7Z" stroke="black" stroke-width="0.8" stroke-linecap="round" stroke-linejoin="round"/>
<path d="M27.6999 26.6001H25.8999V33.0001H27.6999V26.6001Z" stroke="black" stroke-width="0.8" stroke-linecap="round" stroke-linejoin="round"/>
<path d="M28.2999 31.2H25.3999V32.9999H28.2999V31.2Z" stroke="black" stroke-width="0.8" stroke-linecap="round" stroke-linejoin="round"/>
<path d="M33.2997 26.6001H31.4998V33.0001H33.2997V26.6001Z" stroke="black" stroke-width="0.8" stroke-linecap="round" stroke-linejoin="round"/>
<path d="M33.7999 31.2H30.8999V32.9999H33.7999V31.2Z" stroke="black" stroke-width="0.8" stroke-linecap="round" stroke-linejoin="round"/>
<path d="M38.6999 26.6001H36.8999V33.0001H38.6999V26.6001Z" stroke="black" stroke-width="0.8" stroke-linecap="round" stroke-linejoin="round"/>
<path d="M39.2999 31.2H36.3999V32.9999H39.2999V31.2Z" stroke="black" stroke-width="0.8" stroke-linecap="round" stroke-linejoin="round"/>
<path d="M44.4997 26.6001H42.6997V33.0001H44.4997V26.6001Z" stroke="black" stroke-width="0.8" stroke-linecap="round" stroke-linejoin="round"/>
<path d="M44.9998 31.2H42.0999V32.9999H44.9998V31.2Z" stroke="black" stroke-width="0.8" stroke-linecap="round" stroke-linejoin="round"/>
<path d="M49.9997 26.6001H48.1997V33.0001H49.9997V26.6001Z" stroke="black" stroke-width="0.8" stroke-linecap="round" stroke-linejoin="round"/>
<path d="M50.4998 31.2H47.5999V32.9999H50.4998V31.2Z" stroke="black" stroke-width="0.8" stroke-linecap="round" stroke-linejoin="round"/>
<path d="M55.3998 26.6001H53.5999V33.0001H55.3998V26.6001Z" stroke="black" stroke-width="0.8" stroke-linecap="round" stroke-linejoin="round"/>
<path d="M55.8997 31.2H52.9998V32.9999H55.8997V31.2Z" stroke="black" stroke-width="0.8" stroke-linecap="round" stroke-linejoin="round"/>
<path d="M60.6999 26.6001H58.8999V33.0001H60.6999V26.6001Z" stroke="black" stroke-width="0.8" stroke-linecap="round" stroke-linejoin="round"/>
<path d="M61.1998 31.2H58.2998V32.9999H61.1998V31.2Z" stroke="black" stroke-width="0.8" stroke-linecap="round" stroke-linejoin="round"/>
<path d="M66.1999 26.6001H64.3999V33.0001H66.1999V26.6001Z" stroke="black" stroke-width="0.8" stroke-linecap="round" stroke-linejoin="round"/>
<path d="M66.6998 31.2H63.7998V32.9999H66.6998V31.2Z" stroke="black" stroke-width="0.8" stroke-linecap="round" stroke-linejoin="round"/>
<path d="M31.9998 2.8V1H60.2997V2.8" stroke="black" stroke-width="0.8" stroke-linecap="round" stroke-linejoin="round"/>
<path d="M19.4004 10.8008H0.400391V29.8008H19.4004V10.8008Z" stroke="black" stroke-width="0.8" stroke-linecap="round" stroke-linejoin="round"/>
<path d="M4.00049 13.8008H2.50049V20.9008H4.00049V13.8008Z" fill="black"/>
<path d="M6.20044 13.8008H4.70044V20.9008H6.20044V13.8008Z" fill="black"/>
<path d="M8.40039 13.8008H6.90039V20.9008H8.40039V13.8008Z" fill="black"/>
<path d="M10.6003 13.8008H9.10034V20.9008H10.6003V13.8008Z" fill="black"/>
<path d="M12.7004 13.8008H11.2004V20.9008H12.7004V13.8008Z" fill="black"/>
<path d="M14.9004 13.8008H13.4004V20.9008H14.9004V13.8008Z" fill="black"/>
<path d="M17.1003 13.8008H15.6003V20.9008H17.1003V13.8008Z" fill="black"/>
<path d="M4.00049 25.1008H2.50049V28.6008H4.00049V25.1008Z" fill="black"/>
<path d="M6.20044 25.1008H4.70044V28.6008H6.20044V25.1008Z" fill="black"/>
<path d="M8.40039 25.1008H6.90039V28.6008H8.40039V25.1008Z" fill="black"/>
<path d="M10.5005 25.1008H9.00049V28.6008H10.5005V25.1008Z" fill="black"/>
<path d="M12.7004 25.1008H11.2004V28.6008H12.7004V25.1008Z" fill="black"/>
<path d="M14.9004 25.1008H13.4004V28.6008H14.9004V25.1008Z" fill="black"/>
<path d="M17.1003 25.1008H15.6003V28.6008H17.1003V25.1008Z" fill="black"/>
<path d="M0.400391 22.8008H19.4004" stroke="black" stroke-width="0.8" stroke-linecap="round" stroke-linejoin="round"/>
<path d="M92.2998 10.8008H73.2998V29.8008H92.2998V10.8008Z" stroke="black" stroke-width="0.8" stroke-linecap="round" stroke-linejoin="round"/>
<path d="M76.8999 13.8008H75.3999V20.9008H76.8999V13.8008Z" fill="black"/>
<path d="M78.9998 13.8008H77.4998V20.9008H78.9998V13.8008Z" fill="black"/>
<path d="M81.1997 13.8008H79.6997V20.9008H81.1997V13.8008Z" fill="black"/>
<path d="M83.3999 13.8008H81.8999V20.9008H83.3999V13.8008Z" fill="black"/>
<path d="M85.5999 13.8008H84.0999V20.9008H85.5999V13.8008Z" fill="black"/>
<path d="M87.7998 13.8008H86.2998V20.9008H87.7998V13.8008Z" fill="black"/>
<path d="M89.9998 13.8008H88.4998V20.9008H89.9998V13.8008Z" fill="black"/>
<path d="M76.8999 25.1008H75.3999V28.6008H76.8999V25.1008Z" fill="black"/>
<path d="M78.9998 25.1008H77.4998V28.6008H78.9998V25.1008Z" fill="black"/>
<path d="M81.1997 25.1008H79.6997V28.6008H81.1997V25.1008Z" fill="black"/>
<path d="M83.3999 25.1008H81.8999V28.6008H83.3999V25.1008Z" fill="black"/>
<path d="M85.5999 25.1008H84.0999V28.6008H85.5999V25.1008Z" fill="black"/>
<path d="M87.7998 25.1008H86.2998V28.6008H87.7998V25.1008Z" fill="black"/>
<path d="M89.9998 25.1008H88.4998V28.6008H89.9998V25.1008Z" fill="black"/>
<path d="M73.2998 22.8008H92.2998" stroke="black" stroke-width="0.8" stroke-linecap="round" stroke-linejoin="round"/>
</svg>
