<svg width="32" height="50" viewBox="0 0 32 50" fill="none" xmlns="http://www.w3.org/2000/svg">
<path d="M11.1001 39.2002H12.5001V43.5002H11.1001V39.2002Z" fill="black"/>
<path d="M14 39.2002H15.4V43.5002H14V39.2002Z" fill="black"/>
<path d="M16.8999 39.2002H18.2999V43.5002H16.8999V39.2002Z" fill="black"/>
<path d="M19.8 39.2002H21.2001V43.5002H19.8V39.2002Z" fill="black"/>
<path d="M16.2 15.4001C12.6 15.4001 9.69995 18.3001 9.69995 21.9001V30.6002H22.7V21.9001C22.7 18.3001 19.8 15.4001 16.2 15.4001ZM21.2 29.2002H11.0999V22.0002C11.0999 19.5002 12.9999 17.3002 15.3999 17.0002V18.5002C13.7999 18.8002 12.4999 20.3002 12.4999 22.0002V26.3001H15.3999V27.7002H16.7999V26.3001H19.7V22.0002C19.7 20.3002 18.4999 18.8002 16.7999 18.5002V17.0002C19.1999 17.4002 21.0999 19.5002 21.0999 22.0002V29.2002H21.2Z" fill="black"/>
<path d="M27 44.7001V37.8H28.4V33.5001H25.5V18.7001L27.9 16.4001L21.2 9.70007L20 8.50006L16.8 5.30005V3.10007H18.3V1.70007H16.8V0.300049H15.4V1.70007H14V3.10007H15.4V5.30005L4.29999 16.4001L6.70001 18.7001V33.5001H3.79999V37.8H5.20001V44.7001L0.5 49.5001H2.5L6.60001 45.3V37.8H25.4V45.3L29.5 49.5001H31.5L26.8 44.7001H27ZM6.39999 16.4001L16.1 6.70007L19 9.60007L20.2 10.8L25.8 16.4001L24.7 17.4001L16 8.70007L7.29999 17.4001L6.20001 16.4001H6.39999ZM24.1 18.6001V33.4001H8.20001V18.6001L16.1 10.7001L24 18.6001H24.1ZM22.7 36.4001H5.39999V35.0001H27.1V36.4001H22.8H22.7Z" fill="black"/>
</svg>
