<svg width="38" height="35" viewBox="0 0 38 35" fill="none" xmlns="http://www.w3.org/2000/svg">
<path d="M36.8 12.0998H35.2L35.3999 11.5998C35.8999 10.3998 35.6 9.09987 34.7 8.19987L33.3 6.79985V4.99986C33.3 4.69986 33.1 4.49986 32.8 4.49986C32.5 4.49986 32.3 4.69986 32.3 4.99986V6.79985L30.8999 8.19987C29.9999 9.09987 29.7 10.3998 30.2 11.5998L30.3999 12.0998H28.8C28.5 12.0998 28.3 12.2998 28.3 12.5998V15.5998C28.3 15.8998 28.5 16.0998 28.8 16.0998H30V19.3999H27.7V17.4999C27.7 17.1999 27.5 16.9999 27.2 16.9999H26.1C27.5 14.8999 27.4 12.1998 26 10.0998C24.8 8.39984 23.1 7.19986 21.2 6.49986L20.6 6.29985C21.1 5.29985 21 4.09987 20.5 3.19987L19.2 0.899885C19.1 0.699885 18.8 0.599873 18.5 0.699873C18.5 0.699873 18.3 0.799885 18.3 0.899885L17 3.19987C16.5 4.19987 16.3999 5.29985 16.8999 6.29985L16.3 6.49986C14.4 7.19986 12.7 8.39984 11.5 10.0998C9.99995 12.0998 9.99995 14.8999 11.3999 16.9999H10.3C9.99996 16.9999 9.79996 17.1999 9.79996 17.4999V19.3999H7.49995V16.0998H8.69995C8.99995 16.0998 9.19995 15.8998 9.19995 15.5998V12.5998C9.19995 12.2998 8.99995 12.0998 8.69995 12.0998H7.09996L7.29996 11.5998C7.79996 10.3998 7.49996 9.09987 6.59996 8.19987L5.19995 6.79985V4.99986C5.19995 4.69986 4.99995 4.49986 4.69995 4.49986C4.39995 4.49986 4.19995 4.69986 4.19995 4.99986V6.79985L2.79996 8.19987C1.89996 9.09987 1.59996 10.3998 2.09996 11.5998L2.29996 12.0998H0.699951C0.399951 12.0998 0.199951 12.2998 0.199951 12.5998V15.5998C0.199951 15.8998 0.399951 16.0998 0.699951 16.0998H1.89995V33.5998C1.89995 33.8998 2.09995 34.0998 2.39995 34.0998H35.3999C35.6999 34.0998 35.8999 33.8998 35.8999 33.5998V16.0998H37.1C37.4 16.0998 37.6 15.8998 37.6 15.5998V12.5998C37.6 12.2998 37.4 12.0998 37.1 12.0998H36.8ZM31 11.1999C30.7 10.3999 30.9 9.49989 31.5 8.89989L32.7 7.69987L33.8999 8.89989C34.4999 9.49989 34.6999 10.3999 34.3999 11.1999L34 12.0998H31.3999L31 11.1999ZM17.7 3.79985L18.6 2.29985L19.5 3.79985C19.9 4.49985 19.9 5.39984 19.5 6.09984L18.8 5.79985C18.7 5.79985 18.6 5.79985 18.5 5.79985L17.8 6.09984C17.4 5.39984 17.4 4.49985 17.8 3.79985H17.7ZM12.2 10.7998C13.3 9.29985 14.8 8.19984 16.5 7.59984L18.6 6.89989L20.7 7.59984C22.4 8.19984 24 9.29985 25 10.7998C26.4 12.6998 26.2 15.2998 24.7 17.0998H12.5C11 15.2998 10.8 12.6998 12.2 10.7998ZM10.7 18.0998H26.6V19.4999H10.7V18.0998ZM2.79996 11.1999C2.49996 10.3999 2.69996 9.49989 3.29996 8.89989L4.49995 7.69987L5.69995 8.89989C6.29995 9.49989 6.49995 10.3999 6.19995 11.1999L5.79996 12.0998H3.19995L2.79996 11.1999ZM0.899948 13.1999H7.99995V15.1999H0.899948V13.1999ZM2.59996 16.1999H6.29996V33.1999H2.59996V16.1999ZM7.39995 20.4999H29.8999V33.1999H28.8999V29.2998C28.8999 28.2998 28.5 27.2998 27.7 26.5998L26.6 25.4999C26.4 25.2999 26.0999 25.2999 25.8999 25.4999L24.8 26.5998C24.1 27.2998 23.6 28.2998 23.6 29.2998V33.1999H22.2V27.2998C22.2 25.8998 21.6 24.4999 20.6 23.4999L19 21.9999C18.8 21.7999 18.5 21.7999 18.3 21.9999L16.7 23.4999C15.7 24.4999 15.1 25.8998 15.1 27.2998V33.1999H13.7V29.2998C13.7 28.2998 13.3 27.2998 12.5 26.5998L11.3999 25.4999C11.1999 25.2999 10.9 25.2999 10.7 25.4999L9.59996 26.5998C8.89996 27.2998 8.39995 28.2998 8.39995 29.2998V33.1999H7.39995V20.4999ZM34.6 33.1999H30.8999V16.1999H34.6V33.1999ZM36.3 15.1999H29.2V13.1999H36.3V15.1999Z" fill="black"/>
</svg>
