<svg width="604" height="12" viewBox="0 0 604 12" fill="none" xmlns="http://www.w3.org/2000/svg">
<g clip-path="url(#clip0_560_193)">
<path fill-rule="evenodd" clip-rule="evenodd" d="M25.0646 0C28.3582 0 31.4691 1.54333 34.1719 4.2645C36.3344 6.44186 38.479 7.34779 40.441 7.34779C42.403 7.34779 44.5476 6.44186 46.7102 4.2645C49.4129 1.54333 52.5239 0 55.8174 0C59.1109 0 62.2219 1.54333 64.9246 4.2645C67.0872 6.44186 69.2318 7.34779 71.1938 7.34779C73.1558 7.34779 75.3004 6.44186 77.463 4.2645C80.1657 1.54333 83.2767 0 86.5702 0C89.8637 0 92.9747 1.54333 95.6774 4.2645C97.84 6.44186 99.9845 7.34779 101.947 7.34779C103.909 7.34779 106.053 6.44186 108.216 4.2645C110.918 1.54333 114.029 0 117.323 0C120.616 0 123.727 1.54333 126.43 4.2645C128.593 6.44186 130.737 7.34779 132.699 7.34779C134.661 7.34779 136.806 6.44186 138.969 4.2645C141.671 1.54333 144.782 0 148.076 0C151.369 0 154.48 1.54333 157.183 4.2645C159.346 6.44186 161.49 7.34779 163.452 7.34779C165.414 7.34779 167.559 6.44186 169.721 4.2645C172.424 1.54333 175.535 0 178.828 0C182.122 0 185.233 1.54333 187.936 4.2645C190.098 6.44186 192.243 7.34779 194.205 7.34779C196.167 7.34779 198.311 6.44186 200.474 4.2645C203.177 1.54333 206.288 0 209.581 0C212.875 0 215.986 1.54333 218.688 4.2645C220.851 6.44186 222.996 7.34779 224.958 7.34779C226.92 7.34779 229.064 6.44186 231.227 4.2645C233.93 1.54333 237.041 0 240.334 0C243.628 0 246.739 1.54333 249.441 4.2645C251.604 6.44186 253.748 7.34779 255.71 7.34779C257.672 7.34779 259.817 6.44186 261.98 4.2645C264.682 1.54333 267.793 0 271.087 0C274.38 0 277.491 1.54333 280.194 4.2645C282.357 6.44186 284.501 7.34779 286.463 7.34779C288.425 7.34779 290.57 6.44186 292.732 4.2645C295.435 1.54333 298.546 0 301.84 0C305.133 0 308.244 1.54333 310.947 4.2645C313.109 6.44186 315.254 7.34779 317.216 7.34779C319.178 7.34779 321.323 6.44186 323.485 4.2645C326.188 1.54333 329.299 0 332.592 0C335.886 0 338.997 1.54333 341.7 4.2645C343.862 6.44186 346.007 7.34779 347.969 7.34779C349.931 7.34779 352.075 6.44186 354.238 4.2645C356.941 1.54333 360.052 0 363.345 0C366.639 0 369.75 1.54333 372.452 4.2645C374.615 6.44186 376.759 7.34779 378.721 7.34779C380.684 7.34779 382.828 6.44186 384.991 4.2645C387.693 1.54333 390.804 0 394.098 0C397.391 0 400.502 1.54333 403.205 4.2645C405.368 6.44186 407.512 7.34779 409.474 7.34779C411.436 7.34779 413.581 6.44186 415.743 4.2645C418.446 1.54333 421.557 0 424.851 0C428.144 0 431.255 1.54333 433.958 4.2645C436.12 6.44186 438.265 7.34779 440.227 7.34779C442.189 7.34779 444.334 6.44186 446.496 4.2645C449.199 1.54333 452.31 0 455.603 0C458.897 0 462.008 1.54333 464.711 4.2645C466.873 6.44186 469.018 7.34779 470.98 7.34779C472.942 7.34779 475.086 6.44186 477.249 4.2645C479.952 1.54334 483.063 0 486.356 0C489.65 0 492.761 1.54334 495.463 4.2645C497.626 6.44186 499.77 7.34779 501.733 7.34779C503.695 7.34779 505.839 6.44186 508.002 4.2645C510.704 1.54333 513.815 0 517.109 0C520.402 0 523.513 1.54333 526.216 4.2645C528.379 6.44186 530.523 7.34779 532.485 7.34779C534.447 7.34779 536.592 6.44186 538.754 4.2645C541.457 1.54333 544.568 0 547.862 0C551.155 0 554.266 1.54333 556.969 4.2645C559.131 6.44186 561.276 7.34779 563.238 7.34779C565.2 7.34779 567.345 6.44186 569.507 4.2645C572.21 1.54334 575.321 0 578.614 0C581.908 0 585.019 1.54334 587.722 4.2645C589.884 6.44186 592.029 7.34779 593.991 7.34779C595.953 7.34779 598.097 6.44186 600.26 4.2645L603.098 7.08329C600.395 9.80445 597.284 11.3478 593.991 11.3478C590.697 11.3478 587.586 9.80445 584.884 7.08329C582.721 4.90593 580.576 4 578.614 4C576.652 4 574.508 4.90593 572.345 7.08329C569.643 9.80445 566.532 11.3478 563.238 11.3478C559.945 11.3478 556.834 9.80445 554.131 7.08329C551.968 4.90593 549.824 4 547.862 4C545.9 4 543.755 4.90593 541.592 7.08329C538.89 9.80445 535.779 11.3478 532.485 11.3478C529.192 11.3478 526.081 9.80445 523.378 7.08329C521.216 4.90593 519.071 4 517.109 4C515.147 4 513.002 4.90593 510.84 7.08329C508.137 9.80445 505.026 11.3478 501.733 11.3478C498.439 11.3478 495.328 9.80445 492.625 7.08329C490.463 4.90593 488.318 4 486.356 4C484.394 4 482.25 4.90593 480.087 7.08329C477.384 9.80445 474.273 11.3478 470.98 11.3478C467.686 11.3478 464.575 9.80445 461.873 7.08329C459.71 4.90593 457.565 4 455.603 4C453.641 4 451.497 4.90593 449.334 7.08329C446.631 9.80445 443.52 11.3478 440.227 11.3478C436.933 11.3478 433.823 9.80445 431.12 7.08329C428.957 4.90593 426.813 4 424.851 4C422.889 4 420.744 4.90593 418.581 7.08329C415.879 9.80445 412.768 11.3478 409.474 11.3478C406.181 11.3478 403.07 9.80445 400.367 7.08329C398.204 4.90593 396.06 4 394.098 4C392.136 4 389.991 4.90593 387.829 7.08329C385.126 9.80445 382.015 11.3478 378.721 11.3478C375.428 11.3478 372.317 9.80445 369.614 7.08329C367.452 4.90593 365.307 4 363.345 4C361.383 4 359.239 4.90593 357.076 7.08329C354.373 9.80445 351.262 11.3478 347.969 11.3478C344.675 11.3478 341.564 9.80445 338.861 7.08329C336.699 4.90593 334.554 4 332.592 4C330.63 4 328.486 4.90593 326.323 7.08329C323.62 9.80445 320.509 11.3478 317.216 11.3478C313.922 11.3478 310.811 9.80445 308.109 7.08329C305.946 4.90593 303.802 4 301.84 4C299.878 4 297.733 4.90593 295.57 7.08329C292.868 9.80445 289.757 11.3478 286.463 11.3478C283.17 11.3478 280.059 9.80445 277.356 7.08329C275.193 4.90593 273.049 4 271.087 4C269.125 4 266.98 4.90593 264.818 7.08329C262.115 9.80445 259.004 11.3478 255.71 11.3478C252.417 11.3478 249.306 9.80445 246.603 7.08329C244.441 4.90593 242.296 4 240.334 4C238.372 4 236.227 4.90593 234.065 7.08329C231.362 9.80445 228.251 11.3478 224.958 11.3478C221.664 11.3478 218.553 9.80445 215.85 7.08329C213.688 4.90593 211.543 4 209.581 4C207.619 4 205.475 4.90593 203.312 7.08329C200.609 9.80445 197.498 11.3478 194.205 11.3478C190.911 11.3478 187.8 9.80445 185.098 7.08329C182.935 4.90593 180.79 4 178.828 4C176.866 4 174.722 4.90593 172.559 7.08329C169.857 9.80445 166.746 11.3478 163.452 11.3478C160.159 11.3478 157.048 9.80445 154.345 7.08329C152.182 4.90593 150.038 4 148.076 4C146.114 4 143.969 4.90593 141.807 7.08329C139.104 9.80445 135.993 11.3478 132.699 11.3478C129.406 11.3478 126.295 9.80445 123.592 7.08329C121.43 4.90593 119.285 4 117.323 4C115.361 4 113.216 4.90593 111.054 7.08329C108.351 9.80445 105.24 11.3478 101.947 11.3478C98.6531 11.3478 95.5421 9.80445 92.8394 7.08329C90.6768 4.90593 88.5322 4 86.5702 4C84.6082 4 82.4636 4.90593 80.301 7.08329C77.5983 9.80445 74.4873 11.3478 71.1938 11.3478C67.9003 11.3478 64.7893 9.80445 62.0866 7.08329C59.924 4.90593 57.7794 4 55.8174 4C53.8554 4 51.7108 4.90593 49.5482 7.08329C46.8455 9.80445 43.7345 11.3478 40.441 11.3478C37.1475 11.3478 34.0365 9.80445 31.3338 7.08329C29.1712 4.90593 27.0267 4 25.0646 4C23.1026 4 20.9581 4.90593 18.7955 7.08329C16.0928 9.80445 12.9818 11.3478 9.68826 11.3478C6.39475 11.3478 3.28377 9.80445 0.581055 7.08329L3.41909 4.2645C5.58168 6.44186 7.72624 7.34779 9.68826 7.34779C11.6503 7.34779 13.7948 6.44186 15.9574 4.2645C18.6602 1.54333 21.7711 0 25.0646 0Z" fill="#6E6DD7"/>
</g>
<defs>
<clipPath id="clip0_560_193">
<rect width="604" height="12" fill="white"/>
</clipPath>
</defs>
</svg>
