<svg width="81" height="81" viewBox="0 0 81 81" fill="none" xmlns="http://www.w3.org/2000/svg">
<path fill-rule="evenodd" clip-rule="evenodd" d="M81 40.5C81 62.8672 62.8672 81 40.5 81C18.1328 81 0 62.8672 0 40.5C0 18.1328 18.1328 0 40.5 0C62.8672 0 81 18.1328 81 40.5ZM41.9548 29.9009C38.0061 31.5375 30.1347 34.9407 18.3406 40.0844C16.4182 40.8377 15.431 41.5911 15.3271 42.3185C15.1713 43.5395 16.704 44.033 18.8082 44.7085C19.094 44.7864 19.3797 44.8903 19.6915 44.9942C21.7697 45.6697 24.5494 46.449 25.9782 46.475C27.2771 46.501 28.7579 45.9554 30.3685 44.8643C41.4092 37.4086 47.0985 33.6418 47.4622 33.5638C47.7219 33.5119 48.0597 33.4339 48.2935 33.6418C48.5273 33.8496 48.5013 34.2393 48.4753 34.3691C48.3194 35.0186 42.2665 40.6559 39.1232 43.5654C38.136 44.4747 37.4606 45.1241 37.3047 45.254C36.9929 45.5917 36.6552 45.9035 36.3435 46.1892C34.4211 48.0337 32.9923 49.4365 36.4214 51.6966C38.084 52.7877 39.4089 53.6969 40.7078 54.5802C42.1626 55.5674 43.5914 56.5285 45.4359 57.7495C45.9035 58.0613 46.3711 58.373 46.8127 58.6847C48.5013 59.8797 50.008 60.9448 51.8525 60.789C52.9436 60.6851 54.0606 59.6719 54.6321 56.6325C55.983 49.4625 58.6068 33.9275 59.2303 27.5109C59.2822 26.9394 59.2303 26.238 59.1523 25.9262C59.1004 25.6145 58.9965 25.1729 58.5808 24.8352C58.0872 24.4455 57.3339 24.3675 57.0221 24.3675C55.4894 24.3935 53.1514 25.1988 41.9028 29.8749L41.9548 29.9009Z" fill="white"/>
</svg>
