<svg width="81" height="81" viewBox="0 0 81 81" fill="none" xmlns="http://www.w3.org/2000/svg">
<path fill-rule="evenodd" clip-rule="evenodd" d="M40.5 0C18.1325 0 0 18.1325 0 40.5C0 62.8675 18.1325 81 40.5 81C62.8675 81 81 62.8675 81 40.5C81 18.1325 62.8675 0 40.5 0ZM57.9447 31.5054H46.5046V28.2278H57.9447V31.5054ZM56.9363 34.2568C55.5597 33.6479 54.0128 33.3422 52.2932 33.3422C49.4002 33.3422 47.0507 34.2468 45.2346 36.0434C43.4236 37.8451 42.5168 40.4336 42.5168 43.8089C42.5168 47.4072 43.5176 50.0083 45.5318 51.6045C47.5358 53.2032 49.8548 54 52.4837 54C55.6663 54 58.1428 53.0528 59.9106 51.1609C61.0435 49.9682 61.6836 48.7929 61.8233 47.6403H56.5528C56.248 48.2116 55.8924 48.6576 55.4885 48.9809C54.7545 49.5748 53.7969 49.8729 52.626 49.8729C51.5135 49.8729 50.566 49.6274 49.7786 49.1387C48.4782 48.3544 47.7974 46.9838 47.7111 45.0317H62.095C62.1179 43.3503 62.062 42.0574 61.9223 41.1653C61.6836 39.6393 61.1603 38.2962 60.345 37.1385C59.4509 35.8254 58.3155 34.8632 56.9363 34.2568ZM31.8006 27C35.0569 27.0476 37.3606 27.9823 38.7195 29.8065C39.5349 30.9266 39.9438 32.2647 39.9438 33.8258C39.9438 35.432 39.5349 36.7275 38.7094 37.7048C38.2471 38.251 37.5689 38.7522 36.6723 39.2032C38.0337 39.6944 39.0599 40.4687 39.7584 41.5286C40.4493 42.5861 40.7972 43.8741 40.7972 45.3876C40.7972 46.9487 40.401 48.3494 39.606 49.5873C39.1031 50.4067 38.4731 51.0983 37.7162 51.6596C36.8653 52.3036 35.862 52.7421 34.7013 52.9826C33.5405 53.2207 32.2857 53.336 30.9294 53.336H18.9V27H31.8006Z" fill="white"/>
<path fill-rule="evenodd" clip-rule="evenodd" d="M24.2212 31.5731H30.0327C31.3103 31.5731 32.3619 31.7109 33.1899 31.9841C34.1449 32.38 34.6224 33.1894 34.6224 34.4197C34.6224 35.5223 34.2592 36.294 33.5379 36.7301C32.8114 37.1661 31.8691 37.3841 30.7134 37.3841H24.2212V31.5731ZM49.2147 38.657C49.9437 37.9153 50.9749 37.5444 52.2957 37.5444C53.5149 37.5444 54.5334 37.8927 55.3614 38.5919C56.1793 39.296 56.6416 40.3184 56.7356 41.6715H47.838C48.026 40.4036 48.4857 39.3987 49.2147 38.657ZM30.7947 41.7417H24.2212V48.7654H30.7032C31.8615 48.7654 32.7657 48.6101 33.4083 48.3018C34.5793 47.7255 35.1635 46.633 35.1635 45.0142C35.1635 43.6411 34.5996 42.7014 33.4642 42.1877C32.8292 41.902 31.9377 41.7517 30.7947 41.7417Z" fill="white"/>
</svg>
