<svg width="81" height="81" viewBox="0 0 81 81" fill="none" xmlns="http://www.w3.org/2000/svg">
<path fill-rule="evenodd" clip-rule="evenodd" d="M40.5 0C18.1325 0 0 18.1325 0 40.5C0 62.8675 18.1325 81 40.5 81C62.8675 81 81 62.8675 81 40.5C81 18.1325 62.8675 0 40.5 0ZM31.258 18.693C33.5616 18.5882 34.298 18.5625 40.1612 18.5625C46.0261 18.5625 46.7598 18.5882 49.0634 18.693C51.3629 18.7983 52.9334 19.1624 54.3104 19.6965C55.7324 20.2478 56.9339 20.9858 58.1355 22.1873C59.337 23.3879 60.075 24.593 60.6285 26.0137C61.1595 27.3871 61.524 28.9567 61.632 31.2562C61.7355 33.5603 61.7625 34.2965 61.7625 40.1627C61.7625 46.029 61.7355 46.7634 61.632 49.0674C61.524 51.366 61.1595 52.9361 60.6285 54.31C60.075 55.7302 59.337 56.9353 58.1355 58.1359C56.9353 59.3374 55.732 60.0772 54.3118 60.6289C52.9375 61.1631 51.366 61.5271 49.0665 61.6324C46.7625 61.7373 46.0285 61.763 40.1618 61.763C34.296 61.763 33.5603 61.7373 31.2562 61.6324C28.9572 61.5271 27.3871 61.1631 26.0128 60.6289C24.593 60.0772 23.3879 59.3374 22.1877 58.1359C20.9867 56.9353 20.2487 55.7302 19.6965 54.3095C19.1628 52.9361 18.7988 51.3665 18.693 49.067C18.5886 46.7629 18.5625 46.029 18.5625 40.1627C18.5625 34.2965 18.5895 33.5598 18.6926 31.2558C18.7961 28.9572 19.1606 27.3871 19.6961 26.0132C20.2496 24.593 20.9876 23.3879 22.1891 22.1873C23.3897 20.9862 24.5948 20.2482 26.0155 19.6965C27.3889 19.1624 28.9585 18.7983 31.258 18.693ZM40.1612 18.5625C40.1623 18.5625 40.1634 18.5625 40.1645 18.5625H40.1578C40.1589 18.5625 40.16 18.5625 40.1612 18.5625Z" fill="white"/>
<path fill-rule="evenodd" clip-rule="evenodd" d="M38.5644 22.7925C38.9406 22.7919 39.3454 22.7921 39.7822 22.7923L40.5021 22.7925C46.2694 22.7925 46.9529 22.8132 49.2304 22.9167C51.3364 23.013 52.4794 23.3649 53.2409 23.6606C54.2489 24.0521 54.9675 24.5201 55.7231 25.2761C56.4791 26.0321 56.9471 26.7521 57.3395 27.7601C57.6351 28.5206 57.9875 29.6636 58.0834 31.7697C58.1869 34.0467 58.2094 34.7307 58.2094 40.4952C58.2094 46.2598 58.1869 46.9438 58.0834 49.2208C57.987 51.3269 57.6351 52.4699 57.3395 53.2304C56.948 54.2384 56.4791 54.9561 55.7231 55.7117C54.9671 56.4677 54.2493 56.9357 53.2409 57.3272C52.4803 57.6242 51.3364 57.9752 49.2304 58.0715C46.9534 58.175 46.2694 58.1975 40.5021 58.1975C34.7344 58.1975 34.0509 58.175 31.7738 58.0715C29.6678 57.9743 28.5248 57.6224 27.7629 57.3268C26.7549 56.9353 26.0349 56.4673 25.2789 55.7113C24.5229 54.9552 24.0549 54.237 23.6625 53.2286C23.3668 52.4681 23.0145 51.3251 22.9186 49.219C22.8151 46.942 22.7944 46.258 22.7944 40.4898C22.7944 34.7217 22.8151 34.0413 22.9186 31.7643C23.0149 29.6582 23.3668 28.5152 23.6625 27.7538C24.054 26.7458 24.5229 26.0258 25.2789 25.2698C26.0349 24.5138 26.7549 24.0458 27.7629 23.6534C28.5243 23.3564 29.6678 23.0054 31.7738 22.9086C33.7664 22.8186 34.5387 22.7916 38.5644 22.7871V22.7925ZM52.0321 26.379C50.6011 26.379 49.4401 27.5387 49.4401 28.9702C49.4401 30.4012 50.6011 31.5622 52.0321 31.5622C53.4632 31.5622 54.6242 30.4012 54.6242 28.9702C54.6242 27.5392 53.4632 26.3781 52.0321 26.3781V26.379ZM29.4095 40.5002C29.4095 34.3744 34.376 29.4078 40.5017 29.4076C46.6276 29.4076 51.5929 34.3743 51.5929 40.5002C51.5929 46.6261 46.628 51.5906 40.5021 51.5906C34.3762 51.5906 29.4095 46.6261 29.4095 40.5002Z" fill="white"/>
<path d="M40.5021 33.3002C44.4783 33.3002 47.7022 36.5236 47.7022 40.5002C47.7022 44.4765 44.4783 47.7003 40.5021 47.7003C36.5254 47.7003 33.302 44.4765 33.302 40.5002C33.302 36.5236 36.5254 33.3002 40.5021 33.3002Z" fill="white"/>
</svg>
