<svg width="81" height="81" viewBox="0 0 81 81" fill="none" xmlns="http://www.w3.org/2000/svg">
<g clip-path="url(#clip0_88_1791)">
<path d="M48.3107 48.3107C41.9464 54.8775 41.4836 63.0643 40.9339 81C57.6546 81 69.1971 80.9421 75.1564 75.1564C80.9421 69.1971 81 57.105 81 40.9339C63.0643 41.5125 54.8775 41.9464 48.3107 48.3107ZM0 40.9339C0 57.105 0.0578571 69.1971 5.84357 75.1564C11.8029 80.9421 23.3454 81 40.0661 81C39.4875 63.0643 39.0536 54.8775 32.6893 48.3107C26.1225 41.9464 17.9357 41.4836 0 40.9339ZM40.0661 0C23.3743 0 11.8029 0.0578571 5.84357 5.84357C0.0578571 11.8029 0 23.895 0 40.0661C17.9357 39.4875 26.1225 39.0536 32.6893 32.6893C39.0536 26.1225 39.5164 17.9357 40.0661 0ZM48.3107 32.6893C41.9464 26.1225 41.4836 17.9357 40.9339 0C57.6546 0 69.1971 0.0578571 75.1564 5.84357C80.9421 11.8029 81 23.895 81 40.0661C63.0643 39.4875 54.8775 39.0536 48.3107 32.6893Z" fill="white"/>
</g>
<defs>
<clipPath id="clip0_88_1791">
<rect width="81" height="81" rx="40.5" fill="white"/>
</clipPath>
</defs>
</svg>
