<svg width="81" height="81" viewBox="0 0 81 81" fill="none" xmlns="http://www.w3.org/2000/svg">
<path fill-rule="evenodd" clip-rule="evenodd" d="M0 40.5C0 62.8675 18.1325 81 40.5 81C62.8675 81 81 62.8675 81 40.5C81 18.1325 62.8675 0 40.5 0C18.1325 0 0 18.1325 0 40.5ZM65.9174 38.95C65.912 52.2252 55.1129 63.027 41.8349 63.0324H41.825C37.7944 63.031 33.834 62.0197 30.3165 60.1011L17.55 63.45L20.9665 50.9707C18.859 47.3184 17.7501 43.1755 17.7519 38.931C17.7572 25.6529 28.5606 14.85 41.8347 14.85C48.2771 14.8528 54.3237 17.3608 58.8705 21.9129C63.4173 26.4648 65.9199 32.5153 65.9174 38.95Z" fill="white"/>
<path fill-rule="evenodd" clip-rule="evenodd" d="M23.3321 57.7286L30.9079 55.7413L31.6388 56.1751C34.7121 57.9988 38.2349 58.9638 41.8267 58.9652H41.8348C52.8673 58.9652 61.8466 49.9857 61.851 38.9486C61.8531 33.6002 59.7731 28.5712 55.9939 24.7877C52.2148 21.0041 47.1891 18.9195 41.8427 18.9176C30.8017 18.9176 21.8223 27.8962 21.8179 38.9324C21.8163 42.7146 22.8746 46.398 24.8783 49.5849L25.3542 50.3422L23.3321 57.7286ZM53.1433 44.135C53.563 44.3378 53.8464 44.4748 53.9674 44.6768C54.1178 44.9277 54.1178 46.1325 53.6166 47.5383C53.115 48.9439 50.711 50.2267 49.5548 50.3994C48.5182 50.5544 47.2062 50.6191 45.7648 50.161C44.8908 49.8837 43.77 49.5134 42.3344 48.8934C36.6932 46.4576 32.8809 40.99 32.1604 39.9567C32.1099 39.8843 32.0746 39.8336 32.0549 39.8073L32.05 39.8009C31.7316 39.376 29.5978 36.529 29.5978 33.5825C29.5978 30.8108 30.9594 29.3579 31.5861 28.6892C31.629 28.6434 31.6685 28.6013 31.7039 28.5626C32.2554 27.9602 32.9074 27.8096 33.3085 27.8096C33.7096 27.8096 34.1112 27.8133 34.4618 27.8309C34.5051 27.8331 34.5501 27.8328 34.5966 27.8325C34.9472 27.8305 35.3844 27.8279 35.8157 28.8638C35.9816 29.2625 36.2244 29.8536 36.4804 30.4769C36.9982 31.7375 37.5703 33.1303 37.671 33.3318C37.8214 33.6331 37.9217 33.9843 37.7211 34.3861C37.691 34.4463 37.6632 34.5032 37.6366 34.5575C37.4859 34.8651 37.3751 35.0913 37.1194 35.3899C37.0189 35.5073 36.9149 35.6338 36.811 35.7604C36.604 36.0125 36.397 36.2646 36.2168 36.4441C35.9155 36.7442 35.6019 37.0697 35.953 37.6722C36.304 38.2746 37.5116 40.245 39.3005 41.8407C41.2234 43.5559 42.8947 44.2808 43.7419 44.6483C43.9073 44.72 44.0413 44.7782 44.1396 44.8274C44.7411 45.1287 45.0922 45.0783 45.4432 44.6768C45.7942 44.2752 46.9474 42.9196 47.3485 42.3173C47.7496 41.7151 48.1509 41.8154 48.7024 42.0161C49.2541 42.2171 52.2125 43.6727 52.8142 43.9739C52.9317 44.0327 53.0415 44.0858 53.1433 44.135Z" fill="white"/>
</svg>
