<svg width="81" height="81" viewBox="0 0 81 81" fill="none" xmlns="http://www.w3.org/2000/svg">
<path fill-rule="evenodd" clip-rule="evenodd" d="M40.5 0C18.1325 0 0 18.1325 0 40.5C0 62.8675 18.1325 81 40.5 81C62.8675 81 81 62.8675 81 40.5C81 18.1325 62.8675 0 40.5 0ZM16.875 40.433C16.875 27.4431 27.4729 16.875 40.4997 16.875C53.5264 16.875 64.1245 27.4431 64.1245 40.433C64.1245 42.2732 63.9709 43.7629 63.6268 45.2582L63.6218 45.283C63.6209 45.2875 63.4501 45.9767 63.3558 46.2775C62.772 48.1396 61.7149 49.6906 60.2985 50.7626C58.9252 51.8023 57.2222 52.3751 55.5036 52.3751C55.2913 52.3751 55.0775 52.3665 54.8681 52.3497C52.4276 52.1544 50.2817 50.8737 48.9659 48.8316C46.7027 51.1008 43.7001 52.3493 40.4997 52.3493C33.9105 52.3493 28.5498 47.0037 28.5498 40.433C28.5498 33.8624 33.9105 28.517 40.4997 28.517C47.0888 28.517 52.4495 33.8624 52.4495 40.433V44.2742C52.4594 46.5155 53.9677 47.4317 55.2562 47.5354C56.5382 47.634 58.2443 46.8894 58.8387 44.459C59.1319 43.1261 59.2808 41.7712 59.2808 40.433C59.2808 30.1062 50.8556 21.7048 40.4997 21.7048C30.1437 21.7048 21.7186 30.1062 21.7186 40.433C21.7186 50.7597 30.1437 59.1612 40.4997 59.1612C44.1045 59.1612 47.6104 58.1346 50.6384 56.1922L50.6926 56.1573L53.8753 59.8471L53.807 59.8938C49.8739 62.5743 45.2722 63.9912 40.4997 63.9912C27.4729 63.9912 16.875 53.423 16.875 40.433Z" fill="white"/>
<path fill-rule="evenodd" clip-rule="evenodd" d="M47.6059 40.4329C47.6059 44.3404 44.4181 47.5193 40.4997 47.5193C36.5813 47.5193 33.3936 44.3404 33.3936 40.4329C33.3936 36.5257 36.5813 33.3469 40.4997 33.3469C44.4181 33.3469 47.6059 36.5257 47.6059 40.4329Z" fill="white"/>
</svg>
