<svg width="81" height="81" viewBox="0 0 81 81" fill="none" xmlns="http://www.w3.org/2000/svg">
<path fill-rule="evenodd" clip-rule="evenodd" d="M40.5 0C18.1325 0 0 18.1325 0 40.5C0 62.8675 18.1325 81 40.5 81C62.8675 81 81 62.8675 81 40.5C81 18.1325 62.8675 0 40.5 0ZM57.3777 26.577C59.2365 27.0871 60.7004 28.59 61.1972 30.4986C62.1 33.9576 62.1 41.175 62.1 41.175C62.1 41.175 62.1 48.3921 61.1972 51.8514C60.7004 53.76 59.2365 55.2629 57.3777 55.7733C54.0091 56.7 40.5 56.7 40.5 56.7C40.5 56.7 26.9909 56.7 23.6221 55.7733C21.7632 55.2629 20.2993 53.76 19.8025 51.8514C18.9 48.3921 18.9 41.175 18.9 41.175C18.9 41.175 18.9 33.9576 19.8025 30.4986C20.2993 28.59 21.7632 27.0871 23.6221 26.577C26.9909 25.65 40.5 25.65 40.5 25.65C40.5 25.65 54.0091 25.65 57.3777 26.577Z" fill="white"/>
<path d="M36.45 48.6V35.1L47.25 41.8502L36.45 48.6Z" fill="white"/>
</svg>
