<svg width="81" height="81" viewBox="0 0 81 81" fill="none" xmlns="http://www.w3.org/2000/svg">
<path d="M40.5 81C18.1325 81 0 62.8675 0 40.5C0 18.1325 18.1325 0 40.5 0C62.8675 0 81 18.1325 81 40.5C80.9754 62.8574 62.8574 80.9754 40.5 81ZM23.1944 51.7874C22.6719 51.7904 22.1515 51.8529 21.6432 51.9737L21.0357 52.1397L18.63 56.2585C17.7174 57.7808 18.1577 59.7512 19.6315 60.7401C21.1052 61.7291 23.0955 61.3898 24.1583 59.9684L24.4094 59.5917L27.6089 54.0392C26.5576 52.6332 24.9093 51.8 23.1539 51.7874H23.1944ZM45.4046 26.973C44.1445 28.1567 43.309 29.7223 43.0272 31.428C42.5757 33.78 43.0083 36.2159 44.2422 38.2685L56.5542 59.5958C57.1556 60.6126 58.2483 61.2375 59.4297 61.2401C59.9365 61.2385 60.4363 61.1221 60.8918 60.8998C62.4531 60.1298 63.1588 58.2878 62.5118 56.6717L62.3133 56.2667L59.0733 50.6331H63.8928C65.644 50.6184 67.0852 49.2511 67.1919 47.5031C67.2985 45.755 66.0342 44.2226 64.2978 43.9952L63.8928 43.9709H55.2258L46.3401 28.5809L45.4127 26.9609L45.4046 26.973ZM17.253 43.9425C16.8238 43.943 16.3988 44.0269 16.0016 44.1896C15.599 44.3576 15.2331 44.6025 14.9243 44.9105C14.3003 45.536 13.9506 46.384 13.9522 47.2676C13.9528 48.9458 15.1996 50.3625 16.8642 50.5764L17.2692 50.5967H47.5632C48.2428 49.2304 48.2172 47.6192 47.4944 46.2753C46.8786 45.0153 45.6729 44.1472 44.2827 43.9627L43.7927 43.9385H33.4611L47.7495 19.197C48.1896 18.43 48.309 17.5203 48.0816 16.6658C47.8554 15.8097 47.2952 15.0801 46.5264 14.6407C45.0805 13.8082 43.2419 14.1714 42.2213 15.4913L41.9701 15.8639L40.5 18.4316L39.0461 15.8639C38.4446 14.847 37.352 14.2222 36.1706 14.2196C35.6625 14.2214 35.1614 14.3377 34.7045 14.5598C33.1441 15.3328 32.4391 17.1746 33.0844 18.792L33.2829 19.197L36.6444 25.11L25.7702 43.9425H17.253Z" fill="white"/>
</svg>
