<svg width="315" height="321" viewBox="0 0 315 321" fill="none" xmlns="http://www.w3.org/2000/svg">
<path d="M291.353 205.327C291.307 205.733 291.02 206.071 290.626 206.18L115.987 254.691C115.35 254.868 114.719 254.389 114.719 253.727V190.397C114.719 189.954 115.01 189.564 115.435 189.438L235.051 153.877C235.44 153.761 235.721 153.421 235.761 153.018L248.71 23.5352C248.748 23.1485 249.008 22.8192 249.374 22.6908L312.665 0.538971C313.36 0.295746 314.071 0.861496 313.99 1.59326L291.353 205.327Z" fill="url(#paint0_linear_405_6473)" fill-opacity="0.04"/>
<path d="M23.0938 115.115C23.1389 114.709 23.4264 114.371 23.82 114.261L198.459 65.7506C199.096 65.5736 199.727 66.0528 199.727 66.7141V130.045C199.727 130.487 199.436 130.877 199.012 131.003L79.3949 166.565C79.0058 166.681 78.7252 167.02 78.6848 167.424L65.7366 296.906C65.698 297.293 65.4387 297.622 65.0719 297.751L1.78095 319.902C1.08602 320.146 0.375408 319.58 0.456715 318.848L23.0938 115.115Z" fill="url(#paint1_linear_405_6473)" fill-opacity="0.04"/>
<defs>
<linearGradient id="paint0_linear_405_6473" x1="208.613" y1="192.046" x2="209.237" y2="64.3" gradientUnits="userSpaceOnUse">
<stop stop-color="white"/>
<stop offset="1" stop-color="#2E64B6"/>
</linearGradient>
<linearGradient id="paint1_linear_405_6473" x1="105.833" y1="128.395" x2="105.209" y2="256.141" gradientUnits="userSpaceOnUse">
<stop stop-color="white"/>
<stop offset="1" stop-color="#2E64B6"/>
</linearGradient>
</defs>
</svg>
