<svg width="160" height="50" viewBox="0 0 160 50" fill="none" xmlns="http://www.w3.org/2000/svg">
<path d="M60.7551 24.3393C59.8112 24.3393 59.0225 24.1371 58.3888 23.7326C57.7685 23.3281 57.2966 22.7686 56.973 22.054C56.6494 21.3393 56.4607 20.5101 56.4067 19.5663L58.4292 19.0202C58.4697 19.6 58.5573 20.1596 58.6921 20.6989C58.8404 21.2382 59.0764 21.6832 59.4 22.0337C59.7236 22.3708 60.1753 22.5393 60.7551 22.5393C61.3483 22.5393 61.7933 22.3776 62.0899 22.054C62.4 21.7169 62.5551 21.2382 62.5551 20.618C62.5551 19.8764 62.3865 19.2832 62.0494 18.8382C61.7124 18.3798 61.2876 17.9214 60.7753 17.4629L58.0247 15.036C57.4854 14.5641 57.0876 14.0517 56.8315 13.4989C56.5753 12.9326 56.4472 12.2382 56.4472 11.4158C56.4472 10.2158 56.791 9.28541 57.4786 8.62474C58.1663 7.96407 59.1034 7.63373 60.2899 7.63373C60.9371 7.63373 61.5034 7.72137 61.9888 7.89665C62.4876 8.05845 62.8989 8.31463 63.2225 8.66519C63.5595 9.01575 63.8225 9.46069 64.0112 10C64.2135 10.5259 64.3483 11.1461 64.4157 11.8607L62.4742 12.3865C62.4337 11.8472 62.3528 11.3551 62.2315 10.9101C62.1101 10.4517 61.8944 10.0877 61.5843 9.818C61.2876 9.53485 60.8562 9.39328 60.2899 9.39328C59.7236 9.39328 59.2786 9.54834 58.9551 9.85845C58.6449 10.1551 58.4899 10.6 58.4899 11.1933C58.4899 11.6922 58.5708 12.1034 58.7326 12.427C58.9079 12.7506 59.1843 13.0809 59.5618 13.418L62.3326 15.845C62.9528 16.3843 63.4989 17.0315 63.9708 17.7865C64.4427 18.5281 64.6786 19.4113 64.6786 20.436C64.6786 21.245 64.5101 21.9461 64.173 22.5393C63.836 23.1191 63.3708 23.5641 62.7775 23.8742C62.1977 24.1843 61.5236 24.3393 60.7551 24.3393Z" fill="#1E1E1E"/>
<path d="M69.3841 24.3191C68.7773 24.3191 68.2852 24.2045 67.9077 23.9753C67.5436 23.7461 67.2739 23.4225 67.0987 23.0045C66.9369 22.5865 66.856 22.0944 66.856 21.5281V13.9034H65.6223V12.4674H66.856V9.04946H69.02V12.4674H70.9009V13.9034H69.02V21.3865C69.02 21.845 69.0942 22.1753 69.2425 22.3776C69.3908 22.5663 69.6739 22.6607 70.0919 22.6607C70.1998 22.6607 70.3211 22.654 70.456 22.6405C70.6043 22.627 70.7459 22.6135 70.8807 22.6V24.1978C70.611 24.2382 70.3616 24.2652 70.1324 24.2787C69.9032 24.3056 69.6537 24.3191 69.3841 24.3191Z" fill="#1E1E1E"/>
<path d="M75.7066 24.3191C74.8437 24.3191 74.1628 24.1438 73.664 23.7933C73.1651 23.4427 72.8078 22.9438 72.592 22.2967C72.3898 21.6495 72.2887 20.8877 72.2887 20.0113V16.6135C72.2887 15.7371 72.3898 14.9753 72.592 14.3281C72.8078 13.6809 73.1651 13.182 73.664 12.8315C74.1628 12.4809 74.8437 12.3056 75.7066 12.3056C76.5696 12.3056 77.2437 12.4809 77.7291 12.8315C78.228 13.182 78.5786 13.6809 78.7808 14.3281C78.9965 14.9753 79.1044 15.7371 79.1044 16.6135V20.0113C79.1044 20.8877 78.9965 21.6495 78.7808 22.2967C78.5786 22.9438 78.228 23.4427 77.7291 23.7933C77.2437 24.1438 76.5696 24.3191 75.7066 24.3191ZM75.7066 22.7214C76.1246 22.7214 76.4145 22.6 76.5763 22.3573C76.7516 22.1146 76.8527 21.7978 76.8797 21.4068C76.9201 21.0023 76.9404 20.5843 76.9404 20.1528V16.4922C76.9404 16.0472 76.9201 15.6292 76.8797 15.2382C76.8527 14.8472 76.7516 14.5304 76.5763 14.2877C76.4145 14.0315 76.1246 13.9034 75.7066 13.9034C75.2887 13.9034 74.992 14.0315 74.8168 14.2877C74.6415 14.5304 74.5336 14.8472 74.4932 15.2382C74.4662 15.6292 74.4527 16.0472 74.4527 16.4922V20.1528C74.4527 20.5843 74.4662 21.0023 74.4932 21.4068C74.5336 21.7978 74.6415 22.1146 74.8168 22.3573C74.992 22.6 75.2887 22.7214 75.7066 22.7214Z" fill="#1E1E1E"/>
<path d="M81.0825 28V12.4674H83.2465V13.3978C83.5027 13.1011 83.8128 12.845 84.1769 12.6292C84.5409 12.4135 84.9724 12.3056 85.4712 12.3056C86.078 12.3056 86.5566 12.4674 86.9072 12.791C87.2712 13.1011 87.5409 13.4989 87.7162 13.9843C87.8915 14.4562 88.0061 14.9416 88.06 15.4405C88.1139 15.9259 88.1409 16.3438 88.1409 16.6944V19.5259C88.1409 20.3483 88.06 21.1304 87.8982 21.8719C87.7364 22.6 87.4398 23.1933 87.0083 23.6517C86.5903 24.0967 85.9971 24.3191 85.2285 24.3191C84.8106 24.3191 84.4398 24.218 84.1162 24.0158C83.7926 23.8 83.5027 23.5573 83.2465 23.2877V28H81.0825ZM84.8038 22.6202C85.1814 22.6202 85.451 22.4854 85.6128 22.2158C85.7746 21.9326 85.8757 21.5551 85.9162 21.0832C85.9566 20.6113 85.9769 20.0922 85.9769 19.5259V16.6944C85.9769 16.209 85.9499 15.7641 85.896 15.3596C85.842 14.9416 85.7274 14.6113 85.5521 14.3686C85.3769 14.1259 85.1005 14.0045 84.7229 14.0045C84.4398 14.0045 84.1701 14.0652 83.9139 14.1865C83.6578 14.3079 83.4353 14.4495 83.2465 14.6113V22.0944C83.4488 22.2427 83.678 22.3708 83.9342 22.4787C84.1903 22.5731 84.4802 22.6202 84.8038 22.6202Z" fill="#1E1E1E"/>
<path d="M81.0496 44.382V28H84.6091C85.8226 28 86.7799 28.1888 87.481 28.5663C88.1956 28.9303 88.7012 29.4831 88.9979 30.2247C89.308 30.9663 89.463 31.8899 89.463 32.9955V39.0225C89.463 40.182 89.308 41.1596 88.9979 41.9551C88.7012 42.7506 88.2091 43.3573 87.5215 43.7753C86.8473 44.1798 85.9372 44.382 84.7911 44.382H81.0496ZM83.335 42.7438H84.6293C85.4653 42.7438 86.0585 42.582 86.4091 42.2584C86.7597 41.9348 86.9687 41.4629 87.0361 40.8427C87.117 40.2225 87.1574 39.4742 87.1574 38.5978V33.2787C87.1574 32.4292 87.1035 31.7416 86.9956 31.2157C86.8878 30.6899 86.6518 30.3056 86.2878 30.0629C85.9237 29.8202 85.3507 29.6989 84.5687 29.6989H83.335V42.7438Z" fill="#1E1E1E"/>
<path d="M94.7689 44.5438C93.852 44.5438 93.1442 44.3685 92.6453 44.018C92.1464 43.6539 91.7958 43.1281 91.5936 42.4405C91.4048 41.7393 91.3104 40.8831 91.3104 39.8719V37.2022C91.3104 36.164 91.4116 35.3011 91.6138 34.6135C91.8161 33.9258 92.1666 33.4067 92.6655 33.0562C93.1779 32.7056 93.879 32.5303 94.7689 32.5303C95.7531 32.5303 96.4745 32.7326 96.9329 33.1371C97.4048 33.5416 97.7149 34.1281 97.8633 34.8966C98.0116 35.6517 98.0857 36.5618 98.0857 37.627V38.5775H93.4745V40.9236C93.4745 41.3955 93.5149 41.7798 93.5958 42.0764C93.6902 42.373 93.8318 42.5955 94.0206 42.7438C94.2228 42.8787 94.479 42.9461 94.7891 42.9461C95.1127 42.9461 95.3554 42.8719 95.5172 42.7236C95.6925 42.5618 95.8071 42.3393 95.861 42.0562C95.9284 41.7596 95.9621 41.4157 95.9621 41.0247V40.3169H98.0655V40.7618C98.0655 41.9348 97.8161 42.8584 97.3172 43.5326C96.8183 44.2067 95.9689 44.5438 94.7689 44.5438ZM93.4745 37.4045H95.9621V36.3528C95.9621 35.8674 95.9352 35.4629 95.8812 35.1393C95.8273 34.8022 95.7127 34.5528 95.5374 34.391C95.3756 34.2157 95.1127 34.1281 94.7486 34.1281C94.3981 34.1281 94.1284 34.209 93.9397 34.3708C93.7644 34.5326 93.643 34.809 93.5756 35.2C93.5082 35.5775 93.4745 36.1034 93.4745 36.7775V37.4045Z" fill="#1E1E1E"/>
<path d="M100.045 48.2247V32.6921H102.21V33.6225C102.466 33.3258 102.776 33.0697 103.14 32.8539C103.504 32.6382 103.935 32.5303 104.434 32.5303C105.041 32.5303 105.52 32.6921 105.87 33.0157C106.234 33.3258 106.504 33.7236 106.679 34.209C106.854 34.6809 106.969 35.1663 107.023 35.6652C107.077 36.1506 107.104 36.5685 107.104 36.9191V39.7506C107.104 40.573 107.023 41.3551 106.861 42.0966C106.699 42.8247 106.403 43.418 105.971 43.8764C105.553 44.3213 104.96 44.5438 104.192 44.5438C103.774 44.5438 103.403 44.4427 103.079 44.2404C102.756 44.0247 102.466 43.782 102.21 43.5124V48.2247H100.045ZM103.767 42.8449C104.144 42.8449 104.414 42.7101 104.576 42.4405C104.738 42.1573 104.839 41.7798 104.879 41.3079C104.92 40.836 104.94 40.3169 104.94 39.7506V36.9191C104.94 36.4337 104.913 35.9888 104.859 35.5843C104.805 35.1663 104.69 34.836 104.515 34.5933C104.34 34.3506 104.063 34.2292 103.686 34.2292C103.403 34.2292 103.133 34.2899 102.877 34.4112C102.621 34.5326 102.398 34.6742 102.21 34.836V42.3191C102.412 42.4674 102.641 42.5955 102.897 42.7034C103.153 42.7978 103.443 42.8449 103.767 42.8449Z" fill="#1E1E1E"/>
<path d="M109.132 44.382V32.6921H111.296V34.3506C111.728 33.636 112.159 33.1573 112.591 32.9146C113.022 32.6719 113.454 32.5506 113.885 32.5506C113.939 32.5506 113.986 32.5506 114.027 32.5506C114.081 32.5506 114.148 32.5573 114.229 32.5708V34.9573C114.067 34.8899 113.878 34.836 113.663 34.7955C113.46 34.7416 113.251 34.7146 113.036 34.7146C112.699 34.7146 112.388 34.7955 112.105 34.9573C111.836 35.1056 111.566 35.4022 111.296 35.8472V44.382H109.132Z" fill="#1E1E1E"/>
<path d="M118.805 44.5438C117.889 44.5438 117.181 44.3685 116.682 44.018C116.183 43.6539 115.832 43.1281 115.63 42.4405C115.441 41.7393 115.347 40.8831 115.347 39.8719V37.2022C115.347 36.164 115.448 35.3011 115.65 34.6135C115.853 33.9258 116.203 33.4067 116.702 33.0562C117.214 32.7056 117.916 32.5303 118.805 32.5303C119.79 32.5303 120.511 32.7326 120.97 33.1371C121.441 33.5416 121.752 34.1281 121.9 34.8966C122.048 35.6517 122.122 36.5618 122.122 37.627V38.5775H117.511V40.9236C117.511 41.3955 117.552 41.7798 117.632 42.0764C117.727 42.373 117.868 42.5955 118.057 42.7438C118.259 42.8787 118.516 42.9461 118.826 42.9461C119.149 42.9461 119.392 42.8719 119.554 42.7236C119.729 42.5618 119.844 42.3393 119.898 42.0562C119.965 41.7596 119.999 41.4157 119.999 41.0247V40.3169H122.102V40.7618C122.102 41.9348 121.853 42.8584 121.354 43.5326C120.855 44.2067 120.005 44.5438 118.805 44.5438ZM117.511 37.4045H119.999V36.3528C119.999 35.8674 119.972 35.4629 119.918 35.1393C119.864 34.8022 119.749 34.5528 119.574 34.391C119.412 34.2157 119.149 34.1281 118.785 34.1281C118.435 34.1281 118.165 34.209 117.976 34.3708C117.801 34.5326 117.68 34.809 117.612 35.2C117.545 35.5775 117.511 36.1034 117.511 36.7775V37.4045Z" fill="#1E1E1E"/>
<path d="M126.792 44.5438C125.835 44.5438 125.066 44.2472 124.487 43.6539C123.907 43.0472 123.576 42.2517 123.496 41.2674L125.296 40.7213C125.403 41.4629 125.585 42.0225 125.842 42.4C126.098 42.764 126.475 42.9461 126.974 42.9461C127.365 42.9461 127.662 42.8382 127.864 42.6225C128.066 42.3933 128.167 42.0899 128.167 41.7124C128.167 41.3753 128.093 41.0719 127.945 40.8022C127.797 40.5326 127.554 40.2562 127.217 39.973L125.215 38.2539C124.81 37.9034 124.466 37.5124 124.183 37.0809C123.914 36.6494 123.779 36.0899 123.779 35.4022C123.779 34.782 123.9 34.2629 124.143 33.8449C124.399 33.4135 124.749 33.0899 125.194 32.8742C125.653 32.6449 126.185 32.5303 126.792 32.5303C127.723 32.5303 128.43 32.8337 128.916 33.4405C129.415 34.0337 129.698 34.7551 129.765 35.6045L128.309 36.1506C128.255 35.7461 128.174 35.3955 128.066 35.0989C127.958 34.7888 127.81 34.5528 127.621 34.391C127.433 34.2157 127.183 34.1281 126.873 34.1281C126.523 34.1281 126.239 34.2494 126.024 34.4921C125.821 34.7213 125.72 34.9978 125.72 35.3213C125.72 35.5236 125.761 35.7258 125.842 35.9281C125.936 36.1169 126.091 36.3056 126.307 36.4944L128.37 38.3955C128.653 38.6517 128.916 38.9281 129.158 39.2247C129.415 39.5213 129.624 39.8584 129.785 40.236C129.947 40.6135 130.028 41.0517 130.028 41.5506C130.028 42.2112 129.893 42.764 129.624 43.209C129.354 43.6539 128.976 43.991 128.491 44.2202C128.006 44.436 127.439 44.5438 126.792 44.5438Z" fill="#1E1E1E"/>
<path d="M134.357 44.5438C133.399 44.5438 132.631 44.2472 132.051 43.6539C131.471 43.0472 131.141 42.2517 131.06 41.2674L132.86 40.7213C132.968 41.4629 133.15 42.0225 133.406 42.4C133.662 42.764 134.04 42.9461 134.539 42.9461C134.93 42.9461 135.226 42.8382 135.429 42.6225C135.631 42.3933 135.732 42.0899 135.732 41.7124C135.732 41.3753 135.658 41.0719 135.51 40.8022C135.361 40.5326 135.118 40.2562 134.781 39.973L132.779 38.2539C132.375 37.9034 132.031 37.5124 131.748 37.0809C131.478 36.6494 131.343 36.0899 131.343 35.4022C131.343 34.782 131.465 34.2629 131.707 33.8449C131.963 33.4135 132.314 33.0899 132.759 32.8742C133.217 32.6449 133.75 32.5303 134.357 32.5303C135.287 32.5303 135.995 32.8337 136.48 33.4405C136.979 34.0337 137.262 34.7551 137.33 35.6045L135.874 36.1506C135.82 35.7461 135.739 35.3955 135.631 35.0989C135.523 34.7888 135.375 34.5528 135.186 34.391C134.997 34.2157 134.748 34.1281 134.438 34.1281C134.087 34.1281 133.804 34.2494 133.588 34.4921C133.386 34.7213 133.285 34.9978 133.285 35.3213C133.285 35.5236 133.325 35.7258 133.406 35.9281C133.501 36.1169 133.656 36.3056 133.871 36.4944L135.934 38.3955C136.217 38.6517 136.48 38.9281 136.723 39.2247C136.979 39.5213 137.188 39.8584 137.35 40.236C137.512 40.6135 137.593 41.0517 137.593 41.5506C137.593 42.2112 137.458 42.764 137.188 43.209C136.919 43.6539 136.541 43.991 136.056 44.2202C135.57 44.436 135.004 44.5438 134.357 44.5438Z" fill="#1E1E1E"/>
<path d="M139.353 44.382V32.6921H141.517V44.382H139.353ZM139.353 30.9528V28.6876H141.517V30.9528H139.353Z" fill="#1E1E1E"/>
<path d="M147.049 44.5438C146.186 44.5438 145.505 44.3685 145.006 44.018C144.507 43.6674 144.15 43.1685 143.934 42.5213C143.732 41.8742 143.631 41.1124 143.631 40.236V36.8382C143.631 35.9618 143.732 35.2 143.934 34.5528C144.15 33.9056 144.507 33.4067 145.006 33.0562C145.505 32.7056 146.186 32.5303 147.049 32.5303C147.911 32.5303 148.586 32.7056 149.071 33.0562C149.57 33.4067 149.92 33.9056 150.123 34.5528C150.338 35.2 150.446 35.9618 150.446 36.8382V40.236C150.446 41.1124 150.338 41.8742 150.123 42.5213C149.92 43.1685 149.57 43.6674 149.071 44.018C148.586 44.3685 147.911 44.5438 147.049 44.5438ZM147.049 42.9461C147.466 42.9461 147.756 42.8247 147.918 42.582C148.093 42.3393 148.195 42.0225 148.222 41.6315C148.262 41.227 148.282 40.809 148.282 40.3775V36.7169C148.282 36.2719 148.262 35.8539 148.222 35.4629C148.195 35.0719 148.093 34.7551 147.918 34.5124C147.756 34.2562 147.466 34.1281 147.049 34.1281C146.631 34.1281 146.334 34.2562 146.159 34.5124C145.983 34.7551 145.875 35.0719 145.835 35.4629C145.808 35.8539 145.795 36.2719 145.795 36.7169V40.3775C145.795 40.809 145.808 41.227 145.835 41.6315C145.875 42.0225 145.983 42.3393 146.159 42.582C146.334 42.8247 146.631 42.9461 147.049 42.9461Z" fill="#1E1E1E"/>
<path d="M152.424 44.382V32.6921H154.588V33.8449C154.979 33.4809 155.411 33.1708 155.883 32.9146C156.355 32.6584 156.874 32.5303 157.44 32.5303C157.912 32.5303 158.269 32.6517 158.512 32.8944C158.768 33.1371 158.943 33.4405 159.038 33.8045C159.146 34.1685 159.2 34.5393 159.2 34.9169V44.382H157.036V35.5438C157.036 35.1258 156.975 34.8022 156.854 34.573C156.732 34.3438 156.483 34.2292 156.105 34.2292C155.863 34.2292 155.606 34.3034 155.337 34.4517C155.081 34.5865 154.831 34.7551 154.588 34.9573V44.382H152.424Z" fill="#1E1E1E"/>
<rect width="50" height="50" rx="25" fill="#FF4005"/>
<path d="M19.0692 19.2729C18.8081 19.2732 18.5521 19.196 18.3299 19.0502C18.1077 18.9043 17.9282 18.6954 17.8115 18.4471C16.9955 16.7118 15.2448 14.73 14.0116 13.7474C13.8641 13.6297 13.7398 13.4822 13.6458 13.3134C13.5518 13.1446 13.4901 12.9578 13.464 12.7636C13.438 12.5694 13.4482 12.3717 13.494 12.1817C13.5398 11.9917 13.6204 11.8132 13.7311 11.6563C13.8418 11.4994 13.9805 11.3672 14.1392 11.2673C14.298 11.1674 14.4737 11.1018 14.6563 11.0741C14.8389 11.0464 15.0249 11.0572 15.2035 11.1059C15.3822 11.1546 15.5502 11.2403 15.6977 11.358C17.1773 12.5385 19.2567 14.8428 20.3248 17.112C20.432 17.3396 20.4826 17.5925 20.472 17.8468C20.4613 18.1011 20.3896 18.3483 20.2638 18.5648C20.138 18.7814 19.9622 18.9601 19.7531 19.084C19.544 19.208 19.3086 19.273 19.0692 19.2729Z" fill="#FF4005"/>
<path d="M19.3839 18.6755C19.1228 18.6758 18.8668 18.5986 18.6446 18.4528C18.4224 18.3069 18.2429 18.098 18.1262 17.8497C17.3102 16.1144 15.5595 14.1326 14.3263 13.15C14.0283 12.9122 13.8313 12.5584 13.7787 12.1662C13.7261 11.7741 13.8222 11.3757 14.0458 11.0589C14.2694 10.742 14.6022 10.5326 14.971 10.4766C15.3398 10.4207 15.7144 10.5228 16.0124 10.7606C17.492 11.9411 19.5714 14.2454 20.6395 16.5146C20.7467 16.7422 20.7974 16.9951 20.7867 17.2494C20.776 17.5037 20.7044 17.7509 20.5785 17.9674C20.4527 18.1839 20.2769 18.3627 20.0678 18.4866C19.8587 18.6105 19.6233 18.6756 19.3839 18.6755Z" fill="white"/>
<path d="M23.2827 20.7663C23.0399 20.7665 22.8011 20.6997 22.5898 20.5725C22.3785 20.4453 22.2018 20.262 22.0769 20.0405C20.5959 17.4159 18.9843 15.7104 15.4428 13.0209C15.1542 12.7849 14.9629 12.4391 14.9093 12.0561C14.8558 11.6732 14.9441 11.2832 15.1556 10.9681C15.3672 10.653 15.6855 10.4376 16.0435 10.3671C16.4015 10.2967 16.7712 10.3767 17.0748 10.5904C20.9281 13.5167 22.7982 15.5133 24.4857 18.5046C24.6135 18.7311 24.6825 18.9896 24.6857 19.2537C24.6889 19.5178 24.6261 19.7781 24.5038 20.008C24.3816 20.238 24.2041 20.4293 23.9896 20.5625C23.775 20.6957 23.5311 20.766 23.2827 20.7663Z" fill="#FF4005"/>
<path d="M23.5974 20.1689C23.3546 20.1691 23.1158 20.1023 22.9045 19.9751C22.6932 19.8479 22.5165 19.6646 22.3916 19.4431C20.9106 16.8185 19.2989 15.113 15.7575 12.4234C15.4689 12.1875 15.2776 11.8416 15.224 11.4587C15.1705 11.0758 15.2588 10.6858 15.4703 10.3707C15.6819 10.0556 16.0002 9.84017 16.3582 9.76971C16.7162 9.69925 17.0859 9.77929 17.3895 9.99296C21.2428 12.9192 23.1129 14.9159 24.8004 17.9071C24.9282 18.1336 24.9972 18.3921 25.0004 18.6563C25.0036 18.9204 24.9408 19.1807 24.8185 19.4106C24.6963 19.6406 24.5188 19.8319 24.3043 19.9651C24.0897 20.0983 23.8458 20.1686 23.5974 20.1689Z" fill="white"/>
<path d="M27.4952 20.3922C27.3107 20.3925 27.128 20.354 26.9576 20.2789C26.7872 20.2038 26.6324 20.0936 26.5022 19.9546C24.5654 17.896 22.3793 15.9949 18.9545 13.3935C18.6578 13.1607 18.4592 12.8132 18.4014 12.4261C18.3436 12.039 18.4313 11.6432 18.6455 11.3242C18.8597 11.0052 19.1833 10.7885 19.5464 10.7209C19.9095 10.6533 20.2831 10.7403 20.5865 10.963C24.1455 13.6667 26.4355 15.6597 28.4882 17.8422C28.6848 18.0511 28.8187 18.3172 28.873 18.607C28.9273 18.8967 28.8995 19.1971 28.7932 19.4701C28.6869 19.7431 28.5069 19.9764 28.2758 20.1406C28.0447 20.3047 27.7731 20.3923 27.4952 20.3922Z" fill="#FF4005"/>
<path d="M27.8096 19.7955C27.6252 19.7958 27.4425 19.7573 27.272 19.6822C27.1016 19.6071 26.9469 19.4969 26.8167 19.358C24.8799 17.2994 22.6938 15.3983 19.2689 12.7968C18.9723 12.564 18.7737 12.2166 18.7159 11.8294C18.6581 11.4423 18.7457 11.0465 18.9599 10.7275C19.1741 10.4085 19.4977 10.1918 19.8609 10.1243C20.224 10.0567 20.5976 10.1436 20.9009 10.3663C24.4599 13.0701 26.7499 15.063 28.8026 17.2456C28.9992 17.4544 29.1331 17.7205 29.1875 18.0103C29.2418 18.3001 29.214 18.6005 29.1077 18.8735C29.0014 19.1465 28.8213 19.3798 28.5902 19.5439C28.3592 19.7081 28.0875 19.7956 27.8096 19.7955Z" fill="white"/>
<path d="M16.3868 19.9827L15.5616 18.4295C15.4511 18.2238 15.3828 17.9956 15.361 17.7599C15.3392 17.5241 15.3645 17.2861 15.4352 17.0615L7.58427 9.36554L4.49438 13.2483L7.58427 15.3391C8.96661 15.7065 9.55578 16.6742 10.4679 17.8381L14.2104 22.6717L14.9626 24.8604C15.0335 25.1121 15.2681 25.3211 15.5652 25.3861C16.5161 25.5698 17.5449 25.0919 17.7289 24.3646C17.9986 22.9017 17.2626 21.3351 16.3868 19.9827Z" fill="#FF4005"/>
<path d="M8.42683 8.34643H10.1122C11.7976 8.34641 12.0202 8.27848 12.9212 8.34643L19.7008 9.52851C20.8793 9.61811 22.0247 9.98028 23.0578 10.5904L26.5882 12.676C27.3972 13.1539 28.2773 13.481 29.1902 13.643L30.7535 13.9201C31.1295 13.9873 31.4681 14.2023 31.7021 14.5224C31.9362 14.8425 32.0486 15.2444 32.0172 15.6485C31.9857 16.0526 31.8127 16.4294 31.5323 16.7042C31.252 16.9791 30.8848 17.1319 30.5034 17.1325C28.7288 17.1325 26.9744 16.7285 25.3592 15.9475L23.3415 14.9722C22.3158 14.4766 21.2042 14.2139 20.0777 14.2009C18.9512 14.1879 17.8345 14.4249 16.7989 14.8968C16.594 14.9898 16.4098 15.1279 16.2587 15.3021C16.1076 15.4762 15.9928 15.6824 15.922 15.9071C15.8512 16.1318 15.826 16.3698 15.848 16.6056C15.87 16.8415 15.9387 17.0696 16.0496 17.2752L16.8804 18.8209C17.589 20.1397 17.825 21.6865 17.5448 23.1759C17.5086 23.3681 17.4362 23.5505 17.3319 23.7121C17.2277 23.8738 17.0937 24.0113 16.9381 24.1165C16.7825 24.2216 16.6086 24.2922 16.4267 24.3239C16.2447 24.3557 16.0587 24.348 15.8796 24.3012C15.6472 24.2407 15.4702 24.0361 15.4042 23.7919L14.8178 21.6122L10.9545 16.6822C10.0423 15.5183 8.8057 14.693 7.42336 14.3255L4.77515 12.651L7.02234 9.66422L8.42683 8.34643Z" fill="white"/>
<path d="M30.5029 17.1318C28.7282 17.1318 26.9738 16.7278 25.3586 15.9467L23.3409 14.9715C22.3153 14.4758 21.2036 14.2131 20.0771 14.2001C18.9506 14.1871 17.8339 14.4242 16.7984 14.8961C16.4807 15.0418 16.217 15.2944 16.0476 15.6152L16.0518 15.6129C17.0873 15.141 18.204 14.904 19.3306 14.917C20.4571 14.93 21.5687 15.1927 22.5944 15.6883L24.6127 16.6636C26.2283 17.4446 27.9824 17.8487 29.757 17.8487C30.3301 17.8487 30.8238 17.5074 31.0829 17.0093C30.8989 17.0898 30.7019 17.1314 30.5029 17.1318Z" fill="#FF4005"/>
<path d="M30.9308 37.919C31.1919 37.9187 31.4479 37.9958 31.6701 38.1417C31.8923 38.2876 32.0718 38.4964 32.1885 38.7448C33.0045 40.4801 34.7552 42.4618 35.9884 43.4445C36.1359 43.5622 36.2602 43.7097 36.3542 43.8784C36.4482 44.0472 36.5099 44.2341 36.536 44.4282C36.562 44.6224 36.5518 44.8202 36.506 45.0101C36.4602 45.2001 36.3796 45.3787 36.2689 45.5356C36.1582 45.6925 36.0195 45.8246 35.8608 45.9245C35.702 46.0244 35.5263 46.0901 35.3437 46.1178C35.1611 46.1455 34.9751 46.1347 34.7965 46.086C34.6178 46.0373 34.4498 45.9516 34.3023 45.8339C32.8227 44.6534 30.7433 42.3491 29.6752 40.0799C29.568 39.8523 29.5174 39.5993 29.528 39.345C29.5387 39.0908 29.6104 38.8436 29.7362 38.6271C29.862 38.4105 30.0378 38.2318 30.2469 38.1078C30.456 37.9839 30.6914 37.9189 30.9308 37.919Z" fill="#FF4005"/>
<path d="M30.6161 38.5163C30.8772 38.5161 31.1332 38.5932 31.3554 38.7391C31.5776 38.885 31.7571 39.0938 31.8738 39.3422C32.6898 41.0775 34.4405 43.0592 35.6737 44.0418C35.9717 44.2796 36.1687 44.6335 36.2213 45.0256C36.2739 45.4178 36.1778 45.8161 35.9542 46.133C35.7306 46.4498 35.3978 46.6592 35.029 46.7152C34.6602 46.7711 34.2856 46.669 33.9876 46.4313C32.508 45.2507 30.4286 42.9464 29.3605 40.6773C29.2533 40.4497 29.2026 40.1967 29.2133 39.9424C29.224 39.6881 29.2956 39.441 29.4215 39.2244C29.5473 39.0079 29.7231 38.8292 29.9322 38.7052C30.1413 38.5813 30.3767 38.5163 30.6161 38.5163Z" fill="white"/>
<path d="M26.7173 36.4256C26.9601 36.4254 27.1989 36.4922 27.4102 36.6194C27.6215 36.7466 27.7982 36.9299 27.9231 37.1514C29.4041 39.776 31.0157 41.4814 34.5572 44.171C34.8458 44.407 35.0371 44.7528 35.0907 45.1357C35.1442 45.5186 35.0559 45.9087 34.8444 46.2238C34.6328 46.5388 34.3145 46.7543 33.9565 46.8247C33.5985 46.8952 33.2288 46.8152 32.9252 46.6015C29.0719 43.6752 27.2018 41.6786 25.5143 38.6873C25.3865 38.4608 25.3175 38.2023 25.3143 37.9382C25.3111 37.6741 25.3739 37.4137 25.4962 37.1838C25.6184 36.9539 25.7959 36.7626 26.0104 36.6294C26.225 36.4962 26.4689 36.4258 26.7173 36.4256Z" fill="#FF4005"/>
<path d="M26.4026 37.023C26.6454 37.0228 26.8842 37.0896 27.0955 37.2168C27.3068 37.344 27.4835 37.5273 27.6084 37.7488C29.0894 40.3734 30.7011 42.0788 34.2425 44.7684C34.5311 45.0044 34.7224 45.3502 34.776 45.7331C34.8295 46.116 34.7412 46.5061 34.5297 46.8212C34.3181 47.1362 33.9998 47.3517 33.6418 47.4222C33.2838 47.4926 32.9141 47.4126 32.6105 47.1989C28.7572 44.2726 26.8871 42.276 25.1996 39.2847C25.0718 39.0582 25.0028 38.7997 24.9996 38.5356C24.9964 38.2715 25.0592 38.0112 25.1815 37.7812C25.3037 37.5513 25.4812 37.36 25.6957 37.2268C25.9103 37.0936 26.1542 37.0233 26.4026 37.023Z" fill="white"/>
<path d="M22.5051 36.7996C22.6895 36.7994 22.8722 36.8379 23.0427 36.913C23.2131 36.9881 23.3678 37.0983 23.498 37.2372C25.4348 39.2958 27.6209 41.1969 31.0458 43.7984C31.3424 44.0312 31.541 44.3786 31.5988 44.7657C31.6566 45.1529 31.569 45.5486 31.3548 45.8677C31.1405 46.1867 30.817 46.4033 30.4538 46.4709C30.0907 46.5385 29.7171 46.4516 29.4138 46.2289C25.8548 43.5251 23.5648 41.5322 21.5121 39.3496C21.3155 39.1408 21.1816 38.8746 21.1272 38.5849C21.0729 38.2951 21.1007 37.9947 21.207 37.7217C21.3133 37.4487 21.4934 37.2154 21.7245 37.0513C21.9555 36.8871 22.2272 36.7996 22.5051 36.7996Z" fill="#FF4005"/>
<path d="M22.1904 37.3963C22.3748 37.396 22.5575 37.4345 22.728 37.5096C22.8984 37.5847 23.0531 37.6949 23.1833 37.8339C25.1201 39.8925 27.3062 41.7936 30.7311 44.395C31.0277 44.6278 31.2263 44.9753 31.2841 45.3624C31.3419 45.7495 31.2543 46.1453 31.0401 46.4643C30.8259 46.7833 30.5023 47 30.1391 47.0676C29.776 47.1351 29.4024 47.0482 29.0991 46.8255C25.5401 44.1217 23.2501 42.1288 21.1974 39.9462C21.0008 39.7374 20.8669 39.4713 20.8125 39.1815C20.7582 38.8918 20.786 38.5914 20.8923 38.3184C20.9986 38.0454 21.1787 37.812 21.4098 37.6479C21.6408 37.4838 21.9125 37.3962 22.1904 37.3963Z" fill="white"/>
<path d="M33.6132 37.2091L34.4384 38.7624C34.5489 38.9681 34.6172 39.1963 34.639 39.432C34.6608 39.6678 34.6355 39.9058 34.5648 40.1304L42.4157 47.8263L45.5056 43.7134L42.4157 41.8528C41.0334 41.4854 40.4442 40.5177 39.5321 39.3538L35.7896 34.5201L35.0374 32.3315C34.9665 32.0798 34.7319 31.8707 34.4348 31.8058C33.4839 31.6221 32.4551 32.1 32.2711 32.8273C32.0014 34.2902 32.7374 35.8568 33.6132 37.2091Z" fill="#FF4005"/>
<path d="M41.5732 48.8454H39.8878C38.2024 48.8455 37.9798 48.9134 37.0788 48.8454L30.2992 47.6634C29.1207 47.5737 27.9753 47.2116 26.9422 46.6015L23.4118 44.5159C22.6028 44.0379 21.7227 43.7109 20.8098 43.5488L19.2465 43.2718C18.8705 43.2045 18.5319 42.9896 18.2979 42.6695C18.0638 42.3494 17.9514 41.9475 17.9828 41.5434C18.0143 41.1393 18.1873 40.7625 18.4677 40.4877C18.748 40.2128 19.1152 40.0599 19.4966 40.0593C21.2712 40.0593 23.0256 40.4633 24.6408 41.2444L26.6585 42.2196C27.6842 42.7153 28.7958 42.978 29.9223 42.991C31.0488 43.004 32.1655 42.767 33.2011 42.2951C33.406 42.2021 33.5902 42.0639 33.7413 41.8898C33.8924 41.7157 34.0072 41.5095 34.078 41.2848C34.1488 41.0601 34.174 40.822 34.152 40.5862C34.13 40.3504 34.0613 40.1222 33.9504 39.9167L33.1196 38.371C32.411 37.0522 32.175 35.5053 32.4552 34.016C32.4914 33.8238 32.5638 33.6414 32.6681 33.4797C32.7723 33.3181 32.9063 33.1805 33.0619 33.0754C33.2175 32.9702 33.3914 32.8997 33.5733 32.8679C33.7553 32.8362 33.9413 32.8439 34.1204 32.8907C34.3528 32.9511 34.5298 33.1557 34.5958 33.3999L35.1822 35.5797L39.0455 40.5096C39.9577 41.6735 41.1943 42.4989 42.5766 42.8663L45.2249 44.5159L43.5395 46.6015L41.5732 48.8454Z" fill="white"/>
<path d="M19.4971 40.0601C21.2718 40.0601 23.0262 40.4641 24.6414 41.2451L26.6591 42.2204C27.6847 42.716 28.7964 42.9788 29.9229 42.9917C31.0494 43.0047 32.1661 42.7677 33.2016 42.2958C33.5193 42.1501 33.783 41.8974 33.9524 41.5767L33.9482 41.5789C32.9127 42.0508 31.796 42.2879 30.6694 42.2749C29.5429 42.2619 28.4313 41.9992 27.4056 41.5035L25.3873 40.5283C23.7717 39.7472 22.0176 39.3431 20.243 39.3432C19.6699 39.3432 19.1762 39.6845 18.9171 40.1825C19.1011 40.102 19.2981 40.0604 19.4971 40.0601Z" fill="#FF4005"/>
</svg>
