<svg width="183" height="141" viewBox="0 0 183 141" fill="none" xmlns="http://www.w3.org/2000/svg">
<g clip-path="url(#clip0_312_46)">
<path d="M94.084 10.1287V9.0577H94.6749C94.9026 9.0577 95.0935 9.01309 95.2473 8.92383C95.4043 8.83458 95.5336 8.71916 95.6351 8.57759C95.7398 8.43602 95.8259 8.2883 95.8936 8.13442L96.0414 7.78355L92.7729 0.544922H94.0101L96.6138 6.41708L98.9959 0.544922H100.215L96.9462 8.46679C96.8169 8.76225 96.6692 9.03617 96.503 9.28854C96.3399 9.5409 96.1168 9.74403 95.8336 9.89791C95.5536 10.0517 95.1735 10.1287 94.6934 10.1287H94.084Z" fill="#F6F6F6"/>
<path d="M101.287 9.99946V8.94692H101.564C101.958 8.94692 102.264 8.82073 102.483 8.56837C102.701 8.316 102.858 7.9082 102.953 7.34499C103.052 6.78178 103.118 6.03545 103.152 5.106L103.318 0.544922H109.08V9.99946H107.935V1.56054H104.408L104.26 5.32759C104.223 6.31859 104.132 7.16187 103.988 7.85742C103.843 8.55297 103.589 9.08387 103.226 9.45011C102.863 9.81635 102.333 9.99946 101.638 9.99946H101.287Z" fill="#F6F6F6"/>
<path d="M112.415 10.0741C112.187 10.0741 111.992 9.99249 111.829 9.82937C111.666 9.66626 111.584 9.47083 111.584 9.24308C111.584 9.01533 111.666 8.8199 111.829 8.65679C111.992 8.49367 112.187 8.41211 112.415 8.41211C112.643 8.41211 112.838 8.49367 113.001 8.65679C113.164 8.8199 113.246 9.01533 113.246 9.24308C113.246 9.39389 113.207 9.53238 113.131 9.65856C113.057 9.78475 112.957 9.88631 112.83 9.96325C112.707 10.0372 112.569 10.0741 112.415 10.0741Z" fill="#F6F6F6"/>
<path d="M115.75 9.99946V0.544922H121.456V1.56054H116.895V4.51509H119.296C119.973 4.51509 120.544 4.62588 121.009 4.84747C121.476 5.06906 121.83 5.38145 122.07 5.78462C122.313 6.18779 122.435 6.66329 122.435 7.21111C122.435 7.75893 122.313 8.24213 122.07 8.66069C121.83 9.07925 121.476 9.40702 121.009 9.644C120.544 9.88098 119.973 9.99946 119.296 9.99946H115.75ZM116.895 9.00231H119.296C119.727 9.00231 120.091 8.91613 120.39 8.74378C120.692 8.56835 120.919 8.34369 121.073 8.06978C121.23 7.79279 121.309 7.50041 121.309 7.19264C121.309 6.74023 121.135 6.35091 120.787 6.02468C120.439 5.69537 119.942 5.53071 119.296 5.53071H116.895V9.00231Z" fill="#F6F6F6"/>
<path d="M132.699 5.27255C132.699 6.26971 132.519 7.13145 132.159 7.85778C131.798 8.5841 131.304 9.14424 130.677 9.53817C130.049 9.93211 129.332 10.1291 128.525 10.1291C127.719 10.1291 127.002 9.93211 126.374 9.53817C125.746 9.14424 125.252 8.5841 124.892 7.85778C124.532 7.13145 124.352 6.26971 124.352 5.27255C124.352 4.27539 124.532 3.41365 124.892 2.68732C125.252 1.961 125.746 1.40086 126.374 1.00692C127.002 0.612985 127.719 0.416016 128.525 0.416016C129.332 0.416016 130.049 0.612985 130.677 1.00692C131.304 1.40086 131.798 1.961 132.159 2.68732C132.519 3.41365 132.699 4.27539 132.699 5.27255ZM131.591 5.27255C131.591 4.45389 131.454 3.76296 131.18 3.19975C130.909 2.63654 130.541 2.21029 130.076 1.92099C129.615 1.63169 129.098 1.48704 128.525 1.48704C127.953 1.48704 127.434 1.63169 126.97 1.92099C126.508 2.21029 126.14 2.63654 125.866 3.19975C125.595 3.76296 125.46 4.45389 125.46 5.27255C125.46 6.09121 125.595 6.78214 125.866 7.34535C126.14 7.90856 126.508 8.33481 126.97 8.62411C127.434 8.91341 127.953 9.05806 128.525 9.05806C129.098 9.05806 129.615 8.91341 130.076 8.62411C130.541 8.33481 130.909 7.90856 131.18 7.34535C131.454 6.78214 131.591 6.09121 131.591 5.27255Z" fill="#F6F6F6"/>
<path d="M134.213 9.99946V8.94692H134.49C134.884 8.94692 135.19 8.82073 135.409 8.56837C135.627 8.316 135.784 7.9082 135.879 7.34499C135.978 6.78178 136.044 6.03545 136.078 5.106L136.244 0.544922H142.005V9.99946H140.861V1.56054H137.334L137.186 5.32759C137.149 6.31859 137.058 7.16187 136.913 7.85742C136.769 8.55297 136.515 9.08387 136.152 9.45011C135.789 9.81635 135.259 9.99946 134.564 9.99946H134.213Z" fill="#F6F6F6"/>
<path d="M145.544 4.51509H148.24C148.917 4.51509 149.488 4.62588 149.953 4.84747C150.421 5.06906 150.774 5.38145 151.015 5.78462C151.258 6.18779 151.379 6.66329 151.379 7.21111C151.379 7.75893 151.258 8.24213 151.015 8.66069C150.774 9.07925 150.421 9.40702 149.953 9.644C149.488 9.88098 148.917 9.99946 148.24 9.99946H144.695V0.544922H145.839V9.00231H148.24C148.671 9.00231 149.036 8.91613 149.334 8.74378C149.636 8.56835 149.863 8.34369 150.017 8.06978C150.174 7.79279 150.253 7.50041 150.253 7.19264C150.253 6.74023 150.079 6.35091 149.731 6.02468C149.383 5.69537 148.886 5.53071 148.24 5.53071H145.544V4.51509Z" fill="#F6F6F6"/>
<path d="M153.589 0.544922H154.734V8.94692H158.058V0.544922H159.203V8.94692H162.527V0.544922H163.672V9.99946H153.589V0.544922Z" fill="#F6F6F6"/>
<path d="M166.757 9.99946H165.556L169.028 0.544922H170.21L173.681 9.99946H172.481L169.656 2.04066H169.582L166.757 9.99946ZM167.2 6.30628H172.038V7.32191H167.2V6.30628Z" fill="#F6F6F6"/>
<path d="M181.982 9.99946H180.837V1.56054H178.824C178.313 1.56054 177.902 1.63902 177.592 1.79598C177.281 1.94987 177.055 2.16838 176.913 2.45152C176.771 2.73467 176.701 3.06552 176.701 3.44407C176.701 3.82263 176.77 4.14885 176.908 4.42276C177.05 4.69359 177.275 4.90287 177.582 5.0506C177.893 5.19833 178.301 5.27219 178.806 5.27219H181.354V6.30628H178.769C178.036 6.30628 177.435 6.18471 176.964 5.94158C176.493 5.69537 176.144 5.35683 175.916 4.92595C175.688 4.49508 175.574 4.00113 175.574 3.44407C175.574 2.88702 175.688 2.38997 175.916 1.95294C176.144 1.51592 176.494 1.17276 176.968 0.923473C177.442 0.671106 178.049 0.544922 178.787 0.544922H181.982V9.99946ZM177.532 5.7523H178.824L176.534 9.99946H175.205L177.532 5.7523Z" fill="#F6F6F6"/>
<path d="M72.3496 68.8329C76.603 73.4606 78.7355 79.1496 78.7355 85.9007C78.7355 91.8994 76.9797 97.4669 73.4737 102.592C69.9678 107.717 65.1771 111.814 59.1009 114.877C53.0251 117.94 46.4839 119.472 39.4721 119.472C32.4602 119.472 25.6311 117.47 19.7488 113.473C13.8615 109.476 9.2589 103.847 5.94113 96.5934C2.62335 89.3451 0.961914 81.1568 0.961914 72.0284C0.961914 61.0315 3.46527 50.6207 8.47777 40.8069C13.4848 30.9931 20.8787 22.6832 30.6436 15.8661C40.4135 9.0434 52.0615 4.75851 65.5867 3.01137C66.0852 2.88974 66.4011 3.13854 66.5285 3.7633C66.6504 4.38807 66.5285 4.76404 66.1518 4.88567C54.7531 7.13595 45.1713 11.4485 37.4116 17.8233C29.6464 24.1981 23.8199 31.7948 19.9427 40.6079C16.0602 49.4208 14.1216 58.6432 14.1216 68.2688C14.1216 76.5179 15.4067 84.3027 17.9712 91.6175C20.5354 98.9323 24.1687 104.809 28.8657 109.243C33.5623 113.683 38.9181 115.9 44.9278 115.9C51.3137 115.9 56.3208 113.622 59.954 109.055C63.5873 104.494 65.404 98.4015 65.404 90.7715C65.404 83.1416 63.7758 77.7732 60.5188 73.516C57.2622 69.2697 52.5655 67.1409 46.4286 67.1409C43.05 67.1409 39.9153 67.7991 37.0349 69.1094C34.1549 70.4251 31.0257 72.6421 27.6417 75.766C27.5143 75.8933 27.3258 75.9541 27.0765 75.9541C26.6999 75.9541 26.3232 75.766 25.9466 75.39C25.57 75.0141 25.4426 74.7047 25.57 74.4503C28.8269 70.3256 32.8311 67.2017 37.5946 65.0733C42.3521 62.95 47.5531 61.8829 53.1857 61.8829C61.6987 61.8829 68.0904 64.1998 72.3496 68.8217V68.8329Z" fill="#F6F6F6"/>
<path d="M89.4017 136.834C105.696 123.502 118.287 112.67 127.175 104.337C136.063 95.8198 142.451 88.2281 146.34 81.5622C150.228 74.8963 152.172 68.2304 152.172 61.5645C152.172 54.1579 149.858 48.1401 145.229 43.511C140.785 38.6968 134.952 36.2896 127.731 36.2896C113.103 36.2896 102.548 47.7698 96.0676 70.7301C96.0676 70.9152 95.6972 71.0078 94.9566 71.0078C93.2901 71.0078 92.5495 70.6375 92.7346 69.8968L103.567 27.6795C103.567 27.3092 103.937 27.124 104.678 27.124C105.233 27.124 105.696 27.3092 106.066 27.6795C106.622 27.8647 106.807 28.0498 106.622 28.235C106.437 28.9757 106.344 29.9941 106.344 31.2902C106.344 34.2528 107.733 35.7341 110.51 35.7341C112.177 35.7341 114.954 35.0861 118.843 33.7899C126.434 31.3828 133.193 30.1792 139.118 30.1792C148.561 30.1792 155.968 32.7715 161.338 37.9561C166.893 42.9555 169.67 49.5288 169.67 57.676C169.67 64.1568 167.541 70.6375 163.282 77.1182C159.208 83.599 153.098 90.5426 144.951 97.9492C136.989 105.171 125.786 114.336 111.344 125.446C110.603 126.002 110.325 126.464 110.51 126.835C110.881 127.205 111.529 127.39 112.455 127.39C132.823 127.39 146.988 127.113 154.95 126.557C162.912 126.002 168.652 124.52 172.17 122.113C175.688 119.706 178.095 115.447 179.391 109.337C179.391 108.966 179.854 108.781 180.78 108.781C182.076 108.781 182.724 109.059 182.724 109.615L178.558 137.945C178.558 138.685 178.28 139.426 177.725 140.167C177.354 140.722 176.799 141 176.058 141H91.3459C90.4201 141 89.6794 140.537 89.1239 139.611C88.5684 138.5 88.661 137.574 89.4017 136.834Z" fill="#F6F6F6"/>
</g>
<defs>
<clipPath id="clip0_312_46">
<rect width="183" height="141" fill="white"/>
</clipPath>
</defs>
</svg>
