<svg width="183" height="141" viewBox="0 0 183 141" fill="none" xmlns="http://www.w3.org/2000/svg">
<path d="M94.0841 10.1291V9.05806H94.675C94.9027 9.05806 95.0936 9.01344 95.2474 8.92418C95.4044 8.83493 95.5337 8.71952 95.6352 8.57795C95.7399 8.43638 95.826 8.28865 95.8937 8.13477L96.0415 7.78391L92.773 0.545277H94.0102L96.6139 6.41744L98.996 0.545277H100.215L96.9463 8.46715C96.817 8.76261 96.6693 9.03652 96.5031 9.28889C96.34 9.54125 96.1169 9.74438 95.8337 9.89826C95.5537 10.0521 95.1736 10.1291 94.6935 10.1291H94.0841Z" fill="black"/>
<path d="M101.287 9.99982V8.94727H101.564C101.958 8.94727 102.264 8.82108 102.483 8.56872C102.701 8.31635 102.858 7.90856 102.953 7.34535C103.052 6.78214 103.118 6.03581 103.152 5.10636L103.318 0.545277H109.08V9.99982H107.935V1.5609H104.408L104.26 5.32795C104.223 6.31895 104.132 7.16223 103.988 7.85778C103.843 8.55333 103.589 9.08422 103.226 9.45046C102.863 9.8167 102.333 9.99982 101.638 9.99982H101.287Z" fill="black"/>
<path d="M112.415 10.0737C112.187 10.0737 111.992 9.99213 111.829 9.82901C111.666 9.6659 111.584 9.47047 111.584 9.24272C111.584 9.01497 111.666 8.81954 111.829 8.65643C111.992 8.49331 112.187 8.41175 112.415 8.41175C112.643 8.41175 112.838 8.49331 113.001 8.65643C113.164 8.81954 113.246 9.01497 113.246 9.24272C113.246 9.39353 113.207 9.53202 113.131 9.6582C113.057 9.78439 112.957 9.88595 112.83 9.96289C112.707 10.0368 112.569 10.0737 112.415 10.0737Z" fill="black"/>
<path d="M115.75 9.99982V0.545277H121.456V1.5609H116.895V4.51545H119.296C119.973 4.51545 120.544 4.62624 121.009 4.84783C121.476 5.06942 121.83 5.38181 122.07 5.78498C122.313 6.18815 122.435 6.66365 122.435 7.21147C122.435 7.75929 122.313 8.24248 122.07 8.66104C121.83 9.0796 121.476 9.40737 121.009 9.64435C120.544 9.88133 119.973 9.99982 119.296 9.99982H115.75ZM116.895 9.00266H119.296C119.727 9.00266 120.091 8.91649 120.39 8.74414C120.692 8.56871 120.919 8.34405 121.073 8.07014C121.23 7.79315 121.309 7.50077 121.309 7.193C121.309 6.74059 121.135 6.35127 120.787 6.02504C120.439 5.69573 119.942 5.53107 119.296 5.53107H116.895V9.00266Z" fill="black"/>
<path d="M132.699 5.27255C132.699 6.26971 132.519 7.13145 132.159 7.85778C131.798 8.5841 131.304 9.14424 130.677 9.53817C130.049 9.93211 129.332 10.1291 128.525 10.1291C127.719 10.1291 127.002 9.93211 126.374 9.53817C125.746 9.14424 125.252 8.5841 124.892 7.85778C124.532 7.13145 124.352 6.26971 124.352 5.27255C124.352 4.27539 124.532 3.41365 124.892 2.68732C125.252 1.961 125.746 1.40086 126.374 1.00692C127.002 0.612985 127.719 0.416016 128.525 0.416016C129.332 0.416016 130.049 0.612985 130.677 1.00692C131.304 1.40086 131.798 1.961 132.159 2.68732C132.519 3.41365 132.699 4.27539 132.699 5.27255ZM131.591 5.27255C131.591 4.45389 131.454 3.76296 131.18 3.19975C130.909 2.63654 130.541 2.21029 130.076 1.92099C129.615 1.63169 129.098 1.48704 128.525 1.48704C127.953 1.48704 127.434 1.63169 126.97 1.92099C126.508 2.21029 126.14 2.63654 125.866 3.19975C125.595 3.76296 125.46 4.45389 125.46 5.27255C125.46 6.09121 125.595 6.78214 125.866 7.34535C126.14 7.90856 126.508 8.33481 126.97 8.62411C127.434 8.91341 127.953 9.05806 128.525 9.05806C129.098 9.05806 129.615 8.91341 130.076 8.62411C130.541 8.33481 130.909 7.90856 131.18 7.34535C131.454 6.78214 131.591 6.09121 131.591 5.27255Z" fill="black"/>
<path d="M134.213 9.99982V8.94727H134.49C134.884 8.94727 135.19 8.82108 135.409 8.56872C135.627 8.31635 135.784 7.90856 135.879 7.34535C135.978 6.78214 136.044 6.03581 136.078 5.10636L136.244 0.545277H142.005V9.99982H140.861V1.5609H137.334L137.186 5.32795C137.149 6.31895 137.058 7.16223 136.913 7.85778C136.769 8.55333 136.515 9.08422 136.152 9.45046C135.789 9.8167 135.259 9.99982 134.564 9.99982H134.213Z" fill="black"/>
<path d="M145.544 4.51545H148.24C148.917 4.51545 149.488 4.62624 149.953 4.84783C150.421 5.06942 150.774 5.38181 151.015 5.78498C151.258 6.18815 151.379 6.66365 151.379 7.21147C151.379 7.75929 151.258 8.24248 151.015 8.66104C150.774 9.0796 150.421 9.40737 149.953 9.64435C149.488 9.88133 148.917 9.99982 148.24 9.99982H144.695V0.545277H145.839V9.00266H148.24C148.671 9.00266 149.036 8.91649 149.334 8.74414C149.636 8.56871 149.863 8.34405 150.017 8.07014C150.174 7.79315 150.253 7.50077 150.253 7.193C150.253 6.74059 150.079 6.35127 149.731 6.02504C149.383 5.69573 148.886 5.53107 148.24 5.53107H145.544V4.51545Z" fill="black"/>
<path d="M153.589 0.545277H154.734V8.94727H158.058V0.545277H159.203V8.94727H162.527V0.545277H163.672V9.99982H153.589V0.545277Z" fill="black"/>
<path d="M166.757 9.99982H165.556L169.028 0.545277H170.21L173.681 9.99982H172.481L169.656 2.04102H169.582L166.757 9.99982ZM167.2 6.30664H172.038V7.32227H167.2V6.30664Z" fill="black"/>
<path d="M181.982 9.99982H180.837V1.5609H178.824C178.313 1.5609 177.902 1.63938 177.592 1.79634C177.281 1.95023 177.055 2.16874 176.913 2.45188C176.771 2.73503 176.701 3.06587 176.701 3.44442C176.701 3.82298 176.77 4.14921 176.908 4.42312C177.05 4.69395 177.275 4.90323 177.582 5.05096C177.893 5.19869 178.301 5.27255 178.806 5.27255H181.354V6.30664H178.769C178.036 6.30664 177.435 6.18507 176.964 5.94194C176.493 5.69573 176.144 5.35719 175.916 4.92631C175.688 4.49544 175.574 4.00148 175.574 3.44442C175.574 2.88737 175.688 2.39033 175.916 1.9533C176.144 1.51628 176.494 1.17312 176.968 0.923828C177.442 0.671461 178.049 0.545277 178.787 0.545277H181.982V9.99982ZM177.532 5.75266H178.824L176.534 9.99982H175.205L177.532 5.75266Z" fill="black"/>
<path d="M72.3496 68.8326C76.603 73.4603 78.7355 79.1493 78.7355 85.9004C78.7355 91.8991 76.9797 97.4666 73.4737 102.592C69.9678 107.717 65.1771 111.814 59.1009 114.877C53.0251 117.94 46.4839 119.472 39.4721 119.472C32.4602 119.472 25.6311 117.47 19.7488 113.473C13.8615 109.476 9.2589 103.847 5.94113 96.5931C2.62335 89.3448 0.961914 81.1565 0.961914 72.0281C0.961914 61.0312 3.46527 50.6204 8.47777 40.8066C13.4848 30.9928 20.8787 22.6829 30.6436 15.8658C40.4135 9.04311 52.0615 4.75822 65.5867 3.01108C66.0852 2.88945 66.4011 3.13825 66.5285 3.76301C66.6504 4.38778 66.5285 4.76375 66.1518 4.88538C54.7531 7.13566 45.1713 11.4482 37.4116 17.823C29.6464 24.1978 23.8199 31.7945 19.9427 40.6076C16.0602 49.4205 14.1216 58.6429 14.1216 68.2685C14.1216 76.5176 15.4067 84.3024 17.9712 91.6172C20.5354 98.932 24.1687 104.809 28.8657 109.243C33.5623 113.683 38.9181 115.9 44.9278 115.9C51.3137 115.9 56.3208 113.622 59.954 109.055C63.5873 104.494 65.404 98.4012 65.404 90.7712C65.404 83.1413 63.7758 77.7729 60.5188 73.5157C57.2622 69.2694 52.5655 67.1406 46.4286 67.1406C43.05 67.1406 39.9153 67.7988 37.0349 69.1091C34.1549 70.4248 31.0257 72.6418 27.6417 75.7657C27.5143 75.893 27.3258 75.9538 27.0765 75.9538C26.6999 75.9538 26.3232 75.7657 25.9466 75.3897C25.57 75.0138 25.4426 74.7044 25.57 74.45C28.8269 70.3253 32.8311 67.2014 37.5946 65.073C42.3521 62.9497 47.5531 61.8826 53.1857 61.8826C61.6987 61.8826 68.0904 64.1995 72.3496 68.8214V68.8326Z" fill="#F6F6F6"/>
<path d="M89.4017 136.834C105.696 123.502 118.287 112.67 127.175 104.337C136.063 95.8199 142.451 88.2282 146.34 81.5623C150.228 74.8964 152.172 68.2305 152.172 61.5646C152.172 54.158 149.858 48.1402 145.229 43.5111C140.785 38.6969 134.952 36.2897 127.731 36.2897C113.103 36.2897 102.548 47.7699 96.0676 70.7302C96.0676 70.9153 95.6972 71.0079 94.9566 71.0079C93.2901 71.0079 92.5495 70.6376 92.7346 69.8969L103.567 27.6796C103.567 27.3093 103.937 27.1241 104.678 27.1241C105.233 27.1241 105.696 27.3093 106.066 27.6796C106.622 27.8648 106.807 28.0499 106.622 28.2351C106.437 28.9758 106.344 29.9942 106.344 31.2903C106.344 34.2529 107.733 35.7342 110.51 35.7342C112.177 35.7342 114.954 35.0862 118.843 33.79C126.434 31.3829 133.193 30.1793 139.118 30.1793C148.561 30.1793 155.968 32.7716 161.338 37.9562C166.893 42.9556 169.67 49.5289 169.67 57.6761C169.67 64.1569 167.541 70.6376 163.282 77.1183C159.208 83.5991 153.098 90.5427 144.951 97.9493C136.989 105.171 125.786 114.336 111.344 125.446C110.603 126.002 110.325 126.464 110.51 126.835C110.881 127.205 111.529 127.39 112.455 127.39C132.823 127.39 146.988 127.113 154.95 126.557C162.912 126.002 168.652 124.52 172.17 122.113C175.688 119.706 178.095 115.447 179.391 109.337C179.391 108.966 179.854 108.781 180.78 108.781C182.076 108.781 182.724 109.059 182.724 109.615L178.558 137.945C178.558 138.685 178.28 139.426 177.725 140.167C177.354 140.722 176.799 141 176.058 141H91.3459C90.4201 141 89.6794 140.537 89.1239 139.611C88.5684 138.5 88.661 137.574 89.4017 136.834Z" fill="#F6F6F6"/>
</svg>
