<svg width="700" height="141" viewBox="0 0 700 141" fill="none" xmlns="http://www.w3.org/2000/svg">
<mask id="mask0_453_188" style="mask-type:luminance" maskUnits="userSpaceOnUse" x="0" y="4" width="508" height="137">
<path d="M507.983 4H0V141H507.983V4Z" fill="white"/>
</mask>
<g mask="url(#mask0_453_188)">
<path d="M45.9187 12.3037L39.6377 26.8233H37.6265L43.8921 12.3037H45.9187Z" fill="#141414"/>
<path fill-rule="evenodd" clip-rule="evenodd" d="M140.271 58.324C137.471 55.2038 133.912 53.2751 128.714 52.0835C128.436 52.0207 127.956 51.9111 127.539 51.8011C127.956 51.6758 128.467 51.5191 128.962 51.3467C130.401 50.8448 132.783 50.0138 134.454 48.5556C136.619 46.9249 137.795 44.1024 137.594 41.0293C137.378 37.7363 135.692 34.8826 133.077 33.3931C131.251 32.3582 128.529 31.1038 125.945 31.0724C125.273 31.0724 124.535 31.0603 123.747 31.0474C123.265 31.0395 122.764 31.0313 122.248 31.0254H109.377C107.366 31.0254 105.494 31.0254 103.916 31.0568H98.0988L99.0428 31.5115C100.899 32.3739 101.843 34.1143 101.843 36.6858C101.92 50.5782 101.935 65.7093 101.935 77.3597C101.935 79.9309 101.935 82.8316 98.857 84.494L98.0527 84.9327H98.9652C98.9652 84.9327 102.957 84.9642 107.861 84.9642C113.151 84.9642 119.602 84.9327 123.609 84.7917C127.09 84.6664 130.679 84.0235 134.036 82.9259C138.724 81.3891 142.297 77.485 143.597 72.4674C144.927 67.3714 143.674 62.0715 140.271 58.3083V58.324ZM107.613 49.4337C107.644 47.756 107.644 46.0311 107.613 44.3848V40.3707C107.613 39.8688 107.615 39.3455 107.616 38.8132V38.7851C107.62 37.6798 107.624 36.5359 107.613 35.4628V34.1771C107.613 33.2676 107.783 32.8286 108.742 32.8286H122.387C127.059 32.8286 131.02 36.3879 131.422 40.935V41.0293C131.747 45.0901 130.401 48.2575 127.755 49.7C126.162 50.5782 123.083 50.8919 121.413 50.8919H108.727C107.783 50.8919 107.613 50.4686 107.598 49.6375V49.4337H107.613ZM137.826 70.4448C137.3 75.6191 136.078 79.0528 131.298 81.4205C131.262 81.4423 131.204 81.4737 131.15 81.5027C131.086 81.5375 131.028 81.5689 131.02 81.5772C128.915 82.424 123.006 83.1297 121.428 83.1297H108.572C107.814 83.0826 107.598 82.7534 107.613 81.6872V80.511C107.644 77.5946 107.644 74.6313 107.613 71.7617V65.0821C107.613 64.0149 107.615 62.9352 107.617 61.8516V61.8472C107.62 59.6689 107.623 57.4746 107.613 55.3294V53.9965C107.613 53.4478 107.69 53.134 107.876 52.9459C108.046 52.7735 108.325 52.695 108.742 52.695H121.258C123.98 52.695 127.771 53.5731 130.927 54.9528C135.382 56.8815 137.965 61.758 137.965 67.9671C137.965 68.7667 137.919 69.5981 137.826 70.4448Z" fill="#141414"/>
<path fill-rule="evenodd" clip-rule="evenodd" d="M53.7461 84.4769L51.6112 84.9474H66.3387L65.1632 84.4926C62.9972 83.6459 61.9918 81.7329 61.2182 79.9926C58.636 74.126 54.4317 64.5574 50.6111 55.8619L50.5897 55.8135C46.2702 45.9829 42.4462 37.2802 42.0199 36.3241C41.2152 34.5522 40.4263 32.8118 39.7303 31.2124L39.6681 31.0713H31.2989L31.2679 31.5417C33.2945 31.8553 34.8879 33.7055 34.8879 35.7282V35.9791C34.8879 36.0303 34.8895 36.0848 34.8912 36.1404C34.8949 36.2553 34.8985 36.3753 34.8879 36.4809C34.826 37.0924 34.7178 37.406 34.4702 37.939C33.8209 39.4276 33.1679 40.9199 32.5148 42.4122L32.5109 42.4212C31.8581 43.9129 31.2053 45.4045 30.5563 46.8924C28.0192 52.7096 25.3893 58.7149 22.7748 64.6106L21.8621 66.6646C20.8565 68.9381 19.8355 71.2119 18.8145 73.4698C18.5708 74.0225 18.3271 74.6015 18.0835 75.1809C18.0023 75.3741 17.9211 75.5669 17.8398 75.759L17.5459 76.4958C17.2829 77.1387 17.0044 77.7973 16.6796 78.4245L16.6486 78.4873C15.5039 80.9176 13.8176 83.5206 10.0429 84.4769L8.23291 84.9474H22.2334L22.2643 84.4769C20.2068 84.242 18.8609 83.5834 18.2576 82.5328C17.747 81.639 17.778 80.4631 18.3658 79.036L22.156 70.4277C22.2643 70.1614 22.3726 69.9104 22.4964 69.6438C22.5505 69.5342 22.597 69.4246 22.6412 69.3203C22.6603 69.2756 22.6789 69.2315 22.6975 69.189C22.79 69.025 22.8653 68.8696 22.9426 68.7099L22.9856 68.6213L23.0224 68.5461L23.0533 68.4679C23.2235 68.076 23.966 67.6837 24.4611 67.6369C24.7116 67.6068 24.9901 67.5915 25.2566 67.5764L25.2965 67.5741H47.5426C47.8364 67.5741 48.115 67.6055 48.378 67.6369C48.8729 67.6837 49.6157 68.076 49.7858 68.4679L49.9251 68.7657C50.1724 69.3147 50.42 69.8633 50.6365 70.4277C51.936 73.3288 53.2976 76.5272 54.9373 80.4942C55.2467 81.2784 55.5872 82.2819 55.3704 82.9405C55.1695 83.552 54.4578 84.3202 53.7461 84.4769ZM48.3162 65.5826C48.2387 65.6925 48.0997 65.771 47.9603 65.771H24.8633C24.7241 65.771 24.6003 65.7082 24.523 65.5826C24.4456 65.4573 24.4301 65.3163 24.492 65.1749L36.0791 38.9271C36.1566 38.77 36.2956 38.6761 36.466 38.6761C36.6361 38.6761 36.7754 38.7543 36.8373 38.9114L40.0705 46.2963C42.623 52.1452 45.9184 59.6558 48.3469 65.1906C48.3934 65.3163 48.3934 65.4573 48.3162 65.5826Z" fill="#141414"/>
<path d="M461.37 36.8896C461.416 37.705 461.463 66.0697 461.416 78.0806V78.1371C461.4 80.1146 461.383 82.344 459.559 83.8353C459.265 84.0705 458.927 84.3054 458.523 84.5096L457.657 84.9483H471.083L470.064 84.4939C469.616 84.3054 469.212 84.0705 468.871 83.8196C467.281 82.5809 467.063 80.8246 466.987 79.1312C466.97 78.504 466.94 76.983 466.923 75.8542V74.0939C466.92 69.5876 466.913 48.9434 466.953 37.9403C466.953 35.9488 466.97 33.6752 468.811 32.1856C469.105 31.9347 469.459 31.6995 469.83 31.5114L470.712 31.0566H457.286L458.306 31.5114C458.757 31.7152 459.158 31.9347 459.482 32.2013C461.092 33.44 461.306 35.2589 461.37 36.8896Z" fill="#141414"/>
<path d="M499.75 60.2207C499.75 61.7575 498.53 63.0119 497.013 63.0119C495.496 63.0119 494.273 61.7575 494.273 60.2207C494.273 58.684 495.496 57.4453 497.013 57.4453C498.53 57.4453 499.75 58.6997 499.75 60.2207Z" fill="#141414"/>
<path d="M499.75 82.1706C499.75 83.7037 498.527 84.946 497.013 84.946C495.499 84.946 494.273 83.7037 494.273 82.1706C494.273 80.6379 495.499 79.3955 497.013 79.3955C498.527 79.3955 499.75 80.6379 499.75 82.1706Z" fill="#141414"/>
<path fill-rule="evenodd" clip-rule="evenodd" d="M271.226 84.8702C269.849 84.8074 268.503 84.635 267.157 84.3683C263.862 83.7097 260.799 82.4553 257.968 80.5894C255.137 78.7236 252.754 76.4029 250.929 73.5179C248.655 69.9429 247.479 65.9916 247.015 61.8051C246.96 61.2765 246.921 60.7482 246.883 60.2232C246.856 59.86 246.83 59.4985 246.798 59.1392C246.798 58.9982 246.772 58.8572 246.746 58.7159C246.737 58.6691 246.729 58.622 246.721 58.5749V56.6619C246.729 56.5951 246.738 56.5292 246.748 56.4641C246.773 56.2846 246.798 56.1089 246.798 55.9251C246.86 54.5294 247.03 53.1497 247.293 51.77C247.989 48.1635 249.382 44.8395 251.424 41.8131C253.203 39.179 255.384 36.9837 258.03 35.2746C261.665 32.9226 265.703 31.6055 269.973 31.1978C270.607 31.1351 272.881 31.041 273.392 31.041C274.032 31.041 275.167 31.1141 275.935 31.1637L276.222 31.1821C277.816 31.3389 278.651 31.4643 280.167 31.8093C284.081 32.6874 287.608 34.3808 290.718 36.9523C293.75 39.4767 296.071 42.5345 297.618 46.1877C298.933 49.308 299.536 52.601 299.753 55.9722C299.787 56.5112 299.796 57.0592 299.805 57.6025V57.6125C299.808 57.7926 299.811 57.9727 299.815 58.1515C299.846 59.9078 299.722 61.6637 299.443 63.3886C298.917 66.5874 297.865 69.5823 296.256 72.3888C294.895 74.7723 293.224 76.9048 291.182 78.7079C288.676 80.9189 285.814 82.471 282.643 83.4745C281.111 83.9606 279.626 84.3997 278.033 84.6035L277.851 84.6279C276.893 84.7586 275.317 84.9731 271.195 84.8702H271.226ZM293.735 58.4496C293.704 57.0853 293.642 55.7213 293.518 54.3569C293.348 52.6635 293.101 50.9857 292.698 49.3394C292.049 46.6111 291.058 44.0238 289.62 41.6093C288.382 39.5239 286.835 37.7208 284.886 36.3095C282.008 34.224 278.775 33.1108 275.263 32.8755C273.871 32.7815 272.463 32.7972 271.056 32.9069C269.447 33.0324 267.868 33.3773 266.337 33.9261C263.475 34.9453 260.984 36.576 258.973 38.8967C257.674 40.3863 256.653 42.0483 255.786 43.8357C254.487 46.5329 253.713 49.4022 253.28 52.3815C253.064 53.8865 252.94 55.4075 252.878 56.9285C252.785 59.5469 252.94 62.1342 253.404 64.7215C253.946 67.685 254.889 70.5229 256.281 73.1884C257.163 74.8976 258.231 76.4657 259.577 77.8297C262.933 81.2166 267.049 82.863 271.736 83.1139C272.134 83.132 272.537 83.1293 272.939 83.1266C273.241 83.1249 273.542 83.1229 273.84 83.1296C275.263 83.1296 276.687 82.9886 278.079 82.6906C280.678 82.1105 283.045 81.0442 285.164 79.4136C286.866 78.1121 288.243 76.4972 289.403 74.6938C291.739 71.0248 293.008 66.9793 293.503 62.6675C293.658 61.2718 293.719 59.8921 293.688 58.481L293.735 58.4496Z" fill="#141414"/>
<path fill-rule="evenodd" clip-rule="evenodd" d="M361.944 31.2292C365.904 31.7623 369.416 33.4871 372.076 36.184H372.092C374.181 38.3009 375.357 41.6407 375.357 45.0901C375.357 46.1249 375.247 47.1601 375.03 48.1792C374.071 52.6949 371.21 56.0504 366.97 57.6653C364.37 58.6534 361.246 59.2963 357.951 59.5158H357.828C357.781 59.5315 357.734 59.5315 357.687 59.5315C357.504 59.5626 357.27 59.5626 357.069 59.5626C352.869 59.8019 348.568 59.7705 344.385 59.7397L343.767 59.7354H342.373C341.521 59.7354 341.321 60.0802 341.261 60.7074V60.7545C341.274 61.9882 341.287 63.2803 341.301 64.6092V64.6233V64.6293V64.6343C341.311 65.7801 341.321 66.9533 341.338 68.1398C341.368 72.0283 341.414 76.0424 341.475 79.5389C341.521 81.3109 341.909 83.2863 344.509 84.4939L345.481 84.9484H332.039L332.843 84.5093C335.751 82.8944 335.784 80.4013 335.784 77.7672V40.402C335.781 40.2296 335.777 40.0562 335.777 39.8824C335.764 38.6968 335.754 37.4836 335.66 36.2938C335.457 33.9104 334.514 32.2954 332.843 31.5114L331.884 31.0567H338.414C340.409 31.041 342.637 31.041 345.097 31.041H357.874C359.064 31.041 359.639 31.041 359.809 31.0567C360.474 31.0724 361.169 31.1351 361.944 31.2292ZM341.227 34.1299V35.4784C341.244 37.0934 341.244 38.7242 341.244 40.3392V47.2226C341.244 47.7275 341.244 48.2334 341.244 48.7396C341.247 50.2603 341.251 51.7854 341.227 53.2907C341.237 53.562 341.234 53.8333 341.231 54.1047C341.231 54.2407 341.227 54.378 341.227 54.5137V56.4581C341.244 57.3205 341.428 57.7596 342.373 57.7596H354.363C359.776 57.7596 364.033 56.6776 365.747 54.8588C367.047 53.4945 368.006 51.7386 368.594 49.6375C369.045 47.9911 369.306 46.2191 369.306 44.4318C369.306 40.4177 367.946 36.4192 364.093 34.1299C362.7 33.2832 360.952 32.8442 359.064 32.8442H342.357C341.414 32.8442 341.244 33.2519 341.227 34.1299Z" fill="#141414"/>
<path fill-rule="evenodd" clip-rule="evenodd" d="M445.187 67.8103C444.709 65.5525 443.75 63.5767 442.387 61.9775C441.027 60.3626 439.246 59.1235 437.127 58.3239C434.528 57.3362 431.403 56.6933 428.092 56.4738C428.062 56.4738 428.032 56.4738 428.002 56.4581H427.861C427.761 56.4581 427.658 56.4504 427.551 56.4424C427.447 56.4347 427.343 56.4266 427.243 56.4266C422.833 56.176 418.315 56.2228 413.954 56.2699H412.624C411.679 56.2699 411.478 55.9251 411.415 55.2979V55.2351C411.448 52.9301 411.478 50.4214 411.495 47.8498C411.508 46.6211 411.522 45.3798 411.535 44.1464C411.562 41.4763 411.592 38.8422 411.632 36.4506C411.679 34.6787 412.066 32.7031 414.679 31.4957L415.638 31.041H402.212L403.001 31.4801C405.908 33.0951 405.925 35.5882 405.941 38.2224V38.4105C405.971 47.1755 405.971 56.6933 405.955 65.8974V75.5876C405.955 76.9362 405.941 78.3316 405.831 79.6956C405.647 82.0791 404.688 83.694 403.018 84.4782L402.072 84.9327H408.384C410.396 84.9484 412.808 84.9484 415.267 84.9484H428.045C429.238 84.9484 429.826 84.9484 429.95 84.9327C430.645 84.9327 431.343 84.8545 432.115 84.7603C436.091 84.2273 439.587 82.5024 442.25 79.8055C444.91 77.1086 446.133 72.2478 445.187 67.8103ZM429.238 83.1453H412.531C411.585 83.1453 411.415 82.722 411.401 81.8595V68.767C411.415 66.7441 411.415 64.7058 411.401 62.6986V59.5315C411.401 58.6691 411.602 58.23 412.544 58.23H424.537C429.95 58.23 434.22 59.312 435.938 61.1308C437.221 62.4947 438.18 64.251 438.768 66.3521C439.216 67.9985 439.496 69.7862 439.496 71.5578C439.496 75.5719 438.116 79.5703 434.28 81.8595C432.874 82.7063 431.126 83.1453 429.238 83.1453Z" fill="#141414"/>
<path d="M218.008 32.5284V32.4187C217.931 31.1486 216.941 31.1016 216.152 31.1016H215.92C213.702 31.112 211.477 31.1085 209.255 31.105C208.144 31.1033 207.034 31.1016 205.926 31.1016H185.629C184.521 31.1016 183.411 31.1033 182.301 31.105C180.078 31.1085 177.854 31.112 175.636 31.1016H175.485C174.714 31.1014 173.639 31.1011 173.547 32.4343V32.5284C173.532 32.6225 173.532 32.7166 173.547 32.795C173.594 36.6366 173.594 39.3493 173.594 39.3493L173.624 39.9451L174.042 39.4589L174.07 39.4251C174.985 38.3278 175.709 37.459 176.889 36.6209C181.839 33.187 184.624 32.8734 191.925 32.8107C193.008 32.8107 193.117 34.4257 193.117 35.1156V36.323C193.101 42.501 193.101 48.6787 193.101 54.8724C193.101 62.5868 193.101 70.317 193.071 78.0471C193.055 80.5084 193.039 83.0493 190.116 84.4915L189.218 84.9462H202.337L201.44 84.4915C198.517 83.0493 198.5 80.5098 198.485 78.0485C198.454 70.3183 198.454 62.5868 198.454 54.8724C198.454 48.6787 198.454 42.501 198.439 36.323V35.1156C198.439 34.4257 198.547 32.8107 199.63 32.8107C206.932 32.8734 209.716 33.187 214.667 36.6209C215.833 37.45 216.554 38.3088 217.499 39.4335L217.56 39.506L217.962 39.9922V39.3493C217.962 39.3493 217.978 36.6366 218.008 32.8264C218.019 32.7525 218.015 32.6858 218.012 32.6214C218.01 32.59 218.008 32.5592 218.008 32.5284Z" fill="#141414"/>
<path d="M299.048 134.081V114.288H301.136V123.053H311.96V114.288H314.049V134.081H311.96V125.04H301.136V134.081H299.048Z" fill="#141414"/>
<path d="M330.434 126.586L326.691 117.256L322.933 126.586H330.434ZM331.275 128.574H322.106L319.882 134.081H317.657L325.714 114.288H327.654L335.711 134.081H333.5L331.275 128.574Z" fill="#141414"/>
<path d="M346.711 116.276V122.211H352.124C353.841 122.211 355.288 122.79 356.464 123.95C357.647 125.109 358.239 126.508 358.239 128.146C358.239 129.784 357.647 131.183 356.464 132.342C355.288 133.501 353.841 134.081 352.124 134.081H344.622V114.288H356.708V116.276H346.711ZM346.711 132.107H352.124C353.29 132.107 354.252 131.73 355.011 130.975C355.773 130.221 356.15 129.278 356.15 128.146C356.15 127.014 355.773 126.071 355.011 125.316C354.252 124.562 353.29 124.184 352.124 124.184H346.711V132.107Z" fill="#141414"/>
<path d="M365.944 118.347C364.417 119.92 363.652 121.866 363.652 124.185C363.652 126.504 364.417 128.45 365.944 130.024C367.471 131.597 369.349 132.384 371.575 132.384C373.797 132.384 375.675 131.597 377.202 130.024C378.732 128.45 379.494 126.504 379.494 124.185C379.494 121.866 378.732 119.92 377.202 118.347C375.675 116.773 373.797 115.986 371.575 115.986C369.349 115.986 367.471 116.773 365.944 118.347ZM378.655 116.98C380.597 118.959 381.569 121.36 381.569 124.185C381.569 127.01 380.597 129.412 378.655 131.39C376.71 133.368 374.348 134.358 371.575 134.358C368.798 134.358 366.439 133.368 364.494 131.39C362.549 129.412 361.577 127.01 361.577 124.185C361.577 121.36 362.549 118.959 364.494 116.98C366.439 115.002 368.798 114.013 371.575 114.013C374.348 114.013 376.71 115.002 378.655 116.98Z" fill="#141414"/>
<path d="M400.167 114.288V134.081H398.092V116.276H389.749V120.223C389.749 123.14 389.628 125.56 389.381 127.484C389.147 129.397 388.776 130.847 388.272 131.831C387.774 132.806 387.216 133.474 386.601 133.833C385.996 134.182 385.241 134.357 384.335 134.357C384.038 134.357 383.741 134.334 383.443 134.288C383.153 134.242 382.932 134.192 382.778 134.136L382.534 134.081V131.955C383.086 132.14 383.59 132.236 384.051 132.245C384.623 132.245 385.104 132.102 385.505 131.817C385.909 131.532 386.29 130.985 386.644 130.175C386.995 129.365 387.253 128.137 387.416 126.489C387.587 124.842 387.674 122.754 387.674 120.223V114.288H400.167Z" fill="#141414"/>
<path d="M413.376 134.081H406.012V114.288H408.1V121.645H413.376C415.177 121.645 416.668 122.238 417.854 123.425C419.037 124.613 419.631 126.094 419.631 127.87C419.631 129.636 419.037 131.113 417.854 132.301C416.668 133.487 415.177 134.081 413.376 134.081ZM408.1 132.107H413.376C414.633 132.107 415.642 131.721 416.4 130.948C417.162 130.175 417.54 129.149 417.54 127.87C417.54 126.582 417.162 125.551 416.4 124.778C415.642 124.005 414.633 123.619 413.376 123.619H408.1V132.107Z" fill="#141414"/>
<path d="M424.216 134.081V114.288H426.304V132.107H434.361V114.288H436.436V132.107H444.492V114.288H446.58V134.081H424.216Z" fill="#141414"/>
<path d="M455.519 118.347C453.992 119.92 453.227 121.866 453.227 124.185C453.227 126.504 453.992 128.45 455.519 130.024C457.049 131.597 458.924 132.384 461.149 132.384C463.375 132.384 465.249 131.597 466.78 130.024C468.307 128.45 469.072 126.504 469.072 124.185C469.072 121.866 468.307 119.92 466.78 118.347C465.249 116.773 463.375 115.986 461.149 115.986C458.924 115.986 457.049 116.773 455.519 118.347ZM468.23 116.98C470.174 118.959 471.147 121.36 471.147 124.185C471.147 127.01 470.174 129.412 468.23 131.39C466.285 133.368 463.926 134.358 461.149 134.358C458.372 134.358 456.013 133.368 454.069 131.39C452.124 129.412 451.151 127.01 451.151 124.185C451.151 121.36 452.124 118.959 454.069 116.98C456.013 115.002 458.372 114.013 461.149 114.013C463.926 114.013 466.285 115.002 468.23 116.98Z" fill="#141414"/>
<path d="M486.35 110.549C485.662 111.258 484.763 111.612 483.65 111.612C482.538 111.612 481.636 111.258 480.937 110.549C480.242 109.841 479.895 108.921 479.895 107.789H481.428C481.428 108.433 481.639 108.972 482.063 109.404C482.488 109.836 483.012 110.053 483.637 110.053C484.272 110.053 484.8 109.836 485.224 109.404C485.659 108.972 485.876 108.433 485.876 107.789H487.396C487.396 108.921 487.045 109.841 486.35 110.549ZM491.56 134.083H489.485V118.113L477.536 134.083H475.731V114.29H477.82V130.273L489.755 114.29H491.56V134.083Z" fill="#141414"/>
</g>
<g clip-path="url(#clip0_453_188)">
<mask id="mask1_453_188" style="mask-type:luminance" maskUnits="userSpaceOnUse" x="517" y="0" width="183" height="141">
<path d="M700 0H517V141H700V0Z" fill="white"/>
</mask>
<g mask="url(#mask1_453_188)">
<path d="M589.35 68.8329C593.603 73.4606 595.735 79.1496 595.735 85.9007C595.735 91.8994 593.98 97.4669 590.474 102.592C586.968 107.717 582.177 111.814 576.101 114.877C570.025 117.94 563.484 119.472 556.472 119.472C549.46 119.472 542.631 117.47 536.749 113.473C530.862 109.476 526.259 103.847 522.941 96.5934C519.623 89.3451 517.962 81.1568 517.962 72.0284C517.962 61.0315 520.465 50.6207 525.478 40.8069C530.485 30.9931 537.879 22.6832 547.644 15.8661C557.414 9.0434 569.062 4.75851 582.587 3.01137C583.085 2.88974 583.401 3.13854 583.529 3.7633C583.65 4.38807 583.529 4.76404 583.152 4.88567C571.753 7.13595 562.171 11.4485 554.412 17.8233C546.646 24.1981 540.82 31.7948 536.943 40.6079C533.06 49.4208 531.122 58.6432 531.122 68.2688C531.122 76.5179 532.407 84.3027 534.971 91.6175C537.535 98.9323 541.169 104.809 545.866 109.243C550.562 113.683 555.918 115.9 561.928 115.9C568.314 115.9 573.321 113.622 576.954 109.055C580.587 104.494 582.404 98.4015 582.404 90.7715C582.404 83.1416 580.776 77.7732 577.519 73.516C574.262 69.2697 569.566 67.1409 563.429 67.1409C560.05 67.1409 556.915 67.7991 554.035 69.1094C551.155 70.4251 548.026 72.6421 544.642 75.766C544.514 75.8933 544.326 75.9541 544.076 75.9541C543.7 75.9541 543.323 75.766 542.947 75.39C542.57 75.0141 542.443 74.7047 542.57 74.4503C545.827 70.3256 549.831 67.2017 554.595 65.0733C559.352 62.95 564.553 61.8829 570.186 61.8829C578.699 61.8829 585.09 64.1998 589.35 68.8217V68.8329Z" fill="#141414"/>
<path d="M606.401 136.834C622.696 123.502 635.287 112.67 644.175 104.337C653.063 95.8198 659.451 88.2281 663.34 81.5622C667.228 74.8963 669.172 68.2304 669.172 61.5645C669.172 54.1579 666.858 48.1401 662.229 43.511C657.785 38.6968 651.952 36.2896 644.731 36.2896C630.103 36.2896 619.548 47.7698 613.067 70.7301C613.067 70.9152 612.697 71.0078 611.956 71.0078C610.29 71.0078 609.549 70.6375 609.734 69.8968L620.567 27.6795C620.567 27.3092 620.937 27.124 621.678 27.124C622.233 27.124 622.696 27.3092 623.066 27.6795C623.622 27.8647 623.807 28.0498 623.622 28.235C623.437 28.9757 623.344 29.9941 623.344 31.2902C623.344 34.2528 624.733 35.7341 627.51 35.7341C629.177 35.7341 631.954 35.0861 635.843 33.7899C643.434 31.3828 650.193 30.1792 656.118 30.1792C665.561 30.1792 672.968 32.7715 678.338 37.9561C683.893 42.9555 686.67 49.5288 686.67 57.676C686.67 64.1568 684.541 70.6375 680.282 77.1182C676.208 83.599 670.098 90.5426 661.951 97.9492C653.989 105.171 642.786 114.336 628.344 125.446C627.603 126.002 627.325 126.464 627.51 126.835C627.881 127.205 628.529 127.39 629.455 127.39C649.823 127.39 663.988 127.113 671.95 126.557C679.912 126.002 685.652 124.52 689.17 122.113C692.688 119.706 695.095 115.447 696.391 109.337C696.391 108.966 696.854 108.781 697.78 108.781C699.076 108.781 699.724 109.059 699.724 109.615L695.558 137.945C695.558 138.685 695.28 139.426 694.725 140.167C694.354 140.722 693.799 141 693.058 141H608.346C607.42 141 606.679 140.537 606.124 139.611C605.568 138.5 605.661 137.574 606.401 136.834Z" fill="#141414"/>
</g>
</g>
<defs>
<clipPath id="clip0_453_188">
<rect width="183" height="141" fill="white" transform="translate(517)"/>
</clipPath>
</defs>
</svg>
