<svg width="154" height="134" viewBox="0 0 154 134" fill="none" xmlns="http://www.w3.org/2000/svg">
<g clip-path="url(#clip0_324_30)">
<mask id="mask0_324_30" style="mask-type:luminance" maskUnits="userSpaceOnUse" x="0" y="0" width="154" height="134">
<path d="M154 0H0V133.803H154V0Z" fill="white"/>
</mask>
<g mask="url(#mask0_324_30)">
<mask id="mask1_324_30" style="mask-type:luminance" maskUnits="userSpaceOnUse" x="0" y="0" width="154" height="134">
<path d="M154 0H0V133.803H154V0Z" fill="white"/>
</mask>
<g mask="url(#mask1_324_30)">
<mask id="mask2_324_30" style="mask-type:luminance" maskUnits="userSpaceOnUse" x="0" y="0" width="154" height="134">
<path d="M154 0H0V133.803H154V0Z" fill="white"/>
</mask>
<g mask="url(#mask2_324_30)">
<path d="M27.4029 128.355L16.1794 133.761C15.9416 133.874 15.6521 133.761 15.3006 133.411C14.949 133.061 14.8301 132.768 14.949 132.537L63.524 34.6729C63.8756 33.8603 63.5809 33.4538 62.6452 33.4538C43.0051 33.4538 29.476 33.6905 22.0523 34.1535C14.6285 34.6215 9.77928 35.5783 7.49945 37.0337C5.21959 38.4895 3.43603 41.2514 2.15393 45.3197C2.15393 45.6694 1.91612 45.8445 1.45084 45.8445C1.0993 45.8445 0.747755 45.7571 0.396212 45.582C0.0446701 45.4071 -0.0742339 45.2068 0.0446701 44.9701L6.18632 19.8444C6.30005 19.613 6.71364 19.5255 7.41157 19.5821C8.11463 19.6438 8.40414 19.7879 8.29041 20.0193C8.1715 20.4874 8.11463 21.0685 8.11463 21.7629C8.11463 22.9253 8.6678 23.6814 9.77928 24.0312C10.8908 24.3809 13.1396 24.5558 16.531 24.5558H69.1331C69.7172 24.5558 70.1568 24.8181 70.4462 25.3427C70.7359 25.8674 70.7668 26.3611 70.5342 26.824L31.0838 124.168C30.1481 126.144 28.9177 127.542 27.4029 128.355Z" fill="#424649"/>
<path d="M148.066 61.1885C152.018 65.4885 154 70.7747 154 77.0477C154 82.6216 152.368 87.7948 149.111 92.5575C145.853 97.3198 141.402 101.127 135.756 103.973C130.11 106.819 124.032 108.242 117.517 108.242C111.001 108.242 104.656 106.382 99.19 102.668C93.7195 98.9535 89.4429 93.7235 86.36 86.9832C83.2772 80.2482 81.7334 72.6397 81.7334 64.1577C81.7334 53.9394 84.0595 44.2659 88.717 35.147C93.3695 26.0281 100.24 18.3067 109.313 11.9722C118.392 5.63271 129.215 1.65123 141.782 0.0278112C142.245 -0.0852113 142.539 0.145971 142.657 0.726495C142.771 1.30702 142.657 1.65636 142.307 1.76939C131.716 3.86032 122.812 7.86748 115.602 13.7909C108.387 19.7143 102.973 26.7731 99.3702 34.9621C95.7625 43.1509 93.9612 51.7203 93.9612 60.6643C93.9612 68.3293 95.1554 75.5629 97.5383 82.3597C99.9208 89.1565 103.297 94.6175 107.661 98.7377C112.026 102.863 117.002 104.923 122.586 104.923C128.52 104.923 133.172 102.806 136.548 98.5628C139.924 94.3247 141.612 88.6633 141.612 81.5736C141.612 74.4839 140.1 69.4957 137.073 65.5399C134.047 61.5943 129.683 59.6163 123.981 59.6163C120.841 59.6163 117.929 60.2279 115.252 61.4454C112.576 62.6679 109.668 64.728 106.524 67.6306C106.406 67.749 106.231 67.8054 105.999 67.8054C105.649 67.8054 105.299 67.6306 104.949 67.2813C104.599 66.9319 104.481 66.6444 104.599 66.4081C107.625 62.5754 111.346 59.6728 115.772 57.6951C120.193 55.7221 125.026 54.7306 130.259 54.7306C138.17 54.7306 144.109 56.8834 148.066 61.1781V61.1885Z" fill="#424649"/>
<path d="M7.08452 12.1291V11.058H7.67543C7.90317 11.058 8.09399 11.0134 8.24787 10.9242C8.40483 10.8349 8.53409 10.7195 8.63566 10.5779C8.7403 10.4364 8.82647 10.2886 8.89418 10.1347L9.04191 9.78392L5.77344 2.54528H7.01066L9.61435 8.41744L11.9964 2.54528H13.2152L9.94674 10.4671C9.81747 10.7626 9.66975 11.0365 9.50355 11.2889C9.34044 11.5412 9.11731 11.7444 8.83416 11.8982C8.5541 12.0521 8.17401 12.1291 7.69389 12.1291H7.08452ZM14.2874 11.9998V10.9472H14.5644C14.9583 10.9472 15.2645 10.8211 15.483 10.5687C15.7015 10.3163 15.8585 9.90857 15.9539 9.34536C16.0524 8.78215 16.1186 8.03581 16.1524 7.10636L16.3186 2.54528H22.08V11.9998H20.9351V3.56091H17.4081L17.2604 7.32795C17.2234 8.31896 17.1327 9.16224 16.988 9.85778C16.8434 10.5533 16.5894 11.0842 16.2263 11.4504C15.8631 11.8167 15.3338 11.9998 14.6382 11.9998H14.2874ZM25.4154 12.0737C25.1876 12.0737 24.9922 11.9921 24.8291 11.829C24.666 11.6659 24.5844 11.4704 24.5844 11.2427C24.5844 11.015 24.666 10.8195 24.8291 10.6564C24.9922 10.4933 25.1876 10.4117 25.4154 10.4117C25.6431 10.4117 25.8386 10.4933 26.0017 10.6564C26.1648 10.8195 26.2464 11.015 26.2464 11.2427C26.2464 11.3935 26.2079 11.532 26.1309 11.6582C26.0571 11.7844 25.9571 11.8859 25.8309 11.9629C25.7078 12.0367 25.5693 12.0737 25.4154 12.0737ZM28.7508 11.9998V2.54528H34.4568V3.56091H29.8957V6.51545H32.2963C32.9733 6.51545 33.5442 6.62625 34.009 6.84784C34.4768 7.06943 34.8307 7.38181 35.0708 7.78499C35.3139 8.18816 35.4355 8.66366 35.4355 9.21148C35.4355 9.7593 35.3139 10.2425 35.0708 10.661C34.8307 11.0796 34.4768 11.4074 34.009 11.6443C33.5442 11.8813 32.9733 11.9998 32.2963 11.9998H28.7508ZM29.8957 11.0026H32.2963C32.7271 11.0026 33.0918 10.9165 33.3904 10.7441C33.692 10.5687 33.9197 10.344 34.0736 10.0701C34.2306 9.79315 34.309 9.50078 34.309 9.19301C34.309 8.7406 34.1351 8.35127 33.7874 8.02504C33.4396 7.69573 32.9426 7.53108 32.2963 7.53108H29.8957V11.0026ZM45.699 7.27256C45.699 8.26972 45.519 9.13146 45.1589 9.85778C44.7988 10.5841 44.3049 11.1442 43.677 11.5382C43.0492 11.9321 42.3321 12.1291 41.5258 12.1291C40.7194 12.1291 40.0023 11.9321 39.3745 11.5382C38.7466 11.1442 38.2527 10.5841 37.8926 9.85778C37.5325 9.13146 37.3525 8.26972 37.3525 7.27256C37.3525 6.2754 37.5325 5.41366 37.8926 4.68733C38.2527 3.961 38.7466 3.40087 39.3745 3.00693C40.0023 2.61299 40.7194 2.41602 41.5258 2.41602C42.3321 2.41602 43.0492 2.61299 43.677 3.00693C44.3049 3.40087 44.7988 3.961 45.1589 4.68733C45.519 5.41366 45.699 6.2754 45.699 7.27256ZM44.5911 7.27256C44.5911 6.4539 44.4541 5.76297 44.1802 5.19976C43.9094 4.63655 43.5416 4.21029 43.0769 3.92099C42.6152 3.6317 42.0982 3.48705 41.5258 3.48705C40.9533 3.48705 40.4347 3.6317 39.97 3.92099C39.5084 4.21029 39.1406 4.63655 38.8667 5.19976C38.5958 5.76297 38.4604 6.4539 38.4604 7.27256C38.4604 8.09121 38.5958 8.78215 38.8667 9.34536C39.1406 9.90857 39.5084 10.3348 39.97 10.6241C40.4347 10.9134 40.9533 11.058 41.5258 11.058C42.0982 11.058 42.6152 10.9134 43.0769 10.6241C43.5416 10.3348 43.9094 9.90857 44.1802 9.34536C44.4541 8.78215 44.5911 8.09121 44.5911 7.27256ZM47.2133 11.9998V10.9472H47.4902C47.8842 10.9472 48.1904 10.8211 48.4089 10.5687C48.6274 10.3163 48.7844 9.90857 48.8798 9.34536C48.9783 8.78215 49.0445 8.03581 49.0783 7.10636L49.2445 2.54528H55.0059V11.9998H53.861V3.56091H50.334L50.1863 7.32795C50.1493 8.31896 50.0585 9.16224 49.9139 9.85778C49.7692 10.5533 49.5153 11.0842 49.1522 11.4504C48.789 11.8167 48.2597 11.9998 47.5641 11.9998H47.2133ZM58.5444 6.51545H61.2404C61.9175 6.51545 62.4884 6.62625 62.9531 6.84784C63.4209 7.06943 63.7749 7.38181 64.0149 7.78499C64.2581 8.18816 64.3796 8.66366 64.3796 9.21148C64.3796 9.7593 64.2581 10.2425 64.0149 10.661C63.7749 11.0796 63.4209 11.4074 62.9531 11.6443C62.4884 11.8813 61.9175 11.9998 61.2404 11.9998H57.695V2.54528H58.8399V11.0026H61.2404C61.6713 11.0026 62.036 10.9165 62.3345 10.7441C62.6361 10.5687 62.8639 10.344 63.0178 10.0701C63.1747 9.79315 63.2532 9.50078 63.2532 9.19301C63.2532 8.7406 63.0793 8.35127 62.7316 8.02504C62.3838 7.69573 61.8867 7.53108 61.2404 7.53108H58.5444V6.51545ZM66.5898 2.54528H67.7347V10.9472H71.0585V2.54528H72.2034V10.9472H75.5273V2.54528H76.6722V11.9998H66.5898V2.54528ZM79.7571 11.9998H78.5568L82.0284 2.54528H83.2103L86.6818 11.9998H85.4816L82.6563 4.04102H82.5824L79.7571 11.9998ZM80.2003 8.30665H85.0384V9.32227H80.2003V8.30665ZM94.9823 11.9998H93.8374V3.56091H91.8246C91.3137 3.56091 90.9029 3.63939 90.592 3.79635C90.2812 3.95023 90.055 4.16875 89.9134 4.45189C89.7718 4.73503 89.701 5.06588 89.701 5.44443C89.701 5.82298 89.7703 6.14921 89.9088 6.42313C90.0503 6.69396 90.275 6.90324 90.5828 7.05097C90.8936 7.19869 91.3014 7.27256 91.8061 7.27256H94.3544V8.30665H91.7692C91.0367 8.30665 90.435 8.18508 89.9642 7.94195C89.4933 7.69573 89.144 7.35719 88.9162 6.92632C88.6885 6.49545 88.5746 6.00149 88.5746 5.44443C88.5746 4.88738 88.6885 4.39034 88.9162 3.95331C89.144 3.51628 89.4948 3.17312 89.9688 2.92384C90.4427 2.67147 91.049 2.54528 91.7877 2.54528H94.9823V11.9998ZM90.532 7.75267H91.8246L89.5348 11.9998H88.2053L90.532 7.75267Z" fill="#424649"/>
</g>
</g>
</g>
</g>
<defs>
<clipPath id="clip0_324_30">
<rect width="154" height="134" fill="white"/>
</clipPath>
</defs>
</svg>
