<svg width="154" height="144" viewBox="0 0 154 144" fill="none" xmlns="http://www.w3.org/2000/svg">
<mask id="mask0_312_30" style="mask-type:luminance" maskUnits="userSpaceOnUse" x="0" y="10" width="154" height="134">
<path d="M154 10H0V143.803H154V10Z" fill="white"/>
</mask>
<g mask="url(#mask0_312_30)">
<mask id="mask1_312_30" style="mask-type:luminance" maskUnits="userSpaceOnUse" x="0" y="10" width="154" height="134">
<path d="M154 10H0V143.803H154V10Z" fill="white"/>
</mask>
<g mask="url(#mask1_312_30)">
<mask id="mask2_312_30" style="mask-type:luminance" maskUnits="userSpaceOnUse" x="0" y="10" width="154" height="134">
<path d="M154 10H0V143.803H154V10Z" fill="white"/>
</mask>
<g mask="url(#mask2_312_30)">
<path d="M27.4029 138.355L16.1794 143.761C15.9416 143.874 15.6521 143.761 15.3006 143.411C14.949 143.061 14.8301 142.768 14.949 142.537L63.524 44.6729C63.8756 43.8603 63.5809 43.4538 62.6452 43.4538C43.0051 43.4538 29.476 43.6905 22.0523 44.1535C14.6285 44.6215 9.77928 45.5783 7.49945 47.0337C5.21959 48.4895 3.43603 51.2514 2.15393 55.3197C2.15393 55.6694 1.91612 55.8445 1.45084 55.8445C1.0993 55.8445 0.747755 55.7571 0.396212 55.582C0.0446701 55.4071 -0.0742339 55.2068 0.0446701 54.9701L6.18632 29.8444C6.30005 29.613 6.71364 29.5255 7.41157 29.5821C8.11463 29.6438 8.40414 29.7879 8.29041 30.0193C8.1715 30.4874 8.11463 31.0685 8.11463 31.7629C8.11463 32.9253 8.6678 33.6814 9.77928 34.0312C10.8908 34.3809 13.1396 34.5558 16.531 34.5558H69.1331C69.7172 34.5558 70.1568 34.8181 70.4462 35.3427C70.7359 35.8674 70.7668 36.3611 70.5342 36.824L31.0838 134.168C30.1481 136.144 28.9177 137.542 27.4029 138.355Z" fill="#F6F6F6"/>
<path d="M148.066 71.1885C152.018 75.4885 154 80.7747 154 87.0477C154 92.6216 152.368 97.7948 149.111 102.557C145.853 107.32 141.401 111.127 135.756 113.973C130.11 116.819 124.032 118.242 117.517 118.242C111.001 118.242 104.656 116.382 99.19 112.668C93.7195 108.954 89.4429 103.724 86.36 96.9832C83.2772 90.2482 81.7334 82.6397 81.7334 74.1577C81.7334 63.9394 84.0595 54.2658 88.717 45.147C93.3696 36.0281 100.24 28.3067 109.313 21.9722C118.391 15.6327 129.215 11.6512 141.782 10.0278C142.245 9.91479 142.539 10.146 142.657 10.7265C142.77 11.307 142.657 11.6564 142.307 11.7694C131.716 13.8603 122.812 17.8675 115.602 23.7909C108.387 29.7143 102.973 36.7731 99.3702 44.9621C95.7625 53.1509 93.9612 61.7203 93.9612 70.6643C93.9612 78.3293 95.1554 85.5629 97.5383 92.3597C99.9209 99.1565 103.297 104.618 107.661 108.738C112.025 112.863 117.002 114.923 122.586 114.923C128.52 114.923 133.172 112.806 136.548 108.563C139.924 104.325 141.612 98.6633 141.612 91.5736C141.612 84.4839 140.099 79.4957 137.073 75.5399C134.047 71.5943 129.683 69.6163 123.981 69.6163C120.841 69.6163 117.928 70.2279 115.252 71.4454C112.576 72.6679 109.668 74.728 106.524 77.6306C106.406 77.749 106.23 77.8054 105.999 77.8054C105.649 77.8054 105.299 77.6306 104.949 77.2813C104.599 76.9319 104.481 76.6445 104.599 76.4081C107.625 72.5754 111.346 69.6728 115.772 67.6951C120.193 65.7221 125.025 64.7306 130.259 64.7306C138.169 64.7306 144.108 66.8834 148.066 71.1781V71.1885Z" fill="#F6F6F6"/>
</g>
</g>
</g>
<path d="M2.08452 12.1291V11.058H2.67543C2.90317 11.058 3.09399 11.0134 3.24787 10.9242C3.40483 10.8349 3.53409 10.7195 3.63566 10.5779C3.7403 10.4364 3.82647 10.2886 3.89418 10.1347L4.04191 9.78392L0.773438 2.54528H2.01066L4.61435 8.41744L6.99645 2.54528H8.2152L4.94674 10.4671C4.81747 10.7626 4.66975 11.0365 4.50355 11.2889C4.34044 11.5412 4.11731 11.7444 3.83416 11.8982C3.5541 12.0521 3.17401 12.1291 2.69389 12.1291H2.08452ZM9.28738 11.9998V10.9472H9.56437C9.95831 10.9472 10.2645 10.8211 10.483 10.5687C10.7015 10.3163 10.8585 9.90857 10.9539 9.34536C11.0524 8.78215 11.1186 8.03581 11.1524 7.10636L11.3186 2.54528H17.08V11.9998H15.9351V3.56091H12.4081L12.2604 7.32795C12.2234 8.31896 12.1327 9.16224 11.988 9.85778C11.8434 10.5533 11.5894 11.0842 11.2263 11.4504C10.8631 11.8167 10.3338 11.9998 9.63824 11.9998H9.28738ZM20.4154 12.0737C20.1876 12.0737 19.9922 11.9921 19.8291 11.829C19.666 11.6659 19.5844 11.4704 19.5844 11.2427C19.5844 11.015 19.666 10.8195 19.8291 10.6564C19.9922 10.4933 20.1876 10.4117 20.4154 10.4117C20.6431 10.4117 20.8386 10.4933 21.0017 10.6564C21.1648 10.8195 21.2464 11.015 21.2464 11.2427C21.2464 11.3935 21.2079 11.532 21.1309 11.6582C21.0571 11.7844 20.9571 11.8859 20.8309 11.9629C20.7078 12.0367 20.5693 12.0737 20.4154 12.0737ZM23.7508 11.9998V2.54528H29.4568V3.56091H24.8957V6.51545H27.2963C27.9733 6.51545 28.5442 6.62625 29.009 6.84784C29.4768 7.06943 29.8307 7.38181 30.0708 7.78499C30.3139 8.18816 30.4355 8.66366 30.4355 9.21148C30.4355 9.7593 30.3139 10.2425 30.0708 10.661C29.8307 11.0796 29.4768 11.4074 29.009 11.6443C28.5442 11.8813 27.9733 11.9998 27.2963 11.9998H23.7508ZM24.8957 11.0026H27.2963C27.7271 11.0026 28.0918 10.9165 28.3904 10.7441C28.692 10.5687 28.9197 10.344 29.0736 10.0701C29.2306 9.79315 29.309 9.50078 29.309 9.19301C29.309 8.7406 29.1351 8.35127 28.7874 8.02504C28.4396 7.69573 27.9426 7.53108 27.2963 7.53108H24.8957V11.0026ZM40.699 7.27256C40.699 8.26972 40.519 9.13146 40.1589 9.85778C39.7988 10.5841 39.3049 11.1442 38.677 11.5382C38.0492 11.9321 37.3321 12.1291 36.5258 12.1291C35.7194 12.1291 35.0023 11.9321 34.3745 11.5382C33.7466 11.1442 33.2527 10.5841 32.8926 9.85778C32.5325 9.13146 32.3525 8.26972 32.3525 7.27256C32.3525 6.2754 32.5325 5.41366 32.8926 4.68733C33.2527 3.961 33.7466 3.40087 34.3745 3.00693C35.0023 2.61299 35.7194 2.41602 36.5258 2.41602C37.3321 2.41602 38.0492 2.61299 38.677 3.00693C39.3049 3.40087 39.7988 3.961 40.1589 4.68733C40.519 5.41366 40.699 6.2754 40.699 7.27256ZM39.5911 7.27256C39.5911 6.4539 39.4541 5.76297 39.1802 5.19976C38.9094 4.63655 38.5416 4.21029 38.0769 3.92099C37.6152 3.6317 37.0982 3.48705 36.5258 3.48705C35.9533 3.48705 35.4347 3.6317 34.97 3.92099C34.5084 4.21029 34.1406 4.63655 33.8667 5.19976C33.5958 5.76297 33.4604 6.4539 33.4604 7.27256C33.4604 8.09121 33.5958 8.78215 33.8667 9.34536C34.1406 9.90857 34.5084 10.3348 34.97 10.6241C35.4347 10.9134 35.9533 11.058 36.5258 11.058C37.0982 11.058 37.6152 10.9134 38.0769 10.6241C38.5416 10.3348 38.9094 9.90857 39.1802 9.34536C39.4541 8.78215 39.5911 8.09121 39.5911 7.27256ZM42.2133 11.9998V10.9472H42.4902C42.8842 10.9472 43.1904 10.8211 43.4089 10.5687C43.6274 10.3163 43.7844 9.90857 43.8798 9.34536C43.9783 8.78215 44.0445 8.03581 44.0783 7.10636L44.2445 2.54528H50.0059V11.9998H48.861V3.56091H45.334L45.1863 7.32795C45.1493 8.31896 45.0585 9.16224 44.9139 9.85778C44.7692 10.5533 44.5153 11.0842 44.1522 11.4504C43.789 11.8167 43.2597 11.9998 42.5641 11.9998H42.2133ZM53.5444 6.51545H56.2404C56.9175 6.51545 57.4884 6.62625 57.9531 6.84784C58.4209 7.06943 58.7749 7.38181 59.0149 7.78499C59.2581 8.18816 59.3796 8.66366 59.3796 9.21148C59.3796 9.7593 59.2581 10.2425 59.0149 10.661C58.7749 11.0796 58.4209 11.4074 57.9531 11.6443C57.4884 11.8813 56.9175 11.9998 56.2404 11.9998H52.695V2.54528H53.8399V11.0026H56.2404C56.6713 11.0026 57.036 10.9165 57.3345 10.7441C57.6361 10.5687 57.8639 10.344 58.0178 10.0701C58.1747 9.79315 58.2532 9.50078 58.2532 9.19301C58.2532 8.7406 58.0793 8.35127 57.7316 8.02504C57.3838 7.69573 56.8867 7.53108 56.2404 7.53108H53.5444V6.51545ZM61.5898 2.54528H62.7347V10.9472H66.0585V2.54528H67.2034V10.9472H70.5273V2.54528H71.6722V11.9998H61.5898V2.54528ZM74.7571 11.9998H73.5568L77.0284 2.54528H78.2103L81.6818 11.9998H80.4816L77.6563 4.04102H77.5824L74.7571 11.9998ZM75.2003 8.30665H80.0384V9.32227H75.2003V8.30665ZM89.9823 11.9998H88.8374V3.56091H86.8246C86.3137 3.56091 85.9029 3.63939 85.592 3.79635C85.2812 3.95023 85.055 4.16875 84.9134 4.45189C84.7718 4.73503 84.701 5.06588 84.701 5.44443C84.701 5.82298 84.7703 6.14921 84.9088 6.42313C85.0503 6.69396 85.275 6.90324 85.5828 7.05097C85.8936 7.19869 86.3014 7.27256 86.8061 7.27256H89.3544V8.30665H86.7692C86.0367 8.30665 85.435 8.18508 84.9642 7.94195C84.4933 7.69573 84.144 7.35719 83.9162 6.92632C83.6885 6.49545 83.5746 6.00149 83.5746 5.44443C83.5746 4.88738 83.6885 4.39034 83.9162 3.95331C84.144 3.51628 84.4948 3.17312 84.9688 2.92384C85.4427 2.67147 86.049 2.54528 86.7877 2.54528H89.9823V11.9998ZM85.532 7.75267H86.8246L84.5348 11.9998H83.2053L85.532 7.75267Z" fill="#F6F6F6"/>
</svg>
