<svg width="154" height="144" viewBox="0 0 154 144" fill="none" xmlns="http://www.w3.org/2000/svg">
<g clip-path="url(#clip0_297_36)">
<g clip-path="url(#clip1_297_36)">
<g clip-path="url(#clip2_297_36)">
<path d="M27.4029 138.355L16.1794 143.761C15.9416 143.874 15.6521 143.761 15.3006 143.411C14.949 143.061 14.8301 142.768 14.949 142.537L63.524 44.6729C63.8756 43.8603 63.5809 43.4538 62.6452 43.4538C43.0051 43.4538 29.476 43.6905 22.0523 44.1535C14.6285 44.6215 9.77928 45.5783 7.49945 47.0337C5.21959 48.4895 3.43603 51.2514 2.15393 55.3197C2.15393 55.6694 1.91612 55.8445 1.45084 55.8445C1.0993 55.8445 0.747755 55.7571 0.396212 55.582C0.0446701 55.4071 -0.0742339 55.2068 0.0446701 54.9701L6.18632 29.8444C6.30005 29.613 6.71364 29.5255 7.41157 29.5821C8.11463 29.6438 8.40414 29.7879 8.29041 30.0193C8.1715 30.4874 8.11463 31.0685 8.11463 31.7629C8.11463 32.9253 8.6678 33.6814 9.77928 34.0312C10.8908 34.3809 13.1396 34.5558 16.531 34.5558H69.1331C69.7172 34.5558 70.1568 34.8181 70.4462 35.3427C70.7359 35.8674 70.7668 36.3611 70.5342 36.824L31.0838 134.168C30.1481 136.144 28.9177 137.542 27.4029 138.355Z" fill="#F6F6F6"/>
<path d="M148.066 71.1885C152.018 75.4885 154 80.7747 154 87.0477C154 92.6216 152.368 97.7948 149.111 102.557C145.853 107.32 141.401 111.127 135.756 113.973C130.11 116.819 124.032 118.242 117.517 118.242C111.001 118.242 104.656 116.382 99.19 112.668C93.7195 108.954 89.4429 103.724 86.36 96.9832C83.2772 90.2482 81.7334 82.6397 81.7334 74.1577C81.7334 63.9394 84.0595 54.2658 88.717 45.147C93.3696 36.0281 100.24 28.3067 109.313 21.9722C118.391 15.6327 129.215 11.6512 141.782 10.0278C142.245 9.91479 142.539 10.146 142.657 10.7265C142.77 11.307 142.657 11.6564 142.307 11.7694C131.716 13.8603 122.812 17.8675 115.602 23.7909C108.387 29.7143 102.973 36.7731 99.3702 44.9621C95.7625 53.1509 93.9612 61.7203 93.9612 70.6643C93.9612 78.3293 95.1554 85.5629 97.5383 92.3597C99.9209 99.1565 103.297 104.618 107.661 108.738C112.025 112.863 117.002 114.923 122.586 114.923C128.52 114.923 133.172 112.806 136.548 108.563C139.924 104.325 141.612 98.6633 141.612 91.5736C141.612 84.4839 140.099 79.4957 137.073 75.5399C134.047 71.5943 129.683 69.6163 123.981 69.6163C120.841 69.6163 117.928 70.2279 115.252 71.4454C112.576 72.6679 109.668 74.728 106.524 77.6306C106.406 77.749 106.23 77.8054 105.999 77.8054C105.649 77.8054 105.299 77.6306 104.949 77.2813C104.599 76.9319 104.481 76.6445 104.599 76.4081C107.625 72.5754 111.346 69.6728 115.772 67.6951C120.193 65.7221 125.025 64.7306 130.259 64.7306C138.169 64.7306 144.108 66.8834 148.066 71.1781V71.1885Z" fill="#F6F6F6"/>
</g>
</g>
</g>
<path d="M2.0844 12.1293V11.0582H2.67531C2.90305 11.0582 3.09387 11.0136 3.24775 10.9244C3.40471 10.8351 3.53397 10.7197 3.63554 10.5781C3.74018 10.4366 3.82635 10.2888 3.89406 10.1349L4.04179 9.78409L0.77332 2.54545H2.01054L4.61423 8.41761L6.99633 2.54545H8.21508L4.94662 10.4673C4.81735 10.7628 4.66963 11.0367 4.50343 11.2891C4.34032 11.5414 4.11719 11.7446 3.83404 11.8984C3.55398 12.0523 3.17389 12.1293 2.69377 12.1293H2.0844ZM9.28726 12V10.9474H9.56425C9.95819 10.9474 10.2644 10.8213 10.4829 10.5689C10.7014 10.3165 10.8584 9.90874 10.9538 9.34553C11.0523 8.78232 11.1185 8.03598 11.1523 7.10653L11.3185 2.54545H17.0799V12H15.935V3.56108H12.408L12.2603 7.32812C12.2233 8.31913 12.1326 9.16241 11.9879 9.85795C11.8433 10.5535 11.5893 11.0844 11.2262 11.4506C10.863 11.8169 10.3337 12 9.63812 12H9.28726ZM20.4153 12.0739C20.1875 12.0739 19.9921 11.9923 19.829 11.8292C19.6659 11.6661 19.5843 11.4706 19.5843 11.2429C19.5843 11.0152 19.6659 10.8197 19.829 10.6566C19.9921 10.4935 20.1875 10.4119 20.4153 10.4119C20.643 10.4119 20.8385 10.4935 21.0016 10.6566C21.1647 10.8197 21.2463 11.0152 21.2463 11.2429C21.2463 11.3937 21.2078 11.5322 21.1308 11.6584C21.057 11.7846 20.957 11.8861 20.8308 11.9631C20.7077 12.0369 20.5692 12.0739 20.4153 12.0739ZM23.7507 12V2.54545H29.4567V3.56108H24.8956V6.51562H27.2962C27.9732 6.51562 28.5441 6.62642 29.0089 6.84801C29.4767 7.0696 29.8306 7.38198 30.0707 7.78516C30.3138 8.18833 30.4354 8.66383 30.4354 9.21165C30.4354 9.75947 30.3138 10.2427 30.0707 10.6612C29.8306 11.0798 29.4767 11.4076 29.0089 11.6445C28.5441 11.8815 27.9732 12 27.2962 12H23.7507ZM24.8956 11.0028H27.2962C27.727 11.0028 28.0917 10.9167 28.3903 10.7443C28.6919 10.5689 28.9196 10.3442 29.0735 10.0703C29.2305 9.79332 29.3089 9.50095 29.3089 9.19318C29.3089 8.74077 29.135 8.35144 28.7873 8.02521C28.4395 7.6959 27.9425 7.53125 27.2962 7.53125H24.8956V11.0028ZM40.6989 7.27273C40.6989 8.26989 40.5189 9.13163 40.1588 9.85795C39.7987 10.5843 39.3048 11.1444 38.6769 11.5384C38.0491 11.9323 37.332 12.1293 36.5257 12.1293C35.7193 12.1293 35.0022 11.9323 34.3744 11.5384C33.7465 11.1444 33.2526 10.5843 32.8925 9.85795C32.5324 9.13163 32.3524 8.26989 32.3524 7.27273C32.3524 6.27557 32.5324 5.41383 32.8925 4.6875C33.2526 3.96117 33.7465 3.40104 34.3744 3.0071C35.0022 2.61316 35.7193 2.41619 36.5257 2.41619C37.332 2.41619 38.0491 2.61316 38.6769 3.0071C39.3048 3.40104 39.7987 3.96117 40.1588 4.6875C40.5189 5.41383 40.6989 6.27557 40.6989 7.27273ZM39.591 7.27273C39.591 6.45407 39.454 5.76314 39.1801 5.19993C38.9093 4.63672 38.5415 4.21046 38.0768 3.92116C37.6151 3.63187 37.0981 3.48722 36.5257 3.48722C35.9532 3.48722 35.4346 3.63187 34.9699 3.92116C34.5083 4.21046 34.1405 4.63672 33.8666 5.19993C33.5957 5.76314 33.4603 6.45407 33.4603 7.27273C33.4603 8.09138 33.5957 8.78232 33.8666 9.34553C34.1405 9.90874 34.5083 10.335 34.9699 10.6243C35.4346 10.9136 35.9532 11.0582 36.5257 11.0582C37.0981 11.0582 37.6151 10.9136 38.0768 10.6243C38.5415 10.335 38.9093 9.90874 39.1801 9.34553C39.454 8.78232 39.591 8.09138 39.591 7.27273ZM42.2132 12V10.9474H42.4901C42.8841 10.9474 43.1903 10.8213 43.4088 10.5689C43.6273 10.3165 43.7843 9.90874 43.8797 9.34553C43.9782 8.78232 44.0444 8.03598 44.0782 7.10653L44.2444 2.54545H50.0058V12H48.8609V3.56108H45.3339L45.1862 7.32812C45.1492 8.31913 45.0584 9.16241 44.9138 9.85795C44.7691 10.5535 44.5152 11.0844 44.1521 11.4506C43.7889 11.8169 43.2596 12 42.564 12H42.2132ZM53.5443 6.51562H56.2403C56.9174 6.51562 57.4883 6.62642 57.953 6.84801C58.4208 7.0696 58.7748 7.38198 59.0148 7.78516C59.258 8.18833 59.3795 8.66383 59.3795 9.21165C59.3795 9.75947 59.258 10.2427 59.0148 10.6612C58.7748 11.0798 58.4208 11.4076 57.953 11.6445C57.4883 11.8815 56.9174 12 56.2403 12H52.6949V2.54545H53.8398V11.0028H56.2403C56.6712 11.0028 57.0359 10.9167 57.3344 10.7443C57.636 10.5689 57.8638 10.3442 58.0177 10.0703C58.1746 9.79332 58.2531 9.50095 58.2531 9.19318C58.2531 8.74077 58.0792 8.35144 57.7315 8.02521C57.3837 7.6959 56.8866 7.53125 56.2403 7.53125H53.5443V6.51562ZM61.5897 2.54545H62.7346V10.9474H66.0584V2.54545H67.2033V10.9474H70.5272V2.54545H71.6721V12H61.5897V2.54545ZM74.757 12H73.5567L77.0283 2.54545H78.2102L81.6817 12H80.4815L77.6562 4.04119H77.5823L74.757 12ZM75.2002 8.30682H80.0383V9.32244H75.2002V8.30682ZM89.9822 12H88.8373V3.56108H86.8245C86.3136 3.56108 85.9028 3.63956 85.5919 3.79652C85.2811 3.9504 85.0549 4.16892 84.9133 4.45206C84.7717 4.7352 84.7009 5.06605 84.7009 5.4446C84.7009 5.82315 84.7702 6.14938 84.9087 6.4233C85.0502 6.69413 85.2749 6.90341 85.5827 7.05114C85.8935 7.19886 86.3013 7.27273 86.806 7.27273H89.3543V8.30682H86.7691C86.0366 8.30682 85.4349 8.18525 84.9641 7.94212C84.4932 7.6959 84.1439 7.35736 83.9161 6.92649C83.6884 6.49562 83.5745 6.00166 83.5745 5.4446C83.5745 4.88755 83.6884 4.39051 83.9161 3.95348C84.1439 3.51645 84.4947 3.17329 84.9687 2.92401C85.4426 2.67164 86.0489 2.54545 86.7876 2.54545H89.9822V12ZM85.5319 7.75284H86.8245L84.5347 12H83.2052L85.5319 7.75284Z" fill="#020202"/>
<defs>
<clipPath id="clip0_297_36">
<rect width="154" height="133.803" fill="white" transform="translate(0 10)"/>
</clipPath>
<clipPath id="clip1_297_36">
<rect width="154" height="133.803" fill="white" transform="translate(0 10)"/>
</clipPath>
<clipPath id="clip2_297_36">
<rect width="154" height="133.803" fill="white" transform="translate(0 10)"/>
</clipPath>
</defs>
</svg>
