<svg width="668" height="144" viewBox="0 0 668 144" fill="none" xmlns="http://www.w3.org/2000/svg">
<mask id="mask0_453_205" style="mask-type:luminance" maskUnits="userSpaceOnUse" x="0" y="7" width="508" height="137">
<path d="M507.983 7H0V144H507.983V7Z" fill="white"/>
</mask>
<g mask="url(#mask0_453_205)">
<path d="M45.9187 15.3037L39.6377 29.8233H37.6265L43.8921 15.3037H45.9187Z" fill="#141414"/>
<path fill-rule="evenodd" clip-rule="evenodd" d="M140.271 61.324C137.471 58.2038 133.912 56.2751 128.714 55.0835C128.436 55.0207 127.956 54.9111 127.539 54.8011C127.956 54.6758 128.467 54.5191 128.962 54.3467C130.401 53.8448 132.783 53.0138 134.454 51.5556C136.619 49.9249 137.795 47.1024 137.594 44.0293C137.378 40.7363 135.692 37.8826 133.077 36.3931C131.251 35.3582 128.529 34.1038 125.945 34.0724C125.273 34.0724 124.535 34.0603 123.747 34.0474C123.265 34.0395 122.764 34.0313 122.248 34.0254H109.377C107.366 34.0254 105.494 34.0254 103.916 34.0568H98.0988L99.0428 34.5115C100.899 35.3739 101.843 37.1143 101.843 39.6858C101.92 53.5782 101.935 68.7093 101.935 80.3597C101.935 82.9309 101.935 85.8316 98.857 87.494L98.0527 87.9327H98.9652C98.9652 87.9327 102.957 87.9642 107.861 87.9642C113.151 87.9642 119.602 87.9327 123.609 87.7917C127.09 87.6664 130.679 87.0235 134.036 85.9259C138.724 84.3891 142.297 80.485 143.597 75.4674C144.927 70.3714 143.674 65.0715 140.271 61.3083V61.324ZM107.613 52.4337C107.644 50.756 107.644 49.0311 107.613 47.3848V43.3707C107.613 42.8688 107.615 42.3455 107.616 41.8132V41.7851C107.62 40.6798 107.624 39.5359 107.613 38.4628V37.1771C107.613 36.2676 107.783 35.8286 108.742 35.8286H122.387C127.059 35.8286 131.02 39.3879 131.422 43.935V44.0293C131.747 48.0901 130.401 51.2575 127.755 52.7C126.162 53.5782 123.083 53.8919 121.413 53.8919H108.727C107.783 53.8919 107.613 53.4686 107.598 52.6375V52.4337H107.613ZM137.826 73.4448C137.3 78.6191 136.078 82.0528 131.298 84.4205C131.262 84.4423 131.204 84.4737 131.15 84.5027C131.086 84.5375 131.028 84.5689 131.02 84.5772C128.915 85.424 123.006 86.1297 121.428 86.1297H108.572C107.814 86.0826 107.598 85.7534 107.613 84.6872V83.511C107.644 80.5946 107.644 77.6313 107.613 74.7617V68.0821C107.613 67.0149 107.615 65.9352 107.617 64.8516V64.8472C107.62 62.6689 107.623 60.4746 107.613 58.3294V56.9965C107.613 56.4478 107.69 56.134 107.876 55.9459C108.046 55.7735 108.325 55.695 108.742 55.695H121.258C123.98 55.695 127.771 56.5731 130.927 57.9528C135.382 59.8815 137.965 64.758 137.965 70.9671C137.965 71.7667 137.919 72.5981 137.826 73.4448Z" fill="#141414"/>
<path fill-rule="evenodd" clip-rule="evenodd" d="M53.7461 87.4769L51.6112 87.9474H66.3387L65.1632 87.4926C62.9972 86.6459 61.9918 84.7329 61.2182 82.9926C58.636 77.126 54.4317 67.5574 50.6111 58.8619L50.5897 58.8135C46.2702 48.9829 42.4462 40.2802 42.0199 39.3241C41.2152 37.5522 40.4263 35.8118 39.7303 34.2124L39.6681 34.0713H31.2989L31.2679 34.5417C33.2945 34.8553 34.8879 36.7055 34.8879 38.7282V38.9791C34.8879 39.0303 34.8895 39.0848 34.8912 39.1404C34.8949 39.2553 34.8985 39.3753 34.8879 39.4809C34.826 40.0924 34.7178 40.406 34.4702 40.939C33.8209 42.4276 33.1679 43.9199 32.5148 45.4122L32.5109 45.4212C31.8581 46.9129 31.2053 48.4045 30.5563 49.8924C28.0192 55.7096 25.3893 61.7149 22.7748 67.6106L21.8621 69.6646C20.8565 71.9381 19.8355 74.2119 18.8145 76.4698C18.5708 77.0225 18.3271 77.6015 18.0835 78.1809C18.0023 78.3741 17.9211 78.5669 17.8398 78.759L17.5459 79.4958C17.2829 80.1387 17.0044 80.7973 16.6796 81.4245L16.6486 81.4873C15.5039 83.9176 13.8176 86.5206 10.0429 87.4769L8.23291 87.9474H22.2334L22.2643 87.4769C20.2068 87.242 18.8609 86.5834 18.2576 85.5328C17.747 84.639 17.778 83.4631 18.3658 82.036L22.156 73.4277C22.2643 73.1614 22.3726 72.9104 22.4964 72.6438C22.5505 72.5342 22.597 72.4246 22.6412 72.3203C22.6603 72.2756 22.6789 72.2315 22.6975 72.189C22.79 72.025 22.8653 71.8696 22.9426 71.7099L22.9856 71.6213L23.0224 71.5461L23.0533 71.4679C23.2235 71.076 23.966 70.6837 24.4611 70.6369C24.7116 70.6068 24.9901 70.5915 25.2566 70.5764L25.2965 70.5741H47.5426C47.8364 70.5741 48.115 70.6055 48.378 70.6369C48.8729 70.6837 49.6157 71.076 49.7858 71.4679L49.9251 71.7657C50.1724 72.3147 50.42 72.8633 50.6365 73.4277C51.936 76.3288 53.2976 79.5272 54.9373 83.4942C55.2467 84.2784 55.5872 85.2819 55.3704 85.9405C55.1695 86.552 54.4578 87.3202 53.7461 87.4769ZM48.3162 68.5826C48.2387 68.6925 48.0997 68.771 47.9603 68.771H24.8633C24.7241 68.771 24.6003 68.7082 24.523 68.5826C24.4456 68.4573 24.4301 68.3163 24.492 68.1749L36.0791 41.9271C36.1566 41.77 36.2956 41.6761 36.466 41.6761C36.6361 41.6761 36.7754 41.7543 36.8373 41.9114L40.0705 49.2963C42.623 55.1452 45.9184 62.6558 48.3469 68.1906C48.3934 68.3163 48.3934 68.4573 48.3162 68.5826Z" fill="#141414"/>
<path d="M461.37 39.8896C461.416 40.705 461.463 69.0697 461.416 81.0806V81.1371C461.4 83.1146 461.383 85.344 459.559 86.8353C459.265 87.0705 458.927 87.3054 458.523 87.5096L457.657 87.9483H471.083L470.064 87.4939C469.616 87.3054 469.212 87.0705 468.871 86.8196C467.281 85.5809 467.063 83.8246 466.987 82.1312C466.97 81.504 466.94 79.983 466.923 78.8542V77.0939C466.92 72.5876 466.913 51.9434 466.953 40.9403C466.953 38.9488 466.97 36.6752 468.811 35.1856C469.105 34.9347 469.459 34.6995 469.83 34.5114L470.712 34.0566H457.286L458.306 34.5114C458.757 34.7152 459.158 34.9347 459.482 35.2013C461.092 36.44 461.306 38.2589 461.37 39.8896Z" fill="#141414"/>
<path d="M499.75 63.2207C499.75 64.7575 498.53 66.0119 497.013 66.0119C495.496 66.0119 494.273 64.7575 494.273 63.2207C494.273 61.684 495.496 60.4453 497.013 60.4453C498.53 60.4453 499.75 61.6997 499.75 63.2207Z" fill="#141414"/>
<path d="M499.75 85.1706C499.75 86.7037 498.527 87.946 497.013 87.946C495.499 87.946 494.273 86.7037 494.273 85.1706C494.273 83.6379 495.499 82.3955 497.013 82.3955C498.527 82.3955 499.75 83.6379 499.75 85.1706Z" fill="#141414"/>
<path fill-rule="evenodd" clip-rule="evenodd" d="M271.226 87.8702C269.849 87.8074 268.503 87.635 267.157 87.3683C263.862 86.7097 260.799 85.4553 257.968 83.5894C255.137 81.7236 252.754 79.4029 250.929 76.5179C248.655 72.9429 247.479 68.9916 247.015 64.8051C246.96 64.2765 246.921 63.7482 246.883 63.2232C246.856 62.86 246.83 62.4985 246.798 62.1392C246.798 61.9982 246.772 61.8572 246.746 61.7159C246.737 61.6691 246.729 61.622 246.721 61.5749V59.6619C246.729 59.5951 246.738 59.5292 246.748 59.4641C246.773 59.2846 246.798 59.1089 246.798 58.9251C246.86 57.5294 247.03 56.1497 247.293 54.77C247.989 51.1635 249.382 47.8395 251.424 44.8131C253.203 42.179 255.384 39.9837 258.03 38.2746C261.665 35.9226 265.703 34.6055 269.973 34.1978C270.607 34.1351 272.881 34.041 273.392 34.041C274.032 34.041 275.167 34.1141 275.935 34.1637L276.222 34.1821C277.816 34.3389 278.651 34.4643 280.167 34.8093C284.081 35.6874 287.608 37.3808 290.718 39.9523C293.75 42.4767 296.071 45.5345 297.618 49.1877C298.933 52.308 299.536 55.601 299.753 58.9722C299.787 59.5112 299.796 60.0592 299.805 60.6025V60.6125C299.808 60.7926 299.811 60.9727 299.815 61.1515C299.846 62.9078 299.722 64.6637 299.443 66.3886C298.917 69.5874 297.865 72.5823 296.256 75.3888C294.895 77.7723 293.224 79.9048 291.182 81.7079C288.676 83.9189 285.814 85.471 282.643 86.4745C281.111 86.9606 279.626 87.3997 278.033 87.6035L277.851 87.6279C276.893 87.7586 275.317 87.9731 271.195 87.8702H271.226ZM293.735 61.4496C293.704 60.0853 293.642 58.7213 293.518 57.3569C293.348 55.6635 293.101 53.9857 292.698 52.3394C292.049 49.6111 291.058 47.0238 289.62 44.6093C288.382 42.5239 286.835 40.7208 284.886 39.3095C282.008 37.224 278.775 36.1108 275.263 35.8755C273.871 35.7815 272.463 35.7972 271.056 35.9069C269.447 36.0324 267.868 36.3773 266.337 36.9261C263.475 37.9453 260.984 39.576 258.973 41.8967C257.674 43.3863 256.653 45.0483 255.786 46.8357C254.487 49.5329 253.713 52.4022 253.28 55.3815C253.064 56.8865 252.94 58.4075 252.878 59.9285C252.785 62.5469 252.94 65.1342 253.404 67.7215C253.946 70.685 254.889 73.5229 256.281 76.1884C257.163 77.8976 258.231 79.4657 259.577 80.8297C262.933 84.2166 267.049 85.863 271.736 86.1139C272.134 86.132 272.537 86.1293 272.939 86.1266C273.241 86.1249 273.542 86.1229 273.84 86.1296C275.263 86.1296 276.687 85.9886 278.079 85.6906C280.678 85.1105 283.045 84.0442 285.164 82.4136C286.866 81.1121 288.243 79.4972 289.403 77.6938C291.739 74.0248 293.008 69.9793 293.503 65.6675C293.658 64.2718 293.719 62.8921 293.688 61.481L293.735 61.4496Z" fill="#141414"/>
<path fill-rule="evenodd" clip-rule="evenodd" d="M361.944 34.2292C365.904 34.7623 369.416 36.4871 372.076 39.184H372.092C374.181 41.3009 375.357 44.6407 375.357 48.0901C375.357 49.1249 375.247 50.1601 375.03 51.1792C374.071 55.6949 371.21 59.0504 366.97 60.6653C364.37 61.6534 361.246 62.2963 357.951 62.5158H357.828C357.781 62.5315 357.734 62.5315 357.687 62.5315C357.504 62.5626 357.27 62.5626 357.069 62.5626C352.869 62.8019 348.568 62.7705 344.385 62.7397L343.767 62.7354H342.373C341.521 62.7354 341.321 63.0802 341.261 63.7074V63.7545C341.274 64.9882 341.287 66.2803 341.301 67.6092V67.6233V67.6293V67.6343C341.311 68.7801 341.321 69.9533 341.338 71.1398C341.368 75.0283 341.414 79.0424 341.475 82.5389C341.521 84.3109 341.909 86.2863 344.509 87.4939L345.481 87.9484H332.039L332.843 87.5093C335.751 85.8944 335.784 83.4013 335.784 80.7672V43.402C335.781 43.2296 335.777 43.0562 335.777 42.8824C335.764 41.6968 335.754 40.4836 335.66 39.2938C335.457 36.9104 334.514 35.2954 332.843 34.5114L331.884 34.0567H338.414C340.409 34.041 342.637 34.041 345.097 34.041H357.874C359.064 34.041 359.639 34.041 359.809 34.0567C360.474 34.0724 361.169 34.1351 361.944 34.2292ZM341.227 37.1299V38.4784C341.244 40.0934 341.244 41.7242 341.244 43.3392V50.2226C341.244 50.7275 341.244 51.2334 341.244 51.7396C341.247 53.2603 341.251 54.7854 341.227 56.2907C341.237 56.562 341.234 56.8333 341.231 57.1047C341.231 57.2407 341.227 57.378 341.227 57.5137V59.4581C341.244 60.3205 341.428 60.7596 342.373 60.7596H354.363C359.776 60.7596 364.033 59.6776 365.747 57.8588C367.047 56.4945 368.006 54.7386 368.594 52.6375C369.045 50.9911 369.306 49.2191 369.306 47.4318C369.306 43.4177 367.946 39.4192 364.093 37.1299C362.7 36.2832 360.952 35.8442 359.064 35.8442H342.357C341.414 35.8442 341.244 36.2519 341.227 37.1299Z" fill="#141414"/>
<path fill-rule="evenodd" clip-rule="evenodd" d="M445.187 70.8103C444.709 68.5525 443.75 66.5767 442.387 64.9775C441.027 63.3626 439.246 62.1235 437.127 61.3239C434.528 60.3362 431.403 59.6933 428.092 59.4738C428.062 59.4738 428.032 59.4738 428.002 59.4581H427.861C427.761 59.4581 427.658 59.4504 427.551 59.4424C427.447 59.4347 427.343 59.4266 427.243 59.4266C422.833 59.176 418.315 59.2228 413.954 59.2699H412.624C411.679 59.2699 411.478 58.9251 411.415 58.2979V58.2351C411.448 55.9301 411.478 53.4214 411.495 50.8498C411.508 49.6211 411.522 48.3798 411.535 47.1464C411.562 44.4763 411.592 41.8422 411.632 39.4506C411.679 37.6787 412.066 35.7031 414.679 34.4957L415.638 34.041H402.212L403.001 34.4801C405.908 36.0951 405.925 38.5882 405.941 41.2224V41.4105C405.971 50.1755 405.971 59.6933 405.955 68.8974V78.5876C405.955 79.9362 405.941 81.3316 405.831 82.6956C405.647 85.0791 404.688 86.694 403.018 87.4782L402.072 87.9327H408.384C410.396 87.9484 412.808 87.9484 415.267 87.9484H428.045C429.238 87.9484 429.826 87.9484 429.95 87.9327C430.645 87.9327 431.343 87.8545 432.115 87.7603C436.091 87.2273 439.587 85.5024 442.25 82.8055C444.91 80.1086 446.133 75.2478 445.187 70.8103ZM429.238 86.1453H412.531C411.585 86.1453 411.415 85.722 411.401 84.8595V71.767C411.415 69.7441 411.415 67.7058 411.401 65.6986V62.5315C411.401 61.6691 411.602 61.23 412.544 61.23H424.537C429.95 61.23 434.22 62.312 435.938 64.1308C437.221 65.4947 438.18 67.251 438.768 69.3521C439.216 70.9985 439.496 72.7862 439.496 74.5578C439.496 78.5719 438.116 82.5703 434.28 84.8595C432.874 85.7063 431.126 86.1453 429.238 86.1453Z" fill="#141414"/>
<path d="M218.008 35.5284V35.4187C217.931 34.1486 216.941 34.1016 216.152 34.1016H215.92C213.702 34.112 211.477 34.1085 209.255 34.105C208.144 34.1033 207.034 34.1016 205.926 34.1016H185.629C184.521 34.1016 183.411 34.1033 182.301 34.105C180.078 34.1085 177.854 34.112 175.636 34.1016H175.485C174.714 34.1014 173.639 34.1011 173.547 35.4343V35.5284C173.532 35.6225 173.532 35.7166 173.547 35.795C173.594 39.6366 173.594 42.3493 173.594 42.3493L173.624 42.9451L174.042 42.4589L174.07 42.4251C174.985 41.3278 175.709 40.459 176.889 39.6209C181.839 36.187 184.624 35.8734 191.925 35.8107C193.008 35.8107 193.117 37.4257 193.117 38.1156V39.323C193.101 45.501 193.101 51.6787 193.101 57.8724C193.101 65.5868 193.101 73.317 193.071 81.0471C193.055 83.5084 193.039 86.0493 190.116 87.4915L189.218 87.9462H202.337L201.44 87.4915C198.517 86.0493 198.5 83.5098 198.485 81.0485C198.454 73.3183 198.454 65.5868 198.454 57.8724C198.454 51.6787 198.454 45.501 198.439 39.323V38.1156C198.439 37.4257 198.547 35.8107 199.63 35.8107C206.932 35.8734 209.716 36.187 214.667 39.6209C215.833 40.45 216.554 41.3088 217.499 42.4335L217.56 42.506L217.962 42.9922V42.3493C217.962 42.3493 217.978 39.6366 218.008 35.8264C218.019 35.7525 218.015 35.6858 218.012 35.6214C218.01 35.59 218.008 35.5592 218.008 35.5284Z" fill="#141414"/>
<path d="M299.048 137.081V117.288H301.136V126.053H311.96V117.288H314.049V137.081H311.96V128.04H301.136V137.081H299.048Z" fill="#141414"/>
<path d="M330.434 129.586L326.691 120.256L322.933 129.586H330.434ZM331.275 131.574H322.106L319.882 137.081H317.657L325.714 117.288H327.654L335.711 137.081H333.5L331.275 131.574Z" fill="#141414"/>
<path d="M346.711 119.276V125.211H352.124C353.841 125.211 355.288 125.79 356.464 126.95C357.647 128.109 358.239 129.508 358.239 131.146C358.239 132.784 357.647 134.183 356.464 135.342C355.288 136.501 353.841 137.081 352.124 137.081H344.622V117.288H356.708V119.276H346.711ZM346.711 135.107H352.124C353.29 135.107 354.252 134.73 355.011 133.975C355.773 133.221 356.15 132.278 356.15 131.146C356.15 130.014 355.773 129.071 355.011 128.316C354.252 127.562 353.29 127.184 352.124 127.184H346.711V135.107Z" fill="#141414"/>
<path d="M365.944 121.347C364.417 122.92 363.652 124.866 363.652 127.185C363.652 129.504 364.417 131.45 365.944 133.024C367.471 134.597 369.349 135.384 371.575 135.384C373.797 135.384 375.675 134.597 377.202 133.024C378.732 131.45 379.494 129.504 379.494 127.185C379.494 124.866 378.732 122.92 377.202 121.347C375.675 119.773 373.797 118.986 371.575 118.986C369.349 118.986 367.471 119.773 365.944 121.347ZM378.655 119.98C380.597 121.959 381.569 124.36 381.569 127.185C381.569 130.01 380.597 132.412 378.655 134.39C376.71 136.368 374.348 137.358 371.575 137.358C368.798 137.358 366.439 136.368 364.494 134.39C362.549 132.412 361.577 130.01 361.577 127.185C361.577 124.36 362.549 121.959 364.494 119.98C366.439 118.002 368.798 117.013 371.575 117.013C374.348 117.013 376.71 118.002 378.655 119.98Z" fill="#141414"/>
<path d="M400.167 117.288V137.081H398.092V119.276H389.749V123.223C389.749 126.14 389.628 128.56 389.381 130.484C389.147 132.397 388.776 133.847 388.272 134.831C387.774 135.806 387.216 136.474 386.601 136.833C385.996 137.182 385.241 137.357 384.335 137.357C384.038 137.357 383.741 137.334 383.443 137.288C383.153 137.242 382.932 137.192 382.778 137.136L382.534 137.081V134.955C383.086 135.14 383.59 135.236 384.051 135.245C384.623 135.245 385.104 135.102 385.505 134.817C385.909 134.532 386.29 133.985 386.644 133.175C386.995 132.365 387.253 131.137 387.416 129.489C387.587 127.842 387.674 125.754 387.674 123.223V117.288H400.167Z" fill="#141414"/>
<path d="M413.376 137.081H406.012V117.288H408.1V124.645H413.376C415.177 124.645 416.668 125.238 417.854 126.425C419.037 127.613 419.631 129.094 419.631 130.87C419.631 132.636 419.037 134.113 417.854 135.301C416.668 136.487 415.177 137.081 413.376 137.081ZM408.1 135.107H413.376C414.633 135.107 415.642 134.721 416.4 133.948C417.162 133.175 417.54 132.149 417.54 130.87C417.54 129.582 417.162 128.551 416.4 127.778C415.642 127.005 414.633 126.619 413.376 126.619H408.1V135.107Z" fill="#141414"/>
<path d="M424.216 137.081V117.288H426.304V135.107H434.361V117.288H436.436V135.107H444.492V117.288H446.58V137.081H424.216Z" fill="#141414"/>
<path d="M455.519 121.347C453.992 122.92 453.227 124.866 453.227 127.185C453.227 129.504 453.992 131.45 455.519 133.024C457.049 134.597 458.924 135.384 461.149 135.384C463.375 135.384 465.249 134.597 466.78 133.024C468.307 131.45 469.072 129.504 469.072 127.185C469.072 124.866 468.307 122.92 466.78 121.347C465.249 119.773 463.375 118.986 461.149 118.986C458.924 118.986 457.049 119.773 455.519 121.347ZM468.23 119.98C470.174 121.959 471.147 124.36 471.147 127.185C471.147 130.01 470.174 132.412 468.23 134.39C466.285 136.368 463.926 137.358 461.149 137.358C458.372 137.358 456.013 136.368 454.069 134.39C452.124 132.412 451.151 130.01 451.151 127.185C451.151 124.36 452.124 121.959 454.069 119.98C456.013 118.002 458.372 117.013 461.149 117.013C463.926 117.013 466.285 118.002 468.23 119.98Z" fill="#141414"/>
<path d="M486.35 113.549C485.662 114.258 484.763 114.612 483.65 114.612C482.538 114.612 481.636 114.258 480.937 113.549C480.242 112.841 479.895 111.921 479.895 110.789H481.428C481.428 111.433 481.639 111.972 482.063 112.404C482.488 112.836 483.012 113.053 483.637 113.053C484.272 113.053 484.8 112.836 485.224 112.404C485.659 111.972 485.876 111.433 485.876 110.789H487.396C487.396 111.921 487.045 112.841 486.35 113.549ZM491.56 137.083H489.485V121.113L477.536 137.083H475.731V117.29H477.82V133.273L489.755 117.29H491.56V137.083Z" fill="#141414"/>
</g>
<mask id="mask1_453_205" style="mask-type:luminance" maskUnits="userSpaceOnUse" x="514" y="10" width="154" height="134">
<path d="M668 10H514V143.803H668V10Z" fill="white"/>
</mask>
<g mask="url(#mask1_453_205)">
<mask id="mask2_453_205" style="mask-type:luminance" maskUnits="userSpaceOnUse" x="514" y="10" width="154" height="134">
<path d="M668 10H514V143.803H668V10Z" fill="white"/>
</mask>
<g mask="url(#mask2_453_205)">
<mask id="mask3_453_205" style="mask-type:luminance" maskUnits="userSpaceOnUse" x="514" y="10" width="154" height="134">
<path d="M668 10H514V143.803H668V10Z" fill="white"/>
</mask>
<g mask="url(#mask3_453_205)">
<path d="M541.403 138.355L530.179 143.761C529.942 143.874 529.652 143.761 529.301 143.411C528.949 143.061 528.83 142.768 528.949 142.537L577.524 44.6729C577.876 43.8603 577.581 43.4538 576.645 43.4538C557.005 43.4538 543.476 43.6905 536.052 44.1535C528.628 44.6215 523.779 45.5783 521.499 47.0337C519.22 48.4895 517.436 51.2514 516.154 55.3197C516.154 55.6694 515.916 55.8445 515.451 55.8445C515.099 55.8445 514.748 55.7571 514.396 55.582C514.045 55.4071 513.926 55.2068 514.045 54.9701L520.186 29.8444C520.3 29.613 520.714 29.5255 521.412 29.5821C522.115 29.6438 522.404 29.7879 522.29 30.0193C522.172 30.4874 522.115 31.0685 522.115 31.7629C522.115 32.9253 522.668 33.6814 523.779 34.0312C524.891 34.3809 527.14 34.5558 530.531 34.5558H583.133C583.717 34.5558 584.157 34.8181 584.446 35.3427C584.736 35.8674 584.767 36.3611 584.534 36.824L545.084 134.168C544.148 136.144 542.918 137.542 541.403 138.355Z" fill="#141414"/>
<path d="M662.066 71.1885C666.018 75.4885 668 80.7747 668 87.0477C668 92.6216 666.368 97.7948 663.111 102.557C659.853 107.32 655.401 111.127 649.756 113.973C644.11 116.819 638.032 118.242 631.517 118.242C625.001 118.242 618.656 116.382 613.19 112.668C607.72 108.954 603.443 103.724 600.36 96.9832C597.277 90.2482 595.733 82.6397 595.733 74.1577C595.733 63.9394 598.06 54.2658 602.717 45.147C607.37 36.0281 614.24 28.3067 623.313 21.9722C632.391 15.6327 643.215 11.6512 655.782 10.0278C656.245 9.91479 656.539 10.146 656.657 10.7265C656.77 11.307 656.657 11.6564 656.307 11.7694C645.716 13.8603 636.812 17.8675 629.602 23.7909C622.387 29.7143 616.973 36.7731 613.37 44.9621C609.763 53.1509 607.961 61.7203 607.961 70.6643C607.961 78.3293 609.155 85.5629 611.538 92.3597C613.921 99.1565 617.297 104.618 621.661 108.738C626.025 112.863 631.002 114.923 636.586 114.923C642.52 114.923 647.172 112.806 650.548 108.563C653.924 104.325 655.612 98.6633 655.612 91.5736C655.612 84.4839 654.099 79.4957 651.073 75.5399C648.047 71.5943 643.683 69.6163 637.981 69.6163C634.841 69.6163 631.928 70.2279 629.252 71.4454C626.576 72.6679 623.668 74.728 620.524 77.6306C620.406 77.749 620.23 77.8054 619.999 77.8054C619.649 77.8054 619.299 77.6306 618.949 77.2813C618.599 76.9319 618.481 76.6445 618.599 76.4081C621.625 72.5754 625.346 69.6728 629.772 67.6951C634.193 65.7221 639.025 64.7306 644.259 64.7306C652.169 64.7306 658.108 66.8834 662.066 71.1781V71.1885Z" fill="#141414"/>
</g>
</g>
</g>
</svg>
