<svg width="324" height="229" viewBox="0 0 324 229" fill="none" xmlns="http://www.w3.org/2000/svg">
<path d="M101.155 124.555C107.165 131.093 110.178 139.132 110.178 148.671C110.178 157.147 107.697 165.013 102.743 172.255C97.7894 179.497 91.0203 185.286 82.4349 189.614C73.85 193.942 64.6077 196.105 54.7002 196.105C44.7928 196.105 35.1435 193.278 26.8322 187.629C18.5136 181.981 12.0104 174.028 7.32251 163.779C2.63465 153.537 0.287109 141.968 0.287109 129.07C0.287109 113.531 3.82425 98.8215 10.9067 84.9551C17.9814 71.0887 28.4287 59.3471 42.226 49.7148C56.0304 40.0747 72.4886 34.0203 91.599 31.5517C92.3035 31.3798 92.7498 31.7314 92.9297 32.6141C93.102 33.4969 92.9297 34.0281 92.3975 34.2C76.2916 37.3795 62.753 43.4729 51.7889 52.4803C40.8171 61.4876 32.5844 72.2214 27.1062 84.6739C21.6203 97.1261 18.8812 110.157 18.8812 123.758C18.8812 135.413 20.697 146.413 24.3205 156.748C27.9436 167.084 33.0772 175.388 39.7139 181.653C46.35 187.926 53.9176 191.059 62.4089 191.059C71.4319 191.059 78.5067 187.84 83.6404 181.387C88.774 174.943 91.3409 166.334 91.3409 155.553C91.3409 144.772 89.0404 137.187 84.4384 131.172C79.8369 125.172 73.2007 122.164 64.5295 122.164C59.7557 122.164 55.3265 123.094 51.2567 124.945C47.1874 126.804 42.7658 129.937 37.9844 134.351C37.8044 134.531 37.5381 134.617 37.1859 134.617C36.6537 134.617 36.1215 134.351 35.5894 133.82C35.0572 133.288 34.8772 132.851 35.0572 132.492C39.6591 126.664 45.3168 122.25 52.0475 119.242C58.7696 116.242 66.1183 114.735 74.077 114.735C86.1054 114.735 95.1366 118.008 101.155 124.539V124.555Z" fill="#424649"/>
<path d="M119.572 223.114C142.596 204.277 160.386 188.971 172.944 177.198C185.503 165.163 194.529 154.436 200.023 145.018C205.517 135.599 208.264 126.181 208.264 116.762C208.264 106.297 204.994 97.7939 198.453 91.2532C192.174 84.4509 183.933 81.0497 173.729 81.0497C153.061 81.0497 138.148 97.2707 128.991 129.713C128.991 129.974 128.468 130.105 127.421 130.105C125.066 130.105 124.02 129.582 124.282 128.535L139.587 68.884C139.587 68.3608 140.11 68.0991 141.157 68.0991C141.942 68.0991 142.596 68.3608 143.119 68.884C143.904 69.1457 144.165 69.4073 143.904 69.6689C143.642 70.7154 143.511 72.1544 143.511 73.9858C143.511 78.1718 145.473 80.2649 149.398 80.2649C151.753 80.2649 155.677 79.3492 161.171 77.5178C171.898 74.1166 181.447 72.416 189.819 72.416C203.162 72.416 213.628 76.0788 221.215 83.4044C229.064 90.4684 232.988 99.7561 232.988 111.268C232.988 120.425 229.979 129.582 223.962 138.739C218.206 147.896 209.572 157.707 198.061 168.172C186.811 178.375 170.982 191.326 150.575 207.024C149.529 207.809 149.136 208.463 149.398 208.986C149.921 209.509 150.837 209.771 152.145 209.771C180.924 209.771 200.939 209.378 212.189 208.593C223.439 207.809 231.549 205.716 236.52 202.314C241.491 198.913 244.892 192.896 246.724 184.262C246.724 183.739 247.378 183.477 248.686 183.477C250.517 183.477 251.433 183.87 251.433 184.654L245.546 224.684C245.546 225.73 245.154 226.777 244.369 227.823C243.846 228.608 243.061 229 242.014 229H122.319C121.011 229 119.965 228.346 119.18 227.038C118.395 225.468 118.526 224.16 119.572 223.114Z" fill="#424649"/>
<path d="M148.717 0.204102L146.294 5.80633H145.518L147.935 0.204102H148.717Z" fill="#141414"/>
<path fill-rule="evenodd" clip-rule="evenodd" d="M185.122 17.9606C184.042 16.7567 182.669 16.0125 180.663 15.5528C180.556 15.5285 180.371 15.4862 180.21 15.4438C180.371 15.3955 180.568 15.335 180.759 15.2685C181.314 15.0748 182.233 14.7542 182.878 14.1916C183.713 13.5624 184.167 12.4733 184.09 11.2876C184.006 10.017 183.355 8.916 182.347 8.34126C181.642 7.94196 180.592 7.45796 179.595 7.44587C179.335 7.44587 179.051 7.4412 178.747 7.43623C178.561 7.43317 178.367 7.43001 178.168 7.42772H173.202C172.426 7.42772 171.704 7.42772 171.095 7.43982H168.851L169.215 7.61527C169.931 7.94801 170.295 8.61956 170.295 9.61174C170.325 14.9719 170.331 20.8101 170.331 25.3053C170.331 26.2974 170.331 27.4166 169.143 28.058L168.833 28.2273H169.185C169.185 28.2273 170.725 28.2394 172.617 28.2394C174.659 28.2394 177.148 28.2273 178.694 28.1729C180.037 28.1245 181.421 27.8765 182.717 27.453C184.525 26.86 185.904 25.3537 186.406 23.4177C186.919 21.4514 186.435 19.4065 185.122 17.9545V17.9606ZM172.522 14.5304C172.534 13.883 172.534 13.2175 172.522 12.5823V11.0335C172.522 10.8398 172.522 10.6379 172.523 10.4326V10.4217C172.524 9.99524 172.526 9.5539 172.522 9.13984V8.64375C172.522 8.29285 172.587 8.12346 172.957 8.12346H178.222C180.025 8.12346 181.553 9.49679 181.708 11.2512V11.2876C181.833 12.8545 181.314 14.0766 180.293 14.6331C179.678 14.9719 178.491 15.093 177.846 15.093H172.951C172.587 15.093 172.522 14.9297 172.516 14.609V14.5304H172.522ZM184.179 22.6373C183.976 24.6337 183.505 25.9586 181.66 26.8722C181.646 26.8805 181.624 26.8927 181.603 26.9039C181.578 26.9173 181.556 26.9294 181.553 26.9326C180.741 27.2593 178.461 27.5316 177.852 27.5316H172.892C172.599 27.5134 172.516 27.3864 172.522 26.975V26.5212C172.534 25.3959 172.534 24.2526 172.522 23.1454V20.5681C172.522 20.1564 172.522 19.7398 172.523 19.3217V19.32C172.524 18.4795 172.526 17.6329 172.522 16.8052V16.2909C172.522 16.0792 172.551 15.9581 172.623 15.8855C172.689 15.819 172.796 15.7887 172.957 15.7887H177.786C178.837 15.7887 180.299 16.1275 181.517 16.6599C183.236 17.404 184.233 19.2856 184.233 21.6813C184.233 21.9898 184.215 22.3106 184.179 22.6373Z" fill="#141414"/>
<path fill-rule="evenodd" clip-rule="evenodd" d="M151.738 28.0518L150.914 28.2334H156.596L156.143 28.0579C155.307 27.7312 154.919 26.9931 154.621 26.3216C153.624 24.0581 152.002 20.3661 150.528 17.0111L150.52 16.9924C148.853 13.1993 147.378 9.8415 147.213 9.47257C146.903 8.78893 146.598 8.11738 146.33 7.50029L146.306 7.44584H143.077L143.065 7.62735C143.847 7.74835 144.461 8.46224 144.461 9.24267V9.33947C144.461 9.35921 144.462 9.38024 144.463 9.4017C144.464 9.44603 144.465 9.49234 144.461 9.53307C144.437 9.76902 144.396 9.89001 144.3 10.0957C144.05 10.67 143.798 11.2458 143.546 11.8216L143.544 11.8251C143.292 12.4006 143.04 12.9762 142.79 13.5503C141.811 15.7948 140.796 18.1118 139.788 20.3866L139.435 21.1791C139.047 22.0563 138.653 22.9337 138.26 23.8049C138.166 24.0181 138.071 24.2415 137.977 24.4651C137.946 24.5396 137.915 24.614 137.883 24.6881L137.77 24.9724C137.669 25.2205 137.561 25.4746 137.436 25.7166L137.424 25.7408C136.982 26.6785 136.332 27.6828 134.875 28.0518L134.177 28.2334H139.579L139.591 28.0518C138.797 27.9612 138.277 27.7071 138.045 27.3017C137.848 26.9569 137.86 26.5032 138.086 25.9525L139.549 22.6311C139.591 22.5283 139.632 22.4315 139.68 22.3286C139.701 22.2864 139.719 22.2441 139.736 22.2038C139.743 22.1866 139.751 22.1695 139.758 22.1532C139.793 22.0899 139.822 22.0299 139.852 21.9683L139.869 21.9341L139.883 21.9051L139.895 21.8749C139.961 21.7237 140.247 21.5724 140.438 21.5543C140.535 21.5427 140.642 21.5368 140.745 21.531L140.761 21.5301H149.344C149.457 21.5301 149.565 21.5422 149.666 21.5543C149.857 21.5724 150.144 21.7237 150.209 21.8749L150.263 21.9898C150.359 22.2016 150.454 22.4133 150.538 22.6311C151.039 23.7504 151.565 24.9845 152.197 26.5152C152.317 26.8177 152.448 27.2049 152.364 27.459C152.287 27.695 152.012 27.9914 151.738 28.0518ZM149.642 20.7617C149.613 20.8041 149.559 20.8344 149.505 20.8344H140.593C140.54 20.8344 140.492 20.8101 140.462 20.7617C140.432 20.7133 140.426 20.6589 140.45 20.6044L144.921 10.4769C144.951 10.4163 145.004 10.3801 145.07 10.3801C145.136 10.3801 145.19 10.4103 145.213 10.4709L146.461 13.3203C147.446 15.577 148.717 18.4749 149.654 20.6104C149.672 20.6589 149.672 20.7133 149.642 20.7617Z" fill="#141414"/>
<path d="M309.015 9.6904C309.033 10.005 309.051 20.9493 309.033 25.5835V25.6053C309.026 26.3683 309.02 27.2285 308.316 27.8039C308.203 27.8947 308.072 27.9853 307.916 28.0641L307.582 28.2334H312.763L312.37 28.058C312.197 27.9853 312.041 27.8947 311.909 27.7978C311.296 27.3199 311.212 26.6423 311.182 25.9889C311.176 25.7469 311.164 25.16 311.158 24.7245V24.0453C311.156 22.3066 311.154 14.3412 311.169 10.0958C311.169 9.3274 311.176 8.45017 311.886 7.87543C312 7.77863 312.136 7.68788 312.279 7.61528L312.62 7.43982H307.439L307.833 7.61528C308.007 7.69393 308.161 7.77863 308.286 7.88147C308.908 8.35942 308.99 9.06121 309.015 9.6904Z" fill="#141414"/>
<path d="M323.823 18.6926C323.823 19.2856 323.353 19.7696 322.767 19.7696C322.182 19.7696 321.71 19.2856 321.71 18.6926C321.71 18.0997 322.182 17.6218 322.767 17.6218C323.353 17.6218 323.823 18.1058 323.823 18.6926Z" fill="#141414"/>
<path d="M323.823 27.1625C323.823 27.754 323.352 28.2334 322.767 28.2334C322.183 28.2334 321.71 27.754 321.71 27.1625C321.71 26.5711 322.183 26.0918 322.767 26.0918C323.352 26.0918 323.823 26.5711 323.823 27.1625Z" fill="#141414"/>
<path fill-rule="evenodd" clip-rule="evenodd" d="M235.65 28.2032C235.119 28.179 234.599 28.1124 234.08 28.0095C232.809 27.7554 231.627 27.2714 230.534 26.5515C229.442 25.8316 228.523 24.9362 227.819 23.823C226.941 22.4436 226.487 20.9191 226.308 19.3038C226.287 19.0998 226.272 18.896 226.257 18.6934C226.247 18.5533 226.237 18.4138 226.225 18.2752C226.225 18.2208 226.215 18.1664 226.205 18.1118C226.201 18.0938 226.198 18.0756 226.195 18.0574V17.3193C226.198 17.2935 226.202 17.2681 226.205 17.243C226.215 17.1738 226.225 17.1059 226.225 17.035C226.249 16.4965 226.314 15.9642 226.416 15.4318C226.684 14.0403 227.222 12.7578 228.009 11.5901C228.696 10.5737 229.538 9.72669 230.558 9.06725C231.961 8.15976 233.519 7.65157 235.166 7.49427C235.411 7.47007 236.289 7.43378 236.486 7.43378C236.733 7.43378 237.17 7.46199 237.467 7.48111L237.578 7.48822C238.193 7.54872 238.515 7.59711 239.1 7.73022C240.61 8.06901 241.971 8.7224 243.171 9.7146C244.341 10.6886 245.236 11.8684 245.833 13.278C246.34 14.4819 246.573 15.7525 246.657 17.0532C246.67 17.2612 246.673 17.4726 246.677 17.6822V17.6861C246.678 17.7556 246.679 17.8251 246.681 17.8941C246.693 18.5717 246.645 19.2492 246.537 19.9147C246.334 21.149 245.928 22.3045 245.308 23.3874C244.782 24.307 244.138 25.1298 243.35 25.8255C242.383 26.6786 241.279 27.2775 240.055 27.6647C239.464 27.8523 238.891 28.0217 238.276 28.1003L238.206 28.1097C237.836 28.1601 237.229 28.2429 235.638 28.2032H235.65ZM244.335 18.0091C244.323 17.4827 244.299 16.9564 244.251 16.43C244.186 15.7766 244.09 15.1292 243.935 14.494C243.684 13.4413 243.302 12.443 242.747 11.5114C242.269 10.7068 241.672 10.0111 240.92 9.46655C239.81 8.66191 238.563 8.23236 237.208 8.14161C236.671 8.10532 236.127 8.11137 235.584 8.15372C234.963 8.20212 234.354 8.33521 233.764 8.54696C232.659 8.94021 231.698 9.5694 230.922 10.4648C230.421 11.0396 230.027 11.6808 229.693 12.3705C229.191 13.4112 228.893 14.5183 228.726 15.6678C228.642 16.2485 228.594 16.8353 228.571 17.4222C228.535 18.4325 228.594 19.4308 228.773 20.429C228.982 21.5725 229.347 22.6675 229.884 23.6959C230.224 24.3554 230.636 24.9604 231.155 25.4867C232.45 26.7935 234.038 27.4287 235.847 27.5256C236 27.5325 236.156 27.5315 236.311 27.5305C236.427 27.5298 236.544 27.529 236.659 27.5316C237.208 27.5316 237.757 27.4772 238.294 27.3622C239.297 27.1384 240.21 26.727 241.028 26.0978C241.684 25.5956 242.216 24.9725 242.663 24.2767C243.565 22.8611 244.054 21.3002 244.245 19.6365C244.305 19.098 244.329 18.5657 244.317 18.0212L244.335 18.0091Z" fill="#141414"/>
<path fill-rule="evenodd" clip-rule="evenodd" d="M270.653 7.50638C272.18 7.71207 273.535 8.37756 274.562 9.41814H274.568C275.374 10.2349 275.828 11.5235 275.828 12.8545C275.828 13.2537 275.785 13.6532 275.701 14.0464C275.331 15.7887 274.228 17.0834 272.592 17.7065C271.589 18.0877 270.383 18.3358 269.112 18.4205H269.064C269.046 18.4265 269.028 18.4265 269.01 18.4265C268.939 18.4385 268.849 18.4385 268.772 18.4385C267.151 18.5308 265.492 18.5187 263.878 18.5069L263.639 18.5052H263.101C262.773 18.5052 262.695 18.6382 262.672 18.8802V18.8984C262.677 19.3744 262.682 19.873 262.688 20.3857V20.3954C262.691 20.8375 262.695 21.2901 262.702 21.748C262.713 23.2483 262.731 24.7971 262.755 26.1462C262.773 26.8299 262.922 27.5921 263.925 28.058L264.3 28.2334H259.114L259.424 28.064C260.546 27.4408 260.559 26.4789 260.559 25.4626V11.0456C260.558 10.9791 260.556 10.9122 260.556 10.8451C260.551 10.3877 260.547 9.91956 260.511 9.46049C260.433 8.54091 260.069 7.91777 259.424 7.61527L259.054 7.43982H261.574C262.343 7.43378 263.203 7.43378 264.152 7.43378H269.082C269.541 7.43378 269.763 7.43378 269.829 7.43982C270.085 7.44587 270.354 7.47007 270.653 7.50638ZM262.659 8.6256V9.1459C262.666 9.76904 262.666 10.3983 262.666 11.0214V13.6773C262.666 13.8721 262.666 14.0673 262.666 14.2626C262.667 14.8493 262.668 15.4378 262.659 16.0186C262.663 16.1233 262.662 16.228 262.66 16.3326C262.66 16.3851 262.659 16.4381 262.659 16.4904V17.2407C262.666 17.5734 262.737 17.7428 263.101 17.7428H267.727C269.816 17.7428 271.458 17.3254 272.12 16.6236C272.621 16.0972 272.991 15.4197 273.218 14.609C273.392 13.9738 273.493 13.2901 273.493 12.6005C273.493 11.0517 272.968 9.50889 271.482 8.6256C270.944 8.29891 270.27 8.12952 269.541 8.12952H263.095C262.731 8.12952 262.666 8.28681 262.659 8.6256Z" fill="#141414"/>
<path fill-rule="evenodd" clip-rule="evenodd" d="M302.771 21.6208C302.587 20.7497 302.217 19.9873 301.691 19.3703C301.166 18.7472 300.479 18.2691 299.661 17.9606C298.658 17.5795 297.453 17.3314 296.175 17.2467C296.163 17.2467 296.152 17.2467 296.14 17.2407H296.086C296.047 17.2407 296.007 17.2377 295.966 17.2346C295.926 17.2316 295.886 17.2286 295.848 17.2286C294.146 17.1319 292.403 17.1499 290.72 17.1681H290.207C289.842 17.1681 289.765 17.035 289.74 16.793V16.7688C289.753 15.8795 289.765 14.9115 289.771 13.9193C289.776 13.4452 289.782 12.9662 289.787 12.4904C289.797 11.4601 289.809 10.4438 289.824 9.521C289.842 8.83735 289.992 8.07506 291 7.60922L291.37 7.43378H286.19L286.494 7.60317C287.616 8.22632 287.622 9.18825 287.628 10.2046V10.2772C287.64 13.6591 287.64 17.3314 287.634 20.8827V24.6216C287.634 25.142 287.628 25.6804 287.586 26.2066C287.515 27.1263 287.145 27.7494 286.5 28.052L286.135 28.2273H288.571C289.347 28.2334 290.278 28.2334 291.227 28.2334H296.157C296.617 28.2334 296.844 28.2334 296.892 28.2273C297.16 28.2273 297.43 28.1971 297.727 28.1608C299.262 27.9551 300.61 27.2896 301.638 26.249C302.664 25.2085 303.136 23.333 302.771 21.6208ZM296.617 27.5377H290.171C289.806 27.5377 289.74 27.3743 289.735 27.0416V21.99C289.74 21.2094 289.74 20.423 289.735 19.6485V18.4265C289.735 18.0938 289.812 17.9244 290.176 17.9244H294.803C296.892 17.9244 298.54 18.3418 299.202 19.0436C299.697 19.5699 300.067 20.2475 300.294 21.0582C300.467 21.6934 300.575 22.3832 300.575 23.0667C300.575 24.6155 300.043 26.1583 298.563 27.0416C298.02 27.3683 297.346 27.5377 296.617 27.5377Z" fill="#141414"/>
<path d="M215.116 8.00851V7.96615C215.087 7.47612 214.705 7.45796 214.4 7.45796H214.311C213.455 7.462 212.596 7.46064 211.739 7.4593C211.31 7.45863 210.882 7.45796 210.455 7.45796H202.623C202.196 7.45796 201.768 7.45863 201.339 7.4593C200.482 7.46064 199.623 7.462 198.767 7.45796H198.709C198.412 7.45789 197.997 7.4578 197.962 7.9722V8.00851C197.956 8.0448 197.956 8.0811 197.962 8.11135C197.979 9.59358 197.979 10.6403 197.979 10.6403L197.991 10.8701L198.152 10.6826L198.163 10.6695C198.516 10.2461 198.796 9.91092 199.251 9.58754C201.161 8.2626 202.235 8.1416 205.053 8.1174C205.47 8.1174 205.512 8.74054 205.512 9.00675V9.47259C205.506 11.8563 205.506 14.2399 205.506 16.6297C205.506 19.6062 205.506 22.5888 205.494 25.5714C205.488 26.5211 205.482 27.5014 204.354 28.0579L204.008 28.2334H209.07L208.724 28.0579C207.596 27.5014 207.59 26.5216 207.584 25.5719C207.572 22.5893 207.572 19.6062 207.572 16.6297C207.572 14.2399 207.572 11.8563 207.566 9.47259V9.00675C207.566 8.74054 207.607 8.1174 208.025 8.1174C210.843 8.1416 211.917 8.2626 213.827 9.58754C214.277 9.90744 214.555 10.2388 214.92 10.6728L214.943 10.7007L215.098 10.8883V10.6403C215.098 10.6403 215.105 9.59358 215.116 8.12346C215.12 8.09497 215.119 8.06922 215.118 8.04437C215.117 8.03227 215.116 8.02039 215.116 8.00851Z" fill="#141414"/>
<path d="M246.385 47.191V39.5542H247.191V42.9359H251.367V39.5542H252.173V47.191H251.367V43.7028H247.191V47.191H246.385Z" fill="#141414"/>
<path d="M258.495 44.2993L257.05 40.6992L255.601 44.2993H258.495ZM258.819 45.0662H255.281L254.423 47.191H253.565L256.674 39.5542H257.422L260.531 47.191H259.678L258.819 45.0662Z" fill="#141414"/>
<path d="M264.775 40.3212V42.611H266.863C267.526 42.611 268.084 42.8347 268.538 43.2821C268.995 43.7295 269.223 44.2692 269.223 44.901C269.223 45.533 268.995 46.0727 268.538 46.52C268.084 46.9673 267.526 47.191 266.863 47.191H263.969V39.5542H268.632V40.3212H264.775ZM264.775 46.4294H266.863C267.313 46.4294 267.685 46.2839 267.977 45.9928C268.271 45.7017 268.417 45.3377 268.417 44.901C268.417 44.4643 268.271 44.1005 267.977 43.8093C267.685 43.5182 267.313 43.3726 266.863 43.3726H264.775V46.4294Z" fill="#141414"/>
<path d="M272.196 41.12C271.607 41.7271 271.311 42.478 271.311 43.3726C271.311 44.2673 271.607 45.0182 272.196 45.6253C272.785 46.2324 273.51 46.5359 274.368 46.5359C275.226 46.5359 275.95 46.2324 276.539 45.6253C277.13 45.0182 277.424 44.2673 277.424 43.3726C277.424 42.478 277.13 41.7271 276.539 41.12C275.95 40.5129 275.226 40.2092 274.368 40.2092C273.51 40.2092 272.785 40.5129 272.196 41.12ZM277.1 40.5927C277.849 41.3561 278.225 42.2826 278.225 43.3726C278.225 44.4625 277.849 45.3893 277.1 46.1525C276.35 46.9159 275.438 47.2975 274.368 47.2975C273.297 47.2975 272.387 46.9159 271.636 46.1525C270.886 45.3893 270.511 44.4625 270.511 43.3726C270.511 42.2826 270.886 41.3561 271.636 40.5927C272.387 39.8294 273.297 39.4477 274.368 39.4477C275.438 39.4477 276.35 39.8294 277.1 40.5927Z" fill="#141414"/>
<path d="M285.401 39.5542V47.191H284.6V40.3212H281.381V41.8442C281.381 42.9697 281.334 43.9034 281.239 44.6455C281.149 45.3839 281.005 45.9431 280.811 46.323C280.619 46.6993 280.403 46.9568 280.166 47.0952C279.933 47.2301 279.641 47.2975 279.292 47.2975C279.177 47.2975 279.063 47.2886 278.948 47.271C278.836 47.2532 278.751 47.2337 278.691 47.2123L278.597 47.191V46.3709C278.81 46.442 279.005 46.4792 279.182 46.4827C279.403 46.4827 279.589 46.4276 279.743 46.3177C279.899 46.2076 280.046 45.9964 280.183 45.6839C280.318 45.3715 280.418 44.8975 280.481 44.2619C280.546 43.6265 280.58 42.8205 280.58 41.8442V39.5542H285.401Z" fill="#141414"/>
<path d="M290.497 47.191H287.656V39.5542H288.461V42.3928H290.497C291.192 42.3928 291.767 42.6217 292.225 43.0797C292.681 43.5378 292.911 44.1093 292.911 44.7945C292.911 45.4762 292.681 46.046 292.225 46.5041C291.767 46.962 291.192 47.191 290.497 47.191ZM288.461 46.4294H290.497C290.982 46.4294 291.371 46.2804 291.664 45.9822C291.958 45.6839 292.104 45.2881 292.104 44.7945C292.104 44.2975 291.958 43.8999 291.664 43.6016C291.371 43.3034 290.982 43.1543 290.497 43.1543H288.461V46.4294Z" fill="#141414"/>
<path d="M294.679 47.191V39.5542H295.485V46.4294H298.594V39.5542H299.394V46.4294H302.503V39.5542H303.309V47.191H294.679Z" fill="#141414"/>
<path d="M306.757 41.12C306.168 41.7271 305.873 42.478 305.873 43.3726C305.873 44.2673 306.168 45.0182 306.757 45.6253C307.348 46.2324 308.071 46.5359 308.93 46.5359C309.788 46.5359 310.512 46.2324 311.102 45.6253C311.691 45.0182 311.987 44.2673 311.987 43.3726C311.987 42.478 311.691 41.7271 311.102 41.12C310.512 40.5129 309.788 40.2092 308.93 40.2092C308.071 40.2092 307.348 40.5129 306.757 41.12ZM311.662 40.5927C312.412 41.3561 312.787 42.2826 312.787 43.3726C312.787 44.4625 312.412 45.3893 311.662 46.1525C310.911 46.9159 310.001 47.2975 308.93 47.2975C307.858 47.2975 306.948 46.9159 306.198 46.1525C305.447 45.3893 305.072 44.4625 305.072 43.3726C305.072 42.2826 305.447 41.3561 306.198 40.5927C306.948 39.8294 307.858 39.4477 308.93 39.4477C310.001 39.4477 310.911 39.8294 311.662 40.5927Z" fill="#141414"/>
<path d="M318.653 38.111C318.388 38.3844 318.041 38.5211 317.612 38.5211C317.182 38.5211 316.834 38.3844 316.565 38.111C316.297 37.8376 316.163 37.4826 316.163 37.0459H316.754C316.754 37.2945 316.836 37.5022 316.999 37.669C317.163 37.8358 317.365 37.9193 317.607 37.9193C317.851 37.9193 318.055 37.8358 318.219 37.669C318.387 37.5022 318.47 37.2945 318.47 37.0459H319.057C319.057 37.4826 318.922 37.8376 318.653 38.111ZM320.663 47.191H319.863V41.0294L315.252 47.191H314.556V39.5542H315.362V45.7211L319.967 39.5542H320.663V47.191Z" fill="#141414"/>
</svg>
