<svg width="508" height="137" viewBox="0 0 508 137" fill="none" xmlns="http://www.w3.org/2000/svg">
<mask id="mask0_287_54" style="mask-type:luminance" maskUnits="userSpaceOnUse" x="0" y="0" width="508" height="137">
<path d="M507.983 0H0V137H507.983V0Z" fill="white"/>
</mask>
<g mask="url(#mask0_287_54)">
<path d="M45.9182 8.30371L39.6372 22.8233H37.626L43.8916 8.30371H45.9182Z" fill="#141414"/>
<path fill-rule="evenodd" clip-rule="evenodd" d="M140.271 54.324C137.471 51.2038 133.912 49.2751 128.714 48.0835C128.436 48.0207 127.956 47.9111 127.539 47.8011C127.956 47.6758 128.467 47.5191 128.962 47.3467C130.401 46.8448 132.783 46.0138 134.454 44.5556C136.619 42.9249 137.795 40.1024 137.594 37.0293C137.378 33.7363 135.692 30.8826 133.077 29.3931C131.251 28.3582 128.529 27.1038 125.945 27.0724C125.273 27.0724 124.535 27.0603 123.747 27.0474C123.265 27.0395 122.764 27.0313 122.248 27.0254H109.377C107.366 27.0254 105.494 27.0254 103.916 27.0568H98.0988L99.0428 27.5115C100.899 28.3739 101.843 30.1143 101.843 32.6858C101.92 46.5782 101.935 61.7093 101.935 73.3597C101.935 75.9309 101.935 78.8316 98.857 80.494L98.0527 80.9327H98.9652C98.9652 80.9327 102.957 80.9642 107.861 80.9642C113.151 80.9642 119.602 80.9327 123.609 80.7917C127.09 80.6664 130.679 80.0235 134.036 78.9259C138.724 77.3891 142.297 73.485 143.597 68.4674C144.927 63.3714 143.674 58.0715 140.271 54.3083V54.324ZM107.613 45.4337C107.644 43.756 107.644 42.0311 107.613 40.3848V36.3707C107.613 35.8688 107.615 35.3455 107.616 34.8132V34.7851C107.62 33.6798 107.624 32.5359 107.613 31.4628V30.1771C107.613 29.2676 107.783 28.8286 108.742 28.8286H122.387C127.059 28.8286 131.02 32.3879 131.422 36.935V37.0293C131.747 41.0901 130.401 44.2575 127.755 45.7C126.162 46.5782 123.083 46.8919 121.413 46.8919H108.727C107.783 46.8919 107.613 46.4686 107.598 45.6375V45.4337H107.613ZM137.826 66.4448C137.3 71.6191 136.078 75.0528 131.298 77.4205C131.262 77.4423 131.204 77.4737 131.15 77.5027C131.086 77.5375 131.028 77.5689 131.02 77.5772C128.915 78.424 123.006 79.1297 121.428 79.1297H108.572C107.814 79.0826 107.598 78.7534 107.613 77.6872V76.511C107.644 73.5946 107.644 70.6313 107.613 67.7617V61.0821C107.613 60.0149 107.615 58.9352 107.617 57.8516V57.8472C107.62 55.6689 107.623 53.4746 107.613 51.3294V49.9965C107.613 49.4478 107.69 49.134 107.876 48.9459C108.046 48.7735 108.325 48.695 108.742 48.695H121.258C123.98 48.695 127.771 49.5731 130.927 50.9528C135.382 52.8815 137.965 57.758 137.965 63.9671C137.965 64.7667 137.919 65.5981 137.826 66.4448Z" fill="#141414"/>
<path fill-rule="evenodd" clip-rule="evenodd" d="M53.7459 80.4769L51.611 80.9474H66.3385L65.163 80.4926C62.997 79.6459 61.9916 77.7329 61.218 75.9926C58.6358 70.126 54.4315 60.5574 50.6109 51.8619L50.5895 51.8135C46.27 41.9829 42.446 33.2802 42.0197 32.3241C41.215 30.5522 40.4261 28.8118 39.7301 27.2124L39.6679 27.0713H31.2987L31.2677 27.5417C33.2943 27.8553 34.8877 29.7055 34.8877 31.7282V31.9791C34.8877 32.0303 34.8893 32.0848 34.891 32.1404C34.8947 32.2553 34.8983 32.3753 34.8877 32.4809C34.8258 33.0924 34.7176 33.406 34.47 33.939C33.8207 35.4276 33.1677 36.9199 32.5146 38.4122L32.5107 38.4212C31.8579 39.9129 31.2051 41.4045 30.5561 42.8924C28.019 48.7096 25.3891 54.7149 22.7746 60.6106L21.8619 62.6646C20.8563 64.9381 19.8353 67.2119 18.8143 69.4698C18.5706 70.0225 18.3269 70.6015 18.0833 71.1809C18.0021 71.3741 17.9209 71.5669 17.8396 71.759L17.5457 72.4958C17.2827 73.1387 17.0042 73.7973 16.6794 74.4245L16.6484 74.4873C15.5037 76.9176 13.8174 79.5206 10.0427 80.4769L8.23267 80.9474H22.2332L22.2641 80.4769C20.2066 80.242 18.8607 79.5834 18.2574 78.5328C17.7468 77.639 17.7778 76.4631 18.3656 75.036L22.1558 66.4277C22.2641 66.1614 22.3724 65.9104 22.4962 65.6438C22.5503 65.5342 22.5968 65.4246 22.641 65.3203C22.6601 65.2756 22.6787 65.2315 22.6973 65.189C22.7898 65.025 22.8651 64.8696 22.9424 64.7099L22.9854 64.6213L23.0222 64.5461L23.0531 64.4679C23.2233 64.076 23.9658 63.6837 24.4609 63.6369C24.7114 63.6068 24.9899 63.5915 25.2564 63.5764L25.2963 63.5741H47.5424C47.8362 63.5741 48.1148 63.6055 48.3778 63.6369C48.8727 63.6837 49.6155 64.076 49.7856 64.4679L49.9249 64.7657C50.1722 65.3147 50.4198 65.8633 50.6363 66.4277C51.9358 69.3288 53.2974 72.5272 54.9371 76.4942C55.2465 77.2784 55.587 78.2819 55.3702 78.9405C55.1693 79.552 54.4576 80.3202 53.7459 80.4769ZM48.316 61.5826C48.2385 61.6925 48.0995 61.771 47.9601 61.771H24.8631C24.7239 61.771 24.6001 61.7082 24.5228 61.5826C24.4454 61.4573 24.4299 61.3163 24.4918 61.1749L36.0789 34.9271C36.1564 34.77 36.2954 34.6761 36.4658 34.6761C36.6359 34.6761 36.7752 34.7543 36.8371 34.9114L40.0703 42.2963C42.6228 48.1452 45.9182 55.6558 48.3467 61.1906C48.3932 61.3163 48.3932 61.4573 48.316 61.5826Z" fill="#141414"/>
<path d="M461.37 32.8896C461.416 33.705 461.463 62.0697 461.416 74.0806V74.1371C461.4 76.1146 461.383 78.344 459.559 79.8353C459.265 80.0705 458.927 80.3054 458.523 80.5096L457.657 80.9483H471.083L470.064 80.4939C469.616 80.3054 469.212 80.0705 468.871 79.8196C467.281 78.5809 467.063 76.8246 466.987 75.1312C466.97 74.504 466.94 72.983 466.923 71.8542V70.0939C466.92 65.5876 466.913 44.9434 466.953 33.9403C466.953 31.9488 466.97 29.6752 468.811 28.1856C469.105 27.9347 469.459 27.6995 469.83 27.5114L470.712 27.0566H457.286L458.306 27.5114C458.757 27.7152 459.158 27.9347 459.482 28.2013C461.092 29.44 461.306 31.2589 461.37 32.8896Z" fill="#141414"/>
<path d="M499.75 56.2207C499.75 57.7575 498.53 59.0119 497.013 59.0119C495.496 59.0119 494.273 57.7575 494.273 56.2207C494.273 54.684 495.496 53.4453 497.013 53.4453C498.53 53.4453 499.75 54.6997 499.75 56.2207Z" fill="#141414"/>
<path d="M499.75 78.1706C499.75 79.7037 498.527 80.946 497.013 80.946C495.499 80.946 494.273 79.7037 494.273 78.1706C494.273 76.6379 495.499 75.3955 497.013 75.3955C498.527 75.3955 499.75 76.6379 499.75 78.1706Z" fill="#141414"/>
<path fill-rule="evenodd" clip-rule="evenodd" d="M271.226 80.8702C269.849 80.8074 268.503 80.635 267.157 80.3683C263.862 79.7097 260.799 78.4553 257.968 76.5894C255.137 74.7236 252.754 72.4029 250.929 69.5179C248.655 65.9429 247.479 61.9916 247.015 57.8051C246.96 57.2765 246.921 56.7482 246.883 56.2232C246.856 55.86 246.83 55.4985 246.798 55.1392C246.798 54.9982 246.772 54.8572 246.746 54.7159C246.737 54.6691 246.729 54.622 246.721 54.5749V52.6619C246.729 52.5951 246.738 52.5292 246.748 52.4641C246.773 52.2846 246.798 52.1089 246.798 51.9251C246.86 50.5294 247.03 49.1497 247.293 47.77C247.989 44.1635 249.382 40.8395 251.424 37.8131C253.203 35.179 255.384 32.9837 258.03 31.2746C261.665 28.9226 265.703 27.6055 269.973 27.1978C270.607 27.1351 272.881 27.041 273.392 27.041C274.032 27.041 275.167 27.1141 275.935 27.1637L276.222 27.1821C277.816 27.3389 278.651 27.4643 280.167 27.8093C284.081 28.6874 287.608 30.3808 290.718 32.9523C293.75 35.4767 296.071 38.5345 297.618 42.1877C298.933 45.308 299.536 48.601 299.753 51.9722C299.787 52.5112 299.796 53.0592 299.805 53.6025V53.6125C299.808 53.7926 299.811 53.9727 299.815 54.1515C299.846 55.9078 299.722 57.6637 299.443 59.3886C298.917 62.5874 297.865 65.5823 296.256 68.3888C294.895 70.7723 293.224 72.9048 291.182 74.7079C288.676 76.9189 285.814 78.471 282.643 79.4745C281.111 79.9606 279.626 80.3997 278.033 80.6035L277.851 80.6279C276.893 80.7586 275.317 80.9731 271.195 80.8702H271.226ZM293.735 54.4496C293.704 53.0853 293.642 51.7213 293.518 50.3569C293.348 48.6635 293.101 46.9857 292.698 45.3394C292.049 42.6111 291.058 40.0238 289.62 37.6093C288.382 35.5239 286.835 33.7208 284.886 32.3095C282.008 30.224 278.775 29.1108 275.263 28.8755C273.871 28.7815 272.463 28.7972 271.056 28.9069C269.447 29.0324 267.868 29.3773 266.337 29.9261C263.475 30.9453 260.984 32.576 258.973 34.8967C257.674 36.3863 256.653 38.0483 255.786 39.8357C254.487 42.5329 253.713 45.4022 253.28 48.3815C253.064 49.8865 252.94 51.4075 252.878 52.9285C252.785 55.5469 252.94 58.1342 253.404 60.7215C253.946 63.685 254.889 66.5229 256.281 69.1884C257.163 70.8976 258.231 72.4657 259.577 73.8297C262.933 77.2166 267.049 78.863 271.736 79.1139C272.134 79.132 272.537 79.1293 272.939 79.1266C273.241 79.1249 273.542 79.1229 273.84 79.1296C275.263 79.1296 276.687 78.9886 278.079 78.6906C280.678 78.1105 283.045 77.0442 285.164 75.4136C286.866 74.1121 288.243 72.4972 289.403 70.6938C291.739 67.0248 293.008 62.9793 293.503 58.6675C293.658 57.2718 293.719 55.8921 293.688 54.481L293.735 54.4496Z" fill="#141414"/>
<path fill-rule="evenodd" clip-rule="evenodd" d="M361.944 27.2292C365.904 27.7623 369.416 29.4871 372.076 32.184H372.092C374.181 34.3009 375.357 37.6407 375.357 41.0901C375.357 42.1249 375.247 43.1601 375.03 44.1792C374.071 48.6949 371.21 52.0504 366.97 53.6653C364.37 54.6534 361.246 55.2963 357.951 55.5158H357.828C357.781 55.5315 357.734 55.5315 357.687 55.5315C357.504 55.5626 357.27 55.5626 357.069 55.5626C352.869 55.8019 348.568 55.7705 344.385 55.7397L343.767 55.7354H342.373C341.521 55.7354 341.321 56.0802 341.261 56.7074V56.7545C341.274 57.9882 341.287 59.2803 341.301 60.6092V60.6233V60.6293V60.6343C341.311 61.7801 341.321 62.9533 341.338 64.1398C341.368 68.0283 341.414 72.0424 341.475 75.5389C341.521 77.3109 341.909 79.2863 344.509 80.4939L345.481 80.9484H332.039L332.843 80.5093C335.751 78.8944 335.784 76.4013 335.784 73.7672V36.402C335.781 36.2296 335.777 36.0562 335.777 35.8824C335.764 34.6968 335.754 33.4836 335.66 32.2938C335.457 29.9104 334.514 28.2954 332.843 27.5114L331.884 27.0567H338.414C340.409 27.041 342.637 27.041 345.097 27.041H357.874C359.064 27.041 359.639 27.041 359.809 27.0567C360.474 27.0724 361.169 27.1351 361.944 27.2292ZM341.227 30.1299V31.4784C341.244 33.0934 341.244 34.7242 341.244 36.3392V43.2226C341.244 43.7275 341.244 44.2334 341.244 44.7396C341.247 46.2603 341.251 47.7854 341.227 49.2907C341.237 49.562 341.234 49.8333 341.231 50.1047C341.231 50.2407 341.227 50.378 341.227 50.5137V52.4581C341.244 53.3205 341.428 53.7596 342.373 53.7596H354.363C359.776 53.7596 364.033 52.6776 365.747 50.8588C367.047 49.4945 368.006 47.7386 368.594 45.6375C369.045 43.9911 369.306 42.2191 369.306 40.4318C369.306 36.4177 367.946 32.4192 364.093 30.1299C362.7 29.2832 360.952 28.8442 359.064 28.8442H342.357C341.414 28.8442 341.244 29.2519 341.227 30.1299Z" fill="#141414"/>
<path fill-rule="evenodd" clip-rule="evenodd" d="M445.187 63.8103C444.709 61.5525 443.75 59.5767 442.387 57.9775C441.027 56.3626 439.246 55.1235 437.127 54.3239C434.528 53.3362 431.403 52.6933 428.092 52.4738C428.062 52.4738 428.032 52.4738 428.002 52.4581H427.861C427.761 52.4581 427.658 52.4504 427.551 52.4424C427.447 52.4347 427.343 52.4266 427.243 52.4266C422.833 52.176 418.315 52.2228 413.954 52.2699H412.624C411.679 52.2699 411.478 51.9251 411.415 51.2979V51.2351C411.448 48.9301 411.478 46.4214 411.495 43.8498C411.508 42.6211 411.522 41.3798 411.535 40.1464C411.562 37.4763 411.592 34.8422 411.632 32.4506C411.679 30.6787 412.066 28.7031 414.679 27.4957L415.638 27.041H402.212L403.001 27.4801C405.908 29.0951 405.925 31.5882 405.941 34.2224V34.4105C405.971 43.1755 405.971 52.6933 405.955 61.8974V71.5876C405.955 72.9362 405.941 74.3316 405.831 75.6956C405.647 78.0791 404.688 79.694 403.018 80.4782L402.072 80.9327H408.384C410.396 80.9484 412.808 80.9484 415.267 80.9484H428.045C429.238 80.9484 429.826 80.9484 429.95 80.9327C430.645 80.9327 431.343 80.8545 432.115 80.7603C436.091 80.2273 439.587 78.5024 442.25 75.8055C444.91 73.1086 446.133 68.2478 445.187 63.8103ZM429.238 79.1453H412.531C411.585 79.1453 411.415 78.722 411.401 77.8595V64.767C411.415 62.7441 411.415 60.7058 411.401 58.6986V55.5315C411.401 54.6691 411.602 54.23 412.544 54.23H424.537C429.95 54.23 434.22 55.312 435.938 57.1308C437.221 58.4947 438.18 60.251 438.768 62.3521C439.216 63.9985 439.496 65.7862 439.496 67.5578C439.496 71.5719 438.116 75.5703 434.28 77.8595C432.874 78.7063 431.126 79.1453 429.238 79.1453Z" fill="#141414"/>
<path d="M218.008 28.5284V28.4187C217.931 27.1486 216.941 27.1016 216.152 27.1016H215.92C213.702 27.112 211.477 27.1085 209.255 27.105C208.144 27.1033 207.034 27.1016 205.926 27.1016H185.629C184.521 27.1016 183.411 27.1033 182.301 27.105C180.078 27.1085 177.854 27.112 175.636 27.1016H175.485C174.714 27.1014 173.639 27.1011 173.547 28.4343V28.5284C173.532 28.6225 173.532 28.7166 173.547 28.795C173.594 32.6366 173.594 35.3493 173.594 35.3493L173.624 35.9451L174.042 35.4589L174.07 35.4251C174.985 34.3278 175.709 33.459 176.889 32.6209C181.839 29.187 184.624 28.8734 191.925 28.8107C193.008 28.8107 193.117 30.4257 193.117 31.1156V32.323C193.101 38.501 193.101 44.6787 193.101 50.8724C193.101 58.5868 193.101 66.317 193.071 74.0471C193.055 76.5084 193.039 79.0493 190.116 80.4915L189.218 80.9462H202.337L201.44 80.4915C198.517 79.0493 198.5 76.5098 198.485 74.0485C198.454 66.3183 198.454 58.5868 198.454 50.8724C198.454 44.6787 198.454 38.501 198.439 32.323V31.1156C198.439 30.4257 198.547 28.8107 199.63 28.8107C206.932 28.8734 209.716 29.187 214.667 32.6209C215.833 33.45 216.554 34.3088 217.499 35.4335L217.56 35.506L217.962 35.9922V35.3493C217.962 35.3493 217.978 32.6366 218.008 28.8264C218.019 28.7525 218.015 28.6858 218.012 28.6214C218.01 28.59 218.008 28.5592 218.008 28.5284Z" fill="#141414"/>
<path d="M299.048 130.081V110.288H301.136V119.053H311.96V110.288H314.049V130.081H311.96V121.04H301.136V130.081H299.048Z" fill="#141414"/>
<path d="M330.434 122.586L326.691 113.256L322.933 122.586H330.434ZM331.275 124.574H322.106L319.882 130.081H317.657L325.714 110.288H327.654L335.711 130.081H333.5L331.275 124.574Z" fill="#141414"/>
<path d="M346.711 112.276V118.211H352.124C353.841 118.211 355.288 118.79 356.464 119.95C357.647 121.109 358.239 122.508 358.239 124.146C358.239 125.784 357.647 127.183 356.464 128.342C355.288 129.501 353.841 130.081 352.124 130.081H344.622V110.288H356.708V112.276H346.711ZM346.711 128.107H352.124C353.29 128.107 354.252 127.73 355.011 126.975C355.773 126.221 356.15 125.278 356.15 124.146C356.15 123.014 355.773 122.071 355.011 121.316C354.252 120.562 353.29 120.184 352.124 120.184H346.711V128.107Z" fill="#141414"/>
<path d="M365.944 114.347C364.417 115.92 363.652 117.866 363.652 120.185C363.652 122.504 364.417 124.45 365.944 126.024C367.471 127.597 369.349 128.384 371.575 128.384C373.797 128.384 375.675 127.597 377.202 126.024C378.732 124.45 379.494 122.504 379.494 120.185C379.494 117.866 378.732 115.92 377.202 114.347C375.675 112.773 373.797 111.986 371.575 111.986C369.349 111.986 367.471 112.773 365.944 114.347ZM378.655 112.98C380.597 114.959 381.569 117.36 381.569 120.185C381.569 123.01 380.597 125.412 378.655 127.39C376.71 129.368 374.348 130.358 371.575 130.358C368.798 130.358 366.439 129.368 364.494 127.39C362.549 125.412 361.577 123.01 361.577 120.185C361.577 117.36 362.549 114.959 364.494 112.98C366.439 111.002 368.798 110.013 371.575 110.013C374.348 110.013 376.71 111.002 378.655 112.98Z" fill="#141414"/>
<path d="M400.167 110.288V130.081H398.092V112.276H389.749V116.223C389.749 119.14 389.628 121.56 389.381 123.484C389.147 125.397 388.776 126.847 388.272 127.831C387.774 128.806 387.216 129.474 386.601 129.833C385.996 130.182 385.241 130.357 384.335 130.357C384.038 130.357 383.741 130.334 383.443 130.288C383.153 130.242 382.932 130.192 382.778 130.136L382.534 130.081V127.955C383.086 128.14 383.59 128.236 384.051 128.245C384.623 128.245 385.104 128.102 385.505 127.817C385.909 127.532 386.29 126.985 386.644 126.175C386.995 125.365 387.253 124.137 387.416 122.489C387.587 120.842 387.674 118.754 387.674 116.223V110.288H400.167Z" fill="#141414"/>
<path d="M413.376 130.081H406.012V110.288H408.1V117.645H413.376C415.177 117.645 416.668 118.238 417.854 119.425C419.037 120.613 419.631 122.094 419.631 123.87C419.631 125.636 419.037 127.113 417.854 128.301C416.668 129.487 415.177 130.081 413.376 130.081ZM408.1 128.107H413.376C414.633 128.107 415.642 127.721 416.4 126.948C417.162 126.175 417.54 125.149 417.54 123.87C417.54 122.582 417.162 121.551 416.4 120.778C415.642 120.005 414.633 119.619 413.376 119.619H408.1V128.107Z" fill="#141414"/>
<path d="M424.216 130.081V110.288H426.304V128.107H434.361V110.288H436.436V128.107H444.492V110.288H446.58V130.081H424.216Z" fill="#141414"/>
<path d="M455.519 114.347C453.992 115.92 453.227 117.866 453.227 120.185C453.227 122.504 453.992 124.45 455.519 126.024C457.049 127.597 458.924 128.384 461.149 128.384C463.375 128.384 465.249 127.597 466.78 126.024C468.307 124.45 469.072 122.504 469.072 120.185C469.072 117.866 468.307 115.92 466.78 114.347C465.249 112.773 463.375 111.986 461.149 111.986C458.924 111.986 457.049 112.773 455.519 114.347ZM468.23 112.98C470.174 114.959 471.147 117.36 471.147 120.185C471.147 123.01 470.174 125.412 468.23 127.39C466.285 129.368 463.926 130.358 461.149 130.358C458.372 130.358 456.013 129.368 454.069 127.39C452.124 125.412 451.151 123.01 451.151 120.185C451.151 117.36 452.124 114.959 454.069 112.98C456.013 111.002 458.372 110.013 461.149 110.013C463.926 110.013 466.285 111.002 468.23 112.98Z" fill="#141414"/>
<path d="M486.35 106.549C485.662 107.258 484.763 107.612 483.65 107.612C482.538 107.612 481.636 107.258 480.937 106.549C480.242 105.841 479.895 104.921 479.895 103.789H481.428C481.428 104.433 481.639 104.972 482.063 105.404C482.488 105.836 483.012 106.053 483.637 106.053C484.272 106.053 484.8 105.836 485.224 105.404C485.659 104.972 485.876 104.433 485.876 103.789H487.396C487.396 104.921 487.045 105.841 486.35 106.549ZM491.56 130.083H489.485V114.113L477.536 130.083H475.731V110.29H477.82V126.273L489.755 110.29H491.56V130.083Z" fill="#141414"/>
</g>
</svg>
