<svg width="306" height="232" viewBox="0 0 306 232" fill="none" xmlns="http://www.w3.org/2000/svg">
<g clip-path="url(#clip0_293_57)">
<g clip-path="url(#clip1_293_57)">
<g clip-path="url(#clip2_293_57)">
<path d="M125.969 223.751L110.008 231.439C109.67 231.6 109.259 231.439 108.759 230.942C108.259 230.444 108.09 230.027 108.259 229.698L177.336 90.5279C177.836 89.3724 177.417 88.7943 176.086 88.7943C148.157 88.7943 128.917 89.1309 118.36 89.7893C107.803 90.4548 100.907 91.8155 97.6648 93.8852C94.4227 95.9554 91.8863 99.883 90.0631 105.669C90.0631 106.166 89.7249 106.415 89.0632 106.415C88.5633 106.415 88.0634 106.291 87.5634 106.041C87.0635 105.793 86.8944 105.508 87.0635 105.171L95.7974 69.4407C95.9592 69.1115 96.5473 68.9872 97.5398 69.0677C98.5396 69.1554 98.9513 69.3603 98.7896 69.6894C98.6205 70.355 98.5396 71.1815 98.5396 72.1689C98.5396 73.822 99.3263 74.8972 100.907 75.3946C102.488 75.8919 105.686 76.1406 110.508 76.1406H185.313C186.143 76.1406 186.768 76.5137 187.18 77.2597C187.592 78.0058 187.636 78.708 187.305 79.3663L131.204 217.797C129.873 220.606 128.123 222.596 125.969 223.751Z" fill="#424649"/>
<path d="M297.562 128.236C303.182 134.35 306 141.868 306 150.788C306 158.715 303.68 166.072 299.047 172.845C294.414 179.617 288.084 185.031 280.055 189.078C272.027 193.125 263.383 195.149 254.118 195.149C244.853 195.149 235.829 192.504 228.056 187.222C220.277 181.94 214.195 174.503 209.811 164.918C205.427 155.34 203.231 144.52 203.231 132.458C203.231 117.927 206.539 104.17 213.163 91.2025C219.779 78.2348 229.549 67.2542 242.452 58.2462C255.362 49.2309 270.753 43.5689 288.625 41.2603C289.284 41.0995 289.701 41.4283 289.87 42.2538C290.031 43.0794 289.87 43.5762 289.372 43.7369C274.31 46.7104 261.649 52.4089 251.395 60.8324C241.135 69.256 233.435 79.2941 228.312 90.9395C223.182 102.585 220.62 114.771 220.62 127.49C220.62 138.39 222.319 148.677 225.707 158.343C229.095 168.008 233.896 175.774 240.103 181.633C246.309 187.5 253.386 190.429 261.327 190.429C269.765 190.429 276.381 187.419 281.182 181.385C285.983 175.358 288.384 167.307 288.384 157.225C288.384 147.143 286.232 140.049 281.929 134.424C277.625 128.813 271.419 126 263.31 126C258.846 126 254.704 126.869 250.898 128.601C247.092 130.339 242.957 133.269 238.486 137.397C238.317 137.565 238.068 137.645 237.739 137.645C237.241 137.645 236.743 137.397 236.246 136.9C235.748 136.403 235.58 135.994 235.748 135.658C240.052 130.208 245.343 126.08 251.637 123.268C257.924 120.462 264.796 119.052 272.239 119.052C283.488 119.052 291.934 122.113 297.562 128.221V128.236Z" fill="#424649"/>
</g>
</g>
</g>
<g clip-path="url(#clip3_293_57)">
<path d="M17.717 3.2041L15.2936 8.80633H14.5176L16.9351 3.2041H17.717Z" fill="#141414"/>
<path fill-rule="evenodd" clip-rule="evenodd" d="M54.1224 20.9606C53.042 19.7567 51.6691 19.0125 49.6635 18.5528C49.5561 18.5285 49.3711 18.4863 49.2099 18.4438C49.3711 18.3955 49.5681 18.335 49.759 18.2685C50.3142 18.0748 51.2334 17.7542 51.878 17.1916C52.7136 16.5624 53.1673 15.4734 53.0897 14.2876C53.0061 13.017 52.3556 11.916 51.3467 11.3413C50.6424 10.942 49.5919 10.458 48.595 10.4459C48.3356 10.4459 48.051 10.4412 47.7467 10.4362C47.5609 10.4332 47.3677 10.43 47.1685 10.4277H42.2022C41.4263 10.4277 40.7041 10.4277 40.0952 10.4398H37.8508L38.215 10.6153C38.9312 10.948 39.2953 11.6196 39.2953 12.6118C39.3252 17.972 39.3311 23.8102 39.3311 28.3053C39.3311 29.2974 39.3311 30.4166 38.1433 31.058L37.833 31.2273H38.1851C38.1851 31.2273 39.7251 31.2394 41.6173 31.2394C43.6587 31.2394 46.1478 31.2273 47.6937 31.1729C49.0367 31.1246 50.4216 30.8765 51.7169 30.453C53.5255 29.8601 54.9043 28.3537 55.4057 26.4177C55.919 24.4514 55.4355 22.4065 54.1224 20.9546V20.9606ZM41.5217 17.5304C41.5337 16.883 41.5337 16.2175 41.5217 15.5823V14.0335C41.5217 13.8399 41.5224 13.638 41.523 13.4326V13.4218C41.5244 12.9953 41.5259 12.5539 41.5217 12.1399V11.6438C41.5217 11.2929 41.5875 11.1235 41.9575 11.1235H47.2222C49.0249 11.1235 50.5529 12.4968 50.708 14.2513V14.2876C50.8335 15.8545 50.3142 17.0766 49.2934 17.6331C48.6786 17.972 47.4908 18.093 46.8462 18.093H41.9516C41.5875 18.093 41.5217 17.9297 41.5158 17.609V17.5304H41.5217ZM53.1793 25.6373C52.9764 27.6337 52.5048 28.9586 50.6603 29.8722C50.6467 29.8805 50.6242 29.8927 50.6032 29.9039C50.5786 29.9173 50.5562 29.9294 50.5529 29.9326C49.7411 30.2593 47.461 30.5316 46.8521 30.5316H41.8919C41.5993 30.5135 41.5158 30.3865 41.5217 29.9751V29.5212C41.5337 28.396 41.5337 27.2526 41.5217 26.1454V23.5682C41.5217 23.1564 41.5224 22.7398 41.5232 22.3217V22.32C41.5244 21.4795 41.5257 20.6329 41.5217 19.8052V19.2909C41.5217 19.0792 41.5516 18.9581 41.6233 18.8855C41.689 18.819 41.7963 18.7887 41.9575 18.7887H46.7865C47.837 18.7887 49.2994 19.1275 50.5171 19.6599C52.2362 20.404 53.2329 22.2856 53.2329 24.6813C53.2329 24.9898 53.215 25.3106 53.1793 25.6373Z" fill="#141414"/>
<path fill-rule="evenodd" clip-rule="evenodd" d="M20.7375 31.0513L19.9138 31.2328H25.5963L25.1427 31.0574C24.307 30.7307 23.9191 29.9926 23.6206 29.3211C22.6243 27.0575 21.0021 23.3656 19.528 20.0105L19.5197 19.9918C17.8531 16.1988 16.3776 12.841 16.2131 12.472C15.9027 11.7884 15.5983 11.1169 15.3297 10.4998L15.3057 10.4453H12.0765L12.0646 10.6268C12.8465 10.7478 13.4613 11.4617 13.4613 12.2421V12.3389C13.4613 12.3587 13.4619 12.3797 13.4626 12.4012C13.464 12.4455 13.4654 12.4918 13.4613 12.5325C13.4375 12.7685 13.3957 12.8895 13.3001 13.0951C13.0496 13.6695 12.7977 14.2453 12.5457 14.8211L12.5442 14.8246C12.2923 15.4001 12.0404 15.9756 11.79 16.5497C10.8111 18.7942 9.79639 21.1113 8.78763 23.3861L8.43545 24.1786C8.04747 25.0558 7.65351 25.9332 7.25956 26.8043C7.16555 27.0176 7.07152 27.241 6.97751 27.4646C6.94618 27.5391 6.91485 27.6135 6.88351 27.6876L6.7701 27.9719C6.66862 28.2199 6.56118 28.4741 6.43583 28.716L6.4239 28.7403C5.98219 29.678 5.33156 30.6823 3.87513 31.0513L3.17676 31.2328H8.5787L8.59064 31.0513C7.79677 30.9607 7.27747 30.7066 7.04468 30.3012C6.84769 29.9563 6.85963 29.5026 7.08645 28.952L8.54886 25.6306C8.59064 25.5278 8.63243 25.431 8.68018 25.3281C8.70105 25.2858 8.719 25.2435 8.73607 25.2033C8.74342 25.186 8.7506 25.169 8.75778 25.1526C8.79348 25.0893 8.82252 25.0294 8.85236 24.9678L8.86893 24.9336L8.88312 24.9046L8.89506 24.8744C8.96073 24.7232 9.24724 24.5718 9.43824 24.5538C9.53489 24.5422 9.64235 24.5362 9.74518 24.5304L9.76057 24.5295H18.344C18.4573 24.5295 18.5649 24.5417 18.6663 24.5538C18.8573 24.5718 19.1439 24.7232 19.2095 24.8744L19.2633 24.9893C19.3587 25.2011 19.4542 25.4128 19.5378 25.6306C20.0391 26.7499 20.5645 27.984 21.1972 29.5146C21.3166 29.8172 21.4479 30.2044 21.3643 30.4585C21.2868 30.6944 21.0122 30.9908 20.7375 31.0513ZM18.6425 23.7611C18.6126 23.8036 18.5589 23.8338 18.5052 23.8338H9.59343C9.53971 23.8338 9.49197 23.8096 9.46212 23.7611C9.43227 23.7128 9.42631 23.6584 9.45018 23.6038L13.9209 13.4764C13.9508 13.4158 14.0045 13.3796 14.0702 13.3796C14.1358 13.3796 14.1896 13.4097 14.2135 13.4703L15.461 16.3197C16.4458 18.5765 17.7173 21.4744 18.6543 23.6099C18.6723 23.6584 18.6723 23.7128 18.6425 23.7611Z" fill="#141414"/>
<path d="M178.015 12.69C178.033 13.0047 178.051 23.9489 178.033 28.5832V28.6049C178.027 29.3679 178.02 30.2281 177.316 30.8035C177.203 30.8943 177.072 30.9849 176.916 31.0637L176.583 31.233H181.763L181.37 31.0577C181.197 30.9849 181.041 30.8943 180.909 30.7975C180.296 30.3195 180.212 29.6419 180.182 28.9885C180.176 28.7465 180.164 28.1596 180.158 27.7241V27.0449C180.156 25.3062 180.154 17.3409 180.169 13.0954C180.169 12.327 180.176 11.4498 180.886 10.8751C181 10.7783 181.136 10.6875 181.279 10.6149L181.62 10.4395H176.439L176.833 10.6149C177.007 10.6936 177.161 10.7783 177.286 10.8811C177.908 11.359 177.99 12.0608 178.015 12.69Z" fill="#141414"/>
<path d="M192.823 21.692C192.823 22.2849 192.352 22.7689 191.767 22.7689C191.182 22.7689 190.71 22.2849 190.71 21.692C190.71 21.099 191.182 20.6211 191.767 20.6211C192.352 20.6211 192.823 21.1051 192.823 21.692Z" fill="#141414"/>
<path d="M192.823 30.1616C192.823 30.7531 192.351 31.2324 191.767 31.2324C191.183 31.2324 190.71 30.7531 190.71 30.1616C190.71 29.5702 191.183 29.0908 191.767 29.0908C192.351 29.0908 192.823 29.5702 192.823 30.1616Z" fill="#141414"/>
<path fill-rule="evenodd" clip-rule="evenodd" d="M104.649 31.203C104.118 31.1788 103.599 31.1122 103.079 31.0094C101.808 30.7552 100.626 30.2713 99.5338 29.5513C98.4414 28.8314 97.5222 27.936 96.8179 26.8229C95.9404 25.4435 95.4867 23.9189 95.3077 22.3036C95.2865 22.0996 95.2716 21.8958 95.2567 21.6932C95.2466 21.5531 95.2364 21.4136 95.2241 21.275C95.2241 21.2206 95.2141 21.1662 95.204 21.1117C95.2007 21.0936 95.1973 21.0754 95.1943 21.0572V20.3191C95.1974 20.2934 95.201 20.268 95.2047 20.2428C95.2145 20.1736 95.2241 20.1058 95.2241 20.0349C95.248 19.4963 95.3136 18.964 95.4152 18.4316C95.6837 17.0401 96.221 15.7576 97.0089 14.5899C97.6953 13.5736 98.5369 12.7265 99.5576 12.0671C100.96 11.1596 102.518 10.6514 104.166 10.4941C104.41 10.4699 105.288 10.4336 105.485 10.4336C105.732 10.4336 106.17 10.4618 106.466 10.4809L106.577 10.488C107.192 10.5485 107.514 10.5969 108.099 10.73C109.609 11.0688 110.97 11.7222 112.17 12.7144C113.34 13.6884 114.235 14.8682 114.832 16.2778C115.34 17.4817 115.573 18.7523 115.656 20.053C115.669 20.261 115.673 20.4724 115.676 20.6821V20.6859C115.677 20.7554 115.678 20.8249 115.68 20.8939C115.692 21.5715 115.644 22.249 115.537 22.9146C115.334 24.1488 114.928 25.3044 114.307 26.3872C113.782 27.3068 113.137 28.1297 112.349 28.8253C111.382 29.6785 110.278 30.2773 109.054 30.6645C108.463 30.8521 107.89 31.0215 107.276 31.1001L107.206 31.1095C106.836 31.16 106.228 31.2427 104.637 31.203H104.649ZM113.334 21.0089C113.322 20.4825 113.298 19.9562 113.251 19.4298C113.185 18.7764 113.089 18.1291 112.934 17.4938C112.684 16.4411 112.301 15.4429 111.746 14.5112C111.269 13.7066 110.672 13.0109 109.92 12.4664C108.81 11.6617 107.562 11.2322 106.207 11.1414C105.67 11.1051 105.127 11.1112 104.584 11.1535C103.963 11.2019 103.354 11.335 102.763 11.5468C101.659 11.94 100.698 12.5692 99.9217 13.4646C99.4203 14.0394 99.0264 14.6807 98.6921 15.3703C98.1907 16.411 97.8923 17.5181 97.7252 18.6676C97.6416 19.2483 97.5938 19.8351 97.5699 20.422C97.5341 21.4323 97.5938 22.4306 97.7729 23.4289C97.9819 24.5723 98.346 25.6673 98.8831 26.6957C99.2234 27.3552 99.6352 27.9602 100.155 28.4865C101.45 29.7933 103.038 30.4285 104.846 30.5254C105 30.5323 105.155 30.5313 105.31 30.5303C105.427 30.5296 105.543 30.5289 105.658 30.5314C106.207 30.5314 106.756 30.477 107.293 30.362C108.296 30.1382 109.209 29.7268 110.027 29.0976C110.684 28.5955 111.215 27.9724 111.663 27.2765C112.564 25.8609 113.054 24.3 113.245 22.6363C113.304 22.0978 113.328 21.5655 113.316 21.021L113.334 21.0089Z" fill="#141414"/>
<path fill-rule="evenodd" clip-rule="evenodd" d="M139.652 10.5062C141.18 10.7119 142.535 11.3774 143.561 12.418H143.568C144.373 13.2347 144.827 14.5234 144.827 15.8543C144.827 16.2536 144.785 16.653 144.701 17.0462C144.331 18.7885 143.227 20.0832 141.591 20.7063C140.588 21.0875 139.383 21.3356 138.111 21.4203H138.064C138.046 21.4264 138.028 21.4264 138.01 21.4264C137.939 21.4383 137.848 21.4383 137.771 21.4383C136.15 21.5307 134.491 21.5185 132.877 21.5067L132.638 21.505H132.101C131.772 21.505 131.695 21.6381 131.672 21.8801V21.8982C131.677 22.3742 131.682 22.8728 131.687 23.3855V23.3909V23.3933V23.3952C131.691 23.8373 131.695 24.29 131.701 24.7478C131.713 26.2481 131.731 27.7969 131.754 29.146C131.772 29.8297 131.922 30.5919 132.925 31.0578L133.3 31.2332H128.113L128.424 31.0638C129.546 30.4407 129.558 29.4787 129.558 28.4624V14.0454C129.557 13.9789 129.556 13.912 129.556 13.8449C129.551 13.3875 129.547 12.9194 129.511 12.4603C129.432 11.5407 129.068 10.9176 128.424 10.6151L128.054 10.4396H130.573C131.343 10.4336 132.203 10.4336 133.152 10.4336H138.082C138.541 10.4336 138.763 10.4336 138.828 10.4396C139.085 10.4457 139.353 10.4699 139.652 10.5062ZM131.659 11.6254V12.1457C131.665 12.7689 131.665 13.3981 131.665 14.0212V16.6771C131.665 16.8719 131.665 17.0671 131.665 17.2624C131.666 17.8492 131.668 18.4376 131.659 19.0184C131.663 19.1231 131.661 19.2278 131.66 19.3325C131.66 19.3849 131.659 19.4379 131.659 19.4903V20.2405C131.665 20.5733 131.736 20.7427 132.101 20.7427H136.727C138.815 20.7427 140.458 20.3252 141.119 19.6234C141.621 19.097 141.991 18.4195 142.218 17.6088C142.392 16.9736 142.492 16.2899 142.492 15.6003C142.492 14.0515 141.968 12.5087 140.481 11.6254C139.943 11.2987 139.269 11.1293 138.541 11.1293H132.094C131.731 11.1293 131.665 11.2866 131.659 11.6254Z" fill="#141414"/>
<path fill-rule="evenodd" clip-rule="evenodd" d="M171.77 24.6206C171.586 23.7495 171.216 22.9871 170.69 22.3701C170.165 21.747 169.478 21.2689 168.66 20.9604C167.657 20.5793 166.452 20.3313 165.174 20.2466C165.163 20.2466 165.151 20.2466 165.139 20.2405H165.085C165.047 20.2405 165.007 20.2375 164.965 20.2344C164.925 20.2315 164.885 20.2284 164.847 20.2284C163.145 20.1317 161.402 20.1497 159.719 20.1679H159.206C158.841 20.1679 158.764 20.0349 158.74 19.7929V19.7686C158.752 18.8793 158.764 17.9113 158.771 16.9191C158.776 16.445 158.781 15.9661 158.786 15.4902C158.796 14.4599 158.808 13.4436 158.823 12.5208C158.841 11.8372 158.991 11.0749 159.999 10.609L160.369 10.4336H155.189L155.493 10.603C156.615 11.2261 156.621 12.1881 156.628 13.2044V13.277C156.639 16.6589 156.639 20.3313 156.633 23.8825V27.6214C156.633 28.1418 156.628 28.6802 156.585 29.2064C156.514 30.1261 156.144 30.7492 155.5 31.0518L155.135 31.2271H157.57C158.346 31.2332 159.277 31.2332 160.226 31.2332H165.156C165.617 31.2332 165.843 31.2332 165.891 31.2271C166.159 31.2271 166.429 31.197 166.727 31.1606C168.261 30.955 169.609 30.2894 170.637 29.2489C171.663 28.2083 172.135 26.3328 171.77 24.6206ZM165.617 30.5375H159.17C158.805 30.5375 158.74 30.3741 158.734 30.0414V24.9898C158.74 24.2092 158.74 23.4228 158.734 22.6483V21.4264C158.734 21.0936 158.812 20.9242 159.175 20.9242H163.803C165.891 20.9242 167.539 21.3417 168.202 22.0434C168.697 22.5697 169.067 23.2473 169.294 24.058C169.466 24.6932 169.575 25.383 169.575 26.0666C169.575 27.6154 169.042 29.1581 167.562 30.0414C167.019 30.3681 166.345 30.5375 165.617 30.5375Z" fill="#141414"/>
<path d="M84.1164 11.0076V10.9652C84.0866 10.4752 83.7046 10.457 83.4 10.457H83.3106C82.4547 10.4611 81.5963 10.4597 80.7389 10.4584C80.3103 10.4577 79.8821 10.457 79.4546 10.457H71.6232C71.1957 10.457 70.7675 10.4577 70.3391 10.4584C69.4815 10.4597 68.6231 10.4611 67.7673 10.457H67.7094C67.4116 10.457 66.9969 10.4569 66.9615 10.9713V11.0076C66.9555 11.0439 66.9555 11.0802 66.9615 11.1104C66.9794 12.5927 66.9794 13.6393 66.9794 13.6393L66.9913 13.8692L67.1524 13.6816L67.1634 13.6686C67.5164 13.2452 67.7958 12.91 68.2507 12.5866C70.1608 11.2617 71.2353 11.1407 74.0526 11.1165C74.4704 11.1165 74.5122 11.7396 74.5122 12.0058V12.4717C74.5063 14.8554 74.5063 17.239 74.5063 19.6288C74.5063 22.6053 74.5063 25.5879 74.4944 28.5705C74.4884 29.5202 74.4822 30.5005 73.3543 31.057L73.008 31.2324H78.0698L77.7235 31.057C76.5957 30.5005 76.5895 29.5207 76.5835 28.571C76.5716 25.5884 76.5716 22.6053 76.5716 19.6288C76.5716 17.239 76.5716 14.8554 76.5656 12.4717V12.0058C76.5656 11.7396 76.6074 11.1165 77.0252 11.1165C79.8426 11.1407 80.917 11.2617 82.8271 12.5866C83.277 12.9065 83.5554 13.2379 83.9197 13.6718L83.9433 13.6998L84.0984 13.8874V13.6393C84.0984 13.6393 84.1045 12.5927 84.1164 11.1225C84.1204 11.094 84.1191 11.0683 84.1176 11.0434C84.117 11.0313 84.1164 11.0195 84.1164 11.0076Z" fill="#141414"/>
<path d="M115.385 50.1906V42.5537H116.191V45.9355H120.367V42.5537H121.173V50.1906H120.367V46.7023H116.191V50.1906H115.385Z" fill="#141414"/>
<path d="M127.494 47.2989L126.05 43.6987L124.6 47.2989H127.494ZM127.819 48.0657H124.281L123.423 50.1906H122.564L125.673 42.5537H126.421L129.53 50.1906H128.677L127.819 48.0657Z" fill="#141414"/>
<path d="M133.775 43.3207V45.6106H135.863C136.526 45.6106 137.084 45.8343 137.538 46.2816C137.994 46.729 138.223 47.2687 138.223 47.9006C138.223 48.5326 137.994 49.0723 137.538 49.5195C137.084 49.9669 136.526 50.1906 135.863 50.1906H132.969V42.5537H137.632V43.3207H133.775ZM133.775 49.429H135.863C136.313 49.429 136.684 49.2834 136.977 48.9923C137.271 48.7012 137.417 48.3372 137.417 47.9006C137.417 47.4639 137.271 47.1001 136.977 46.8088C136.684 46.5177 136.313 46.3721 135.863 46.3721H133.775V49.429Z" fill="#141414"/>
<path d="M141.196 44.1196C140.607 44.7267 140.311 45.4776 140.311 46.3722C140.311 47.2669 140.607 48.0178 141.196 48.6249C141.785 49.232 142.51 49.5355 143.368 49.5355C144.226 49.5355 144.95 49.232 145.539 48.6249C146.13 48.0178 146.424 47.2669 146.424 46.3722C146.424 45.4776 146.13 44.7267 145.539 44.1196C144.95 43.5125 144.226 43.2088 143.368 43.2088C142.51 43.2088 141.785 43.5125 141.196 44.1196ZM146.1 43.5923C146.849 44.3556 147.224 45.2822 147.224 46.3722C147.224 47.4621 146.849 48.3889 146.1 49.1521C145.35 49.9155 144.438 50.2971 143.368 50.2971C142.297 50.2971 141.387 49.9155 140.636 49.1521C139.886 48.3889 139.511 47.4621 139.511 46.3722C139.511 45.2822 139.886 44.3556 140.636 43.5923C141.387 42.829 142.297 42.4473 143.368 42.4473C144.438 42.4473 145.35 42.829 146.1 43.5923Z" fill="#141414"/>
<path d="M154.4 42.5537V50.1906H153.6V43.3207H150.38V44.8437C150.38 45.9692 150.334 46.9029 150.238 47.645C150.148 48.3834 150.005 48.9427 149.81 49.3225C149.618 49.6988 149.403 49.9563 149.166 50.0948C148.932 50.2296 148.641 50.2971 148.292 50.2971C148.177 50.2971 148.062 50.2882 147.947 50.2705C147.835 50.2527 147.75 50.2332 147.691 50.2118L147.597 50.1906V49.3705C147.809 49.4415 148.004 49.4788 148.182 49.4822C148.402 49.4822 148.588 49.4272 148.743 49.3172C148.899 49.2071 149.046 48.9959 149.182 48.6834C149.318 48.371 149.417 47.8971 149.48 47.2615C149.546 46.626 149.58 45.8201 149.58 44.8437V42.5537H154.4Z" fill="#141414"/>
<path d="M159.497 50.1906H156.655V42.5537H157.461V45.3923H159.497C160.192 45.3923 160.767 45.6213 161.224 46.0792C161.681 46.5373 161.91 47.1088 161.91 47.7941C161.91 48.4757 161.681 49.0456 161.224 49.5036C160.767 49.9616 160.192 50.1906 159.497 50.1906ZM157.461 49.429H159.497C159.982 49.429 160.371 49.28 160.664 48.9817C160.958 48.6834 161.103 48.2876 161.103 47.7941C161.103 47.2971 160.958 46.8994 160.664 46.6011C160.371 46.3029 159.982 46.1539 159.497 46.1539H157.461V49.429Z" fill="#141414"/>
<path d="M163.68 50.1906V42.5537H164.485V49.429H167.594V42.5537H168.395V49.429H171.503V42.5537H172.309V50.1906H163.68Z" fill="#141414"/>
<path d="M175.757 44.1196C175.168 44.7267 174.873 45.4776 174.873 46.3722C174.873 47.2669 175.168 48.0178 175.757 48.6249C176.348 49.232 177.071 49.5355 177.93 49.5355C178.788 49.5355 179.512 49.232 180.102 48.6249C180.691 48.0178 180.987 47.2669 180.987 46.3722C180.987 45.4776 180.691 44.7267 180.102 44.1196C179.512 43.5125 178.788 43.2088 177.93 43.2088C177.071 43.2088 176.348 43.5125 175.757 44.1196ZM180.662 43.5923C181.412 44.3556 181.787 45.2822 181.787 46.3722C181.787 47.4621 181.412 48.3889 180.662 49.1521C179.911 49.9155 179.001 50.2971 177.93 50.2971C176.858 50.2971 175.948 49.9155 175.198 49.1521C174.447 48.3889 174.072 47.4621 174.072 46.3722C174.072 45.2822 174.447 44.3556 175.198 43.5923C175.948 42.829 176.858 42.4473 177.93 42.4473C179.001 42.4473 179.911 42.829 180.662 43.5923Z" fill="#141414"/>
<path d="M187.653 41.111C187.387 41.3844 187.041 41.5211 186.611 41.5211C186.182 41.5211 185.834 41.3844 185.564 41.111C185.296 40.8376 185.162 40.4826 185.162 40.0459H185.754C185.754 40.2945 185.835 40.5022 185.999 40.669C186.163 40.8358 186.365 40.9192 186.606 40.9192C186.851 40.9192 187.055 40.8358 187.218 40.669C187.386 40.5022 187.47 40.2945 187.47 40.0459H188.056C188.056 40.4826 187.921 40.8376 187.653 41.111ZM189.663 50.191H188.862V44.0293L184.252 50.191H183.556V42.5542H184.361V48.7211L188.967 42.5542H189.663V50.191Z" fill="#141414"/>
</g>
<defs>
<clipPath id="clip0_293_57">
<rect width="219" height="190.279" fill="white" transform="translate(87 41.2207)"/>
</clipPath>
<clipPath id="clip1_293_57">
<rect width="219" height="190.279" fill="white" transform="translate(87 41.2207)"/>
</clipPath>
<clipPath id="clip2_293_57">
<rect width="219" height="190.279" fill="white" transform="translate(87 41.2207)"/>
</clipPath>
<clipPath id="clip3_293_57">
<rect width="196" height="52.86" fill="white"/>
</clipPath>
</defs>
</svg>
