<svg width="206" height="56" viewBox="0 0 206 56" fill="none" xmlns="http://www.w3.org/2000/svg">
<path d="M21.535 0.167969C24.5294 0.167969 27.3422 0.727517 29.9887 1.84661C32.6352 2.96571 34.9188 4.49312 36.8394 6.41374C38.76 8.33431 40.2874 10.6179 41.4065 13.2644C42.5256 15.9109 43.0851 18.7238 43.0851 21.7181V43.2682H38.7751V34.6482C36.8243 37.2342 34.3139 39.3211 31.2742 40.8939C28.2344 42.4818 24.983 43.2682 21.535 43.2682C18.4953 43.2682 15.6522 42.7087 13.0511 41.5896C10.4348 40.4705 8.16636 38.9431 6.24574 37.0225C4.32515 35.1019 2.79774 32.8334 1.67864 30.2172C0.559547 27.6009 0 24.7729 0 21.7332C0 18.7389 0.559547 15.926 1.67864 13.2795C2.79774 10.633 4.32515 8.34945 6.24574 6.42883C8.16636 4.50824 10.4348 2.98083 13.0511 1.86173C15.6673 0.727517 18.4953 0.167969 21.535 0.167969ZM21.535 38.9582C23.8942 38.9582 26.1172 38.5045 28.2193 37.582C30.3214 36.6595 32.1362 35.4346 33.6938 33.8769C35.2515 32.3193 36.4764 30.5045 37.3989 28.4024C38.3214 26.3003 38.7751 24.0773 38.7751 21.7181C38.7751 19.3589 38.3214 17.1359 37.3989 15.0338C36.4764 12.9317 35.2515 11.117 33.6938 9.55926C32.1362 8.00161 30.3214 6.77666 28.2193 5.85419C26.1172 4.93167 23.8942 4.47799 21.535 4.47799C19.1758 4.47799 16.9528 4.93167 14.8507 5.85419C12.7486 6.77666 10.9339 8.00161 9.37618 9.55926C7.81853 11.117 6.59358 12.9317 5.6711 15.0338C4.74858 17.1359 4.2949 19.3589 4.2949 21.7181C4.2949 24.0773 4.74858 26.3003 5.6711 28.4024C6.59358 30.5045 7.81853 32.3193 9.37618 33.8769C10.9339 35.4346 12.7486 36.6595 14.8507 37.582C16.9528 38.5045 19.191 38.9582 21.535 38.9582Z" fill="white"/>
<path d="M99.4167 21.5501C99.4167 24.5899 98.8419 27.433 97.6928 30.0341C96.5433 32.6503 94.9708 34.9188 92.9895 36.8394C91.0082 38.76 88.7246 40.2874 86.1388 41.4065C83.5525 42.5256 80.8003 43.0851 77.8665 43.0851C74.1916 43.0851 70.8796 42.2988 67.9459 40.7108C65.0121 39.1381 62.5772 37.0511 60.6265 34.4651V56H56.3164V21.5501C56.3164 18.5558 56.8761 15.743 57.995 13.0964C59.1144 10.4499 60.6416 8.16636 62.5621 6.24574C64.4826 4.32515 66.751 2.79774 69.3675 1.67864C71.9839 0.559547 74.8116 0 77.8515 0C80.7852 0 83.5375 0.559547 86.1237 1.67864C88.7095 2.79774 90.9931 4.32515 92.9744 6.24574C94.9552 8.16636 96.5282 10.4499 97.6777 13.0964C98.8419 15.758 99.4167 18.5709 99.4167 21.5501ZM95.1066 21.5501C95.1066 19.191 94.653 16.9679 93.7307 14.8658C92.8079 12.7637 91.5829 10.949 90.0255 9.39131C88.4676 7.83366 86.6528 6.60871 84.5507 5.68619C82.4487 4.76372 80.2255 4.31003 77.8665 4.31003C75.5076 4.31003 73.2844 4.76372 71.1823 5.68619C69.0803 6.60871 67.2655 7.83366 65.7076 9.39131C64.1502 10.949 62.9252 12.7637 62.0024 14.8658C61.0801 16.9679 60.6265 19.191 60.6265 21.5501C60.6265 23.9093 61.0801 26.1324 62.0024 28.2344C62.9252 30.3365 64.1502 32.1513 65.7076 33.709C67.2655 35.2666 69.0803 36.4916 71.1823 37.414C73.2844 38.3366 75.5076 38.7903 77.8665 38.7903C80.2255 38.7903 82.4487 38.3366 84.5507 37.414C86.6528 36.4916 88.4676 35.2666 90.0255 33.709C91.5829 32.1513 92.8079 30.3365 93.7307 28.2344C94.653 26.1475 95.1066 23.9093 95.1066 21.5501Z" fill="white"/>
<path d="M132.325 39.1066C136 39.1066 139.251 38.1237 142.064 36.1728C144.877 34.222 146.949 31.6057 148.264 28.324H153.013C152.257 30.5017 151.213 32.5131 149.867 34.3581C148.521 36.203 146.934 37.7758 145.134 39.0915C143.319 40.4072 141.323 41.4658 139.145 42.2371C136.968 43.0084 134.684 43.4016 132.34 43.4016C129.3 43.4016 126.457 42.842 123.856 41.7229C121.24 40.6038 118.971 39.0764 117.051 37.1558C115.13 35.2352 113.603 32.9667 112.483 30.3505C111.364 27.7342 110.805 24.9062 110.805 21.8665C110.805 18.8722 111.364 16.0593 112.483 13.4128C113.603 10.7663 115.13 8.48279 117.051 6.56217C118.971 4.64156 121.24 3.11414 123.856 1.99505C126.472 0.875953 129.3 0.316406 132.34 0.316406C135.334 0.316406 138.147 0.875953 140.794 1.99505C143.44 3.11414 145.724 4.64156 147.644 6.56217C149.565 8.48279 151.092 10.7663 152.211 13.4128C153.331 16.0593 153.89 18.8722 153.89 21.8665V24.014H146.132H115.1C115.448 26.1917 116.113 28.203 117.126 30.048C118.14 31.893 119.41 33.4658 120.967 34.7815C122.525 36.1123 124.249 37.1558 126.185 37.927C128.075 38.7286 130.132 39.1066 132.325 39.1066ZM132.325 4.62644C130.147 4.62644 128.09 5.01965 126.154 5.79091C124.234 6.56217 122.495 7.62077 120.937 8.93644C119.38 10.2522 118.109 11.8552 117.096 13.7153C116.083 15.5906 115.418 17.5868 115.07 19.704H149.55C149.202 17.5716 148.536 15.5754 147.523 13.7153C146.51 11.8552 145.24 10.2522 143.682 8.93644C142.125 7.62077 140.37 6.56217 138.419 5.79091C136.483 5.01965 134.442 4.62644 132.325 4.62644Z" fill="white"/>
<path d="M186.724 22.1716L205.567 40.9996L202.754 43.7974L183.926 24.9693L165.083 43.7974L162.285 40.9996L181.128 22.1716L162.285 3.32849L165.083 0.530751L183.926 19.3588L202.769 0.515625L205.582 3.31337L186.724 22.1716Z" fill="white"/>
</svg>
