<svg width="42" height="46" viewBox="0 0 42 46" fill="none" xmlns="http://www.w3.org/2000/svg">
<path d="M2 10.3333H6.16667H39.5" stroke="#313131" stroke-width="4" stroke-linecap="round" stroke-linejoin="round"/>
<path d="M12.417 10.3333V6.16667C12.417 5.0616 12.856 4.00179 13.6374 3.22039C14.4188 2.43899 15.4786 2 16.5837 2H24.917C26.0221 2 27.0819 2.43899 27.8633 3.22039C28.6447 4.00179 29.0837 5.0616 29.0837 6.16667V10.3333M35.3337 10.3333V39.5C35.3337 40.6051 34.8947 41.6649 34.1133 42.4463C33.3319 43.2277 32.2721 43.6667 31.167 43.6667H10.3337C9.22859 43.6667 8.16878 43.2277 7.38738 42.4463C6.60598 41.6649 6.16699 40.6051 6.16699 39.5V10.3333H35.3337Z" stroke="#313131" stroke-width="4" stroke-linecap="round" stroke-linejoin="round"/>
<path d="M24.917 20.75V33.25" stroke="#313131" stroke-width="4" stroke-linecap="round" stroke-linejoin="round"/>
<path d="M16.583 20.75V33.25" stroke="#313131" stroke-width="4" stroke-linecap="round" stroke-linejoin="round"/>
</svg>
