<svg width="42" height="45" viewBox="0 0 42 45" fill="none" xmlns="http://www.w3.org/2000/svg">
<path d="M41.6671 34.6509L35.3496 23.8398C36.6424 21.487 37.3158 18.8493 37.3078 16.1704C37.3078 11.8818 35.5886 7.76875 32.5284 4.73621C29.4681 1.70366 25.3175 0 20.9897 0C16.6619 0 12.5113 1.70366 9.45106 4.73621C6.39082 7.76875 4.67159 11.8818 4.67159 16.1704C4.66357 18.8493 5.33703 21.487 6.62977 23.8398L0.312327 34.6509C0.107328 35.0027 -0.000403909 35.4019 1.13796e-06 35.8082C0.000406185 36.2145 0.108933 36.6135 0.314634 36.9649C0.520334 37.3164 0.815932 37.6079 1.17161 37.8099C1.52728 38.012 1.93045 38.1176 2.34044 38.116H9.03086L12.4344 43.7987C12.5491 43.9871 12.6904 44.1582 12.854 44.3069C13.2861 44.7197 13.8623 44.9514 14.4625 44.9538H14.7888C15.1408 44.906 15.477 44.7792 15.772 44.5831C16.0669 44.3869 16.3127 44.1265 16.4906 43.8218L20.9897 36.1524L25.4888 43.8911C25.6693 44.1915 25.9163 44.4474 26.2111 44.6395C26.5058 44.8315 26.8408 44.9548 27.1906 45H27.517C28.1252 45.0036 28.7108 44.7715 29.1488 44.3531C29.3056 44.2129 29.4393 44.0492 29.5451 43.868L32.9486 38.1853H39.639C40.0498 38.1869 40.4537 38.0809 40.8098 37.8781C41.166 37.6753 41.4617 37.3828 41.6671 37.0303C41.8849 36.671 42 36.2597 42 35.8406C42 35.4214 41.8849 35.0102 41.6671 34.6509ZM14.4391 38.1853L12.3644 34.7433C12.1601 34.4018 11.8705 34.1182 11.5234 33.92C11.1763 33.7217 10.7835 33.6154 10.3829 33.6114H6.35003L9.68359 27.8824C11.9791 30.0744 14.8723 31.5521 18.0058 32.1329L14.4391 38.1853ZM20.9897 27.7207C18.6844 27.7207 16.4309 27.0433 14.5141 25.7741C12.5973 24.505 11.1034 22.7011 10.2212 20.5905C9.33896 18.48 9.10813 16.1576 9.55788 13.9171C10.0076 11.6765 11.1177 9.61846 12.7478 8.00312C14.3779 6.38778 16.4548 5.28773 18.7158 4.84205C20.9768 4.39638 23.3204 4.62512 25.4502 5.49933C27.58 6.37355 29.4004 7.85398 30.6812 9.75342C31.9619 11.6529 32.6455 13.886 32.6455 16.1704C32.6455 19.2337 31.4175 22.1716 29.2316 24.3377C27.0457 26.5038 24.081 27.7207 20.9897 27.7207ZM31.5965 33.6114C31.1959 33.6154 30.8031 33.7217 30.456 33.92C30.109 34.1182 29.8193 34.4018 29.615 34.7433L27.5403 38.1853L23.9969 32.0636C27.1194 31.4709 30.0019 29.9945 32.2958 27.8131L35.6294 33.5421L31.5965 33.6114Z" fill="#313131"/>
</svg>
