<svg width="40" height="46" viewBox="0 0 40 46" fill="none" xmlns="http://www.w3.org/2000/svg">
<path d="M40 12.7912C39.9865 12.7302 39.9865 12.6671 40 12.6062C39.9885 12.5528 39.9885 12.4977 40 12.4443V12.2362L39.8579 11.8893C39.8001 11.7946 39.7283 11.7089 39.6447 11.6349L39.4315 11.4499H39.3131L29.9806 5.69163L21.1693 0.372759C20.9654 0.21488 20.7321 0.0970797 20.4824 0.0258755H20.2929C20.0812 -0.00862516 19.865 -0.00862516 19.6533 0.0258755H19.4165C19.1413 0.0852901 18.8775 0.186751 18.6348 0.326508L0.941027 11.0799L0.727849 11.2418L0.514671 11.4268L0.277807 11.5886L0.159374 11.7274L0.0172552 12.0743V12.2824V12.4212C-0.00575173 12.5745 -0.00575173 12.7303 0.0172552 12.8837V33.0723C0.0164497 33.4653 0.118245 33.852 0.313031 34.1959C0.507817 34.5398 0.789166 34.8296 1.13052 35.0379L18.8954 45.7682L19.2507 45.9069H19.4402C19.8409 46.031 20.2711 46.031 20.6718 45.9069H20.8613L21.2166 45.7682L38.8394 35.1998C39.1807 34.9915 39.4621 34.7017 39.6569 34.3578C39.8516 34.0139 39.9534 33.6271 39.9526 33.2341V13.0455C39.9526 13.0455 40 12.8837 40 12.7912ZM19.8902 5.04412L24.1064 7.58792L10.8657 15.5894L6.62578 13.0455L19.8902 5.04412ZM17.5215 39.7324L4.494 31.9622V17.185L17.5215 25.0477V39.7324ZM19.8902 20.9776L15.3661 18.3182L28.6068 10.2936L33.1546 13.0455L19.8902 20.9776ZM35.2864 31.8929L22.2588 39.8018V25.0477L35.2864 17.185V31.8929Z" fill="#313131"/>
</svg>
