<svg width="25" height="24" viewBox="0 0 25 24" fill="none" xmlns="http://www.w3.org/2000/svg">
<path d="M20.0953 22.0001C20.6213 22.0001 21.0477 21.5737 21.0477 21.0477C21.0477 20.5217 20.6213 20.0953 20.0953 20.0953C19.5693 20.0953 19.1429 20.5217 19.1429 21.0477C19.1429 21.5737 19.5693 22.0001 20.0953 22.0001Z" stroke="#313131" stroke-width="3" stroke-linecap="round" stroke-linejoin="round"/>
<path d="M9.61901 22.0001C10.145 22.0001 10.5714 21.5737 10.5714 21.0477C10.5714 20.5217 10.145 20.0953 9.61901 20.0953C9.09302 20.0953 8.66663 20.5217 8.66663 21.0477C8.66663 21.5737 9.09302 22.0001 9.61901 22.0001Z" stroke="#313131" stroke-width="3" stroke-linecap="round" stroke-linejoin="round"/>
<path d="M2 1.99993H5.80955L8.36194 14.7524C8.44903 15.1909 8.68757 15.5847 9.0358 15.8651C9.38403 16.1454 9.81976 16.2943 10.2667 16.2857H19.5239C19.9709 16.2943 20.4066 16.1454 20.7548 15.8651C21.1031 15.5847 21.3416 15.1909 21.4287 14.7524L22.9525 6.76186H6.76193" stroke="#313131" stroke-width="3" stroke-linecap="round" stroke-linejoin="round"/>
</svg>
