<svg width="34" height="30" viewBox="0 0 34 30" fill="none" xmlns="http://www.w3.org/2000/svg">
<path d="M28.0782 28.315C28.8409 28.315 29.4592 27.7473 29.4592 27.0469C29.4592 26.3466 28.8409 25.7788 28.0782 25.7788C27.3155 25.7788 26.6973 26.3466 26.6973 27.0469C26.6973 27.7473 27.3155 28.315 28.0782 28.315Z" stroke="#313131" stroke-width="3" stroke-linecap="round" stroke-linejoin="round"/>
<path d="M12.8878 28.315C13.6505 28.315 14.2687 27.7473 14.2687 27.0469C14.2687 26.3466 13.6505 25.7788 12.8878 25.7788C12.1251 25.7788 11.5068 26.3466 11.5068 27.0469C11.5068 27.7473 12.1251 28.315 12.8878 28.315Z" stroke="#313131" stroke-width="3" stroke-linecap="round" stroke-linejoin="round"/>
<path d="M1.84033 1.68481H7.36414L11.0651 18.6648C11.1914 19.2486 11.5373 19.773 12.0422 20.1463C12.5471 20.5196 13.1789 20.7178 13.827 20.7064H27.2499C27.8979 20.7178 28.5297 20.5196 29.0347 20.1463C29.5396 19.773 29.8855 19.2486 30.0118 18.6648L32.2213 8.02535H8.74509" stroke="#313131" stroke-width="3" stroke-linecap="round" stroke-linejoin="round"/>
</svg>
