<svg width="23" height="22" viewBox="0 0 23 22" fill="none" xmlns="http://www.w3.org/2000/svg">
<path d="M19.0955 21.0001C19.6214 21.0001 20.0478 20.5737 20.0478 20.0477C20.0478 19.5217 19.6214 19.0953 19.0955 19.0953C18.5695 19.0953 18.1431 19.5217 18.1431 20.0477C18.1431 20.5737 18.5695 21.0001 19.0955 21.0001Z" stroke="white" stroke-width="2" stroke-linecap="round" stroke-linejoin="round"/>
<path d="M8.61889 21.0001C9.14488 21.0001 9.57128 20.5737 9.57128 20.0477C9.57128 19.5217 9.14488 19.0953 8.61889 19.0953C8.0929 19.0953 7.6665 19.5217 7.6665 20.0477C7.6665 20.5737 8.0929 21.0001 8.61889 21.0001Z" stroke="white" stroke-width="2" stroke-linecap="round" stroke-linejoin="round"/>
<path d="M1 0.999924H4.80955L7.36194 13.7524C7.44903 14.1909 7.68757 14.5847 8.0358 14.8651C8.38403 15.1454 8.81976 15.2943 9.26671 15.2857H18.5239C18.9709 15.2943 19.4066 15.1454 19.7548 14.8651C20.1031 14.5847 20.3416 14.1909 20.4287 13.7524L21.9525 5.76186H5.76193" stroke="white" stroke-width="2" stroke-linecap="round" stroke-linejoin="round"/>
</svg>
