<svg width="33" height="33" viewBox="0 0 33 33" fill="none" xmlns="http://www.w3.org/2000/svg">
<path d="M24.75 8.24988H8.25C7.81239 8.24988 7.39271 8.42372 7.08327 8.73315C6.77384 9.04258 6.6 9.46226 6.6 9.89986C6.6 10.3375 6.77384 10.7571 7.08327 11.0666C7.39271 11.376 7.81239 11.5498 8.25 11.5498H24.75C25.1876 11.5498 25.6073 11.376 25.9167 11.0666C26.2262 10.7571 26.4 10.3375 26.4 9.89986C26.4 9.46226 26.2262 9.04258 25.9167 8.73315C25.6073 8.42372 25.1876 8.24988 24.75 8.24988ZM24.75 14.8498H8.25C7.81239 14.8498 7.39271 15.0236 7.08327 15.3331C6.77384 15.6425 6.6 16.0622 6.6 16.4998C6.6 16.9374 6.77384 17.357 7.08327 17.6665C7.39271 17.9759 7.81239 18.1497 8.25 18.1497H24.75C25.1876 18.1497 25.6073 17.9759 25.9167 17.6665C26.2262 17.357 26.4 16.9374 26.4 16.4998C26.4 16.0622 26.2262 15.6425 25.9167 15.3331C25.6073 15.0236 25.1876 14.8498 24.75 14.8498ZM28.05 0H4.95C3.63718 0 2.37813 0.521509 1.44982 1.4498C0.521517 2.37809 0 3.63713 0 4.94993V21.4497C0 22.7625 0.521517 24.0215 1.44982 24.9498C2.37813 25.8781 3.63718 26.3996 4.95 26.3996H24.0735L30.1785 32.521C30.3327 32.674 30.5155 32.795 30.7166 32.8771C30.9176 32.9592 31.1328 33.0008 31.35 32.9995C31.5664 33.0051 31.7812 32.9599 31.977 32.8675C32.2783 32.7438 32.5363 32.5336 32.7183 32.2634C32.9004 31.9933 32.9984 31.6753 33 31.3496V4.94993C33 3.63713 32.4785 2.37809 31.5502 1.4498C30.6219 0.521509 29.3628 0 28.05 0ZM29.7 27.3731L25.9215 23.5782C25.7673 23.4253 25.5845 23.3043 25.3834 23.2222C25.1824 23.14 24.9671 23.0984 24.75 23.0997H4.95C4.51239 23.0997 4.09271 22.9258 3.78327 22.6164C3.47384 22.307 3.3 21.8873 3.3 21.4497V4.94993C3.3 4.51233 3.47384 4.09265 3.78327 3.78322C4.09271 3.47379 4.51239 3.29995 4.95 3.29995H28.05C28.4876 3.29995 28.9073 3.47379 29.2167 3.78322C29.5262 4.09265 29.7 4.51233 29.7 4.94993V27.3731Z" fill="#313131"/>
</svg>
