<svg width="20" height="20" viewBox="0 0 20 20" fill="none" xmlns="http://www.w3.org/2000/svg">
<path d="M6.18 2.00009L0.999999 2.00009C0.734783 2.00009 0.480429 2.10544 0.292892 2.29298C0.105356 2.48051 -7.53658e-07 2.73487 -7.42065e-07 3.00009C-7.30472e-07 3.2653 0.105356 3.51966 0.292892 3.70719C0.480429 3.89473 0.734783 4.00009 0.999999 4.00009L6.18 4.00009C6.3902 4.57924 6.77363 5.07963 7.27816 5.43324C7.7827 5.78686 8.38388 5.97656 9 5.97656C9.61612 5.97656 10.2173 5.78686 10.7218 5.43324C11.2264 5.07963 11.6098 4.57924 11.82 4.00009L19 4.00009C19.2652 4.00008 19.5196 3.89473 19.7071 3.70719C19.8946 3.51966 20 3.2653 20 3.00008C20 2.73487 19.8946 2.48051 19.7071 2.29298C19.5196 2.10544 19.2652 2.00008 19 2.00009L11.82 2.00009C11.6098 1.42093 11.2264 0.920545 10.7218 0.566926C10.2173 0.213308 9.61612 0.0236087 9 0.0236088C8.38388 0.0236088 7.7827 0.213308 7.27816 0.566927C6.77363 0.920545 6.3902 1.42093 6.18 2.00009ZM10 3.00009C10 3.19787 9.94135 3.39121 9.83147 3.55566C9.72159 3.72011 9.56541 3.84828 9.38268 3.92397C9.19996 3.99965 8.99889 4.01946 8.80491 3.98087C8.61093 3.94229 8.43275 3.84705 8.29289 3.70719C8.15304 3.56734 8.0578 3.38916 8.01921 3.19518C7.98063 3.0012 8.00043 2.80013 8.07612 2.6174C8.15181 2.43468 8.27998 2.2785 8.44443 2.16861C8.60888 2.05873 8.80222 2.00009 9 2.00009C9.26522 2.00009 9.51957 2.10544 9.70711 2.29298C9.89464 2.48051 10 2.73487 10 3.00009ZM12.18 9.00009L1 9.00009C0.734783 9.00009 0.480429 9.10544 0.292893 9.29298C0.105356 9.48052 -4.47679e-07 9.73487 -4.36086e-07 10.0001C-4.24493e-07 10.2653 0.105356 10.5197 0.292893 10.7072C0.480429 10.8947 0.734783 11.0001 1 11.0001L12.18 11.0001C12.3902 11.5792 12.7736 12.0796 13.2782 12.4332C13.7827 12.7869 14.3839 12.9766 15 12.9766C15.6161 12.9766 16.2173 12.7869 16.7218 12.4332C17.2264 12.0796 17.6098 11.5792 17.82 11.0001L19 11.0001C19.2652 11.0001 19.5196 10.8947 19.7071 10.7072C19.8946 10.5197 20 10.2653 20 10.0001C20 9.73487 19.8946 9.48051 19.7071 9.29298C19.5196 9.10544 19.2652 9.00008 19 9.00009L17.82 9.00009C17.6098 8.42093 17.2264 7.92055 16.7218 7.56693C16.2173 7.21331 15.6161 7.02361 15 7.02361C14.3839 7.02361 13.7827 7.21331 13.2782 7.56693C12.7736 7.92055 12.3902 8.42093 12.18 9.00009ZM16 10.0001C16 10.1979 15.9414 10.3912 15.8315 10.5557C15.7216 10.7201 15.5654 10.8483 15.3827 10.924C15.2 10.9997 14.9989 11.0195 14.8049 10.9809C14.6109 10.9423 14.4327 10.847 14.2929 10.7072C14.153 10.5673 14.0578 10.3892 14.0192 10.1952C13.9806 10.0012 14.0004 9.80013 14.0761 9.6174C14.1518 9.43468 14.28 9.2785 14.4444 9.16862C14.6089 9.05873 14.8022 9.00009 15 9.00009C15.2652 9.00009 15.5196 9.10544 15.7071 9.29298C15.8946 9.48051 16 9.73487 16 10.0001ZM4.18 16.0001L1 16.0001C0.734783 16.0001 0.480429 16.1054 0.292893 16.293C0.105357 16.4805 -1.41699e-07 16.7349 -1.30106e-07 17.0001C-1.18513e-07 17.2653 0.105357 17.5197 0.292893 17.7072C0.480429 17.8947 0.734783 18.0001 1 18.0001L4.18 18.0001C4.3902 18.5792 4.77363 19.0796 5.27817 19.4332C5.7827 19.7869 6.38388 19.9766 7 19.9766C7.61612 19.9766 8.2173 19.7869 8.72184 19.4332C9.22637 19.0796 9.6098 18.5792 9.82 18.0001L19 18.0001C19.2652 18.0001 19.5196 17.8947 19.7071 17.7072C19.8946 17.5197 20 17.2653 20 17.0001C20 16.7349 19.8946 16.4805 19.7071 16.293C19.5196 16.1054 19.2652 16.0001 19 16.0001L9.82 16.0001C9.6098 15.4209 9.22637 14.9205 8.72183 14.5669C8.2173 14.2133 7.61612 14.0236 7 14.0236C6.38388 14.0236 5.7827 14.2133 5.27817 14.5669C4.77363 14.9205 4.3902 15.4209 4.18 16.0001ZM8 17.0001C8 17.1979 7.94135 17.3912 7.83147 17.5557C7.72159 17.7201 7.56541 17.8483 7.38268 17.924C7.19996 17.9997 6.99889 18.0195 6.80491 17.9809C6.61093 17.9423 6.43275 17.847 6.29289 17.7072C6.15304 17.5673 6.0578 17.3892 6.01921 17.1952C5.98063 17.0012 6.00043 16.8001 6.07612 16.6174C6.15181 16.4347 6.27998 16.2785 6.44443 16.1686C6.60888 16.0587 6.80222 16.0001 7 16.0001C7.26522 16.0001 7.51957 16.1054 7.70711 16.293C7.89464 16.4805 8 16.7349 8 17.0001Z" fill="white"/>
</svg>
