<svg width="40" height="45" viewBox="0 0 40 45" fill="none" xmlns="http://www.w3.org/2000/svg">
<path d="M33.3333 11.5085H32.5556C33.0627 10.4809 33.3286 9.35305 33.3333 8.20937C33.3401 6.67708 32.8833 5.17787 32.0218 3.90471C31.1603 2.63155 29.9336 1.64271 28.4994 1.06548C27.0653 0.48825 25.4895 0.349046 23.9747 0.665786C22.46 0.982527 21.0757 1.74071 20 2.84276C18.9243 1.74071 17.54 0.982527 16.0253 0.665786C14.5106 0.349046 12.9347 0.48825 11.5006 1.06548C10.0664 1.64271 8.83968 2.63155 7.9782 3.90471C7.11672 5.17787 6.65994 6.67708 6.66667 8.20937C6.67141 9.35305 6.93729 10.4809 7.44444 11.5085H6.66667C4.89856 11.5085 3.20286 12.2037 1.95262 13.4411C0.702379 14.6785 0 16.3568 0 18.1068V22.5057C0 23.089 0.234126 23.6484 0.650874 24.0609C1.06762 24.4734 1.63285 24.7051 2.22222 24.7051H4.44444V37.9017C4.44444 39.6517 5.14682 41.33 6.39707 42.5674C7.64731 43.8048 9.343 44.5 11.1111 44.5H28.8889C30.657 44.5 32.3527 43.8048 33.6029 42.5674C34.8532 41.33 35.5556 39.6517 35.5556 37.9017V24.7051H37.7778C38.3671 24.7051 38.9324 24.4734 39.3491 24.0609C39.7659 23.6484 40 23.089 40 22.5057V18.1068C40 16.3568 39.2976 14.6785 38.0474 13.4411C36.7971 12.2037 35.1014 11.5085 33.3333 11.5085ZM17.7778 40.1011H11.1111C10.5217 40.1011 9.95651 39.8694 9.53976 39.4569C9.12302 39.0445 8.88889 38.485 8.88889 37.9017V24.7051H17.7778V40.1011ZM17.7778 20.3062H4.44444V18.1068C4.44444 17.5235 4.67857 16.9641 5.09532 16.5516C5.51207 16.1391 6.0773 15.9074 6.66667 15.9074H17.7778V20.3062ZM17.7778 11.5085H14.4444C13.7852 11.5085 13.1407 11.315 12.5925 10.9525C12.0444 10.59 11.6171 10.0747 11.3648 9.4719C11.1126 8.86906 11.0465 8.20571 11.1752 7.56574C11.3038 6.92577 11.6212 6.33791 12.0874 5.87652C12.5536 5.41513 13.1475 5.10091 13.7941 4.97361C14.4407 4.84632 15.111 4.91165 15.7201 5.16136C16.3291 5.41106 16.8497 5.83392 17.216 6.37646C17.5823 6.919 17.7778 7.55686 17.7778 8.20937V11.5085ZM22.2222 8.20937C22.2222 7.55686 22.4177 6.919 22.784 6.37646C23.1503 5.83392 23.6709 5.41106 24.2799 5.16136C24.889 4.91165 25.5593 4.84632 26.2059 4.97361C26.8525 5.10091 27.4464 5.41513 27.9126 5.87652C28.3788 6.33791 28.6962 6.92577 28.8248 7.56574C28.9535 8.20571 28.8874 8.86906 28.6352 9.4719C28.3829 10.0747 27.9556 10.59 27.4075 10.9525C26.8593 11.315 26.2148 11.5085 25.5556 11.5085H22.2222V8.20937ZM31.1111 37.9017C31.1111 38.485 30.877 39.0445 30.4602 39.4569C30.0435 39.8694 29.4783 40.1011 28.8889 40.1011H22.2222V24.7051H31.1111V37.9017ZM35.5556 20.3062H22.2222V15.9074H33.3333C33.9227 15.9074 34.4879 16.1391 34.9047 16.5516C35.3214 16.9641 35.5556 17.5235 35.5556 18.1068V20.3062Z" fill="#313131"/>
</svg>
