<svg width="36" height="32" viewBox="0 0 36 32" fill="none" xmlns="http://www.w3.org/2000/svg">
<path d="M31.5325 4.4754C30.7506 3.69063 29.8222 3.06809 28.8004 2.64335C27.7786 2.21861 26.6834 2 25.5774 2C24.4714 2 23.3762 2.21861 22.3544 2.64335C21.3326 3.06809 20.4042 3.69063 19.6223 4.4754L17.9996 6.10333L16.3769 4.4754C14.7975 2.89096 12.6554 2.00082 10.4218 2.00082C8.18818 2.00082 6.04607 2.89096 4.46668 4.4754C2.88729 6.05985 2 8.20882 2 10.4496C2 12.6903 2.88729 14.8393 4.46668 16.4237L6.0894 18.0517L17.9996 30L29.9098 18.0517L31.5325 16.4237C32.3148 15.6393 32.9353 14.708 33.3587 13.6829C33.7821 12.6579 34 11.5592 34 10.4496C34 9.33999 33.7821 8.24129 33.3587 7.21622C32.9353 6.19115 32.3148 5.25981 31.5325 4.4754V4.4754Z" stroke="#969696" stroke-width="4" stroke-linejoin="round"/>
</svg>
