<svg width="173" height="42" viewBox="0 0 173 42" fill="none" xmlns="http://www.w3.org/2000/svg">
<g clip-path="url(#clip0_269_30)">
<path d="M20.2552 0.836216C20.8422 -0.278644 22.4084 -0.278764 22.9955 0.836006L26.0696 6.67296L18.9141 3.38362L20.2552 0.836216Z" fill="#FE9C10"/>
<path d="M14.5391 11.7329L18.9168 3.38477L26.0724 6.67411L17.1168 12.2093L14.5391 11.7329Z" fill="#9A3D64"/>
<path d="M17.1152 12.209L26.0707 6.67383L34.7596 23.3021L28.2485 28.2701L17.1152 12.209Z" fill="#C33B50"/>
<path d="M1.67188 36.2777L10.8052 18.8555L28.2498 28.2698L1.67188 36.2777Z" fill="#C33E52"/>
<path d="M14.536 11.7324L17.1138 12.2088L28.2471 28.2699L10.8027 18.8556L14.536 11.7324Z" fill="#CC3A52"/>
<path d="M1.67188 36.2774L19.8053 41.4496L28.2498 28.2695L1.67188 36.2774Z" fill="#AE323E"/>
<path d="M28.2471 28.2695L19.8027 41.4496L40.536 34.2131L28.2471 28.2695Z" fill="#C53E52"/>
<path d="M30.3138 37.7754L19.8027 41.4504H32.4694L30.3138 37.7754Z" fill="#AA3E65"/>
<path d="M1.67026 36.2773L0.184207 39.1123C-0.370264 40.1702 0.380507 41.4495 1.55575 41.4495H19.8035L1.67026 36.2773Z" fill="#93345C"/>
<path d="M34.648 23.0078L28.248 28.2708L40.5369 34.2143L34.648 23.0078Z" fill="#D43D58"/>
<path d="M40.5327 34.2129L43.1047 39.1113C43.6603 40.1691 42.9096 41.4495 41.7339 41.4495H32.4661L30.3105 37.7745L40.5327 34.2129Z" fill="#D83F65"/>
<path d="M49.9785 21.8964V7.8964H52.5385V17.8364L60.0585 7.8964H62.4785V21.8964H59.9185V11.9764L52.3985 21.8964H49.9785ZM66.1238 21.8964V11.2164H68.6238V15.5564H74.0038V11.2164H76.5038V21.8964H74.0038V17.6764H68.6238V21.8964H66.1238ZM86.6343 22.0964C86.621 22.0964 86.561 22.0964 86.4543 22.0964C86.361 22.0964 86.2676 22.0964 86.1743 22.0964C86.0943 22.0964 86.041 22.0964 86.0143 22.0964C83.761 22.0697 82.0143 21.5831 80.7743 20.6364C79.5343 19.6764 78.9143 18.3097 78.9143 16.5364C78.9143 14.7764 79.5343 13.4297 80.7743 12.4964C82.0143 11.5631 83.781 11.0831 86.0743 11.0564C86.101 11.0564 86.1543 11.0564 86.2343 11.0564C86.3276 11.0564 86.4143 11.0564 86.4943 11.0564C86.5876 11.0564 86.641 11.0564 86.6543 11.0564C88.961 11.0564 90.7543 11.5297 92.0343 12.4764C93.3276 13.4097 93.9743 14.7631 93.9743 16.5364C93.9743 18.3231 93.3276 19.6964 92.0343 20.6564C90.7543 21.6164 88.9543 22.0964 86.6343 22.0964ZM86.5543 20.0164C87.6876 20.0164 88.621 19.8897 89.3543 19.6364C90.0876 19.3697 90.6343 18.9831 90.9943 18.4764C91.3543 17.9564 91.5343 17.3097 91.5343 16.5364C91.5343 15.7764 91.3543 15.1497 90.9943 14.6564C90.6343 14.1497 90.0876 13.7764 89.3543 13.5364C88.621 13.2831 87.6876 13.1564 86.5543 13.1564C86.5276 13.1564 86.461 13.1564 86.3543 13.1564C86.261 13.1564 86.201 13.1564 86.1743 13.1564C85.0676 13.1564 84.161 13.2897 83.4543 13.5564C82.7476 13.8097 82.221 14.1831 81.8743 14.6764C81.541 15.1697 81.3743 15.7897 81.3743 16.5364C81.3743 17.2964 81.541 17.9297 81.8743 18.4364C82.221 18.9431 82.7476 19.3297 83.4543 19.5964C84.1743 19.8631 85.081 20.0031 86.1743 20.0164C86.201 20.0164 86.261 20.0164 86.3543 20.0164C86.461 20.0164 86.5276 20.0164 86.5543 20.0164ZM85.2543 25.7764V7.0564H87.6143V25.7764H85.2543ZM102.318 22.0364C101.451 22.0364 100.658 21.8364 99.9373 21.4364C99.2306 21.0364 98.6639 20.4364 98.2373 19.6364C97.8239 18.8231 97.6173 17.7964 97.6173 16.5564C97.6173 15.3031 97.8173 14.2764 98.2173 13.4764C98.6306 12.6764 99.1906 12.0831 99.8973 11.6964C100.604 11.2964 101.411 11.0964 102.318 11.0964C103.371 11.0964 104.298 11.3231 105.098 11.7764C105.911 12.2297 106.551 12.8631 107.018 13.6764C107.498 14.4897 107.738 15.4497 107.738 16.5564C107.738 17.6631 107.498 18.6297 107.018 19.4564C106.551 20.2697 105.911 20.9031 105.098 21.3564C104.298 21.8097 103.371 22.0364 102.318 22.0364ZM96.3973 25.7764V11.2164H98.7773V13.7364L98.6973 16.5764L98.8973 19.4164V25.7764H96.3973ZM102.038 19.8964C102.638 19.8964 103.171 19.7631 103.638 19.4964C104.118 19.2297 104.498 18.8431 104.778 18.3364C105.058 17.8297 105.198 17.2364 105.198 16.5564C105.198 15.8631 105.058 15.2697 104.778 14.7764C104.498 14.2697 104.118 13.8831 103.638 13.6164C103.171 13.3497 102.638 13.2164 102.038 13.2164C101.438 13.2164 100.898 13.3497 100.418 13.6164C99.9373 13.8831 99.5573 14.2697 99.2773 14.7764C98.9973 15.2697 98.8573 15.8631 98.8573 16.5564C98.8573 17.2364 98.9973 17.8297 99.2773 18.3364C99.5573 18.8431 99.9373 19.2297 100.418 19.4964C100.898 19.7631 101.438 19.8964 102.038 19.8964ZM116.569 21.8964V19.7364L116.429 19.2764V15.4964C116.429 14.7631 116.209 14.1964 115.769 13.7964C115.329 13.3831 114.663 13.1764 113.769 13.1764C113.169 13.1764 112.576 13.2697 111.989 13.4564C111.416 13.6431 110.929 13.9031 110.529 14.2364L109.549 12.4164C110.123 11.9764 110.803 11.6497 111.589 11.4364C112.389 11.2097 113.216 11.0964 114.069 11.0964C115.616 11.0964 116.809 11.4697 117.649 12.2164C118.503 12.9497 118.929 14.0897 118.929 15.6364V21.8964H116.569ZM113.209 22.0364C112.409 22.0364 111.709 21.9031 111.109 21.6364C110.509 21.3564 110.043 20.9764 109.709 20.4964C109.389 20.0031 109.229 19.4497 109.229 18.8364C109.229 18.2364 109.369 17.6964 109.649 17.2164C109.943 16.7364 110.416 16.3564 111.069 16.0764C111.723 15.7964 112.589 15.6564 113.669 15.6564H116.769V17.3164H113.849C112.996 17.3164 112.423 17.4564 112.129 17.7364C111.836 18.0031 111.689 18.3364 111.689 18.7364C111.689 19.1897 111.869 19.5497 112.229 19.8164C112.589 20.0831 113.089 20.2164 113.729 20.2164C114.343 20.2164 114.889 20.0764 115.369 19.7964C115.863 19.5164 116.216 19.1031 116.429 18.5564L116.849 20.0564C116.609 20.6831 116.176 21.1697 115.549 21.5164C114.936 21.8631 114.156 22.0364 113.209 22.0364ZM122.303 21.8964V7.8964H128.063C129.303 7.8964 130.363 8.0964 131.243 8.4964C132.136 8.8964 132.823 9.46974 133.303 10.2164C133.783 10.9631 134.023 11.8497 134.023 12.8764C134.023 13.9031 133.783 14.7897 133.303 15.5364C132.823 16.2831 132.136 16.8564 131.243 17.2564C130.363 17.6564 129.303 17.8564 128.063 17.8564H123.743L124.903 16.6364V21.8964H122.303ZM124.903 16.9164L123.743 15.6564H127.943C129.089 15.6564 129.949 15.4164 130.523 14.9364C131.109 14.4431 131.403 13.7564 131.403 12.8764C131.403 11.9831 131.109 11.2964 130.523 10.8164C129.949 10.3364 129.089 10.0964 127.943 10.0964H123.743L124.903 8.8164V16.9164ZM137.887 17.3964V15.5964H143.687V17.3964H137.887ZM139.347 11.0564C140.493 11.0564 141.507 11.2964 142.387 11.7764C143.267 12.2431 143.96 12.8897 144.467 13.7164C144.973 14.5297 145.227 15.4764 145.227 16.5564C145.227 17.6231 144.973 18.5764 144.467 19.4164C143.96 20.2431 143.267 20.8964 142.387 21.3764C141.507 21.8431 140.493 22.0764 139.347 22.0764C138.387 22.0764 137.507 21.9164 136.707 21.5964C135.907 21.2764 135.24 20.8164 134.707 20.2164L136.147 18.8164C136.573 19.2297 137.04 19.5431 137.547 19.7564C138.067 19.9697 138.633 20.0764 139.247 20.0764C139.967 20.0764 140.6 19.9297 141.147 19.6364C141.693 19.3297 142.127 18.9097 142.447 18.3764C142.767 17.8431 142.927 17.2364 142.927 16.5564C142.927 15.8631 142.767 15.2564 142.447 14.7364C142.127 14.2031 141.693 13.7897 141.147 13.4964C140.6 13.1897 139.967 13.0364 139.247 13.0364C138.633 13.0364 138.067 13.1431 137.547 13.3564C137.04 13.5697 136.573 13.8897 136.147 14.3164L134.707 12.9164C135.24 12.3164 135.907 11.8564 136.707 11.5364C137.507 11.2164 138.387 11.0564 139.347 11.0564ZM154.851 20.7364V13.3364H150.751L150.691 15.0564C150.664 15.6697 150.624 16.2631 150.571 16.8364C150.517 17.3964 150.431 17.9164 150.311 18.3964C150.191 18.8631 150.017 19.2497 149.791 19.5564C149.564 19.8631 149.264 20.0631 148.891 20.1564L146.411 19.7764C146.811 19.7764 147.131 19.6497 147.371 19.3964C147.624 19.1297 147.817 18.7697 147.951 18.3164C148.097 17.8497 148.204 17.3231 148.271 16.7364C148.337 16.1364 148.384 15.5164 148.411 14.8764L148.551 11.2164H157.351V20.7364H154.851ZM146.031 24.2764V19.7764H158.931V24.2764H156.591V21.8964H148.351V24.2764H146.031ZM167.643 21.8964V19.7364L167.503 19.2764V15.4964C167.503 14.7631 167.283 14.1964 166.843 13.7964C166.403 13.3831 165.737 13.1764 164.843 13.1764C164.243 13.1764 163.65 13.2697 163.063 13.4564C162.49 13.6431 162.003 13.9031 161.603 14.2364L160.623 12.4164C161.197 11.9764 161.877 11.6497 162.663 11.4364C163.463 11.2097 164.29 11.0964 165.143 11.0964C166.69 11.0964 167.883 11.4697 168.723 12.2164C169.577 12.9497 170.003 14.0897 170.003 15.6364V21.8964H167.643ZM164.283 22.0364C163.483 22.0364 162.783 21.9031 162.183 21.6364C161.583 21.3564 161.117 20.9764 160.783 20.4964C160.463 20.0031 160.303 19.4497 160.303 18.8364C160.303 18.2364 160.443 17.6964 160.723 17.2164C161.017 16.7364 161.49 16.3564 162.143 16.0764C162.797 15.7964 163.663 15.6564 164.743 15.6564H167.843V17.3164H164.923C164.07 17.3164 163.497 17.4564 163.203 17.7364C162.91 18.0031 162.763 18.3364 162.763 18.7364C162.763 19.1897 162.943 19.5497 163.303 19.8164C163.663 20.0831 164.163 20.2164 164.803 20.2164C165.417 20.2164 165.963 20.0764 166.443 19.7964C166.937 19.5164 167.29 19.1031 167.503 18.5564L167.923 20.0564C167.683 20.6831 167.25 21.1697 166.623 21.5164C166.01 21.8631 165.23 22.0364 164.283 22.0364Z" fill="#1F1F1F"/>
<path d="M51.9088 37.8965V31.9425L52.2858 32.3325H49.4648V30.9545H55.9648V32.3325H53.1568L53.5338 31.9425V37.8965H51.9088ZM60.0759 37.9875C59.3045 37.9875 58.6285 37.8358 58.0479 37.5325C57.4759 37.2205 57.0295 36.7958 56.7089 36.2585C56.3969 35.7212 56.2409 35.1102 56.2409 34.4255C56.2409 33.7322 56.3925 33.1212 56.6959 32.5925C57.0079 32.0552 57.4325 31.6348 57.9699 31.3315C58.5159 31.0282 59.1355 30.8765 59.8289 30.8765C60.5049 30.8765 61.1072 31.0238 61.6359 31.3185C62.1645 31.6132 62.5805 32.0292 62.8839 32.5665C63.1872 33.1038 63.3389 33.7365 63.3389 34.4645C63.3389 34.5338 63.3345 34.6118 63.3259 34.6985C63.3259 34.7852 63.3215 34.8675 63.3129 34.9455H57.5279V33.8665H62.4549L61.8179 34.2045C61.8265 33.8058 61.7442 33.4548 61.5709 33.1515C61.3975 32.8482 61.1592 32.6098 60.8559 32.4365C60.5612 32.2632 60.2189 32.1765 59.8289 32.1765C59.4302 32.1765 59.0792 32.2632 58.7759 32.4365C58.4812 32.6098 58.2472 32.8525 58.0739 33.1645C57.9092 33.4678 57.8269 33.8275 57.8269 34.2435V34.5035C57.8269 34.9195 57.9222 35.2878 58.1129 35.6085C58.3035 35.9292 58.5722 36.1762 58.9189 36.3495C59.2655 36.5228 59.6642 36.6095 60.1149 36.6095C60.5049 36.6095 60.8559 36.5488 61.1679 36.4275C61.4799 36.3062 61.7572 36.1155 61.9999 35.8555L62.8709 36.8565C62.5589 37.2205 62.1645 37.5022 61.6879 37.7015C61.2199 37.8922 60.6825 37.9875 60.0759 37.9875ZM65.1162 37.8965V30.9545H71.7722V37.8965H70.1602V31.9555L70.5372 32.3325H66.3642L66.7412 31.9555V37.8965H65.1162ZM72.9508 37.8835L73.0288 36.5185C73.0895 36.5272 73.1458 36.5358 73.1978 36.5445C73.2498 36.5532 73.2975 36.5575 73.3408 36.5575C73.6095 36.5575 73.8175 36.4752 73.9648 36.3105C74.1122 36.1458 74.2205 35.9248 74.2898 35.6475C74.3678 35.3615 74.4198 35.0452 74.4458 34.6985C74.4805 34.3432 74.5065 33.9878 74.5238 33.6325L74.6408 30.9545H80.2568V37.8965H78.6318V31.8905L79.0088 32.3325H75.7068L76.0578 31.8775L75.9668 33.7105C75.9408 34.3258 75.8888 34.8978 75.8108 35.4265C75.7415 35.9465 75.6288 36.4015 75.4728 36.7915C75.3255 37.1815 75.1175 37.4848 74.8488 37.7015C74.5888 37.9182 74.2552 38.0265 73.8478 38.0265C73.7178 38.0265 73.5748 38.0135 73.4188 37.9875C73.2715 37.9615 73.1155 37.9268 72.9508 37.8835ZM85.5393 37.9875C84.8286 37.9875 84.196 37.8358 83.6413 37.5325C83.0866 37.2205 82.649 36.7958 82.3283 36.2585C82.0076 35.7212 81.8473 35.1102 81.8473 34.4255C81.8473 33.7322 82.0076 33.1212 82.3283 32.5925C82.649 32.0552 83.0866 31.6348 83.6413 31.3315C84.196 31.0282 84.8286 30.8765 85.5393 30.8765C86.2586 30.8765 86.8956 31.0282 87.4503 31.3315C88.0136 31.6348 88.4513 32.0508 88.7633 32.5795C89.084 33.1082 89.2443 33.7235 89.2443 34.4255C89.2443 35.1102 89.084 35.7212 88.7633 36.2585C88.4513 36.7958 88.0136 37.2205 87.4503 37.5325C86.8956 37.8358 86.2586 37.9875 85.5393 37.9875ZM85.5393 36.5965C85.938 36.5965 86.2933 36.5098 86.6053 36.3365C86.9173 36.1632 87.16 35.9118 87.3333 35.5825C87.5153 35.2532 87.6063 34.8675 87.6063 34.4255C87.6063 33.9748 87.5153 33.5892 87.3333 33.2685C87.16 32.9392 86.9173 32.6878 86.6053 32.5145C86.2933 32.3412 85.9423 32.2545 85.5523 32.2545C85.1536 32.2545 84.7983 32.3412 84.4863 32.5145C84.183 32.6878 83.9403 32.9392 83.7583 33.2685C83.5763 33.5892 83.4853 33.9748 83.4853 34.4255C83.4853 34.8675 83.5763 35.2532 83.7583 35.5825C83.9403 35.9118 84.183 36.1632 84.4863 36.3365C84.7983 36.5098 85.1493 36.5965 85.5393 36.5965ZM90.8496 37.8965V30.9545H94.2426C95.0833 30.9545 95.7419 31.1105 96.2186 31.4225C96.7039 31.7345 96.9466 32.1765 96.9466 32.7485C96.9466 33.3118 96.7213 33.7538 96.2706 34.0745C95.8199 34.3865 95.2219 34.5425 94.4766 34.5425L94.6716 34.1395C95.5123 34.1395 96.1363 34.2955 96.5436 34.6075C96.9596 34.9108 97.1676 35.3572 97.1676 35.9465C97.1676 36.5618 96.9379 37.0428 96.4786 37.3895C96.0193 37.7275 95.3216 37.8965 94.3856 37.8965H90.8496ZM92.3966 36.7135H94.2556C94.6976 36.7135 95.0313 36.6442 95.2566 36.5055C95.4819 36.3582 95.5946 36.1372 95.5946 35.8425C95.5946 35.5305 95.4906 35.3008 95.2826 35.1535C95.0746 35.0062 94.7496 34.9325 94.3076 34.9325H92.3966V36.7135ZM92.3966 33.8535H94.0996C94.5156 33.8535 94.8276 33.7798 95.0356 33.6325C95.2523 33.4765 95.3606 33.2598 95.3606 32.9825C95.3606 32.6965 95.2523 32.4842 95.0356 32.3455C94.8276 32.2068 94.5156 32.1375 94.0996 32.1375H92.3966V33.8535ZM105.906 37.8965V30.9545H107.531V37.8965H105.906ZM102.279 33.2425C103.171 33.2425 103.847 33.4418 104.307 33.8405C104.775 34.2392 105.009 34.8025 105.009 35.5305C105.009 36.2845 104.749 36.8738 104.229 37.2985C103.717 37.7145 102.989 37.9182 102.045 37.9095L98.8984 37.8965V30.9545H100.524V33.2295L102.279 33.2425ZM101.902 36.7135C102.378 36.7222 102.742 36.6225 102.994 36.4145C103.245 36.2065 103.371 35.9032 103.371 35.5045C103.371 35.1058 103.245 34.8198 102.994 34.6465C102.751 34.4645 102.387 34.3692 101.902 34.3605L100.524 34.3475V36.7005L101.902 36.7135ZM112.952 37.9875C112.181 37.9875 111.505 37.8358 110.924 37.5325C110.352 37.2205 109.906 36.7958 109.585 36.2585C109.273 35.7212 109.117 35.1102 109.117 34.4255C109.117 33.7322 109.269 33.1212 109.572 32.5925C109.884 32.0552 110.309 31.6348 110.846 31.3315C111.392 31.0282 112.012 30.8765 112.705 30.8765C113.381 30.8765 113.983 31.0238 114.512 31.3185C115.041 31.6132 115.457 32.0292 115.76 32.5665C116.063 33.1038 116.215 33.7365 116.215 34.4645C116.215 34.5338 116.211 34.6118 116.202 34.6985C116.202 34.7852 116.198 34.8675 116.189 34.9455H110.404V33.8665H115.331L114.694 34.2045C114.703 33.8058 114.62 33.4548 114.447 33.1515C114.274 32.8482 114.035 32.6098 113.732 32.4365C113.437 32.2632 113.095 32.1765 112.705 32.1765C112.306 32.1765 111.955 32.2632 111.652 32.4365C111.357 32.6098 111.123 32.8525 110.95 33.1645C110.785 33.4678 110.703 33.8275 110.703 34.2435V34.5035C110.703 34.9195 110.798 35.2878 110.989 35.6085C111.18 35.9292 111.448 36.1762 111.795 36.3495C112.142 36.5228 112.54 36.6095 112.991 36.6095C113.381 36.6095 113.732 36.5488 114.044 36.4275C114.356 36.3062 114.633 36.1155 114.876 35.8555L115.747 36.8565C115.435 37.2205 115.041 37.5022 114.564 37.7015C114.096 37.8922 113.559 37.9875 112.952 37.9875ZM121.585 37.8965V30.9545H128.241V37.8965H126.629V31.9555L127.006 32.3325H122.833L123.21 31.9555V37.8965H121.585ZM134.646 37.8965V36.4925L134.555 36.1935V33.7365C134.555 33.2598 134.412 32.8915 134.126 32.6315C133.84 32.3628 133.406 32.2285 132.826 32.2285C132.436 32.2285 132.05 32.2892 131.669 32.4105C131.296 32.5318 130.98 32.7008 130.72 32.9175L130.083 31.7345C130.455 31.4485 130.897 31.2362 131.409 31.0975C131.929 30.9502 132.466 30.8765 133.021 30.8765C134.026 30.8765 134.802 31.1192 135.348 31.6045C135.902 32.0812 136.18 32.8222 136.18 33.8275V37.8965H134.646ZM132.462 37.9875C131.942 37.9875 131.487 37.9008 131.097 37.7275C130.707 37.5455 130.403 37.2985 130.187 36.9865C129.979 36.6658 129.875 36.3062 129.875 35.9075C129.875 35.5175 129.966 35.1665 130.148 34.8545C130.338 34.5425 130.646 34.2955 131.071 34.1135C131.495 33.9315 132.059 33.8405 132.761 33.8405H134.776V34.9195H132.878C132.323 34.9195 131.95 35.0105 131.76 35.1925C131.569 35.3658 131.474 35.5825 131.474 35.8425C131.474 36.1372 131.591 36.3712 131.825 36.5445C132.059 36.7178 132.384 36.8045 132.8 36.8045C133.198 36.8045 133.554 36.7135 133.866 36.5315C134.186 36.3495 134.416 36.0808 134.555 35.7255L134.828 36.7005C134.672 37.1078 134.39 37.4242 133.983 37.6495C133.584 37.8748 133.077 37.9875 132.462 37.9875ZM138.191 37.8965V30.9545H139.816V33.7755H143.313V30.9545H144.938V37.8965H143.313V35.1535H139.816V37.8965H138.191ZM150.352 37.9875C149.581 37.9875 148.905 37.8358 148.324 37.5325C147.752 37.2205 147.306 36.7958 146.985 36.2585C146.673 35.7212 146.517 35.1102 146.517 34.4255C146.517 33.7322 146.669 33.1212 146.972 32.5925C147.284 32.0552 147.709 31.6348 148.246 31.3315C148.792 31.0282 149.412 30.8765 150.105 30.8765C150.781 30.8765 151.384 31.0238 151.912 31.3185C152.441 31.6132 152.857 32.0292 153.16 32.5665C153.464 33.1038 153.615 33.7365 153.615 34.4645C153.615 34.5338 153.611 34.6118 153.602 34.6985C153.602 34.7852 153.598 34.8675 153.589 34.9455H147.804V33.8665H152.731L152.094 34.2045C152.103 33.8058 152.021 33.4548 151.847 33.1515C151.674 32.8482 151.436 32.6098 151.132 32.4365C150.838 32.2632 150.495 32.1765 150.105 32.1765C149.707 32.1765 149.356 32.2632 149.052 32.4365C148.758 32.6098 148.524 32.8525 148.35 33.1645C148.186 33.4678 148.103 33.8275 148.103 34.2435V34.5035C148.103 34.9195 148.199 35.2878 148.389 35.6085C148.58 35.9292 148.849 36.1762 149.195 36.3495C149.542 36.5228 149.941 36.6095 150.391 36.6095C150.781 36.6095 151.132 36.5488 151.444 36.4275C151.756 36.3062 152.034 36.1155 152.276 35.8555L153.147 36.8565C152.835 37.2205 152.441 37.5022 151.964 37.7015C151.496 37.8922 150.959 37.9875 150.352 37.9875ZM154.29 37.8835L154.368 36.5185C154.429 36.5272 154.485 36.5358 154.537 36.5445C154.589 36.5532 154.637 36.5575 154.68 36.5575C154.949 36.5575 155.157 36.4752 155.304 36.3105C155.451 36.1458 155.56 35.9248 155.629 35.6475C155.707 35.3615 155.759 35.0452 155.785 34.6985C155.82 34.3432 155.846 33.9878 155.863 33.6325L155.98 30.9545H161.596V37.8965H159.971V31.8905L160.348 32.3325H157.046L157.397 31.8775L157.306 33.7105C157.28 34.3258 157.228 34.8978 157.15 35.4265C157.081 35.9465 156.968 36.4015 156.812 36.7915C156.665 37.1815 156.457 37.4848 156.188 37.7015C155.928 37.9182 155.594 38.0265 155.187 38.0265C155.057 38.0265 154.914 38.0135 154.758 37.9875C154.611 37.9615 154.455 37.9268 154.29 37.8835ZM163.784 37.8965V30.9545H165.409V35.5305L169.244 30.9545H170.726V37.8965H169.101V33.3205L165.279 37.8965H163.784Z" fill="#D43D58"/>
</g>
<defs>
<clipPath id="clip0_269_30">
<rect width="173" height="42" fill="white"/>
</clipPath>
</defs>
</svg>
