<svg width="319" height="426" viewBox="0 0 319 426" fill="none" xmlns="http://www.w3.org/2000/svg">
<path d="M212.639 232.358L225.969 232.62L225.905 266.233L100.156 266.921L201.718 111.342L225.942 73.4434L226.403 203.342L211.862 203.825L212.23 123.14L127.048 252.716L212.243 253.375L212.639 232.358Z" fill="white" style="fill:white;fill-opacity:1;"/>
<path d="M93.3047 2.55756H112.797V52.1727C119 52.1727 123.356 50.9875 125.865 48.591C128.335 46.2288 132.002 39.3272 136.868 27.8453C140.711 18.7697 143.798 12.7709 146.172 9.90354C148.557 7.01555 151.31 5.05335 154.402 4.06991C157.533 3.07556 162.527 2.79319 169.353 2.55756L222.013 0.742188L209.322 19.7691L167.841 18.5056C162.721 18.3486 159.417 19.2853 157.983 20.7946C156.476 22.3774 154.135 27.1073 151.043 34.9689C148.084 42.4956 145.381 47.7014 142.922 50.5848C140.476 53.4545 136.683 56.0862 131.552 58.4854C139.932 60.7377 148.28 68.4896 156.322 81.892L161.104 89.8631L150.253 106.41L135.207 82.0018C130.825 74.8883 127.27 70.0642 124.13 67.7885C120.968 65.4964 117.19 64.356 112.797 64.356L113.951 158.469L93.3047 191.926V2.55756Z" fill="white" style="fill:white;fill-opacity:1;"/>
<path d="M54 0H86.0679V211.439L228.205 0H263.197V267H231.129V56.1245L89.3625 267H54V0Z" fill="white" style="fill:white;fill-opacity:1;"/>
<path d="M0 425.116V294H5.61926V400.766H16.8578C19.3552 400.766 20.6039 399.518 20.6039 397.02V294H26.2232V397.02C26.2232 399.892 25.3802 402.171 23.6948 403.857C22.0088 405.543 19.7299 406.386 16.8578 406.386L26.2232 425.116H19.6674L10.302 406.386H5.61926V425.116H0ZM62.7484 294H68.3676L78.6696 425.116H73.0503L65.558 331.462L58.0657 425.116H52.4464L62.7484 294ZM104.893 425.116L115.195 294H120.814L131.116 425.116H125.497L123.998 406.386H112.01L110.512 425.116H104.893ZM123.624 400.766L118.004 331.462L112.385 400.766H123.624ZM166.705 294H174.197C177.069 294 179.348 294.843 181.034 296.529C182.719 298.214 183.562 300.494 183.562 303.365V305.239H177.943V303.365C177.943 300.868 176.694 299.619 174.197 299.619H166.705C164.207 299.619 162.958 300.868 162.958 303.365V415.751C162.958 418.248 164.207 419.497 166.705 419.497H174.197C176.694 419.497 177.943 418.248 177.943 415.751V413.878H183.562V415.751C183.562 418.623 182.719 420.902 181.034 422.588C179.348 424.273 177.069 425.116 174.197 425.116H166.705C163.832 425.116 161.554 424.273 159.868 422.588C158.182 420.902 157.339 418.623 157.339 415.751V303.365C157.339 300.494 158.182 298.214 159.868 296.529C161.554 294.843 163.832 294 166.705 294ZM198.547 294H224.77V299.619H214.468V425.116H208.849V299.619H198.547V294ZM271.597 294V299.619H250.993V312.731H265.978V318.35H250.993V419.497H271.597V425.116H245.374V294H271.597ZM292.201 294H309.059C311.931 294 314.21 294.843 315.896 296.529C317.582 298.214 318.425 300.494 318.425 303.365V397.02C318.425 399.892 317.582 402.171 315.896 403.857C314.21 405.543 311.931 406.386 309.059 406.386H297.821V425.116H292.201V294ZM309.059 400.766C311.557 400.766 312.805 399.518 312.805 397.02V303.365C312.805 300.868 311.557 299.619 309.059 299.619H297.821V400.766H309.059Z" fill="white" style="fill:white;fill-opacity:1;"/>
</svg>
