<svg width="210" height="267" viewBox="0 0 210 267" fill="none" xmlns="http://www.w3.org/2000/svg">
<path d="M158.639 232.358L171.969 232.62L171.905 266.233L46.1562 266.921L147.718 111.342L171.942 73.4434L172.403 203.342L157.862 203.825L158.23 123.14L73.0479 252.716L158.243 253.375L158.639 232.358Z" fill="white" style="fill:white;fill-opacity:1;"/>
<path d="M39.3047 2.55756H58.7974V52.1727C65.0003 52.1727 69.3562 50.9875 71.8649 48.591C74.3345 46.2288 78.0023 39.3272 82.8685 27.8453C86.7115 18.7697 89.7985 12.7709 92.1716 9.90354C94.5572 7.01555 97.3096 5.05335 100.402 4.06991C103.533 3.07556 108.527 2.79319 115.353 2.55756L168.013 0.742188L155.322 19.7691L113.841 18.5056C108.721 18.3486 105.417 19.2853 103.983 20.7946C102.476 22.3774 100.135 27.1073 97.0428 34.9689C94.0839 42.4956 91.3813 47.7014 88.9222 50.5848C86.4762 53.4545 82.6827 56.0862 77.5524 58.4854C85.9321 60.7377 94.2798 68.4896 102.322 81.892L107.104 89.8631L96.2526 106.41L81.2073 82.0018C76.8253 74.8883 73.2697 70.0642 70.1305 67.7885C66.9675 65.4964 63.19 64.356 58.7974 64.356L59.951 158.469L39.3047 191.926V2.55756Z" fill="white" style="fill:white;fill-opacity:1;"/>
<path d="M0 0H32.0679V211.439L174.205 0H209.197V267H177.129V56.1245L35.3625 267H0V0Z" fill="white" style="fill:white;fill-opacity:1;"/>
</svg>
