<svg width="63" height="11" viewBox="0 0 63 11" fill="none" xmlns="http://www.w3.org/2000/svg">
<g clip-path="url(#clip0_382_1804)">
<mask id="mask0_382_1804" style="mask-type:luminance" maskUnits="userSpaceOnUse" x="0" y="0" width="63" height="11">
<path d="M62.6098 0H0V11H62.6098V0Z" fill="white"/>
</mask>
<g mask="url(#mask0_382_1804)">
<path d="M0.933195 7.82963C0.310902 7.19954 0 6.42277 0 5.49981C0 4.57685 0.310902 3.80056 0.933195 3.16999C1.555 2.5399 2.3152 2.22461 3.21331 2.22461C4.11142 2.22461 4.87162 2.5399 5.49342 3.16999C6.11523 3.80008 6.42662 4.57685 6.42662 5.49981V5.93254H1.2977C1.39662 6.45152 1.62322 6.8594 1.9775 7.15617C2.33177 7.45294 2.74403 7.60108 3.21331 7.60108C3.78979 7.60108 4.25127 7.45684 4.59775 7.16835C4.75418 7.05286 4.89013 6.90861 5.00563 6.73562H6.36522C6.19222 7.1396 5.97391 7.48169 5.71027 7.7614C5.03438 8.4373 4.20254 8.775 3.2138 8.775C2.31569 8.775 1.555 8.45972 0.933195 7.82963ZM1.35959 4.8819H5.06751C4.99344 4.47012 4.79755 4.11975 4.48031 3.83126C4.16307 3.54278 3.74058 3.39853 3.21331 3.39853C2.7684 3.39853 2.3727 3.53254 2.02671 3.80008C1.68072 4.0681 1.45852 4.42919 1.35959 4.8819Z" fill="#4B4B4B"/>
<path d="M6.92188 2.34863H8.28146L9.64105 7.47803H10.4446L11.8042 2.34863H13.1638L11.4334 8.65196H8.6523L6.92188 2.34863Z" fill="#4B4B4B"/>
<path d="M14.5914 7.82963C13.9691 7.19954 13.6582 6.42277 13.6582 5.49981C13.6582 4.57685 13.9691 3.80056 14.5914 3.16999C15.2132 2.5399 15.9734 2.22461 16.8715 2.22461C17.7696 2.22461 18.5298 2.5399 19.1516 3.16999C19.7734 3.80008 20.0848 4.57685 20.0848 5.49981V5.93254H14.9554C15.0543 6.45152 15.2809 6.8594 15.6352 7.15617C15.9895 7.45294 16.4017 7.60108 16.871 7.60108C17.4475 7.60108 17.909 7.45684 18.2555 7.16835C18.4119 7.05286 18.5479 6.90861 18.6633 6.73562H20.0229C19.8499 7.1396 19.6316 7.48169 19.368 7.7614C18.6921 8.4373 17.8603 8.775 16.8715 8.775C15.9734 8.775 15.2132 8.45972 14.5914 7.82963ZM15.0178 4.8819H18.7257C18.6516 4.47012 18.4557 4.11975 18.1385 3.83126C17.8213 3.54278 17.3988 3.39853 16.8715 3.39853C16.4266 3.39853 16.0309 3.53254 15.6849 3.80008C15.3389 4.0681 15.1167 4.42919 15.0178 4.8819Z" fill="#4B4B4B"/>
<path d="M21.1973 8.65184V2.34851H22.495V3.27537H22.5569C22.6475 3.10238 22.7796 2.93766 22.9525 2.78075C23.3312 2.45133 23.7766 2.28662 24.2873 2.28662H25.029V3.52243H24.2254C23.7225 3.52243 23.3088 3.6813 22.9832 3.99805C22.6577 4.31529 22.495 4.7334 22.495 5.25238V8.65135L21.1973 8.65184Z" fill="#4B4B4B"/>
<path d="M25.3984 2.34863H26.758L28.1176 7.41615H28.7974L30.2808 2.34863H31.6404L29.045 11.0003H27.6854L28.4271 8.65196H27.1294L25.3984 2.34863Z" fill="#4B4B4B"/>
<path d="M36.7617 3.52228L37.6433 2.34787H38.3849V0.988281H39.6826V2.34787H41.5982V3.52228H39.6826V7.47727H41.6601V8.6512H38.3849V3.52179L36.7617 3.52228Z" fill="#4B4B4B"/>
<path d="M43.3355 7.82963C42.7132 7.19954 42.4023 6.42277 42.4023 5.49981C42.4023 4.57685 42.7132 3.80056 43.3355 3.16999C43.9578 2.5399 44.7175 2.22461 45.6157 2.22461C46.5138 2.22461 47.274 2.5399 47.8958 3.16999C48.5181 3.80008 48.829 4.57685 48.829 5.49981V5.93254H43.6996C43.7985 6.45152 44.0251 6.8594 44.3794 7.15617C44.7336 7.45294 45.1454 7.60108 45.6152 7.60108C46.1916 7.60108 46.6531 7.45684 46.9996 7.16835C47.156 7.05286 47.292 6.90861 47.4075 6.73562H48.7671C48.5941 7.1396 48.3758 7.48169 48.1121 7.7614C47.4362 8.4373 46.6044 8.775 45.6157 8.775C44.7175 8.775 43.9573 8.45972 43.3355 7.82963ZM43.7619 4.8819H47.4699C47.3958 4.47012 47.1999 4.11975 46.8827 3.83126C46.5654 3.54278 46.1429 3.39853 45.6157 3.39853C45.1707 3.39853 44.775 3.53254 44.4291 3.80008C44.0831 4.0681 43.8609 4.42919 43.7619 4.8819Z" fill="#4B4B4B"/>
<path d="M50.4723 7.84863C49.871 7.23072 49.5703 6.44811 49.5703 5.50029C49.5703 4.55248 49.871 3.76986 50.4723 3.15196C51.0737 2.53405 51.8236 2.2251 52.7217 2.2251C53.7271 2.2251 54.5467 2.60812 55.1812 3.37466C55.4531 3.72893 55.6427 4.10805 55.7499 4.51155H54.3903C54.3328 4.3059 54.2256 4.12024 54.0691 3.95553C53.748 3.58469 53.2987 3.39951 52.7217 3.39951C52.2105 3.39951 51.7846 3.59297 51.4426 3.98038C51.1005 4.36779 50.9294 4.87459 50.9294 5.50078C50.9294 6.12697 51.1005 6.63377 51.4426 7.02118C51.7846 7.40859 52.2105 7.60205 52.7217 7.60205C53.3153 7.60205 53.7807 7.41687 54.1184 7.04603C54.2665 6.88132 54.3781 6.69615 54.4522 6.49001H55.7499C55.6427 6.91007 55.4531 7.29359 55.1812 7.63957C54.555 8.39783 53.7353 8.77646 52.7217 8.77646C51.8236 8.77646 51.0737 8.46654 50.4723 7.84863Z" fill="#4B4B4B"/>
<path d="M56.8008 8.65166V0H58.0985V3.21331H58.1604C58.2593 3.0486 58.4118 2.88389 58.618 2.71918C59.0629 2.38976 59.5697 2.22456 60.1379 2.22456C60.9205 2.22456 61.5282 2.45116 61.9609 2.90436C62.3936 3.35755 62.6095 4.01688 62.6095 4.88185V8.65166H61.3118V5.00563C61.3118 4.45351 61.19 4.04807 60.9473 3.78833C60.7041 3.5286 60.3313 3.39897 59.8289 3.39897C59.3265 3.39897 58.9123 3.57002 58.5868 3.91211C58.2612 4.2542 58.0985 4.70106 58.0985 5.25318V8.65215L56.8008 8.65166Z" fill="#4B4B4B"/>
<path d="M36.4567 2.34863H37.8163L35.2209 11.0003H33.8613L36.4567 2.34863Z" fill="#4B4B4B"/>
<path d="M33.3688 2.34863H34.7284L32.133 11.0003H30.7734L33.3688 2.34863Z" fill="#4B4B4B"/>
</g>
</g>
<defs>
<clipPath id="clip0_382_1804">
<rect width="63" height="11" fill="white"/>
</clipPath>
</defs>
</svg>
