<svg width="247" height="46" viewBox="0 0 247 46" fill="none" xmlns="http://www.w3.org/2000/svg">
<g clip-path="url(#clip0_371_895)">
<mask id="mask0_371_895" style="mask-type:luminance" maskUnits="userSpaceOnUse" x="0" y="0" width="247" height="46">
<path d="M246.704 0H0V46H246.704V0Z" fill="white"/>
</mask>
<g mask="url(#mask0_371_895)">
<path d="M22.4025 34.599L16.0527 45.5856H26.5282L30.2553 39.1385C30.593 38.5452 31.1193 38.3322 31.4023 38.2561C31.6853 38.1801 32.2512 38.1071 32.8384 38.4478L45.191 45.5856H63.3184L37.3748 30.592C32.1477 27.5708 25.4298 29.3659 22.4025 34.599Z" fill="white"/>
<path d="M43.5963 16.007L52.6113 0.414062H42.1359L35.7466 11.4676C32.7253 16.7099 34.5204 23.4156 39.7475 26.446L72.6373 45.4496V34.9833L44.2839 18.5962C43.3833 18.079 43.076 16.9137 43.5963 16.007Z" fill="white"/>
<path d="M94.3577 0.414062H88.6894L79.1176 12.6238V0.414062H73.7871V19.8193H78.6247L84.3508 12.7576L88.5343 19.8193H94.6163L87.7523 8.56195L94.3577 0.414062Z" fill="white"/>
<path d="M99.6219 18.9671C101.356 19.8129 103.37 20.2359 105.664 20.2359C107.977 20.2359 109.994 19.8129 111.719 18.9671C113.444 18.1213 114.789 16.9408 115.756 15.4226C116.721 13.9044 117.205 12.1366 117.205 10.1194C117.205 8.10225 116.721 6.33454 115.756 4.81632C114.792 3.2981 113.444 2.1176 111.719 1.27178C109.994 0.422911 107.977 0 105.664 0C103.37 0 101.356 0.422911 99.6219 1.26873C97.8877 2.11456 96.5429 3.29506 95.5845 4.81328C94.6261 6.3315 94.1484 8.09921 94.1484 10.1164C94.1484 12.1366 94.6261 13.9044 95.5845 15.4195C96.546 16.9408 97.8907 18.1213 99.6219 18.9671ZM100.31 7.27164C100.809 6.47754 101.517 5.86599 102.43 5.43396C103.346 5.00192 104.423 4.7859 105.664 4.7859C106.924 4.7859 108.01 5.00192 108.926 5.43396C109.839 5.86599 110.542 6.47754 111.034 7.27164C111.527 8.06574 111.774 9.01501 111.774 10.1164C111.774 11.2208 111.527 12.1701 111.034 12.9642C110.542 13.7583 109.839 14.3699 108.926 14.8019C108.01 15.2339 106.924 15.45 105.664 15.45C104.423 15.45 103.346 15.2339 102.43 14.8019C101.514 14.3729 100.809 13.7583 100.31 12.9642C99.8075 12.1701 99.5581 11.2208 99.5581 10.1164C99.5581 9.01501 99.8075 8.06574 100.31 7.27164Z" fill="white"/>
<path d="M125.328 12.3438H135.24V19.8193H140.622V0.414062H135.24V7.58225H125.328V0.414062H119.973V19.8193H125.328V12.3438Z" fill="white"/>
<path d="M150.325 19.8193H155.707V5.17561H163.107V0.414062H142.926V5.17561H150.325V19.8193Z" fill="white"/>
<path d="M207.637 0.414062H207.619H201.969L192.397 12.6238V0.414062H187.066V19.8193H191.904L197.63 12.7576L201.814 19.8193H207.896L201.032 8.56195L207.619 0.438403V5.17561H215.018V19.8193H220.4V5.17561H227.8V0.414062H207.637Z" fill="white"/>
<path d="M73.7871 30.9401H81.1865V45.5868H86.5688V30.9401H93.9682V26.1816H73.7871V30.9401Z" fill="white"/>
<path d="M115.004 32.8804C115.004 31.5356 114.694 30.3581 114.073 29.348C113.453 28.3379 112.552 27.559 111.369 27.0053C110.188 26.4546 108.785 26.1777 107.164 26.1777H96.2715V45.583H101.626V39.5557H107.164C108.785 39.5557 110.188 39.2788 111.369 38.7281C112.549 38.1774 113.453 37.3955 114.073 36.3854C114.694 35.3783 115.004 34.21 115.004 32.8804ZM108.846 34.6268C108.362 35.0497 107.69 35.2597 106.829 35.2597H101.629V30.4738H106.829C107.693 30.4738 108.366 30.6867 108.846 31.1097C109.33 31.5326 109.57 32.1228 109.57 32.8804C109.57 33.6228 109.33 34.2039 108.846 34.6268Z" fill="white"/>
<path d="M155.135 33.3467H145.226V26.1816H139.871V45.5868H145.226V38.1083H155.135V45.5868H160.518V26.1816H155.135V33.3467Z" fill="white"/>
<path d="M171.437 31.0585C172.316 30.6143 173.36 30.3983 174.568 30.3983C175.618 30.3983 176.546 30.5504 177.349 30.8638C178.149 31.1742 178.8 31.6184 179.302 32.1964C179.567 32.5007 179.786 32.8445 179.956 33.2187H185.509C185.229 31.9561 184.703 30.8212 183.93 29.8141C182.947 28.5302 181.657 27.5353 180.063 26.8264C178.468 26.1175 176.634 25.7676 174.568 25.7676C172.304 25.7676 170.333 26.1905 168.641 27.0363C166.946 27.8821 165.632 29.0626 164.695 30.5809C163.755 32.0991 163.283 33.8668 163.283 35.887C163.283 37.9042 163.755 39.6719 164.695 41.1902C165.632 42.7084 166.946 43.8919 168.641 44.7378C170.33 45.5836 172.304 46.0065 174.568 46.0065C176.637 46.0065 178.468 45.6536 180.063 44.9477C181.657 44.2388 182.95 43.2439 183.93 41.9569C184.7 40.9528 185.229 39.818 185.509 38.5523H179.965C179.795 38.9448 179.57 39.2977 179.302 39.6141C178.8 40.2013 178.149 40.6395 177.349 40.9316C176.546 41.2267 175.618 41.3758 174.568 41.3758C173.357 41.3758 172.316 41.1537 171.437 40.7155C170.558 40.2774 169.882 39.6446 169.417 38.8292C168.954 38.0077 168.717 37.031 168.717 35.8931C168.717 34.7552 168.951 33.7725 169.417 32.9571C169.886 32.1295 170.558 31.4997 171.437 31.0585Z" fill="white"/>
<path d="M167.853 16.0942H177.903L179.512 19.8213H185.229L176.406 0.416016H169.341L160.518 19.8213H166.238L167.853 16.0942ZM172.885 4.48388L176.46 12.7596L172.879 11.7677L169.298 12.7596L172.885 4.48388Z" fill="white"/>
<path d="M122.15 26.1816L113.326 45.5868H119.046L120.662 41.8597H130.711L132.321 45.5868H138.038L129.214 26.1816H122.15ZM125.685 37.5363L122.104 38.5281L125.691 30.2525L129.266 38.5281L125.685 37.5363Z" fill="white"/>
<path d="M0 45.5865H10.4724L36.5803 0.414062H26.1049L0 45.5865Z" fill="#FDB933"/>
<path d="M195.074 34.3867H195.942V31.3077H197.472V30.541H193.541V31.3077H195.074V34.3867Z" fill="#FDB933"/>
<path d="M198.787 33.0845H200.013C200.318 33.0845 200.582 33.0298 200.804 32.9233C201.027 32.8168 201.197 32.6677 201.316 32.476C201.434 32.2874 201.492 32.0653 201.492 31.8128C201.492 31.5602 201.434 31.3381 201.316 31.1465C201.197 30.9548 201.027 30.8057 200.804 30.6992C200.582 30.5927 200.318 30.541 200.013 30.541H197.914V34.3898H198.787V33.0845ZM198.787 31.259H199.968C200.169 31.259 200.327 31.3077 200.442 31.4051C200.558 31.5024 200.616 31.6393 200.616 31.8128C200.616 31.9832 200.558 32.1201 200.442 32.2174C200.327 32.3178 200.169 32.3665 199.968 32.3665H198.787V31.259Z" fill="#FDB933"/>
<path d="M205.038 34.3859H205.966L204.165 30.5371H203.045L201.244 34.3859H202.172L202.537 33.5766H204.67L205.038 34.3859ZM202.86 32.8676L203.605 31.2095L204.351 32.8676H202.86Z" fill="#FDB933"/>
<path d="M207.245 32.8229H209.454V34.3867H210.324V30.541H209.454V32.0592H207.245V30.541H206.375V34.3867H207.245V32.8229Z" fill="#FDB933"/>
<path d="M214.908 33.681C215.097 33.4346 215.213 33.1455 215.249 32.823H214.373C214.34 33.0086 214.267 33.1668 214.151 33.2976C214.038 33.4285 213.892 33.5319 213.716 33.6019C213.539 33.6719 213.332 33.7084 213.095 33.7084C212.824 33.7084 212.59 33.6567 212.395 33.5563C212.198 33.4559 212.049 33.3129 211.942 33.1242C211.836 32.9386 211.784 32.7196 211.784 32.464C211.784 32.2115 211.836 31.9924 211.942 31.8038C212.049 31.6182 212.201 31.4752 212.395 31.3717C212.593 31.2713 212.824 31.2196 213.095 31.2196C213.332 31.2196 213.539 31.2561 213.716 31.3261C213.895 31.3991 214.038 31.4995 214.151 31.6303C214.263 31.7612 214.337 31.9194 214.373 32.0989H215.249C215.213 31.7703 215.097 31.4843 214.908 31.2379C214.72 30.9914 214.47 30.7997 214.16 30.6628C213.85 30.5259 213.497 30.459 213.101 30.459C212.663 30.459 212.28 30.5442 211.948 30.7115C211.616 30.8788 211.361 31.1131 211.175 31.4113C210.99 31.7094 210.898 32.0593 210.898 32.461C210.898 32.8595 210.99 33.2125 211.175 33.5106C211.361 33.8088 211.616 34.0431 211.948 34.2104C212.277 34.3777 212.663 34.4629 213.101 34.4629C213.497 34.4629 213.853 34.396 214.16 34.2591C214.467 34.1222 214.717 33.9305 214.908 33.681Z" fill="#FDB933"/>
<path d="M216.668 31.3077H218.859V34.3867H219.726V30.541H215.795V34.3867H216.668V31.3077Z" fill="#FDB933"/>
<path d="M224.509 33.5126C224.697 33.2144 224.792 32.8645 224.792 32.4629C224.792 32.0613 224.697 31.7114 224.509 31.4132C224.32 31.1151 224.059 30.8808 223.721 30.7135C223.383 30.5461 222.991 30.4609 222.543 30.4609C222.096 30.4609 221.704 30.5461 221.366 30.7135C221.028 30.8808 220.767 31.1151 220.578 31.4132C220.389 31.7114 220.295 32.0613 220.295 32.4629C220.295 32.8615 220.389 33.2144 220.578 33.5126C220.767 33.8107 221.028 34.045 221.366 34.2124C221.704 34.3797 222.096 34.4649 222.543 34.4649C222.991 34.4649 223.383 34.3827 223.721 34.2124C224.059 34.045 224.323 33.8107 224.509 33.5126ZM223.271 33.54C223.067 33.6404 222.826 33.689 222.543 33.689C222.266 33.689 222.026 33.6404 221.819 33.54C221.615 33.4396 221.457 33.2996 221.345 33.114C221.232 32.9284 221.177 32.7124 221.177 32.4629C221.177 32.2134 221.232 31.9974 221.345 31.8118C221.457 31.6262 221.615 31.4863 221.819 31.3859C222.023 31.2854 222.266 31.2368 222.543 31.2368C222.823 31.2368 223.067 31.2854 223.271 31.3859C223.474 31.4863 223.633 31.6262 223.742 31.8118C223.855 31.9974 223.909 32.2134 223.909 32.4629C223.909 32.7124 223.855 32.9284 223.742 33.114C223.633 33.2996 223.474 33.4396 223.271 33.54Z" fill="#FDB933"/>
<path d="M228.761 32.476C228.88 32.2874 228.937 32.0653 228.937 31.8128C228.937 31.5602 228.88 31.3381 228.761 31.1465C228.642 30.9548 228.472 30.8057 228.25 30.6992C228.028 30.5927 227.763 30.541 227.459 30.541H225.359V34.3898H226.233V33.0876H227.459C227.763 33.0876 228.028 33.0328 228.25 32.9263C228.472 32.8138 228.642 32.6677 228.761 32.476ZM227.891 32.2174C227.775 32.3178 227.617 32.3665 227.416 32.3665H226.236V31.259H227.416C227.617 31.259 227.775 31.3077 227.891 31.4051C228.006 31.5024 228.064 31.6393 228.064 31.8128C228.061 31.9832 228.003 32.117 227.891 32.2174Z" fill="#FDB933"/>
<path d="M229.203 31.3077H230.737V34.3867H231.604V31.3077H233.131V30.541H229.203V31.3077Z" fill="#FDB933"/>
<path d="M236.653 32.0592H234.447V30.541H233.574V34.3867H234.447V32.8229H236.653V34.3867H237.526V30.541H236.653V32.0592Z" fill="#FDB933"/>
<path d="M239.737 30.541L237.936 34.3898H238.864L239.229 33.5805H241.361L241.727 34.3898H242.654L240.853 30.541H239.737ZM239.548 32.8685L240.294 31.2104L241.039 32.8685H239.548Z" fill="#FDB933"/>
<path d="M244.446 30.541C244.163 30.541 243.914 30.5927 243.704 30.6931C243.494 30.7935 243.33 30.9335 243.208 31.1099C243.089 31.2895 243.029 31.4963 243.029 31.7367C243.029 31.974 243.089 32.1779 243.208 32.3543C243.327 32.5308 243.494 32.6677 243.704 32.7651C243.832 32.8259 243.978 32.8594 244.136 32.8837L242.943 34.3898H243.96L245.097 32.9263H245.834V34.3898H246.707V30.541H244.446ZM245.834 32.2996H244.562C244.361 32.2996 244.2 32.2479 244.084 32.1475C243.969 32.047 243.911 31.9101 243.911 31.7337C243.911 31.5602 243.969 31.4233 244.084 31.3229C244.2 31.2225 244.358 31.1738 244.562 31.1738H245.834V32.2996Z" fill="#FDB933"/>
<path d="M197.781 37.1309H196.853L194.717 39.7901V37.1309H193.85V40.9797H194.635L195.894 39.4372L196.84 40.9797H197.835L196.451 38.7557L197.781 37.1309Z" fill="#FDB933"/>
<path d="M201.231 37.3052C200.893 37.1379 200.5 37.0527 200.053 37.0527C199.606 37.0527 199.213 37.1379 198.876 37.3052C198.538 37.4726 198.276 37.7069 198.088 38.005C197.899 38.3032 197.805 38.6531 197.805 39.0547C197.805 39.4533 197.899 39.8062 198.088 40.1044C198.276 40.4025 198.538 40.6368 198.876 40.8041C199.213 40.9715 199.606 41.0567 200.053 41.0567C200.5 41.0567 200.893 40.9745 201.231 40.8041C201.568 40.6368 201.83 40.4025 202.019 40.1044C202.207 39.8062 202.302 39.4563 202.302 39.0547C202.302 38.6531 202.207 38.3032 202.019 38.005C201.83 37.7069 201.568 37.4726 201.231 37.3052ZM201.252 39.7058C201.139 39.8914 200.984 40.0313 200.78 40.1317C200.576 40.2322 200.336 40.2808 200.053 40.2808C199.776 40.2808 199.536 40.2322 199.329 40.1317C199.125 40.0313 198.967 39.8914 198.854 39.7058C198.742 39.5202 198.687 39.3042 198.687 39.0547C198.687 38.8052 198.742 38.5892 198.854 38.4036C198.967 38.218 199.125 38.078 199.329 37.9776C199.533 37.8772 199.776 37.8286 200.053 37.8286C200.333 37.8286 200.576 37.8772 200.78 37.9776C200.984 38.078 201.142 38.218 201.252 38.4036C201.364 38.5892 201.419 38.8052 201.419 39.0547C201.419 39.3042 201.364 39.5232 201.252 39.7058Z" fill="#FDB933"/>
<path d="M205.575 40.143L204.212 37.1309H202.873V40.9797H203.698V37.9129L205.125 40.9797H206.022L207.443 37.9129V40.9797H208.277V37.1309H206.935L205.575 40.143Z" fill="#FDB933"/>
<path d="M209.041 40.9797H209.911V37.9007H212.105V40.9797H212.969V37.1309H209.041V40.9797Z" fill="#FDB933"/>
<path d="M215.176 37.1309L213.375 40.9797H214.303L214.668 40.1704H216.801L217.166 40.9797H218.094L216.293 37.1309H215.176ZM214.991 39.4585L215.736 37.8003L216.481 39.4585H214.991Z" fill="#FDB933"/>
<path d="M221.581 38.6492H219.375V37.1309H218.502V40.9797H219.375V39.4128H221.581V40.9797H222.454V37.1309H221.581V38.6492Z" fill="#FDB933"/>
<path d="M224.073 40.1248V37.1309H223.221V40.9797H224.325L226.528 37.9372V40.9797H227.38V37.1309H226.245L224.073 40.1248Z" fill="#FDB933"/>
<path d="M228.64 37.2831C228.43 37.3835 228.265 37.5234 228.144 37.6999C228.025 37.8794 227.964 38.0863 227.964 38.3267C227.964 38.564 228.025 38.7678 228.144 38.9443C228.262 39.1208 228.43 39.2577 228.64 39.355C228.767 39.4159 228.913 39.4494 229.072 39.4737L227.879 40.9797H228.895L230.033 39.5163H230.769V40.9797H231.643V37.1309H229.385C229.099 37.1309 228.849 37.1796 228.64 37.2831ZM230.766 37.7668V38.8895H229.494C229.294 38.8895 229.132 38.8378 229.017 38.7374C228.901 38.637 228.843 38.5001 228.843 38.3236C228.843 38.1502 228.901 38.0133 229.017 37.9129C229.132 37.8125 229.291 37.7638 229.494 37.7638H230.766V37.7668Z" fill="#FDB933"/>
</g>
</g>
<defs>
<clipPath id="clip0_371_895">
<rect width="247" height="46" fill="white"/>
</clipPath>
</defs>
</svg>
