<svg width="374" height="590" viewBox="0 0 374 590" fill="none" xmlns="http://www.w3.org/2000/svg">
<path d="M0.5 560C0.5 576.569 13.9315 590 30.5 590H63.75C80.3185 590 93.75 576.569 93.75 560V264.175C93.75 247.607 107.181 234.175 123.75 234.175H187.507H250.25C266.819 234.175 280.25 247.607 280.25 264.175V560C280.25 576.569 293.681 590 310.25 590H343.5C360.069 590 373.5 576.569 373.5 560V30C373.5 13.4315 360.069 2.26498e-05 343.5 2.26498e-05H30.5C13.9315 2.26498e-05 0.5 13.4315 0.5 30V560Z" fill="white"/>
<rect x="186.5" y="246" width="6" height="23" rx="2" fill="#FDB933"/>
<rect x="186.5" y="281" width="6" height="23" rx="2" fill="#FDB933"/>
<rect x="186.5" y="316" width="6" height="23" rx="2" fill="#FDB933"/>
<rect x="186.5" y="351" width="6" height="23" rx="2" fill="#FDB933"/>
<rect x="186.5" y="386" width="6" height="23" rx="2" fill="#FDB933"/>
<rect x="186.5" y="421" width="6" height="23" rx="2" fill="#FDB933"/>
<rect x="186.5" y="456" width="6" height="23" rx="2" fill="#FDB933"/>
<rect x="186.5" y="491" width="6" height="23" rx="2" fill="#FDB933"/>
<rect x="186.5" y="526" width="6" height="23" rx="2" fill="#FDB933"/>
<rect x="186.5" y="561" width="6" height="23" rx="2" fill="#FDB933"/>
</svg>
