<svg width="53" height="48" viewBox="0 0 53 48" fill="none" xmlns="http://www.w3.org/2000/svg">
<g clip-path="url(#clip0_22_226)">
<path d="M44.9009 7.87622C45.3998 7.87622 45.774 8.28859 45.774 8.7422C45.774 9.19581 45.3582 9.60818 44.9009 9.60818C44.4436 9.60818 44.0278 9.23705 44.0278 8.7422C44.0278 8.24735 44.4436 7.87622 44.9009 7.87622Z" fill="#537B9F"/>
<path d="M5.27978 29.6907C7.06749 29.8144 8.81363 29.1134 10.0193 27.7938C10.1856 28.1237 10.3935 28.4536 10.6429 28.7423C10.8924 29.0722 10.8508 29.5258 10.5598 29.8144C8.97993 31.5876 7.69111 33.6082 6.73489 35.7938C6.52702 35.6289 6.31915 35.4639 6.15285 35.299C4.9056 33.8557 2.70214 33.6907 1.20544 34.8866C-0.291249 36.1237 -0.457548 38.3505 0.789696 39.7938C1.08072 40.1237 7.98214 48 26.3582 48C44.7343 48 51.6357 40.1237 51.9267 39.7938C53.0492 38.4742 53.0077 36.5361 51.8851 35.2577C50.721 33.9794 48.8086 33.6907 47.3535 34.6392C46.1062 31.8763 44.4017 29.4021 42.2814 27.2577C42.0319 27.0103 41.9903 26.6392 42.1151 26.3093C43.4454 22.8041 42.8218 18.0619 42.4477 15.8351C43.1544 16.0412 43.8196 16.4124 44.3601 16.9485C45.1916 17.8144 46.3141 18.3093 47.5198 18.3505C49.5154 18.3505 51.9267 17.4433 51.9267 13.1134C51.9267 11.4227 49.058 6.63917 47.7277 4.49485C48.6423 3.50515 49.1828 2.2268 49.2659 0.907216C49.3075 0.412371 48.8917 0 48.4344 0C46.9377 0 45.441 0.247423 44.0275 0.783505C42.905 0.329897 41.6993 0.0412371 40.4936 0C31.3888 0 28.9774 9.85567 28.3538 14.1031C28.3122 14.5155 27.938 14.8454 27.4807 14.8454H15.8398C15.0914 14.8454 14.3431 14.9691 13.6363 15.1753C12.8464 12.7835 10.4766 11.1753 7.94056 11.3402C6.02812 11.2577 4.24041 12.1649 3.24261 13.7732C2.07852 15.7938 1.91222 18.268 2.74371 20.4536C3.32576 21.5258 3.45048 22.8041 3.11789 24C2.61899 25.0722 1.70434 25.8969 0.581822 26.2268C0.332373 26.3093 0.166074 26.5155 0.0829245 26.7216C-0.000225149 26.9691 -0.000225149 27.2165 0.0829245 27.4227C0.207649 27.6701 1.33017 29.6495 5.27978 29.6495M50.43 36.2474C50.7626 36.5361 51.0121 36.9485 51.0536 37.4021C51.0536 37.8557 50.9289 38.3093 50.6379 38.6804C50.3469 39.0103 43.9859 46.268 26.3998 46.268C8.81363 46.268 2.45269 38.9691 2.16166 38.6804C1.70434 38.1443 1.62119 37.4433 1.91222 36.8247C2.20324 36.2062 2.82686 35.7938 3.49206 35.7938C4.03253 35.7938 4.48985 36.0412 4.86403 36.4124C5.11348 36.6598 10.8924 42.7629 26.3998 42.7629C41.9072 42.7629 47.7277 36.6598 47.9355 36.4124C48.5592 35.6701 49.6817 35.6289 50.43 36.2474ZM28.3954 31.3402C30.8899 30.7216 33.5091 30.4742 36.0867 30.5567C36.544 30.5567 37.0014 30.5567 37.4587 30.433C37.7497 30.3918 38.0407 30.433 38.2486 30.6392C40.3273 32.6598 41.9072 35.0515 42.9466 37.6907C39.8284 39.2577 34.5069 41.0309 26.3582 41.0309C19.4152 41.0309 14.551 39.7526 11.3081 38.3918C12.2228 36.0825 13.6363 34.0206 15.424 32.2887C15.6319 32.1237 15.8814 32.0412 16.1724 32.0825C16.9207 32.2062 17.6691 32.2887 18.4174 32.2887C21.7434 32.4124 25.0694 32.0825 28.3538 31.3402M47.5198 16.5773C46.9377 16.5773 46.3141 16.3299 45.8984 15.9588L49.848 12.0412C50.0143 12.3711 50.0974 12.7423 50.1806 13.1134C50.1806 16.1649 48.8918 16.6186 47.5198 16.6186M45.8984 4.82474C47.0209 6.63917 48.2266 8.70103 49.058 10.3505L44.4848 14.8454C43.5702 14.2268 42.4477 13.9381 41.3251 13.9794C41.0757 13.9794 40.8262 14.1031 40.6184 14.3093C40.4521 14.5155 40.3689 14.8041 40.4521 15.0515C40.4521 15.134 41.9488 21.6082 40.4521 25.6907C40.0779 26.6804 40.2858 27.7526 41.0341 28.4948C43.1129 30.5979 44.7758 33.0722 45.9815 35.835C45.5242 36.2062 45.0253 36.5361 44.4848 36.866C43.3623 34.0619 41.6162 31.5052 39.4127 29.3608C38.7891 28.7835 37.916 28.5773 37.0845 28.7423C36.7519 28.7835 36.3777 28.8247 36.0451 28.8247C33.3428 28.7423 30.6404 29.0309 27.9796 29.6495C26.5661 29.9794 25.1525 30.2268 23.6974 30.3505V25.3196C26.6077 25.3196 28.9774 22.9691 28.9774 20.0825V16.5773H30.7236C33.3843 16.5773 34.3406 13.6495 35.0889 10.6804C35.5047 9.03093 36.7519 5.23711 39.5374 5.23711C42.3229 5.23711 43.9859 3.13402 44.5264 2.43299C45.3995 2.10309 46.3141 1.85567 47.2703 1.7732C46.9793 2.51546 46.5636 3.17526 45.9815 3.71134C45.6905 4 45.6489 4.45361 45.8568 4.7835M40.4936 1.73196C41.2004 1.73196 41.8656 1.85567 42.5308 2.10309C41.7825 2.92783 40.7431 3.42268 39.6206 3.50515C36.7935 3.50515 34.5484 5.97938 33.4675 10.268C32.5113 14.0619 31.7214 14.8454 30.8067 14.8454H29.9752C29.9752 14.8454 30.0584 14.5155 30.0999 14.3505C30.6404 10.5567 32.8023 1.7732 40.4936 1.7732M27.2728 16.5773V20.0825C27.2728 22.0206 25.693 23.5876 23.739 23.5876H21.9928C20.0388 23.5876 18.459 22.0206 18.459 20.0825V16.5773H27.2728ZM16.7128 16.5773V20.0825C16.7128 22.9691 19.0826 25.3196 21.9928 25.3196V30.4742C20.9951 30.5155 19.831 30.5567 18.459 30.5567C17.7938 30.5567 17.1702 30.5155 16.505 30.3918C15.7151 30.2268 14.842 30.4742 14.2599 31.0515C12.3059 32.9485 10.7676 35.1753 9.72828 37.6907C9.14623 37.4021 8.64734 37.1134 8.19001 36.8247C9.10466 34.7216 10.3519 32.7423 11.8486 30.9691C12.6801 30.0619 12.7632 28.6598 12.0149 27.6701C10.2272 25.3196 9.89458 22.1856 11.1002 19.4639C11.9317 17.6495 13.761 16.4948 15.7982 16.5361H16.6713L16.7128 16.5773ZM4.7393 24.6598C5.27978 23.0103 5.11348 21.2371 4.28198 19.7113C3.69993 18.0619 3.86623 16.2474 4.69773 14.7216C5.36292 13.6495 6.61017 13.0309 7.89899 13.1134C9.76985 12.9485 11.516 14.1443 12.0149 15.9588C10.9755 16.6598 10.1025 17.6082 9.56198 18.7629C8.52261 21.0309 8.35631 23.5876 9.18781 25.9381C8.52261 27.2577 7.23379 27.9588 5.27978 27.9588C4.28198 28 3.28418 27.7938 2.36954 27.3402C3.45048 26.7629 4.28198 25.8144 4.7393 24.701" fill="#537B9F"/>
</g>
<defs>
<clipPath id="clip0_22_226">
<rect width="52.8" height="48" fill="white"/>
</clipPath>
</defs>
</svg>
