<svg width="52" height="41" viewBox="0 0 52 41" fill="none" xmlns="http://www.w3.org/2000/svg">
<g clip-path="url(#clip0_22_234)">
<path d="M51.551 13.5102L26.4082 0.0815828C26.1633 -0.0408662 25.8776 -0.0408662 25.6327 0.0815828L0.44898 13.5102C0.163265 13.6326 0 13.9183 0 14.2448C0 14.5714 0.163265 14.8163 0.44898 14.9795L7.55102 18.7755V29.3469H9.22449V19.6734L11.7551 21.0204V26.1224C10.3265 26.4897 9.22449 27.7959 9.22449 29.3469C9.22449 30.1224 9.46939 30.8163 9.91837 31.3877C9.46939 32.9387 9.22449 34.5714 9.22449 36.204V38.5714C9.22449 38.8979 9.38775 39.1836 9.67347 39.3061L10.6122 39.7551C11.2245 40.0408 11.9184 40.204 12.5714 40.204C13.2245 40.204 13.9184 40.0408 14.5306 39.7551L15.4694 39.3061C15.7551 39.1836 15.9184 38.8571 15.9184 38.5714V36.204C15.9184 34.5714 15.6735 32.9387 15.2245 31.3877C15.6735 30.8163 15.9184 30.1224 15.9184 29.3469C15.9184 27.7959 14.8571 26.4897 13.3878 26.1224V21.9183L25.551 28.4081C25.551 28.4081 25.7959 28.4897 25.9592 28.4897C26.1224 28.4897 26.2449 28.4897 26.3673 28.4081L42.7347 19.6734V28.9387C38.0816 32.4489 32.3265 34.3673 26.449 34.3673H25.4286C22.5306 34.3673 19.7143 33.9183 16.9796 33.0204L16.449 34.6122C19.3469 35.5918 22.3673 36.0408 25.4286 36.0408H26.449C32.8163 36.0408 39.0612 33.8775 44.0816 30C44.2857 29.8367 44.4082 29.5918 44.4082 29.3469V18.7755L51.5102 14.9795C51.7959 14.8163 51.9592 14.5306 51.9592 14.2448C51.9592 13.9591 51.7959 13.6326 51.5102 13.5102M14.2449 38.0408L13.7959 38.2857C13.0612 38.653 12.1224 38.653 11.3878 38.2857L10.9388 38.0408V36.1632C10.9388 34.8979 11.102 33.6326 11.3878 32.4489C11.7551 32.6122 12.1633 32.6938 12.6122 32.6938C13.0612 32.6938 13.4694 32.6122 13.8367 32.4489C14.1224 33.6734 14.2857 34.8979 14.2857 36.1632V38.0408H14.2449ZM14.2449 29.3469C14.2449 30.2857 13.5102 31.0204 12.5714 31.0204C11.6327 31.0204 10.898 30.2857 10.898 29.3469C10.898 28.4081 11.6735 27.6734 12.5714 27.6734C13.4694 27.6734 14.2449 28.4489 14.2449 29.3469ZM26 26.7346L14 20.3265L24.3673 14.7755C24.8571 14.9795 25.3878 15.102 26 15.102C27.8776 15.102 29.3469 14 29.3469 12.5714C29.3469 11.1428 27.8776 10.0408 26 10.0408C24.1224 10.0408 22.6531 11.1428 22.6531 12.5714C22.6531 12.9387 22.7755 13.3061 22.9796 13.6326L12.2449 19.3469L2.61224 14.2448L26 1.79587L49.3878 14.2448L26 26.6938V26.7346ZM24.3265 12.5714C24.3265 12.2448 24.9796 11.7142 26 11.7142C27.0204 11.7142 27.6735 12.204 27.6735 12.5714C27.6735 12.9387 27.0204 13.4285 26 13.4285C24.9796 13.4285 24.3265 12.9387 24.3265 12.5714Z" fill="#537B9F"/>
</g>
<defs>
<clipPath id="clip0_22_234">
<rect width="52" height="40.2449" fill="white"/>
</clipPath>
</defs>
</svg>
