<svg width="51" height="50" viewBox="0 0 51 50" fill="none" xmlns="http://www.w3.org/2000/svg">
<path d="M11.8975 1C8.29329 1 5.36749 3.9682 5.36749 7.53004V10.7951C5.36749 11.3887 4.85866 11.8975 4.26502 11.8975H3.16254C1.97526 11.8975 1 12.8728 1 14.0601V22.7951C1 23.9823 1.97526 24.9576 3.16254 24.9576H4.26502C4.85866 24.9576 5.36749 25.424 5.36749 26.0601V44.6325C5.36749 47.0071 7.36042 49 9.73498 49C12.1095 49 14.1025 47.0071 14.1025 44.6325V43.53C14.1025 42.9364 14.5689 42.4276 15.2049 42.4276H34.8375C35.4311 42.4276 35.9399 42.9364 35.9399 43.53V44.6325C35.9399 47.0071 37.9329 49 40.3074 49C42.682 49 44.6749 47.0071 44.6749 44.6325V26.0601C44.6749 25.4664 45.1837 24.9576 45.7774 24.9576H46.8799C48.0671 24.9576 49.0424 23.9823 49.0424 22.7951V14.0601C49.0424 12.8728 48.0671 11.8975 46.8799 11.8975H45.7774C45.1837 11.8975 44.6749 11.3887 44.6749 10.7951V7.53004C44.6749 3.92579 41.7067 1 38.1449 1L11.8975 1ZM10.8375 11.8975H21.735C22.3286 11.8975 22.8375 12.364 22.8375 13V23.8975C22.8375 24.4912 22.371 25 21.735 25H10.8375C10.2438 25 9.73498 24.5336 9.73498 23.8975V13C9.73498 12.4064 10.2014 11.8975 10.8375 11.8975ZM28.265 11.8975H39.1625C39.7562 11.8975 40.265 12.364 40.265 13V23.8975C40.265 24.4912 39.7986 25 39.1625 25H28.265C27.6714 25 27.1625 24.5336 27.1625 23.8975V13C27.1625 12.4064 27.629 11.8975 28.265 11.8975ZM10.8375 29.3675H17.3675C17.9611 29.3675 18.47 29.8339 18.47 30.47V32.6325C18.47 33.2261 18.0035 33.735 17.3675 33.735H10.8375C10.2438 33.735 9.73498 33.2686 9.73498 32.6325V30.47C9.73498 29.8763 10.2014 29.3675 10.8375 29.3675ZM32.6325 29.3675H39.1625C39.7562 29.3675 40.265 29.8339 40.265 30.47V32.6325C40.265 33.2261 39.7986 33.735 39.1625 33.735H32.6325C32.0389 33.735 31.53 33.2686 31.53 32.6325V30.47C31.53 29.8763 31.9965 29.3675 32.6325 29.3675Z" stroke="#537B9F" stroke-width="2" stroke-miterlimit="10"/>
</svg>
