<svg width="265" height="41" viewBox="0 0 265 41" fill="none" xmlns="http://www.w3.org/2000/svg">
<path d="M74.5637 11.2362C78.1933 11.2362 81.1053 12.2928 83.2977 14.4082C85.49 16.5214 86.5861 19.6581 86.5861 23.816V40.2667H79.8469V24.6771C79.8469 22.1686 79.2541 20.2779 78.0685 19.005C76.8829 17.732 75.194 17.0955 73.0016 17.0955C70.5202 17.0955 68.5629 17.8402 67.1257 19.3274C65.6884 20.8146 64.9687 22.9549 64.9687 25.7504V40.2646H58.2295V11.5606H64.6442V15.2693C65.7591 13.9422 67.161 12.9397 68.85 12.2595C70.5389 11.5773 72.4442 11.2382 74.5637 11.2382V11.2362Z" fill="white"/>
<path d="M53.146 11.5586L47.218 40.2646H40.8032L41.5583 36.6101C40.2125 37.8997 38.6608 38.896 36.8991 39.5928C35.1373 40.2917 33.3215 40.6411 31.4536 40.6411C27.6077 40.6411 24.7997 39.5741 23.0296 37.4421C21.2596 35.3101 20.8082 32.1464 21.6735 27.9531L25.0597 11.5565H31.7989L28.602 27.0379C28.0695 29.6192 28.2546 31.5453 29.1615 32.8162C30.0663 34.0891 31.5972 34.7256 33.7541 34.7256C36.1628 34.7256 38.2303 33.981 39.9567 32.4938C41.6831 31.0066 42.8354 28.8642 43.4116 26.0686L46.4088 11.5544H53.148L53.146 11.5586Z" fill="white"/>
<path d="M264.926 26.0728C264.926 26.5387 264.89 27.2022 264.817 28.0613H242.229C242.624 30.1746 243.658 31.851 245.328 33.0886C246.998 34.3242 249.074 34.944 251.553 34.944C254.717 34.944 257.323 33.904 259.37 31.8261L262.983 35.9653C261.689 37.5066 260.052 38.6714 258.078 39.4597C256.1 40.248 253.872 40.6432 251.391 40.6432C248.229 40.6432 245.444 40.015 243.036 38.7608C240.627 37.5066 238.767 35.7594 237.455 33.5192C236.145 31.279 235.487 28.7435 235.487 25.9126C235.487 23.0818 236.126 20.6003 237.401 18.3602C238.678 16.12 240.448 14.3728 242.711 13.1186C244.974 11.8643 247.526 11.2362 250.366 11.2362C253.205 11.2362 255.676 11.8539 257.887 13.0915C260.098 14.327 261.822 16.0659 263.062 18.3061C264.302 20.5462 264.921 23.1358 264.921 26.0749L264.926 26.0728ZM250.368 16.613C248.213 16.613 246.389 17.2494 244.897 18.5224C243.404 19.7954 242.497 21.4885 242.172 23.6018H258.509C258.22 21.5238 257.34 19.839 255.865 18.5474C254.392 17.2578 252.56 16.6109 250.368 16.6109V16.613Z" fill="white"/>
<path d="M232.355 26.0728C232.355 26.5387 232.319 27.2022 232.249 28.0613H209.66C210.055 30.1746 211.089 31.851 212.759 33.0886C214.431 34.3242 216.505 34.944 218.986 34.944C222.148 34.944 224.754 33.904 226.803 31.8261L230.416 35.9653C229.12 37.5066 227.485 38.6714 225.509 39.4597C223.531 40.248 221.304 40.6432 218.824 40.6432C215.661 40.6432 212.875 40.015 210.467 38.7608C208.058 37.5066 206.199 35.7594 204.888 33.5192C203.576 31.279 202.918 28.7435 202.918 25.9126C202.918 23.0818 203.557 20.6003 204.832 18.3602C206.107 16.12 207.879 14.3728 210.142 13.1186C212.405 11.8643 214.957 11.2362 217.797 11.2362C220.636 11.2362 223.107 11.8539 225.318 13.0915C227.529 14.327 229.253 16.0659 230.493 18.3061C231.733 20.5462 232.353 23.1358 232.353 26.0749L232.355 26.0728ZM217.799 16.613C215.644 16.613 213.82 17.2494 212.326 18.5224C210.835 19.7954 209.928 21.4885 209.604 23.6018H225.94C225.651 21.5238 224.771 19.839 223.296 18.5474C221.824 17.2578 219.991 16.6109 217.799 16.6109V16.613Z" fill="white"/>
<path d="M198.492 5.4288C195.653 5.4288 194.233 6.97008 194.233 10.0526V11.5586H202.157V16.9354H194.449V40.2667H187.71V16.9354H175.752V40.2667H169.013V16.9354H164.268V11.5586H169.013V9.94448C169.013 6.86192 169.911 4.43456 171.708 2.66032C173.505 0.88608 176.039 0 179.311 0C180.694 0 182.077 0.00624 183.462 0.00624V5.4288H179.797C176.958 5.4288 175.54 6.97008 175.54 10.0526V11.5586H187.714V9.94448C187.714 6.86192 188.612 4.43456 190.41 2.66032C192.207 0.88608 194.74 0 198.012 0C199.395 0 200.78 0.00624 202.164 0.00624V5.4288H198.497H198.492Z" fill="white"/>
<path d="M147.457 40.6432C144.545 40.6432 141.922 40.015 139.587 38.7608C137.251 37.5066 135.427 35.7594 134.114 33.5192C132.804 31.279 132.146 28.7435 132.146 25.9126C132.146 23.0818 132.802 20.5546 134.114 18.3331C135.427 16.1117 137.251 14.3728 139.587 13.1186C141.922 11.8643 144.545 11.2362 147.457 11.2362C150.369 11.2362 153.046 11.8643 155.382 13.1186C157.718 14.3728 159.542 16.1117 160.855 18.3331C162.165 20.5546 162.822 23.0818 162.822 25.9126C162.822 28.7435 162.167 31.279 160.855 33.5192C159.542 35.7594 157.718 37.5066 155.382 38.7608C153.046 40.015 150.405 40.6432 147.457 40.6432ZM147.457 34.8899C149.939 34.8899 151.986 34.0662 153.604 32.4168C155.222 30.7674 156.031 28.6 156.031 25.9126C156.031 23.2253 155.222 21.0558 153.604 19.4085C151.986 17.759 149.939 16.9354 147.457 16.9354C144.976 16.9354 142.938 17.759 141.338 19.4085C139.738 21.0579 138.94 23.2253 138.94 25.9126C138.94 28.6 139.741 30.7694 141.338 32.4168C142.938 34.0662 144.978 34.8899 147.457 34.8899Z" fill="white"/>
<path d="M117.566 40.6432C114.583 40.6432 111.906 40.015 109.533 38.7608C107.159 37.5066 105.31 35.7594 103.979 33.5192C102.65 31.279 101.984 28.7435 101.984 25.9126C101.984 23.0818 102.65 20.5546 103.979 18.3331C105.308 16.1117 107.151 14.3728 109.506 13.1186C111.86 11.8643 114.545 11.2362 117.566 11.2362C120.405 11.2362 122.895 11.8102 125.033 12.9563C127.171 14.1024 128.779 15.7518 129.858 17.9026L124.683 20.9123C123.858 19.5853 122.824 18.591 121.584 17.9296C120.345 17.2661 118.988 16.9354 117.514 16.9354C114.999 16.9354 112.913 17.7507 111.259 19.3814C109.606 21.0122 108.78 23.1899 108.78 25.9126C108.78 28.6354 109.597 30.8131 111.232 32.4438C112.867 34.0746 114.961 34.8899 117.512 34.8899C118.986 34.8899 120.342 34.5592 121.582 33.8957C122.822 33.2322 123.856 32.2379 124.681 30.913L129.856 33.9227C128.741 36.0734 127.117 37.7312 124.977 38.896C122.838 40.0608 120.367 40.6432 117.564 40.6432H117.566Z" fill="white"/>
<path fill-rule="evenodd" clip-rule="evenodd" d="M17.9109 11.2362V17.4616C14.6557 17.4616 11.4358 17.187 8.94816 19.7579C7.47552 21.2805 6.73712 23.477 6.73712 26.3432V40.2667H0V11.5586H6.41472V15.7518C9.05008 11.6626 13.4867 11.2382 17.9109 11.2362Z" fill="white"/>
</svg>
