<svg width="238" height="214" viewBox="0 0 238 214" fill="none" xmlns="http://www.w3.org/2000/svg">
<circle cx="119" cy="209" r="5" fill="#B9D043" fill-opacity="0.64"/>
<circle cx="100" cy="209" r="5" fill="#B9D043" fill-opacity="0.64"/>
<circle cx="81" cy="209" r="5" fill="#B9D043" fill-opacity="0.64"/>
<circle cx="138" cy="209" r="5" fill="#B9D043" fill-opacity="0.64"/>
<circle cx="157" cy="209" r="5" fill="#B9D043" fill-opacity="0.64"/>
<circle cx="176" cy="209" r="5" fill="#B9D043" fill-opacity="0.64"/>
<circle cx="176" cy="209" r="5" fill="#B9D043" fill-opacity="0.64"/>
<circle cx="195" cy="209" r="5" fill="#B9D043" fill-opacity="0.64"/>
<circle cx="195" cy="209" r="5" fill="#B9D043" fill-opacity="0.64"/>
<circle cx="214" cy="209" r="5" fill="#B9D043" fill-opacity="0.64"/>
<circle cx="214" cy="209" r="5" fill="#B9D043" fill-opacity="0.64"/>
<circle cx="233" cy="209" r="5" fill="#B9D043" fill-opacity="0.64"/>
<circle cx="233" cy="209" r="5" fill="#B9D043" fill-opacity="0.64"/>
<circle cx="119" cy="192" r="5" fill="#B9D043" fill-opacity="0.64"/>
<circle cx="100" cy="192" r="5" fill="#B9D043" fill-opacity="0.64"/>
<circle cx="81" cy="192" r="5" fill="#B9D043" fill-opacity="0.64"/>
<circle cx="138" cy="192" r="5" fill="#B9D043" fill-opacity="0.64"/>
<circle cx="157" cy="192" r="5" fill="#B9D043" fill-opacity="0.64"/>
<circle cx="176" cy="192" r="5" fill="#B9D043" fill-opacity="0.64"/>
<circle cx="176" cy="192" r="5" fill="#B9D043" fill-opacity="0.64"/>
<circle cx="195" cy="192" r="5" fill="#B9D043" fill-opacity="0.64"/>
<circle cx="195" cy="192" r="5" fill="#B9D043" fill-opacity="0.64"/>
<circle cx="214" cy="192" r="5" fill="#B9D043" fill-opacity="0.64"/>
<circle cx="214" cy="192" r="5" fill="#B9D043" fill-opacity="0.64"/>
<circle cx="233" cy="192" r="5" fill="#B9D043" fill-opacity="0.64"/>
<circle cx="233" cy="192" r="5" fill="#B9D043" fill-opacity="0.64"/>
<circle cx="119" cy="175" r="5" fill="#B9D043" fill-opacity="0.64"/>
<circle cx="100" cy="175" r="5" fill="#B9D043" fill-opacity="0.64"/>
<circle cx="81" cy="175" r="5" fill="#B9D043" fill-opacity="0.64"/>
<circle cx="138" cy="175" r="5" fill="#B9D043" fill-opacity="0.64"/>
<circle cx="157" cy="175" r="5" fill="#B9D043" fill-opacity="0.64"/>
<circle cx="176" cy="175" r="5" fill="#B9D043" fill-opacity="0.64"/>
<circle cx="176" cy="175" r="5" fill="#B9D043" fill-opacity="0.64"/>
<circle cx="195" cy="175" r="5" fill="#B9D043" fill-opacity="0.64"/>
<circle cx="195" cy="175" r="5" fill="#B9D043" fill-opacity="0.64"/>
<circle cx="214" cy="175" r="5" fill="#B9D043" fill-opacity="0.64"/>
<circle cx="214" cy="175" r="5" fill="#B9D043" fill-opacity="0.64"/>
<circle cx="233" cy="175" r="5" fill="#B9D043" fill-opacity="0.64"/>
<circle cx="233" cy="175" r="5" fill="#B9D043" fill-opacity="0.64"/>
<circle cx="119" cy="158" r="5" fill="#B9D043" fill-opacity="0.64"/>
<circle cx="100" cy="158" r="5" fill="#B9D043" fill-opacity="0.64"/>
<circle cx="81" cy="158" r="5" fill="#B9D043" fill-opacity="0.64"/>
<circle cx="138" cy="158" r="5" fill="#B9D043" fill-opacity="0.64"/>
<circle cx="157" cy="158" r="5" fill="#B9D043" fill-opacity="0.64"/>
<circle cx="176" cy="158" r="5" fill="#B9D043" fill-opacity="0.64"/>
<circle cx="176" cy="158" r="5" fill="#B9D043" fill-opacity="0.64"/>
<circle cx="195" cy="158" r="5" fill="#B9D043" fill-opacity="0.64"/>
<circle cx="195" cy="158" r="5" fill="#B9D043" fill-opacity="0.64"/>
<circle cx="214" cy="158" r="5" fill="#B9D043" fill-opacity="0.64"/>
<circle cx="214" cy="158" r="5" fill="#B9D043" fill-opacity="0.64"/>
<circle cx="233" cy="158" r="5" fill="#B9D043" fill-opacity="0.64"/>
<circle cx="233" cy="158" r="5" fill="#B9D043" fill-opacity="0.64"/>
<circle cx="119" cy="141" r="5" fill="#B9D043" fill-opacity="0.64"/>
<circle cx="100" cy="141" r="5" fill="#B9D043" fill-opacity="0.64"/>
<circle cx="81" cy="141" r="5" fill="#B9D043" fill-opacity="0.64"/>
<circle cx="138" cy="141" r="5" fill="#B9D043" fill-opacity="0.64"/>
<circle cx="157" cy="141" r="5" fill="#B9D043" fill-opacity="0.64"/>
<circle cx="176" cy="141" r="5" fill="#B9D043" fill-opacity="0.64"/>
<circle cx="176" cy="141" r="5" fill="#B9D043" fill-opacity="0.64"/>
<circle cx="195" cy="141" r="5" fill="#B9D043" fill-opacity="0.64"/>
<circle cx="195" cy="141" r="5" fill="#B9D043" fill-opacity="0.64"/>
<circle cx="214" cy="141" r="5" fill="#B9D043" fill-opacity="0.64"/>
<circle cx="214" cy="141" r="5" fill="#B9D043" fill-opacity="0.64"/>
<circle cx="233" cy="141" r="5" fill="#B9D043" fill-opacity="0.64"/>
<circle cx="233" cy="141" r="5" fill="#B9D043" fill-opacity="0.64"/>
<circle cx="119" cy="124" r="5" fill="#B9D043" fill-opacity="0.64"/>
<circle cx="100" cy="124" r="5" fill="#B9D043" fill-opacity="0.64"/>
<circle cx="81" cy="124" r="5" fill="#B9D043" fill-opacity="0.64"/>
<circle cx="138" cy="124" r="5" fill="#B9D043" fill-opacity="0.64"/>
<circle cx="157" cy="124" r="5" fill="#B9D043" fill-opacity="0.64"/>
<circle cx="176" cy="124" r="5" fill="#B9D043" fill-opacity="0.64"/>
<circle cx="176" cy="124" r="5" fill="#B9D043" fill-opacity="0.64"/>
<circle cx="195" cy="124" r="5" fill="#B9D043" fill-opacity="0.64"/>
<circle cx="195" cy="124" r="5" fill="#B9D043" fill-opacity="0.64"/>
<circle cx="214" cy="124" r="5" fill="#B9D043" fill-opacity="0.64"/>
<circle cx="214" cy="124" r="5" fill="#B9D043" fill-opacity="0.64"/>
<circle cx="233" cy="124" r="5" fill="#B9D043" fill-opacity="0.64"/>
<circle cx="233" cy="124" r="5" fill="#B9D043" fill-opacity="0.64"/>
<circle cx="119" cy="107" r="5" fill="#B9D043" fill-opacity="0.64"/>
<circle cx="100" cy="107" r="5" fill="#B9D043" fill-opacity="0.64"/>
<circle cx="81" cy="107" r="5" fill="#B9D043" fill-opacity="0.64"/>
<circle cx="138" cy="107" r="5" fill="#B9D043" fill-opacity="0.64"/>
<circle cx="157" cy="107" r="5" fill="#B9D043" fill-opacity="0.64"/>
<circle cx="176" cy="107" r="5" fill="#B9D043" fill-opacity="0.64"/>
<circle cx="176" cy="107" r="5" fill="#B9D043" fill-opacity="0.64"/>
<circle cx="195" cy="107" r="5" fill="#B9D043" fill-opacity="0.64"/>
<circle cx="195" cy="107" r="5" fill="#B9D043" fill-opacity="0.64"/>
<circle cx="214" cy="107" r="5" fill="#B9D043" fill-opacity="0.64"/>
<circle cx="214" cy="107" r="5" fill="#B9D043" fill-opacity="0.64"/>
<circle cx="233" cy="107" r="5" fill="#B9D043" fill-opacity="0.64"/>
<circle cx="233" cy="107" r="5" fill="#B9D043" fill-opacity="0.64"/>
<circle cx="119" cy="90" r="5" fill="#B9D043" fill-opacity="0.64"/>
<circle cx="100" cy="90" r="5" fill="#B9D043" fill-opacity="0.64"/>
<circle cx="81" cy="90" r="5" fill="#B9D043" fill-opacity="0.64"/>
<circle cx="138" cy="90" r="5" fill="#B9D043" fill-opacity="0.64"/>
<circle cx="157" cy="90" r="5" fill="#B9D043" fill-opacity="0.64"/>
<circle cx="176" cy="90" r="5" fill="#B9D043" fill-opacity="0.64"/>
<circle cx="176" cy="90" r="5" fill="#B9D043" fill-opacity="0.64"/>
<circle cx="195" cy="90" r="5" fill="#B9D043" fill-opacity="0.64"/>
<circle cx="195" cy="90" r="5" fill="#B9D043" fill-opacity="0.64"/>
<circle cx="214" cy="90" r="5" fill="#B9D043" fill-opacity="0.64"/>
<circle cx="214" cy="90" r="5" fill="#B9D043" fill-opacity="0.64"/>
<circle cx="233" cy="90" r="5" fill="#B9D043" fill-opacity="0.64"/>
<circle cx="233" cy="90" r="5" fill="#B9D043" fill-opacity="0.64"/>
<circle cx="119" cy="73" r="5" fill="#B9D043" fill-opacity="0.64"/>
<circle cx="100" cy="73" r="5" fill="#B9D043" fill-opacity="0.64"/>
<circle cx="81" cy="73" r="5" fill="#B9D043" fill-opacity="0.64"/>
<circle cx="138" cy="73" r="5" fill="#B9D043" fill-opacity="0.64"/>
<circle cx="157" cy="73" r="5" fill="#B9D043" fill-opacity="0.64"/>
<circle cx="176" cy="73" r="5" fill="#B9D043" fill-opacity="0.64"/>
<circle cx="176" cy="73" r="5" fill="#B9D043" fill-opacity="0.64"/>
<circle cx="195" cy="73" r="5" fill="#B9D043" fill-opacity="0.64"/>
<circle cx="195" cy="73" r="5" fill="#B9D043" fill-opacity="0.64"/>
<circle cx="214" cy="73" r="5" fill="#B9D043" fill-opacity="0.64"/>
<circle cx="214" cy="73" r="5" fill="#B9D043" fill-opacity="0.64"/>
<circle cx="233" cy="73" r="5" fill="#B9D043" fill-opacity="0.64"/>
<circle cx="233" cy="73" r="5" fill="#B9D043" fill-opacity="0.64"/>
<circle cx="119" cy="56" r="5" fill="#B9D043" fill-opacity="0.64"/>
<circle cx="100" cy="56" r="5" fill="#B9D043" fill-opacity="0.64"/>
<circle cx="81" cy="56" r="5" fill="#B9D043" fill-opacity="0.64"/>
<circle cx="138" cy="56" r="5" fill="#B9D043" fill-opacity="0.64"/>
<circle cx="43" cy="209" r="5" fill="#B9D043" fill-opacity="0.64"/>
<circle cx="24" cy="209" r="5" fill="#B9D043" fill-opacity="0.64"/>
<circle cx="5" cy="209" r="5" fill="#B9D043" fill-opacity="0.7"/>
<circle cx="62" cy="209" r="5" fill="#B9D043" fill-opacity="0.64"/>
<circle cx="43" cy="192" r="5" fill="#B9D043" fill-opacity="0.64"/>
<circle cx="24" cy="192" r="5" fill="#B9D043" fill-opacity="0.64"/>
<circle cx="5" cy="192" r="5" fill="#B9D043" fill-opacity="0.7"/>
<circle cx="62" cy="192" r="5" fill="#B9D043" fill-opacity="0.64"/>
<circle cx="43" cy="175" r="5" fill="#B9D043" fill-opacity="0.64"/>
<circle cx="24" cy="175" r="5" fill="#B9D043" fill-opacity="0.64"/>
<circle cx="5" cy="175" r="5" fill="#B9D043" fill-opacity="0.7"/>
<circle cx="62" cy="175" r="5" fill="#B9D043" fill-opacity="0.64"/>
<circle cx="43" cy="158" r="5" fill="#B9D043" fill-opacity="0.64"/>
<circle cx="24" cy="158" r="5" fill="#B9D043" fill-opacity="0.64"/>
<circle cx="5" cy="158" r="5" fill="#B9D043" fill-opacity="0.7"/>
<circle cx="62" cy="158" r="5" fill="#B9D043" fill-opacity="0.64"/>
<circle cx="43" cy="141" r="5" fill="#B9D043" fill-opacity="0.64"/>
<circle cx="24" cy="141" r="5" fill="#B9D043" fill-opacity="0.64"/>
<circle cx="5" cy="141" r="5" fill="#B9D043" fill-opacity="0.7"/>
<circle cx="62" cy="141" r="5" fill="#B9D043" fill-opacity="0.64"/>
<circle cx="43" cy="124" r="5" fill="#B9D043" fill-opacity="0.64"/>
<circle cx="24" cy="124" r="5" fill="#B9D043" fill-opacity="0.64"/>
<circle cx="5" cy="124" r="5" fill="#B9D043" fill-opacity="0.7"/>
<circle cx="62" cy="124" r="5" fill="#B9D043" fill-opacity="0.64"/>
<circle cx="43" cy="107" r="5" fill="#B9D043" fill-opacity="0.64"/>
<circle cx="24" cy="107" r="5" fill="#B9D043" fill-opacity="0.64"/>
<circle cx="5" cy="107" r="5" fill="#B9D043" fill-opacity="0.7"/>
<circle cx="62" cy="107" r="5" fill="#B9D043" fill-opacity="0.64"/>
<circle cx="43" cy="90" r="5" fill="#B9D043" fill-opacity="0.64"/>
<circle cx="24" cy="90" r="5" fill="#B9D043" fill-opacity="0.64"/>
<circle cx="5" cy="90" r="5" fill="#B9D043" fill-opacity="0.7"/>
<circle cx="62" cy="90" r="5" fill="#B9D043" fill-opacity="0.64"/>
<circle cx="43" cy="73" r="5" fill="#B9D043" fill-opacity="0.64"/>
<circle cx="24" cy="73" r="5" fill="#B9D043" fill-opacity="0.64"/>
<circle cx="5" cy="73" r="5" fill="#B9D043" fill-opacity="0.7"/>
<circle cx="62" cy="73" r="5" fill="#B9D043" fill-opacity="0.64"/>
<circle cx="43" cy="56" r="5" fill="#B9D043" fill-opacity="0.64"/>
<circle cx="24" cy="56" r="5" fill="#B9D043" fill-opacity="0.64"/>
<circle cx="5" cy="56" r="5" fill="#B9D043" fill-opacity="0.7"/>
<circle cx="62" cy="56" r="5" fill="#B9D043" fill-opacity="0.64"/>
<circle cx="157" cy="56" r="5" fill="#B9D043" fill-opacity="0.64"/>
<circle cx="176" cy="56" r="5" fill="#B9D043" fill-opacity="0.64"/>
<circle cx="176" cy="56" r="5" fill="#B9D043" fill-opacity="0.64"/>
<circle cx="195" cy="56" r="5" fill="#B9D043" fill-opacity="0.64"/>
<circle cx="195" cy="56" r="5" fill="#B9D043" fill-opacity="0.64"/>
<circle cx="214" cy="56" r="5" fill="#B9D043" fill-opacity="0.64"/>
<circle cx="214" cy="56" r="5" fill="#B9D043" fill-opacity="0.64"/>
<circle cx="233" cy="56" r="5" fill="#B9D043" fill-opacity="0.64"/>
<circle cx="233" cy="56" r="5" fill="#B9D043" fill-opacity="0.64"/>
<circle cx="119" cy="39" r="5" fill="#B9D043" fill-opacity="0.64"/>
<circle cx="100" cy="39" r="5" fill="#B9D043" fill-opacity="0.64"/>
<circle cx="81" cy="39" r="5" fill="#B9D043" fill-opacity="0.64"/>
<circle cx="138" cy="39" r="5" fill="#B9D043" fill-opacity="0.64"/>
<circle cx="157" cy="39" r="5" fill="#B9D043" fill-opacity="0.64"/>
<circle cx="176" cy="39" r="5" fill="#B9D043" fill-opacity="0.64"/>
<circle cx="176" cy="39" r="5" fill="#B9D043" fill-opacity="0.64"/>
<circle cx="195" cy="39" r="5" fill="#B9D043" fill-opacity="0.64"/>
<circle cx="195" cy="39" r="5" fill="#B9D043" fill-opacity="0.64"/>
<circle cx="214" cy="39" r="5" fill="#B9D043" fill-opacity="0.64"/>
<circle cx="214" cy="39" r="5" fill="#B9D043" fill-opacity="0.64"/>
<circle cx="233" cy="39" r="5" fill="#B9D043" fill-opacity="0.64"/>
<circle cx="233" cy="39" r="5" fill="#B9D043" fill-opacity="0.64"/>
<circle cx="119" cy="22" r="5" fill="#B9D043" fill-opacity="0.64"/>
<circle cx="100" cy="22" r="5" fill="#B9D043" fill-opacity="0.64"/>
<circle cx="81" cy="22" r="5" fill="#B9D043" fill-opacity="0.64"/>
<circle cx="138" cy="22" r="5" fill="#B9D043" fill-opacity="0.64"/>
<circle cx="157" cy="22" r="5" fill="#B9D043" fill-opacity="0.64"/>
<circle cx="176" cy="22" r="5" fill="#B9D043" fill-opacity="0.64"/>
<circle cx="176" cy="22" r="5" fill="#B9D043" fill-opacity="0.64"/>
<circle cx="195" cy="22" r="5" fill="#B9D043" fill-opacity="0.64"/>
<circle cx="195" cy="22" r="5" fill="#B9D043" fill-opacity="0.64"/>
<circle cx="214" cy="22" r="5" fill="#B9D043" fill-opacity="0.64"/>
<circle cx="214" cy="22" r="5" fill="#B9D043" fill-opacity="0.64"/>
<circle cx="233" cy="22" r="5" fill="#B9D043" fill-opacity="0.64"/>
<circle cx="233" cy="22" r="5" fill="#B9D043" fill-opacity="0.64"/>
<circle cx="119" cy="5" r="5" fill="#B9D043" fill-opacity="0.64"/>
<circle cx="100" cy="5" r="5" fill="#B9D043" fill-opacity="0.64"/>
<circle cx="81" cy="5" r="5" fill="#B9D043" fill-opacity="0.64"/>
<circle cx="138" cy="5" r="5" fill="#B9D043" fill-opacity="0.64"/>
<circle cx="43" cy="39" r="5" fill="#B9D043" fill-opacity="0.64"/>
<circle cx="24" cy="39" r="5" fill="#B9D043" fill-opacity="0.64"/>
<circle cx="5" cy="39" r="5" fill="#B9D043" fill-opacity="0.7"/>
<circle cx="62" cy="39" r="5" fill="#B9D043" fill-opacity="0.64"/>
<circle cx="43" cy="22" r="5" fill="#B9D043" fill-opacity="0.64"/>
<circle cx="24" cy="22" r="5" fill="#B9D043" fill-opacity="0.64"/>
<circle cx="5" cy="22" r="5" fill="#B9D043" fill-opacity="0.7"/>
<circle cx="62" cy="22" r="5" fill="#B9D043" fill-opacity="0.64"/>
<circle cx="43" cy="5" r="5" fill="#B9D043" fill-opacity="0.64"/>
<circle cx="24" cy="5" r="5" fill="#B9D043" fill-opacity="0.64"/>
<circle cx="5" cy="5" r="5" fill="#B9D043" fill-opacity="0.7"/>
<circle cx="62" cy="5" r="5" fill="#B9D043" fill-opacity="0.64"/>
<circle cx="157" cy="5" r="5" fill="#B9D043" fill-opacity="0.64"/>
<circle cx="176" cy="5" r="5" fill="#B9D043" fill-opacity="0.64"/>
<circle cx="176" cy="5" r="5" fill="#B9D043" fill-opacity="0.64"/>
<circle cx="195" cy="5" r="5" fill="#B9D043" fill-opacity="0.64"/>
<circle cx="195" cy="5" r="5" fill="#B9D043" fill-opacity="0.64"/>
<circle cx="214" cy="5" r="5" fill="#B9D043" fill-opacity="0.64"/>
<circle cx="214" cy="5" r="5" fill="#B9D043" fill-opacity="0.64"/>
<circle cx="233" cy="5" r="5" fill="#B9D043" fill-opacity="0.64"/>
<circle cx="233" cy="5" r="5" fill="#B9D043" fill-opacity="0.64"/>
</svg>
