<svg width="1041" height="75" viewBox="0 0 1041 75" fill="none" xmlns="http://www.w3.org/2000/svg">
<path d="M57.8427 60.9115V46.9623H81.0913C83.8192 46.9623 86.175 46.4973 88.1589 45.5674C90.1428 44.6374 91.6617 43.3045 92.7156 41.5686C93.8316 39.7707 94.3895 37.6628 94.3895 35.245C94.3895 32.8271 93.8316 30.7502 92.7156 29.0143C91.6617 27.2784 90.1428 25.9455 88.1589 25.0156C86.175 24.0856 83.8192 23.6206 81.0913 23.6206H57.9357V9.76444H82.0213C88.2829 9.76444 93.6456 10.8184 98.1093 12.9263C102.573 15.0341 106.014 18.01 108.432 21.8537C110.912 25.6355 112.152 30.0993 112.152 35.245C112.152 40.3907 110.912 44.8854 108.432 48.7292C106.014 52.573 102.573 55.5798 98.1093 57.7497C93.6456 59.8575 88.2829 60.9115 82.0213 60.9115H57.8427ZM30.0373 60.9115C23.8996 60.9115 18.5679 59.8575 14.0422 57.7497C9.57845 55.5798 6.10665 52.573 3.62679 48.7292C1.20893 44.8854 0 40.3907 0 35.245C0 30.0993 1.20893 25.6355 3.62679 21.8537C6.10665 18.01 9.57845 15.0341 14.0422 12.9263C18.5679 10.8184 23.8996 9.76444 30.0373 9.76444H54.1229V23.6206H30.9672C28.2394 23.6206 25.8835 24.0856 23.8996 25.0156C21.9157 25.9455 20.3968 27.2784 19.3429 29.0143C18.2889 30.7502 17.762 32.8271 17.762 35.245C17.762 37.6628 18.2889 39.7707 19.3429 41.5686C20.3968 43.3045 21.9157 44.6374 23.8996 45.5674C25.8835 46.4973 28.2394 46.9623 30.9672 46.9623H54.2159V60.9115H30.0373ZM47.2413 74.0237V0H64.8173V74.0237H47.2413Z" fill="#D0D0D0" fill-opacity="0.1"/>
<path d="M121.429 71.8848V2.13888H138.726V62.7714L133.611 61.7484L175.459 2.13888H198.336V71.8848H181.132V10.2294L186.153 11.2524L143.748 71.8848H121.429Z" fill="#D0D0D0" fill-opacity="0.1"/>
<path d="M233.921 9.95043H251.497V71.8848H233.921V9.95043ZM206.766 2.13888H278.651V17.669H206.766V2.13888Z" fill="#D0D0D0" fill-opacity="0.1"/>
<path d="M287.076 2.13888H304.652V71.8848H287.076V2.13888ZM342.501 2.13888H360.077V71.8848H342.501V2.13888ZM296.84 28.8283H349.94V44.2654H296.84V28.8283Z" fill="#D0D0D0" fill-opacity="0.1"/>
<path d="M432.302 30.5022V43.5215H381.806V30.5022H432.302ZM393.709 37.0119L389.06 65.8402L381.713 57.4707H435.278V71.8848H371.484L376.877 37.0119L371.484 2.13888H434.813V16.553H381.713L389.06 8.18353L393.709 37.0119Z" fill="#D0D0D0" fill-opacity="0.1"/>
<path d="M522.264 43.0565C521.582 49.0702 519.505 54.3709 516.034 58.9586C512.562 63.4843 507.974 67.0181 502.27 69.56C496.567 72.1018 490.088 73.3728 482.835 73.3728C474.775 73.3728 467.707 71.8539 461.632 68.816C455.618 65.7782 450.937 61.5315 447.59 56.0758C444.242 50.6201 442.568 44.2654 442.568 37.0119C442.568 29.7583 444.242 23.4037 447.59 17.948C450.937 12.4923 455.618 8.24553 461.632 5.2077C467.707 2.16988 474.775 0.650965 482.835 0.650965C490.088 0.650965 496.567 1.92189 502.27 4.46375C507.974 7.0056 512.562 10.5394 516.034 15.0651C519.505 19.5909 521.582 24.8916 522.264 30.9672H504.595C503.975 27.8054 502.704 25.1086 500.783 22.8767C498.923 20.6448 496.443 18.9399 493.343 17.762C490.305 16.522 486.771 15.9021 482.742 15.9021C478.092 15.9021 474.093 16.77 470.745 18.5059C467.397 20.1798 464.825 22.5977 463.027 25.7595C461.229 28.9213 460.33 32.6721 460.33 37.0119C460.33 41.3516 461.229 45.1024 463.027 48.2642C464.825 51.426 467.397 53.8749 470.745 55.6108C474.093 57.2847 478.092 58.1216 482.742 58.1216C486.771 58.1216 490.305 57.5327 493.343 56.3547C496.443 55.1768 498.923 53.4719 500.783 51.24C502.704 49.0082 503.975 46.2803 504.595 43.0565H522.264Z" fill="#D0D0D0" fill-opacity="0.1"/>
<path d="M574.568 9.95043H592.144V71.8848H574.568V9.95043ZM547.414 2.13888H619.298V17.669H547.414V2.13888Z" fill="#D0D0D0" fill-opacity="0.1"/>
<path d="M686.403 30.5022V43.5215H635.907V30.5022H686.403ZM647.81 37.0119L643.16 65.8402L635.814 57.4707H689.379V71.8848H625.584L630.978 37.0119L625.584 2.13888H688.914V16.553H635.814L643.16 8.18353L647.81 37.0119Z" fill="#D0D0D0" fill-opacity="0.1"/>
<path d="M700.92 2.13888H718.496L721.95 37.0119L718.496 71.8848H700.92L704.897 37.0119L700.92 2.13888ZM756.345 2.13888H773.921V71.8848H756.345V2.13888ZM710.685 28.8283H763.784V44.2654H710.685V28.8283Z" fill="#D0D0D0" fill-opacity="0.1"/>
<path d="M787.467 2.13888H805.043V71.8848H787.467V2.13888ZM842.892 2.13888H860.468V71.8848H842.892V2.13888ZM797.231 28.8283H850.331V44.2654H797.231V28.8283Z" fill="#D0D0D0" fill-opacity="0.1"/>
<path d="M874.014 71.8848V2.13888H891.311V62.7714L886.196 61.7484L928.043 2.13888H950.92V71.8848H933.716V10.2294L938.738 11.2524L896.332 71.8848H874.014Z" fill="#D0D0D0" fill-opacity="0.1"/>
<path d="M1041 43.0565C1040.32 49.0702 1038.24 54.3709 1034.77 58.9586C1031.3 63.4843 1026.71 67.0181 1021.01 69.56C1015.3 72.1018 1008.82 73.3728 1001.57 73.3728C993.511 73.3728 986.443 71.8539 980.368 68.816C974.354 65.7782 969.673 61.5315 966.325 56.0758C962.978 50.6201 961.304 44.2654 961.304 37.0119C961.304 29.7583 962.978 23.4037 966.325 17.948C969.673 12.4923 974.354 8.24553 980.368 5.2077C986.443 2.16988 993.511 0.650965 1001.57 0.650965C1008.82 0.650965 1015.3 1.92189 1021.01 4.46375C1026.71 7.0056 1031.3 10.5394 1034.77 15.0651C1038.24 19.5909 1040.32 24.8916 1041 30.9672H1023.33C1022.71 27.8054 1021.44 25.1086 1019.52 22.8767C1017.66 20.6448 1015.18 18.9399 1012.08 17.762C1009.04 16.522 1005.51 15.9021 1001.48 15.9021C996.828 15.9021 992.829 16.77 989.481 18.5059C986.133 20.1798 983.56 22.5977 981.762 25.7595C979.965 28.9213 979.066 32.6721 979.066 37.0119C979.066 41.3516 979.965 45.1024 981.762 48.2642C983.56 51.426 986.133 53.8749 989.481 55.6108C992.829 57.2847 996.828 58.1216 1001.48 58.1216C1005.51 58.1216 1009.04 57.5327 1012.08 56.3547C1015.18 55.1768 1017.66 53.4719 1019.52 51.24C1021.44 49.0082 1022.71 46.2803 1023.33 43.0565H1041Z" fill="#D0D0D0" fill-opacity="0.1"/>
</svg>
