<svg width="221" height="47" viewBox="0 0 221 47" fill="none" xmlns="http://www.w3.org/2000/svg">
<g clip-path="url(#clip0_291_30)">
<mask id="mask0_291_30" style="mask-type:luminance" maskUnits="userSpaceOnUse" x="0" y="0" width="221" height="47">
<path d="M220.301 0.110352H0.300781V46.1104H220.301V0.110352Z" fill="white"/>
</mask>
<g mask="url(#mask0_291_30)">
<mask id="mask1_291_30" style="mask-type:luminance" maskUnits="userSpaceOnUse" x="0" y="0" width="221" height="47">
<path d="M220.301 0.110352H0.300781V46.1104H220.301V0.110352Z" fill="white"/>
</mask>
<g mask="url(#mask1_291_30)">
<mask id="mask2_291_30" style="mask-type:luminance" maskUnits="userSpaceOnUse" x="0" y="0" width="221" height="47">
<path d="M220.301 0.110352H0.300781V46.1104H220.301V0.110352Z" fill="white"/>
</mask>
<g mask="url(#mask2_291_30)">
<mask id="mask3_291_30" style="mask-type:luminance" maskUnits="userSpaceOnUse" x="0" y="0" width="221" height="47">
<path d="M220.301 0.110352H0.300781V46.1103H220.301V0.110352Z" fill="white"/>
</mask>
<g mask="url(#mask3_291_30)">
<path d="M73.5775 45.053C73.8227 44.3543 74.1057 43.5612 74.4076 42.6548C74.7095 41.7672 75.0302 40.9553 75.332 40.2188H76.7659C77.0111 41.0118 77.313 41.8617 77.6337 42.7492C77.9545 43.6367 78.2375 44.4108 78.5016 45.034H77.5017C77.2941 44.5052 77.1243 44.1088 77.03 43.8444H74.917C74.8038 44.2032 74.6717 44.5997 74.5397 45.034H73.5586L73.5775 45.053ZM75.1434 43.0702H76.747C76.5018 42.3526 76.2754 41.6539 76.0678 41.0119H75.8792C75.6528 41.5973 75.4075 42.2771 75.1245 43.0702H75.1434Z" fill="#131411"/>
<path d="M78.7275 42.5984C78.7275 42.2018 78.7653 41.8808 78.8219 41.5787C78.8785 41.2765 78.9728 41.0499 79.086 40.8611C79.1992 40.6723 79.3501 40.5212 79.5577 40.4079C79.7463 40.2946 79.9539 40.2191 80.1991 40.1624C80.4444 40.1058 80.7085 40.0869 81.0292 40.0869C81.35 40.0869 81.6141 40.1058 81.8594 40.1624C82.1046 40.2191 82.3121 40.2946 82.5008 40.4079C82.6895 40.5212 82.8404 40.6723 82.9725 40.8611C83.0857 41.0499 83.18 41.2954 83.2366 41.5787C83.2932 41.8619 83.3309 42.2018 83.3309 42.5984C83.3309 43.0893 83.2932 43.5048 83.1989 43.8447C83.1045 44.1846 82.9536 44.4301 82.7649 44.6378C82.5574 44.8266 82.331 44.9588 82.048 45.0532C81.765 45.1287 81.4443 45.1665 81.0292 45.1665C80.7085 45.1665 80.4444 45.1476 80.1991 45.091C79.9539 45.0343 79.7463 44.9588 79.5577 44.8455C79.369 44.7322 79.2181 44.5811 79.1049 44.3734C78.9917 44.1846 78.8973 43.9391 78.8407 43.637C78.7841 43.3348 78.7464 42.9949 78.7464 42.5984H78.7275ZM79.7275 41.9752C79.7275 42.1452 79.7086 42.3529 79.7086 42.5984C79.7086 42.8439 79.7086 43.0516 79.7275 43.2215C79.7275 43.3915 79.7652 43.5425 79.8218 43.6747C79.8595 43.8069 79.9161 43.9013 79.9727 43.9957C80.0293 44.0713 80.1237 44.1279 80.218 44.1846C80.3123 44.2412 80.4444 44.2601 80.5576 44.279C80.6708 44.2979 80.8406 44.2979 81.0292 44.2979C81.2179 44.2979 81.3688 44.2979 81.5009 44.279C81.633 44.2601 81.7462 44.2223 81.8405 44.1846C81.9348 44.1468 82.0291 44.0713 82.0857 43.9957C82.1423 43.9202 82.1989 43.8069 82.2367 43.6747C82.2744 43.5425 82.3121 43.3915 82.331 43.2215C82.331 43.0516 82.3499 42.8439 82.3499 42.5984C82.3499 42.3529 82.3499 42.1452 82.331 41.9752C82.3121 41.8053 82.2933 41.6542 82.2367 41.522C82.1801 41.3898 82.1423 41.2954 82.0857 41.2199C82.0291 41.1443 81.9348 41.0877 81.8405 41.0499C81.7462 41.0122 81.6141 40.9744 81.5009 40.9555C81.3877 40.9366 81.2179 40.9366 81.0292 40.9366C80.8406 40.9366 80.6896 40.9366 80.5576 40.9555C80.4255 40.9744 80.3123 40.9933 80.218 41.0499C80.1237 41.1066 80.0293 41.1632 79.9727 41.2199C79.9161 41.2954 79.8595 41.3898 79.8218 41.522C79.7841 41.6542 79.7463 41.8053 79.7275 41.9752Z" fill="#131411"/>
<path d="M85.6895 42.9007L87.5572 40.9746L88.0478 41.4844L86.8214 42.9007L88.0478 44.3358L87.5572 44.8646L85.6895 42.9196V42.9007ZM87.576 42.9007L89.4438 40.9746L89.9343 41.4844L88.7081 42.9007L89.9343 44.3358L89.4438 44.8646L87.576 42.9196V42.9007Z" fill="#131411"/>
<path d="M90.7275 45.0525V40.2373H94.1988V41.0304H91.6519V42.1634H93.331C93.7649 42.1634 94.1045 42.2955 94.3121 42.541C94.5196 42.7865 94.6138 43.1642 94.6138 43.6363C94.6138 44.1461 94.5006 44.5049 94.2931 44.7315C94.0856 44.9581 93.7837 45.0714 93.3687 45.0714H90.7462L90.7275 45.0525ZM91.6331 44.2783H93.1424C93.4442 44.2783 93.6139 44.0517 93.6139 43.5985C93.6139 43.1264 93.4442 42.8809 93.1235 42.8809H91.6331V44.2594V44.2783Z" fill="#131411"/>
<path d="M95.3675 43.9578C95.3675 43.769 95.3864 43.5991 95.443 43.4669C95.4807 43.3347 95.5562 43.2214 95.6128 43.1459C95.6882 43.0703 95.7826 42.9948 95.9146 42.957C96.0278 42.9004 96.1599 42.8815 96.292 42.8626C96.424 42.8626 96.5749 42.8437 96.7447 42.8437C97.0089 42.8437 97.2919 42.8815 97.6126 42.9381C97.6126 42.7682 97.6126 42.6549 97.5749 42.5605C97.556 42.4661 97.4994 42.3905 97.4428 42.3339C97.3673 42.2772 97.2919 42.2395 97.1787 42.2206C97.0655 42.2017 96.9145 42.1828 96.7259 42.1828C96.3108 42.1828 95.9524 42.2395 95.6694 42.3339L95.5184 41.6352C95.9901 41.5219 96.4429 41.4463 96.9145 41.4463C97.1975 41.4463 97.4239 41.4652 97.6126 41.503C97.8013 41.5408 97.9522 41.6163 98.0843 41.7296C98.2163 41.8429 98.3106 41.9751 98.3672 42.145C98.4238 42.315 98.4616 42.5416 98.4616 42.806V44.8642C98.2352 44.9587 97.9711 45.0342 97.6692 45.072C97.3673 45.1097 97.0843 45.1475 96.8202 45.1475C96.2542 45.1475 95.8769 45.072 95.6694 44.902C95.4618 44.7321 95.3486 44.411 95.3486 43.9578H95.3675ZM96.2542 43.9201C96.2542 44.1467 96.292 44.2789 96.3863 44.3544C96.4618 44.411 96.6504 44.4488 96.9145 44.4488C97.1598 44.4488 97.3862 44.411 97.6126 44.3355V43.5046C97.4239 43.4669 97.1787 43.448 96.9145 43.448C96.7825 43.448 96.6693 43.448 96.6127 43.448C96.5372 43.448 96.4806 43.4858 96.424 43.5046C96.3674 43.5235 96.3297 43.5802 96.3108 43.6557C96.292 43.7124 96.2731 43.8068 96.2731 43.9201H96.2542Z" fill="#131411"/>
<path d="M99.3867 45.0533V41.541H100.236V42.8439H101.613V41.541H102.462V45.0533H101.613V43.5615H100.236V45.0533H99.3867Z" fill="#131411"/>
<path d="M103.443 45.0533V41.541H104.292V43.2405C104.631 42.8628 105.084 42.2963 105.65 41.541H106.669C105.99 42.4474 105.556 42.9761 105.33 43.1461C105.405 43.1838 105.48 43.2027 105.537 43.2405C105.594 43.2782 105.669 43.3349 105.763 43.4293C105.858 43.5237 105.933 43.6182 106.028 43.7503C106.122 43.8825 106.216 44.0525 106.348 44.2791C106.48 44.5057 106.594 44.7512 106.745 45.0533H105.745C105.594 44.7512 105.462 44.4868 105.33 44.2791C105.197 44.0714 105.065 43.9014 104.952 43.7881C104.839 43.6748 104.726 43.5804 104.613 43.5237C104.499 43.4671 104.405 43.4293 104.273 43.3915V45.0155H103.424L103.443 45.0533Z" fill="#131411"/>
<path d="M108.631 44.2217H109.423C109.857 43.032 110.103 41.7102 110.159 40.2373H113.348V44.2217H114.253L114.102 46.11H113.253V45.0525H109.631V46.11H108.782L108.631 44.2217ZM110.423 44.2217H112.423V41.0115H110.989C110.895 42.2578 110.706 43.3341 110.423 44.2217Z" fill="#131411"/>
<path d="M114.518 42.5984C114.518 42.2018 114.556 41.8808 114.612 41.5787C114.669 41.2765 114.763 41.0499 114.876 40.8611C114.989 40.6723 115.14 40.5212 115.348 40.4079C115.537 40.2946 115.744 40.2191 115.989 40.1624C116.235 40.1058 116.499 40.0869 116.819 40.0869C117.14 40.0869 117.404 40.1058 117.65 40.1624C117.895 40.2191 118.102 40.2946 118.291 40.4079C118.48 40.5212 118.631 40.6723 118.763 40.8611C118.876 41.0499 118.97 41.2954 119.027 41.5787C119.083 41.8619 119.121 42.2018 119.121 42.5984C119.121 43.0893 119.083 43.5048 118.989 43.8447C118.895 44.1846 118.744 44.4301 118.555 44.6378C118.348 44.8266 118.121 44.9588 117.838 45.0532C117.555 45.1287 117.235 45.1665 116.819 45.1665C116.499 45.1665 116.235 45.1476 115.989 45.091C115.744 45.0343 115.537 44.9588 115.348 44.8455C115.159 44.7322 115.008 44.5811 114.895 44.3734C114.782 44.1846 114.688 43.9391 114.631 43.637C114.574 43.3348 114.537 42.9949 114.537 42.5984H114.518ZM115.518 41.9752C115.518 42.1452 115.499 42.3529 115.499 42.5984C115.499 42.8439 115.499 43.0516 115.518 43.2215C115.518 43.3915 115.555 43.5425 115.612 43.6747C115.65 43.8069 115.706 43.9013 115.763 43.9957C115.82 44.0713 115.914 44.1279 116.008 44.1846C116.103 44.2412 116.235 44.2601 116.348 44.279C116.461 44.2979 116.631 44.2979 116.819 44.2979C117.008 44.2979 117.159 44.2979 117.291 44.279C117.423 44.2601 117.536 44.2223 117.631 44.1846C117.725 44.1468 117.819 44.0713 117.876 43.9957C117.933 43.9202 117.989 43.8069 118.027 43.6747C118.065 43.5425 118.102 43.3915 118.121 43.2215C118.121 43.0516 118.14 42.8439 118.14 42.5984C118.14 42.3529 118.14 42.1452 118.121 41.9752C118.102 41.8053 118.084 41.6542 118.027 41.522C117.97 41.3898 117.933 41.2954 117.876 41.2199C117.819 41.1443 117.725 41.0877 117.631 41.0499C117.536 41.0122 117.404 40.9744 117.291 40.9555C117.178 40.9366 117.008 40.9366 116.819 40.9366C116.631 40.9366 116.48 40.9366 116.348 40.9555C116.216 40.9744 116.103 40.9933 116.008 41.0499C115.914 41.1066 115.82 41.1632 115.763 41.2199C115.706 41.2954 115.65 41.3898 115.612 41.522C115.574 41.6542 115.537 41.8053 115.518 41.9752Z" fill="#131411"/>
<path d="M120.064 45.0525V40.2373H121.328C121.781 41.1814 122.234 42.22 122.687 43.3152C123.064 42.3333 123.498 41.2947 124.026 40.2373H125.196V45.0525H124.309V41.4647C123.913 42.3333 123.479 43.3719 122.97 44.6182H122.253C121.649 43.0698 121.215 42.0123 120.97 41.4647V45.0525H120.083H120.064Z" fill="#131411"/>
<path d="M126.234 44.5428C126.234 44.3351 126.271 44.2029 126.347 44.1462C126.422 44.0896 126.554 44.0518 126.762 44.0518C126.988 44.0518 127.12 44.0896 127.196 44.1462C127.271 44.2029 127.309 44.3351 127.309 44.5428C127.309 44.7694 127.271 44.9204 127.196 44.9771C127.12 45.0337 126.969 45.0715 126.762 45.0715C126.554 45.0715 126.422 45.0337 126.347 44.9582C126.271 44.8827 126.234 44.7505 126.234 44.5239V44.5428Z" fill="#131411"/>
<path d="M128.365 45.0525V40.2373H130.856C131.743 40.2373 132.176 40.7849 132.176 41.8801C132.176 42.0878 132.158 42.2955 132.101 42.4655C132.044 42.6354 131.969 42.8054 131.875 42.9565C131.78 43.1075 131.629 43.2208 131.46 43.2964C131.29 43.3908 131.101 43.4286 130.875 43.4286H129.271V45.0336H128.365V45.0525ZM129.271 42.711H130.611C130.799 42.711 130.95 42.6354 131.044 42.5033C131.139 42.3711 131.195 42.1634 131.195 41.8801C131.195 41.2947 131.007 41.0115 130.629 41.0115H129.271V42.711Z" fill="#131411"/>
<path d="M132.667 42.6354C132.667 42.3333 132.704 42.0689 132.761 41.8612C132.818 41.6535 132.931 41.4836 133.082 41.3325C133.233 41.1814 133.44 41.0681 133.704 40.9926C133.968 40.9171 134.289 40.8793 134.685 40.8415V40.2373H135.591V40.8415C135.987 40.8604 136.327 40.9171 136.591 40.9926C136.855 41.0681 137.063 41.1814 137.213 41.3325C137.364 41.4836 137.478 41.6535 137.553 41.8612C137.61 42.0689 137.647 42.3333 137.647 42.6354C137.647 42.9376 137.61 43.2019 137.553 43.4097C137.496 43.6174 137.383 43.8062 137.213 43.9573C137.063 44.1084 136.855 44.2217 136.591 44.2972C136.327 44.3727 135.987 44.4294 135.591 44.4483V45.0714H134.685V44.4483C134.289 44.4294 133.968 44.3727 133.704 44.2972C133.44 44.2217 133.233 44.1084 133.082 43.9573C132.931 43.8062 132.818 43.6174 132.761 43.4097C132.704 43.2019 132.667 42.9376 132.667 42.6354ZM133.572 42.6354C133.572 42.7865 133.572 42.9187 133.591 43.032C133.591 43.1264 133.629 43.2208 133.685 43.3152C133.742 43.4097 133.799 43.4663 133.874 43.523C133.95 43.5796 134.063 43.6174 134.195 43.6363C134.327 43.6551 134.478 43.6929 134.667 43.6929V41.5969C134.421 41.5969 134.233 41.6346 134.101 41.6724C133.968 41.7102 133.855 41.7668 133.78 41.8612C133.704 41.9556 133.648 42.0501 133.629 42.1634C133.61 42.2767 133.591 42.4466 133.591 42.6354H133.572ZM135.572 43.6929C135.78 43.6929 135.931 43.674 136.063 43.6363C136.195 43.5985 136.308 43.5607 136.383 43.523C136.478 43.4663 136.534 43.4097 136.572 43.3152C136.61 43.2208 136.648 43.1264 136.666 43.032C136.666 42.9376 136.685 42.8054 136.685 42.6354C136.685 42.4277 136.685 42.2767 136.647 42.1445C136.61 42.0123 136.572 41.9179 136.497 41.8235C136.421 41.729 136.308 41.6724 136.157 41.6346C136.006 41.5969 135.817 41.578 135.553 41.578V43.6929H135.572Z" fill="#131411"/>
<path d="M138.119 44.3353L139.346 42.919L138.119 41.465L138.61 40.9551L140.497 42.8812L138.629 44.8073L138.138 44.2975L138.119 44.3353ZM140.006 44.3353L141.232 42.919L140.006 41.465L140.497 40.9551L142.383 42.8812L140.515 44.8073L140.025 44.2975L140.006 44.3353Z" fill="#131411"/>
<path d="M59.1825 0.110352H56.8242V40.1809H59.1825V0.110352Z" fill="#131411"/>
<path d="M14.4317 35.4599H2.65907V30.739H14.4317V35.4599ZM0.300781 28.3975V40.1807H2.65907V37.8203H16.79V28.3975H0.300781Z" fill="#131411"/>
<path d="M37.9774 35.4601H30.9214V30.7393H37.9774V35.4601ZM21.4882 30.7393H28.5442V35.4601H21.4882V30.7393ZM19.1299 28.3789V37.8017H28.5442V40.1621H30.9025V37.8017H40.3168V28.3789H19.1299Z" fill="#131411"/>
<path d="M40.3351 23.6768H0.300781V26.0372H40.3351V23.6768Z" fill="#131411"/>
<path d="M36.8069 0.110352L33.2789 3.66043V0.110352H29.732L23.8457 6.00197V21.3164H26.204V7.19163L30.9206 2.47078V21.3164H33.2789V7.19163L37.9766 2.47078V21.3164H40.3349V0.110352H36.8069Z" fill="#131411"/>
<path d="M7.37564 2.47078V18.9748H2.65907V7.19163L7.37564 2.47078ZM0.300781 21.3164H9.71507V0.110352H6.18707L0.300781 6.00197V21.3164Z" fill="#131411"/>
<path d="M14.4322 2.47078H19.1488V18.9748H14.4322V2.47078ZM21.5071 0.110352H12.0928V21.3164H21.5071V0.110352Z" fill="#131411"/>
<path d="M79.5202 7.13477V8.41885C82.9539 8.5888 83.916 9.7218 83.916 12.2521C83.916 14.7825 82.9539 15.9344 79.5202 16.0855V17.3884H77.5958V16.0855C74.2376 15.9155 73.332 14.7825 73.332 12.2521C73.332 9.7218 74.2376 8.5888 77.5958 8.41885V7.13477H79.5202ZM77.5958 14.4992V10.0239C75.5771 10.0994 75.2753 10.6659 75.2753 12.2521C75.2753 13.8383 75.596 14.4237 77.5958 14.4804V14.4992ZM79.5202 10.005V14.4992C81.6332 14.4426 81.954 13.8383 81.954 12.271C81.954 10.7037 81.6521 10.0805 79.5202 10.0239V10.005Z" fill="#131411"/>
<path d="M94.613 17.3884H92.7075V9.96729C91.3491 12.4598 89.8776 15.0469 88.3683 17.3884H85.8213V7.13477H87.7268V14.8769C89.3116 12.3088 90.8775 9.70292 92.2547 7.13477H94.5941V17.3884H94.613Z" fill="#131411"/>
<path d="M99.1601 17.3884H97.2168V7.13477H99.1601V11.0436H103.537V7.13477H105.443V17.3884H103.537V12.8375H99.1601V17.3884Z" fill="#131411"/>
<path d="M113.914 14.8389H109.423C109.122 15.7453 108.857 16.6139 108.631 17.4071H106.593C107.556 14.3479 109.046 10.2125 110.291 7.15332H113.329C114.366 10.458 115.876 14.669 117.027 17.4071H114.876C114.574 16.6706 114.234 15.7831 113.895 14.8389H113.914ZM111.536 8.79617C111.027 10.1181 110.48 11.6287 109.952 13.1772H113.366C112.838 11.6665 112.329 10.1181 111.933 8.79617H111.536Z" fill="#131411"/>
<path d="M120.007 17.3884H118.064V7.13477H120.007V11.0436H124.384V7.13477H126.29V17.3884H124.384V12.8375H120.007V17.3884Z" fill="#131411"/>
<path d="M133.176 6.88901C134.12 6.88901 135.327 7.05896 136.12 7.26668L135.686 8.96618C135.157 8.77735 134.195 8.64517 133.516 8.64517C131.29 8.64517 130.441 9.02283 130.441 12.1764C130.441 15.3299 131.271 15.8209 133.516 15.8209C134.214 15.8209 135.157 15.6887 135.686 15.4999L136.12 17.2371C135.327 17.4637 134.12 17.5959 133.176 17.5959C129.931 17.5959 128.365 16.3496 128.365 12.1575C128.365 7.96536 129.931 6.87012 133.176 6.87012V6.88901Z" fill="#131411"/>
<path d="M146.364 17.3884H144.458V9.96729C143.1 12.4598 141.628 15.0469 140.119 17.3884H137.572V7.13477H139.477V14.8769C141.062 12.3088 142.628 9.70292 144.005 7.13477H146.345V17.3884H146.364Z" fill="#131411"/>
<path d="M148.968 17.3884V7.13477H154.307C156.476 7.13477 157.155 8.64545 157.155 10.647C157.155 12.4221 156.325 14.0083 154.344 14.0083H150.911V17.3884H148.968ZM153.76 12.3843C154.571 12.3843 155.024 11.7989 155.024 10.6281C155.024 9.3819 154.59 8.77763 153.797 8.77763H150.892V12.3843H153.741H153.76Z" fill="#131411"/>
<path d="M168.079 12.177C168.079 16.4068 166.456 17.6154 163.211 17.6154C159.966 17.6154 158.325 16.4257 158.325 12.177C158.325 7.92823 159.966 6.88965 163.211 6.88965C166.456 6.88965 168.079 8.00377 168.079 12.177ZM166.022 12.2147C166.022 9.11789 165.456 8.6458 163.211 8.6458C160.966 8.6458 160.4 9.09901 160.4 12.2147C160.4 15.3305 160.966 15.8592 163.211 15.8592C165.456 15.8592 166.022 15.2927 166.022 12.2147Z" fill="#131411"/>
<path d="M178.418 14.5937C178.418 16.6142 177.418 17.4073 175.776 17.4073H170.173V7.13477H175.682C177.72 7.13477 178.191 8.09783 178.191 9.58962C178.191 10.9492 177.889 11.7989 176.059 11.95C178.021 12.0444 178.418 13.0452 178.418 14.5748V14.5937ZM172.116 11.2324H175.267C175.908 11.2324 176.154 10.7603 176.154 10.005C176.154 9.17418 175.927 8.79651 175.267 8.79651H172.116V11.2324ZM175.342 15.7644C176.04 15.7644 176.323 15.2546 176.323 14.3293C176.323 13.404 175.984 12.8186 175.286 12.8186H172.116V15.7833H175.342V15.7644Z" fill="#131411"/>
<path d="M186.511 14.8389H182.021C181.719 15.7453 181.455 16.6139 181.229 17.4071H179.191C180.153 14.3479 181.644 10.2125 182.889 7.15332H185.926C186.964 10.458 188.473 14.669 189.624 17.4071H187.473C187.172 16.6706 186.832 15.7831 186.492 14.8389H186.511ZM184.134 8.79617C183.625 10.1181 183.078 11.6287 182.549 13.1772H185.964C185.436 11.6665 184.926 10.1181 184.53 8.79617H184.134Z" fill="#131411"/>
<path d="M192.605 17.3884H190.662V7.13477H192.605V11.0436H196.982V7.13477H198.888V17.3884H196.982V12.8375H192.605V17.3884Z" fill="#131411"/>
<path d="M210.264 17.3884H208.358V9.96729C207 12.4598 205.528 15.0469 204.019 17.3884H201.472V7.13477H203.378V14.8769C204.962 12.3088 206.528 9.70292 207.906 7.13477H210.245V17.3884H210.264Z" fill="#131411"/>
<path d="M220.301 7.13477V8.8154H214.811V11.1758H218.735V12.8375H214.811V15.7078H220.301V17.3884H212.867V7.13477H220.301Z" fill="#131411"/>
<path d="M78.3881 22.1097C79.3314 22.1097 80.5388 22.2796 81.3312 22.4873L80.8972 24.1868C80.3689 23.998 79.4069 23.8658 78.7277 23.8658C76.5014 23.8658 75.6525 24.2435 75.6525 27.397C75.6525 30.5505 76.4826 31.0415 78.7277 31.0415C79.4257 31.0415 80.3689 30.9093 80.8972 30.7205L81.3312 32.4578C80.5388 32.6844 79.3314 32.8165 78.3881 32.8165C75.1431 32.8165 73.5771 31.5702 73.5771 27.3781C73.5771 23.186 75.1431 22.0908 78.3881 22.0908V22.1097Z" fill="#131411"/>
<path d="M85.0102 32.6277V24.0546H81.5576V22.374H90.4248V24.0546H86.9723V32.6277H85.0102Z" fill="#131411"/>
<path d="M91.7451 32.6277V22.374H97.0843C99.2539 22.374 99.9331 23.8846 99.9331 25.8863C99.9331 27.6613 99.103 29.2475 97.122 29.2475H93.6884V32.6277H91.7451ZM96.5372 27.6236C97.3484 27.6236 97.8012 27.0382 97.8012 25.8674C97.8012 24.6211 97.3673 24.0168 96.5749 24.0168H93.6695V27.6236H96.5183H96.5372Z" fill="#131411"/>
<path d="M110.876 27.3968C110.876 31.6267 109.254 32.8352 106.009 32.8352C102.764 32.8352 101.122 31.6455 101.122 27.3968C101.122 23.148 102.764 22.1094 106.009 22.1094C109.254 22.1094 110.876 23.2235 110.876 27.3968ZM108.82 27.4345C108.82 24.3377 108.254 23.8656 106.009 23.8656C103.764 23.8656 103.198 24.3188 103.198 27.4345C103.198 30.5503 103.764 31.079 106.009 31.079C108.254 31.079 108.82 30.5125 108.82 27.4345Z" fill="#131411"/>
<path d="M121.743 32.6277H119.838V25.2065C118.479 27.6991 117.008 30.2861 115.498 32.6277H112.951V22.374H114.857V30.1162C116.442 27.548 118.008 24.9421 119.385 22.374H121.724V32.6277H121.743Z" fill="#131411"/>
<path d="M126.554 32.6277V24.0546H123.102V22.374H131.969V24.0546H128.516V32.6277H126.554Z" fill="#131411"/>
<path d="M140.742 22.3545V24.0352H135.252V26.3956H139.176V28.0573H135.252V30.9276H140.742V32.6082H133.308V22.3545H140.742Z" fill="#131411"/>
<path d="M145.42 24.0352C145.213 26.6788 144.59 29.7946 143.609 32.6082H141.572C142.571 29.568 143.477 26.0934 143.647 22.3545H150.533V32.6082H148.628V24.0352H145.439H145.42Z" fill="#131411"/>
<path d="M155.042 22.3545V25.999H158.608C160.627 25.999 161.362 27.4531 161.362 29.3036C161.362 31.3808 160.532 32.6082 158.702 32.6082H153.099V22.3545H155.042ZM158.155 30.9843C158.929 30.9843 159.249 30.4177 159.249 29.3225C159.249 28.2273 158.853 27.623 158.098 27.623H155.023V30.9843H158.136H158.155Z" fill="#131411"/>
<path d="M167.494 22.1097C168.437 22.1097 169.645 22.2796 170.437 22.4873L170.003 24.1868C169.475 23.998 168.513 23.8658 167.833 23.8658C165.607 23.8658 164.758 24.2435 164.758 27.397C164.758 30.5505 165.588 31.0415 167.833 31.0415C168.531 31.0415 169.475 30.9093 170.003 30.7205L170.437 32.4578C169.645 32.6844 168.437 32.8165 167.494 32.8165C164.249 32.8165 162.683 31.5702 162.683 27.3781C162.683 23.186 164.249 22.0908 167.494 22.0908V22.1097Z" fill="#131411"/>
<path d="M174.116 32.6277V24.0546H170.664V22.374H179.531V24.0546H176.078V32.6277H174.116Z" fill="#131411"/>
<path d="M189.115 29.814C189.115 31.8346 188.115 32.6277 186.473 32.6277H180.87V22.374H186.379C188.417 22.374 188.888 23.337 188.888 24.8288C188.888 26.1884 188.586 27.0382 186.756 27.1892C188.718 27.2837 189.115 28.2845 189.115 29.814ZM182.813 26.4528H185.964C186.605 26.4528 186.851 25.9807 186.851 25.2254C186.851 24.3945 186.624 24.0168 185.964 24.0168H182.813V26.4528ZM186.039 30.9848C186.738 30.9848 187.021 30.475 187.021 29.5497C187.021 28.6244 186.681 28.039 185.983 28.039H182.813V31.0037H186.039V30.9848Z" fill="#131411"/>
<path d="M197.209 30.0595H192.718C192.416 30.9659 192.152 31.8346 191.926 32.6277H189.888C190.851 29.5686 192.341 25.4331 193.586 22.374H196.624C197.661 25.6786 199.171 29.8896 200.321 32.6277H198.171C197.869 31.8912 197.529 31.0037 197.19 30.0595H197.209ZM194.831 24.0168C194.322 25.3387 193.775 26.8493 193.247 28.3978H196.661C196.133 26.8871 195.624 25.3387 195.228 24.0168H194.831Z" fill="#131411"/>
</g>
</g>
</g>
</g>
</g>
<defs>
<clipPath id="clip0_291_30">
<rect width="221" height="47" fill="white"/>
</clipPath>
</defs>
</svg>
