<svg width="75" height="70" viewBox="0 0 75 70" fill="none" xmlns="http://www.w3.org/2000/svg">
<mask id="mask0_547_205" style="mask-type:luminance" maskUnits="userSpaceOnUse" x="0" y="0" width="75" height="70">
<path d="M74.1852 0.412109H0.185547V69.1882H74.1852V0.412109Z" fill="white"/>
</mask>
<g mask="url(#mask0_547_205)">
<path d="M7.84469 16.3675C7.79568 17.0816 7.58646 17.7754 7.23266 18.3969C7.02651 18.8413 6.72823 19.2364 6.35776 19.5558C5.98729 19.8752 5.55317 20.1116 5.08442 20.249C4.61567 20.3865 4.12308 20.4219 3.63959 20.353C3.1561 20.284 2.69285 20.1122 2.2808 19.8491C1.81596 19.6249 1.40279 19.3059 1.06768 18.9124C0.732561 18.5189 0.482857 18.0596 0.334513 17.5638C0.186168 17.068 0.142442 16.5465 0.206126 16.0328C0.269809 15.5191 0.439503 15.0243 0.704373 14.5801C0.995194 14.0183 1.407 13.5286 1.90988 13.1465L2.65173 13.8912C2.21515 14.1936 1.86378 14.604 1.63168 15.0828C1.45782 15.3926 1.35143 15.736 1.31954 16.0901C1.28764 16.4443 1.33098 16.8012 1.44667 17.1373C1.56236 17.4734 1.74778 17.7811 1.99068 18.0399C2.23358 18.2988 2.52842 18.5029 2.85574 18.6389C3.14611 18.8314 3.47376 18.9601 3.81718 19.0164C4.16059 19.0728 4.512 19.0555 4.84831 18.9658C5.18462 18.8762 5.49823 18.7161 5.76852 18.4961C6.03882 18.2761 6.25969 18.0011 6.41662 17.6894C6.68698 17.1976 6.83939 16.6494 6.86173 16.0882L7.84469 16.3675Z" fill="#97C0E7"/>
<path d="M65.2087 53.4928L67.9165 54.9264L68.4914 53.828C68.0852 53.6252 67.7262 53.3388 67.4377 52.9874C67.1492 52.636 66.9377 52.2275 66.8171 51.7885C66.6965 51.3495 66.6694 50.8899 66.7377 50.4397C66.8059 49.9895 66.9679 49.5588 67.2132 49.1757C67.4584 48.7926 67.7813 48.4657 68.1609 48.2164C68.5404 47.967 68.9681 47.8008 69.416 47.7285C69.8638 47.6563 70.3219 47.6796 70.7601 47.7971C71.1984 47.9145 71.6071 48.1233 71.9595 48.41C72.4 48.5837 72.8002 48.8464 73.1353 49.182C73.4703 49.5175 73.7329 49.9187 73.9069 50.3605C74.0808 50.8023 74.1624 51.2754 74.1464 51.7502C74.1305 52.225 74.0174 52.6914 73.8142 53.1205C73.6025 53.4948 73.3191 53.8234 72.9802 54.0871C72.6414 54.3509 72.2538 54.5446 71.8399 54.6571C71.4261 54.7697 70.9941 54.7988 70.569 54.7427C70.1438 54.6867 69.734 54.5466 69.3631 54.3307L68.7881 55.3919L71.6072 56.9L71.0137 58.0543L64.6152 54.6285L65.2087 53.4928ZM71.3661 49.583C70.1606 48.95 68.6212 48.8196 68.0277 49.9553C67.4343 51.0911 68.3245 52.3385 69.6227 53.0274C70.9209 53.7162 72.3676 53.7721 72.961 52.6364C73.5545 51.5007 72.5159 50.2346 71.3661 49.583Z" fill="#97C0E7"/>
<path d="M18.0988 66.2837L18.3955 65.7251C18.9148 64.7384 18.8221 63.8633 18.2286 63.5282C17.6351 63.193 17.0231 63.5282 16.6336 64.2729C16.3405 64.847 16.2121 65.4916 16.2627 66.1347H15.391C15.3468 65.2797 15.5394 64.429 15.9474 63.6771C16.4667 62.6903 17.5424 61.8153 18.785 62.4111C19.1323 62.6479 19.3893 62.996 19.5139 63.3984C19.6386 63.8009 19.6235 64.2339 19.4712 64.6266C19.5744 64.3983 19.7226 64.1932 19.9067 64.0238C20.0908 63.8543 20.3072 63.7239 20.5427 63.6405C20.7783 63.557 21.0282 63.5222 21.2775 63.5381C21.5268 63.554 21.7703 63.6203 21.9935 63.733C23.3845 64.4777 23.1434 66.172 22.4386 67.4566C22.0649 68.209 21.5024 68.8506 20.8065 69.3185L20.1945 68.611C20.7528 68.2378 21.2113 67.7327 21.5298 67.1401C22.0491 66.172 21.9008 65.2783 21.2702 64.9804C20.6396 64.6825 19.6938 65.2969 19.1745 66.2464L18.8777 66.8422L18.0988 66.2837Z" fill="#97C0E7"/>
<path d="M47.3125 4.71243C47.5706 3.98357 47.8805 3.27425 48.2398 2.58994C48.8147 1.5287 49.9275 -0.16557 51.3556 0.597782C51.7169 0.799147 51.9931 1.12529 52.1329 1.51564C52.2728 1.906 52.2667 2.33404 52.116 2.72027C52.3446 2.29788 52.727 1.9806 53.1833 1.83485C53.6396 1.6891 54.1344 1.72617 54.5641 1.9383C56.2518 2.8506 55.3245 5.0848 54.6568 6.33223C54.2859 7.05834 53.8222 7.76584 53.6182 8.10097L47.3125 4.71243ZM50.5025 4.99171L50.9661 4.13526C51.4298 3.27882 51.6523 2.27343 50.9661 1.84521C50.2799 1.41699 49.7421 1.84521 49.1115 3.07402C48.9075 3.465 48.8147 3.70704 48.6849 4.00494L50.5025 4.99171ZM53.4328 6.59289C53.6438 6.30524 53.8299 6.00003 53.9892 5.68059C54.4157 4.89862 54.8423 3.63257 53.9892 3.12988C53.136 2.62718 52.3756 3.465 51.7822 4.58211L51.337 5.41993L53.4328 6.59289Z" fill="#97C0E7"/>
<path d="M10.6465 21.5254L30.4539 32.1192" stroke="#97C0E7" stroke-width="0.365645" stroke-miterlimit="10"/>
<path d="M39.9844 37.2383L59.7918 47.8321" stroke="#97C0E7" stroke-width="0.365645" stroke-miterlimit="10"/>
<path d="M48.3114 10.0176L22.1055 59.3375" stroke="#97C0E7" stroke-width="0.365645" stroke-miterlimit="10"/>
<path d="M37.6898 26.9638L30.2146 41.0239C30.0989 41.2416 30.1809 41.5123 30.3977 41.6285L32.1484 42.5665C32.3653 42.6827 32.6349 42.6004 32.7507 42.3827L40.2259 28.3227C40.3416 28.1049 40.2596 27.8343 40.0428 27.7181L38.2921 26.78C38.0752 26.6638 37.8055 26.7461 37.6898 26.9638Z" fill="#97C0E7"/>
</g>
</svg>
