<svg width="256" height="43" viewBox="0 0 256 43" fill="none" xmlns="http://www.w3.org/2000/svg">
<path d="M68.7703 23.6506C67.3128 22.0501 65.4619 21.0575 62.7526 20.4406C62.6095 20.4048 62.3591 20.3511 62.1356 20.2975C62.3502 20.2349 62.6184 20.1544 62.8777 20.065C63.6288 19.8057 64.8717 19.3765 65.7391 18.6343C66.8657 17.7938 67.4827 16.3453 67.3754 14.7626C67.2592 13.0726 66.3829 11.6062 65.0237 10.8372C64.0759 10.3096 62.6542 9.6658 61.304 9.64791C60.7407 9.64791 60.0879 9.63003 59.3816 9.62109H52.6753C51.6291 9.62109 50.6545 9.62109 49.8318 9.63897C48.3296 9.63897 47.3461 9.63897 47.3461 9.63897H46.8096L47.3014 9.87145C48.2671 10.3186 48.7588 11.2128 48.7588 12.5272C48.8036 19.6626 48.8036 27.4419 48.8036 33.4328C48.8036 34.7562 48.8036 36.2405 47.203 37.0989L46.7827 37.3224H47.2566C47.2566 37.3224 49.3401 37.3403 51.8884 37.3403C54.6425 37.3403 58.0045 37.3224 60.0879 37.2509C61.9031 37.1883 63.7719 36.8575 65.5155 36.2941C67.9566 35.5073 69.8165 33.4954 70.496 30.9202C71.1935 28.3003 70.5408 25.582 68.7614 23.6417M51.7632 19.0814C51.7811 18.223 51.7811 17.3378 51.7632 16.4883V14.4228C51.7632 13.627 51.7632 12.7239 51.7632 11.9013V11.2396C51.7632 10.7746 51.8527 10.5421 52.3534 10.5421H59.462C61.8942 10.5421 63.9597 12.3752 64.1653 14.7089V14.7537C64.3352 16.8371 63.6378 18.4734 62.2518 19.2066C61.4203 19.6537 59.8197 19.8236 58.9524 19.8236H52.3445C51.8527 19.8236 51.7632 19.609 51.7543 19.1798V19.0725L51.7632 19.0814ZM67.5006 29.874C67.2234 32.5297 66.5885 34.3001 64.1028 35.5162C64.058 35.543 63.9686 35.5877 63.9597 35.5967C62.8599 36.0348 59.7839 36.3925 58.9613 36.3925H52.264C51.8705 36.3657 51.7543 36.1958 51.7632 35.6503V35.0423C51.7811 33.5401 51.7811 32.02 51.7632 30.5446V27.111C51.7632 25.4568 51.7632 23.749 51.7632 22.0948V21.4063C51.7632 21.1291 51.808 20.9592 51.8974 20.8698C51.9868 20.7803 52.1299 20.7446 52.3445 20.7446H58.8629C60.2847 20.7446 62.2518 21.1917 63.8971 21.907C66.213 22.8995 67.5632 25.4032 67.5632 28.5954C67.5632 29.0067 67.5364 29.4359 67.4916 29.8651" fill="#0E100C"/>
<path d="M23.7044 37.0904L22.5956 37.3318H30.2676L29.6506 37.0993C28.5239 36.6612 27.9964 35.6776 27.594 34.7834C24.7237 28.3544 18.0175 13.2698 17.5972 12.3488C17.1769 11.4367 16.7656 10.5426 16.408 9.71998L16.3722 9.64844H12.0087L11.9908 9.88987C13.0459 10.0508 13.8775 10.9986 13.8775 12.0448V12.1699C13.8775 12.2504 13.8775 12.3488 13.8775 12.4293C13.8417 12.7422 13.7881 12.9032 13.6629 13.1804C12.9833 14.7094 12.3037 16.2473 11.6242 17.7764C10.3008 20.7629 8.93273 23.8567 7.57359 26.879L7.09969 27.9341C6.57213 29.1055 6.04457 30.2679 5.50807 31.4303C5.33818 31.8059 5.16829 32.2172 4.99839 32.6017L4.84639 32.9772C4.71226 33.3081 4.56919 33.6478 4.3993 33.9697L4.38142 34.0055C3.78233 35.2573 2.90604 36.5896 0.938875 37.0814L0 37.3229H7.2964L7.31429 37.0814C6.24129 36.9563 5.54384 36.6254 5.23088 36.08C4.96263 35.6239 4.98051 35.0159 5.28453 34.2827L7.26064 29.8566C7.31429 29.7224 7.37688 29.5883 7.43947 29.4542C7.48418 29.3737 7.511 29.2932 7.54677 29.2217C7.60936 29.1055 7.66301 29.0071 7.71666 28.8909L7.73454 28.8462C7.82396 28.6405 8.20845 28.4438 8.46776 28.417C8.60189 28.3991 8.76284 28.3901 8.9059 28.3812C8.95955 28.3812 9.03109 28.3812 9.08474 28.3812H19.2604C19.5554 28.3812 19.8505 28.3812 20.1456 28.3812H20.3155C20.3691 28.3812 20.4317 28.3812 20.4764 28.3812H20.4943C20.6463 28.3812 20.7894 28.3991 20.9324 28.417C21.1918 28.4438 21.5763 28.6405 21.6657 28.8462L21.7372 28.9982C21.8624 29.2754 21.9965 29.5615 22.1038 29.8476C22.7834 31.3409 23.4898 32.9772 24.3392 35.0159C24.5002 35.4183 24.679 35.9369 24.5628 36.2767C24.4555 36.5896 24.0889 36.9831 23.7133 37.0636M20.8788 27.3797C20.8341 27.4334 20.7626 27.4781 20.691 27.4781H8.66448C8.59294 27.4781 8.53035 27.4423 8.48564 27.3797C8.44094 27.3171 8.44094 27.2456 8.46776 27.1741L14.5034 13.69C14.5481 13.6096 14.6196 13.5648 14.709 13.5648C14.7985 13.5648 14.87 13.6096 14.9058 13.69L16.5868 17.4813C17.9191 20.4857 19.6359 24.3485 20.8967 27.1919C20.9235 27.2545 20.9235 27.3261 20.8788 27.3976" fill="#0E100C"/>
<path d="M236.033 33.7991C236.06 27.6293 236.033 13.0544 236.007 12.6341C235.971 11.7936 235.863 10.8637 235.023 10.2288C234.853 10.0947 234.647 9.97845 234.406 9.87115L233.878 9.63867H240.871L240.415 9.87115C240.218 9.96951 240.039 10.0857 239.887 10.2199C238.93 10.9889 238.922 12.1513 238.922 13.1796C238.895 19.4119 238.904 31.6799 238.904 32.1985V32.6635C238.904 33.2447 238.93 34.0226 238.939 34.3445C238.984 35.2118 239.091 36.1149 239.923 36.7498C240.102 36.875 240.307 37.0002 240.54 37.0985L241.068 37.331H234.075L234.522 37.1075C234.728 37.0002 234.907 36.8839 235.059 36.7587C236.015 35.9898 236.015 34.8273 236.024 33.7991" fill="#0E100C"/>
<path d="M256 24.6253C256 25.4122 255.365 26.056 254.578 26.056C253.792 26.056 253.157 25.4122 253.157 24.6253C253.157 23.8384 253.792 23.2036 254.578 23.2036C255.365 23.2036 256 23.8474 256 24.6253Z" fill="#0E100C"/>
<path d="M256 35.9008C256 36.6876 255.365 37.3225 254.578 37.3225C253.792 37.3225 253.157 36.6876 253.157 35.9008C253.157 35.1139 253.792 34.479 254.578 34.479C255.365 34.479 256 35.1139 256 35.9008Z" fill="#0E100C"/>
<path d="M19.627 0L16.3543 7.45735H15.3081L18.5718 0H19.627Z" fill="#0E100C"/>
<path d="M136.977 37.2863C136.262 37.2505 135.556 37.1701 134.858 37.027C133.141 36.6872 131.541 36.0434 130.074 35.0867C128.599 34.1299 127.365 32.9317 126.408 31.4563C125.228 29.6233 124.611 27.5846 124.37 25.4386C124.316 24.9826 124.298 24.5265 124.262 24.0705C124.262 23.9722 124.235 23.8738 124.218 23.7844V22.8008C124.235 22.6756 124.253 22.5504 124.262 22.4252C124.298 21.7099 124.387 20.9946 124.522 20.2882C124.888 18.4283 125.612 16.7294 126.676 15.1736C127.597 13.8234 128.742 12.6878 130.119 11.8115C132.015 10.6044 134.116 9.9248 136.342 9.71915C136.664 9.69232 137.854 9.63867 138.122 9.63867C138.506 9.63867 139.213 9.68338 139.588 9.7102C140.42 9.79068 140.858 9.85327 141.645 10.0321C143.684 10.4881 145.526 11.3555 147.144 12.6788C148.727 13.9754 149.934 15.5491 150.739 17.4269C151.427 19.0364 151.74 20.7263 151.856 22.4521C151.883 22.8276 151.883 23.1942 151.883 23.5698C151.901 24.4729 151.838 25.376 151.686 26.2612C151.409 27.9065 150.864 29.4445 150.032 30.8841C149.326 32.1091 148.458 33.2 147.385 34.1299C146.08 35.2655 144.587 36.0613 142.941 36.571C142.146 36.8213 141.377 37.0449 140.545 37.1522C140.053 37.2148 139.275 37.34 136.986 37.2863M148.7 23.7128C148.682 23.0154 148.655 22.309 148.584 21.6116C148.503 20.7442 148.36 19.8769 148.163 19.0274C147.832 17.6236 147.314 16.2913 146.563 15.0573C145.919 13.9843 145.114 13.0633 144.095 12.3301C142.593 11.2571 140.921 10.6938 139.088 10.5686C138.363 10.5239 137.63 10.5239 136.897 10.5865C136.056 10.658 135.234 10.8279 134.438 11.1051C132.945 11.6327 131.657 12.4642 130.602 13.6535C129.922 14.4135 129.395 15.2719 128.948 16.184C128.268 17.5699 127.866 19.0453 127.642 20.5743C127.526 21.3522 127.463 22.1302 127.437 22.9081C127.383 24.2493 127.463 25.5906 127.714 26.914C127.991 28.443 128.492 29.8915 129.216 31.2686C129.681 32.1448 130.235 32.9585 130.933 33.656C132.685 35.3996 134.822 36.2401 137.263 36.3653C137.63 36.3832 137.997 36.3653 138.354 36.3743C139.096 36.3743 139.839 36.3027 140.563 36.1507C141.913 35.8556 143.147 35.3013 144.256 34.4697C145.141 33.7991 145.865 32.9764 146.464 32.0465C147.68 30.1598 148.342 28.0764 148.601 25.8588C148.682 25.1435 148.718 24.4282 148.7 23.7128Z" fill="#0E100C"/>
<path d="M189.501 12.2677C188.115 10.8818 186.291 9.99648 184.225 9.71929C183.823 9.67458 183.456 9.63882 183.116 9.62988C183.027 9.62988 182.732 9.62988 182.106 9.62988H175.453C174.175 9.62988 173.012 9.62988 171.975 9.62988H168.577L169.078 9.86236C169.945 10.2648 170.437 11.0964 170.544 12.3214C170.598 13.0188 170.598 13.7431 170.607 14.4316V19.4121C170.607 24.1423 170.607 29.0333 170.607 33.5399V33.6383C170.607 34.9885 170.589 36.2761 169.078 37.1077L168.658 37.3312H175.659L175.149 37.0987C173.799 36.4818 173.594 35.4624 173.567 34.5504C173.531 32.7531 173.513 30.6876 173.495 28.6936C173.477 27.3702 173.468 26.0826 173.45 24.9023V24.8755C173.486 24.5536 173.585 24.3747 174.032 24.3747H174.756C177.036 24.3926 179.388 24.4194 181.686 24.2853C181.793 24.2853 181.909 24.2853 182.008 24.2674C182.034 24.2674 182.052 24.2674 182.079 24.2674H182.142C183.859 24.1512 185.486 23.8204 186.836 23.3196C189.045 22.488 190.538 20.7623 191.03 18.4464C191.146 17.9189 191.2 17.3913 191.2 16.8548C191.2 15.0843 190.583 13.3675 189.501 12.2767M173.433 11.9101V11.2126C173.433 10.7655 173.531 10.5509 174.023 10.5509H182.723C183.707 10.5509 184.619 10.7745 185.343 11.2126C187.346 12.384 188.061 14.4405 188.061 16.5061C188.061 17.4271 187.927 18.3391 187.695 19.1796C187.391 20.2616 186.89 21.1647 186.21 21.8621C185.316 22.801 183.099 23.3554 180.282 23.3554H174.041C173.549 23.3554 173.45 23.1318 173.442 22.6848V21.6833C173.442 21.4776 173.442 21.263 173.442 21.0574C173.459 20.0291 173.442 18.974 173.442 17.9367V14.3958C173.442 13.5643 173.442 12.7327 173.442 11.9011" fill="#0E100C"/>
<path d="M227.583 28.5235C227.333 27.361 226.832 26.3506 226.126 25.528C225.419 24.6964 224.489 24.0616 223.39 23.6503C222.039 23.1406 220.412 22.8097 218.686 22.7024C218.668 22.7024 218.651 22.7024 218.642 22.7024H218.57C218.463 22.7024 218.355 22.6846 218.248 22.6846C215.95 22.5594 213.598 22.5773 211.327 22.6041H210.63C210.138 22.6041 210.031 22.4252 210.004 22.1033V22.0676C210.022 20.8783 210.04 19.5907 210.049 18.2763C210.075 16.2823 210.093 14.2168 210.12 12.4195C210.147 11.5075 210.344 10.4971 211.712 9.87115L212.213 9.63867H205.22L205.631 9.86221C207.143 10.6938 207.152 11.9724 207.16 13.3316V13.4299C207.178 17.9365 207.178 22.8276 207.16 27.5578V32.5383C207.16 33.2357 207.16 33.9511 207.098 34.6485C207 35.8735 206.499 36.7051 205.631 37.1075L205.14 37.34H208.43C209.476 37.34 210.737 37.34 212.016 37.34H218.668C219.285 37.34 219.598 37.34 219.661 37.34C220.028 37.34 220.385 37.2952 220.788 37.2505C222.862 36.9733 224.677 36.0881 226.063 34.7022C227.476 33.2894 228.084 30.8215 227.592 28.5413M219.276 36.4011H210.576C210.084 36.4011 209.995 36.1865 209.986 35.7394V35.0419C209.986 34.2014 209.986 33.3788 209.986 32.5472V29.0063C209.986 27.9691 209.986 26.9229 209.986 25.8857C209.986 25.68 209.986 25.4654 209.986 25.2598V24.2583C209.986 23.8112 210.093 23.5877 210.585 23.5877H216.826C219.643 23.5877 221.87 24.142 222.764 25.0809C223.434 25.7784 223.935 26.6815 224.239 27.7634C224.472 28.6129 224.615 29.5249 224.615 30.437C224.615 32.5025 223.899 34.5591 221.896 35.7305C221.163 36.1686 220.251 36.3921 219.267 36.3921" fill="#0E100C"/>
<path d="M171.743 9.88024V9.63882H171.868L175.453 9.62988V9.8713C174.175 9.8713 172.914 9.8713 171.868 9.88024H171.743Z" fill="#0E100C"/>
<path d="M109.258 10.3368V10.3904C109.258 10.4351 109.258 10.4888 109.258 10.5424C109.24 12.5006 109.231 13.8955 109.231 13.8955V14.2264L109.026 13.976C108.516 13.3769 108.141 12.9298 107.515 12.4917C104.939 10.7302 103.482 10.5692 99.6818 10.5335C99.1185 10.5335 99.0648 11.365 99.0648 11.7227V12.3397C99.0648 15.514 99.0648 18.6883 99.0648 21.8715C99.0648 25.8327 99.0648 29.8117 99.0827 33.7818C99.0827 35.0426 99.1006 36.357 100.621 37.0902L101.086 37.3227H94.2542L94.7192 37.0902C96.2393 36.3481 96.2482 35.0426 96.2571 33.7818C96.275 29.8117 96.275 25.8327 96.275 21.8715C96.275 18.6883 96.275 15.514 96.275 12.3397V11.7227C96.275 11.365 96.2214 10.5335 95.6581 10.5335C91.8578 10.5692 90.4004 10.7302 87.8252 12.4917C87.2082 12.9298 86.8237 13.3769 86.3408 13.9492L86.1262 14.1996L86.1084 13.8955C86.1084 13.8955 86.1083 12.5006 86.0815 10.5245C86.0815 10.4798 86.0815 10.4351 86.0815 10.3904V10.3457C86.1262 9.64829 86.6985 9.65723 87.1009 9.65723H87.1635C88.8982 9.65723 90.6328 9.65723 92.3675 9.65723H102.936C104.671 9.65723 106.406 9.65723 108.141 9.65723H108.266C108.677 9.65723 109.196 9.68405 109.231 10.3368" fill="#0E100C"/>
</svg>
