<svg width="256" height="66" viewBox="0 0 256 66" fill="none" xmlns="http://www.w3.org/2000/svg">
<path d="M68.7704 23.6508C67.3129 22.0503 65.462 21.0577 62.7527 20.4408C62.6096 20.405 62.3592 20.3513 62.1357 20.2977C62.3503 20.2351 62.6185 20.1546 62.8778 20.0652C63.6289 19.8059 64.8718 19.3767 65.7392 18.6345C66.8658 17.794 67.4828 16.3455 67.3755 14.7628C67.2593 13.0728 66.383 11.6064 65.0238 10.8374C64.076 10.3098 62.6543 9.66605 61.3041 9.64816C60.7408 9.64816 60.088 9.63028 59.3817 9.62134H52.6754C51.6292 9.62134 50.6546 9.62134 49.8319 9.63922C48.3297 9.63922 47.3462 9.63922 47.3462 9.63922H46.8097L47.3015 9.8717C48.2672 10.3188 48.7589 11.213 48.7589 12.5274C48.8037 19.6628 48.8037 27.4421 48.8037 33.433C48.8037 34.7564 48.8037 36.2407 47.2031 37.0991L46.7828 37.3226H47.2567C47.2567 37.3226 49.3402 37.3405 51.8885 37.3405C54.6426 37.3405 58.0046 37.3226 60.088 37.2511C61.9032 37.1885 63.772 36.8577 65.5156 36.2943C67.9567 35.5075 69.8166 33.4956 70.4961 30.9204C71.1936 28.3005 70.5409 25.5822 68.7615 23.6419M51.7633 19.0816C51.7812 18.2232 51.7812 17.338 51.7633 16.4885V14.423C51.7633 13.6272 51.7633 12.7241 51.7633 11.9015V11.2398C51.7633 10.7748 51.8528 10.5423 52.3535 10.5423H59.4621C61.8943 10.5423 63.9598 12.3754 64.1654 14.7091V14.7539C64.3353 16.8373 63.6379 18.4736 62.2519 19.2068C61.4204 19.6539 59.8198 19.8238 58.9525 19.8238H52.3446C51.8528 19.8238 51.7633 19.6092 51.7544 19.18V19.0727L51.7633 19.0816ZM67.5007 29.8742C67.2235 32.5299 66.5886 34.3003 64.1029 35.5164C64.0581 35.5432 63.9687 35.5879 63.9598 35.5969C62.86 36.035 59.784 36.3927 58.9614 36.3927H52.2641C51.8706 36.3659 51.7544 36.196 51.7633 35.6505V35.0425C51.7812 33.5403 51.7812 32.0202 51.7633 30.5448V27.1112C51.7633 25.457 51.7633 23.7492 51.7633 22.095V21.4065C51.7633 21.1293 51.8081 20.9594 51.8975 20.87C51.9869 20.7805 52.13 20.7448 52.3446 20.7448H58.863C60.2848 20.7448 62.2519 21.1919 63.8972 21.9072C66.2131 22.8997 67.5633 25.4034 67.5633 28.5956C67.5633 29.0069 67.5365 29.4361 67.4917 29.8653" fill="#0E100C"/>
<path d="M23.7044 37.0902L22.5956 37.3316H30.2676L29.6506 37.0991C28.5239 36.661 27.9964 35.6774 27.594 34.7832C24.7237 28.3542 18.0175 13.2696 17.5972 12.3486C17.1769 11.4365 16.7656 10.5424 16.408 9.71973L16.3722 9.64819H12.0087L11.9908 9.88962C13.0459 10.0506 13.8775 10.9984 13.8775 12.0446V12.1697C13.8775 12.2502 13.8775 12.3486 13.8775 12.4291C13.8417 12.742 13.7881 12.903 13.6629 13.1802C12.9833 14.7092 12.3037 16.2471 11.6242 17.7762C10.3008 20.7627 8.93273 23.8565 7.57359 26.8788L7.09969 27.9339C6.57213 29.1053 6.04457 30.2677 5.50807 31.4301C5.33818 31.8057 5.16829 32.217 4.99839 32.6015L4.84639 32.977C4.71226 33.3079 4.56919 33.6476 4.3993 33.9695L4.38142 34.0053C3.78233 35.2571 2.90604 36.5894 0.938875 37.0812L0 37.3227H7.2964L7.31429 37.0812C6.24129 36.9561 5.54384 36.6252 5.23088 36.0798C4.96263 35.6237 4.98051 35.0157 5.28453 34.2825L7.26064 29.8564C7.31429 29.7222 7.37688 29.5881 7.43947 29.454C7.48418 29.3735 7.511 29.293 7.54677 29.2215C7.60936 29.1053 7.66301 29.0069 7.71666 28.8907L7.73454 28.846C7.82396 28.6403 8.20845 28.4436 8.46776 28.4168C8.60189 28.3989 8.76284 28.3899 8.9059 28.381C8.95955 28.381 9.03109 28.381 9.08474 28.381H19.2604C19.5554 28.381 19.8505 28.381 20.1456 28.381H20.3155C20.3691 28.381 20.4317 28.381 20.4764 28.381H20.4943C20.6463 28.381 20.7894 28.3989 20.9324 28.4168C21.1918 28.4436 21.5763 28.6403 21.6657 28.846L21.7372 28.998C21.8624 29.2752 21.9965 29.5613 22.1038 29.8474C22.7834 31.3407 23.4898 32.977 24.3392 35.0157C24.5002 35.4181 24.679 35.9367 24.5628 36.2765C24.4555 36.5894 24.0889 36.9829 23.7133 37.0634M20.8788 27.3795C20.8341 27.4332 20.7626 27.4779 20.691 27.4779H8.66448C8.59294 27.4779 8.53035 27.4421 8.48564 27.3795C8.44094 27.3169 8.44094 27.2454 8.46776 27.1739L14.5034 13.6898C14.5481 13.6094 14.6196 13.5646 14.709 13.5646C14.7985 13.5646 14.87 13.6094 14.9058 13.6898L16.5868 17.4811C17.9191 20.4855 19.6359 24.3483 20.8967 27.1917C20.9235 27.2543 20.9235 27.3259 20.8788 27.3974" fill="#0E100C"/>
<path d="M236.033 33.7996C236.06 27.6298 236.033 13.0549 236.007 12.6346C235.971 11.7941 235.863 10.8642 235.023 10.2293C234.853 10.0952 234.647 9.97894 234.406 9.87164L233.878 9.63916H240.871L240.415 9.87164C240.218 9.97 240.039 10.0862 239.887 10.2204C238.93 10.9894 238.922 12.1518 238.922 13.1801C238.895 19.4124 238.904 31.6804 238.904 32.199V32.664C238.904 33.2452 238.93 34.0231 238.939 34.345C238.984 35.2123 239.091 36.1154 239.923 36.7503C240.102 36.8755 240.307 37.0007 240.54 37.099L241.068 37.3315H234.075L234.522 37.108C234.728 37.0007 234.907 36.8844 235.059 36.7592C236.015 35.9903 236.015 34.8278 236.024 33.7996" fill="#0E100C"/>
<path d="M256 24.6251C256 25.412 255.365 26.0558 254.578 26.0558C253.792 26.0558 253.157 25.412 253.157 24.6251C253.157 23.8382 253.792 23.2034 254.578 23.2034C255.365 23.2034 256 23.8472 256 24.6251Z" fill="#0E100C"/>
<path d="M256 35.901C256 36.6878 255.365 37.3227 254.578 37.3227C253.792 37.3227 253.157 36.6878 253.157 35.901C253.157 35.1141 253.792 34.4792 254.578 34.4792C255.365 34.4792 256 35.1141 256 35.901Z" fill="#0E100C"/>
<path d="M19.6271 0L16.3544 7.45735H15.3082L18.5719 0H19.6271Z" fill="#0E100C"/>
<path d="M136.977 37.2868C136.262 37.251 135.556 37.1706 134.858 37.0275C133.141 36.6877 131.541 36.0439 130.074 35.0872C128.599 34.1304 127.365 32.9322 126.408 31.4568C125.228 29.6238 124.611 27.5851 124.37 25.4391C124.316 24.9831 124.298 24.527 124.262 24.071C124.262 23.9727 124.235 23.8743 124.218 23.7849V22.8013C124.235 22.6761 124.253 22.5509 124.262 22.4257C124.298 21.7104 124.387 20.9951 124.522 20.2887C124.888 18.4288 125.612 16.7299 126.676 15.1741C127.597 13.8239 128.742 12.6883 130.119 11.812C132.015 10.6049 134.116 9.92529 136.342 9.71964C136.664 9.69281 137.854 9.63916 138.122 9.63916C138.506 9.63916 139.213 9.68387 139.588 9.71069C140.42 9.79117 140.858 9.85376 141.645 10.0326C143.684 10.4886 145.526 11.356 147.144 12.6793C148.727 13.9759 149.934 15.5496 150.739 17.4274C151.427 19.0369 151.74 20.7268 151.856 22.4526C151.883 22.8281 151.883 23.1947 151.883 23.5703C151.901 24.4734 151.838 25.3765 151.686 26.2617C151.409 27.907 150.864 29.445 150.032 30.8846C149.326 32.1096 148.458 33.2005 147.385 34.1304C146.08 35.266 144.587 36.0618 142.941 36.5715C142.146 36.8218 141.377 37.0454 140.545 37.1527C140.053 37.2153 139.275 37.3405 136.986 37.2868M148.7 23.7133C148.682 23.0159 148.655 22.3095 148.584 21.6121C148.503 20.7447 148.36 19.8774 148.163 19.0279C147.832 17.6241 147.314 16.2918 146.563 15.0578C145.919 13.9848 145.114 13.0638 144.095 12.3306C142.593 11.2576 140.921 10.6943 139.088 10.5691C138.363 10.5244 137.63 10.5244 136.897 10.587C136.056 10.6585 135.234 10.8284 134.438 11.1056C132.945 11.6332 131.657 12.4647 130.602 13.654C129.922 14.414 129.395 15.2724 128.948 16.1845C128.268 17.5704 127.866 19.0458 127.642 20.5748C127.526 21.3527 127.463 22.1307 127.437 22.9086C127.383 24.2498 127.463 25.5911 127.714 26.9145C127.991 28.4435 128.492 29.892 129.216 31.2691C129.681 32.1453 130.235 32.959 130.933 33.6565C132.685 35.4001 134.822 36.2406 137.263 36.3658C137.63 36.3837 137.997 36.3658 138.354 36.3748C139.096 36.3748 139.839 36.3032 140.563 36.1512C141.913 35.8561 143.147 35.3018 144.256 34.4702C145.141 33.7996 145.865 32.9769 146.464 32.047C147.68 30.1603 148.342 28.0769 148.601 25.8593C148.682 25.144 148.718 24.4287 148.7 23.7133Z" fill="#0E100C"/>
<path d="M189.501 12.2679C188.115 10.882 186.291 9.99673 184.225 9.71954C183.823 9.67483 183.456 9.63907 183.116 9.63013C183.027 9.63013 182.732 9.63013 182.106 9.63013H175.453C174.175 9.63013 173.012 9.63013 171.975 9.63013H168.577L169.078 9.86261C169.945 10.265 170.437 11.0966 170.544 12.3216C170.598 13.019 170.598 13.7433 170.607 14.4318V19.4123C170.607 24.1425 170.607 29.0335 170.607 33.5401V33.6385C170.607 34.9887 170.589 36.2763 169.078 37.1079L168.658 37.3314H175.659L175.149 37.0989C173.799 36.482 173.594 35.4626 173.567 34.5506C173.531 32.7533 173.513 30.6878 173.495 28.6938C173.477 27.3704 173.468 26.0828 173.45 24.9025V24.8757C173.486 24.5538 173.585 24.3749 174.032 24.3749H174.756C177.036 24.3928 179.388 24.4196 181.686 24.2855C181.793 24.2855 181.909 24.2855 182.008 24.2676C182.034 24.2676 182.052 24.2676 182.079 24.2676H182.142C183.859 24.1514 185.486 23.8206 186.836 23.3198C189.045 22.4882 190.538 20.7625 191.03 18.4466C191.146 17.9191 191.2 17.3915 191.2 16.855C191.2 15.0845 190.583 13.3677 189.501 12.2769M173.433 11.9103V11.2128C173.433 10.7657 173.531 10.5511 174.023 10.5511H182.723C183.707 10.5511 184.619 10.7747 185.343 11.2128C187.346 12.3842 188.061 14.4407 188.061 16.5063C188.061 17.4273 187.927 18.3393 187.695 19.1798C187.391 20.2618 186.89 21.1649 186.21 21.8623C185.316 22.8012 183.099 23.3556 180.282 23.3556H174.041C173.549 23.3556 173.45 23.132 173.442 22.685V21.6835C173.442 21.4778 173.442 21.2632 173.442 21.0576C173.459 20.0293 173.442 18.9742 173.442 17.9369V14.396C173.442 13.5645 173.442 12.7329 173.442 11.9013" fill="#0E100C"/>
<path d="M227.583 28.524C227.333 27.3615 226.832 26.3511 226.126 25.5285C225.419 24.6969 224.489 24.0621 223.39 23.6508C222.039 23.1411 220.412 22.8102 218.686 22.7029C218.668 22.7029 218.651 22.7029 218.642 22.7029H218.57C218.463 22.7029 218.355 22.6851 218.248 22.6851C215.95 22.5599 213.598 22.5778 211.327 22.6046H210.63C210.138 22.6046 210.031 22.4257 210.004 22.1038V22.0681C210.022 20.8788 210.04 19.5912 210.049 18.2768C210.075 16.2828 210.093 14.2173 210.12 12.42C210.147 11.508 210.344 10.4976 211.712 9.87164L212.213 9.63916H205.22L205.631 9.8627C207.143 10.6943 207.152 11.9729 207.16 13.3321V13.4304C207.178 17.937 207.178 22.8281 207.16 27.5583V32.5388C207.16 33.2362 207.16 33.9516 207.098 34.649C207 35.874 206.499 36.7056 205.631 37.108L205.14 37.3405H208.43C209.476 37.3405 210.737 37.3405 212.016 37.3405H218.668C219.285 37.3405 219.598 37.3405 219.661 37.3405C220.028 37.3405 220.385 37.2957 220.788 37.251C222.862 36.9738 224.677 36.0886 226.063 34.7027C227.476 33.2899 228.084 30.822 227.592 28.5418M219.276 36.4016H210.576C210.084 36.4016 209.995 36.187 209.986 35.7399V35.0424C209.986 34.2019 209.986 33.3793 209.986 32.5477V29.0068C209.986 27.9696 209.986 26.9234 209.986 25.8862C209.986 25.6805 209.986 25.4659 209.986 25.2603V24.2588C209.986 23.8117 210.093 23.5882 210.585 23.5882H216.826C219.643 23.5882 221.87 24.1425 222.764 25.0814C223.434 25.7789 223.935 26.682 224.239 27.7639C224.472 28.6134 224.615 29.5254 224.615 30.4375C224.615 32.503 223.899 34.5596 221.896 35.731C221.163 36.1691 220.251 36.3926 219.267 36.3926" fill="#0E100C"/>
<path d="M171.743 9.88049V9.63907H171.868L175.453 9.63013V9.87155C174.175 9.87155 172.914 9.87155 171.868 9.88049H171.743Z" fill="#0E100C"/>
<path d="M109.258 10.3366V10.3902C109.258 10.4349 109.258 10.4886 109.258 10.5422C109.24 12.5004 109.231 13.8953 109.231 13.8953V14.2262L109.026 13.9758C108.516 13.3767 108.141 12.9296 107.515 12.4915C104.939 10.73 103.482 10.569 99.6817 10.5333C99.1184 10.5333 99.0647 11.3648 99.0647 11.7225V12.3395C99.0647 15.5138 99.0647 18.6881 99.0647 21.8713C99.0647 25.8325 99.0647 29.8115 99.0826 33.7816C99.0826 35.0424 99.1005 36.3568 100.621 37.09L101.086 37.3225H94.2541L94.7191 37.09C96.2392 36.3479 96.2481 35.0424 96.257 33.7816C96.2749 29.8115 96.2749 25.8325 96.2749 21.8713C96.2749 18.6881 96.2749 15.5138 96.2749 12.3395V11.7225C96.2749 11.3648 96.2213 10.5333 95.658 10.5333C91.8577 10.569 90.4003 10.73 87.8251 12.4915C87.2081 12.9296 86.8236 13.3767 86.3407 13.949L86.1261 14.1994L86.1083 13.8953C86.1083 13.8953 86.1082 12.5004 86.0814 10.5243C86.0814 10.4796 86.0814 10.4349 86.0814 10.3902V10.3455C86.1261 9.64805 86.6984 9.65699 87.1008 9.65699H87.1634C88.8981 9.65699 90.6327 9.65699 92.3674 9.65699H102.936C104.671 9.65699 106.406 9.65699 108.141 9.65699H108.266C108.677 9.65699 109.196 9.68381 109.231 10.3366" fill="#0E100C"/>
<path d="M139.311 63.2087V54.0972H140.501V63.2087H139.311ZM139.696 59.0509V58.0941H146.599V59.0509H139.696ZM145.794 63.2087V54.0972H146.974V63.2087H145.794Z" fill="#0E100C"/>
<path d="M156.05 63.2087L152.876 54.732H153.332L150.176 63.2087H148.986L152.724 54.0972H153.734L157.32 63.2087H156.041H156.05ZM150.632 60.1864L150.962 59.2565H155.031L155.532 60.1864H150.632Z" fill="#0E100C"/>
<path d="M162.738 63.2086V54.0971H163.954V63.2086H162.738ZM163.293 55.0181V54.0881H168.005V55.0181H163.293Z" fill="#0E100C"/>
<path d="M173.781 63.343C172.896 63.343 172.1 63.1463 171.403 62.7439C170.705 62.3505 170.16 61.7961 169.758 61.0897C169.364 60.3833 169.158 59.5875 169.158 58.7023C169.158 57.978 169.284 57.3342 169.525 56.7441C169.766 56.1628 170.115 55.6621 170.562 55.2508C171.009 54.8305 171.519 54.5176 172.1 54.2851C172.681 54.0616 173.298 53.9453 173.96 53.9453C174.845 53.9453 175.641 54.142 176.33 54.5444C177.018 54.9378 177.564 55.4922 177.957 56.1897C178.35 56.8871 178.547 57.6919 178.547 58.586C178.547 59.3103 178.422 59.9541 178.172 60.5443C177.921 61.1344 177.582 61.6262 177.143 62.0375C176.714 62.4578 176.204 62.7707 175.623 63.0032C175.042 63.2268 174.425 63.343 173.763 63.343H173.781ZM173.987 62.4667C174.649 62.4667 175.23 62.3147 175.722 62.0018C176.213 61.6888 176.598 61.2596 176.875 60.6963C177.152 60.1329 177.295 59.4981 177.295 58.7649C177.295 57.9691 177.134 57.2806 176.821 56.6904C176.509 56.1003 176.079 55.6442 175.552 55.3134C175.015 54.9825 174.407 54.8216 173.737 54.8216C173.102 54.8216 172.538 54.9736 172.038 55.2776C171.546 55.5816 171.161 56.0108 170.884 56.5742C170.607 57.1375 170.464 57.7813 170.464 58.5234C170.464 59.3193 170.616 60.0078 170.929 60.5979C171.242 61.1881 171.662 61.6441 172.199 61.9749C172.735 62.3058 173.334 62.4667 173.987 62.4667Z" fill="#0E100C"/>
<path d="M180.085 65.6318L179.808 62.2787H180.971V65.6318H180.085ZM180.193 63.2086L180.166 62.2787H189L188.651 63.2086H180.184H180.193ZM180.658 63.2086C181.024 62.4397 181.337 61.5902 181.579 60.6424C181.82 59.6946 182.026 58.6752 182.178 57.5754C182.33 56.4756 182.455 55.3131 182.535 54.0971H183.573C183.492 55.3131 183.376 56.4756 183.224 57.5754C183.072 58.6752 182.875 59.6946 182.634 60.6424C182.392 61.5902 182.097 62.4486 181.748 63.2086H180.649H180.658ZM183.09 55.0181V54.0881H187.23V55.0181H183.09ZM186.622 63.2086V54.0971H187.802V63.2086H186.622ZM188.115 65.6318L187.838 62.2787H189.018L189 65.6318H188.115Z" fill="#0E100C"/>
<path d="M195 63.343C194.115 63.343 193.319 63.1463 192.622 62.7439C191.924 62.3505 191.379 61.7961 190.977 61.0897C190.583 60.3833 190.377 59.5875 190.377 58.7023C190.377 57.978 190.503 57.3342 190.744 56.7441C190.985 56.1628 191.334 55.6621 191.781 55.2508C192.228 54.8305 192.738 54.5176 193.319 54.2851C193.9 54.0616 194.517 53.9453 195.179 53.9453C196.064 53.9453 196.86 54.142 197.549 54.5444C198.237 54.9378 198.783 55.4922 199.176 56.1897C199.569 56.8871 199.766 57.6919 199.766 58.586C199.766 59.3103 199.641 59.9541 199.391 60.5443C199.14 61.1344 198.8 61.6262 198.362 62.0375C197.933 62.4578 197.423 62.7707 196.842 63.0032C196.261 63.2268 195.644 63.343 194.982 63.343H195ZM195.206 62.4667C195.868 62.4667 196.449 62.3147 196.941 62.0018C197.432 61.6888 197.817 61.2596 198.094 60.6963C198.371 60.1329 198.514 59.4981 198.514 58.7649C198.514 57.9691 198.353 57.2806 198.04 56.6904C197.727 56.1003 197.298 55.6442 196.771 55.3134C196.234 54.9825 195.626 54.8216 194.956 54.8216C194.321 54.8216 193.757 54.9736 193.257 55.2776C192.765 55.5816 192.38 56.0108 192.103 56.5742C191.826 57.1375 191.683 57.7813 191.683 58.5234C191.683 59.3193 191.835 60.0078 192.148 60.5979C192.461 61.1881 192.881 61.6441 193.418 61.9749C193.954 62.3058 194.553 62.4667 195.206 62.4667Z" fill="#0E100C"/>
<path d="M204.577 58.7825L204.773 58.1208C205.408 58.1208 205.972 58.2192 206.454 58.4248C206.937 58.6305 207.322 58.9166 207.59 59.2832C207.858 59.6499 208.001 60.088 208.001 60.5977C208.001 61.1073 207.867 61.5634 207.59 61.9568C207.313 62.3502 206.928 62.6453 206.428 62.8689C205.927 63.0924 205.328 63.1997 204.63 63.1997H202.028V54.0881H204.63C205.194 54.0881 205.677 54.1776 206.088 54.3564C206.499 54.5352 206.821 54.7856 207.054 55.1075C207.286 55.4294 207.402 55.8228 207.402 56.2788C207.402 56.6186 207.331 56.9405 207.188 57.2445C207.045 57.5486 206.848 57.8168 206.589 58.0493C206.338 58.2818 206.034 58.4606 205.694 58.5858C205.355 58.711 204.979 58.7825 204.577 58.7825ZM202.762 58.0404H204.702C205.185 58.0404 205.569 57.8973 205.873 57.6201C206.177 57.3429 206.32 56.9674 206.32 56.4934C206.32 56.0464 206.177 55.6798 205.882 55.3936C205.587 55.1075 205.113 54.9555 204.434 54.9555H203.128V62.3502H204.8C205.444 62.3502 205.945 62.1982 206.294 61.8763C206.642 61.5634 206.821 61.1342 206.821 60.6066C206.821 60.0791 206.624 59.6499 206.249 59.3369C205.864 59.0239 205.283 58.8719 204.496 58.8719H202.753V58.0404H202.762Z" fill="#0E100C"/>
<path d="M210.112 63.2086V54.0971H211.292L211.211 63.2086H210.121H210.112ZM210.648 63.2086V62.6364L216.603 54.0881H217.328V54.6872L211.372 63.2086H210.648ZM216.693 63.2086L216.791 54.0971H217.873V63.2086H216.693Z" fill="#0E100C"/>
<path d="M220.805 63.2086V54.0971H221.959V63.2086H220.805ZM226.278 63.2086L221.816 58.5232L225.983 54.0881H227.404L222.755 58.7289L222.853 58.1566L227.851 63.1997H226.269L226.278 63.2086Z" fill="#0E100C"/>
<path d="M233.342 63.343C232.457 63.343 231.661 63.1463 230.964 62.7439C230.266 62.3415 229.721 61.7961 229.318 61.0897C228.925 60.3833 228.719 59.5875 228.719 58.7023C228.719 57.978 228.844 57.3342 229.086 56.7441C229.327 56.1628 229.676 55.6621 230.123 55.2508C230.57 54.8305 231.08 54.5176 231.661 54.2851C232.233 54.0616 232.859 53.9453 233.521 53.9453C234.406 53.9453 235.193 54.142 235.89 54.5444C236.579 54.9378 237.124 55.4922 237.518 56.1897C237.911 56.8871 238.108 57.6919 238.108 58.586C238.108 59.3103 237.983 59.9541 237.732 60.5443C237.482 61.1255 237.142 61.6262 236.704 62.0375C236.275 62.4578 235.765 62.7707 235.184 63.0032C234.612 63.2268 233.986 63.343 233.324 63.343H233.342ZM233.548 62.4667C234.209 62.4667 234.791 62.3147 235.282 62.0018C235.774 61.6888 236.159 61.2596 236.436 60.6963C236.713 60.1329 236.856 59.4981 236.856 58.7649C236.856 57.9691 236.695 57.2806 236.382 56.6904C236.069 56.1003 235.64 55.6442 235.113 55.3134C234.576 54.9825 233.968 54.8216 233.297 54.8216C232.663 54.8216 232.099 54.9736 231.598 55.2776C231.107 55.5816 230.722 56.0108 230.445 56.5742C230.168 57.1375 230.025 57.7813 230.025 58.5234C230.025 59.3193 230.177 60.0078 230.49 60.5979C230.794 61.1881 231.223 61.6441 231.759 61.9749C232.296 62.3058 232.895 62.4667 233.548 62.4667Z" fill="#0E100C"/>
<path d="M242.918 58.7825L243.115 58.1208C243.75 58.1208 244.313 58.2192 244.796 58.4248C245.279 58.6305 245.664 58.9166 245.932 59.2832C246.2 59.6499 246.343 60.088 246.343 60.5977C246.343 61.1073 246.209 61.5634 245.932 61.9568C245.655 62.3502 245.27 62.6453 244.769 62.8689C244.269 63.0924 243.67 63.1997 242.972 63.1997H240.37V54.0881H242.972C243.535 54.0881 244.018 54.1776 244.43 54.3564C244.841 54.5352 245.163 54.7856 245.395 55.1075C245.628 55.4383 245.744 55.8228 245.744 56.2788C245.744 56.6186 245.673 56.9405 245.529 57.2445C245.386 57.5486 245.19 57.8168 244.93 58.0493C244.68 58.2818 244.376 58.4606 244.036 58.5858C243.696 58.711 243.321 58.7825 242.918 58.7825ZM241.103 58.0404H243.044C243.527 58.0404 243.911 57.8973 244.215 57.6201C244.519 57.3429 244.662 56.9674 244.662 56.4934C244.662 56.0464 244.519 55.6798 244.224 55.3936C243.929 55.0985 243.455 54.9555 242.775 54.9555H241.47V62.3502H243.142C243.786 62.3502 244.287 62.1982 244.635 61.8763C244.984 61.5634 245.163 61.1342 245.163 60.6066C245.163 60.0791 244.966 59.6499 244.591 59.3369C244.206 59.0239 243.625 58.8719 242.838 58.8719H241.094V58.0404H241.103Z" fill="#0E100C"/>
<path d="M254.596 63.2087L251.422 54.732H251.878L248.721 63.2087H247.532L251.27 54.0972H252.28L255.866 63.2087H254.587H254.596ZM249.178 60.1864L249.508 59.2565H253.577L254.078 60.1864H249.178Z" fill="#0E100C"/>
</svg>
