<svg width="196" height="53" viewBox="0 0 196 53" fill="none" xmlns="http://www.w3.org/2000/svg">
<g clip-path="url(#clip0_133_9)">
<path d="M17.717 3.2041L15.2936 8.80633H14.5176L16.9351 3.2041H17.717Z" fill="#141414"/>
<path fill-rule="evenodd" clip-rule="evenodd" d="M54.1219 20.9606C53.0415 19.7567 51.6686 19.0125 49.663 18.5528C49.5556 18.5285 49.3706 18.4863 49.2094 18.4438C49.3706 18.3955 49.5676 18.335 49.7585 18.2685C50.3137 18.0748 51.2329 17.7542 51.8775 17.1916C52.7131 16.5624 53.1668 15.4734 53.0892 14.2876C53.0057 13.017 52.3551 11.916 51.3462 11.3413C50.6419 10.942 49.5914 10.458 48.5946 10.4459C48.3352 10.4459 48.0505 10.4412 47.7462 10.4362C47.5604 10.4332 47.3672 10.43 47.168 10.4277H42.2017C41.4258 10.4277 40.7036 10.4277 40.0947 10.4398H37.8503L38.2145 10.6153C38.9307 10.948 39.2948 11.6196 39.2948 12.6118C39.3247 17.972 39.3307 23.8102 39.3307 28.3053C39.3307 29.2974 39.3306 30.4166 38.1428 31.058L37.8325 31.2273H38.1846C38.1846 31.2273 39.7246 31.2394 41.6168 31.2394C43.6582 31.2394 46.1473 31.2273 47.6932 31.1729C49.0363 31.1246 50.4211 30.8765 51.7164 30.453C53.525 29.8601 54.9039 28.3537 55.4052 26.4177C55.9185 24.4514 55.435 22.4065 54.1219 20.9546V20.9606ZM41.5212 17.5304C41.5332 16.883 41.5332 16.2175 41.5212 15.5823V14.0335C41.5212 13.8399 41.5219 13.638 41.5225 13.4326V13.4218C41.524 12.9953 41.5254 12.5539 41.5212 12.1399V11.6438C41.5212 11.2929 41.587 11.1235 41.957 11.1235H47.2217C49.0244 11.1235 50.5524 12.4968 50.7075 14.2513V14.2876C50.833 15.8545 50.3137 17.0766 49.293 17.6331C48.6781 17.972 47.4903 18.093 46.8457 18.093H41.9511C41.587 18.093 41.5212 17.9297 41.5153 17.609V17.5304H41.5212ZM53.1788 25.6373C52.9759 27.6337 52.5043 28.9586 50.6598 29.8722C50.6462 29.8806 50.6237 29.8927 50.6027 29.9039C50.5781 29.9173 50.5557 29.9294 50.5524 29.9326C49.7406 30.2593 47.4605 30.5316 46.8516 30.5316H41.8914C41.5989 30.5135 41.5153 30.3865 41.5212 29.9751V29.5212C41.5332 28.396 41.5332 27.2526 41.5212 26.1454V23.5682C41.5212 23.1564 41.5219 22.7398 41.5227 22.3217V22.32C41.524 21.4795 41.5252 20.6329 41.5212 19.8052V19.2909C41.5212 19.0792 41.5512 18.9581 41.6228 18.8855C41.6885 18.819 41.7959 18.7887 41.957 18.7887H46.786C47.8365 18.7887 49.2989 19.1275 50.5166 19.6599C52.2357 20.404 53.2324 22.2856 53.2324 24.6813C53.2324 24.9898 53.2145 25.3106 53.1788 25.6373Z" fill="#141414"/>
<path fill-rule="evenodd" clip-rule="evenodd" d="M20.7373 31.0513L19.9136 31.2328H25.596L25.1425 31.0574C24.3068 30.7307 23.9188 29.9926 23.6204 29.3211C22.624 27.0575 21.0019 23.3656 19.5277 20.0105L19.5195 19.9918C17.8528 16.1988 16.3774 12.841 16.2129 12.472C15.9024 11.7884 15.598 11.1169 15.3295 10.4998L15.3055 10.4453H12.0763L12.0644 10.6268C12.8463 10.7478 13.4611 11.4617 13.4611 12.2421V12.3389C13.4611 12.3587 13.4617 12.3797 13.4623 12.4012C13.4638 12.4455 13.4652 12.4918 13.4611 12.5325C13.4372 12.7685 13.3954 12.8895 13.2999 13.0951C13.0494 13.6695 12.7974 14.2453 12.5454 14.8211L12.5439 14.8246C12.2921 15.4001 12.0402 15.9756 11.7898 16.5497C10.8109 18.7942 9.79615 21.1113 8.78738 23.3861L8.43521 24.1786C8.04723 25.0558 7.65327 25.9332 7.25932 26.8043C7.1653 27.0176 7.07128 27.241 6.97726 27.4646C6.94593 27.5391 6.9146 27.6135 6.88326 27.6876L6.76986 27.9719C6.66838 28.2199 6.56093 28.4741 6.43559 28.716L6.42365 28.7403C5.98195 29.678 5.33132 30.6823 3.87488 31.0513L3.17651 31.2328H8.57846L8.5904 31.0513C7.79653 30.9607 7.27722 30.7066 7.04443 30.3012C6.84745 29.9563 6.85939 29.5026 7.08621 28.952L8.54861 25.6306C8.5904 25.5278 8.63218 25.431 8.67994 25.3281C8.70081 25.2858 8.71876 25.2435 8.73583 25.2033C8.74317 25.186 8.75036 25.169 8.75754 25.1526C8.79324 25.0893 8.82227 25.0294 8.85212 24.9678L8.86868 24.9336L8.88288 24.9046L8.89482 24.8744C8.96048 24.7232 9.24699 24.5718 9.438 24.5538C9.53464 24.5422 9.6421 24.5362 9.74494 24.5304L9.76033 24.5295H18.3438C18.4571 24.5295 18.5646 24.5417 18.6661 24.5538C18.857 24.5718 19.1436 24.7232 19.2093 24.8744L19.263 24.9893C19.3584 25.2011 19.454 25.4128 19.5375 25.6306C20.0389 26.7499 20.5643 27.984 21.1969 29.5146C21.3163 29.8172 21.4477 30.2044 21.364 30.4585C21.2865 30.6944 21.0119 30.9908 20.7373 31.0513ZM18.6422 23.7611C18.6123 23.8036 18.5587 23.8338 18.5049 23.8338H9.59319C9.53946 23.8338 9.49172 23.8096 9.46188 23.7611C9.43203 23.7128 9.42606 23.6584 9.44994 23.6038L13.9207 13.4764C13.9506 13.4158 14.0042 13.3796 14.07 13.3796C14.1356 13.3796 14.1894 13.4097 14.2132 13.4703L15.4607 16.3197C16.4456 18.5765 17.7171 21.4744 18.6541 23.6099C18.672 23.6584 18.672 23.7128 18.6422 23.7611Z" fill="#141414"/>
<path d="M178.014 12.69C178.033 13.0047 178.051 23.9489 178.033 28.5832V28.6049C178.026 29.3679 178.02 30.2281 177.316 30.8035C177.202 30.8943 177.072 30.9849 176.916 31.0637L176.582 31.233H181.762L181.369 31.0577C181.196 30.9849 181.04 30.8943 180.909 30.7975C180.295 30.3195 180.211 29.6419 180.182 28.9885C180.175 28.7465 180.164 28.1596 180.157 27.7241V27.0449C180.156 25.3062 180.153 17.3409 180.169 13.0954C180.169 12.327 180.175 11.4498 180.886 10.8751C180.999 10.7783 181.136 10.6875 181.279 10.6149L181.619 10.4395H176.439L176.832 10.6149C177.006 10.6936 177.161 10.7783 177.286 10.8811C177.907 11.359 177.99 12.0608 178.014 12.69Z" fill="#141414"/>
<path d="M192.823 21.692C192.823 22.2849 192.352 22.7689 191.767 22.7689C191.182 22.7689 190.71 22.2849 190.71 21.692C190.71 21.099 191.182 20.6211 191.767 20.6211C192.352 20.6211 192.823 21.1051 192.823 21.692Z" fill="#141414"/>
<path d="M192.823 30.1616C192.823 30.7531 192.351 31.2324 191.767 31.2324C191.183 31.2324 190.71 30.7531 190.71 30.1616C190.71 29.5702 191.183 29.0908 191.767 29.0908C192.351 29.0908 192.823 29.5702 192.823 30.1616Z" fill="#141414"/>
<path fill-rule="evenodd" clip-rule="evenodd" d="M104.649 31.203C104.118 31.1788 103.599 31.1122 103.08 31.0094C101.808 30.7552 100.626 30.2713 99.534 29.5513C98.4416 28.8314 97.5225 27.936 96.8182 26.8229C95.9407 25.4435 95.487 23.9189 95.3079 22.3036C95.2868 22.0996 95.2718 21.8958 95.257 21.6932C95.2468 21.5531 95.2366 21.4136 95.2244 21.275C95.2244 21.2206 95.2143 21.1662 95.2042 21.1117C95.2009 21.0936 95.1975 21.0754 95.1946 21.0572V20.3191C95.1977 20.2934 95.2013 20.268 95.2049 20.2428C95.2147 20.1736 95.2244 20.1058 95.2244 20.0349C95.2482 19.4963 95.3138 18.964 95.4154 18.4316C95.684 17.0401 96.2212 15.7576 97.0091 14.5899C97.6955 13.5736 98.5371 12.7265 99.5579 12.0671C100.961 11.1596 102.519 10.6514 104.166 10.4941C104.411 10.4699 105.288 10.4336 105.485 10.4336C105.732 10.4336 106.17 10.4618 106.467 10.4809L106.577 10.488C107.192 10.5485 107.515 10.5969 108.1 10.73C109.61 11.0688 110.971 11.7222 112.17 12.7144C113.34 13.6884 114.236 14.8682 114.833 16.2778C115.34 17.4817 115.573 18.7523 115.656 20.053C115.67 20.261 115.673 20.4724 115.676 20.6821V20.6859C115.678 20.7554 115.679 20.8249 115.68 20.8939C115.692 21.5715 115.644 22.249 115.537 22.9146C115.334 24.1488 114.928 25.3044 114.307 26.3872C113.782 27.3068 113.137 28.1297 112.349 28.8253C111.383 29.6785 110.278 30.2773 109.055 30.6645C108.464 30.8521 107.891 31.0215 107.276 31.1001L107.206 31.1095C106.836 31.16 106.228 31.2427 104.637 31.203H104.649ZM113.334 21.0089C113.322 20.4825 113.298 19.9562 113.251 19.4298C113.185 18.7764 113.09 18.1291 112.934 17.4938C112.684 16.4411 112.302 15.4429 111.747 14.5112C111.269 13.7066 110.672 13.0109 109.92 12.4664C108.81 11.6617 107.562 11.2322 106.207 11.1414C105.67 11.1051 105.127 11.1112 104.584 11.1535C103.963 11.2019 103.354 11.335 102.763 11.5468C101.659 11.94 100.698 12.5692 99.9219 13.4646C99.4205 14.0394 99.0267 14.6807 98.6924 15.3703C98.191 16.411 97.8925 17.5181 97.7254 18.6676C97.6419 19.2483 97.594 19.8351 97.5702 20.422C97.5344 21.4323 97.594 22.4306 97.7731 23.4289C97.9821 24.5723 98.3462 25.6673 98.8833 26.6957C99.2237 27.3552 99.6355 27.9602 100.155 28.4865C101.45 29.7933 103.038 30.4285 104.846 30.5254C105 30.5323 105.155 30.5313 105.311 30.5303C105.427 30.5296 105.543 30.5289 105.658 30.5314C106.207 30.5314 106.756 30.477 107.294 30.362C108.297 30.1382 109.21 29.7268 110.027 29.0976C110.684 28.5955 111.215 27.9724 111.663 27.2765C112.564 25.8609 113.054 24.3 113.245 22.6363C113.305 22.0978 113.328 21.5655 113.316 21.021L113.334 21.0089Z" fill="#141414"/>
<path fill-rule="evenodd" clip-rule="evenodd" d="M139.652 10.5062C141.18 10.7119 142.535 11.3774 143.561 12.418H143.568C144.374 13.2347 144.827 14.5234 144.827 15.8543C144.827 16.2536 144.785 16.653 144.701 17.0462C144.331 18.7885 143.227 20.0832 141.591 20.7063C140.588 21.0875 139.383 21.3356 138.112 21.4203H138.064C138.046 21.4264 138.028 21.4264 138.01 21.4264C137.939 21.4383 137.849 21.4383 137.771 21.4383C136.151 21.5307 134.491 21.5185 132.877 21.5067L132.639 21.505H132.101C131.772 21.505 131.695 21.6381 131.672 21.8801V21.8982C131.677 22.3742 131.682 22.8728 131.687 23.3855V23.3909V23.3933V23.3952C131.691 23.8373 131.695 24.29 131.701 24.7478C131.713 26.2481 131.731 27.7969 131.754 29.146C131.772 29.8297 131.922 30.5919 132.925 31.0578L133.3 31.2332H128.114L128.424 31.0638C129.546 30.4407 129.559 29.4787 129.559 28.4624V14.0454C129.557 13.9789 129.556 13.912 129.556 13.8449C129.551 13.3875 129.547 12.9194 129.511 12.4603C129.432 11.5407 129.069 10.9176 128.424 10.6151L128.054 10.4396H130.573C131.343 10.4336 132.203 10.4336 133.152 10.4336H138.082C138.541 10.4336 138.763 10.4336 138.829 10.4396C139.085 10.4457 139.353 10.4699 139.652 10.5062ZM131.659 11.6254V12.1457C131.665 12.7689 131.665 13.3981 131.665 14.0212V16.6771C131.665 16.8719 131.665 17.0671 131.665 17.2624C131.667 17.8492 131.668 18.4376 131.659 19.0184C131.663 19.1231 131.661 19.2278 131.66 19.3325C131.66 19.3849 131.659 19.4379 131.659 19.4903V20.2405C131.665 20.5733 131.736 20.7427 132.101 20.7427H136.727C138.816 20.7427 140.458 20.3252 141.12 19.6234C141.621 19.097 141.991 18.4195 142.218 17.6088C142.392 16.9736 142.493 16.2899 142.493 15.6003C142.493 14.0515 141.968 12.5087 140.481 11.6254C139.944 11.2987 139.269 11.1293 138.541 11.1293H132.095C131.731 11.1293 131.665 11.2866 131.659 11.6254Z" fill="#141414"/>
<path fill-rule="evenodd" clip-rule="evenodd" d="M171.771 24.6206C171.586 23.7495 171.216 22.9871 170.69 22.3701C170.166 21.747 169.478 21.2689 168.661 20.9604C167.658 20.5793 166.452 20.3313 165.175 20.2466C165.163 20.2466 165.152 20.2466 165.14 20.2405H165.086C165.047 20.2405 165.007 20.2375 164.966 20.2344C164.926 20.2315 164.886 20.2284 164.847 20.2284C163.145 20.1317 161.402 20.1497 159.72 20.1679H159.207C158.842 20.1679 158.765 20.0349 158.74 19.7929V19.7686C158.753 18.8793 158.765 17.9113 158.771 16.9191C158.776 16.445 158.781 15.9661 158.786 15.4902C158.797 14.4599 158.808 13.4436 158.824 12.5208C158.842 11.8372 158.991 11.0749 160 10.609L160.37 10.4336H155.189L155.494 10.603C156.615 11.2261 156.622 12.1881 156.628 13.2044V13.277C156.64 16.6589 156.64 20.3313 156.633 23.8825V27.6214C156.633 28.1418 156.628 28.6802 156.586 29.2064C156.515 30.1261 156.145 30.7492 155.5 31.0518L155.135 31.2271H157.571C158.347 31.2332 159.278 31.2332 160.227 31.2332H165.157C165.617 31.2332 165.844 31.2332 165.892 31.2271C166.16 31.2271 166.429 31.197 166.727 31.1606C168.261 30.955 169.61 30.2894 170.637 29.2489C171.664 28.2083 172.136 26.3328 171.771 24.6206ZM165.617 30.5375H159.171C158.806 30.5375 158.74 30.3741 158.735 30.0414V24.9898C158.74 24.2092 158.74 23.4228 158.735 22.6483V21.4264C158.735 21.0936 158.812 20.9242 159.176 20.9242H163.803C165.892 20.9242 167.539 21.3417 168.202 22.0434C168.697 22.5697 169.067 23.2473 169.294 24.058C169.467 24.6932 169.575 25.383 169.575 26.0666C169.575 27.6154 169.043 29.1581 167.563 30.0414C167.02 30.3681 166.345 30.5375 165.617 30.5375Z" fill="#141414"/>
<path d="M84.1161 11.0076V10.9652C84.0863 10.4752 83.7043 10.457 83.3998 10.457H83.3103C82.4545 10.4611 81.5961 10.4597 80.7386 10.4584C80.3101 10.4577 79.8819 10.457 79.4544 10.457H71.623C71.1954 10.457 70.7673 10.4577 70.3389 10.4584C69.4812 10.4597 68.6228 10.4611 67.767 10.457H67.7091C67.4113 10.457 66.9967 10.4569 66.9612 10.9713V11.0076C66.9553 11.0439 66.9553 11.0802 66.9612 11.1104C66.9792 12.5927 66.9792 13.6393 66.9792 13.6393L66.991 13.8692L67.1522 13.6816L67.1631 13.6686C67.5161 13.2452 67.7955 12.91 68.2505 12.5866C70.1606 11.2617 71.235 11.1407 74.0523 11.1165C74.4702 11.1165 74.512 11.7396 74.512 12.0058V12.4717C74.506 14.8554 74.506 17.239 74.506 19.6288C74.506 22.6053 74.506 25.5879 74.4942 28.5705C74.4881 29.5202 74.4819 30.5005 73.3541 31.057L73.0078 31.2324H78.0696L77.7233 31.057C76.5954 30.5005 76.5892 29.5207 76.5833 28.571C76.5713 25.5884 76.5713 22.6053 76.5713 19.6288C76.5713 17.239 76.5713 14.8554 76.5654 12.4717V12.0058C76.5654 11.7396 76.6071 11.1165 77.025 11.1165C79.8423 11.1407 80.9168 11.2617 82.8268 12.5866C83.2768 12.9065 83.5551 13.2379 83.9195 13.6718L83.9431 13.6998L84.0982 13.8874V13.6393C84.0982 13.6393 84.1042 12.5927 84.1161 11.1225C84.1201 11.094 84.1188 11.0683 84.1174 11.0434C84.1168 11.0313 84.1161 11.0195 84.1161 11.0076Z" fill="#141414"/>
</g>
<defs>
<clipPath id="clip0_133_9">
<rect width="196" height="52.86" fill="white"/>
</clipPath>
</defs>
</svg>
