<svg width="53" height="53" viewBox="0 0 53 53" fill="none" xmlns="http://www.w3.org/2000/svg">
<path d="M31.4025 21.5978L26.5 24.0491M26.5 24.0491L21.5975 21.5978M26.5 24.0491V30.1882M46.1321 14.222L41.2296 16.6732M46.1321 14.222L41.2296 11.7707M46.1321 14.222V20.3612M6.86792 14.222L11.7704 11.7707M6.86792 14.222L11.7704 16.6732M6.86792 14.222V20.3612M26.5 48.5837L21.5975 46.1324M26.5 48.5837L31.4025 46.1324M26.5 48.5837V42.4445M41.2296 41.2299L46.1321 38.7787V32.6395M31.4025 6.86824L26.5 4.41699L21.5975 6.86824H31.4025ZM11.7704 41.2299L6.86792 38.7787V32.6395L11.7704 41.2299Z" stroke="white" stroke-width="1.5" stroke-linecap="round" stroke-linejoin="round"/>
<path d="M46.1314 14.221L41.2288 16.6723M46.1314 14.221L41.2288 11.7698M46.1314 14.221V20.3602M6.86719 14.221L11.7697 11.7698M6.86719 14.221L11.7697 16.6723M6.86719 14.221V20.3602M26.4993 48.5827L21.5968 46.1314M26.4993 48.5827L31.4018 46.1314M26.4993 48.5827V42.4435M31.4018 6.86727L26.4993 4.41602L21.5968 6.86727H31.4018ZM11.7697 41.2289L6.86719 38.7777V32.6385L11.7697 41.2289Z" stroke="#B9D043" stroke-width="1.5" stroke-linecap="round" stroke-linejoin="round"/>
</svg>
