<svg width="53" height="53" viewBox="0 0 53 53" fill="none" xmlns="http://www.w3.org/2000/svg">
<path d="M19.1462 30.917H8.83329C6.40413 30.917 4.41663 32.9045 4.41663 35.3337V48.5837H19.1462V30.917Z" stroke="white" stroke-width="1.5" stroke-miterlimit="10" stroke-linecap="round" stroke-linejoin="round"/>
<path d="M29.4371 22.083H23.5408C21.1116 22.083 19.1241 24.0705 19.1241 26.4997V48.583H33.8537V26.4997C33.8537 24.0705 31.8883 22.083 29.4371 22.083Z" stroke="white" stroke-width="1.5" stroke-miterlimit="10" stroke-linecap="round" stroke-linejoin="round"/>
<path d="M44.1667 37.542H33.8538V48.5837H48.5833V41.9587C48.5833 39.5295 46.5958 37.542 44.1667 37.542Z" stroke="white" stroke-width="1.5" stroke-miterlimit="10" stroke-linecap="round" stroke-linejoin="round"/>
<path d="M27.6484 4.57123L28.8188 6.91205C28.9733 7.2433 29.3929 7.55247 29.7463 7.59663L31.8663 7.94997C33.2134 8.17081 33.5446 9.16451 32.5729 10.1141L30.9167 11.7703C30.6296 12.0574 30.475 12.5874 30.5634 12.9629L31.0271 14.9946C31.4025 16.6066 30.5413 17.225 29.1279 16.3858L27.1404 15.2154C26.7871 14.9946 26.1909 14.9946 25.8375 15.2154L23.85 16.3858C22.4367 17.225 21.5754 16.6066 21.9508 14.9946L22.4146 12.9629C22.5029 12.5874 22.3484 12.0353 22.0613 11.7703L20.4271 10.1362C19.4554 9.16453 19.7646 8.19284 21.1338 7.97201L23.2538 7.61874C23.6071 7.55249 24.0267 7.24333 24.1813 6.93416L25.3517 4.59326C25.9921 3.31243 27.0079 3.31248 27.6484 4.57123Z" stroke="#B9D043" stroke-width="1.5" stroke-linecap="round" stroke-linejoin="round"/>
</svg>
