<svg width="53" height="53" viewBox="0 0 53 53" fill="none" xmlns="http://www.w3.org/2000/svg">
<path d="M19.8749 41.9583C19.8749 43.6146 19.4112 45.1825 18.5941 46.5075C17.0703 49.0692 14.2658 50.7917 11.0416 50.7917C7.81742 50.7917 5.01284 49.0692 3.48909 46.5075C2.67201 45.1825 2.20825 43.6146 2.20825 41.9583C2.20825 37.0779 6.16117 33.125 11.0416 33.125C15.922 33.125 19.8749 37.0779 19.8749 41.9583Z" stroke="#B9D043" stroke-width="1.5" stroke-miterlimit="10" stroke-linecap="round" stroke-linejoin="round"/>
<path d="M7.59961 41.9571L9.78586 44.1433L14.4896 39.793" stroke="#B9D043" stroke-width="1.5" stroke-linecap="round" stroke-linejoin="round"/>
<path d="M39.2009 15.569C38.6709 15.4807 38.1189 15.4586 37.5447 15.4586H15.4614C14.843 15.4586 14.2468 15.5028 13.6726 15.5911C13.9818 14.9728 14.4234 14.3987 14.9534 13.8687L22.1305 6.66949C25.1559 3.66616 30.0584 3.66616 33.0839 6.66949L36.9484 10.5782C38.3618 11.9694 39.1126 13.7361 39.2009 15.569Z" stroke="#B9D043" stroke-width="1.5" stroke-linecap="round" stroke-linejoin="round"/>
<path d="M48.5834 26.4997V37.5413C48.5834 44.1663 44.1668 48.583 37.5418 48.583H16.8497C17.5343 48.0088 18.1305 47.3022 18.5942 46.5072C19.4113 45.1822 19.8751 43.6143 19.8751 41.958C19.8751 37.0776 15.9222 33.1247 11.0417 33.1247C8.39175 33.1247 6.02883 34.2951 4.41675 36.128V26.4997C4.41675 20.493 8.03841 16.2972 13.6697 15.5905C14.2438 15.5022 14.8401 15.458 15.4584 15.458H37.5418C38.1159 15.458 38.668 15.4801 39.198 15.5684C44.8955 16.2309 48.5834 20.4488 48.5834 26.4997Z" stroke="white" stroke-width="1.5" stroke-linecap="round" stroke-linejoin="round"/>
<path d="M48.5834 27.6045H41.9584C39.5292 27.6045 37.5417 29.592 37.5417 32.0212C37.5417 34.4503 39.5292 36.4378 41.9584 36.4378H48.5834" stroke="white" stroke-width="1.5" stroke-linecap="round" stroke-linejoin="round"/>
</svg>
