<svg width="53" height="53" viewBox="0 0 53 53" fill="none" xmlns="http://www.w3.org/2000/svg">
<path d="M18.5059 26.5004L23.8279 31.8446L34.4942 21.1562" stroke="#B9D043" stroke-width="1.5" stroke-linecap="round" stroke-linejoin="round"/>
<path d="M23.7396 5.41078C25.2634 4.10786 27.7588 4.10786 29.3046 5.41078L32.7938 8.41411C33.4563 8.98828 34.6929 9.45203 35.5763 9.45203H39.3304C41.6713 9.45203 43.5925 11.3733 43.5925 13.7141V17.4683C43.5925 18.3295 44.0563 19.5883 44.6304 20.2508L47.6338 23.7399C48.9367 25.2637 48.9367 27.7591 47.6338 29.305L44.6304 32.7941C44.0563 33.4566 43.5925 34.6933 43.5925 35.5766V39.3308C43.5925 41.6716 41.6713 43.5929 39.3304 43.5929H35.5763C34.715 43.5929 33.4563 44.0566 32.7938 44.6308L29.3046 47.6341C27.7809 48.937 25.2854 48.937 23.7396 47.6341L20.2504 44.6308C19.5879 44.0566 18.3513 43.5929 17.4679 43.5929H13.6475C11.3067 43.5929 9.38544 41.6716 9.38544 39.3308V35.5545C9.38544 34.6933 8.92169 33.4566 8.36961 32.7941L5.38836 29.2829C4.10753 27.7591 4.10753 25.2858 5.38836 23.762L8.36961 20.2508C8.92169 19.5883 9.38544 18.3516 9.38544 17.4904V13.692C9.38544 11.3512 11.3067 9.42995 13.6475 9.42995H17.4679C18.3292 9.42995 19.5879 8.9662 20.2504 8.39203L23.7396 5.41078Z" stroke="white" stroke-width="1.5" stroke-linecap="round" stroke-linejoin="round"/>
</svg>
