<svg width="53" height="53" viewBox="0 0 53 53" fill="none" xmlns="http://www.w3.org/2000/svg">
<path d="M13.4497 29.326H20.2734V45.226C20.2734 48.936 22.283 49.6868 24.7343 46.9043L41.4513 27.9127C43.5051 25.5939 42.6438 23.6727 39.5301 23.6727H32.7063V7.77266C32.7063 4.06266 30.6968 3.31183 28.2455 6.09433L11.5284 25.086C9.49675 27.4268 10.358 29.326 13.4497 29.326Z" stroke="#B9D043" stroke-width="1.5" stroke-miterlimit="10" stroke-linecap="round" stroke-linejoin="round"/>
<path d="M24.7343 46.9043C22.283 49.6868 20.2734 48.936 20.2734 45.226V29.326H13.4497C10.358 29.326 9.49675 27.4268 11.5284 25.086L28.2455 6.09433C30.6968 3.31183 32.7063 4.06266 32.7063 7.77266" stroke="white" stroke-width="1.5" stroke-miterlimit="10" stroke-linecap="round" stroke-linejoin="round"/>
</svg>
