<svg width="53" height="53" viewBox="0 0 53 53" fill="none" xmlns="http://www.w3.org/2000/svg">
<path d="M26.8313 36.4375V41.075" stroke="#B9D043" stroke-width="1.5" stroke-linecap="round" stroke-linejoin="round"/>
<path d="M15.7896 48.583H37.8729V46.3747C37.8729 43.9455 35.8854 41.958 33.4562 41.958H20.2062C17.777 41.958 15.7896 43.9455 15.7896 46.3747V48.583V48.583Z" stroke="#B9D043" stroke-width="1.5" stroke-miterlimit="10"/>
<path d="M13.5813 48.583H40.0813" stroke="#B9D043" stroke-width="1.5" stroke-linecap="round" stroke-linejoin="round"/>
<path d="M26.5001 35.3337C17.9538 35.3337 11.0417 28.4216 11.0417 19.8753V13.2503C11.0417 8.36991 14.9947 4.41699 19.8751 4.41699H33.1251C38.0055 4.41699 41.9584 8.36991 41.9584 13.2503V19.8753C41.9584 28.4216 35.0463 35.3337 26.5001 35.3337Z" stroke="white" stroke-width="1.5" stroke-linecap="round" stroke-linejoin="round"/>
<path d="M12.0795 25.7273C10.4232 25.1973 8.96572 24.2256 7.81738 23.0773C5.82988 20.8689 4.50488 18.2189 4.50488 15.1273C4.50488 12.0356 6.93405 9.60645 10.0257 9.60645H11.4611C11.0195 10.6223 10.7986 11.7485 10.7986 12.9189V19.5439C10.7986 21.7523 11.2624 23.8281 12.0795 25.7273Z" stroke="white" stroke-width="1.5" stroke-linecap="round" stroke-linejoin="round"/>
<path d="M40.9204 25.7273C42.5767 25.1973 44.0342 24.2256 45.1825 23.0773C47.17 20.8689 48.495 18.2189 48.495 15.1273C48.495 12.0356 46.0658 9.60645 42.9742 9.60645H41.5387C41.9804 10.6223 42.2012 11.7485 42.2012 12.9189V19.5439C42.2012 21.7523 41.7375 23.8281 40.9204 25.7273Z" stroke="white" stroke-width="1.5" stroke-linecap="round" stroke-linejoin="round"/>
</svg>
