<svg width="133" height="318" viewBox="0 0 133 318" fill="none" xmlns="http://www.w3.org/2000/svg">
<g clip-path="url(#clip0_585_199)">
<mask id="mask0_585_199" style="mask-type:luminance" maskUnits="userSpaceOnUse" x="0" y="0" width="133" height="318">
<path d="M132.4 0.599615L0.400391 0.599609L0.400377 317.4L132.4 317.4L132.4 0.599615Z" fill="white"/>
</mask>
<g mask="url(#mask0_585_199)">
<g opacity="0.3">
<path d="M122.752 123.379C122.862 166.849 123.292 216.579 123.602 229.929C123.922 252.729 123.182 265.719 122.332 272.579C121.482 279.539 119.042 301.399 110.972 306.599C102.912 311.669 86.3516 315.929 66.4016 315.929C46.4416 315.929 29.9916 311.669 21.8216 306.599C13.7516 301.519 11.3116 279.539 10.4616 272.579C9.61162 265.719 8.87162 252.729 9.19162 229.929C9.40162 216.579 9.93162 166.849 10.0416 123.379" stroke="white" stroke-width="1.46667" stroke-linecap="round" stroke-linejoin="round"/>
<path d="M10.0504 112.39C10.0504 86.0496 9.94039 63.5996 9.41039 55.5696C8.03039 33.5996 14.5004 23.6696 14.5004 23.6696C26.3904 -0.780414 66.4004 2.16959 66.4004 2.16959" stroke="white" stroke-width="1.46667" stroke-linecap="round" stroke-linejoin="round"/>
<path d="M66.4013 2.16969C66.4013 2.16969 106.311 -0.780312 118.201 23.7897C118.201 23.7897 124.671 33.7097 123.291 55.6797C122.761 63.7197 122.661 86.1597 122.661 112.51" stroke="white" stroke-width="1.46667" stroke-linecap="round" stroke-linejoin="round"/>
<path d="M12.5906 122.42C12.9106 122.3 13.1206 122.07 13.1206 121.83C13.5506 120.53 14.2906 116.99 12.1706 112.38C11.9506 111.91 11.5306 111.79 11.1106 111.91C8.98062 112.62 2.83062 115.45 1.87062 124.78C1.87062 125.49 2.51062 126.09 3.15062 125.85L12.5906 122.42Z" stroke="white" stroke-width="1.46667" stroke-linejoin="round"/>
<path d="M120.231 122.42C119.911 122.3 119.701 122.07 119.701 121.83C119.271 120.53 118.531 116.99 120.651 112.38C120.861 111.91 121.291 111.79 121.711 111.91C123.841 112.62 129.991 115.45 130.951 124.78C130.951 125.49 130.311 126.09 129.671 125.85L120.231 122.42Z" stroke="white" stroke-width="1.46667" stroke-linejoin="round"/>
<path d="M113.092 91.3594C106.932 46.8294 93.8818 13.5094 93.8818 13.5094C84.1118 8.66938 66.3918 9.13938 66.3918 9.13938C66.3918 9.13938 48.6618 8.78938 38.9018 13.5094C38.9018 13.5094 25.7418 46.7094 19.6918 91.3594" stroke="white" stroke-width="1.46667" stroke-linecap="round" stroke-linejoin="round"/>
<path d="M49.1914 10.5596C49.1914 10.5596 44.4114 40.0896 43.0314 63.4796" stroke="white" stroke-width="1.46667" stroke-linecap="round" stroke-linejoin="round"/>
<path d="M83.5802 10.5596C83.5802 10.5596 88.3602 40.0896 89.7402 63.4796" stroke="white" stroke-width="1.46667" stroke-linecap="round" stroke-linejoin="round"/>
<path d="M102.801 131.529C102.801 131.529 100.151 147.949 99.6208 174.169C99.0908 200.519 98.5608 236.189 98.5608 236.189" stroke="white" stroke-width="1.46667" stroke-linecap="round" stroke-linejoin="round"/>
<path d="M29.5508 131.529C29.5508 131.529 32.2108 147.949 32.7408 174.169C33.2708 200.519 33.8008 236.189 33.8008 236.189" stroke="white" stroke-width="1.46667" stroke-linecap="round" stroke-linejoin="round"/>
<path d="M115.002 196.379C115.002 196.379 114.362 245.759 109.162 271.039C103.962 296.319 98.1219 305.419 98.1219 305.419" stroke="white" stroke-width="1.46667" stroke-linecap="round" stroke-linejoin="round"/>
<path d="M17.6708 195.669C17.6708 195.669 18.3108 245.759 23.5108 271.039C28.7108 296.319 34.5508 305.419 34.5508 305.419" stroke="white" stroke-width="1.46667" stroke-linecap="round" stroke-linejoin="round"/>
<path d="M14.392 34.0694C13.122 47.8894 34.662 22.9694 34.242 13.6294C34.242 13.6294 15.672 20.2494 14.392 34.0694Z" stroke="white" stroke-width="1.46667" stroke-linejoin="round"/>
<path d="M118.401 34.0694C119.571 47.8894 98.1311 22.9694 98.5511 13.6294C98.5511 13.6294 117.131 20.2494 118.401 34.0694Z" stroke="white" stroke-width="1.46667" stroke-linejoin="round"/>
<path d="M37.7402 310.019C37.7402 310.019 26.2402 307.059 21.5702 301.629C17.0102 296.189 13.0102 273.989 13.0102 273.989L37.7402 310.019Z" stroke="white" stroke-width="1.46667" stroke-linejoin="round"/>
<path d="M95.0415 310.019C95.0415 310.019 106.431 307.059 111.101 301.629C115.661 296.189 119.771 273.989 119.771 273.989L95.0415 310.019Z" stroke="white" stroke-width="1.46667" stroke-linejoin="round"/>
<path d="M45.8404 174.169C43.1804 174.169 41.0604 171.809 41.0604 168.859L41.0604 146.769C41.0604 143.819 43.1804 141.449 45.8404 141.449L87.1204 141.449C89.7804 141.449 91.9004 143.819 91.9004 146.769L91.9004 168.979C91.7904 171.809 89.6704 174.169 87.0204 174.169L45.8404 174.169Z" stroke="white" stroke-width="1.46667" stroke-linejoin="round"/>
<path d="M97.8215 250.599C99.7315 250.839 101.221 252.609 101.111 254.739C100.791 261.109 99.7315 274.939 96.8715 290.879C95.7015 297.259 91.2415 302.219 85.5115 303.409C81.1615 304.229 75.0015 304.939 66.5115 304.939C58.0215 304.939 51.8615 304.229 47.5115 303.409C41.7815 302.219 37.2215 297.259 36.1515 290.879C33.2915 274.939 32.2315 261.109 31.9115 254.739C31.8015 252.609 33.1815 250.719 35.2015 250.599C51.8615 248.949 66.4015 249.179 66.4015 249.179C66.4015 249.179 80.8415 248.949 97.8215 250.599Z" stroke="white" stroke-width="1.46667" stroke-linejoin="round"/>
<path d="M113.111 91.4794C113.111 91.4794 109.081 119.479 104.731 131.999C104.731 131.999 85.5213 127.159 66.4113 127.159C47.2013 127.159 28.1013 131.999 28.1013 131.999C23.7513 119.359 19.7113 91.4794 19.7113 91.4794C38.8213 73.4094 66.4113 76.7194 66.4113 76.7194C66.4113 76.7194 93.9013 73.4094 113.111 91.4794Z" stroke="white" stroke-width="1.46667" stroke-linejoin="round"/>
<path d="M26.182 147.59C25.972 156.09 27.672 222.13 25.862 239.5C25.762 240.32 24.692 240.44 24.482 239.73C22.572 234.53 18.752 220.95 17.802 195.79C16.422 162.24 15.882 103.29 15.882 103.29C15.882 103.29 26.292 138.49 26.182 147.59Z" stroke="white" stroke-width="1.46667" stroke-linejoin="round"/>
<path d="M106.651 147.59C106.861 156.09 105.171 222.13 106.971 239.5C107.081 240.32 108.141 240.44 108.351 239.73C110.261 234.53 114.081 220.95 115.041 195.79C116.421 162.24 116.951 103.29 116.951 103.29C116.951 103.29 106.551 138.49 106.651 147.59Z" stroke="white" stroke-width="1.46667" stroke-linejoin="round"/>
</g>
</g>
</g>
<defs>
<clipPath id="clip0_585_199">
<rect width="316.801" height="132" fill="white" transform="translate(132.4 0.599609) rotate(90)"/>
</clipPath>
</defs>
</svg>
