<svg width="317" height="132" viewBox="0 0 317 132" fill="none" xmlns="http://www.w3.org/2000/svg">
<g clip-path="url(#clip0_585_199)">
<mask id="mask0_585_199" style="mask-type:luminance" maskUnits="userSpaceOnUse" x="0" y="0" width="317" height="132">
<path d="M0 0L0 132L316.8 132V0L0 0Z" fill="white"/>
</mask>
<g mask="url(#mask0_585_199)">
<g opacity="0.3">
<path d="M122.779 9.65023C166.249 9.54023 215.979 9.11023 229.329 8.80023C252.129 8.48023 265.119 9.22023 271.979 10.0702C278.939 10.9202 300.799 13.3602 305.999 21.4302C311.069 29.4902 315.329 46.0502 315.329 66.0002C315.329 85.9602 311.069 102.41 305.999 110.58C300.919 118.65 278.939 121.09 271.979 121.94C265.119 122.79 252.129 123.53 229.329 123.21C215.979 123 166.249 122.47 122.779 122.36" stroke="white" stroke-width="1.46667" stroke-linecap="round" stroke-linejoin="round"/>
<path d="M111.79 122.35C85.4505 122.35 63.0005 122.46 54.9705 122.99C33.0005 124.37 23.0705 117.9 23.0705 117.9C-1.37953 106.01 1.57047 66 1.57047 66" stroke="white" stroke-width="1.46667" stroke-linecap="round" stroke-linejoin="round"/>
<path d="M1.56959 66.0001C1.56959 66.0001 -1.38041 26.0901 23.1896 14.2001C23.1896 14.2001 33.1096 7.73007 55.0796 9.11007C63.1196 9.64007 85.5596 9.74007 111.91 9.74007" stroke="white" stroke-width="1.46667" stroke-linecap="round" stroke-linejoin="round"/>
<path d="M121.819 119.81C121.699 119.49 121.469 119.28 121.229 119.28C119.929 118.85 116.389 118.11 111.779 120.23C111.309 120.45 111.189 120.87 111.309 121.29C112.019 123.42 114.849 129.57 124.179 130.53C124.889 130.53 125.489 129.89 125.249 129.25L121.819 119.81Z" stroke="white" stroke-width="1.46667" stroke-linejoin="round"/>
<path d="M121.819 12.1702C121.699 12.4902 121.469 12.7002 121.229 12.7002C119.929 13.1302 116.389 13.8702 111.779 11.7502C111.309 11.5402 111.189 11.1102 111.309 10.6902C112.019 8.56019 114.849 2.4102 124.179 1.4502C124.889 1.4502 125.489 2.0902 125.249 2.7302L121.819 12.1702Z" stroke="white" stroke-width="1.46667" stroke-linejoin="round"/>
<path d="M90.7598 19.3101C46.2298 25.4701 12.9098 38.5201 12.9098 38.5201C8.06977 48.2901 8.53977 66.0101 8.53977 66.0101C8.53977 66.0101 8.18977 83.7401 12.9098 93.5001C12.9098 93.5001 46.1098 106.66 90.7598 112.71" stroke="white" stroke-width="1.46667" stroke-linecap="round" stroke-linejoin="round"/>
<path d="M9.95898 83.21C9.95898 83.21 39.489 87.99 62.879 89.37" stroke="white" stroke-width="1.46667" stroke-linecap="round" stroke-linejoin="round"/>
<path d="M9.95898 48.8202C9.95898 48.8202 39.489 44.0402 62.879 42.6602" stroke="white" stroke-width="1.46667" stroke-linecap="round" stroke-linejoin="round"/>
<path d="M130.93 29.6001C130.93 29.6001 147.35 32.2501 173.57 32.7801C199.92 33.3101 235.59 33.8401 235.59 33.8401" stroke="white" stroke-width="1.46667" stroke-linecap="round" stroke-linejoin="round"/>
<path d="M130.93 102.85C130.93 102.85 147.35 100.19 173.57 99.6601C199.92 99.1301 235.59 98.6001 235.59 98.6001" stroke="white" stroke-width="1.46667" stroke-linecap="round" stroke-linejoin="round"/>
<path d="M195.779 17.4004C195.779 17.4004 245.159 18.0404 270.439 23.2404C295.719 28.4404 304.819 34.2804 304.819 34.2804" stroke="white" stroke-width="1.46667" stroke-linecap="round" stroke-linejoin="round"/>
<path d="M195.07 114.73C195.07 114.73 245.16 114.09 270.44 108.89C295.72 103.69 304.82 97.8501 304.82 97.8501" stroke="white" stroke-width="1.46667" stroke-linecap="round" stroke-linejoin="round"/>
<path d="M33.4693 118.01C47.2893 119.28 22.3693 97.7404 13.0293 98.1604C13.0293 98.1604 19.6493 116.73 33.4693 118.01Z" stroke="white" stroke-width="1.46667" stroke-linejoin="round"/>
<path d="M33.4693 14.0003C47.2893 12.8303 22.3693 34.2703 13.0293 33.8503C13.0293 33.8503 19.6493 15.2703 33.4693 14.0003Z" stroke="white" stroke-width="1.46667" stroke-linejoin="round"/>
<path d="M309.421 94.6602C309.421 94.6602 306.461 106.16 301.031 110.83C295.591 115.39 273.391 119.39 273.391 119.39L309.421 94.6602Z" stroke="white" stroke-width="1.46667" stroke-linejoin="round"/>
<path d="M309.421 37.3604C309.421 37.3604 306.461 25.9704 301.031 21.3004C295.591 16.7404 273.391 12.6304 273.391 12.6304L309.421 37.3604Z" stroke="white" stroke-width="1.46667" stroke-linejoin="round"/>
<path d="M173.57 86.56C173.57 89.22 171.21 91.34 168.26 91.34H146.17C143.22 91.34 140.85 89.22 140.85 86.56V45.28C140.85 42.62 143.22 40.5 146.17 40.5H168.38C171.21 40.61 173.57 42.73 173.57 45.38V86.56Z" stroke="white" stroke-width="1.46667" stroke-linejoin="round"/>
<path d="M249.999 34.5804C250.239 32.6704 252.009 31.1804 254.139 31.2904C260.509 31.6104 274.339 32.6704 290.279 35.5304C296.659 36.7004 301.619 41.1604 302.809 46.8904C303.629 51.2404 304.339 57.4004 304.339 65.8904C304.339 74.3804 303.629 80.5404 302.809 84.8904C301.619 90.6204 296.659 95.1804 290.279 96.2504C274.339 99.1104 260.509 100.17 254.139 100.49C252.009 100.6 250.119 99.2204 249.999 97.2004C248.349 80.5404 248.579 66.0004 248.579 66.0004C248.579 66.0004 248.349 51.5604 249.999 34.5804Z" stroke="white" stroke-width="1.46667" stroke-linejoin="round"/>
<path d="M90.8808 19.29C90.8808 19.29 118.881 23.32 131.401 27.67C131.401 27.67 126.561 46.88 126.561 65.99C126.561 85.2 131.401 104.3 131.401 104.3C118.761 108.65 90.8808 112.69 90.8808 112.69C72.8108 93.58 76.1208 65.99 76.1208 65.99C76.1208 65.99 72.8108 38.5 90.8808 19.29Z" stroke="white" stroke-width="1.46667" stroke-linejoin="round"/>
<path d="M146.989 106.22C155.489 106.43 221.529 104.73 238.899 106.54C239.719 106.64 239.839 107.71 239.129 107.92C233.929 109.83 220.349 113.65 195.189 114.6C161.639 115.98 102.689 116.52 102.689 116.52C102.689 116.52 137.889 106.11 146.989 106.22Z" stroke="white" stroke-width="1.46667" stroke-linejoin="round"/>
<path d="M146.989 25.7502C155.489 25.5402 221.529 27.2302 238.899 25.4302C239.719 25.3202 239.839 24.2602 239.129 24.0502C233.929 22.1402 220.349 18.3202 195.189 17.3602C161.639 15.9802 102.689 15.4502 102.689 15.4502C102.689 15.4502 137.889 25.8502 146.989 25.7502Z" stroke="white" stroke-width="1.46667" stroke-linejoin="round"/>
</g>
</g>
</g>
<defs>
<clipPath id="clip0_585_199">
<rect width="316.801" height="132" fill="white"/>
</clipPath>
</defs>
</svg>
