<svg width="1729" height="492" viewBox="0 0 1729 492" fill="none" xmlns="http://www.w3.org/2000/svg">
<path d="M199 359.342C199 344.758 203.95 332.517 213.84 322.625C224.26 312.208 236.76 307 251.34 307H370.87L350.56 249.183C342.23 227.833 333.9 207.782 325.56 189.032C317.75 169.76 308.63 152.312 298.21 136.687C288.84 121.062 278.16 112.729 266.18 111.687C253.68 112.729 242.49 121.062 232.59 136.687C222.7 152.312 213.58 169.76 205.25 189.032C197.43 207.782 189.36 227.833 181.03 249.183L106.81 452.32C101.6 463.25 94.8297 472.37 86.4997 479.66C78.6797 486.42 66.7098 489.82 50.5598 489.82C35.4598 489.82 22.9598 484.6 13.0598 474.18C3.67978 463.77 -0.490217 451.27 0.559783 436.68C1.07978 429.92 2.64972 423.67 5.24972 417.93L91.1798 196.062C115.15 137.729 139.1 90.593 163.06 54.657C186.5 19.24 220.87 1.271 266.18 0.75C310.98 1.271 345.09 19.24 368.53 54.657C392.49 89.552 416.45 136.687 440.41 196.062L526.34 417.93C528.95 423.67 530.51 429.92 531.03 436.68C532.07 451.27 527.65 463.77 517.75 474.18C508.37 484.6 496.13 489.82 481.03 489.82C463.84 489.82 451.08 486.42 442.75 479.66C434.93 472.37 428.42 463.25 423.21 452.32L408.37 411.68H251.34C236.76 411.68 224.51 406.48 214.62 396.07C204.21 386.17 199 373.925 199 359.342ZM594.31 71.843C594.31 57.26 599.26 45.021 609.16 35.125C619.57 24.708 632.07 19.5 646.66 19.5H1101.34C1115.92 19.5 1128.42 24.448 1138.84 34.343C1148.74 44.76 1153.68 57.26 1153.68 71.843C1153.68 86.427 1148.48 98.927 1138.06 109.343C1128.16 119.24 1115.92 124.187 1101.34 124.187H927.12V440.59C924 471.84 906.81 488.77 875.56 491.37C860.98 491.37 848.21 486.68 837.28 477.32C826.86 467.42 821.66 455.17 821.66 440.59V124.187H646.66C632.07 124.187 619.83 118.979 609.93 108.562C599.51 98.667 594.31 86.427 594.31 71.843ZM1219.31 428.09C1219.31 413.51 1224.26 401.27 1234.16 391.37C1244.57 380.958 1257.07 375.75 1271.66 375.75H1421.66V124.187H1271.66C1257.07 124.187 1244.83 118.979 1234.93 108.562C1224.51 98.667 1219.31 86.427 1219.31 71.843C1219.31 57.26 1224.26 45.021 1234.16 35.125C1244.57 24.708 1257.07 19.5 1271.66 19.5H1676.34C1690.92 19.5 1703.42 24.448 1713.84 34.343C1723.74 44.76 1728.68 57.26 1728.68 71.843C1728.68 86.427 1723.48 98.927 1713.06 109.343C1703.16 119.24 1690.92 124.187 1676.34 124.187H1527.12V375.75H1676.34C1690.92 375.75 1703.42 380.7 1713.84 390.59C1723.74 401.01 1728.68 413.51 1728.68 428.09C1728.68 442.67 1723.48 455.18 1713.06 465.59C1703.16 475.49 1690.92 480.43 1676.34 480.43H1271.66C1257.07 480.43 1244.83 475.23 1234.93 464.82C1224.51 454.92 1219.31 442.67 1219.31 428.09Z" fill="black"/>
</svg>
