<svg width="640" height="496" viewBox="0 0 640 496" fill="none" xmlns="http://www.w3.org/2000/svg">
<g clip-path="url(#clip0_508_558)">
<path d="M389.433 363.655L388.743 327.04C388.232 299.958 381.712 279.119 369.186 264.513C356.651 249.913 339.241 242.822 316.95 243.244C294.66 243.666 277.548 251.36 265.625 266.322C253.695 281.291 247.984 302.362 248.498 329.539L249.188 366.293C249.698 393.281 256.214 414.076 268.747 428.675C274.038 434.839 280.208 439.668 287.257 443.151C296.896 447.925 308.183 450.183 321.112 449.943C327.812 449.82 334.05 449.031 339.811 447.577C353.147 444.218 363.978 437.317 372.307 426.865C384.237 411.897 389.943 390.824 389.433 363.655ZM337.795 403.533C334.145 410.374 328.36 413.867 320.439 414.017C312.238 414.172 306.189 410.811 302.279 403.925C299.614 399.233 297.79 392.645 296.809 384.161C296.81 384.155 296.811 384.148 296.811 384.148C296.808 384.135 296.81 384.122 296.807 384.104C296.353 380.171 296.084 375.827 295.998 371.08L295.031 319.676C295.053 306.223 296.822 296.148 300.335 289.447C303.849 282.748 309.616 279.318 317.628 279.172C323.742 279.053 328.663 280.95 332.389 284.85L332.396 284.851C333.664 286.184 334.797 287.742 335.79 289.54C339.7 296.607 341.791 307.377 342.06 321.833L342.998 371.574C343.181 386.04 341.447 396.688 337.795 403.533Z" fill="#B9D043"/>
<path d="M300.594 -204V282.072" stroke="#354650" stroke-width="0.9195" stroke-miterlimit="10"/>
<path d="M470.102 -268V225" stroke="#354650" stroke-width="0.9195" stroke-miterlimit="10"/>
<path d="M265.765 189.149C270.48 189.149 274.302 185.327 274.302 180.613C274.302 175.899 270.48 172.077 265.765 172.077C261.051 172.077 257.229 175.899 257.229 180.613C257.229 185.327 261.051 189.149 265.765 189.149Z" fill="white"/>
<path d="M562.757 297.624C567.471 297.624 571.293 293.802 571.293 289.088C571.293 284.373 567.471 280.552 562.757 280.552C558.042 280.552 554.221 284.373 554.221 289.088C554.221 293.802 558.042 297.624 562.757 297.624Z" fill="#FEFEFF"/>
<path d="M116.458 235.302C121.172 235.302 124.994 231.48 124.994 226.766C124.994 222.051 121.172 218.229 116.458 218.229C111.744 218.229 107.922 222.051 107.922 226.766C107.922 231.48 111.744 235.302 116.458 235.302Z" fill="#9DC2E7"/>
<path d="M257.23 496.342C261.945 496.342 265.766 492.52 265.766 487.806C265.766 483.091 261.945 479.27 257.23 479.27C252.516 479.27 248.694 483.091 248.694 487.806C248.694 492.52 252.516 496.342 257.23 496.342Z" fill="#F7F7F7"/>
<path d="M513.96 209.6C515.779 209.6 517.253 208.126 517.253 206.308C517.253 204.49 515.779 203.016 513.96 203.016C512.142 203.016 510.668 204.49 510.668 206.308C510.668 208.126 512.142 209.6 513.96 209.6Z" fill="white"/>
<path d="M262.473 260.866C264.291 260.866 265.765 259.392 265.765 257.574C265.765 255.755 264.291 254.281 262.473 254.281C260.655 254.281 259.181 255.755 259.181 257.574C259.181 259.392 260.655 260.866 262.473 260.866Z" fill="#9DC2E7"/>
<path d="M163.984 216.288C165.802 216.288 167.276 214.814 167.276 212.995C167.276 211.177 165.802 209.703 163.984 209.703C162.165 209.703 160.691 211.177 160.691 212.995C160.691 214.814 162.165 216.288 163.984 216.288Z" fill="#6561AB"/>
<path d="M562.756 370.174L550.475 334.149L529.967 341.135L488.081 218.23L441.383 234.141L441.523 234.559L426.461 299.574L405.031 392.067L417.533 419.669L461.627 404.643L477.679 399.171L495.548 393.079L510.137 435.897L556.836 419.987L542.246 377.169L562.756 370.174ZM477.844 358.9L467.252 362.511L446.965 369.425L460.811 300.676L462.113 294.972L483.267 357.051L477.844 358.9Z" fill="white"/>
<path opacity="0.25" d="M542.246 377.168L556.836 419.985L527.092 407.262L479.553 235.976L462.114 294.973L454.038 328.389L426.463 299.572L441.525 234.557L441.385 234.139L488.081 218.23L529.966 341.137L550.474 334.149L562.756 370.174L542.246 377.168Z" fill="#010101"/>
<path d="M186.102 -204V274" stroke="#354650" stroke-width="0.9195" stroke-miterlimit="10"/>
<path d="M221.805 233.384L174.561 225.266L174.487 225.689L70.1544 343.155L68 372.519L82.9644 375.091L108.865 379.543L143.631 385.519L146.936 386.084L144.449 400.568L143.295 407.269L139.494 429.405L170.244 434.691L186.739 437.523L194.18 394.202L214.934 397.762L221.197 361.306L200.442 357.745L221.805 233.384ZM162.827 293.578L153.192 349.628L141.667 347.644L116.459 343.317L130.417 326.657L133.61 322.844L160.223 291.08L163.986 286.819L162.827 293.578Z" fill="white"/>
<path opacity="0.25" d="M200.443 357.746L221.197 361.306L214.934 397.763L194.18 394.202L186.738 437.523L170.244 434.69L199.234 253.807L221.805 233.384L200.443 357.746Z" fill="#010101"/>
<g filter="url(#filter0_d_508_558)">
<path d="M247.438 320.019C247.527 320.386 243.211 340.135 243.211 340.135L253.13 338.473L256.119 321.775L247.438 320.017V320.019Z" fill="#F7F7F7"/>
<path d="M243.184 340.562C243.067 340.562 242.957 340.516 242.875 340.43C242.778 340.327 242.737 340.183 242.768 340.045C244.436 332.413 246.923 320.84 246.985 320.043C246.979 319.927 247.022 319.81 247.104 319.723C247.205 319.618 247.355 319.571 247.496 319.6L256.178 321.359C256.405 321.406 256.555 321.625 256.514 321.853L253.525 338.551C253.494 338.728 253.354 338.868 253.175 338.897L243.256 340.558C243.233 340.562 243.209 340.564 243.186 340.564L243.184 340.562ZM247.761 320.525C247.547 321.804 246.727 325.915 243.736 339.61L252.736 338.104L255.599 322.113L247.761 320.525Z" fill="#575757"/>
<path d="M248.494 333.659C247.888 333.148 247.019 332.65 245.915 332.604C244.254 332.532 242.736 333.573 242.048 335.103C240.328 338.926 235.792 349.578 234.509 358.282C234.057 361.359 236.377 363.86 239.994 361.845C245.921 358.541 254.146 350.957 258.451 339.755C258.944 338.469 258.767 337.015 257.957 335.906C257.294 335 256.394 333.902 255.351 332.967C254.352 332.073 252.852 332.059 251.818 332.911L250.885 333.676C250.185 334.252 249.184 334.242 248.49 333.659H248.494Z" fill="#F7F7F7"/>
<path d="M237.526 363C236.624 363 235.977 362.687 235.584 362.417C234.385 361.589 233.802 359.98 234.06 358.219C235.337 349.544 239.78 339.041 241.632 334.927C242.407 333.205 244.114 332.101 245.908 332.177C246.914 332.22 247.894 332.62 248.743 333.333C249.277 333.782 250.055 333.788 250.591 333.347L251.524 332.581C252.737 331.584 254.457 331.613 255.613 332.649C256.513 333.456 257.411 334.466 258.279 335.654C259.175 336.878 259.379 338.47 258.828 339.908C254.531 351.089 246.376 358.763 240.18 362.217C239.135 362.8 238.25 363 237.529 363H237.526ZM245.731 333.028C244.345 333.028 243.024 333.918 242.409 335.279C240.573 339.36 236.167 349.775 234.904 358.343C234.692 359.782 235.137 361.072 236.068 361.713C237.007 362.361 238.317 362.275 239.76 361.47C245.826 358.091 253.812 350.57 258.027 339.601C258.476 338.435 258.311 337.146 257.588 336.157C256.754 335.018 255.899 334.051 255.042 333.285C254.202 332.533 252.951 332.513 252.064 333.24L251.132 334.006C250.276 334.709 249.04 334.7 248.191 333.986C247.48 333.388 246.697 333.065 245.869 333.03C245.822 333.028 245.777 333.026 245.731 333.026V333.028Z" fill="#575757"/>
<path d="M236.695 359.534C236.674 359.534 236.656 359.534 236.647 359.534C236.411 359.526 236.227 359.328 236.235 359.093C236.242 358.857 236.439 358.675 236.674 358.681C236.779 358.69 245.081 358.605 255.187 338.632C255.294 338.422 255.55 338.337 255.76 338.444C255.97 338.55 256.056 338.807 255.949 339.017C245.816 359.044 237.473 359.534 236.693 359.534H236.695Z" fill="#575757"/>
<path d="M243.037 348.497C242.985 348.497 242.932 348.487 242.88 348.467L238.177 346.611C237.957 346.524 237.85 346.277 237.936 346.058C238.023 345.838 238.27 345.731 238.49 345.817L243.193 347.673C243.412 347.76 243.519 348.007 243.434 348.226C243.368 348.394 243.206 348.497 243.035 348.497H243.037Z" fill="#575757"/>
<path d="M244.74 344.895C244.687 344.895 244.637 344.886 244.584 344.866L239.069 342.721C238.849 342.635 238.741 342.388 238.826 342.167C238.912 341.947 239.16 341.838 239.378 341.924L244.893 344.069C245.113 344.155 245.222 344.402 245.136 344.623C245.07 344.792 244.909 344.895 244.738 344.895H244.74Z" fill="#575757"/>
<path d="M289.758 319.966C289.83 320.115 290.38 322.434 290.811 326.34C291.526 332.849 284.242 338.875 284.242 338.875L301.498 336.549L300.839 321.486L289.76 319.964L289.758 319.966Z" fill="#F7F7F7"/>
<path d="M284.215 339.304C284.048 339.304 283.893 339.205 283.825 339.048C283.749 338.873 283.797 338.669 283.943 338.548C284.013 338.49 291.042 332.59 290.36 326.388C289.96 322.746 289.437 320.401 289.338 320.13C289.27 319.989 289.289 319.831 289.383 319.705C289.476 319.578 289.637 319.522 289.791 319.543L300.87 321.065C301.074 321.092 301.23 321.263 301.24 321.469L301.898 336.533C301.908 336.755 301.749 336.945 301.529 336.974L284.273 339.3C284.254 339.302 284.235 339.304 284.217 339.304H284.215ZM290.304 320.476C290.531 321.487 290.904 323.52 291.21 326.295C291.783 331.501 287.54 336.302 285.515 338.272L301.03 336.181L300.402 321.864L290.306 320.478L290.304 320.476Z" fill="#575757"/>
<path d="M294.68 332.94C293.738 332.444 293.009 331.748 291.915 331.566C290.267 331.288 288.955 332.139 288.096 333.567C285.946 337.137 280.211 347.115 277.94 355.571C277.137 358.56 279.162 361.324 282.996 359.779C289.278 357.246 298.336 350.761 303.904 340.21C304.543 338.999 304.324 337.635 303.851 336.339C303.433 335.194 301.735 331.286 300.802 330.231C299.91 329.222 297.667 334.51 294.68 332.94Z" fill="#F7F7F7"/>
<path d="M280.913 360.654C279.988 360.654 279.178 360.368 278.536 359.801C277.444 358.833 277.05 357.171 277.508 355.463C279.772 347.035 285.399 337.191 287.711 333.349C288.741 331.641 290.251 330.857 291.968 331.145C292.807 331.287 293.443 331.691 294.057 332.082C294.315 332.247 294.583 332.416 294.859 332.562C296.28 333.308 297.502 332.231 298.843 330.855C299.51 330.171 299.994 329.674 300.515 329.674C300.521 329.674 300.528 329.674 300.534 329.674C300.752 329.68 300.95 329.773 301.102 329.948C302.103 331.081 303.842 335.121 304.233 336.192C304.853 337.893 304.86 339.272 304.262 340.409C298.703 350.943 289.703 357.527 283.137 360.176C282.348 360.495 281.599 360.652 280.911 360.652L280.913 360.654ZM291.28 331.942C289.873 331.942 288.971 332.915 288.444 333.79C286.149 337.599 280.571 347.361 278.334 355.685C277.961 357.076 278.255 358.409 279.104 359.16C279.965 359.923 281.284 360.003 282.818 359.385C289.245 356.793 298.056 350.342 303.508 340.013C303.995 339.088 303.972 337.968 303.432 336.488C302.956 335.18 301.317 331.51 300.486 330.541C300.278 330.614 299.807 331.096 299.458 331.454C298.305 332.636 296.564 334.424 294.465 333.32C294.156 333.156 293.874 332.978 293.6 332.803C293.033 332.441 292.496 332.101 291.828 331.988C291.637 331.957 291.456 331.942 291.281 331.942H291.28Z" fill="#575757"/>
<path d="M280.448 357.117C280.171 357.117 280.005 357.093 279.961 357.088C279.727 357.051 279.57 356.831 279.607 356.598C279.644 356.367 279.86 356.207 280.095 356.244C280.206 356.26 288.481 357.21 300.823 338.705C300.954 338.508 301.22 338.456 301.416 338.586C301.612 338.716 301.665 338.983 301.535 339.179C290.358 355.937 282.452 357.117 280.448 357.117Z" fill="#575757"/>
<path d="M287.656 346.962C287.588 346.962 287.518 346.944 287.454 346.909L282.982 344.488C282.775 344.375 282.697 344.116 282.81 343.908C282.922 343.7 283.183 343.625 283.389 343.735L287.861 346.157C288.068 346.27 288.146 346.528 288.033 346.736C287.956 346.878 287.81 346.96 287.656 346.96V346.962Z" fill="#575757"/>
<path d="M289.724 343.601C289.66 343.601 289.596 343.587 289.533 343.556L284.698 341.146C284.486 341.042 284.401 340.785 284.506 340.573C284.611 340.361 284.867 340.276 285.079 340.381L289.914 342.791C290.126 342.896 290.212 343.152 290.107 343.364C290.031 343.514 289.881 343.601 289.724 343.601Z" fill="#575757"/>
<path d="M336.55 244.033C336.55 244.033 276.144 241.411 269.541 247.542C260.583 255.86 245.195 325.109 245.195 325.109L260.053 329.274C260.053 329.274 282.441 272.442 287.988 272.442C293.534 272.442 345.834 270.576 345.834 270.576L336.55 244.031V244.033Z" fill="white"/>
<path d="M348.442 242.124C348.442 242.124 356.408 265.511 350.068 269.777C343.729 274.043 298.031 273.68 299.617 273.147C301.201 272.615 303.704 311.442 303.704 326.374L289.317 326.93C289.317 326.93 266.388 266.881 268.858 260.177C273.279 248.182 307.317 245.434 318.208 243.83C320.45 243.5 348.442 242.126 348.442 242.126V242.124Z" fill="white"/>
<path d="M276.427 293.179C276.247 293.179 276.079 293.065 276.021 292.882C275.504 291.267 274.989 289.677 274.486 288.121C270.243 275.012 266.893 264.659 268.424 260.04C271.318 251.308 289.291 247.571 302.559 245.518C302.796 245.484 303.01 245.643 303.047 245.876C303.082 246.109 302.922 246.327 302.689 246.364C295.172 247.526 272.298 251.065 269.235 260.31C267.791 264.665 271.269 275.412 275.298 287.86C275.802 289.417 276.317 291.007 276.833 292.623C276.905 292.849 276.781 293.088 276.558 293.16C276.515 293.173 276.47 293.181 276.427 293.181V293.179Z" fill="#575757"/>
<path d="M304.711 136.15C308.899 132.067 315.126 131.208 319.806 132.358C325.729 133.816 328.716 138.432 330.821 141.689C334.545 147.445 332.747 149.529 335.674 152.871C340.857 158.793 353.431 154.873 359.553 159.421C374.263 170.349 366.244 188.409 353.206 196.935C344.511 202.621 332.683 199.333 329.465 198.437C319.697 195.722 303.514 190.403 301.948 177.697C300.894 169.155 310.572 162.307 305.374 155.186C304.05 153.373 302.952 152.881 301.969 150.613C300.371 146.93 300.012 140.731 304.711 136.148V136.15Z" fill="white"/>
<path d="M319.981 137.155C317.756 135.528 319.165 130.732 320.588 128.145C321.122 127.175 323.509 122.836 326.651 123.005C329.877 123.178 332.967 128.058 331.815 131.921C330.375 136.753 322.588 139.061 319.981 137.155Z" fill="white"/>
<path d="M335.415 172.176C335.415 172.176 346.586 167.28 353.33 213.699C353.33 213.699 341.764 238.655 341.558 242.161C341.352 245.667 310.938 244.143 310.938 244.143L310.244 191.875L303.148 191.532L304.668 179.254C305.613 175.676 309.595 173.103 312.271 172.147L335.415 172.172V172.176Z" fill="white"/>
<path d="M324.568 244.902C317.568 244.902 310.964 244.575 310.894 244.572C310.669 244.56 310.492 244.375 310.488 244.15L309.798 192.283L303.103 191.961C302.985 191.955 302.874 191.901 302.796 191.809C302.718 191.718 302.683 191.599 302.699 191.481L304.219 179.202C304.221 179.183 304.225 179.163 304.23 179.146C305.148 175.667 308.953 172.87 312.101 171.745C312.148 171.73 312.196 171.72 312.245 171.72L335.314 171.745C335.677 171.623 337.028 171.294 338.893 172.33C343.276 174.763 349.405 183.903 353.726 213.634C353.737 213.716 353.726 213.799 353.691 213.875C349.703 222.48 342.118 239.472 341.958 242.183C341.914 242.958 341.809 244.774 326.148 244.892C325.62 244.896 325.091 244.898 324.565 244.898L324.568 244.902ZM311.336 243.738C313.003 243.814 319.599 244.091 326.148 244.043C340.289 243.936 341.091 242.438 341.109 242.138C341.311 238.677 351.909 215.706 352.865 213.636C348.389 182.928 341.972 175.068 338.542 173.115C336.752 172.097 335.607 172.55 335.559 172.569C335.506 172.591 335.448 172.604 335.391 172.604L312.321 172.579C309.4 173.644 305.909 176.198 305.064 179.34L303.603 191.133L310.238 191.452C310.463 191.463 310.642 191.646 310.644 191.873L311.334 243.74L311.336 243.738Z" fill="#575757"/>
<path d="M312.588 169.801C312.588 169.801 312.491 169.826 312.308 169.886C310.619 170.44 301.67 173.95 295.894 187.745C290.911 199.644 273.445 197.926 273.445 197.926L273.589 209.429C273.589 209.429 301.161 212.836 309.834 204.474C310.376 203.951 312.588 169.801 312.588 169.801Z" fill="#F7F7F7"/>
<path d="M286.103 210.565C279.433 210.565 274.009 209.916 273.511 209.854C273.299 209.829 273.14 209.648 273.136 209.436L272.992 197.933C272.992 197.813 273.041 197.696 273.13 197.612C273.22 197.531 273.34 197.49 273.461 197.502C273.632 197.519 290.672 199.047 295.474 187.58C301.312 173.64 310.388 170.058 312.148 169.481C312.349 169.415 312.456 169.388 312.456 169.388C312.588 169.355 312.73 169.386 312.835 169.473C312.939 169.561 312.998 169.693 312.988 169.829C312.982 169.915 312.428 178.466 311.814 186.972C310.561 204.341 310.308 204.585 310.104 204.782C305.208 209.502 294.636 210.565 286.101 210.565H286.103ZM273.987 209.048C277.279 209.407 301.5 211.763 309.453 204.224C309.879 202.71 311.245 183.503 312.096 170.404C309.818 171.236 301.662 175.018 296.263 187.911C291.684 198.845 276.718 198.549 273.853 198.386L273.987 209.05V209.048Z" fill="#575757"/>
<path d="M296.859 243.632L303.623 179.617C304.071 176.62 306.623 172.939 309.128 171.266C310.11 170.611 311.28 170.071 312.654 169.799C312.654 169.799 313.491 240.932 313.513 243.583L296.861 243.63L296.859 243.632Z" fill="#F7F7F7"/>
<path d="M296.832 244.059C296.817 244.059 296.803 244.059 296.788 244.057C296.553 244.032 296.383 243.822 296.409 243.587L303.172 179.572C303.625 176.536 306.126 172.741 308.864 170.912C309.997 170.156 311.235 169.641 312.543 169.38C312.668 169.355 312.798 169.388 312.895 169.468C312.994 169.548 313.052 169.668 313.052 169.794C313.06 170.506 313.892 240.959 313.911 243.581C313.911 243.816 313.723 244.01 313.488 244.012H313.484C313.249 244.012 313.058 243.824 313.056 243.589C313.037 241.089 312.281 176.867 312.203 170.335C311.191 170.595 310.229 171.027 309.336 171.623C306.816 173.306 304.429 176.921 304.017 179.681L297.256 243.676C297.233 243.896 297.048 244.059 296.832 244.059Z" fill="#575757"/>
<path d="M325.728 207.323C325.66 207.323 325.592 207.307 325.53 207.274C317.844 203.224 317.352 192.333 317.336 191.87C317.327 191.635 317.511 191.437 317.746 191.427C317.974 191.416 318.18 191.602 318.189 191.837C318.193 191.946 318.683 202.699 325.928 206.516C326.138 206.627 326.218 206.885 326.107 207.093C326.031 207.239 325.882 207.321 325.728 207.321V207.323Z" fill="#575757"/>
<path d="M335.179 170.65C335.179 170.65 344.957 171.719 349.831 180.457C354.707 189.195 361.468 208.266 361.079 215.433C360.422 227.597 348.437 233.114 349.013 236.96C349.292 238.828 351.759 248.32 358.846 260.668C364.684 270.838 366.021 292.261 365.069 292.871C358.658 296.987 348.276 305.568 335.169 305.562C332.748 305.562 330.647 303.881 330.124 301.494C328.033 291.958 322.273 264.326 319.844 238.645C317.739 216.405 328.123 183.767 328.894 181.005C330.874 173.911 335.177 170.65 335.177 170.65H335.179Z" fill="#F7F7F7"/>
<path d="M335.184 305.986H335.168C332.519 305.986 330.273 304.174 329.705 301.584C327.412 291.13 321.819 264.074 319.417 238.685C318.151 225.31 321.263 205.147 328.18 181.909C328.323 181.429 328.424 181.083 328.481 180.889C330.477 173.739 334.737 170.445 334.917 170.309C335.005 170.243 335.114 170.214 335.223 170.225C335.324 170.237 345.276 171.42 350.203 180.247C354.956 188.767 361.912 207.93 361.506 215.455C361.092 223.104 356.336 228.132 352.863 231.801C350.842 233.937 349.246 235.624 349.435 236.895C349.713 238.756 352.191 248.213 359.216 260.453C362.576 266.307 364.236 275.394 364.926 280.292C365.482 284.233 366.304 292.582 365.299 293.227C364.38 293.818 363.366 294.508 362.291 295.24C355.636 299.775 346.524 305.984 335.184 305.984V305.986ZM335.3 171.098C334.572 171.714 331.023 174.955 329.303 181.118C329.249 181.316 329.144 181.666 329 182.152C322.114 205.285 319.012 225.333 320.268 238.603C322.666 263.945 328.252 290.961 330.541 301.399C331.023 303.595 332.925 305.129 335.17 305.131H335.184C346.261 305.131 355.248 299.007 361.811 294.535C362.864 293.818 363.861 293.138 364.773 292.551C365.358 291.015 364.133 270.734 358.476 260.879C351.382 248.522 348.873 238.918 348.59 237.021C348.339 235.338 349.975 233.608 352.241 231.214C355.623 227.64 360.254 222.745 360.652 215.408C361.018 208.641 354.55 189.794 349.456 180.663C345.101 172.859 336.618 171.296 335.302 171.098H335.3Z" fill="#575757"/>
<path d="M338.599 211.968C338.459 211.968 338.323 211.9 338.241 211.775C338.113 211.577 338.167 211.313 338.366 211.185C338.921 210.821 340.612 209.713 341.335 208.161C343.481 203.559 338.941 187.865 338.894 187.708C338.828 187.481 338.958 187.243 339.184 187.177C339.411 187.111 339.648 187.241 339.714 187.467C339.907 188.124 344.39 203.629 342.109 208.52C341.283 210.293 339.438 211.499 338.832 211.898C338.76 211.944 338.678 211.968 338.599 211.968Z" fill="#575757"/>
<path d="M308.096 215.369C307.874 215.369 307.686 215.196 307.67 214.971C306.84 202.999 307.544 192.186 307.55 192.077C307.565 191.842 307.775 191.665 308.004 191.678C308.239 191.694 308.418 191.898 308.403 192.133C308.395 192.24 307.697 202.999 308.523 214.91C308.539 215.145 308.362 215.35 308.127 215.365C308.117 215.365 308.107 215.365 308.098 215.365L308.096 215.369Z" fill="#575757"/>
<path d="M341.533 255.768C332.941 255.768 328.473 247.752 328.419 247.652C328.306 247.444 328.384 247.186 328.59 247.073C328.798 246.961 329.056 247.038 329.169 247.244C329.42 247.707 335.456 258.495 347.315 253.708C347.533 253.621 347.781 253.726 347.871 253.945C347.958 254.165 347.853 254.414 347.634 254.501C345.412 255.399 343.376 255.768 341.531 255.768H341.533Z" fill="#575757"/>
<path d="M289.418 214.784L282.318 214.716C281.193 214.716 280.507 213.861 279.943 212.852L271.293 194.815C270.687 193.293 272.084 191.777 273.676 191.779L280.775 191.847C281.9 191.847 282.715 192.743 283.15 193.711L291.8 211.746C292.535 213.14 291.009 214.784 289.418 214.782V214.784Z" fill="#B9D043"/>
<path d="M289.421 215.211C289.421 215.211 289.417 215.211 289.413 215.211L282.314 215.143C280.913 215.141 280.112 214.03 279.572 213.062L270.91 195.001C270.593 194.212 270.692 193.375 271.168 192.673C271.72 191.859 272.68 191.354 273.673 191.354H273.677L280.78 191.422C281.913 191.422 282.945 192.214 283.54 193.538L292.185 211.565C292.53 212.218 292.488 213.005 292.064 213.709C291.52 214.609 290.459 215.213 289.421 215.213V215.211ZM289.419 214.358C290.156 214.358 290.943 213.909 291.331 213.266C291.487 213.007 291.706 212.492 291.421 211.948L282.765 193.897C282.59 193.511 281.947 192.279 280.775 192.277L273.671 192.209H273.669C272.97 192.209 272.264 192.58 271.874 193.153C271.555 193.622 271.491 194.156 271.691 194.659L280.33 212.669C280.969 213.812 281.548 214.288 282.32 214.29L289.421 214.358H289.419Z" fill="#575757"/>
<path d="M273.734 200.193L274.651 202.203C275.018 203.04 275.877 203.579 276.721 203.18L282.609 200.759C283.56 200.308 284.697 200.784 285.025 201.781C285.697 203.82 286.121 206.574 277.014 210.266C271.45 212.521 271.252 206.412 272.159 202.687C272.562 201.035 273.736 200.195 273.736 200.195L273.734 200.193Z" fill="#F7F7F7"/>
<path d="M274.835 211.182C274.024 211.182 273.336 210.939 272.775 210.455C271.076 208.99 271.02 205.445 271.715 202.584C272.151 200.798 273.404 199.883 273.457 199.846C273.562 199.772 273.692 199.749 273.816 199.78C273.941 199.813 274.042 199.899 274.094 200.015L275.011 202.025C275.181 202.409 275.472 202.707 275.793 202.827C276.032 202.917 276.273 202.905 276.51 202.792L282.42 200.361C282.966 200.101 283.623 200.089 284.2 200.336C284.771 200.581 285.211 201.057 285.403 201.646C286.2 204.065 286.285 206.957 277.147 210.659C276.292 211.005 275.521 211.178 274.835 211.178V211.182ZM273.564 200.907C273.227 201.271 272.763 201.902 272.547 202.787C271.933 205.311 271.918 208.584 273.334 209.808C274.108 210.475 275.284 210.496 276.827 209.87C285.99 206.156 285.115 203.502 284.593 201.916C284.474 201.556 284.216 201.275 283.864 201.125C283.512 200.973 283.112 200.981 282.766 201.146L276.856 203.577C276.43 203.78 275.952 203.801 275.495 203.632C274.955 203.43 274.495 202.973 274.234 202.378L273.564 200.911V200.907Z" fill="#575757"/>
<path d="M312.369 198.975C312.369 198.975 323.769 209.948 331.321 214.377C335.849 217.033 336.467 213.831 340.222 216.106C345.279 219.171 347.988 221.859 341.641 230.247C336.244 237.377 326.742 231.003 309.988 206.974C309.203 205.849 307.92 205.149 306.579 204.85C304.9 204.475 302.459 203.146 301.338 198.738C301.338 198.738 293.395 199.865 292.695 195.994L304.622 194.095C306.22 193.811 307.856 194.338 308.987 195.502L312.369 198.975Z" fill="#F7F7F7"/>
<path d="M336.653 233.426C336.612 233.426 336.569 233.426 336.527 233.426C330.549 233.31 321.996 224.982 309.612 207.221C308.947 206.269 307.828 205.577 306.46 205.27C304.612 204.856 302.19 203.464 300.995 199.208C299.341 199.387 292.928 199.828 292.249 196.072C292.228 195.959 292.255 195.842 292.321 195.749C292.387 195.656 292.488 195.591 292.603 195.574L304.53 193.675C306.261 193.368 308.036 193.94 309.268 195.205L312.646 198.674C312.935 198.952 324.151 209.693 331.513 214.009C333.738 215.313 334.892 215.133 336.115 214.94C337.279 214.758 338.484 214.569 340.419 215.741C342.804 217.185 345.171 218.808 345.653 221.33C346.1 223.666 344.924 226.581 341.957 230.505C340.489 232.445 338.705 233.426 336.653 233.426ZM301.312 198.31C301.504 198.31 301.677 198.441 301.726 198.633C302.775 202.753 304.981 204.061 306.646 204.434C308.224 204.788 309.525 205.602 310.312 206.731C322.359 224.01 330.939 232.462 336.542 232.571C338.379 232.61 339.931 231.763 341.272 229.99C344.085 226.274 345.21 223.573 344.811 221.492C344.434 219.517 342.751 218.157 339.972 216.472C338.305 215.461 337.351 215.611 336.243 215.784C334.987 215.98 333.565 216.204 331.077 214.746C323.57 210.342 312.16 199.393 312.045 199.284C312.041 199.28 312.039 199.278 312.035 199.274L308.654 195.801C307.62 194.738 306.129 194.258 304.67 194.519L293.207 196.344C294.344 199.257 301.177 198.328 301.249 198.318C301.271 198.316 301.29 198.314 301.31 198.314L301.312 198.31Z" fill="#575757"/>
<path d="M315.73 161.148C314.819 161.605 313.705 161.45 312.982 160.729C312.131 159.879 311.445 158.978 310.889 158.062L309.832 158.084C309.494 158.091 309.212 157.827 309.196 157.489L309.057 154.302C309.031 153.709 308.862 153.134 308.592 152.605C308.081 151.6 307.857 150.732 307.797 150.003C307.671 148.467 309.039 145.71 310.423 145.033C312.298 144.118 315.684 143.622 317.452 146.281C318.212 147.424 319.444 148.242 320.192 148.11C320.896 147.985 321.184 147.383 321.529 146.761C322.175 145.601 323.78 144.511 325.323 146.343C326.487 147.727 326.184 149.027 325.552 150.189C324.987 151.231 324.754 153.031 325.024 154.183L327.311 163.927C327.898 166.433 329.69 168.483 332.092 169.404L334.539 170.343C334.539 170.343 331.837 178.546 321.007 178.313C312.741 178.136 312.905 170.885 312.905 170.885L313.991 170.407C316.863 169.14 318.198 166.046 317.505 162.983L316.593 160.626L315.73 161.148Z" fill="#F7F7F7"/>
<path d="M321.425 178.746C321.276 178.746 321.124 178.746 320.973 178.74C316.499 178.645 314.415 176.509 313.455 174.735C312.421 172.823 312.451 170.953 312.452 170.875C312.456 170.71 312.555 170.561 312.707 170.494L313.793 170.016C316.376 168.878 317.719 166.04 317.068 163.107L316.353 161.255L315.925 161.514C315.916 161.52 315.906 161.526 315.896 161.531C314.806 162.077 313.504 161.877 312.655 161.032C311.893 160.274 311.213 159.421 310.628 158.496L309.813 158.511C309.257 158.529 308.768 158.082 308.742 157.508L308.603 154.321C308.579 153.814 308.439 153.301 308.185 152.799C307.701 151.845 307.417 150.916 307.345 150.038C307.209 148.4 308.601 145.436 310.21 144.649C312.625 143.469 316.025 143.403 317.783 146.044C318.483 147.095 319.581 147.78 320.092 147.688C320.527 147.611 320.735 147.27 321.064 146.672L321.13 146.551C321.526 145.838 322.313 145.041 323.336 144.944C323.903 144.89 324.762 145.039 325.625 146.067C327.055 147.768 326.469 149.352 325.903 150.394C325.39 151.338 325.166 153.029 325.415 154.086L327.703 163.83C328.258 166.199 329.947 168.133 332.219 169.006L334.666 169.944C334.88 170.026 334.99 170.261 334.919 170.477C334.891 170.561 332.07 178.746 321.425 178.746ZM313.312 171.161C313.374 172.442 314.052 177.738 320.99 177.885C330.147 178.084 333.286 172.179 333.96 170.588L331.912 169.803C329.374 168.831 327.489 166.67 326.869 164.025L324.581 154.28C324.284 153.009 324.533 151.122 325.151 149.983C325.88 148.641 325.827 147.634 324.97 146.615C324.469 146.019 323.944 145.741 323.417 145.793C322.725 145.859 322.156 146.466 321.878 146.965L321.814 147.084C321.48 147.69 321.101 148.376 320.244 148.528C319.22 148.71 317.826 147.647 317.074 146.514C315.379 143.967 312.089 144.68 310.587 145.412C309.421 145.982 308.082 148.534 308.2 149.962C308.262 150.73 308.515 151.552 308.95 152.407C309.261 153.017 309.432 153.647 309.46 154.278L309.6 157.466C309.603 157.571 309.689 157.65 309.798 157.652L310.855 157.631C311.007 157.625 311.15 157.707 311.228 157.835C311.805 158.783 312.489 159.654 313.259 160.42C313.842 161.001 314.74 161.141 315.5 160.768L316.347 160.254C316.456 160.188 316.588 160.175 316.707 160.216C316.827 160.256 316.922 160.348 316.967 160.466L317.879 162.824C317.886 162.843 317.892 162.863 317.896 162.884C318.654 166.231 317.109 169.482 314.137 170.792L313.312 171.155V171.161Z" fill="#575757"/>
</g>
</g>
<defs>
<filter id="filter0_d_508_558" x="230" y="123" width="141.448" height="248" filterUnits="userSpaceOnUse" color-interpolation-filters="sRGB">
<feFlood flood-opacity="0" result="BackgroundImageFix"/>
<feColorMatrix in="SourceAlpha" type="matrix" values="0 0 0 0 0 0 0 0 0 0 0 0 0 0 0 0 0 0 127 0" result="hardAlpha"/>
<feOffset dy="4"/>
<feGaussianBlur stdDeviation="2"/>
<feComposite in2="hardAlpha" operator="out"/>
<feColorMatrix type="matrix" values="0 0 0 0 0 0 0 0 0 0 0 0 0 0 0 0 0 0 0.25 0"/>
<feBlend mode="normal" in2="BackgroundImageFix" result="effect1_dropShadow_508_558"/>
<feBlend mode="normal" in="SourceGraphic" in2="effect1_dropShadow_508_558" result="shape"/>
</filter>
<clipPath id="clip0_508_558">
<rect width="640" height="496" fill="white"/>
</clipPath>
</defs>
</svg>
