<svg width="97" height="168" viewBox="0 0 97 168" fill="none" xmlns="http://www.w3.org/2000/svg">
<g filter="url(#filter0_d_220_6339)">
<path d="M12.9586 131.346C13.0182 131.591 10.1406 144.757 10.1406 144.757L16.7535 143.649L18.7462 132.517L12.9586 131.345V131.346Z" fill="#F7F7F7"/>
<path d="M10.123 145.041C10.0452 145.041 9.97138 145.01 9.91696 144.953C9.85218 144.885 9.82497 144.789 9.8457 144.697C10.9573 139.609 12.6158 131.893 12.6572 131.362C12.6533 131.284 12.6818 131.207 12.7362 131.148C12.8036 131.078 12.9034 131.047 12.998 131.067L18.7855 132.239C18.9371 132.27 19.0369 132.417 19.0096 132.568L17.017 143.7C16.9962 143.818 16.903 143.912 16.7838 143.931L10.1709 145.039C10.1554 145.041 10.1398 145.043 10.1243 145.043L10.123 145.041ZM13.1742 131.683C13.0316 132.536 12.4849 135.276 10.4909 144.406L16.491 143.402L18.3994 132.742L13.1742 131.683Z" fill="#575757"/>
<path d="M13.6626 140.439C13.2584 140.098 12.6792 139.767 11.9433 139.735C10.8355 139.688 9.82366 140.382 9.36501 141.402C8.21838 143.95 5.19439 151.051 4.33928 156.855C4.0374 158.906 5.58437 160.573 7.99553 159.229C11.9472 157.027 17.4303 151.971 20.3001 144.503C20.6292 143.646 20.5113 142.677 19.971 141.937C19.5292 141.333 18.9293 140.601 18.2336 139.978C17.5676 139.382 16.5674 139.373 15.8781 139.94L15.2562 140.451C14.7898 140.834 14.1225 140.828 13.66 140.439H13.6626Z" fill="#F7F7F7"/>
<path d="M6.35037 160C5.7492 160 5.31776 159.791 5.05604 159.611C4.25664 159.059 3.86794 157.986 4.04026 156.813C4.89148 151.029 7.85329 144.027 9.08802 141.285C9.60498 140.137 10.7425 139.401 11.9384 139.451C12.6095 139.48 13.2625 139.747 13.8287 140.222C14.185 140.521 14.7033 140.525 15.0608 140.231L15.6827 139.721C16.4912 139.056 17.6378 139.075 18.4087 139.766C19.0086 140.304 19.6072 140.977 20.1863 141.769C20.7836 142.585 20.9197 143.646 20.5517 144.605C17.6871 152.059 12.2506 157.175 8.12018 159.478C7.42313 159.866 6.83362 160 6.35294 160H6.35037ZM11.8205 140.019C10.8967 140.019 10.0157 140.612 9.60627 141.519C8.38191 144.24 5.44473 151.183 4.60257 156.895C4.46135 157.854 4.75804 158.715 5.37865 159.142C6.00444 159.574 6.87769 159.517 7.84033 158.98C11.884 156.727 17.2077 151.713 20.0179 144.4C20.3172 143.623 20.2071 142.764 19.7251 142.105C19.1693 141.345 18.5992 140.7 18.0278 140.19C17.4681 139.688 16.6337 139.675 16.0429 140.16L15.421 140.67C14.851 141.139 14.0269 141.133 13.4608 140.657C12.9866 140.258 12.4644 140.043 11.9125 140.02C11.8814 140.019 11.8516 140.017 11.8205 140.017V140.019Z" fill="#575757"/>
<path d="M5.79648 157.689C5.78223 157.689 5.77057 157.689 5.76409 157.689C5.60732 157.684 5.48423 157.552 5.48942 157.395C5.4946 157.238 5.62546 157.116 5.78223 157.12C5.85219 157.127 11.3871 157.07 18.1243 143.755C18.1956 143.615 18.3666 143.558 18.5066 143.629C18.6465 143.7 18.7035 143.871 18.6322 144.011C11.8768 157.363 6.31473 157.689 5.79518 157.689H5.79648Z" fill="#575757"/>
<path d="M10.0242 150.331C9.98918 150.331 9.95419 150.325 9.91921 150.312L6.7838 149.074C6.6374 149.016 6.56614 148.852 6.62315 148.705C6.68145 148.559 6.84599 148.488 6.9924 148.545L10.1278 149.782C10.2742 149.84 10.3455 150.005 10.2885 150.151C10.2444 150.263 10.1369 150.331 10.0229 150.331H10.0242Z" fill="#575757"/>
<path d="M11.1603 147.93C11.1253 147.93 11.0916 147.924 11.0566 147.911L7.37965 146.48C7.23324 146.423 7.16069 146.259 7.21769 146.111C7.2747 145.965 7.44055 145.892 7.58566 145.949L11.2626 147.38C11.4091 147.437 11.4816 147.601 11.4246 147.749C11.3805 147.861 11.273 147.93 11.159 147.93H11.1603Z" fill="#575757"/>
<path d="M41.1711 131.311C41.2191 131.411 41.5857 132.956 41.8733 135.561C42.3501 139.9 37.4941 143.917 37.4941 143.917L48.998 142.366L48.5588 132.324L41.1724 131.31L41.1711 131.311Z" fill="#F7F7F7"/>
<path d="M37.4764 144.203C37.365 144.203 37.2614 144.137 37.216 144.032C37.1655 143.915 37.1979 143.779 37.295 143.699C37.3417 143.66 42.028 139.726 41.5732 135.592C41.3063 133.164 40.9578 131.6 40.8917 131.42C40.8464 131.326 40.8593 131.221 40.9215 131.136C40.9837 131.052 41.0912 131.015 41.1936 131.029L48.5799 132.043C48.716 132.061 48.8196 132.175 48.8261 132.313L49.2653 142.355C49.2718 142.503 49.1656 142.63 49.0191 142.649L37.5153 144.2C37.5023 144.201 37.4894 144.203 37.4777 144.203H37.4764ZM41.5356 131.651C41.6872 132.324 41.936 133.68 42.1394 135.53C42.5216 139.001 39.6932 142.201 38.3432 143.515L48.6862 142.121L48.2677 132.576L41.5369 131.652L41.5356 131.651Z" fill="#575757"/>
<path d="M44.4532 139.96C43.8248 139.63 43.339 139.166 42.6095 139.044C41.5108 138.859 40.6363 139.427 40.0636 140.379C38.6307 142.759 34.8073 149.411 33.2927 155.048C32.7576 157.041 34.1076 158.883 36.6639 157.853C40.8514 156.165 46.8903 151.841 50.6022 144.807C51.0285 144 50.8821 143.091 50.5672 142.226C50.2887 141.463 49.1563 138.858 48.5344 138.154C47.9397 137.482 46.4446 141.007 44.4532 139.96Z" fill="#F7F7F7"/>
<path d="M35.2762 158.437C34.6595 158.437 34.1192 158.246 33.6916 157.868C32.9635 157.223 32.7005 156.115 33.0062 154.976C34.5156 149.357 38.2665 142.795 39.8083 140.233C40.4949 139.094 41.5016 138.572 42.6457 138.764C43.2054 138.859 43.6291 139.128 44.0385 139.388C44.2108 139.499 44.3896 139.611 44.5736 139.708C45.5207 140.206 46.3356 139.488 47.2296 138.571C47.674 138.115 47.9966 137.783 48.3438 137.783C48.3477 137.783 48.3529 137.783 48.3568 137.783C48.5019 137.787 48.6341 137.849 48.7351 137.966C49.4024 138.721 50.5619 141.415 50.8224 142.129C51.2357 143.262 51.2408 144.182 50.8418 144.94C47.1363 151.963 41.1363 156.352 36.7584 158.118C36.2323 158.331 35.7335 158.435 35.2749 158.435L35.2762 158.437ZM42.187 139.295C41.249 139.295 40.6478 139.944 40.2967 140.527C38.7666 143.067 35.0481 149.575 33.5569 155.124C33.3081 156.052 33.5037 156.94 34.0699 157.44C34.6439 157.95 35.5236 158.003 36.5459 157.591C40.8305 155.862 46.7049 151.562 50.3391 144.676C50.6643 144.059 50.6488 143.313 50.2886 142.326C49.9711 141.454 48.8789 139.008 48.3244 138.361C48.1858 138.41 47.8722 138.732 47.639 138.97C46.8707 139.758 45.7098 140.95 44.3106 140.214C44.1046 140.105 43.9167 139.986 43.734 139.869C43.3557 139.628 42.9981 139.401 42.5524 139.326C42.4254 139.306 42.3049 139.295 42.1883 139.295H42.187Z" fill="#575757"/>
<path d="M34.9659 156.078C34.7807 156.078 34.6705 156.063 34.6407 156.059C34.4853 156.034 34.3803 155.888 34.4049 155.732C34.4296 155.578 34.5734 155.472 34.7301 155.496C34.804 155.507 40.3208 156.14 48.5493 143.803C48.6361 143.673 48.8136 143.638 48.9444 143.724C49.0753 143.811 49.1103 143.989 49.0235 144.12C41.5723 155.292 36.3017 156.078 34.9659 156.078Z" fill="#575757"/>
<path d="M39.7716 149.308C39.7263 149.308 39.6796 149.296 39.6369 149.273L36.6556 147.658C36.517 147.583 36.4652 147.411 36.5403 147.272C36.6155 147.134 36.7891 147.083 36.9264 147.157L39.9077 148.771C40.0463 148.846 40.0981 149.019 40.023 149.157C39.9711 149.252 39.874 149.306 39.7716 149.306V149.308Z" fill="#575757"/>
<path d="M41.1493 147.068C41.1065 147.068 41.0637 147.059 41.0223 147.038L37.7988 145.431C37.6575 145.362 37.6005 145.19 37.6705 145.049C37.7405 144.908 37.9115 144.851 38.0527 144.921L41.2762 146.528C41.4175 146.598 41.4745 146.769 41.4045 146.91C41.354 147.01 41.2542 147.068 41.1493 147.068Z" fill="#575757"/>
<path d="M72.3673 80.6888C72.3673 80.6888 32.0967 78.941 27.6941 83.0287C21.7226 88.5739 11.4639 134.74 11.4639 134.74L21.3689 137.516C21.3689 137.516 36.2945 99.6282 39.9922 99.6282C43.6899 99.6282 78.5565 98.3844 78.5565 98.3844L72.3673 80.6875V80.6888Z" fill="white"/>
<path d="M80.2942 79.416C80.2942 79.416 85.6049 95.0076 81.3786 97.8515C77.1523 100.695 46.687 100.453 47.7442 100.098C48.8001 99.7431 50.4689 125.628 50.4689 135.583L40.8774 135.953C40.8774 135.953 25.5916 95.921 27.2384 91.4511C30.1859 83.4545 52.8775 81.6225 60.1381 80.5536C61.6333 80.3333 80.2942 79.4173 80.2942 79.4173V79.416Z" fill="white"/>
<path d="M32.2852 113.452C32.1647 113.452 32.0533 113.376 32.0144 113.254C31.6698 112.178 31.3265 111.118 30.9909 110.08C28.1625 101.341 25.9289 94.4391 26.9498 91.3594C28.879 85.5382 40.861 83.0467 49.7062 81.6785C49.8642 81.6552 50.0068 81.7614 50.0314 81.9169C50.0547 82.0724 49.9485 82.2175 49.793 82.2421C44.7815 83.0169 29.532 85.3762 27.4901 91.5395C26.5275 94.443 28.8466 101.608 31.5325 109.906C31.868 110.944 32.2114 112.004 32.556 113.082C32.6039 113.232 32.521 113.392 32.372 113.439C32.3435 113.449 32.3137 113.454 32.2852 113.454V113.452Z" fill="#575757"/>
<path d="M51.1407 8.76601C53.9328 6.0439 58.084 5.47124 61.2038 6.23825C65.1529 7.20997 67.1443 10.2871 68.5474 12.4585C71.0299 16.2962 69.8314 17.6851 71.7826 19.9136C75.238 23.8613 83.6207 21.248 87.7019 24.2798C97.5085 31.5651 92.1628 43.6053 83.4704 49.2892C77.6738 53.0802 69.7886 50.888 67.6431 50.2907C61.1313 48.4808 50.3426 44.9346 49.2983 36.4639C48.5961 30.7696 55.0483 26.2038 51.5825 21.4566C50.7002 20.2478 49.9682 19.92 49.3126 18.408C48.2476 15.9528 48.0079 11.8198 51.1407 8.76472V8.76601Z" fill="white"/>
<path d="M61.321 9.43664C59.8375 8.35221 60.7768 5.15461 61.7252 3.43013C62.0815 2.78362 63.6725 -0.109514 65.7676 0.00320573C67.9183 0.118516 69.9783 3.37183 69.21 5.94753C68.25 9.16845 63.0584 10.7077 61.321 9.43664Z" fill="white"/>
<path d="M71.6099 32.7841C71.6099 32.7841 79.0571 29.5204 83.5529 60.4664C83.5529 60.4664 75.8427 77.1035 75.7053 79.4408C75.568 81.7781 55.2915 80.7623 55.2915 80.7623L54.829 45.9165L50.0986 45.6885L51.1118 37.5027C51.7415 35.1175 54.3962 33.4021 56.1803 32.7647L71.6099 32.7815V32.7841Z" fill="white"/>
<path d="M64.379 81.2685C59.7121 81.2685 55.3096 81.0508 55.2629 81.0482C55.1126 81.0404 54.9947 80.9173 54.9921 80.767L54.5322 46.1894L50.0688 45.9743C49.9897 45.9705 49.9159 45.9342 49.8641 45.8733C49.8122 45.8124 49.7889 45.7334 49.7993 45.6543L50.8125 37.4686C50.8138 37.4556 50.8164 37.4427 50.8202 37.431C51.4318 35.1118 53.9686 33.2474 56.0675 32.4973C56.0986 32.4869 56.131 32.4804 56.1634 32.4804L71.5424 32.4973C71.7847 32.4156 72.6852 32.1967 73.929 32.8872C76.8506 34.5094 80.937 40.6027 83.8172 60.4231C83.825 60.4776 83.8172 60.5333 83.7939 60.5838C81.1353 66.3208 76.0784 77.6485 75.9722 79.4559C75.9424 79.9728 75.8724 81.1829 65.4323 81.262C65.0799 81.2646 64.7275 81.2659 64.3764 81.2659L64.379 81.2685ZM55.557 80.4924C56.6687 80.5429 61.066 80.7282 65.4323 80.6958C74.8593 80.6245 75.3943 79.6256 75.406 79.4261C75.5408 77.1186 82.6058 61.8043 83.2432 60.4244C80.2594 39.9523 75.9813 34.7128 73.6945 33.4107C72.5012 32.7318 71.7381 33.0336 71.7057 33.0466C71.6707 33.0609 71.6318 33.0699 71.5943 33.0699L56.2139 33.0531C54.2666 33.7631 51.9397 35.4655 51.3761 37.5606L50.4018 45.4224L54.825 45.6349C54.9753 45.6427 55.0945 45.7645 55.0958 45.916L55.5557 80.4937L55.557 80.4924Z" fill="#575757"/>
<path d="M56.392 31.2012C56.392 31.2012 56.3273 31.218 56.2055 31.2582C55.0796 31.6274 49.1132 33.9673 45.2626 43.1637C41.9407 51.0968 30.2969 49.9514 30.2969 49.9514L30.3927 57.6203C30.3927 57.6203 48.7738 59.8915 54.5561 54.3164C54.9176 53.9679 56.392 31.2012 56.392 31.2012Z" fill="#F7F7F7"/>
<path d="M38.7354 58.3773C34.2888 58.3773 30.6727 57.9445 30.341 57.9031C30.1998 57.8862 30.0936 57.7657 30.091 57.6245L29.9951 49.9557C29.9951 49.8754 30.0275 49.7977 30.0871 49.7419C30.1467 49.6875 30.227 49.6603 30.3074 49.6681C30.4214 49.6798 41.7814 50.6981 44.9829 43.0539C48.8749 33.7604 54.9255 31.3726 56.0993 30.9878C56.2328 30.9437 56.304 30.9256 56.304 30.9256C56.3921 30.9036 56.4867 30.9243 56.5567 30.9826C56.6267 31.0409 56.6655 31.129 56.659 31.2197C56.6552 31.2767 56.2859 36.9775 55.8765 42.6484C55.0408 54.2274 54.8724 54.3906 54.7363 54.5215C51.4727 57.6686 44.4245 58.3773 38.7341 58.3773H38.7354ZM30.6585 57.3654C32.8533 57.6051 49.0006 59.1754 54.3023 54.1497C54.5861 53.1404 55.4969 40.3357 56.0644 31.6032C54.5459 32.1577 49.1082 34.679 45.5089 43.2742C42.4564 50.5634 32.4788 50.3664 30.5691 50.2576L30.6585 57.3667V57.3654Z" fill="#575757"/>
<path d="M45.9062 80.4217L50.415 37.7452C50.7143 35.7473 52.4155 33.2934 54.0855 32.1779C54.7398 31.7413 55.5198 31.3811 56.4358 31.1997C56.4358 31.1997 56.9942 78.6221 57.0084 80.3894L45.9075 80.4204L45.9062 80.4217Z" fill="#F7F7F7"/>
<path d="M45.8886 80.7062C45.8782 80.7062 45.8692 80.7062 45.8588 80.705C45.702 80.6881 45.5893 80.5482 45.6062 80.3914L50.1149 37.7148C50.4168 35.6911 52.0843 33.1607 53.9098 31.9415C54.6652 31.4375 55.4905 31.0942 56.3624 30.9206C56.4454 30.9038 56.5322 30.9258 56.597 30.9789C56.663 31.032 56.7019 31.1123 56.7019 31.1966C56.7071 31.6708 57.2616 78.6397 57.2746 80.3875C57.2746 80.5443 57.1489 80.6738 56.9921 80.6751H56.9895C56.8327 80.6751 56.7058 80.5495 56.7045 80.3927C56.6915 78.7265 56.1875 35.9113 56.1357 31.5568C55.4607 31.7304 54.8193 32.018 54.2247 32.4157C52.5442 33.5378 50.9532 35.9476 50.6785 37.7874L46.171 80.451C46.1555 80.5974 46.0324 80.7062 45.8886 80.7062Z" fill="#575757"/>
<path d="M65.1524 56.2159C65.107 56.2159 65.0617 56.2055 65.0202 56.1835C59.896 53.4834 59.5682 46.2228 59.5579 45.9144C59.5514 45.7576 59.6745 45.6255 59.8312 45.619C59.9828 45.6112 60.1202 45.7356 60.1266 45.8924C60.1292 45.9649 60.4557 53.1336 65.2858 55.6782C65.4257 55.7521 65.4789 55.9244 65.405 56.063C65.3545 56.1602 65.2547 56.2146 65.1524 56.2146V56.2159Z" fill="#575757"/>
<path d="M71.4531 31.7676C71.4531 31.7676 77.9714 32.4802 81.2208 38.3053C84.4715 44.1304 88.979 56.8444 88.7199 61.6227C88.282 69.732 80.2919 73.4102 80.6754 75.9743C80.8619 77.2194 82.5061 83.5472 87.2312 91.7796C91.1233 98.5596 92.0147 112.841 91.3798 113.248C87.1056 115.992 80.1843 121.712 71.4466 121.709C69.8323 121.709 68.4317 120.588 68.0832 118.997C66.6891 112.639 62.8489 94.218 61.2293 77.0976C59.8262 62.2705 66.7487 40.5117 67.2631 38.6707C68.5833 33.9416 71.4518 31.7676 71.4518 31.7676H71.4531Z" fill="#F7F7F7"/>
<path d="M71.4562 121.991H71.4458C69.6799 121.991 68.1821 120.783 67.8038 119.056C66.275 112.087 62.5462 94.0493 60.9448 77.1232C60.1013 68.2068 62.1756 54.7647 66.7867 39.2729C66.8826 38.9529 66.95 38.7223 66.9876 38.5927C68.3182 33.8261 71.1582 31.63 71.2787 31.5393C71.337 31.4953 71.4095 31.4758 71.4821 31.4836C71.5495 31.4914 78.1843 32.2804 81.4687 38.1651C84.6378 43.8452 89.2749 56.62 89.0041 61.6367C88.7281 66.7362 85.5577 70.088 83.2425 72.5341C81.895 73.958 80.8313 75.0826 80.957 75.93C81.1423 77.1712 82.7942 83.4757 87.4779 91.6355C89.718 95.538 90.8245 101.596 91.2844 104.861C91.6549 107.489 92.203 113.055 91.5332 113.485C90.9203 113.879 90.244 114.339 89.5275 114.827C85.0913 117.85 79.0161 121.989 71.4562 121.989V121.991ZM71.5339 32.0653C71.0481 32.4761 68.6822 34.6372 67.5356 38.7456C67.4993 38.8777 67.4294 39.1109 67.3335 39.4348C62.7431 54.8567 60.6753 68.2223 61.5123 77.0688C63.1111 93.9638 66.8347 111.974 68.3609 118.933C68.6822 120.397 69.9507 121.419 71.4471 121.421H71.4562C78.8412 121.421 84.8322 117.338 89.2075 114.357C89.9097 113.879 90.5744 113.425 91.1821 113.034C91.572 112.011 90.7558 98.4894 86.9842 91.9193C82.2552 83.6817 80.5826 77.2787 80.3934 76.0142C80.2263 74.8922 81.3172 73.7391 82.8279 72.1429C85.0822 69.7602 88.1697 66.4965 88.4353 61.6056C88.6789 57.0942 84.3671 44.5292 80.9712 38.4424C78.0677 33.2392 72.4123 32.1975 71.5352 32.0653H71.5339Z" fill="#575757"/>
<path d="M73.7329 59.3119C73.6396 59.3119 73.5489 59.2665 73.4945 59.1836C73.4089 59.0515 73.4452 58.8753 73.5774 58.7898C73.9479 58.5475 75.0751 57.809 75.5571 56.7738C76.9875 53.7057 73.9609 43.2436 73.9298 43.1386C73.8857 42.987 73.9725 42.829 74.1228 42.7849C74.2744 42.7409 74.4325 42.8277 74.4765 42.978C74.6048 43.4159 77.5938 53.7524 76.0727 57.0134C75.5221 58.1951 74.2926 58.9996 73.8883 59.2652C73.8404 59.2963 73.786 59.3119 73.7329 59.3119Z" fill="#575757"/>
<path d="M53.3971 61.5803C53.2494 61.5803 53.1237 61.465 53.1133 61.3147C52.5601 53.3336 53.0291 46.1248 53.033 46.0522C53.0434 45.8955 53.1833 45.7776 53.3362 45.7866C53.493 45.797 53.6122 45.933 53.6018 46.0898C53.5966 46.1611 53.1315 53.3336 53.6821 61.2745C53.6925 61.4313 53.5746 61.5673 53.4178 61.5777C53.4113 61.5777 53.4048 61.5777 53.3984 61.5777L53.3971 61.5803Z" fill="#575757"/>
<path d="M75.6895 88.5123C69.9615 88.5123 66.9829 83.1679 66.9466 83.1018C66.8715 82.9631 66.9233 82.7908 67.0606 82.7157C67.1993 82.6405 67.3716 82.6923 67.4467 82.8297C67.6139 83.138 71.6381 90.3301 79.544 87.1389C79.6891 87.0806 79.8549 87.1506 79.9145 87.297C79.9728 87.4434 79.9029 87.6093 79.7565 87.6676C78.2756 88.2661 76.9177 88.5123 75.6882 88.5123H75.6895Z" fill="#575757"/>
<path d="M40.945 61.1898L36.2121 61.1445C35.462 61.1445 35.0046 60.5744 34.6289 59.902L28.862 47.8773C28.4578 46.8628 29.3894 45.8522 30.4505 45.8535L35.1834 45.8989C35.9336 45.8989 36.4764 46.4961 36.7667 47.1414L42.5335 59.1648C43.0232 60.0937 42.0062 61.1898 40.945 61.1885V61.1898Z" fill="#B9D043"/>
<path d="M40.9473 61.4749C40.9473 61.4749 40.9447 61.4749 40.9421 61.4749L36.2092 61.4296C35.2751 61.4283 34.7413 60.6872 34.3811 60.0419L28.6065 48.0017C28.3953 47.4757 28.4614 46.9173 28.7788 46.4495C29.1468 45.9067 29.7868 45.5698 30.4489 45.5698H30.4515L35.187 45.6152C35.9423 45.6152 36.6303 46.1438 37.0268 47.0261L42.7897 59.0443C43.0203 59.4796 42.9918 60.0044 42.7094 60.4734C42.3466 61.0733 41.6392 61.4762 40.9473 61.4762V61.4749ZM40.946 60.9061C41.4371 60.9061 41.9618 60.6068 42.2209 60.178C42.3246 60.0057 42.471 59.6623 42.2805 59.2995L36.5098 47.2658C36.3932 47.008 35.9643 46.1865 35.1831 46.1852L30.4476 46.1399H30.4463C29.9798 46.1399 29.5095 46.3874 29.2491 46.7696C29.0366 47.0818 28.9939 47.4381 29.1273 47.7737L34.8864 59.7802C35.3126 60.5421 35.6987 60.8595 36.2131 60.8608L40.9473 60.9061H40.946Z" fill="#575757"/>
<path d="M30.4894 51.4639L31.1009 52.8035C31.3458 53.362 31.9185 53.7208 32.4808 53.4552L36.4065 51.8409C37.0401 51.5403 37.798 51.8577 38.017 52.5224C38.4653 53.8815 38.7477 55.7174 32.6764 58.1791C28.9671 59.682 28.8349 55.6099 29.44 53.1262C29.7082 52.0249 30.4907 51.4652 30.4907 51.4652L30.4894 51.4639Z" fill="#F7F7F7"/>
<path d="M31.2237 58.7891C30.6834 58.7891 30.2248 58.6271 29.8504 58.3045C28.718 57.3276 28.6804 54.9644 29.1442 53.0572C29.4345 51.8666 30.2701 51.2563 30.3051 51.2317C30.3751 51.1825 30.4619 51.1669 30.5448 51.1877C30.6277 51.2097 30.6951 51.2667 30.7301 51.3444L31.3416 52.6841C31.4543 52.9406 31.6487 53.1389 31.8625 53.2192C32.0218 53.2788 32.1825 53.271 32.3405 53.1959L36.2805 51.575C36.6446 51.4014 37.0825 51.3937 37.4673 51.5582C37.8482 51.7215 38.1411 52.0389 38.2693 52.4315C38.8005 54.0445 38.8575 55.9724 32.7655 58.4406C32.1954 58.6712 31.6811 58.7865 31.2237 58.7865V58.7891ZM30.3764 51.9391C30.1522 52.1814 29.8426 52.6025 29.6988 53.192C29.2894 54.875 29.279 57.0568 30.2235 57.8731C30.7392 58.3175 31.523 58.3317 32.5517 57.9145C38.6606 55.4386 38.0776 53.6688 37.729 52.6115C37.65 52.3719 37.4777 52.184 37.2432 52.0842C37.0087 51.9832 36.7418 51.9884 36.5112 52.0985L32.5712 53.7193C32.2874 53.8541 31.9687 53.8683 31.6642 53.7556C31.3041 53.6208 30.997 53.3164 30.8234 52.9199L30.3764 51.9417V51.9391Z" fill="#575757"/>
<path d="M56.2455 50.6498C56.2455 50.6498 63.8456 57.9649 68.8804 60.9176C71.8992 62.6888 72.3112 60.5536 74.8144 62.0707C78.1856 64.1139 79.9917 65.9058 75.7602 71.4977C72.1622 76.2513 65.8279 72.0017 54.6584 55.9826C54.1349 55.2324 53.2798 54.766 52.3858 54.5665C51.2664 54.3164 49.6391 53.4302 48.8915 50.4917C48.8915 50.4917 43.5963 51.2432 43.1299 48.6623L51.0811 47.3965C52.1461 47.2073 53.2371 47.5585 53.9911 48.3345L56.2455 50.6498Z" fill="#F7F7F7"/>
<path d="M72.4353 73.6175C72.4081 73.6175 72.3796 73.6175 72.3511 73.6175C68.3658 73.5398 62.6637 67.988 54.408 56.1473C53.9649 55.5125 53.2186 55.0512 52.3065 54.8465C51.0744 54.5706 49.46 53.6429 48.6632 50.8055C47.5606 50.9247 43.2851 51.2188 42.8329 48.7143C42.8186 48.6392 42.8368 48.5615 42.8808 48.4993C42.9249 48.4371 42.9923 48.3943 43.0687 48.3827L51.0199 47.1168C52.1743 46.9121 53.3572 47.293 54.1787 48.1365L56.4305 50.4492C56.6235 50.6345 64.1006 57.7954 69.0084 60.673C70.4919 61.5423 71.2615 61.4218 72.0764 61.2936C72.8525 61.1718 73.6558 61.0461 74.9462 61.8274C76.536 62.79 78.114 63.8718 78.4353 65.5536C78.7333 67.1109 77.9495 69.0543 75.9711 71.6702C74.9929 72.9632 73.8035 73.6175 72.4353 73.6175ZM48.8744 50.2069C49.0027 50.2069 49.118 50.2937 49.1504 50.422C49.85 53.1687 51.3205 54.0407 52.4309 54.2894C53.4829 54.5252 54.3497 55.0681 54.8744 55.8208C62.906 67.3402 68.6262 72.9749 72.3615 73.0475C73.5858 73.0734 74.621 72.5085 75.515 71.3269C77.3898 68.8496 78.1399 67.0487 77.8743 65.6611C77.623 64.3447 76.501 63.4378 74.6482 62.3145C73.5366 61.6408 72.9004 61.7405 72.1619 61.8559C71.325 61.9867 70.3766 62.1357 68.7182 61.164C63.7132 58.2281 56.1066 50.9286 56.0301 50.856C56.0275 50.8534 56.0262 50.8521 56.0236 50.8495L53.7693 48.5343C53.08 47.8256 52.0863 47.5055 51.1132 47.6791L43.4716 48.8957C44.2296 50.8379 48.785 50.2186 48.8329 50.2121C48.8472 50.2108 48.8601 50.2095 48.8731 50.2095L48.8744 50.2069Z" fill="#575757"/>
<path d="M58.4875 25.4323C57.8799 25.7367 57.1375 25.6331 56.6555 25.1524C56.088 24.5862 55.6306 23.9851 55.2601 23.3748L54.5553 23.3891C54.3299 23.3942 54.142 23.218 54.1316 22.9926L54.0383 20.8678C54.0215 20.4726 53.9088 20.0891 53.7287 19.7367C53.3879 19.0669 53.2389 18.4877 53.1988 18.0019C53.1146 16.9783 54.0267 15.1398 54.9492 14.6889C56.1994 14.0787 58.4564 13.7483 59.6354 15.5207C60.142 16.2826 60.9634 16.828 61.4623 16.7399C61.9313 16.657 62.123 16.2554 62.3536 15.8408C62.7838 15.0673 63.854 14.3404 64.8827 15.5622C65.6588 16.4847 65.4567 17.3515 65.0356 18.1262C64.6586 18.8207 64.5031 20.0204 64.6832 20.7887L66.2081 27.285C66.5994 28.9551 67.794 30.3219 69.3954 30.9361L71.0266 31.5619C71.0266 31.5619 69.2256 37.0307 62.0051 36.8752C56.4948 36.7573 56.6037 31.9233 56.6037 31.9233L57.3279 31.6046C59.2429 30.7599 60.1329 28.6972 59.6704 26.6553L59.0628 25.0837L58.4875 25.4323Z" fill="#F7F7F7"/>
<path d="M62.2836 37.1641C62.1838 37.1641 62.0827 37.1641 61.9817 37.1602C58.9992 37.0967 57.6103 35.6728 56.9702 34.4899C56.2809 33.215 56.3004 31.9686 56.3017 31.9168C56.3043 31.8066 56.3703 31.7069 56.4714 31.6628L57.1956 31.3441C58.9175 30.5849 59.8128 28.6933 59.3788 26.7382L58.902 25.5034L58.6169 25.6757C58.6105 25.6796 58.604 25.6835 58.5975 25.6874C57.8707 26.0515 57.0026 25.918 56.4364 25.3544C55.9285 24.8491 55.4751 24.2804 55.0851 23.6636L54.5422 23.674C54.1717 23.6857 53.8452 23.3877 53.8283 23.0055L53.735 20.8806C53.7195 20.5425 53.6262 20.2004 53.4565 19.8662C53.1339 19.23 52.9447 18.6107 52.8968 18.0251C52.8061 16.9329 53.7337 14.957 54.8065 14.4323C56.417 13.6459 58.683 13.6018 59.8556 15.3626C60.322 16.0635 61.054 16.5196 61.3948 16.4587C61.685 16.4068 61.8236 16.1801 62.0426 15.7811L62.0866 15.7007C62.3509 15.2252 62.8757 14.694 63.5572 14.6293C63.9355 14.593 64.5082 14.6927 65.0834 15.3781C66.037 16.5118 65.6457 17.5677 65.2687 18.2622C64.9266 18.8919 64.7776 20.019 64.9435 20.7239L66.4684 27.2201C66.839 28.7995 67.9649 30.0886 69.4795 30.6704L71.1106 31.2962C71.2532 31.3506 71.327 31.5074 71.2791 31.6512C71.2609 31.7069 69.3797 37.1641 62.2836 37.1641ZM56.8743 32.1072C56.9158 32.9611 57.368 36.4916 61.9933 36.5901C68.0983 36.7222 70.1908 32.7861 70.6403 31.725L69.2748 31.2016C67.5827 30.5538 66.3259 29.113 65.9126 27.3497L64.3877 20.8534C64.1894 20.0061 64.3553 18.748 64.7673 17.9888C65.2531 17.0935 65.2182 16.4224 64.6468 15.7435C64.3125 15.3457 63.9627 15.1605 63.6116 15.1954C63.1503 15.2395 62.7707 15.6437 62.5854 15.9767L62.5427 16.0557C62.3198 16.46 62.0672 16.9173 61.4958 17.0184C60.813 17.1402 59.8841 16.4315 59.3827 15.6761C58.2529 13.9776 56.0594 14.453 55.0579 14.9415C54.2805 15.3211 53.3878 17.0223 53.4668 17.9746C53.5083 18.4863 53.6767 19.0344 53.9669 19.6045C54.1742 20.0113 54.2883 20.4311 54.3064 20.8521L54.3997 22.977C54.4023 23.0469 54.4593 23.1 54.5318 23.1013L55.2367 23.0871C55.3377 23.0832 55.4336 23.1376 55.4854 23.2231C55.8702 23.8554 56.3263 24.4358 56.8394 24.9463C57.228 25.3337 57.8266 25.427 58.3332 25.1782L58.8981 24.8362C58.9707 24.7921 59.0588 24.7831 59.1378 24.8103C59.2181 24.8375 59.2816 24.8984 59.3114 24.9774L59.9191 26.549C59.9242 26.562 59.9281 26.5749 59.9307 26.5892C60.436 28.8202 59.406 30.9878 57.425 31.8611L56.8743 32.1033V32.1072Z" fill="#575757"/>
</g>
<defs>
<filter id="filter0_d_220_6339" x="0" y="0" width="96.9648" height="168" filterUnits="userSpaceOnUse" color-interpolation-filters="sRGB">
<feFlood flood-opacity="0" result="BackgroundImageFix"/>
<feColorMatrix in="SourceAlpha" type="matrix" values="0 0 0 0 0 0 0 0 0 0 0 0 0 0 0 0 0 0 127 0" result="hardAlpha"/>
<feOffset dy="4"/>
<feGaussianBlur stdDeviation="2"/>
<feComposite in2="hardAlpha" operator="out"/>
<feColorMatrix type="matrix" values="0 0 0 0 0 0 0 0 0 0 0 0 0 0 0 0 0 0 0.25 0"/>
<feBlend mode="normal" in2="BackgroundImageFix" result="effect1_dropShadow_220_6339"/>
<feBlend mode="normal" in="SourceGraphic" in2="effect1_dropShadow_220_6339" result="shape"/>
</filter>
</defs>
</svg>
