<svg width="134" height="240" viewBox="0 0 134 240" fill="none" xmlns="http://www.w3.org/2000/svg">
<path d="M13.4379 197.02C13.5273 197.387 9.21094 217.136 9.21094 217.136L19.1302 215.474L22.1192 198.776L13.4379 197.018V197.02Z" fill="#F7F7F7"/>
<path d="M9.18396 217.563C9.06735 217.563 8.95658 217.516 8.87496 217.431C8.77779 217.328 8.73696 217.184 8.76806 217.046C10.4355 209.414 12.9231 197.841 12.9853 197.044C12.9795 196.927 13.0222 196.811 13.1039 196.723C13.2049 196.618 13.3546 196.572 13.4964 196.601L22.1778 198.36C22.4051 198.406 22.5548 198.626 22.514 198.853L19.525 215.551C19.4939 215.728 19.354 215.868 19.1752 215.897L9.25586 217.559C9.23254 217.563 9.20922 217.565 9.1859 217.565L9.18396 217.563ZM13.7608 197.526C13.547 198.805 12.7268 202.915 9.73589 216.61L18.7359 215.104L21.5986 199.114L13.7608 197.526Z" fill="#575757"/>
<path d="M14.4944 210.659C13.888 210.148 13.0193 209.65 11.9154 209.604C10.2538 209.532 8.73597 210.573 8.048 212.103C6.32806 215.926 1.79207 226.578 0.509408 235.282C0.0565883 238.359 2.37704 240.86 5.99377 238.845C11.9212 235.541 20.1459 227.957 24.4506 216.755C24.9442 215.469 24.7674 214.015 23.9569 212.906C23.2942 212 22.3944 210.902 21.3508 209.967C20.3519 209.073 18.8515 209.059 17.8176 209.911L16.8848 210.676C16.1852 211.252 15.1843 211.242 14.4905 210.659H14.4944Z" fill="#F7F7F7"/>
<path d="M3.52555 240C2.62379 240 1.97663 239.687 1.58406 239.417C0.384958 238.589 -0.19809 236.98 0.060387 235.219C1.33722 226.544 5.77993 216.041 7.63202 211.927C8.40745 210.205 10.1138 209.101 11.9076 209.177C12.9143 209.22 13.8938 209.62 14.743 210.333C15.2775 210.782 16.0549 210.788 16.5913 210.347L17.5241 209.581C18.7368 208.584 20.4567 208.613 21.6131 209.649C22.5129 210.456 23.4108 211.466 24.2795 212.654C25.1754 213.878 25.3795 215.47 24.8275 216.908C20.5306 228.089 12.3759 235.763 6.18026 239.217C5.13469 239.8 4.25043 240 3.52941 240H3.52555ZM11.7307 210.028C10.3451 210.028 9.02352 210.918 8.4094 212.279C6.57285 216.36 2.16709 226.775 0.903855 235.343C0.69202 236.782 1.13707 238.072 2.06797 238.713C3.00665 239.361 4.31652 239.275 5.7605 238.47C11.826 235.091 19.8115 227.57 24.0268 216.601C24.4758 215.435 24.3106 214.146 23.5876 213.157C22.7539 212.018 21.8988 211.051 21.0417 210.285C20.2022 209.533 18.9506 209.513 18.0644 210.24L17.1315 211.006C16.2764 211.709 15.0404 211.7 14.1911 210.986C13.4798 210.388 12.6966 210.065 11.8687 210.03C11.8221 210.028 11.7774 210.026 11.7307 210.026V210.028Z" fill="#575757"/>
<path d="M2.6952 236.534C2.67383 236.534 2.65634 236.534 2.64662 236.534C2.41146 236.526 2.22684 236.328 2.23461 236.093C2.24239 235.857 2.43867 235.675 2.67383 235.681C2.77878 235.69 11.0811 235.605 21.187 215.632C21.2939 215.422 21.5504 215.337 21.7603 215.444C21.9702 215.55 22.0557 215.807 21.9488 216.017C11.8157 236.044 3.47258 236.534 2.69326 236.534H2.6952Z" fill="#575757"/>
<path d="M9.03721 225.496C8.98474 225.496 8.93225 225.486 8.87978 225.467L4.17668 223.611C3.95707 223.523 3.85018 223.277 3.93569 223.057C4.02315 222.837 4.26996 222.731 4.48957 222.816L9.19267 224.672C9.41228 224.759 9.51917 225.006 9.43365 225.226C9.36758 225.393 9.20629 225.496 9.03526 225.496H9.03721Z" fill="#575757"/>
<path d="M10.7399 221.895C10.6875 221.895 10.6369 221.886 10.5845 221.866L5.06898 219.721C4.84937 219.635 4.74054 219.388 4.82605 219.167C4.91156 218.947 5.16034 218.838 5.37801 218.924L10.8935 221.069C11.1131 221.155 11.2219 221.402 11.1364 221.623C11.0703 221.792 10.909 221.895 10.738 221.895H10.7399Z" fill="#575757"/>
<path d="M55.7577 196.967C55.8296 197.116 56.3795 199.435 56.811 203.341C57.5262 209.85 50.2422 215.876 50.2422 215.876L67.4979 213.55L66.8391 198.487L55.7596 196.965L55.7577 196.967Z" fill="#F7F7F7"/>
<path d="M50.2151 216.305C50.048 216.305 49.8925 216.206 49.8245 216.048C49.7487 215.873 49.7973 215.669 49.9431 215.549C50.013 215.491 57.0424 209.59 56.3603 203.389C55.9599 199.747 55.4372 197.401 55.338 197.131C55.27 196.989 55.2894 196.832 55.3827 196.705C55.476 196.579 55.6373 196.523 55.7908 196.544L66.8704 198.066C67.0744 198.093 67.2299 198.264 67.2396 198.47L67.8985 213.533C67.9082 213.755 67.7488 213.946 67.5292 213.975L50.2734 216.301C50.254 216.303 50.2346 216.305 50.2171 216.305H50.2151ZM56.3039 197.477C56.5313 198.487 56.9044 200.52 57.2096 203.295C57.7829 208.502 53.5404 213.302 51.5153 215.273L67.0297 213.182L66.402 198.864L56.3059 197.479L56.3039 197.477Z" fill="#575757"/>
<path d="M60.6803 209.94C59.7377 209.445 59.0089 208.749 57.9147 208.566C56.2667 208.288 54.9549 209.139 54.0959 210.568C51.9465 214.138 46.2114 224.116 43.9395 232.571C43.1369 235.56 45.1619 238.324 48.9963 236.779C55.2775 234.247 64.3359 227.761 69.9038 217.211C70.5432 216 70.3236 214.636 69.8513 213.339C69.4335 212.195 67.7349 208.286 66.8021 207.231C65.9101 206.222 63.6673 211.51 60.6803 209.94Z" fill="#F7F7F7"/>
<path d="M46.9133 237.654C45.9882 237.654 45.1778 237.368 44.5364 236.801C43.4442 235.833 43.0497 234.171 43.5084 232.463C45.7725 224.035 51.3987 214.191 53.7114 210.349C54.7414 208.641 56.2515 207.857 57.9675 208.145C58.8071 208.287 59.4426 208.691 60.0567 209.082C60.3152 209.247 60.5834 209.416 60.8593 209.562C62.28 210.308 63.5024 209.231 64.8434 207.855C65.51 207.171 65.9939 206.674 66.5148 206.674C66.5206 206.674 66.5284 206.674 66.5342 206.674C66.7519 206.68 66.9501 206.773 67.1017 206.948C68.1025 208.081 69.8419 212.121 70.2325 213.192C70.8525 214.893 70.8603 216.272 70.2617 217.409C64.7035 227.943 55.7034 234.527 49.1366 237.176C48.3475 237.495 47.5993 237.652 46.9113 237.652L46.9133 237.654ZM57.2795 208.942C55.8725 208.942 54.9708 209.915 54.4441 210.79C52.1489 214.599 46.5712 224.361 44.3343 232.685C43.9612 234.076 44.2546 235.409 45.1039 236.16C45.9649 236.923 47.2845 237.003 48.8178 236.385C55.2448 233.793 64.0563 227.342 69.5076 217.013C69.9954 216.088 69.9721 214.968 69.4319 213.488C68.9557 212.18 67.3174 208.51 66.4856 207.541C66.2777 207.614 65.8073 208.096 65.4575 208.454C64.3051 209.636 62.5638 211.424 60.4648 210.32C60.1558 210.156 59.874 209.978 59.6 209.803C59.0325 209.441 58.4961 209.101 57.8276 208.988C57.6371 208.957 57.4564 208.942 57.2815 208.942H57.2795Z" fill="#575757"/>
<path d="M46.4484 234.117C46.1705 234.117 46.0053 234.093 45.9606 234.088C45.7274 234.051 45.57 233.831 45.6069 233.598C45.6439 233.367 45.8596 233.207 46.0947 233.244C46.2055 233.26 54.4806 234.21 66.8234 215.705C66.9536 215.508 67.2199 215.456 67.4162 215.586C67.6124 215.716 67.6649 215.983 67.5347 216.179C56.358 232.937 48.4521 234.117 46.4484 234.117Z" fill="#575757"/>
<path d="M53.6565 223.962C53.5884 223.962 53.5185 223.944 53.4543 223.909L48.9825 221.488C48.7745 221.375 48.6968 221.116 48.8095 220.908C48.9222 220.7 49.1827 220.625 49.3887 220.735L53.8605 223.157C54.0685 223.27 54.1462 223.528 54.0335 223.736C53.9557 223.878 53.81 223.96 53.6565 223.96V223.962Z" fill="#575757"/>
<path d="M55.7239 220.601C55.6597 220.601 55.5956 220.587 55.5334 220.556L50.6982 218.146C50.4863 218.042 50.4008 217.785 50.5058 217.573C50.6107 217.361 50.8672 217.276 51.0791 217.381L55.9143 219.791C56.1262 219.896 56.2117 220.152 56.1067 220.364C56.031 220.514 55.8813 220.601 55.7239 220.601Z" fill="#575757"/>
<path d="M102.55 121.033C102.55 121.033 42.1445 118.411 35.5407 124.542C26.5834 132.86 11.1953 202.109 11.1953 202.109L26.0529 206.274C26.0529 206.274 48.4412 149.442 53.9878 149.442C59.5344 149.442 111.834 147.576 111.834 147.576L102.55 121.031V121.033Z" fill="white"/>
<path d="M114.442 119.124C114.442 119.124 122.408 142.511 116.068 146.777C109.729 151.043 64.0309 150.68 65.6168 150.147C67.2007 149.615 69.7038 188.442 69.7038 203.374L55.3166 203.93C55.3166 203.93 32.3879 143.881 34.858 137.177C39.2793 125.182 73.3166 122.434 84.2076 120.83C86.4504 120.5 114.442 119.126 114.442 119.126V119.124Z" fill="white"/>
<path d="M42.4273 170.179C42.2466 170.179 42.0795 170.065 42.0212 169.882C41.5042 168.267 40.9892 166.677 40.4858 165.121C36.2433 152.012 32.8928 141.659 34.4243 137.04C37.3181 128.308 55.2909 124.571 68.5588 122.518C68.7958 122.484 69.0096 122.643 69.0466 122.876C69.0815 123.109 68.9222 123.327 68.689 123.364C61.1718 124.526 38.2975 128.065 35.2347 137.31C33.7907 141.665 37.2695 152.412 41.2982 164.86C41.8016 166.417 42.3165 168.007 42.8335 169.623C42.9054 169.849 42.781 170.088 42.5575 170.16C42.5148 170.173 42.4701 170.181 42.4273 170.181V170.179Z" fill="#575757"/>
<path d="M70.7111 13.1495C74.8992 9.06634 81.1259 8.20735 85.8057 9.35786C91.7293 10.8154 94.7164 15.4311 96.8211 18.6883C100.545 24.4447 98.7471 26.5281 101.674 29.8708C106.857 35.7924 119.431 31.8725 125.553 36.4202C140.263 47.3481 132.244 65.4085 119.206 73.9343C110.511 79.6208 98.6829 76.3325 95.4646 75.4366C85.6969 72.7216 69.5139 67.4024 67.9475 54.6962C66.8942 46.1548 76.5725 39.3062 71.3738 32.1854C70.0503 30.3722 68.9523 29.8805 67.9689 27.6125C66.3714 23.9297 66.0118 17.7302 70.7111 13.1476V13.1495Z" fill="white"/>
<path d="M85.9815 14.155C83.7562 12.5283 85.1652 7.73191 86.5878 5.1452C87.1223 4.17542 89.5088 -0.16427 92.6513 0.00480859C95.8774 0.177774 98.9675 5.05774 97.815 8.92129C96.375 13.7527 88.5876 16.0615 85.9815 14.155Z" fill="white"/>
<path d="M101.415 49.1764C101.415 49.1764 112.586 44.2809 119.33 90.6998C119.33 90.6998 107.764 115.655 107.558 119.161C107.352 122.667 76.9377 121.144 76.9377 121.144L76.2439 68.875L69.1484 68.533L70.6682 56.2544C71.6127 52.6765 75.5948 50.1034 78.2709 49.1472L101.415 49.1725V49.1764Z" fill="white"/>
<path d="M90.5684 121.903C83.5682 121.903 76.9644 121.576 76.8944 121.572C76.669 121.561 76.4921 121.376 76.4882 121.151L75.7983 69.2844L69.1032 68.9617C68.9846 68.9559 68.8738 68.9015 68.7961 68.8102C68.7184 68.7188 68.6834 68.6003 68.6989 68.4817L70.2187 56.2031C70.2206 56.1837 70.2245 56.1642 70.2304 56.1467C71.1477 52.668 74.9529 49.8714 78.1013 48.7461C78.1479 48.7306 78.1965 48.7209 78.2451 48.7209L101.314 48.7461C101.677 48.6237 103.028 48.2953 104.893 49.3311C109.276 51.7643 115.405 60.9043 119.726 90.6349C119.737 90.7166 119.726 90.8001 119.691 90.8759C115.703 99.4814 108.118 116.473 107.958 119.184C107.914 119.959 107.809 121.775 92.1484 121.893C91.6198 121.897 91.0912 121.899 90.5645 121.899L90.5684 121.903ZM77.3355 120.739C79.003 120.815 85.599 121.092 92.1484 121.044C106.289 120.937 107.091 119.439 107.109 119.139C107.311 115.678 117.909 92.7066 118.865 90.6369C114.389 59.9287 107.972 52.0694 104.542 50.1163C102.752 49.0979 101.607 49.5507 101.559 49.5701C101.506 49.5915 101.448 49.6051 101.391 49.6051L78.3209 49.5799C75.3999 50.6449 71.9095 53.1985 71.0641 56.3411L69.6026 68.1338L76.2375 68.4526C76.463 68.4642 76.6417 68.6469 76.6437 68.8743L77.3336 120.741L77.3355 120.739Z" fill="#575757"/>
<path d="M78.588 46.8013C78.588 46.8013 78.4909 46.8265 78.3082 46.8868C76.6193 47.4407 67.6698 50.9505 61.8939 64.745C56.911 76.6446 39.4453 74.9266 39.4453 74.9266L39.5891 86.4298C39.5891 86.4298 67.1606 89.8367 75.8342 81.4741C76.3764 80.9513 78.588 46.8013 78.588 46.8013Z" fill="#F7F7F7"/>
<path d="M52.1026 87.5654C45.4327 87.5654 40.0086 86.9163 39.5111 86.8541C39.2992 86.8288 39.1399 86.6481 39.136 86.4363L38.9922 74.9331C38.9922 74.8126 39.0408 74.696 39.1302 74.6124C39.2196 74.5308 39.34 74.49 39.4605 74.5016C39.6316 74.5191 56.6716 76.0467 61.4738 64.5804C67.3119 50.6401 76.3877 47.0584 78.1485 46.4812C78.3487 46.4151 78.4555 46.3879 78.4555 46.3879C78.5877 46.3549 78.7296 46.386 78.8345 46.4734C78.9395 46.5609 78.9977 46.693 78.988 46.8291C78.9822 46.9146 78.4283 55.4657 77.8142 63.9721C76.5607 81.3406 76.308 81.5854 76.104 81.7817C71.2085 86.5023 60.6362 87.5654 52.1006 87.5654H52.1026ZM39.9872 86.0476C43.2794 86.4071 67.5004 88.7626 75.4529 81.224C75.8786 79.71 77.2448 60.5031 78.096 47.4043C75.8183 48.2361 67.6617 52.018 62.2629 64.9108C57.6841 75.8445 42.7177 75.5491 39.8531 75.3859L39.9872 86.0495V86.0476Z" fill="#575757"/>
<path d="M62.8594 120.633L69.6225 56.618C70.0714 53.6213 72.6232 49.9404 75.1283 48.2671C76.1097 47.6122 77.2797 47.0719 78.6537 46.7998C78.6537 46.7998 79.4913 117.933 79.5127 120.584L62.8613 120.631L62.8594 120.633Z" fill="#F7F7F7"/>
<path d="M62.8324 121.059C62.8169 121.059 62.8033 121.059 62.7877 121.057C62.5526 121.032 62.3835 120.822 62.4087 120.587L69.1719 56.5723C69.6247 53.5366 72.1259 49.7411 74.8642 47.9123C75.9973 47.1563 77.2352 46.6413 78.5432 46.3809C78.6675 46.3556 78.7978 46.3887 78.8949 46.4683C78.994 46.548 79.0523 46.6685 79.0523 46.7948C79.0601 47.5061 79.8919 117.96 79.9113 120.581C79.9113 120.816 79.7228 121.011 79.4877 121.013H79.4838C79.2486 121.013 79.0582 120.824 79.0562 120.589C79.0368 118.09 78.2808 53.867 78.2031 47.3351C77.1905 47.5955 76.2285 48.027 75.3365 48.6236C72.8159 50.3066 70.4293 53.9214 70.0173 56.6811L63.2561 120.676C63.2328 120.896 63.0482 121.059 62.8324 121.059Z" fill="#575757"/>
<path d="M91.728 84.3236C91.66 84.3236 91.592 84.3081 91.5298 84.275C83.8435 80.2249 83.3519 69.3339 83.3363 68.8714C83.3266 68.6362 83.5112 68.438 83.7464 68.4283C83.9737 68.4166 84.1798 68.6032 84.1895 68.8383C84.1934 68.9471 84.6831 79.7002 91.9282 83.5171C92.1381 83.6279 92.2178 83.8863 92.107 84.0943C92.0312 84.24 91.8816 84.3217 91.728 84.3217V84.3236Z" fill="#575757"/>
<path d="M101.179 47.6499C101.179 47.6499 110.957 48.7188 115.831 57.4565C120.707 66.1941 127.468 85.2651 127.079 92.4325C126.422 104.596 114.437 110.114 115.013 113.96C115.292 115.828 117.759 125.319 124.846 137.668C130.684 147.838 132.021 169.26 131.069 169.871C124.658 173.987 114.276 182.567 101.169 182.561C98.7479 182.561 96.6471 180.88 96.1243 178.494C94.0332 168.957 88.2728 141.325 85.8435 115.645C83.7388 93.4042 94.1226 60.7661 94.8941 58.0045C96.8745 50.911 101.177 47.6499 101.177 47.6499H101.179Z" fill="#F7F7F7"/>
<path d="M101.184 182.986H101.168C98.5193 182.986 96.2727 181.174 95.7052 178.584C93.412 168.13 87.8188 141.074 85.4167 115.685C84.1515 102.31 87.2629 82.1467 94.1796 58.9091C94.3234 58.4291 94.4245 58.0831 94.4808 57.8888C96.4767 50.7389 100.737 47.4448 100.917 47.3087C101.005 47.2427 101.114 47.2135 101.223 47.2252C101.324 47.2368 111.276 48.4204 116.203 57.2475C120.956 65.7675 127.912 84.9297 127.506 92.4547C127.092 100.104 122.336 105.132 118.863 108.801C116.842 110.937 115.246 112.624 115.435 113.895C115.713 115.756 118.191 125.213 125.216 137.453C128.576 143.307 130.236 152.394 130.926 157.292C131.482 161.233 132.304 169.582 131.299 170.227C130.38 170.818 129.366 171.508 128.291 172.24C121.636 176.775 112.524 182.984 101.184 182.984V182.986ZM101.3 48.0978C100.572 48.7138 97.0229 51.9555 95.3029 58.1181C95.2485 58.3163 95.1436 58.6662 94.9997 59.152C88.1141 82.2847 85.0124 102.333 86.2679 115.603C88.6661 140.945 94.2515 167.961 96.5409 178.399C97.0229 180.595 98.9255 182.129 101.17 182.131H101.184C112.261 182.131 121.248 176.007 127.811 171.535C128.864 170.818 129.861 170.138 130.773 169.551C131.358 168.015 130.133 147.734 124.476 137.879C117.382 125.522 114.873 115.918 114.59 114.021C114.339 112.338 115.975 110.608 118.241 108.214C121.623 104.64 126.254 99.7445 126.652 92.4081C127.018 85.641 120.55 66.7936 115.456 57.6633C111.101 49.8585 102.618 48.296 101.302 48.0978H101.3Z" fill="#575757"/>
<path d="M104.599 88.9678C104.459 88.9678 104.323 88.8998 104.241 88.7754C104.113 88.5772 104.167 88.3129 104.366 88.1846C104.921 87.8212 106.612 86.7134 107.335 85.1606C109.481 80.5586 104.941 64.8653 104.894 64.7079C104.828 64.4805 104.958 64.2434 105.184 64.1774C105.411 64.1113 105.648 64.2415 105.714 64.4669C105.907 65.1238 110.39 80.6285 108.109 85.5202C107.283 87.2926 105.438 88.4994 104.832 88.8978C104.76 88.9445 104.678 88.9678 104.599 88.9678Z" fill="#575757"/>
<path d="M74.0956 92.3699C73.8741 92.3699 73.6856 92.197 73.67 91.9715C72.8402 80 73.5437 69.1867 73.5495 69.0779C73.5651 68.8427 73.7749 68.6658 74.0043 68.6794C74.2394 68.695 74.4182 68.8991 74.4027 69.1342C74.3949 69.2411 73.6972 80 74.5232 91.9113C74.5387 92.1464 74.3619 92.3505 74.1267 92.366C74.117 92.366 74.1073 92.366 74.0976 92.366L74.0956 92.3699Z" fill="#575757"/>
<path d="M107.533 132.769C98.9413 132.769 94.4734 124.752 94.419 124.653C94.3062 124.445 94.384 124.186 94.59 124.074C94.7979 123.961 95.0564 124.039 95.1691 124.245C95.4198 124.707 101.456 135.495 113.315 130.709C113.533 130.621 113.781 130.726 113.871 130.946C113.958 131.165 113.853 131.414 113.634 131.502C111.412 132.399 109.376 132.769 107.531 132.769H107.533Z" fill="#575757"/>
<path d="M55.4175 91.7852L48.3182 91.7172C47.1929 91.7172 46.5069 90.8621 45.9433 89.8534L37.2931 71.8164C36.6867 70.2947 38.0841 68.7788 39.6757 68.7808L46.7751 68.8488C47.9003 68.8488 48.7146 69.7447 49.15 70.7125L57.8002 88.7476C58.5348 90.141 57.0092 91.7852 55.4175 91.7832V91.7852Z" fill="#B9D043"/>
<path d="M55.421 92.2121C55.421 92.2121 55.4171 92.2121 55.4132 92.2121L48.3138 92.1441C46.9126 92.1421 46.1119 91.0305 45.5716 90.0627L36.9097 72.0023C36.593 71.2133 36.6921 70.3757 37.1682 69.6741C37.7201 68.8598 38.6802 68.3545 39.6733 68.3545H39.6772L46.7805 68.4225C47.9135 68.4225 48.9454 69.2154 49.5401 70.5389L58.1845 88.5662C58.5304 89.2192 58.4877 90.0063 58.064 90.7098C57.5199 91.6096 56.4588 92.214 55.421 92.214V92.2121ZM55.419 91.3589C56.1556 91.3589 56.9427 90.91 57.3313 90.2667C57.4868 90.0082 57.7064 89.4932 57.4208 88.9491L48.7647 70.8985C48.5898 70.5117 47.9465 69.2796 46.7746 69.2776L39.6714 69.2096H39.6694C38.9698 69.2096 38.2643 69.5808 37.8737 70.1541C37.5549 70.6225 37.4908 71.1569 37.691 71.6603L46.3296 89.6701C46.969 90.8128 47.5481 91.289 48.3196 91.2909L55.421 91.3589H55.419Z" fill="#575757"/>
<path d="M39.7336 77.1953L40.6509 79.2048C41.0182 80.0424 41.8772 80.5808 42.7207 80.1824L48.6093 77.7609C49.5596 77.31 50.6965 77.7861 51.025 78.7831C51.6974 80.8218 52.1211 83.5756 43.0141 87.2681C37.4501 89.5225 37.2519 83.4143 38.1595 79.6887C38.5617 78.0368 39.7356 77.1973 39.7356 77.1973L39.7336 77.1953Z" fill="#F7F7F7"/>
<path d="M40.8346 88.1836C40.0242 88.1836 39.3362 87.9407 38.7746 87.4568C37.076 85.9914 37.0196 82.4466 37.7154 79.5859C38.1507 77.7998 39.4042 76.8845 39.4567 76.8476C39.5617 76.7737 39.6919 76.7504 39.8162 76.7815C39.9406 76.8145 40.0417 76.9 40.0941 77.0166L41.0115 79.0261C41.1805 79.4109 41.472 79.7083 41.7927 79.8288C42.0317 79.9182 42.2727 79.9065 42.5098 79.7938L48.4198 77.3626C48.9659 77.1021 49.6228 77.0905 50.2 77.3373C50.7714 77.5822 51.2106 78.0583 51.403 78.6472C52.1998 81.0668 52.2853 83.9586 43.1473 87.6608C42.2922 88.0068 41.5206 88.1797 40.8346 88.1797V88.1836ZM39.5636 77.9087C39.2274 78.2721 38.7629 78.9037 38.5472 79.788C37.9331 82.3125 37.9175 85.5852 39.3343 86.8096C40.1078 87.4762 41.2835 87.4976 42.8266 86.8718C51.9899 83.1579 51.1154 80.5032 50.5926 78.9173C50.474 78.5578 50.2156 78.276 49.8638 78.1263C49.512 77.9748 49.1117 77.9825 48.7657 78.1477L42.8558 80.579C42.4302 80.7811 41.9521 80.8025 41.4954 80.6334C40.9551 80.4313 40.4945 79.9745 40.2341 79.3799L39.5636 77.9126V77.9087Z" fill="#575757"/>
<path d="M78.3687 75.975C78.3687 75.975 89.7689 86.9476 97.3211 91.3767C101.849 94.0334 102.467 90.8306 106.222 93.1063C111.279 96.1711 113.988 98.8589 107.641 107.247C102.244 114.377 92.7423 108.003 75.988 83.9741C75.2029 82.8489 73.9202 82.1492 72.5792 81.85C70.9001 81.4749 68.4591 80.1456 67.3378 75.7379C67.3378 75.7379 59.3949 76.865 58.6953 72.9937L70.6222 71.095C72.2197 70.8113 73.8561 71.3379 74.9871 72.502L78.3687 75.975Z" fill="#F7F7F7"/>
<path d="M102.653 110.427C102.612 110.427 102.569 110.427 102.527 110.427C96.5486 110.31 87.9955 101.983 75.612 84.2215C74.9473 83.2692 73.8279 82.5773 72.4597 82.2703C70.6115 81.8563 68.19 80.4648 66.9948 76.2087C65.3409 76.3875 58.9276 76.8287 58.2493 73.072C58.228 72.9593 58.2552 72.8427 58.3213 72.7494C58.3873 72.6561 58.4884 72.592 58.603 72.5745L70.5299 70.6758C72.2615 70.3687 74.0359 70.9401 75.268 72.2052L78.6457 75.6743C78.9352 75.9522 90.1508 86.6935 97.5126 91.0099C99.7378 92.3139 100.892 92.1332 102.115 91.9408C103.279 91.7581 104.484 91.5696 106.419 92.7415C108.804 94.1855 111.171 95.8082 111.653 98.3308C112.1 100.667 110.924 103.582 107.957 107.506C106.489 109.445 104.705 110.427 102.653 110.427ZM67.3116 75.3109C67.504 75.3109 67.6769 75.4411 67.7255 75.6335C68.775 79.7535 70.9808 81.0615 72.6463 81.4346C74.2244 81.7883 75.5245 82.6026 76.3116 83.7317C88.359 101.011 96.9392 109.463 102.542 109.572C104.379 109.611 105.931 108.763 107.272 106.991C110.085 103.275 111.21 100.574 110.811 98.4921C110.434 96.5176 108.751 95.1572 105.972 93.4722C104.305 92.4616 103.351 92.6113 102.243 92.7843C100.987 92.9805 99.5648 93.204 97.0772 91.7465C89.5697 87.3426 78.1598 76.3933 78.0452 76.2845C78.0413 76.2806 78.0393 76.2787 78.0354 76.2748L74.6539 72.8019C73.62 71.7388 72.1294 71.2588 70.6698 71.5192L59.2074 73.3441C60.3444 76.2573 67.1775 75.3283 67.2494 75.3186C67.2708 75.3167 67.2902 75.3147 67.3096 75.3147L67.3116 75.3109Z" fill="#575757"/>
<path d="M81.7303 38.1484C80.8188 38.6051 79.7052 38.4496 78.9823 37.7286C78.131 36.8793 77.445 35.9776 76.8892 35.0622L75.832 35.0836C75.4938 35.0914 75.212 34.827 75.1964 34.4889L75.0565 31.3017C75.0313 30.7089 74.8622 30.1337 74.592 29.605C74.0809 28.6003 73.8574 27.7316 73.7972 27.0028C73.6709 25.4675 75.039 22.7097 76.4228 22.0334C78.2982 21.1181 81.6836 20.6225 83.4522 23.2811C84.212 24.4238 85.4442 25.242 86.1924 25.1099C86.8959 24.9855 87.1835 24.383 87.5295 23.7611C88.1747 22.6009 89.78 21.5106 91.3231 23.3433C92.4872 24.727 92.184 26.0272 91.5524 27.1894C90.9869 28.231 90.7536 30.0307 91.0238 31.1831L93.3112 40.9275C93.8981 43.4326 95.69 45.4829 98.0921 46.4041L100.539 47.3428C100.539 47.3428 97.8375 55.546 87.0067 55.3128C78.7413 55.1359 78.9045 47.885 78.9045 47.885L79.9909 47.4069C82.8633 46.1398 84.1984 43.0458 83.5046 39.983L82.5932 37.6256L81.7303 38.1484Z" fill="#F7F7F7"/>
<path d="M87.4253 55.7463C87.2757 55.7463 87.1241 55.7463 86.9725 55.7405C82.4987 55.6452 80.4154 53.5094 79.4553 51.735C78.4214 49.8227 78.4506 47.9531 78.4525 47.8754C78.4564 47.7102 78.5555 47.5605 78.7071 47.4945L79.7935 47.0164C82.3763 45.8775 83.7192 43.0401 83.0681 40.1075L82.353 38.2554L81.9254 38.5138C81.9157 38.5197 81.906 38.5255 81.8963 38.5313C80.806 39.0774 79.5039 38.8773 78.6546 38.0319C77.8928 37.2739 77.2126 36.4208 76.6276 35.4957L75.8133 35.5112C75.2575 35.5287 74.7677 35.0817 74.7425 34.5084L74.6025 31.3212C74.5792 30.814 74.4393 30.3009 74.1847 29.7995C73.7008 28.8453 73.4171 27.9163 73.3451 27.0379C73.2091 25.3996 74.6006 22.4358 76.2098 21.6487C78.6255 20.469 82.0245 20.403 83.7833 23.0441C84.483 24.0955 85.581 24.7796 86.0921 24.6882C86.5275 24.6105 86.7354 24.2704 87.0638 23.6718L87.1299 23.5513C87.5264 22.8381 88.3135 22.0413 89.3357 21.9441C89.9032 21.8897 90.7622 22.0393 91.6251 23.0674C93.0555 24.7679 92.4685 26.3518 91.903 27.3935C91.3899 28.338 91.1664 30.0288 91.4152 31.086L93.7026 40.8304C94.2584 43.1995 95.9473 45.1332 98.2192 46.0058L100.666 46.9445C100.88 47.0261 100.99 47.2613 100.919 47.477C100.891 47.5605 98.0695 55.7463 87.4253 55.7463ZM79.3115 48.1611C79.3737 49.4418 80.0519 54.7376 86.99 54.8853C96.1474 55.0836 99.2861 49.1794 99.9605 47.5878L97.9121 46.8026C95.374 45.8309 93.4888 43.6698 92.8689 41.0248L90.5815 31.2804C90.2841 30.0094 90.5329 28.1223 91.1509 26.9834C91.8797 25.6405 91.8272 24.6338 90.9702 23.6155C90.4688 23.0188 89.944 22.7409 89.4174 22.7934C88.7255 22.8595 88.1561 23.4658 87.8781 23.9653L87.814 24.0838C87.4798 24.6902 87.1008 25.3762 86.2437 25.5278C85.2195 25.7105 83.8261 24.6474 83.074 23.5144C81.3793 20.9666 78.0891 21.6798 76.5868 22.4125C75.4207 22.9819 74.0817 25.5336 74.2003 26.9621C74.2624 27.7297 74.5151 28.5518 74.9504 29.4069C75.2614 30.0172 75.4324 30.6468 75.4596 31.2784L75.5995 34.4657C75.6034 34.5706 75.6889 34.6503 75.7978 34.6522L76.855 34.6309C77.0066 34.625 77.1504 34.7067 77.2281 34.8349C77.8053 35.7833 78.4894 36.654 79.259 37.4197C79.8421 38.0008 80.7399 38.1407 81.4998 37.7676L82.3471 37.2545C82.456 37.1884 82.5881 37.1748 82.7067 37.2156C82.8272 37.2564 82.9224 37.3478 82.9671 37.4663L83.8786 39.8237C83.8863 39.8432 83.8922 39.8626 83.8961 39.884C84.654 43.2306 83.109 46.4819 80.1375 47.7918L79.3115 48.1552V48.1611Z" fill="#575757"/>
</svg>
