<svg width="211" height="38" viewBox="0 0 211 38" fill="none" xmlns="http://www.w3.org/2000/svg">
<g clip-path="url(#clip0_1_477)">
<path d="M3.14494 26.3864C1.04777 24.263 0 21.6452 0 18.5347C0 15.4243 1.04777 12.8082 3.14494 10.6831C5.24047 8.55962 7.8024 7.49707 10.8291 7.49707C13.8558 7.49707 16.4177 8.55962 18.5133 10.6831C20.6088 12.8065 21.6582 15.4243 21.6582 18.5347V19.9931H4.37335C4.70673 21.7421 5.47039 23.1167 6.66431 24.1168C7.85824 25.1169 9.2476 25.6162 10.8291 25.6162C12.7719 25.6162 14.3271 25.1301 15.4948 24.1579C16.0219 23.7686 16.4801 23.2825 16.8694 22.6995H21.4513C20.8683 24.061 20.1325 25.2138 19.2441 26.1565C16.9662 28.4343 14.1629 29.5724 10.8307 29.5724C7.80405 29.5724 5.24211 28.5099 3.14658 26.3864H3.14494ZM4.58192 16.4523H17.0779C16.8283 15.0646 16.1681 13.8838 15.099 12.9116C14.0299 11.9394 12.606 11.4533 10.8291 11.4533C9.32971 11.4533 7.99619 11.9049 6.83018 12.8065C5.66417 13.7098 4.91366 14.925 4.58028 16.4507L4.58192 16.4523Z" fill="white"/>
<path d="M23.3252 7.91406H27.9071L32.489 25.2005H35.1971L39.7791 7.91406H44.361L38.5293 29.1568H29.1569L23.3252 7.91406Z" fill="white"/>
<path d="M49.1713 26.3864C47.0741 24.263 46.0264 21.6452 46.0264 18.5347C46.0264 15.4243 47.0741 12.8082 49.1713 10.6831C51.2668 8.55962 53.8288 7.49707 56.8555 7.49707C59.8822 7.49707 62.4441 8.55962 64.5396 10.6831C66.6352 12.8065 67.6846 15.4243 67.6846 18.5347V19.9931H50.3981C50.7315 21.7421 51.4951 23.1167 52.689 24.1168C53.883 25.1169 55.2723 25.6162 56.8538 25.6162C58.7966 25.6162 60.3519 25.1301 61.5195 24.1579C62.0467 23.7686 62.5049 23.2825 62.8941 22.6995H67.476C66.893 24.061 66.1573 25.2138 65.2688 26.1565C62.991 28.4343 60.1876 29.5724 56.8555 29.5724C53.8288 29.5724 51.2668 28.5099 49.1713 26.3864ZM50.6083 16.4523H63.1043C62.8547 15.0646 62.1945 13.8838 61.1254 12.9116C60.0562 11.9394 58.6324 11.4533 56.8555 11.4533C55.3561 11.4533 54.0226 11.9049 52.8565 12.8065C51.6905 13.7098 50.94 14.925 50.6066 16.4507L50.6083 16.4523Z" fill="white"/>
<path d="M71.4336 29.1569V7.91413H75.8069V11.0377H76.0155C76.321 10.4547 76.766 9.89964 77.349 9.37083C78.6251 8.26065 80.1261 7.70557 81.8472 7.70557H84.3467V11.8704H81.6386C79.9438 11.8704 78.5495 12.4057 77.4525 13.4732C76.3555 14.5423 75.8069 15.9514 75.8069 17.7004V29.1552H71.4336V29.1569Z" fill="white"/>
<path d="M85.5947 7.91406H90.1766L94.7586 24.992H97.0495L102.049 7.91406H106.631L97.8838 37.0709H93.3019L95.8014 29.1568H91.4281L85.5964 7.91406H85.5947Z" fill="white"/>
<path d="M123.891 11.8704L126.862 7.91249H129.361V3.33057H133.735V7.91249H140.191V11.8704H133.735V25.199H140.399V29.1552H129.361V11.8687H123.891V11.8704Z" fill="#B9D043"/>
<path d="M146.043 26.3864C143.946 24.263 142.898 21.6452 142.898 18.5347C142.898 15.4243 143.946 12.8082 146.043 10.6831C148.141 8.55962 150.701 7.49707 153.728 7.49707C156.754 7.49707 159.316 8.55962 161.412 10.6831C163.509 12.8065 164.557 15.4243 164.557 18.5347V19.9931H147.27C147.604 21.7421 148.367 23.1167 149.561 24.1168C150.755 25.1169 152.143 25.6162 153.726 25.6162C155.669 25.6162 157.224 25.1301 158.392 24.1579C158.919 23.7686 159.377 23.2825 159.766 22.6995H164.348C163.765 24.061 163.029 25.2138 162.141 26.1565C159.863 28.4343 157.06 29.5724 153.728 29.5724C150.701 29.5724 148.139 28.5099 146.043 26.3864ZM147.48 16.4523H159.976C159.727 15.0646 159.067 13.8838 157.997 12.9116C156.928 11.9394 155.504 11.4533 153.728 11.4533C152.228 11.4533 150.895 11.9049 149.729 12.8065C148.563 13.7098 147.812 14.925 147.479 16.4507L147.48 16.4523Z" fill="#B9D043"/>
<path d="M170.096 26.4503C168.069 24.3679 167.056 21.7304 167.056 18.5362C167.056 15.342 168.069 12.7045 170.096 10.6221C172.123 8.53973 174.65 7.49854 177.677 7.49854C181.065 7.49854 183.827 8.78936 185.965 11.3726C186.882 12.5666 187.52 13.8443 187.882 15.2041H183.3C183.106 14.511 182.745 13.8853 182.218 13.3302C181.135 12.0805 179.621 11.4564 177.677 11.4564C175.954 11.4564 174.519 12.1084 173.366 13.414C172.213 14.7196 171.636 16.4275 171.636 18.5379C171.636 20.6482 172.213 22.3561 173.366 23.6617C174.519 24.9673 175.954 25.6193 177.677 25.6193C179.677 25.6193 181.245 24.9953 182.383 23.7455C182.883 23.1904 183.259 22.5663 183.508 21.8717H187.882C187.52 23.2873 186.882 24.5798 185.965 25.7458C183.855 28.3011 181.093 29.5772 177.677 29.5772C174.65 29.5772 172.123 28.536 170.096 26.4536V26.4503Z" fill="#B9D043"/>
<path d="M191.423 29.1568V0H195.796V10.8291H196.005C196.338 10.274 196.852 9.71893 197.547 9.16385C199.046 8.05367 200.754 7.49695 202.669 7.49695C205.307 7.49695 207.354 8.2606 208.813 9.78791C210.271 11.3152 210.999 13.5372 210.999 16.4522V29.1568H206.625V16.8694C206.625 15.0087 206.215 13.6423 205.397 12.767C204.577 11.8917 203.321 11.4548 201.628 11.4548C199.935 11.4548 198.539 12.0312 197.442 13.1841C196.345 14.337 195.796 15.8429 195.796 17.7036V29.1584H191.423V29.1568Z" fill="#B9D043"/>
<path d="M122.861 7.91406H127.443L118.696 37.0709H114.114L122.861 7.91406Z" fill="#B9D043"/>
<path d="M112.454 7.91406H117.036L108.289 37.0709H103.708L112.454 7.91406Z" fill="#B9D043"/>
</g>
<defs>
<clipPath id="clip0_1_477">
<rect width="211" height="37.0709" fill="white"/>
</clipPath>
</defs>
</svg>
