<svg width="30" height="17" viewBox="0 0 30 17" fill="none" xmlns="http://www.w3.org/2000/svg">
<g clip-path="url(#clip0_466_173)">
<path d="M20.7188 4.30213L22.2157 2.30788H23.4751V0H25.6787V2.3087H28.9316V4.30296H25.6787V11.0189H29.0367V13.0123H23.4751V4.30213H20.7188Z" fill="#B9D043"/>
<path d="M20.2002 2.30859H22.5089L18.1017 16.9999H15.793L20.2002 2.30859Z" fill="#B9D043"/>
<path d="M14.9561 2.30859H17.2648L12.8575 16.9999H10.5488L14.9561 2.30859Z" fill="#B9D043"/>
<path d="M1.58465 11.6165C0.52794 10.5465 0 9.22748 0 7.66021C0 6.09294 0.52794 4.77474 1.58465 3.70397C2.64053 2.63402 3.93142 2.09863 5.45648 2.09863C6.98155 2.09863 8.27244 2.63402 9.32832 3.70397C10.3842 4.77392 10.913 6.09294 10.913 7.66021V8.39502H2.20361C2.37159 9.2763 2.75638 9.96891 3.35796 10.4729C3.95955 10.9768 4.65961 11.2284 5.45648 11.2284C6.43541 11.2284 7.21904 10.9834 7.80739 10.4935C8.07302 10.2974 8.30389 10.0525 8.5 9.75873H10.8087C10.5149 10.4447 10.1442 11.0256 9.69656 11.5006C8.54882 12.6483 7.13629 13.2218 5.45731 13.2218C3.93224 13.2218 2.64136 12.6864 1.58548 11.6165H1.58465ZM2.3087 6.61095H8.60509C8.47931 5.91172 8.14666 5.31675 7.60796 4.82688C7.06927 4.337 6.35183 4.09206 5.45648 4.09206C4.70098 4.09206 4.02906 4.31962 3.44154 4.77392C2.85402 5.22904 2.47586 5.84138 2.30788 6.61012L2.3087 6.61095Z" fill="white"/>
</g>
<defs>
<clipPath id="clip0_466_173">
<rect width="29.0375" height="17" fill="white"/>
</clipPath>
</defs>
</svg>
