<svg width="216" height="129" viewBox="0 0 216 129" fill="none" xmlns="http://www.w3.org/2000/svg">
<rect width="186" height="34" rx="17" fill="#213542"/>
<path d="M8.70584 21V14.64H14.5978V21H13.4458V15.36L13.7218 15.648H9.58184L9.85784 15.36V21H8.70584ZM19.6589 21.072C18.9789 21.072 18.3789 20.932 17.8589 20.652C17.3469 20.372 16.9469 19.988 16.6589 19.5C16.3789 19.012 16.2389 18.452 16.2389 17.82C16.2389 17.188 16.3749 16.628 16.6469 16.14C16.9269 15.652 17.3069 15.272 17.7869 15C18.2749 14.72 18.8229 14.58 19.4309 14.58C20.0469 14.58 20.5909 14.716 21.0629 14.988C21.5349 15.26 21.9029 15.644 22.1669 16.14C22.4389 16.628 22.5749 17.2 22.5749 17.856C22.5749 17.904 22.5709 17.96 22.5629 18.024C22.5629 18.088 22.5589 18.148 22.5509 18.204H17.1389V17.376H21.9509L21.4829 17.664C21.4909 17.256 21.4069 16.892 21.2309 16.572C21.0549 16.252 20.8109 16.004 20.4989 15.828C20.1949 15.644 19.8389 15.552 19.4309 15.552C19.0309 15.552 18.6749 15.644 18.3629 15.828C18.0509 16.004 17.8069 16.256 17.6309 16.584C17.4549 16.904 17.3669 17.272 17.3669 17.688V17.88C17.3669 18.304 17.4629 18.684 17.6549 19.02C17.8549 19.348 18.1309 19.604 18.4829 19.788C18.8349 19.972 19.2389 20.064 19.6949 20.064C20.0709 20.064 20.4109 20 20.7149 19.872C21.0269 19.744 21.2989 19.552 21.5309 19.296L22.1669 20.04C21.8789 20.376 21.5189 20.632 21.0869 20.808C20.6629 20.984 20.1869 21.072 19.6589 21.072ZM27.7341 21.072C27.2061 21.072 26.7221 20.952 26.2821 20.712C25.8501 20.464 25.5021 20.1 25.2381 19.62C24.9821 19.14 24.8541 18.54 24.8541 17.82C24.8541 17.1 24.9781 16.5 25.2261 16.02C25.4821 15.54 25.8261 15.18 26.2581 14.94C26.6981 14.7 27.1901 14.58 27.7341 14.58C28.3581 14.58 28.9101 14.716 29.3901 14.988C29.8701 15.26 30.2501 15.64 30.5301 16.128C30.8101 16.608 30.9501 17.172 30.9501 17.82C30.9501 18.468 30.8101 19.036 30.5301 19.524C30.2501 20.012 29.8701 20.392 29.3901 20.664C28.9101 20.936 28.3581 21.072 27.7341 21.072ZM24.3621 23.328V14.64H25.4661V16.356L25.3941 17.832L25.5141 19.308V23.328H24.3621ZM27.6381 20.064C28.0461 20.064 28.4101 19.972 28.7301 19.788C29.0581 19.604 29.3141 19.344 29.4981 19.008C29.6901 18.664 29.7861 18.268 29.7861 17.82C29.7861 17.364 29.6901 16.972 29.4981 16.644C29.3141 16.308 29.0581 16.048 28.7301 15.864C28.4101 15.68 28.0461 15.588 27.6381 15.588C27.2381 15.588 26.8741 15.68 26.5461 15.864C26.2261 16.048 25.9701 16.308 25.7781 16.644C25.5941 16.972 25.5021 17.364 25.5021 17.82C25.5021 18.268 25.5941 18.664 25.7781 19.008C25.9701 19.344 26.2261 19.604 26.5461 19.788C26.8741 19.972 27.2381 20.064 27.6381 20.064ZM35.4558 21.072C34.7758 21.072 34.1758 20.932 33.6558 20.652C33.1438 20.372 32.7438 19.988 32.4558 19.5C32.1758 19.012 32.0358 18.452 32.0358 17.82C32.0358 17.188 32.1718 16.628 32.4438 16.14C32.7238 15.652 33.1038 15.272 33.5838 15C34.0718 14.72 34.6198 14.58 35.2278 14.58C35.8438 14.58 36.3878 14.716 36.8598 14.988C37.3318 15.26 37.6998 15.644 37.9638 16.14C38.2358 16.628 38.3718 17.2 38.3718 17.856C38.3718 17.904 38.3678 17.96 38.3598 18.024C38.3598 18.088 38.3558 18.148 38.3478 18.204H32.9358V17.376H37.7478L37.2798 17.664C37.2878 17.256 37.2038 16.892 37.0278 16.572C36.8518 16.252 36.6078 16.004 36.2958 15.828C35.9918 15.644 35.6358 15.552 35.2278 15.552C34.8278 15.552 34.4718 15.644 34.1598 15.828C33.8478 16.004 33.6038 16.256 33.4278 16.584C33.2518 16.904 33.1638 17.272 33.1638 17.688V17.88C33.1638 18.304 33.2598 18.684 33.4518 19.02C33.6518 19.348 33.9278 19.604 34.2798 19.788C34.6318 19.972 35.0358 20.064 35.4918 20.064C35.8678 20.064 36.2078 20 36.5118 19.872C36.8238 19.744 37.0958 19.552 37.3278 19.296L37.9638 20.04C37.6758 20.376 37.3158 20.632 36.8838 20.808C36.4598 20.984 35.9838 21.072 35.4558 21.072ZM41.8783 21.084C41.3983 21.084 40.9263 21.024 40.4623 20.904C40.0063 20.776 39.5983 20.596 39.2383 20.364L39.5863 19.488C39.8903 19.68 40.2383 19.832 40.6303 19.944C41.0223 20.048 41.4183 20.1 41.8183 20.1C42.1863 20.1 42.5023 20.056 42.7663 19.968C43.0383 19.88 43.2463 19.76 43.3903 19.608C43.5343 19.448 43.6063 19.264 43.6063 19.056C43.6063 18.76 43.4743 18.532 43.2103 18.372C42.9463 18.212 42.5783 18.132 42.1063 18.132H40.9543V17.304H42.0343C42.3143 17.304 42.5583 17.272 42.7663 17.208C42.9743 17.144 43.1343 17.048 43.2463 16.92C43.3663 16.784 43.4263 16.628 43.4263 16.452C43.4263 16.26 43.3583 16.096 43.2223 15.96C43.0863 15.824 42.8943 15.72 42.6463 15.648C42.4063 15.576 42.1223 15.54 41.7943 15.54C41.4743 15.548 41.1463 15.592 40.8103 15.672C40.4823 15.752 40.1463 15.876 39.8023 16.044L39.4903 15.144C39.8743 14.96 40.2503 14.82 40.6183 14.724C40.9943 14.62 41.3663 14.564 41.7343 14.556C42.2863 14.54 42.7783 14.604 43.2103 14.748C43.6423 14.884 43.9823 15.084 44.2303 15.348C44.4863 15.612 44.6143 15.924 44.6143 16.284C44.6143 16.588 44.5183 16.86 44.3263 17.1C44.1343 17.332 43.8783 17.516 43.5583 17.652C43.2383 17.788 42.8703 17.856 42.4543 17.856L42.5023 17.58C43.2143 17.58 43.7743 17.72 44.1823 18C44.5903 18.28 44.7943 18.66 44.7943 19.14C44.7943 19.524 44.6663 19.864 44.4103 20.16C44.1543 20.448 43.8063 20.676 43.3663 20.844C42.9343 21.004 42.4383 21.084 41.8783 21.084ZM46.5457 21V14.64H49.4977C50.2417 14.64 50.8257 14.784 51.2497 15.072C51.6817 15.352 51.8977 15.752 51.8977 16.272C51.8977 16.792 51.6937 17.196 51.2857 17.484C50.8857 17.764 50.3537 17.904 49.6897 17.904L49.8697 17.592C50.6297 17.592 51.1937 17.732 51.5617 18.012C51.9297 18.292 52.1137 18.704 52.1137 19.248C52.1137 19.8 51.9057 20.232 51.4897 20.544C51.0817 20.848 50.4537 21 49.6057 21H46.5457ZM47.6737 20.112H49.5217C50.0017 20.112 50.3617 20.04 50.6017 19.896C50.8417 19.744 50.9617 19.504 50.9617 19.176C50.9617 18.84 50.8497 18.596 50.6257 18.444C50.4097 18.284 50.0657 18.204 49.5937 18.204H47.6737V20.112ZM47.6737 17.376H49.4017C49.8417 17.376 50.1737 17.296 50.3977 17.136C50.6297 16.968 50.7457 16.736 50.7457 16.44C50.7457 16.136 50.6297 15.908 50.3977 15.756C50.1737 15.604 49.8417 15.528 49.4017 15.528H47.6737V17.376ZM56.6408 21.072C56.0008 21.072 55.4328 20.932 54.9368 20.652C54.4408 20.372 54.0488 19.988 53.7608 19.5C53.4728 19.004 53.3288 18.444 53.3288 17.82C53.3288 17.188 53.4728 16.628 53.7608 16.14C54.0488 15.652 54.4408 15.272 54.9368 15C55.4328 14.72 56.0008 14.58 56.6408 14.58C57.2728 14.58 57.8368 14.72 58.3328 15C58.8368 15.272 59.2288 15.652 59.5088 16.14C59.7968 16.62 59.9408 17.18 59.9408 17.82C59.9408 18.452 59.7968 19.012 59.5088 19.5C59.2288 19.988 58.8368 20.372 58.3328 20.652C57.8368 20.932 57.2728 21.072 56.6408 21.072ZM56.6408 20.064C57.0488 20.064 57.4128 19.972 57.7328 19.788C58.0608 19.604 58.3168 19.344 58.5008 19.008C58.6848 18.664 58.7768 18.268 58.7768 17.82C58.7768 17.364 58.6848 16.972 58.5008 16.644C58.3168 16.308 58.0608 16.048 57.7328 15.864C57.4128 15.68 57.0488 15.588 56.6408 15.588C56.2328 15.588 55.8688 15.68 55.5488 15.864C55.2288 16.048 54.9728 16.308 54.7808 16.644C54.5888 16.972 54.4928 17.364 54.4928 17.82C54.4928 18.268 54.5888 18.664 54.7808 19.008C54.9728 19.344 55.2288 19.604 55.5488 19.788C55.8688 19.972 56.2328 20.064 56.6408 20.064ZM61.6043 21V14.64H62.7563V17.34H66.3803V14.64H67.5323V21H66.3803V18.336H62.7563V21H61.6043ZM69.7723 21V14.64H70.9243V19.272L74.8242 14.64H75.8683V21H74.7162V16.368L70.8283 21H69.7723ZM78.1043 21V14.64H79.2923L82.0283 19.344H81.5483L84.3563 14.64H85.4363V21H84.3923V15.936L84.5843 16.044L82.0163 20.28H81.5123L78.9323 15.96L79.1603 15.912V21H78.1043ZM94.9092 18.396C94.5732 18.556 94.2252 18.684 93.8652 18.78C93.5132 18.868 93.1492 18.912 92.7732 18.912C92.0052 18.912 91.3972 18.732 90.9492 18.372C90.5092 18.012 90.2892 17.456 90.2892 16.704V14.64H91.4412V16.632C91.4412 17.088 91.5812 17.424 91.8612 17.64C92.1492 17.856 92.5332 17.964 93.0132 17.964C93.3172 17.964 93.6292 17.924 93.9492 17.844C94.2772 17.764 94.5972 17.652 94.9092 17.508V18.396ZM94.8252 21V14.64H95.9772V21H94.8252ZM101.046 21.072C100.366 21.072 99.7657 20.932 99.2457 20.652C98.7337 20.372 98.3337 19.988 98.0457 19.5C97.7657 19.012 97.6257 18.452 97.6257 17.82C97.6257 17.188 97.7617 16.628 98.0337 16.14C98.3137 15.652 98.6937 15.272 99.1737 15C99.6617 14.72 100.21 14.58 100.818 14.58C101.434 14.58 101.978 14.716 102.45 14.988C102.922 15.26 103.29 15.644 103.554 16.14C103.826 16.628 103.962 17.2 103.962 17.856C103.962 17.904 103.958 17.96 103.95 18.024C103.95 18.088 103.946 18.148 103.938 18.204H98.5257V17.376H103.338L102.87 17.664C102.878 17.256 102.794 16.892 102.618 16.572C102.442 16.252 102.198 16.004 101.886 15.828C101.582 15.644 101.226 15.552 100.818 15.552C100.418 15.552 100.062 15.644 99.7497 15.828C99.4377 16.004 99.1937 16.256 99.0177 16.584C98.8417 16.904 98.7537 17.272 98.7537 17.688V17.88C98.7537 18.304 98.8497 18.684 99.0417 19.02C99.2417 19.348 99.5177 19.604 99.8697 19.788C100.222 19.972 100.626 20.064 101.082 20.064C101.458 20.064 101.798 20 102.102 19.872C102.414 19.744 102.686 19.552 102.918 19.296L103.554 20.04C103.266 20.376 102.906 20.632 102.474 20.808C102.05 20.984 101.574 21.072 101.046 21.072ZM109.121 21.072C108.593 21.072 108.109 20.952 107.669 20.712C107.237 20.464 106.889 20.1 106.625 19.62C106.369 19.14 106.241 18.54 106.241 17.82C106.241 17.1 106.365 16.5 106.613 16.02C106.869 15.54 107.213 15.18 107.645 14.94C108.085 14.7 108.577 14.58 109.121 14.58C109.745 14.58 110.297 14.716 110.777 14.988C111.257 15.26 111.637 15.64 111.917 16.128C112.197 16.608 112.337 17.172 112.337 17.82C112.337 18.468 112.197 19.036 111.917 19.524C111.637 20.012 111.257 20.392 110.777 20.664C110.297 20.936 109.745 21.072 109.121 21.072ZM105.749 23.328V14.64H106.853V16.356L106.781 17.832L106.901 19.308V23.328H105.749ZM109.025 20.064C109.433 20.064 109.797 19.972 110.117 19.788C110.445 19.604 110.701 19.344 110.885 19.008C111.077 18.664 111.173 18.268 111.173 17.82C111.173 17.364 111.077 16.972 110.885 16.644C110.701 16.308 110.445 16.048 110.117 15.864C109.797 15.68 109.433 15.588 109.025 15.588C108.625 15.588 108.261 15.68 107.933 15.864C107.613 16.048 107.357 16.308 107.165 16.644C106.981 16.972 106.889 17.364 106.889 17.82C106.889 18.268 106.981 18.664 107.165 19.008C107.357 19.344 107.613 19.604 107.933 19.788C108.261 19.972 108.625 20.064 109.025 20.064ZM116.843 21.072C116.163 21.072 115.563 20.932 115.043 20.652C114.531 20.372 114.131 19.988 113.843 19.5C113.563 19.012 113.423 18.452 113.423 17.82C113.423 17.188 113.559 16.628 113.831 16.14C114.111 15.652 114.491 15.272 114.971 15C115.459 14.72 116.007 14.58 116.615 14.58C117.231 14.58 117.775 14.716 118.247 14.988C118.719 15.26 119.087 15.644 119.351 16.14C119.623 16.628 119.759 17.2 119.759 17.856C119.759 17.904 119.755 17.96 119.747 18.024C119.747 18.088 119.743 18.148 119.735 18.204H114.323V17.376H119.135L118.667 17.664C118.675 17.256 118.591 16.892 118.415 16.572C118.239 16.252 117.995 16.004 117.683 15.828C117.379 15.644 117.023 15.552 116.615 15.552C116.215 15.552 115.859 15.644 115.547 15.828C115.235 16.004 114.991 16.256 114.815 16.584C114.639 16.904 114.551 17.272 114.551 17.688V17.88C114.551 18.304 114.647 18.684 114.839 19.02C115.039 19.348 115.315 19.604 115.667 19.788C116.019 19.972 116.423 20.064 116.879 20.064C117.255 20.064 117.595 20 117.899 19.872C118.211 19.744 118.483 19.552 118.715 19.296L119.351 20.04C119.063 20.376 118.703 20.632 118.271 20.808C117.847 20.984 117.371 21.072 116.843 21.072ZM123.265 21.084C122.785 21.084 122.313 21.024 121.849 20.904C121.393 20.776 120.985 20.596 120.625 20.364L120.973 19.488C121.277 19.68 121.625 19.832 122.017 19.944C122.409 20.048 122.805 20.1 123.205 20.1C123.573 20.1 123.889 20.056 124.153 19.968C124.425 19.88 124.633 19.76 124.777 19.608C124.921 19.448 124.993 19.264 124.993 19.056C124.993 18.76 124.861 18.532 124.597 18.372C124.333 18.212 123.965 18.132 123.493 18.132H122.341V17.304H123.421C123.701 17.304 123.945 17.272 124.153 17.208C124.361 17.144 124.521 17.048 124.633 16.92C124.753 16.784 124.813 16.628 124.813 16.452C124.813 16.26 124.745 16.096 124.609 15.96C124.473 15.824 124.281 15.72 124.033 15.648C123.793 15.576 123.509 15.54 123.181 15.54C122.861 15.548 122.533 15.592 122.197 15.672C121.869 15.752 121.533 15.876 121.189 16.044L120.877 15.144C121.261 14.96 121.637 14.82 122.005 14.724C122.381 14.62 122.753 14.564 123.121 14.556C123.673 14.54 124.165 14.604 124.597 14.748C125.029 14.884 125.369 15.084 125.617 15.348C125.873 15.612 126.001 15.924 126.001 16.284C126.001 16.588 125.905 16.86 125.713 17.1C125.521 17.332 125.265 17.516 124.945 17.652C124.625 17.788 124.257 17.856 123.841 17.856L123.889 17.58C124.601 17.58 125.161 17.72 125.569 18C125.977 18.28 126.181 18.66 126.181 19.14C126.181 19.524 126.053 19.864 125.797 20.16C125.541 20.448 125.193 20.676 124.753 20.844C124.321 21.004 123.825 21.084 123.265 21.084ZM133.327 21.096C132.735 21.096 132.159 21.004 131.599 20.82C131.047 20.636 130.595 20.388 130.243 20.076L130.795 19.128C131.075 19.392 131.439 19.608 131.887 19.776C132.335 19.944 132.811 20.028 133.315 20.028C133.955 20.028 134.447 19.892 134.791 19.62C135.135 19.348 135.307 18.984 135.307 18.528C135.307 18.216 135.231 17.944 135.079 17.712C134.927 17.48 134.663 17.304 134.287 17.184C133.919 17.056 133.411 16.992 132.763 16.992H130.855L131.299 12.6H136.039V13.644H131.743L132.367 13.056L132.019 16.524L131.395 15.948H133.015C133.855 15.948 134.531 16.056 135.043 16.272C135.555 16.488 135.927 16.788 136.159 17.172C136.391 17.548 136.507 17.984 136.507 18.48C136.507 18.96 136.391 19.4 136.159 19.8C135.927 20.192 135.575 20.508 135.103 20.748C134.639 20.98 134.047 21.096 133.327 21.096ZM141.268 21V14.64H142.456L145.192 19.344H144.712L147.52 14.64H148.6V21H147.556V15.936L147.748 16.044L145.18 20.28H144.676L142.096 15.96L142.324 15.912V21H141.268ZM150.843 21V14.64H151.995V19.272L155.895 14.64H156.939V21H155.787V16.368L151.899 21H150.843ZM159.175 21V14.64H160.327V17.34H163.951V14.64H165.103V21H163.951V18.336H160.327V21H159.175ZM167.667 23.4C167.363 23.4 167.067 23.348 166.779 23.244C166.491 23.148 166.243 23.004 166.035 22.812L166.527 21.948C166.687 22.1 166.863 22.216 167.055 22.296C167.247 22.376 167.451 22.416 167.667 22.416C167.947 22.416 168.179 22.344 168.363 22.2C168.547 22.056 168.719 21.8 168.879 21.432L169.275 20.556L169.395 20.412L171.891 14.64H173.019L169.935 21.636C169.751 22.084 169.543 22.436 169.311 22.692C169.087 22.948 168.839 23.128 168.567 23.232C168.295 23.344 167.995 23.4 167.667 23.4ZM169.179 21.204L166.275 14.64H167.475L169.947 20.304L169.179 21.204ZM175.458 21V15.348L175.746 15.648H173.13V14.64H178.938V15.648H176.334L176.61 15.348V21H175.458Z" fill="white"/>
<g filter="url(#filter0_d_475_208)">
<path d="M151.662 99.6877C151.707 99.8699 149.566 109.662 149.566 109.662L154.485 108.838L155.967 100.559L151.662 99.6868V99.6877Z" fill="#F7F7F7"/>
<path d="M149.554 109.874C149.496 109.874 149.441 109.851 149.401 109.808C149.353 109.757 149.332 109.686 149.348 109.617C150.175 105.833 151.408 100.095 151.439 99.6998C151.436 99.642 151.457 99.5841 151.498 99.5408C151.548 99.4887 151.622 99.4656 151.692 99.4801L155.997 100.352C156.11 100.375 156.184 100.484 156.164 100.597L154.681 108.876C154.666 108.964 154.597 109.033 154.508 109.048L149.59 109.872C149.578 109.874 149.567 109.875 149.555 109.875L149.554 109.874ZM151.823 99.9387C151.717 100.573 151.311 102.611 149.828 109.401L154.29 108.655L155.71 100.726L151.823 99.9387Z" fill="#575757"/>
<path d="M152.186 106.451C151.885 106.197 151.454 105.951 150.907 105.927C150.083 105.892 149.331 106.408 148.989 107.167C148.137 109.062 145.888 114.344 145.252 118.66C145.027 120.185 146.178 121.425 147.971 120.426C150.91 118.788 154.988 115.028 157.122 109.474C157.367 108.836 157.279 108.115 156.878 107.565C156.549 107.116 156.103 106.571 155.585 106.108C155.09 105.664 154.346 105.658 153.834 106.08L153.371 106.459C153.024 106.745 152.528 106.74 152.184 106.451H152.186Z" fill="#F7F7F7"/>
<path d="M146.748 121C146.301 121 145.98 120.845 145.785 120.711C145.191 120.3 144.902 119.503 145.03 118.63C145.663 114.328 147.866 109.121 148.784 107.081C149.169 106.227 150.015 105.679 150.904 105.717C151.403 105.738 151.889 105.937 152.31 106.29C152.575 106.513 152.961 106.516 153.226 106.297L153.689 105.917C154.29 105.423 155.143 105.438 155.716 105.951C156.163 106.351 156.608 106.852 157.039 107.441C157.483 108.048 157.584 108.837 157.31 109.55C155.18 115.094 151.136 118.899 148.064 120.612C147.546 120.901 147.108 121 146.75 121H146.748ZM150.816 106.139C150.129 106.139 149.474 106.58 149.17 107.255C148.259 109.279 146.075 114.443 145.448 118.691C145.343 119.404 145.564 120.044 146.025 120.362C146.491 120.683 147.14 120.641 147.856 120.242C150.864 118.566 154.823 114.837 156.913 109.398C157.136 108.82 157.054 108.181 156.696 107.691C156.282 107.126 155.858 106.646 155.433 106.266C155.017 105.893 154.396 105.884 153.957 106.244L153.494 106.624C153.07 106.973 152.458 106.968 152.036 106.614C151.684 106.317 151.295 106.157 150.885 106.14C150.862 106.139 150.84 106.138 150.816 106.138V106.139Z" fill="#575757"/>
<path d="M146.335 119.281C146.324 119.281 146.316 119.281 146.311 119.281C146.194 119.277 146.103 119.179 146.107 119.063C146.11 118.946 146.208 118.855 146.324 118.858C146.376 118.863 150.493 118.821 155.504 108.918C155.557 108.814 155.684 108.771 155.788 108.824C155.892 108.877 155.934 109.004 155.882 109.108C150.857 119.038 146.72 119.281 146.334 119.281H146.335Z" fill="#575757"/>
<path d="M149.48 113.809C149.454 113.809 149.428 113.804 149.402 113.795L147.07 112.875C146.961 112.831 146.908 112.709 146.95 112.6C146.994 112.491 147.116 112.438 147.225 112.48L149.557 113.401C149.666 113.444 149.719 113.566 149.676 113.675C149.643 113.758 149.563 113.809 149.479 113.809H149.48Z" fill="#575757"/>
<path d="M150.327 112.023C150.301 112.023 150.276 112.018 150.25 112.008L147.515 110.944C147.406 110.902 147.352 110.779 147.394 110.67C147.437 110.561 147.56 110.507 147.668 110.549L150.403 111.613C150.512 111.655 150.566 111.778 150.523 111.888C150.49 111.971 150.41 112.023 150.326 112.023H150.327Z" fill="#575757"/>
<path d="M172.646 99.6616C172.682 99.7358 172.954 100.885 173.168 102.822C173.523 106.049 169.911 109.038 169.911 109.038L178.467 107.884L178.14 100.415L172.647 99.6606L172.646 99.6616Z" fill="#F7F7F7"/>
<path d="M169.899 109.25C169.816 109.25 169.739 109.201 169.705 109.123C169.667 109.037 169.692 108.935 169.764 108.876C169.799 108.847 173.284 105.921 172.946 102.846C172.747 101.04 172.488 99.8773 172.439 99.7434C172.405 99.6731 172.415 99.595 172.461 99.5324C172.507 99.4697 172.587 99.4418 172.663 99.4524L178.157 100.207C178.258 100.22 178.335 100.305 178.34 100.407L178.667 107.876C178.672 107.986 178.593 108.081 178.484 108.095L169.928 109.249C169.918 109.249 169.908 109.25 169.9 109.25H169.899ZM172.918 99.9149C173.031 100.416 173.216 101.424 173.367 102.8C173.651 105.382 171.548 107.762 170.543 108.739L178.236 107.702L177.925 100.603L172.919 99.9159L172.918 99.9149Z" fill="#575757"/>
<path d="M175.087 106.095C174.62 105.849 174.258 105.504 173.716 105.414C172.899 105.276 172.248 105.698 171.822 106.406C170.757 108.176 167.913 113.124 166.786 117.316C166.388 118.798 167.393 120.169 169.294 119.403C172.408 118.147 176.9 114.931 179.66 109.7C179.977 109.1 179.868 108.423 179.634 107.78C179.427 107.213 178.585 105.275 178.122 104.752C177.68 104.252 176.568 106.874 175.087 106.095Z" fill="#F7F7F7"/>
<path d="M168.262 119.837C167.803 119.837 167.401 119.695 167.083 119.414C166.542 118.934 166.346 118.11 166.574 117.263C167.696 113.084 170.486 108.203 171.633 106.298C172.143 105.451 172.892 105.063 173.743 105.205C174.159 105.276 174.474 105.476 174.779 105.67C174.907 105.752 175.04 105.835 175.177 105.908C175.881 106.278 176.487 105.744 177.152 105.062C177.483 104.723 177.723 104.476 177.981 104.476C177.984 104.476 177.988 104.476 177.991 104.476C178.099 104.479 178.197 104.525 178.272 104.612C178.768 105.173 179.631 107.177 179.824 107.708C180.132 108.551 180.136 109.235 179.839 109.799C177.083 115.022 172.62 118.286 169.364 119.6C168.973 119.758 168.602 119.836 168.261 119.836L168.262 119.837ZM173.402 105.6C172.704 105.6 172.257 106.083 171.996 106.517C170.858 108.405 168.092 113.246 166.983 117.373C166.798 118.063 166.944 118.724 167.365 119.096C167.792 119.475 168.446 119.514 169.206 119.208C172.393 117.922 176.762 114.724 179.465 109.602C179.707 109.144 179.695 108.589 179.427 107.854C179.191 107.206 178.379 105.386 177.967 104.906C177.863 104.942 177.63 105.181 177.457 105.359C176.885 105.944 176.022 106.831 174.981 106.284C174.828 106.203 174.688 106.114 174.552 106.027C174.271 105.848 174.005 105.679 173.674 105.624C173.579 105.608 173.49 105.6 173.403 105.6H173.402Z" fill="#575757"/>
<path d="M168.03 118.083C167.892 118.083 167.811 118.071 167.788 118.068C167.673 118.05 167.595 117.941 167.613 117.825C167.631 117.711 167.738 117.632 167.855 117.65C167.91 117.658 172.013 118.129 178.133 108.953C178.197 108.856 178.329 108.83 178.427 108.895C178.524 108.959 178.55 109.091 178.486 109.188C172.944 117.498 169.024 118.083 168.03 118.083Z" fill="#575757"/>
<path d="M171.606 113.047C171.572 113.047 171.537 113.038 171.505 113.021L169.288 111.82C169.185 111.764 169.147 111.636 169.202 111.533C169.258 111.43 169.387 111.392 169.49 111.447L171.707 112.648C171.81 112.704 171.848 112.832 171.793 112.935C171.754 113.006 171.682 113.046 171.606 113.046V113.047Z" fill="#575757"/>
<path d="M172.63 111.381C172.598 111.381 172.566 111.375 172.536 111.359L170.138 110.164C170.033 110.112 169.991 109.985 170.043 109.88C170.095 109.775 170.222 109.733 170.327 109.785L172.724 110.98C172.83 111.032 172.872 111.159 172.82 111.264C172.782 111.338 172.708 111.381 172.63 111.381Z" fill="#575757"/>
<path d="M195.847 62.0123C195.847 62.0123 165.895 60.7124 162.621 63.7526C158.18 67.8769 150.55 102.213 150.55 102.213L157.917 104.278C157.917 104.278 169.018 76.0985 171.768 76.0985C174.518 76.0985 200.45 75.1734 200.45 75.1734L195.847 62.0113V62.0123Z" fill="white"/>
<path d="M201.743 61.0659C201.743 61.0659 205.693 72.6621 202.549 74.7772C199.406 76.8924 176.748 76.7122 177.534 76.4482C178.319 76.1841 179.56 95.4363 179.56 102.84L172.427 103.115C172.427 103.115 161.058 73.3415 162.283 70.017C164.475 64.0695 181.352 62.707 186.752 61.912C187.864 61.7482 201.743 61.0669 201.743 61.0669V61.0659Z" fill="white"/>
<path d="M166.036 86.3803C165.947 86.3803 165.864 86.3234 165.835 86.2328C165.578 85.4321 165.323 84.6438 165.074 83.872C162.97 77.3724 161.309 72.2392 162.068 69.9486C163.503 65.6191 172.414 63.7661 178.993 62.7485C179.111 62.7311 179.217 62.8102 179.235 62.9258C179.252 63.0414 179.173 63.1494 179.058 63.1677C175.33 63.7439 163.988 65.4987 162.47 70.0826C161.754 72.2421 163.479 77.5709 165.476 83.7428C165.726 84.5147 165.981 85.3029 166.238 86.1047C166.273 86.2165 166.212 86.335 166.101 86.3706C166.08 86.3774 166.057 86.3812 166.036 86.3812V86.3803Z" fill="#575757"/>
<path d="M180.061 8.51964C182.138 6.49508 185.225 6.06916 187.546 6.63962C190.483 7.36234 191.964 9.65093 193.008 11.266C194.854 14.1202 193.962 15.1532 195.414 16.8106C197.984 19.7467 204.218 17.8031 207.254 20.058C214.547 25.4764 210.571 34.4313 204.106 38.6587C199.795 41.4783 193.931 39.8478 192.335 39.4036C187.492 38.0574 179.468 35.42 178.691 29.1199C178.169 24.8848 182.968 21.489 180.39 17.9583C179.734 17.0592 179.189 16.8154 178.702 15.6909C177.91 13.8648 177.731 10.7909 180.061 8.51868V8.51964Z" fill="white"/>
<path d="M187.632 9.01849C186.529 8.21194 187.228 5.83373 187.933 4.55115C188.198 4.07031 189.381 1.91855 190.94 2.00238C192.539 2.08815 194.071 4.50779 193.5 6.42346C192.786 8.81902 188.925 9.9638 187.632 9.01849Z" fill="white"/>
<path d="M195.282 26.3818C195.282 26.3818 200.821 23.9544 204.165 46.9704C204.165 46.9704 198.43 59.3442 198.328 61.0826C198.226 62.821 183.145 62.0655 183.145 62.0655L182.801 36.149L179.283 35.9794L180.037 29.8912C180.505 28.1172 182.48 26.8414 183.806 26.3673L195.282 26.3798V26.3818Z" fill="white"/>
<path d="M189.905 62.4428C186.434 62.4428 183.16 62.2809 183.125 62.279C183.013 62.2732 182.925 62.1817 182.924 62.0699L182.581 36.3528L179.262 36.1929C179.203 36.19 179.148 36.163 179.11 36.1177C179.071 36.0724 179.054 36.0136 179.061 35.9549L179.815 29.8667C179.816 29.8571 179.818 29.8475 179.821 29.8388C180.276 28.1139 182.162 26.7273 183.723 26.1693C183.746 26.1616 183.771 26.1568 183.795 26.1568L195.233 26.1693C195.413 26.1086 196.083 25.9458 197.008 26.4594C199.181 27.6658 202.22 32.1977 204.362 46.9392C204.368 46.9796 204.362 47.0211 204.345 47.0586C202.367 51.3255 198.606 59.7505 198.527 61.0947C198.505 61.4792 198.453 62.3792 190.688 62.438C190.426 62.4399 190.164 62.4409 189.903 62.4409L189.905 62.4428ZM183.344 61.8656C184.17 61.9032 187.441 62.041 190.688 62.0169C197.7 61.9639 198.098 61.2209 198.106 61.0725C198.207 59.3563 203.461 47.9664 203.935 46.9401C201.716 31.714 198.534 27.8171 196.833 26.8487C195.946 26.3437 195.378 26.5683 195.354 26.5779C195.328 26.5885 195.299 26.5952 195.271 26.5952L183.832 26.5827C182.384 27.1108 180.653 28.377 180.234 29.9351L179.509 35.7824L182.799 35.9404C182.911 35.9462 183 36.0368 183.001 36.1495L183.343 61.8666L183.344 61.8656Z" fill="#575757"/>
<path d="M183.965 25.2058C183.965 25.2058 183.917 25.2183 183.826 25.2482C182.989 25.5228 178.551 27.2631 175.687 34.1029C173.217 40.0031 164.557 39.1513 164.557 39.1513L164.628 44.8549C164.628 44.8549 178.299 46.5442 182.599 42.3977C182.868 42.1385 183.965 25.2058 183.965 25.2058Z" fill="#F7F7F7"/>
<path d="M170.834 45.4177C167.526 45.4177 164.837 45.0958 164.59 45.065C164.485 45.0525 164.406 44.9629 164.404 44.8578L164.333 39.1542C164.333 39.0944 164.357 39.0366 164.401 38.9952C164.446 38.9547 164.505 38.9345 164.565 38.9402C164.65 38.9489 173.099 39.7063 175.48 34.021C178.375 27.1089 182.875 25.333 183.748 25.0468C183.847 25.014 183.9 25.0005 183.9 25.0005C183.966 24.9842 184.036 24.9996 184.088 25.0429C184.14 25.0863 184.169 25.1518 184.164 25.2193C184.161 25.2617 183.887 29.5016 183.582 33.7194C182.961 42.3312 182.835 42.4526 182.734 42.55C180.307 44.8906 175.065 45.4177 170.833 45.4177H170.834ZM164.826 44.6651C166.459 44.8434 178.468 46.0113 182.411 42.2734C182.622 41.5227 183.3 31.9993 183.722 25.5045C182.593 25.9169 178.548 27.7921 175.871 34.1848C173.601 39.6061 166.18 39.4596 164.76 39.3787L164.826 44.6661V44.6651Z" fill="#575757"/>
<path d="M176.166 61.8141L179.519 30.0735C179.742 28.5876 181.007 26.7625 182.249 25.9329C182.736 25.6081 183.316 25.3402 183.997 25.2053C183.997 25.2053 184.413 60.4757 184.423 61.79L176.167 61.8132L176.166 61.8141Z" fill="#F7F7F7"/>
<path d="M176.153 62.0248C176.145 62.0248 176.138 62.0248 176.131 62.0238C176.014 62.0113 175.93 61.9072 175.943 61.7906L179.296 30.05C179.521 28.5448 180.761 26.6629 182.118 25.7561C182.68 25.3813 183.294 25.1259 183.943 24.9968C184.004 24.9843 184.069 25.0007 184.117 25.0402C184.166 25.0797 184.195 25.1394 184.195 25.2021C184.199 25.5547 184.611 60.4878 184.621 61.7877C184.621 61.9043 184.528 62.0007 184.411 62.0017H184.409C184.292 62.0017 184.198 61.9082 184.197 61.7916C184.187 60.5524 183.813 28.7087 183.774 25.4699C183.272 25.5991 182.795 25.813 182.353 26.1088C181.103 26.9433 179.92 28.7356 179.715 30.104L176.363 61.835C176.351 61.9438 176.26 62.0248 176.153 62.0248Z" fill="#575757"/>
<path d="M190.481 43.8104C190.448 43.8104 190.414 43.8027 190.383 43.7863C186.572 41.7781 186.328 36.378 186.32 36.1487C186.316 36.0321 186.407 35.9338 186.524 35.929C186.637 35.9232 186.739 36.0157 186.744 36.1323C186.745 36.1863 186.988 41.518 190.581 43.4105C190.685 43.4654 190.724 43.5936 190.669 43.6967C190.632 43.769 190.558 43.8094 190.481 43.8094V43.8104Z" fill="#575757"/>
<path d="M195.167 25.6277C195.167 25.6277 200.015 26.1577 202.432 30.4901C204.85 34.8225 208.202 44.2785 208.009 47.8323C207.684 53.8636 201.741 56.5993 202.026 58.5063C202.165 59.4324 203.388 64.1387 206.902 70.2615C209.797 75.3041 210.46 85.9261 209.988 86.2287C206.809 88.2696 201.661 92.524 195.162 92.5211C193.962 92.5211 192.92 91.6876 192.661 90.5042C191.624 85.7758 188.768 72.0751 187.563 59.3418C186.52 48.3142 191.668 32.1311 192.051 30.7618C193.033 27.2446 195.166 25.6277 195.166 25.6277H195.167Z" fill="#F7F7F7"/>
<path d="M195.169 92.7303H195.161C193.847 92.7303 192.734 91.8322 192.452 90.5477C191.315 85.3644 188.542 71.9489 187.351 59.3602C186.723 52.7286 188.266 42.731 191.696 31.2091C191.767 30.9711 191.817 30.7995 191.845 30.7032C192.835 27.158 194.947 25.5247 195.037 25.4572C195.08 25.4245 195.134 25.41 195.188 25.4158C195.238 25.4216 200.173 26.0084 202.615 30.3852C204.972 34.6097 208.421 44.1109 208.22 47.8421C208.015 51.6349 205.657 54.1277 203.935 55.9471C202.932 57.0061 202.141 57.8425 202.235 58.4727C202.373 59.3958 203.601 64.0848 207.085 70.1537C208.751 73.0561 209.574 77.562 209.916 79.9903C210.191 81.9445 210.599 86.0842 210.101 86.4041C209.645 86.6971 209.142 87.0392 208.609 87.4024C205.31 89.6506 200.791 92.7293 195.169 92.7293V92.7303ZM195.226 25.8485C194.865 26.1539 193.105 27.7612 192.253 30.8169C192.226 30.9152 192.174 31.0886 192.102 31.3295C188.688 42.7995 187.15 52.7401 187.773 59.3197C188.962 71.8853 191.731 85.2805 192.866 90.4561C193.105 91.545 194.049 92.3053 195.162 92.3063H195.169C200.661 92.3063 205.117 89.2699 208.371 87.0526C208.893 86.6971 209.388 86.3598 209.84 86.0688C210.13 85.3075 209.523 75.2512 206.718 70.3647C203.2 64.238 201.956 59.4758 201.816 58.5353C201.691 57.7008 202.503 56.8432 203.626 55.656C205.303 53.884 207.599 51.4566 207.797 47.8189C207.978 44.4636 204.771 35.1185 202.245 30.5914C200.086 26.7215 195.88 25.9467 195.227 25.8485H195.226Z" fill="#575757"/>
<path d="M196.863 46.1129C196.794 46.1129 196.726 46.0792 196.686 46.0175C196.622 45.9193 196.649 45.7882 196.747 45.7246C197.023 45.5444 197.861 44.9951 198.22 44.2252C199.284 41.9434 197.033 34.1621 197.01 34.0841C196.977 33.9714 197.041 33.8538 197.153 33.821C197.266 33.7883 197.383 33.8528 197.416 33.9646C197.512 34.2903 199.735 41.9781 198.603 44.4035C198.194 45.2823 197.279 45.8807 196.979 46.0782C196.943 46.1014 196.903 46.1129 196.863 46.1129Z" fill="#575757"/>
<path d="M181.738 47.8006C181.628 47.8006 181.534 47.7148 181.527 47.603C181.115 41.6672 181.464 36.3056 181.467 36.2516C181.475 36.135 181.579 36.0473 181.692 36.0541C181.809 36.0618 181.898 36.163 181.89 36.2796C181.886 36.3326 181.54 41.6672 181.95 47.5732C181.957 47.6898 181.87 47.7909 181.753 47.7987C181.748 47.7987 181.743 47.7987 181.739 47.7987L181.738 47.8006Z" fill="#575757"/>
<path d="M198.318 67.8306C194.058 67.8306 191.843 63.8556 191.816 63.8065C191.76 63.7034 191.798 63.5752 191.901 63.5193C192.004 63.4634 192.132 63.502 192.188 63.6041C192.312 63.8335 195.305 69.1825 201.185 66.8091C201.293 66.7658 201.416 66.8178 201.461 66.9267C201.504 67.0356 201.452 67.1589 201.343 67.2023C200.242 67.6475 199.232 67.8306 198.317 67.8306H198.318Z" fill="#575757"/>
<path d="M172.476 47.5099L168.956 47.4761C168.398 47.4761 168.058 47.0521 167.779 46.552L163.49 37.6087C163.189 36.8542 163.882 36.1026 164.671 36.1035L168.191 36.1372C168.749 36.1372 169.153 36.5815 169.369 37.0614L173.658 46.0037C174.022 46.6946 173.266 47.5099 172.476 47.5089V47.5099Z" fill="#B9D043"/>
<path d="M172.478 47.7215C172.478 47.7215 172.476 47.7215 172.474 47.7215L168.954 47.6877C168.26 47.6868 167.863 47.1356 167.595 46.6557L163.3 37.7008C163.143 37.3096 163.192 36.8943 163.428 36.5464C163.702 36.1426 164.178 35.8921 164.67 35.8921H164.672L168.194 35.9258C168.756 35.9258 169.267 36.319 169.562 36.9752L173.849 45.9137C174.02 46.2375 173.999 46.6278 173.789 46.9766C173.519 47.4227 172.993 47.7224 172.478 47.7224V47.7215ZM172.477 47.2984C172.843 47.2984 173.233 47.0758 173.426 46.7569C173.503 46.6287 173.611 46.3734 173.47 46.1035L169.178 37.1535C169.091 36.9617 168.772 36.3508 168.191 36.3498L164.669 36.3161H164.668C164.321 36.3161 163.971 36.5001 163.778 36.7844C163.62 37.0166 163.588 37.2816 163.687 37.5312L167.97 46.461C168.287 47.0277 168.575 47.2637 168.957 47.2647L172.478 47.2984H172.477Z" fill="#575757"/>
<path d="M164.7 40.2756L165.155 41.272C165.337 41.6873 165.763 41.9543 166.181 41.7567L169.101 40.5561C169.572 40.3325 170.136 40.5686 170.299 41.0629C170.632 42.0737 170.842 43.4392 166.327 45.2701C163.568 46.3879 163.47 43.3592 163.92 41.512C164.119 40.6929 164.701 40.2766 164.701 40.2766L164.7 40.2756Z" fill="#F7F7F7"/>
<path d="M165.246 45.7239C164.844 45.7239 164.503 45.6035 164.225 45.3635C163.383 44.637 163.355 42.8793 163.7 41.4609C163.916 40.5753 164.537 40.1214 164.563 40.1031C164.615 40.0665 164.68 40.055 164.741 40.0704C164.803 40.0868 164.853 40.1292 164.879 40.187L165.334 41.1834C165.418 41.3741 165.562 41.5216 165.721 41.5813C165.84 41.6257 165.959 41.6199 166.077 41.564L169.007 40.3585C169.278 40.2294 169.604 40.2236 169.89 40.346C170.173 40.4674 170.391 40.7035 170.486 40.9955C170.882 42.1952 170.924 43.629 166.393 45.4647C165.969 45.6362 165.586 45.722 165.246 45.722V45.7239ZM164.616 40.6293C164.449 40.8095 164.219 41.1226 164.112 41.5611C163.808 42.8128 163.8 44.4356 164.502 45.0426C164.886 45.3732 165.469 45.3838 166.234 45.0735C170.777 43.232 170.344 41.9157 170.085 41.1294C170.026 40.9511 169.898 40.8114 169.723 40.7372C169.549 40.662 169.35 40.6659 169.179 40.7478L166.248 41.9533C166.037 42.0535 165.8 42.0641 165.574 41.9803C165.306 41.88 165.078 41.6536 164.949 41.3587L164.616 40.6312V40.6293Z" fill="#575757"/>
<path d="M183.858 39.6712C183.858 39.6712 189.511 45.1118 193.255 47.3078C195.501 48.6251 195.807 47.0371 197.669 48.1655C200.176 49.6851 201.519 51.0178 198.372 55.1767C195.696 58.7123 190.985 55.5516 182.678 43.6374C182.288 43.0795 181.653 42.7326 180.988 42.5842C180.155 42.3982 178.945 41.7391 178.389 39.5536C178.389 39.5536 174.45 40.1125 174.104 38.193L180.017 37.2515C180.809 37.1108 181.621 37.372 182.182 37.9492L183.858 39.6712Z" fill="#F7F7F7"/>
<path d="M195.9 56.7527C195.88 56.7527 195.859 56.7527 195.838 56.7527C192.873 56.6949 188.633 52.5658 182.492 43.7593C182.163 43.2871 181.608 42.9441 180.929 42.7918C180.013 42.5866 178.812 41.8966 178.22 39.7863C177.4 39.8749 174.22 40.0937 173.883 38.231C173.873 38.1751 173.886 38.1173 173.919 38.071C173.952 38.0248 174.002 37.993 174.059 37.9843L179.973 37.0429C180.831 36.8906 181.711 37.1739 182.322 37.8012L183.997 39.5213C184.14 39.6591 189.701 44.985 193.351 47.1252C194.455 47.7718 195.027 47.6822 195.633 47.5868C196.21 47.4962 196.808 47.4027 197.768 47.9838C198.95 48.6997 200.124 49.5044 200.363 50.7551C200.584 51.9134 200.001 53.3588 198.53 55.3044C197.802 56.2661 196.918 56.7527 195.9 56.7527ZM178.377 39.3411C178.472 39.3411 178.558 39.4057 178.582 39.501C179.102 41.5439 180.196 42.1924 181.022 42.3775C181.804 42.5528 182.449 42.9566 182.839 43.5164C188.813 52.084 193.067 56.2747 195.845 56.3287C196.756 56.348 197.526 55.9278 198.191 55.049C199.585 53.2066 200.143 51.8672 199.945 50.8351C199.758 49.8561 198.924 49.1815 197.546 48.3461C196.719 47.845 196.246 47.9192 195.697 48.005C195.074 48.1023 194.369 48.2131 193.136 47.4904C189.413 45.3068 183.756 39.8778 183.699 39.8239C183.697 39.8219 183.696 39.821 183.694 39.819L182.017 38.0971C181.505 37.57 180.766 37.3319 180.042 37.4611L174.358 38.3659C174.922 39.8104 178.31 39.3498 178.346 39.3449C178.357 39.344 178.366 39.343 178.376 39.343L178.377 39.3411Z" fill="#575757"/>
<path d="M185.525 20.9151C185.073 21.1416 184.521 21.0645 184.163 20.707C183.741 20.2859 183.401 19.8388 183.125 19.3849L182.601 19.3955C182.433 19.3993 182.293 19.2683 182.286 19.1006L182.216 17.5203C182.204 17.2264 182.12 16.9412 181.986 16.679C181.733 16.1809 181.622 15.7501 181.592 15.3888C181.529 14.6275 182.208 13.2601 182.894 12.9248C183.824 12.4709 185.502 12.2252 186.379 13.5434C186.756 14.11 187.367 14.5157 187.738 14.4502C188.087 14.3885 188.229 14.0898 188.401 13.7814C188.721 13.2062 189.517 12.6656 190.282 13.5743C190.859 14.2604 190.709 14.905 190.396 15.4813C190.115 15.9978 189.999 16.8901 190.133 17.4615L191.268 22.2931C191.559 23.5352 192.447 24.5518 193.638 25.0086L194.851 25.474C194.851 25.474 193.512 29.5414 188.142 29.4258C184.043 29.3381 184.124 25.7428 184.124 25.7428L184.663 25.5058C186.087 24.8775 186.749 23.3434 186.405 21.8248L185.953 20.6559L185.525 20.9151Z" fill="#F7F7F7"/>
<path d="M188.349 29.6409C188.275 29.6409 188.2 29.6409 188.125 29.638C185.906 29.5908 184.873 28.5318 184.397 27.652C183.885 26.7038 183.899 25.7768 183.9 25.7382C183.902 25.6563 183.951 25.5821 184.026 25.5494L184.565 25.3123C185.846 24.7476 186.512 23.3407 186.189 21.8866L185.834 20.9683L185.622 21.0965C185.617 21.0994 185.613 21.1023 185.608 21.1051C185.067 21.3759 184.422 21.2767 184 20.8575C183.623 20.4817 183.285 20.0587 182.995 19.6L182.592 19.6077C182.316 19.6164 182.073 19.3947 182.061 19.1105L181.991 17.5301C181.98 17.2786 181.91 17.0242 181.784 16.7756C181.544 16.3025 181.403 15.8419 181.368 15.4063C181.3 14.594 181.99 13.1245 182.788 12.7342C183.986 12.1493 185.671 12.1165 186.543 13.4261C186.89 13.9474 187.435 14.2866 187.688 14.2413C187.904 14.2027 188.007 14.0341 188.17 13.7373L188.203 13.6776C188.399 13.3239 188.79 12.9288 189.296 12.8807C189.578 12.8537 190.004 12.9279 190.432 13.4376C191.141 14.2808 190.85 15.0662 190.569 15.5826C190.315 16.051 190.204 16.8893 190.328 17.4135L191.462 22.2451C191.737 23.4198 192.575 24.3786 193.701 24.8112L194.914 25.2767C195.02 25.3171 195.075 25.4337 195.04 25.5407C195.026 25.5821 193.627 29.6409 188.349 29.6409ZM184.326 25.8799C184.357 26.5149 184.693 29.1408 188.133 29.214C192.674 29.3123 194.23 26.3848 194.565 25.5956L193.549 25.2063C192.29 24.7245 191.356 23.653 191.048 22.3415L189.914 17.5099C189.767 16.8797 189.89 15.944 190.197 15.3793C190.558 14.7135 190.532 14.2143 190.107 13.7094C189.858 13.4135 189.598 13.2757 189.337 13.3018C188.994 13.3345 188.712 13.6352 188.574 13.8828L188.542 13.9416C188.376 14.2423 188.188 14.5824 187.763 14.6576C187.256 14.7482 186.565 14.2211 186.192 13.6593C185.351 12.396 183.72 12.7496 182.975 13.1129C182.397 13.3952 181.733 14.6605 181.792 15.3687C181.823 15.7494 181.948 16.157 182.164 16.581C182.318 16.8835 182.403 17.1957 182.416 17.5089L182.486 19.0893C182.488 19.1413 182.53 19.1808 182.584 19.1818L183.108 19.1712C183.183 19.1683 183.255 19.2087 183.293 19.2723C183.579 19.7426 183.919 20.1743 184.3 20.554C184.589 20.8421 185.034 20.9115 185.411 20.7264L185.831 20.472C185.885 20.4393 185.951 20.4325 186.01 20.4528C186.069 20.473 186.117 20.5183 186.139 20.5771L186.591 21.746C186.595 21.7556 186.597 21.7652 186.599 21.7758C186.975 23.4352 186.209 25.0473 184.736 25.6968L184.326 25.877V25.8799Z" fill="#575757"/>
</g>
<defs>
<filter id="filter0_d_475_208" x="141" y="2" width="74.1685" height="127" filterUnits="userSpaceOnUse" color-interpolation-filters="sRGB">
<feFlood flood-opacity="0" result="BackgroundImageFix"/>
<feColorMatrix in="SourceAlpha" type="matrix" values="0 0 0 0 0 0 0 0 0 0 0 0 0 0 0 0 0 0 127 0" result="hardAlpha"/>
<feOffset dy="4"/>
<feGaussianBlur stdDeviation="2"/>
<feComposite in2="hardAlpha" operator="out"/>
<feColorMatrix type="matrix" values="0 0 0 0 0 0 0 0 0 0 0 0 0 0 0 0 0 0 0.25 0"/>
<feBlend mode="normal" in2="BackgroundImageFix" result="effect1_dropShadow_475_208"/>
<feBlend mode="normal" in="SourceGraphic" in2="effect1_dropShadow_475_208" result="shape"/>
</filter>
</defs>
</svg>
