<svg width="1032" height="151" viewBox="0 0 1032 151" fill="none" xmlns="http://www.w3.org/2000/svg">
<path d="M277.066 95.2534C271.166 88.81 263.713 84.7732 252.845 82.3666C252.224 82.2113 251.292 81.9784 250.36 81.7455C251.214 81.5126 252.301 81.1245 253.31 80.814C256.338 79.8048 261.306 78.0192 264.8 75.0692C269.38 71.7311 271.787 65.8311 271.399 59.4654C270.933 52.6338 267.439 46.7338 261.928 43.6286C258.124 41.4549 252.379 38.8931 246.945 38.8154C244.693 38.8154 242.054 38.7378 239.182 38.7378H212.166C207.974 38.7378 204.015 38.7378 200.676 38.8154C194.621 38.8154 190.662 38.8154 190.662 38.8154H188.488L190.507 39.747C194.388 41.5325 196.407 45.1036 196.407 50.4601C196.562 79.1837 196.64 110.547 196.64 134.69C196.64 140.047 196.64 146.024 190.196 149.44L188.488 150.372H190.429C190.584 150.372 198.813 150.449 209.061 150.449C220.162 150.449 233.67 150.372 242.132 150.061C249.429 149.828 256.959 148.508 264.024 146.18C273.883 142.997 281.335 134.923 284.052 124.52C286.847 114.04 284.208 103.017 277.066 95.2534ZM208.595 76.8548C208.672 73.3614 208.672 69.7903 208.595 66.3745V58.068C208.595 54.8851 208.595 51.2364 208.595 47.8983V45.2588C208.595 43.3957 208.983 42.4641 211.001 42.4641H239.647C249.429 42.4641 257.735 49.8391 258.589 59.2325V59.4654C259.288 67.8495 256.416 74.4482 250.904 77.3982C247.566 79.1837 241.122 79.8824 237.629 79.8824H211.001C208.983 79.8824 208.672 79.0284 208.595 77.3206V76.8548ZM271.942 120.328C270.855 131.041 268.293 138.183 258.279 143.074C258.124 143.152 257.735 143.385 257.658 143.385C253.233 145.17 240.812 146.568 237.551 146.568H210.613C209.061 146.49 208.595 145.791 208.595 143.618V141.211C208.672 135.156 208.672 129.023 208.595 123.123V109.305C208.595 102.628 208.595 95.7968 208.595 89.1205V86.3258C208.595 85.1613 208.75 84.5403 209.138 84.1521C209.526 83.7639 210.07 83.6087 210.924 83.6087H237.163C242.908 83.6087 250.826 85.3942 257.425 88.2666C266.741 92.2258 272.175 102.318 272.175 115.205C272.252 116.835 272.175 118.62 271.942 120.328Z" fill="#DADAD8"/>
<path d="M95.5641 149.362L91.0615 150.372H121.959L119.475 149.44C114.894 147.655 112.798 143.695 111.168 140.124C99.601 114.195 72.5853 53.4878 70.8774 49.7615C69.1695 46.1128 67.5392 42.4641 66.0642 39.2036L65.909 38.8931H48.3643L48.2867 39.9023C52.5564 40.5233 55.8945 44.4049 55.8945 48.597V49.1404C55.8945 49.4509 55.8945 49.8391 55.8945 50.1496C55.7393 51.3917 55.5064 52.0904 55.0406 53.1772C52.3235 59.3101 49.5288 65.5206 46.8117 71.7311C41.4551 83.764 35.9433 96.185 30.5091 108.373L28.5683 112.643C26.4723 117.378 24.2986 122.036 22.2026 126.694C21.5039 128.247 20.8052 129.877 20.1841 131.43L19.5631 132.982C19.0197 134.302 18.3986 135.699 17.7776 136.941L17.6999 137.097C15.2934 142.143 11.7223 147.499 3.80393 149.518L0 150.527H29.3446L29.4223 149.518C25.0749 149.052 22.2802 147.655 21.0381 145.481C19.9512 143.618 20.0289 141.211 21.271 138.261L29.1894 120.406C29.4223 119.863 29.6552 119.319 29.8881 118.776C30.0433 118.465 30.1986 118.155 30.2762 117.844C30.5091 117.378 30.742 116.99 30.9749 116.524L31.0525 116.369C31.4407 115.593 32.9933 114.739 34.0025 114.661C34.5459 114.584 35.167 114.584 35.788 114.506C36.0209 114.506 36.2538 114.506 36.4867 114.506H77.476C78.6405 114.506 79.8826 114.506 81.0471 114.506H81.7458C81.9787 114.506 82.2116 114.506 82.3668 114.506H82.4444C83.0655 114.506 83.6089 114.584 84.23 114.661C85.2392 114.739 86.7918 115.593 87.18 116.369L87.4905 116.99C88.0339 118.155 88.4997 119.241 88.9655 120.406C91.6826 126.384 94.5549 133.06 97.9707 141.211C98.5918 142.841 99.3681 144.937 98.9023 146.257C98.5141 147.499 97.0391 149.052 95.5641 149.362ZM84.1523 110.314C83.9971 110.547 83.6866 110.702 83.376 110.702H34.9341C34.6236 110.702 34.3907 110.547 34.2354 110.314C34.0801 110.081 34.0025 109.77 34.1578 109.46L58.4564 55.118C58.6116 54.8075 58.9222 54.5746 59.2327 54.5746C59.5432 54.5746 59.8537 54.7298 60.009 55.0404L66.7629 70.3338C72.1195 82.4442 79.0287 97.9705 84.1523 109.46C84.3076 109.693 84.3076 110.003 84.1523 110.314Z" fill="#DADAD8"/>
<path d="M950.906 136.165C950.983 111.323 950.906 52.5562 950.828 50.9259C950.673 47.5878 950.207 43.7838 946.869 41.222C946.17 40.6786 945.316 40.2128 944.385 39.8246L942.211 38.8931H970.391L968.528 39.8246C967.752 40.2128 966.975 40.6786 966.354 41.222C962.473 44.3273 962.473 48.9851 962.473 53.0996C962.395 78.2521 962.395 127.626 962.395 129.722V131.585C962.395 133.914 962.473 137.097 962.55 138.339C962.706 141.832 963.171 145.481 966.509 148.043C967.208 148.586 968.062 149.052 968.994 149.44L971.167 150.372H942.987L944.773 149.44C945.627 149.052 946.325 148.508 946.946 148.043C950.906 144.937 950.906 140.28 950.906 136.165Z" fill="#DADAD8"/>
<path d="M1031.33 99.2125C1031.33 102.395 1028.77 104.957 1025.59 104.957C1022.4 104.957 1019.84 102.395 1019.84 99.2125C1019.84 96.0296 1022.4 93.4678 1025.59 93.4678C1028.77 93.4678 1031.33 96.0296 1031.33 99.2125Z" fill="#DADAD8"/>
<path d="M1031.33 144.628C1031.33 147.81 1028.77 150.372 1025.59 150.372C1022.4 150.372 1019.84 147.81 1019.84 144.628C1019.84 141.445 1022.4 138.883 1025.59 138.883C1028.77 138.883 1031.33 141.445 1031.33 144.628Z" fill="#DADAD8"/>
<path d="M79.1062 0L65.9089 30.0433H61.7168L74.8365 0H79.1062Z" fill="#DADAD8"/>
<path d="M551.88 150.216C549.008 150.061 546.135 149.751 543.341 149.207C536.432 147.81 529.988 145.248 524.088 141.366C518.188 137.485 513.142 132.672 509.338 126.694C504.603 119.319 502.119 111.09 501.109 102.473C500.876 100.61 500.799 98.8244 500.644 96.9613C500.644 96.5731 500.566 96.1849 500.488 95.7968V91.8376C500.566 91.3718 500.644 90.8284 500.644 90.3626C500.799 87.4902 501.109 84.6179 501.653 81.7455C503.128 74.2929 506 67.3837 510.347 61.0956C514.074 55.6614 518.654 51.0812 524.243 47.5101C531.851 42.6194 540.391 39.9023 549.318 39.0483C550.638 38.8931 555.374 38.7378 556.46 38.7378C558.013 38.7378 560.885 38.8931 562.36 39.0483C565.699 39.3588 567.484 39.6694 570.667 40.368C578.896 42.2312 586.271 45.7246 592.792 51.0035C599.158 56.2048 604.048 62.5706 607.309 70.1008C610.104 76.5442 611.346 83.3758 611.812 90.3626C611.889 91.8376 611.889 93.3902 611.967 94.8652C612.044 98.5139 611.812 102.085 611.191 105.734C610.104 112.332 607.852 118.543 604.514 124.365C601.642 129.256 598.148 133.681 593.879 137.407C588.6 141.987 582.622 145.17 575.946 147.266C572.763 148.276 569.658 149.207 566.32 149.595C564.224 149.906 561.041 150.449 551.88 150.216ZM599.08 95.5639C599.002 92.7692 598.925 89.8968 598.614 87.1021C598.304 83.6087 597.76 80.1153 596.906 76.6995C595.587 71.0324 593.491 65.6759 590.463 60.7074C587.901 56.3601 584.641 52.6338 580.526 49.7614C574.471 45.4141 567.717 43.1628 560.342 42.697C557.392 42.4641 554.442 42.5417 551.492 42.7746C548.076 43.0075 544.816 43.7062 541.633 44.8707C535.578 46.9667 530.376 50.3825 526.184 55.118C523.467 58.2232 521.293 61.639 519.508 65.2877C516.791 70.8772 515.161 76.8548 514.229 82.9876C513.763 86.0929 513.53 89.2758 513.375 92.381C513.142 97.8152 513.53 103.172 514.462 108.528C515.626 114.661 517.567 120.561 520.517 126.073C522.38 129.566 524.632 132.905 527.426 135.699C534.491 142.686 543.108 146.102 552.967 146.645C554.442 146.723 555.917 146.645 557.392 146.723C560.42 146.723 563.37 146.412 566.32 145.791C571.754 144.627 576.722 142.376 581.225 139.037C584.796 136.32 587.668 132.982 590.075 129.256C594.966 121.648 597.683 113.264 598.692 104.336C599.002 101.309 599.158 98.4363 599.08 95.5639Z" fill="#DADAD8"/>
<path d="M763.427 49.4509C757.837 43.8615 750.462 40.2904 742.156 39.2036C740.526 38.9707 739.051 38.8931 737.653 38.8154C737.265 38.8154 736.101 38.8154 733.616 38.8154H706.834C701.71 38.8154 696.974 38.8154 692.782 38.8154H679.119L681.138 39.747C684.631 41.3773 686.649 44.7154 687.038 49.6838C687.27 52.4785 687.27 55.4285 687.27 58.2233V78.2521C687.27 97.2718 687.27 116.99 687.27 135.156V135.544C687.27 140.978 687.193 146.18 681.138 149.518L679.43 150.449H707.61L705.591 149.518C700.157 147.033 699.303 142.919 699.226 139.27C699.07 132.051 698.993 123.744 698.915 115.67C698.837 110.314 698.837 105.19 698.76 100.377V100.299C698.915 98.9797 699.303 98.281 701.089 98.281H703.573H703.961C713.122 98.3586 722.593 98.5139 731.908 97.9705C732.297 97.9705 732.84 97.9705 733.228 97.8929C733.306 97.8929 733.461 97.8929 733.539 97.8929H733.772C740.681 97.4271 747.279 96.1073 752.714 94.0889C761.641 90.7508 767.619 83.764 769.637 74.4482C770.103 72.3521 770.336 70.1785 770.336 68.0824C770.336 60.7075 767.852 53.7983 763.427 49.4509ZM698.76 47.9759V45.1812C698.76 43.3957 699.148 42.5417 701.166 42.5417H736.178C740.137 42.5417 743.786 43.4733 746.736 45.1812C754.81 49.9167 757.682 58.2233 757.682 66.5298C757.682 70.2561 757.139 73.9048 756.207 77.3206C754.965 81.6679 752.946 85.3166 750.229 88.1113C746.658 91.9152 737.731 94.0889 726.319 94.0889H701.166C699.148 94.0889 698.76 93.1573 698.76 91.3718V87.335C698.76 86.4811 698.76 85.6271 698.76 84.7732C698.837 80.5811 698.76 76.389 698.76 72.1969V57.9127C698.76 54.6522 698.76 51.3141 698.76 47.9759Z" fill="#DADAD8"/>
<path d="M916.826 114.894C915.816 110.236 913.798 106.122 910.926 102.784C908.053 99.4455 904.327 96.8836 899.902 95.2534C894.468 93.235 887.869 91.9152 880.96 91.4495C880.882 91.4495 880.805 91.4495 880.727 91.4495H880.417C880.028 91.4495 879.563 91.3718 879.097 91.3718C869.859 90.8284 860.388 90.9837 851.227 91.0613H848.432C846.414 91.0613 846.026 90.3626 845.871 89.0429V88.8876C845.948 84.1521 846.026 78.9508 846.026 73.5943C846.104 65.5206 846.181 57.214 846.336 49.9943C846.414 46.3457 847.268 42.2312 852.702 39.747L854.721 38.8154H826.541L828.171 39.747C834.304 43.0851 834.304 48.2864 834.304 53.7206V54.1088C834.381 72.2745 834.381 91.9929 834.304 111.013V131.041C834.304 133.836 834.304 136.709 834.071 139.581C833.683 144.549 831.664 147.887 828.171 149.518L826.152 150.449H839.427C843.619 150.449 848.743 150.449 853.867 150.449H880.649C883.134 150.449 884.376 150.449 884.609 150.449C886.084 150.449 887.559 150.294 889.189 150.061C897.495 148.974 904.87 145.403 910.46 139.814C916.36 134.069 918.844 124.055 916.826 114.894ZM883.367 146.645H848.277C846.259 146.645 845.948 145.791 845.871 144.006V141.211C845.871 137.873 845.871 134.457 845.871 131.119V116.835C845.871 112.643 845.871 108.451 845.871 104.259C845.871 103.405 845.871 102.551 845.871 101.697V97.66C845.871 95.8744 846.259 94.9429 848.277 94.9429H873.43C884.764 94.9429 893.769 97.1942 897.34 100.92C900.057 103.715 902.076 107.364 903.318 111.711C904.249 115.127 904.871 118.853 904.871 122.502C904.871 130.809 901.998 139.115 893.924 143.851C891.052 145.714 887.326 146.645 883.367 146.645Z" fill="#DADAD8"/>
<path d="M691.928 39.747V38.8154H692.394H706.833V39.8246C701.709 39.8246 696.586 39.8246 692.394 39.8246L691.928 39.747Z" fill="#DADAD8"/>
<path d="M440.169 41.6102V41.8431C440.169 42.0759 440.169 42.2312 440.169 42.4641C440.091 50.3825 440.091 55.972 440.091 55.972V57.2917L439.237 56.2825C437.219 53.8759 435.666 52.0904 433.182 50.3049C422.779 43.1628 416.957 42.5417 401.664 42.3865C399.412 42.3865 399.179 45.7246 399.179 47.122V49.6062C399.179 62.4153 399.179 75.1469 399.179 88.0337C399.179 104.026 399.179 120.018 399.257 136.01C399.257 141.134 399.335 146.335 405.468 149.362L407.331 150.294H379.772L381.635 149.362C387.768 146.412 387.768 141.134 387.845 136.01C387.923 120.018 387.923 104.026 387.923 88.0337C387.923 75.2245 387.923 62.4153 387.923 49.6062V47.122C387.923 45.7246 387.69 42.3865 385.439 42.3865C370.145 42.5417 364.245 43.1628 353.92 50.3049C351.436 52.0904 349.884 53.8759 347.943 56.2048L347.089 57.214L347.011 55.972C347.011 55.972 347.011 50.3825 346.934 42.3865C346.934 42.2312 346.934 41.9983 346.934 41.8431V41.6102C347.166 38.8154 349.418 38.8154 351.048 38.8154H351.281C358.268 38.8154 365.255 38.8154 372.241 38.8154H414.861C421.848 38.8154 428.835 38.8154 435.821 38.8154H436.287C437.995 38.8931 440.014 38.9707 440.169 41.6102Z" fill="#DADAD8"/>
</svg>
