<svg width="359" height="58" viewBox="0 0 359 58" fill="none" xmlns="http://www.w3.org/2000/svg">
<path d="M27.0872 30.1964C26.8029 30.8341 26.5405 31.3896 26.2999 31.8834C26.0661 32.3559 25.7481 32.7873 25.3596 33.1589C24.9751 33.5112 24.5119 33.7782 24.0038 33.9407C23.3661 34.1234 22.7024 34.2136 22.0357 34.2082C21.2886 34.2401 20.5429 34.1209 19.849 33.8584C19.323 33.6665 18.846 33.372 18.4495 32.9943C18.0745 32.6211 17.7712 32.1895 17.5529 31.7188C17.2953 31.2243 17.069 30.7159 16.875 30.1964L7.93117 8.01821C7.84578 7.7788 7.7282 7.55064 7.58129 7.33928C7.42822 7.07183 7.25327 6.92782 7.07833 6.92782C6.90339 6.92782 6.57538 7.07183 6.57538 7.38043C6.57538 7.68903 6.57538 7.87419 6.57538 7.93591L6.72845 33.8173H0.0151109V4.56187C-0.0509094 3.67301 0.220288 2.79093 0.780476 2.07249C1.24029 1.52721 1.8228 1.08456 2.48615 0.776361C3.06965 0.459453 3.71819 0.263079 4.38862 0.200305C5.02278 0.200305 5.46013 0.200305 5.74441 0.200305C6.60285 0.187704 7.45829 0.298712 8.28105 0.52948C8.91456 0.731243 9.50101 1.04553 10.0086 1.45528C10.4531 1.85839 10.8292 2.32327 11.1238 2.8337C11.4334 3.36418 11.7038 3.91411 11.9329 4.47958L21.0736 26.6577C21.2235 26.9546 21.3914 27.2431 21.5765 27.5218C21.7296 27.7687 21.8827 27.8921 22.0576 27.8921C22.2326 27.8921 22.3856 27.7687 22.5387 27.5218C22.6918 27.2749 22.8449 26.9869 23.0198 26.6577L32.1604 4.47958C32.4439 3.68375 32.857 2.93418 33.385 2.25765C33.7925 1.74956 34.2967 1.31705 34.872 0.982096C35.3817 0.679042 35.9444 0.463129 36.5339 0.344319C37.1332 0.24598 37.7406 0.197787 38.349 0.200305C39.7987 0.141565 41.2329 0.500437 42.4601 1.22898C43.0051 1.6112 43.4377 2.11778 43.717 2.70091C43.9963 3.28404 44.1131 3.9245 44.0564 4.56187V33.8173H37.4961L37.6929 7.93591C37.731 7.63911 37.6533 7.33938 37.4743 7.0924C37.3613 7.00509 37.2252 6.94821 37.0806 6.92782C36.9276 6.92782 36.7526 7.07183 36.5777 7.33928C36.435 7.56011 36.3177 7.7946 36.2278 8.03878L27.0872 30.1964Z" fill="#313131"/>
<path d="M49.0864 4.97303V0.570312H54.9907V4.97303H49.0864ZM49.0864 8.6351H54.9907V33.817H49.0864V8.6351Z" fill="#313131"/>
<path d="M59.0575 18.1401C59.0475 16.7532 59.2238 15.3707 59.5824 14.0254C59.9203 12.7314 60.686 11.5717 61.7691 10.7131C62.3645 10.2175 63.0352 9.80841 63.7591 9.49929C64.4614 9.20825 65.1944 8.98758 65.9458 8.84094C66.666 8.69713 67.3972 8.6077 68.1326 8.57349H69.9038H73.8837V12.9145H71.3471C70.4781 12.9176 69.6124 13.0142 68.7667 13.2025C67.7986 13.3926 66.9276 13.8857 66.2957 14.6015C65.7225 15.2447 65.338 16.0178 65.1804 16.844C65.0127 17.7336 64.9322 18.6357 64.9399 19.5391V33.7554H59.0575V18.1401Z" fill="#313131"/>
<path d="M75.8301 18.5518H93.8708V23.4482H75.8301V18.5518Z" fill="#313131"/>
<path d="M97.8515 28.7975H117.532C118.179 28.8336 118.823 28.6982 119.391 28.4066C119.804 28.1622 120.142 27.8222 120.375 27.4191C120.588 27.055 120.729 26.6577 120.791 26.2464C120.812 25.8969 120.812 25.5466 120.791 25.1971C120.823 24.8618 120.823 24.5244 120.791 24.189C120.72 23.8283 120.571 23.4852 120.353 23.1809C120.064 22.8052 119.709 22.4783 119.304 22.214C118.73 21.8792 118.113 21.6163 117.467 21.4322L103.537 17.3175L102.794 17.1529C102.419 17.0162 102.054 16.8582 101.7 16.6797C101.263 16.4534 100.847 16.2065 100.432 15.9391C99.9957 15.6487 99.6118 15.2944 99.2947 14.8898C98.8811 14.4628 98.5549 13.9676 98.3325 13.4291C98.0908 12.8977 97.9005 12.3469 97.764 11.7833C97.6288 11.243 97.5483 10.6919 97.5234 10.1374C97.5234 9.60247 97.5234 9.08814 97.5234 8.61495C97.5344 7.54867 97.6663 6.48655 97.9171 5.44664C98.215 4.37385 98.8023 3.39162 99.6222 2.59506C100.442 1.7985 101.467 1.2146 102.597 0.89991C103.547 0.713687 104.513 0.610381 105.483 0.591309H125.82V5.59065H107.736C107.255 5.56007 106.773 5.56007 106.292 5.59065C105.781 5.71953 105.323 5.99227 104.98 6.37244C104.562 6.71988 104.284 7.19211 104.193 7.70972C104.193 8.12118 104.149 8.53265 104.062 8.94412C104.071 9.66577 104.274 10.3735 104.652 11.0015C105.313 11.8325 106.267 12.4157 107.342 12.6473L120.288 16.4946C121.311 16.7935 122.312 17.1578 123.283 17.585C124.023 17.9153 124.708 18.345 125.317 18.8605C125.836 19.3139 126.266 19.8502 126.585 20.4447C126.869 21.0114 127.089 21.6044 127.241 22.214C127.398 22.7663 127.501 23.331 127.548 23.901C127.576 24.3601 127.576 24.8203 127.548 25.2794C127.547 26.343 127.437 27.4041 127.22 28.4477C126.999 29.5301 126.504 30.5464 125.776 31.4103C125.088 32.3994 124.05 33.128 122.846 33.4677C121.746 33.7316 120.614 33.863 119.478 33.8585H97.8515V28.7975Z" fill="#313131"/>
<path d="M137.103 41.882H131.221V12.5443C131.175 11.8248 131.358 11.1088 131.745 10.487C132.013 10.0608 132.353 9.67859 132.751 9.35544C133.245 9.02053 133.814 8.79542 134.413 8.69709C134.962 8.60834 135.518 8.56019 136.075 8.55308H145.413C145.944 8.51649 146.478 8.51649 147.009 8.55308C147.692 8.59777 148.366 8.7151 149.021 8.90283C149.778 9.10491 150.511 9.38071 151.208 9.72577C152.015 10.1166 152.753 10.6233 153.394 11.2276C154.016 11.9249 154.505 12.7185 154.838 13.573C155.227 14.3482 155.52 15.1627 155.712 16.0007C155.887 16.8077 155.997 17.6262 156.04 18.4489C156.04 19.2513 156.04 20.0125 156.04 20.712C156.04 21.4115 156.04 22.3579 156.04 23.2425C156.001 24.0975 155.906 24.9495 155.756 25.7936C155.605 26.5995 155.378 27.3912 155.078 28.1596C154.802 28.8914 154.419 29.5838 153.941 30.2169C153.362 31.0302 152.619 31.7291 151.754 32.2742C150.991 32.7483 150.159 33.1156 149.283 33.3646C148.464 33.5915 147.621 33.7364 146.768 33.7967H144.582H137.103V41.882ZM143.816 29.538C144.997 29.603 146.171 29.3305 147.184 28.7562C147.836 28.3449 148.4 27.8214 148.846 27.2132C149.206 26.6171 149.464 25.9714 149.611 25.2999C149.873 23.9428 149.983 22.5637 149.939 21.1852C149.968 19.9398 149.888 18.6943 149.699 17.4614C149.613 16.8825 149.451 16.3158 149.218 15.7744C148.841 14.9231 148.191 14.2038 147.359 13.717C146.371 13.1559 145.232 12.8772 144.079 12.9146H138.284C138.128 12.9142 137.976 12.9572 137.847 13.0381L137.453 13.2438C137.206 13.4717 137.064 13.7823 137.059 14.1079V29.538H143.816Z" fill="#313131"/>
<path d="M175.525 8.42969C176.495 8.46825 177.46 8.57831 178.411 8.75886C179.382 8.92264 180.328 9.1919 181.232 9.56123C182.136 9.90825 182.971 10.395 183.703 11.0014C184.48 11.6613 185.112 12.4581 185.562 13.3467C185.998 14.2253 186.343 15.1417 186.59 16.083C186.815 16.9484 186.968 17.8288 187.049 18.7164C187.049 19.6011 187.049 20.3829 187.049 21.0412C187.139 23.2395 186.805 25.435 186.065 27.5218C185.598 28.962 184.79 30.2841 183.703 31.3896C182.996 32.0275 182.165 32.5305 181.254 32.8709C180.335 33.2402 179.374 33.5094 178.39 33.6733C177.43 33.8518 176.458 33.9686 175.481 34.023H172.901C172.135 34.023 171.217 34.023 170.277 34.023C169.314 33.9686 168.357 33.8517 167.412 33.6733C166.441 33.5125 165.494 33.2431 164.591 32.8709C163.677 32.5134 162.834 32.0126 162.098 31.3896C161.314 30.7156 160.675 29.9052 160.218 29.0031C159.766 28.1397 159.428 27.2278 159.212 26.2874C159.002 25.3924 158.856 24.4851 158.774 23.5717C158.774 22.7076 158.774 21.9464 158.774 21.3087C158.774 20.6709 158.774 19.8068 158.774 18.9016C158.838 17.9647 158.992 17.0351 159.234 16.1241C159.475 15.1678 159.819 14.2371 160.261 13.3467C160.704 12.4591 161.328 11.6621 162.098 11.0014C162.823 10.3745 163.659 9.87302 164.569 9.52008C165.476 9.15336 166.422 8.87753 167.39 8.69714C168.345 8.54496 169.309 8.45559 170.277 8.42969H172.901H175.525ZM165.007 24.6416C165.165 25.7986 165.683 26.8862 166.494 27.7687C167.284 28.6323 168.35 29.2314 169.533 29.4763C170.639 29.7065 171.768 29.8238 172.901 29.8261C174.041 29.8329 175.179 29.7155 176.29 29.4763C177.478 29.2066 178.543 28.5866 179.33 27.707C180.165 26.8506 180.699 25.7731 180.861 24.621C181.017 23.5022 181.097 22.3753 181.101 21.2469V19.7245C181.094 19.1389 181.043 18.5545 180.948 17.9758C180.837 17.3663 180.669 16.7673 180.445 16.1859C180.191 15.5923 179.812 15.0534 179.33 14.6017C178.92 14.1671 178.432 13.8048 177.887 13.5319C177.383 13.2604 176.847 13.0463 176.29 12.8941C175.735 12.7273 175.164 12.6102 174.585 12.5444H172.923C172.398 12.5444 171.917 12.5444 171.326 12.5444C170.129 12.61 168.959 12.9114 167.893 13.429C167.344 13.6951 166.853 14.0583 166.45 14.4988C166.037 14.961 165.718 15.4911 165.51 16.0624C165.268 16.6526 165.099 17.267 165.007 17.8935C164.892 18.4841 164.834 19.083 164.832 19.6834V21.1441C164.814 22.2711 164.872 23.3981 165.007 24.5181V24.6416Z" fill="#313131"/>
<path d="M190.46 18.1401C190.444 16.7517 190.628 15.3676 191.007 14.0254C191.351 12.7342 192.116 11.5763 193.193 10.7131C193.804 10.2168 194.489 9.80779 195.227 9.49929C195.929 9.20825 196.662 8.98758 197.414 8.84094C198.134 8.69713 198.865 8.6077 199.601 8.57349H201.372H205.352V12.9145H202.815C201.946 12.9176 201.08 13.0142 200.235 13.2025C199.267 13.3926 198.396 13.8857 197.764 14.6015C197.188 15.2411 196.81 16.0166 196.67 16.844C196.495 17.7329 196.407 18.6351 196.408 19.5391V33.7554H190.46V18.1401Z" fill="#313131"/>
<path d="M219.807 33.817C218.334 33.8557 216.862 33.7034 215.433 33.3644C214.406 33.0566 213.444 32.5832 212.59 31.9654C211.724 31.3065 211.041 30.4592 210.6 29.4966C210.093 28.2508 209.862 26.9205 209.922 25.5876V12.9144H206.271V8.6351H209.944V0.570312H215.848V8.6351H223.283V12.9144H215.848V24.4561C215.852 24.931 215.889 25.4052 215.958 25.8756C216.058 26.356 216.211 26.825 216.417 27.2746C216.642 27.7329 216.98 28.1347 217.401 28.4473C218.082 28.9855 218.921 29.3157 219.807 29.3937C220.528 29.3937 221.272 29.5171 221.993 29.5377H223.458V33.817H219.807Z" fill="#313131"/>
<path d="M241.958 8.63551C243.048 8.62742 244.131 8.80877 245.151 9.17042C246.046 9.46131 246.856 9.94781 247.513 10.59C248.167 11.2462 248.653 12.0343 248.934 12.8942C249.323 14.0654 249.508 15.2883 249.481 16.5151V29.5793C249.477 30.125 249.418 30.6692 249.306 31.2046C249.194 31.8154 248.883 32.3786 248.417 32.8169C247.951 33.2552 247.353 33.5472 246.704 33.6528C246.052 33.7493 245.395 33.8043 244.735 33.8174H231.965C231.156 33.8174 230.368 33.8174 229.559 33.6734C228.654 33.5424 227.81 33.1631 227.132 32.583C226.595 32.1567 226.156 31.6316 225.842 31.04C225.535 30.4587 225.308 29.8436 225.164 29.2089C225.005 28.602 224.91 27.9818 224.88 27.3573C224.88 26.7196 224.88 26.2052 224.88 25.732C224.872 24.632 224.997 23.5346 225.251 22.4609C225.531 21.3405 226.191 20.3364 227.132 19.6012C227.826 18.977 228.688 18.5431 229.625 18.3462C230.395 18.1986 231.179 18.1228 231.965 18.1199H243.576V16.3711C243.61 15.974 243.61 15.575 243.576 15.1779C243.464 14.7399 243.247 14.3318 242.942 13.9846C242.589 13.5517 242.099 13.2349 241.543 13.0794C241.056 12.9659 240.557 12.9038 240.056 12.8942H226.935V8.63551H241.958ZM233.736 22.4403L232.752 22.5637C232.513 22.6073 232.285 22.6953 232.082 22.8224C231.88 22.9496 231.706 23.1134 231.571 23.3044C231.398 23.5403 231.259 23.7961 231.156 24.0656C230.955 24.6919 230.874 25.3466 230.915 25.9995C230.882 26.4722 230.882 26.9464 230.915 27.4191C230.976 27.9357 231.214 28.4197 231.593 28.7975C231.835 29.0192 232.117 29.2002 232.424 29.3324C232.768 29.478 233.14 29.555 233.517 29.5587H242.264C242.511 29.5392 242.746 29.4535 242.942 29.3118C243.122 29.1861 243.246 29.0033 243.292 28.7975C243.312 28.6197 243.312 28.4404 243.292 28.2626V22.4403H233.736Z" fill="#313131"/>
<path d="M254.532 33.8173V27.6453H260.72V33.8173H254.532Z" fill="#313131"/>
<path d="M275.415 33.8173C274.934 33.8173 274.344 33.8173 273.666 33.7145C272.92 33.659 272.186 33.5138 271.479 33.2824C270.713 33.0505 269.978 32.7327 269.292 32.3361C268.548 31.8967 267.884 31.348 267.324 30.7108C266.258 29.5409 265.554 28.1173 265.291 26.5961C265.046 24.9326 264.922 23.2554 264.919 21.5762C264.919 20.8355 264.919 19.992 264.919 19.1073C264.949 18.2077 265.066 17.3125 265.269 16.4328C265.465 15.5203 265.765 14.6304 266.165 13.7788C266.58 12.884 267.166 12.0683 267.893 11.3717C268.222 11.0622 268.573 10.7735 268.943 10.5077C269.449 10.1562 270 9.86595 270.583 9.64357C271.329 9.33968 272.106 9.1054 272.901 8.94407C273.945 8.75148 275.007 8.66184 276.071 8.67662H287.552V12.9147H277.93C276.326 12.804 274.732 13.2262 273.425 14.108C272.447 14.8117 271.734 15.7925 271.392 16.906C271.281 17.3059 271.194 17.7111 271.129 18.1198C271.096 18.5788 271.096 19.0393 271.129 19.4982C271.164 19.9159 271.164 20.3355 271.129 20.7532C271.107 21.0477 271.107 21.3434 271.129 21.6379V22.8311C271.14 23.2997 271.184 23.767 271.261 24.2301C271.322 24.702 271.416 25.1694 271.545 25.6291C271.637 26.0332 271.776 26.4265 271.96 26.8018C272.271 27.3543 272.704 27.8383 273.229 28.2214C273.735 28.5689 274.295 28.8397 274.891 29.0237C275.507 29.2132 276.146 29.3307 276.793 29.3735C277.471 29.3735 278.083 29.3735 278.674 29.3735H288.274V33.6528L275.415 33.8173Z" fill="#313131"/>
<path d="M305.768 8.42987C306.731 8.46727 307.689 8.57735 308.633 8.75904C309.61 8.92272 310.564 9.19196 311.475 9.5614C312.378 9.92695 313.213 10.4271 313.947 11.0427C314.712 11.7151 315.335 12.5179 315.783 13.4086C316.225 14.2757 316.563 15.1866 316.789 16.1243C317.02 16.9747 317.174 17.8418 317.249 18.7166C317.249 19.6012 317.358 20.383 317.358 21.0414C317.426 23.2386 317.093 25.4306 316.374 27.522C315.852 28.933 315.017 30.2234 313.925 31.3075C313.21 31.9366 312.38 32.4384 311.475 32.7888C310.548 33.1556 309.58 33.4247 308.589 33.5912C307.629 33.7696 306.657 33.8865 305.681 33.9409H303.122C302.357 33.9409 301.438 33.9409 300.498 33.9409C299.528 33.8878 298.564 33.771 297.611 33.5912C296.641 33.4274 295.695 33.1581 294.791 32.7888C292.883 32.0407 291.329 30.6663 290.417 28.921C289.982 28.0461 289.652 27.1284 289.433 26.1847C289.234 25.2878 289.088 24.3812 288.996 23.469C288.996 22.605 288.996 21.8437 288.996 21.206C288.996 20.5682 288.996 19.7041 288.996 18.7989C289.081 17.8643 289.235 16.9363 289.455 16.0215C289.689 15.0671 290.041 14.1419 290.504 13.2646C290.941 12.3676 291.566 11.5629 292.341 10.8987C293.071 10.2777 293.906 9.77693 294.812 9.41739C295.72 9.05345 296.666 8.77771 297.633 8.59445C298.591 8.479 299.555 8.42402 300.52 8.42987H303.144H305.768ZM295.228 24.6006C295.367 25.7629 295.886 26.8557 296.715 27.7277C297.504 28.5966 298.57 29.2027 299.754 29.4559C300.867 29.6919 302.003 29.816 303.144 29.8262C304.278 29.8273 305.408 29.703 306.512 29.4559C307.69 29.2028 308.749 28.5963 309.529 27.7277C310.368 26.8737 310.903 25.795 311.06 24.6417C311.206 23.5221 311.286 22.3957 311.301 21.2677V19.7453C311.286 19.1592 311.227 18.5749 311.126 17.9965C311.033 17.3856 310.871 16.7857 310.645 16.2066C310.149 15.0798 309.263 14.1443 308.13 13.5526C307.616 13.2859 307.074 13.0721 306.512 12.9149C305.961 12.7743 305.397 12.6847 304.828 12.6474H303.166C302.619 12.6474 302.16 12.6474 301.569 12.6474C300.986 12.6846 300.407 12.7742 299.842 12.9149C299.253 13.0755 298.682 13.2891 298.136 13.5526C297.587 13.8187 297.097 14.1819 296.693 14.6225C296.277 15.0867 295.952 15.6159 295.731 16.186C295.51 16.7822 295.341 17.3947 295.228 18.0171C295.137 18.6105 295.079 19.2079 295.053 19.807V21.2677C295.035 22.381 295.093 23.4943 295.228 24.6006Z" fill="#313131"/>
<path d="M320.703 12.9971C320.722 12.5418 320.773 12.0882 320.856 11.6393C320.929 11.0995 321.139 10.5843 321.469 10.1374C321.925 9.50213 322.62 9.05355 323.415 8.88244C324.129 8.70686 324.863 8.61699 325.601 8.61499H349.656C350.796 8.63552 351.931 8.75953 353.045 8.98531C354.303 9.23073 355.467 9.79242 356.413 10.6106C357.222 11.3515 357.837 12.2604 358.206 13.2646C358.634 14.3936 358.848 15.5842 358.84 16.7826V33.7763H352.936V17.6673C352.918 17.059 352.845 16.4533 352.717 15.8568C352.601 15.2057 352.29 14.5991 351.821 14.1081C351.366 13.5963 350.742 13.2416 350.049 13.1C349.453 12.9764 348.845 12.9143 348.234 12.9148H342.68V33.8174H336.776V12.9148H328.182C327.861 12.8905 327.538 12.9399 327.242 13.0589L326.87 13.2852C326.777 13.3915 326.717 13.5194 326.695 13.6555C326.662 13.977 326.662 14.3009 326.695 14.6224V33.8174H320.791L320.703 12.9971Z" fill="#313131"/>
<path d="M5.02316 55.1725H4.10472C3.77301 55.1394 3.44418 55.0844 3.12068 55.0079C2.80025 54.9009 2.49246 54.7631 2.20224 54.5964C1.52349 54.2505 0.979628 53.71 0.649647 53.0534C0.503671 52.7341 0.386628 52.4037 0.299766 52.0659C0.183154 51.7356 0.0882161 51.399 0.0154878 51.0578C0.0154878 50.7286 0.0154878 50.42 0.0154878 50.132C-0.0051626 49.7619 -0.0051626 49.3911 0.0154878 49.021C0.0341974 48.6542 0.0853992 48.2895 0.168561 47.9306C0.252076 47.5919 0.369217 47.2612 0.518442 46.9431C0.67354 46.6317 0.872099 46.3411 1.10887 46.079C1.43282 45.8156 1.80272 45.6068 2.20224 45.4618C2.55217 45.298 2.9184 45.1671 3.29562 45.0709C3.64842 44.9439 4.01513 44.8542 4.389 44.8035H9.79029V46.367H5.17623C4.90876 46.3711 4.64343 46.4127 4.389 46.4905C4.12903 46.556 3.87913 46.6528 3.6455 46.7785C3.42442 46.9161 3.23176 47.0904 3.07695 47.2928C2.85982 47.6023 2.69736 47.9427 2.59586 48.3009C2.46095 48.8887 2.40221 49.4897 2.42092 50.0908C2.39863 50.4265 2.39863 50.7632 2.42092 51.0989C2.44188 51.3421 2.48578 51.5831 2.55213 51.819C2.59831 51.9899 2.66431 52.1555 2.74893 52.3128C2.79862 52.4198 2.85711 52.5229 2.92387 52.6214C3.21609 53.0279 3.66168 53.3148 4.17033 53.4237C4.77129 53.5631 5.38824 53.6322 6.0072 53.6295H9.9871V55.1725H5.02316Z" fill="#313131"/>
<path d="M18.3186 47.2928C18.536 47.2618 18.7572 47.2618 18.9746 47.2928C19.2033 47.3286 19.4119 47.4376 19.565 47.6014C19.6793 47.734 19.7614 47.8885 19.8056 48.054C19.8173 48.2116 19.8173 48.3697 19.8056 48.5272V55.0901H17.8594V48.9181C17.8828 48.8584 17.8828 48.7927 17.8594 48.7329C17.8025 48.7156 17.7413 48.7156 17.6844 48.7329H14.0763C13.9634 48.6936 13.8393 48.6936 13.7264 48.7329C13.7146 48.7873 13.7146 48.8432 13.7264 48.8975C13.7141 48.9656 13.7141 49.0352 13.7264 49.1033V55.1724H11.7583V48.1775C11.8011 47.995 11.8913 47.8254 12.0207 47.6837C12.1806 47.5134 12.3959 47.3976 12.633 47.3545C12.837 47.3444 13.0413 47.3444 13.2453 47.3545L18.3186 47.2928Z" fill="#313131"/>
<path d="M26.9781 47.2309C27.3017 47.2335 27.6242 47.268 27.9403 47.3338C28.2643 47.3748 28.5807 47.4579 28.8806 47.5807C29.1879 47.6856 29.4702 47.8464 29.7115 48.0538C29.963 48.2545 30.171 48.499 30.3238 48.7739C30.4502 49.0326 30.5526 49.3011 30.63 49.5763C30.7145 49.8511 30.7659 50.1341 30.783 50.4198C30.783 50.7078 30.783 50.9341 30.783 51.1399C30.8088 51.8388 30.6976 52.5362 30.455 53.1972C30.2801 53.6442 29.9954 54.046 29.6241 54.3699C29.3906 54.5768 29.1155 54.7377 28.815 54.8431C28.5049 54.9631 28.1824 55.0527 27.8528 55.1105L26.8906 55.2134H25.1412L24.179 55.1105C23.8565 55.0528 23.5413 54.9632 23.2387 54.8431C22.9314 54.7381 22.6491 54.5773 22.4078 54.3699C22.1901 54.1757 22.0122 53.9456 21.8829 53.691C21.7321 53.4256 21.6217 53.1417 21.5549 52.8475C21.4827 52.57 21.4316 52.2882 21.4019 52.0039C21.4019 51.7365 21.4019 51.4896 21.4019 51.3044C21.4019 51.1193 21.4019 50.8107 21.4019 50.5227C21.4202 50.2045 21.464 49.8882 21.5331 49.5763C21.6208 49.2786 21.738 48.9893 21.8829 48.7122C22.0358 48.4373 22.2437 48.1928 22.4952 47.9921C22.7366 47.7847 23.0189 47.6239 23.3262 47.5189C23.626 47.3962 23.9425 47.3131 24.2665 47.2721C24.5827 47.2074 24.9051 47.1729 25.2287 47.1692H26.9781V47.2309ZM23.4793 52.3125C23.5241 52.6814 23.6926 53.0273 23.9604 53.3001C24.2447 53.5632 24.6001 53.7482 24.9881 53.835C25.3555 53.906 25.7286 53.9473 26.1034 53.9584C26.4855 53.9485 26.866 53.9072 27.2405 53.835C27.6178 53.7528 27.9604 53.5665 28.2245 53.3001C28.5041 53.0383 28.6879 52.6997 28.7494 52.3331C28.7494 51.9834 28.7494 51.6336 28.7494 51.2839V50.7901C28.7601 50.612 28.7601 50.4334 28.7494 50.2552C28.7278 50.0615 28.6685 49.8732 28.5744 49.6997C28.5056 49.5092 28.385 49.339 28.2245 49.206C28.0899 49.0611 27.9264 48.9423 27.7435 48.8562C27.5762 48.7766 27.4003 48.7145 27.2186 48.671C27.0296 48.6527 26.8391 48.6527 26.6501 48.671H25.5567C25.3605 48.6512 25.1625 48.6512 24.9663 48.671C24.7705 48.7143 24.58 48.7763 24.3977 48.8562C24.2185 48.9478 24.056 49.0659 23.9166 49.206C23.7772 49.3394 23.6724 49.5013 23.6105 49.6791C23.532 49.8652 23.4734 50.0582 23.4355 50.2552V50.8107V51.2839C23.4147 51.6265 23.4147 51.9699 23.4355 52.3125H23.4793Z" fill="#313131"/>
<path d="M34.4127 57.806H32.379V48.5068C32.3688 48.2826 32.4297 48.0606 32.554 47.869C32.6195 47.7392 32.7083 47.6209 32.8164 47.5193C32.9875 47.4123 33.1817 47.342 33.3849 47.3136C33.5665 47.2933 33.75 47.2933 33.9316 47.3136H37.5835C37.8135 47.3177 38.0417 47.3524 38.2614 47.4164C38.5136 47.4749 38.7563 47.5648 38.983 47.6839C39.2377 47.7926 39.4678 47.9462 39.6609 48.1365C39.8736 48.3347 40.0509 48.564 40.1858 48.8154C40.3198 49.0639 40.4225 49.3263 40.4919 49.5972C40.5145 49.8505 40.5145 50.1051 40.4919 50.3584V51.8397C40.5253 52.0994 40.5253 52.3619 40.4919 52.6215C40.4525 52.8827 40.3791 53.1384 40.2732 53.3827C40.1798 53.6098 40.0548 53.8243 39.9015 54.0205C39.7048 54.2675 39.4599 54.477 39.1798 54.6377C38.9246 54.7955 38.644 54.9136 38.3489 54.9874C38.0791 55.067 37.8001 55.1154 37.5179 55.1315H34.4127V57.806ZM36.5995 53.9382C36.9223 53.9648 37.247 53.9125 37.542 53.7864C37.837 53.6602 38.0923 53.4645 38.2833 53.2181C38.3959 53.0322 38.4771 52.8309 38.5238 52.6215C38.6226 52.2029 38.6666 51.7746 38.655 51.3459C38.6876 50.9557 38.6876 50.5636 38.655 50.1733C38.6244 49.997 38.5731 49.8245 38.5019 49.6589C38.3696 49.3873 38.1471 49.1635 37.8678 49.0212C37.5386 48.8359 37.1571 48.7497 36.7744 48.7743H34.8501H34.697H34.5658C34.5233 48.8062 34.4894 48.847 34.4666 48.8934C34.4438 48.9398 34.4329 48.9906 34.4346 49.0417V53.8765L36.5995 53.9382Z" fill="#313131"/>
<path d="M44.9316 55.1723V48.6506H41.564V47.2927H50.311V48.6506H46.8778V55.1723H44.9316Z" fill="#313131"/>
<path d="M68.5699 51.1193C68.8076 51.1472 69.0376 51.217 69.2478 51.3251C69.4067 51.4103 69.5537 51.514 69.6852 51.6337C69.8544 51.8141 69.9678 52.0347 70.0132 52.2714C70.0337 52.4836 70.0337 52.6971 70.0132 52.9092V53.2795C70.0138 53.417 70.0065 53.5543 69.9913 53.691C69.9628 53.8572 69.9036 54.0173 69.8164 54.1642C69.7405 54.3283 69.6287 54.4755 69.4884 54.5962C69.239 54.8252 68.916 54.9699 68.5699 55.0077C68.2715 55.0289 67.9718 55.0289 67.6734 55.0077H63.431C63.2275 55.0281 63.0223 55.0281 62.8187 55.0077C62.6091 54.9889 62.4106 54.9099 62.2502 54.7814C62.1042 54.6734 62.0036 54.5204 61.9659 54.3494C61.9443 54.1992 61.9443 54.0469 61.9659 53.8968V48.5065C61.9551 48.3489 61.9551 48.1909 61.9659 48.0333C62.0228 47.8486 62.1465 47.6885 62.3158 47.5807C62.489 47.4514 62.6907 47.36 62.9062 47.3133H63.5185H68.0451C68.2266 47.2917 68.4103 47.2917 68.5918 47.3133L69.1166 47.4778C69.2986 47.5564 69.4621 47.6683 69.5977 47.807C69.8048 48.0193 69.9416 48.2839 69.9913 48.5682C70.0139 48.8009 70.0139 49.0351 69.9913 49.2677C70.0129 49.4936 70.0129 49.7208 69.9913 49.9467C69.9502 50.1787 69.836 50.3937 69.6633 50.5639C69.5409 50.7021 69.3827 50.8083 69.2041 50.8725C69.0108 50.9582 68.804 51.0138 68.5918 51.037L68.5699 51.1193ZM66.908 50.4404H67.3235C67.4815 50.4145 67.6268 50.3425 67.739 50.2347C67.8427 50.1545 67.9188 50.0471 67.9576 49.9261C67.9683 49.8166 67.9683 49.7064 67.9576 49.5969C67.9708 49.4738 67.9708 49.3497 67.9576 49.2266C67.9171 49.0897 67.8332 48.9677 67.7171 48.8768C67.6151 48.7859 67.4848 48.7282 67.3453 48.7122H64.1308C64.0742 48.6934 64.0125 48.6934 63.9559 48.7122C63.9458 48.7598 63.9458 48.8087 63.9559 48.8563V50.4198L66.908 50.4404ZM63.8684 53.3618C63.8467 53.4219 63.8467 53.487 63.8684 53.547C63.8464 53.5999 63.8464 53.6587 63.8684 53.7116C63.9154 53.7743 63.9856 53.8183 64.0652 53.835H66.7768H67.2579C67.4517 53.8425 67.6431 53.7921 67.8046 53.691C67.9192 53.5855 67.9957 53.4488 68.0232 53.3001C68.034 53.1563 68.034 53.0119 68.0232 52.8681C68.0339 52.738 68.0339 52.6073 68.0232 52.4772C67.9973 52.3444 67.9286 52.2223 67.8264 52.1274C67.7165 52.0024 67.5601 51.9215 67.3891 51.9011H66.9955H63.8465L63.8684 53.3618Z" fill="#313131"/>
<path d="M77.8422 55.1723V51.7983H73.5999V55.1723H71.6318V47.2927H73.5999V50.4816H77.9734V47.2927H79.9415V55.1723H77.8422Z" fill="#313131"/>
<path d="M83.5494 47.2927V50.2964H87.6168C87.899 50.2956 88.1795 50.3373 88.4477 50.4199C88.7676 50.4985 89.0563 50.6629 89.2787 50.8931C89.5199 51.1583 89.6855 51.4769 89.7598 51.8189C89.7923 52.1542 89.7923 52.4916 89.7598 52.827V53.2796C89.7807 53.4505 89.7807 53.623 89.7598 53.7939C89.7174 53.9791 89.6513 54.1587 89.563 54.3288C89.471 54.4948 89.3446 54.6417 89.1912 54.7609C88.9603 54.9604 88.6706 55.0895 88.3603 55.1312C88.076 55.1312 87.7698 55.1312 87.4855 55.1312H82.9152H82.4341C82.2448 55.096 82.0702 55.0103 81.9312 54.8843C81.7741 54.7734 81.6653 54.6125 81.625 54.4317C81.6133 54.2742 81.6133 54.116 81.625 53.9585V47.3133L83.5494 47.2927ZM83.5494 53.3002V53.5059C83.566 53.5869 83.6124 53.6598 83.6806 53.7116C83.7437 53.7357 83.8143 53.7357 83.8774 53.7116C83.956 53.7328 84.0393 53.7328 84.1179 53.7116H87.1575C87.3172 53.6775 87.4621 53.5986 87.573 53.4853C87.6851 53.3724 87.7543 53.2277 87.7698 53.0739C87.7921 52.9168 87.7921 52.7577 87.7698 52.6007V52.2098C87.7651 52.0474 87.6947 51.8929 87.573 51.7777C87.4565 51.6712 87.3138 51.5934 87.1575 51.5514H83.5713L83.5494 53.3002ZM90.9188 47.2927H92.8868V55.1723H90.9188V47.2927Z" fill="#313131"/>
<path d="M97.7857 55.1723H97.0859C96.8407 55.1612 96.5981 55.1197 96.3643 55.0489C96.1282 54.967 95.9012 54.8637 95.6864 54.7403C95.4523 54.5951 95.2454 54.4143 95.0741 54.2054C94.7846 53.8129 94.5974 53.3619 94.5274 52.8887C94.4948 52.3748 94.4948 51.8596 94.5274 51.3457V50.2964C94.528 49.9973 94.5721 49.6996 94.6586 49.4118C94.7219 49.149 94.8329 48.8985 94.9867 48.6711C95.1338 48.4281 95.3264 48.212 95.5552 48.0334C95.7513 47.8297 95.98 47.6562 96.2331 47.519C96.5253 47.422 96.8251 47.3463 97.1297 47.2927H98.0044H98.7479C99.2727 47.2927 99.7975 47.2927 100.3 47.2927C100.792 47.3521 101.267 47.4987 101.7 47.7248C101.945 47.8562 102.16 48.0308 102.334 48.2391C102.491 48.4296 102.623 48.6367 102.728 48.8563C102.817 49.0817 102.876 49.3167 102.903 49.5558C102.924 49.8023 102.924 50.05 102.903 50.2964C102.924 50.5086 102.924 50.7221 102.903 50.9342C102.844 51.1573 102.714 51.3582 102.531 51.5103C102.41 51.6214 102.258 51.6996 102.094 51.7366C101.919 51.7564 101.743 51.7564 101.569 51.7366H96.4518V52.3126C96.4396 52.4839 96.4396 52.6557 96.4518 52.827C96.5018 53.0111 96.5995 53.1807 96.7361 53.3207C96.853 53.4506 97.0037 53.5498 97.1734 53.6088L97.6982 53.7322H102.793V55.0695L97.7857 55.1723ZM100.607 50.4816C100.803 50.4816 100.913 50.4816 100.956 50.3376C100.986 50.2366 100.986 50.1299 100.956 50.029C100.967 49.8048 100.906 49.5828 100.782 49.3912C100.675 49.2292 100.542 49.0835 100.388 48.9592C100.152 48.7949 99.8716 48.6953 99.5788 48.6711H98.7041H98.4199C98.2529 48.6511 98.0839 48.6511 97.9169 48.6711C97.7437 48.6999 97.5748 48.7483 97.414 48.8152C97.255 48.9004 97.1081 49.0041 96.9766 49.1238C96.7854 49.2921 96.6618 49.5174 96.6267 49.7615C96.6267 49.9878 96.6267 50.2142 96.6267 50.4816H100.607Z" fill="#313131"/>
<path d="M111.54 55.1723V48.6506H108.238V47.2927H116.985V48.6506H113.552V55.1723H111.54Z" fill="#313131"/>
<path d="M123.436 47.2309C123.76 47.2347 124.082 47.2691 124.398 47.3338C124.722 47.3748 125.039 47.4579 125.339 47.5807C125.646 47.6856 125.928 47.8464 126.169 48.0538C126.421 48.2545 126.629 48.499 126.782 48.7739C126.927 49.0511 127.044 49.3403 127.132 49.638C127.206 49.9151 127.257 50.1971 127.285 50.4815C127.285 50.7695 127.285 50.9958 127.285 51.2016C127.31 51.9005 127.199 52.5979 126.957 53.2589C126.79 53.705 126.513 54.107 126.148 54.4316C125.911 54.6345 125.637 54.7948 125.339 54.9048C125.02 55.0223 124.691 55.1118 124.354 55.1723L123.392 55.2751H121.665L120.703 55.1723C120.373 55.1145 120.051 55.0248 119.74 54.9048C119.442 54.7948 119.168 54.6345 118.931 54.4316C118.675 54.2269 118.467 53.9747 118.319 53.691C118.171 53.4224 118.053 53.1396 117.969 52.8475C117.904 52.5696 117.86 52.2877 117.838 52.0039C117.838 51.7365 117.838 51.4896 117.838 51.3045C117.818 51.0442 117.818 50.7829 117.838 50.5227C117.885 50.1985 117.973 49.8808 118.1 49.5763C118.178 49.2757 118.296 48.9854 118.45 48.7122C118.594 48.4317 118.803 48.1855 119.063 47.9921C119.299 47.7893 119.573 47.6289 119.872 47.5189C120.179 47.3961 120.503 47.3131 120.834 47.2721C121.15 47.2063 121.472 47.1718 121.796 47.1692H123.545L123.436 47.2309ZM119.915 52.3125C119.958 52.6861 120.136 53.0346 120.418 53.3001C120.687 53.5711 121.039 53.7578 121.424 53.835C121.799 53.9072 122.179 53.9485 122.561 53.9584C122.937 53.958 123.311 53.9166 123.677 53.835C124.062 53.7578 124.413 53.5711 124.682 53.3001C124.963 53.0419 125.141 52.7003 125.185 52.3331C125.218 51.984 125.218 51.633 125.185 51.2839V50.7901C125.196 50.612 125.196 50.4334 125.185 50.2552C125.153 50.0636 125.095 49.8768 125.01 49.6997C124.933 49.5132 124.814 49.3447 124.661 49.206C124.521 49.0659 124.359 48.9478 124.18 48.8562C124.005 48.7764 123.822 48.7143 123.633 48.671C123.444 48.6497 123.253 48.6497 123.064 48.671H122.036C121.84 48.6512 121.642 48.6512 121.446 48.671C121.249 48.7109 121.058 48.7731 120.878 48.8562C120.509 49.027 120.221 49.3202 120.068 49.6791C119.997 49.8658 119.946 50.0588 119.915 50.2552C119.894 50.4398 119.894 50.6261 119.915 50.8107V51.2839C119.894 51.6265 119.894 51.9699 119.915 52.3125Z" fill="#313131"/>
<path d="M135.594 51.1195C135.832 51.1473 136.062 51.2171 136.272 51.3252C136.431 51.4105 136.578 51.5142 136.71 51.6338C136.879 51.8142 136.992 52.0348 137.038 52.2716C137.058 52.4838 137.058 52.6972 137.038 52.9094V53.2797C137.048 53.4373 137.048 53.5953 137.038 53.7529C137 53.9167 136.941 54.0756 136.863 54.2261C136.774 54.3828 136.663 54.528 136.535 54.6581C136.283 54.8834 135.961 55.0275 135.616 55.0696C135.318 55.09 135.018 55.09 134.72 55.0696H130.346C130.143 55.0908 129.937 55.0908 129.734 55.0696C129.524 55.0508 129.326 54.9718 129.165 54.8433C129.09 54.7926 129.026 54.7283 128.977 54.6541C128.928 54.5799 128.896 54.4974 128.881 54.4112C128.859 54.2611 128.859 54.1088 128.881 53.9586V48.5067C128.87 48.3491 128.87 48.191 128.881 48.0335C128.938 47.8488 129.062 47.6887 129.231 47.5809C129.399 47.4438 129.603 47.3514 129.821 47.3134H130.434H134.96C135.142 47.2933 135.325 47.2933 135.507 47.3134L136.032 47.478C136.214 47.5566 136.377 47.6685 136.513 47.8072C136.72 48.0195 136.857 48.284 136.906 48.5684C136.929 48.8011 136.929 49.0352 136.906 49.2679C136.928 49.4937 136.928 49.721 136.906 49.9468C136.865 50.1788 136.751 50.3939 136.578 50.564C136.452 50.698 136.295 50.8035 136.119 50.8726C135.93 50.9678 135.721 51.0239 135.507 51.0372L135.594 51.1195ZM133.932 50.4406H134.348C134.506 50.4146 134.651 50.3427 134.763 50.2348C134.867 50.1546 134.943 50.0472 134.982 49.9262C134.991 49.8167 134.991 49.7066 134.982 49.5971C134.982 49.4531 134.982 49.3296 134.982 49.2267C134.951 49.086 134.865 48.9613 134.741 48.877C134.639 48.7861 134.509 48.7284 134.37 48.7124H131.221C131.157 48.6904 131.087 48.6904 131.024 48.7124C131.014 48.7599 131.014 48.8089 131.024 48.8564V50.42L133.932 50.4406ZM130.893 53.362C130.871 53.422 130.871 53.4871 130.893 53.5472V53.7117L131.09 53.8352H133.779H134.26C134.423 53.8051 134.574 53.734 134.698 53.6295C134.819 53.529 134.897 53.3898 134.916 53.2386C134.927 53.0947 134.927 52.9504 134.916 52.8065C134.927 52.6764 134.927 52.5457 134.916 52.4156C134.887 52.2792 134.81 52.1559 134.698 52.0659C134.593 51.9453 134.445 51.8648 134.282 51.8396H133.867H130.805L130.893 53.362Z" fill="#313131"/>
<path d="M144.057 47.2927C144.421 47.2955 144.782 47.351 145.128 47.4573C145.422 47.5538 145.69 47.7081 145.915 47.9099C146.127 48.1158 146.291 48.3611 146.397 48.63C146.513 49.0038 146.565 49.3928 146.55 49.7821V53.8968C146.573 54.0676 146.573 54.2404 146.55 54.4111C146.523 54.6032 146.422 54.7791 146.265 54.9049C146.115 55.0534 145.914 55.148 145.697 55.1724H145.019H140.645C140.376 55.1935 140.106 55.1935 139.836 55.1724C139.535 55.1505 139.25 55.0346 139.027 54.8432C138.848 54.7157 138.699 54.5546 138.59 54.37C138.481 54.1895 138.401 53.9956 138.349 53.7939C138.328 53.5956 138.328 53.3957 138.349 53.1973V52.6624C138.316 52.3202 138.316 51.9759 138.349 51.6337C138.452 51.2814 138.675 50.9706 138.983 50.7491C139.225 50.5449 139.519 50.4032 139.836 50.3376C140.098 50.3173 140.362 50.3173 140.624 50.3376H144.56V49.7821C144.571 49.6658 144.571 49.5487 144.56 49.4324C144.522 49.2871 144.447 49.1528 144.341 49.0415C144.22 48.911 144.06 48.8179 143.882 48.774C143.715 48.754 143.546 48.754 143.379 48.774H139.005V47.3133L144.057 47.2927ZM141.323 51.6337H140.973C140.817 51.66 140.676 51.7408 140.58 51.86L140.449 52.1069C140.415 52.3184 140.415 52.5332 140.449 52.7447C140.438 52.8885 140.438 53.0329 140.449 53.1767C140.469 53.3438 140.555 53.4978 140.689 53.6088C140.768 53.6753 140.856 53.7307 140.952 53.7734C141.075 53.7922 141.2 53.7922 141.323 53.7734H144.341H144.582C144.592 53.719 144.592 53.6632 144.582 53.6088V51.6337H141.323Z" fill="#313131"/>
<path d="M150.311 57.8059H148.343V48.5067C148.322 48.2816 148.384 48.0565 148.518 47.869C148.603 47.7341 148.715 47.6155 148.846 47.5192C149.017 47.4122 149.212 47.3419 149.415 47.3135H149.962H153.613C153.844 47.3159 154.072 47.3506 154.291 47.4163C154.545 47.4714 154.788 47.5615 155.013 47.6838C155.268 47.7925 155.498 47.9462 155.691 48.1364C155.904 48.3346 156.081 48.5639 156.216 48.8153C156.35 49.0638 156.452 49.3262 156.522 49.5971C156.522 49.844 156.522 50.0909 156.631 50.3583V51.8396C156.618 52.1026 156.581 52.3641 156.522 52.6214C156.482 52.8827 156.409 53.1383 156.303 53.3826C156.21 53.6097 156.085 53.8242 155.931 54.0204C155.536 54.4897 154.992 54.8284 154.379 54.9874C154.109 55.067 153.83 55.1153 153.548 55.1314H150.29L150.311 57.8059ZM152.498 53.9381C152.894 53.9543 153.287 53.8689 153.635 53.6912C153.847 53.5668 154.033 53.4063 154.182 53.2181C154.292 53.0285 154.38 52.8285 154.444 52.6214C154.499 52.1978 154.499 51.7695 154.444 51.3459C154.488 50.956 154.488 50.563 154.444 50.1732C154.424 49.9949 154.373 49.821 154.291 49.6588C154.161 49.3926 153.947 49.1701 153.679 49.0211C153.348 48.8405 152.968 48.7547 152.586 48.7742H150.639H150.486C150.403 48.843 150.348 48.938 150.333 49.0416V53.8764L152.498 53.9381Z" fill="#313131"/>
<path d="M160.174 47.2927V50.2964H164.219C164.502 50.2651 164.789 50.2651 165.072 50.2964C165.389 50.3786 165.672 50.5511 165.881 50.7902C166.145 51.0437 166.32 51.3666 166.384 51.716C166.417 52.0513 166.417 52.3888 166.384 52.7241V53.1767C166.405 53.3476 166.405 53.5202 166.384 53.6911C166.342 53.8762 166.276 54.0558 166.187 54.226C166.095 54.3919 165.969 54.5388 165.815 54.658C165.572 54.8476 165.276 54.9688 164.963 55.0078H164.11H159.037C158.847 54.9726 158.673 54.8869 158.534 54.7609C158.381 54.6464 158.273 54.4871 158.227 54.3083C158.217 54.1507 158.217 53.9926 158.227 53.8351V47.2927H160.174ZM160.174 53.3002V53.5059C160.173 53.546 160.182 53.5856 160.201 53.6215C160.22 53.6573 160.248 53.6883 160.283 53.7116C160.346 53.7357 160.417 53.7357 160.48 53.7116H163.76C163.92 53.6775 164.064 53.5986 164.175 53.4853C164.296 53.3777 164.366 53.23 164.372 53.0739C164.383 52.9163 164.383 52.7582 164.372 52.6007V52.2098C164.36 52.0451 164.281 51.8908 164.154 51.7777C164.04 51.6673 163.896 51.5889 163.738 51.5514H160.196L160.174 53.3002ZM167.499 47.2927H169.533V55.1723H167.499V47.2927Z" fill="#313131"/>
<path d="M182.303 51.1193C182.541 51.1471 182.771 51.2169 182.981 51.325C183.14 51.4103 183.287 51.514 183.418 51.6336C183.588 51.814 183.701 52.0346 183.746 52.2714C183.767 52.4836 183.767 52.697 183.746 52.9092V53.2795C183.74 53.4173 183.725 53.5547 183.703 53.691C183.665 53.8548 183.606 54.0137 183.528 54.1642C183.439 54.3209 183.328 54.4661 183.2 54.5962C182.95 54.8252 182.627 54.9699 182.281 55.0077C181.983 55.0288 181.683 55.0288 181.385 55.0077H177.142C176.939 55.0289 176.734 55.0289 176.53 55.0077C176.32 54.9888 176.122 54.9098 175.962 54.7814C175.886 54.7307 175.822 54.6664 175.773 54.5922C175.725 54.518 175.692 54.4355 175.677 54.3493C175.656 54.1991 175.656 54.0469 175.677 53.8967V48.5065C175.667 48.3489 175.667 48.1908 175.677 48.0333C175.725 47.8227 175.858 47.638 176.049 47.5189C176.222 47.3896 176.424 47.2982 176.64 47.2515H177.252H181.778C181.96 47.23 182.144 47.23 182.325 47.2515L182.85 47.4161C183.029 47.4898 183.186 47.6027 183.309 47.7453C183.531 47.9502 183.677 48.2172 183.725 48.5065C183.747 48.7391 183.747 48.9733 183.725 49.206C183.746 49.4318 183.746 49.659 183.725 49.8849C183.684 50.1169 183.569 50.332 183.397 50.5021C183.266 50.6312 183.11 50.7359 182.937 50.8107C182.744 50.8965 182.537 50.9521 182.325 50.9753L182.303 51.1193ZM180.641 50.4404H181.057C181.215 50.4144 181.36 50.3425 181.472 50.2346C181.577 50.1587 181.647 50.0485 181.669 49.926C181.679 49.8165 181.679 49.7064 181.669 49.5969C181.683 49.4738 181.683 49.3496 181.669 49.2265C181.646 49.0882 181.568 48.9633 181.45 48.8768C181.345 48.7902 181.217 48.7331 181.079 48.7122H177.886C177.829 48.6934 177.768 48.6934 177.711 48.7122C177.663 48.7512 177.625 48.8006 177.602 48.8562V50.4198L180.641 50.4404ZM177.602 53.3618C177.58 53.4218 177.58 53.4869 177.602 53.547C177.58 53.5999 177.58 53.6586 177.602 53.7115C177.649 53.7743 177.719 53.8183 177.798 53.835H180.488H180.947C181.149 53.8486 181.349 53.7978 181.516 53.691C181.631 53.5854 181.707 53.4487 181.735 53.3001C181.745 53.1562 181.745 53.0119 181.735 52.868C181.745 52.7379 181.745 52.6072 181.735 52.4771C181.709 52.3443 181.64 52.2222 181.538 52.1274C181.428 52.0024 181.272 51.9214 181.1 51.9011H180.685H177.558L177.602 53.3618Z" fill="#313131"/>
<path d="M190.722 47.231C191.046 47.2336 191.369 47.268 191.685 47.3338C192.009 47.3721 192.326 47.4553 192.625 47.5807C192.932 47.6856 193.215 47.8464 193.456 48.0539C193.715 48.2472 193.925 48.4934 194.068 48.774C194.226 49.0456 194.344 49.3364 194.418 49.6381C194.503 49.9129 194.554 50.1959 194.571 50.4816V51.2016C194.597 51.9005 194.486 52.5979 194.243 53.259C194.074 53.7036 193.797 54.1051 193.434 54.4317C193.193 54.6391 192.91 54.7999 192.603 54.9049C192.293 55.0249 191.971 55.1145 191.641 55.1723L190.679 55.2752H188.951L188.076 55.1517C187.747 55.0939 187.424 55.0043 187.114 54.8843C186.816 54.7743 186.542 54.6139 186.305 54.4111C186.041 54.2084 185.825 53.9561 185.671 53.6704C185.523 53.4019 185.405 53.1191 185.321 52.8269C185.256 52.5491 185.212 52.2672 185.19 51.9834C185.19 51.716 185.19 51.4691 185.19 51.2839C185.17 51.0237 185.17 50.7624 185.19 50.5021C185.208 50.2098 185.259 49.9201 185.343 49.6381C185.421 49.3375 185.539 49.0472 185.693 48.774C185.837 48.4934 186.046 48.2472 186.305 48.0539C186.542 47.851 186.816 47.6907 187.114 47.5807C187.422 47.4579 187.745 47.3748 188.076 47.3338C188.393 47.268 188.715 47.2336 189.039 47.231H190.81H190.722ZM187.202 52.3126C187.265 52.6805 187.439 53.0234 187.705 53.3001C187.989 53.5633 188.344 53.7482 188.733 53.835C189.1 53.9061 189.473 53.9474 189.848 53.9585C190.223 53.9592 190.598 53.9178 190.963 53.835C191.351 53.7482 191.706 53.5633 191.991 53.3001C192.264 53.0285 192.44 52.6831 192.494 52.3126C192.515 51.9631 192.515 51.6128 192.494 51.2634V50.7902C192.515 50.6056 192.515 50.4193 192.494 50.2347C192.456 50.0444 192.397 49.8583 192.319 49.6792C192.244 49.4914 192.125 49.3223 191.969 49.1854C191.833 49.0468 191.67 48.9349 191.488 48.8563C191.315 48.7667 191.132 48.6976 190.941 48.6505H190.394H189.301H188.711C188.52 48.6976 188.336 48.7667 188.164 48.8563C187.975 48.9344 187.804 49.0462 187.661 49.1854C187.526 49.3298 187.422 49.4975 187.355 49.6792C187.277 49.8583 187.218 50.0444 187.18 50.2347V50.8107V51.2634C187.165 51.6132 187.173 51.9635 187.202 52.3126Z" fill="#313131"/>
<path d="M207.167 51.1193C207.593 51.1567 207.99 51.3397 208.282 51.6337C208.451 51.8141 208.565 52.0347 208.61 52.2714C208.631 52.4836 208.631 52.6971 208.61 52.9092V53.2795V53.7527C208.564 53.917 208.498 54.0757 208.413 54.2259C208.337 54.39 208.226 54.5372 208.085 54.658C207.836 54.887 207.513 55.0317 207.167 55.0694C206.868 55.0906 206.569 55.0906 206.27 55.0694H202.028C201.824 55.0899 201.619 55.0899 201.416 55.0694C201.206 55.0506 201.007 54.9716 200.847 54.8431C200.772 54.7924 200.708 54.7281 200.659 54.654C200.61 54.5798 200.577 54.4972 200.563 54.4111C200.552 54.2604 200.552 54.1092 200.563 53.9585V48.5065C200.542 48.3494 200.542 48.1904 200.563 48.0333C200.62 47.8486 200.743 47.6885 200.913 47.5807C201.086 47.4514 201.288 47.36 201.503 47.3133H202.115H206.642C206.824 47.2917 207.007 47.2917 207.189 47.3133L207.757 47.519C207.936 47.5927 208.093 47.7056 208.216 47.8482C208.439 48.0531 208.584 48.3201 208.632 48.6094C208.655 48.8421 208.655 49.0762 208.632 49.3089C208.654 49.5347 208.654 49.762 208.632 49.9878C208.592 50.2246 208.469 50.442 208.282 50.605C208.168 50.7424 208.017 50.8489 207.845 50.9136C207.651 50.9994 207.445 51.055 207.232 51.0782L207.167 51.1193ZM205.571 50.4404H205.986C206.142 50.4098 206.286 50.3385 206.401 50.2347C206.499 50.1533 206.568 50.0456 206.598 49.9261C206.608 49.8165 206.608 49.7065 206.598 49.5969C206.611 49.4738 206.611 49.3497 206.598 49.2266C206.575 49.0882 206.497 48.9633 206.38 48.8768C206.272 48.7936 206.144 48.737 206.008 48.7122H202.771C202.715 48.6934 202.653 48.6934 202.597 48.7122C202.581 48.7592 202.581 48.8093 202.597 48.8563V50.4198L205.571 50.4404ZM202.509 53.3618V53.547C202.497 53.6013 202.497 53.6573 202.509 53.7116C202.556 53.7743 202.626 53.8183 202.706 53.835H205.396H205.855C206.021 53.8133 206.174 53.741 206.292 53.6293C206.42 53.531 206.506 53.3919 206.533 53.2384C206.543 53.0946 206.543 52.9502 206.533 52.8064V52.4155C206.504 52.279 206.427 52.1558 206.314 52.0657C206.209 51.9451 206.062 51.8646 205.899 51.8394H205.483H202.487L202.509 53.3618Z" fill="#313131"/>
<path d="M213.443 55.1724H212.853C212.623 55.1531 212.396 55.1117 212.175 55.049C211.923 54.9712 211.681 54.8677 211.453 54.7404C211.101 54.5493 210.797 54.2884 210.563 53.9758C210.329 53.6631 210.17 53.3062 210.097 52.9299C210.042 52.41 210.042 51.8862 210.097 51.3663V50.6051C210.064 50.3248 210.064 50.0419 210.097 49.7616C210.163 49.4765 210.266 49.2001 210.404 48.9387C210.534 48.65 210.728 48.3906 210.972 48.1775L211.322 47.91C211.487 47.7929 211.672 47.7025 211.869 47.6425C212.125 47.5484 212.388 47.4727 212.656 47.4162C213.005 47.3857 213.356 47.3857 213.706 47.4162H217.532V48.7535H214.318C213.785 48.711 213.252 48.8417 212.809 49.1238C212.495 49.3407 212.259 49.642 212.131 49.9879C212.121 50.118 212.121 50.2487 212.131 50.3788C212.121 50.5226 212.121 50.667 212.131 50.8109V51.8807C212.11 52.024 212.11 52.1694 212.131 52.3127C212.121 52.4566 212.121 52.6009 212.131 52.7448C212.152 52.8744 212.196 52.9997 212.262 53.1151C212.364 53.2927 212.506 53.4472 212.678 53.5677C212.857 53.6705 213.047 53.7534 213.246 53.8146C213.452 53.8773 213.665 53.9187 213.881 53.938H217.707V55.2753L213.443 55.1724Z" fill="#313131"/>
<path d="M222.431 55.1723H221.753C221.507 55.1649 221.264 55.1233 221.031 55.0489C220.793 54.9712 220.566 54.8676 220.353 54.7403C220.119 54.5951 219.912 54.4143 219.741 54.2054C219.449 53.8161 219.268 53.3627 219.216 52.8887C219.173 52.3752 219.173 51.8592 219.216 51.3457V50.2964C219.238 49.9991 219.282 49.7035 219.347 49.4118C219.411 49.149 219.522 48.8985 219.675 48.6711C219.823 48.4281 220.015 48.212 220.244 48.0334C220.429 47.8356 220.643 47.6626 220.878 47.519C221.17 47.422 221.47 47.3463 221.775 47.2927H222.649H223.393C223.918 47.2927 224.443 47.2927 224.945 47.2927C225.438 47.3491 225.913 47.4959 226.345 47.7248C226.59 47.8562 226.805 48.0308 226.979 48.2391C227.151 48.4193 227.285 48.6288 227.373 48.8563C227.459 49.084 227.524 49.318 227.57 49.5558C227.57 49.8027 227.57 50.0496 227.57 50.2964C227.591 50.5086 227.591 50.7221 227.57 50.9342C227.53 51.1266 227.433 51.3043 227.289 51.4464C227.146 51.5886 226.963 51.6892 226.76 51.7366C226.594 51.758 226.424 51.758 226.258 51.7366H221.053V52.3126C221.041 52.4839 221.041 52.6557 221.053 52.827C221.103 53.0111 221.201 53.1807 221.337 53.3207C221.463 53.4415 221.611 53.5392 221.775 53.6088L222.299 53.7322H227.438V55.0695L222.431 55.1723ZM225.252 50.4816C225.448 50.4816 225.558 50.4816 225.623 50.3376C225.644 50.2356 225.644 50.1309 225.623 50.029C225.634 49.8048 225.573 49.5828 225.448 49.3912C225.341 49.2292 225.209 49.0835 225.055 48.9592C224.812 48.7914 224.524 48.6915 224.224 48.6711C223.94 48.6507 223.655 48.6507 223.371 48.6711H222.934C222.767 48.6511 222.598 48.6511 222.431 48.6711C222.075 48.726 221.746 48.8842 221.49 49.1238C221.307 49.2975 221.185 49.5202 221.141 49.7615C221.141 49.9878 221.141 50.2347 221.141 50.4816H225.252Z" fill="#313131"/>
<path d="M233.561 55.1726V48.5891C233.539 48.4389 233.539 48.2866 233.561 48.1365C233.569 47.9882 233.622 47.8452 233.714 47.725C233.764 47.6381 233.832 47.562 233.915 47.5017C233.998 47.4415 234.094 47.3984 234.195 47.3752H234.764H240.996V48.7331H236.185C236.147 48.7178 236.107 48.7099 236.065 48.7099C236.024 48.7099 235.983 48.7178 235.945 48.7331L235.77 48.836C235.702 48.8878 235.655 48.9607 235.639 49.0417V55.2137L233.561 55.1726Z" fill="#313131"/>
<path d="M247.119 47.231C247.443 47.2336 247.765 47.268 248.081 47.3338C248.406 47.3721 248.723 47.4553 249.021 47.5807C249.329 47.6856 249.611 47.8464 249.852 48.0539C250.115 48.2493 250.331 48.4947 250.486 48.774C250.625 49.0516 250.735 49.3409 250.814 49.6381C250.899 49.9129 250.95 50.1959 250.968 50.4816C250.968 50.7696 250.968 50.9959 250.968 51.2016C250.993 51.9005 250.882 52.5979 250.64 53.259C250.465 53.706 250.18 54.1078 249.809 54.4317C249.575 54.6386 249.3 54.7994 248.999 54.9049C248.689 55.0249 248.367 55.1145 248.037 55.1723L247.075 55.2752H245.326L244.364 55.1723C244.041 55.1146 243.726 55.0249 243.423 54.9049C243.116 54.7999 242.834 54.6391 242.592 54.4317C242.328 54.229 242.112 53.9767 241.958 53.691C241.807 53.4257 241.697 53.1418 241.63 52.8475C241.558 52.5701 241.507 52.2882 241.477 52.004V50.5227C241.507 50.2317 241.558 49.943 241.63 49.6586C241.718 49.361 241.835 49.0717 241.98 48.7945C242.14 48.5241 242.347 48.2807 242.592 48.0745C242.834 47.867 243.116 47.7062 243.423 47.6013C243.723 47.4786 244.04 47.3955 244.364 47.3544C244.68 47.2897 245.002 47.2553 245.326 47.2515H247.075L247.119 47.231ZM243.598 52.3126C243.661 52.6805 243.836 53.0234 244.101 53.3001C244.385 53.5633 244.741 53.7482 245.129 53.835C245.496 53.9061 245.869 53.9474 246.244 53.9585C246.62 53.9592 246.994 53.9178 247.359 53.835C247.747 53.7482 248.103 53.5633 248.387 53.3001C248.652 53.0311 248.827 52.6949 248.89 52.3332C248.912 51.9837 248.912 51.6334 248.89 51.2839V50.7902C248.912 50.6124 248.912 50.433 248.89 50.2553C248.865 50.0646 248.814 49.8779 248.737 49.6998C248.652 49.5123 248.525 49.344 248.365 49.206C248.231 49.0611 248.067 48.9423 247.884 48.8563C247.711 48.7732 247.527 48.711 247.338 48.6711C247.156 48.6514 246.972 48.6514 246.791 48.6711H245.697C245.501 48.6512 245.303 48.6512 245.107 48.6711C244.917 48.711 244.734 48.7732 244.56 48.8563C244.374 48.9371 244.209 49.0567 244.079 49.206C243.931 49.3362 243.818 49.4987 243.751 49.6792C243.673 49.8653 243.614 50.0583 243.576 50.2553C243.565 50.4403 243.565 50.6257 243.576 50.8107V51.2839C243.544 51.6261 243.544 51.9704 243.576 52.3126H243.598Z" fill="#313131"/>
<path d="M254.576 57.8056H252.629V48.5064C252.613 48.2843 252.666 48.0624 252.783 47.8686C252.888 47.7423 253.005 47.6253 253.132 47.5189C253.294 47.4088 253.482 47.3381 253.679 47.3132C253.868 47.2928 254.059 47.2928 254.248 47.3132H257.878C258.108 47.3156 258.336 47.3503 258.556 47.416C258.809 47.4711 259.052 47.5612 259.277 47.6835C259.532 47.7922 259.762 47.9458 259.955 48.1361C260.168 48.3343 260.345 48.5636 260.48 48.815C260.614 49.0635 260.717 49.3259 260.786 49.5968C260.786 49.8437 260.786 50.0906 260.786 50.358V51.8393C260.809 52.0995 260.809 52.3609 260.786 52.6211C260.747 52.8823 260.673 53.138 260.567 53.3823C260.474 53.6094 260.349 53.8239 260.196 54.0201C259.999 54.2671 259.754 54.4766 259.474 54.6373C259.219 54.7951 258.938 54.9132 258.643 54.987C258.373 55.0666 258.094 55.115 257.812 55.1311H254.554L254.576 57.8056ZM256.762 53.9378C257.209 53.9822 257.66 53.8959 258.053 53.6909C258.269 53.5723 258.456 53.4109 258.599 53.2177C258.727 53.0368 258.816 52.8342 258.862 52.6211C258.953 52.2017 258.99 51.7733 258.971 51.3455C259.015 50.9557 259.015 50.5627 258.971 50.1729C258.943 49.9936 258.884 49.8199 258.796 49.6585C258.666 49.3923 258.452 49.1698 258.184 49.0207C257.854 48.8379 257.473 48.7519 257.09 48.7739H255.144H255.013H254.882C254.839 48.8058 254.805 48.8466 254.783 48.893C254.76 48.9394 254.749 48.9902 254.751 49.0413V53.8761L256.762 53.9378Z" fill="#313131"/>
<path d="M267.849 47.2309C268.173 47.2357 268.495 47.2702 268.812 47.3338C269.135 47.3775 269.451 47.4605 269.752 47.5807C270.057 47.6905 270.338 47.8507 270.583 48.0538C270.828 48.2601 271.035 48.5035 271.195 48.7739C271.344 49.0496 271.461 49.3392 271.545 49.638C271.545 49.9055 271.545 50.1935 271.698 50.4815V51.2016C271.728 51.9024 271.609 52.6018 271.348 53.2589C271.19 53.7087 270.911 54.1126 270.539 54.4316C270.302 54.6345 270.028 54.7948 269.73 54.9048C269.42 55.0248 269.097 55.1145 268.768 55.1723L267.784 55.2751H266.056L265.094 55.1723C264.771 55.1145 264.456 55.0249 264.154 54.9048C263.846 54.7999 263.564 54.6391 263.323 54.4316C263.059 54.2289 262.843 53.9767 262.689 53.691C262.538 53.4257 262.427 53.1417 262.361 52.8475C262.279 52.5721 262.227 52.2894 262.208 52.0039V50.5227C262.241 50.2002 262.314 49.8825 262.426 49.5763C262.514 49.2786 262.631 48.9893 262.776 48.7122C262.929 48.4373 263.137 48.1928 263.388 47.9921C263.63 47.7847 263.912 47.6239 264.219 47.5189C264.519 47.3962 264.836 47.3131 265.16 47.2721C265.476 47.2074 265.798 47.1729 266.122 47.1692H267.915L267.849 47.2309ZM264.329 52.3125C264.372 52.6861 264.549 53.0346 264.832 53.3001C265.095 53.5779 265.449 53.766 265.838 53.835C266.212 53.9072 266.593 53.9485 266.975 53.9584C267.35 53.958 267.724 53.9166 268.09 53.835C268.474 53.7531 268.823 53.5671 269.096 53.3001C269.369 53.0364 269.545 52.6976 269.599 52.3331C269.631 51.984 269.631 51.633 269.599 51.2839V50.7901C269.62 50.6124 269.62 50.4329 269.599 50.2552C269.574 50.0646 269.522 49.8778 269.446 49.6997C269.369 49.5132 269.249 49.3447 269.096 49.206C268.951 49.0719 268.789 48.9545 268.615 48.8562C268.44 48.7764 268.257 48.7143 268.068 48.671C267.879 48.6512 267.688 48.6512 267.499 48.671H266.406C266.217 48.6497 266.026 48.6497 265.838 48.671C265.641 48.7109 265.45 48.7731 265.269 48.8562C265.086 48.9423 264.923 49.0611 264.788 49.206C264.642 49.3382 264.53 49.5 264.46 49.6791C264.388 49.8658 264.337 50.0588 264.307 50.2552C264.285 50.4398 264.285 50.6261 264.307 50.8107V51.2839C264.293 51.6269 264.3 51.9703 264.329 52.3125Z" fill="#313131"/>
<path d="M276.006 47.9923C276.109 47.7747 276.267 47.584 276.465 47.4368C276.761 47.2681 277.105 47.1891 277.449 47.2105C277.804 47.1864 278.158 47.2732 278.455 47.4573C278.642 47.6021 278.792 47.785 278.893 47.9923L281.67 53.8351H282.457V55.1724H272.42V53.8351H273.229L276.006 47.9923ZM275.131 53.8351H279.767L277.581 48.9592C277.57 48.9364 277.565 48.9119 277.565 48.8872C277.565 48.8625 277.57 48.838 277.581 48.8152C277.563 48.8078 277.545 48.804 277.526 48.804C277.507 48.804 277.488 48.8078 277.471 48.8152C277.467 48.8631 277.467 48.9113 277.471 48.9592L275.131 53.8351Z" fill="#313131"/>
<path d="M288.908 47.2927C289.272 47.2955 289.633 47.351 289.979 47.4573C290.27 47.5603 290.537 47.7139 290.766 47.9099C290.98 48.1108 291.138 48.3581 291.226 48.63C291.375 48.9899 291.443 49.3755 291.422 49.7615V53.8762C291.444 54.0471 291.444 54.2197 291.422 54.3906C291.396 54.5826 291.295 54.7585 291.138 54.8843C290.97 55.0214 290.766 55.1138 290.548 55.1518C290.322 55.1729 290.095 55.1729 289.87 55.1518H285.496H284.709C284.403 55.1256 284.112 55.0106 283.878 54.8226C283.71 54.6821 283.569 54.515 283.463 54.3288C283.352 54.1493 283.271 53.9551 283.222 53.7528C283.173 53.563 283.137 53.3707 283.113 53.1767V52.6624C283.112 52.3158 283.156 51.9703 283.244 51.6337C283.347 51.2758 283.569 50.9584 283.878 50.7285C284.129 50.541 284.42 50.4076 284.731 50.3376C284.993 50.3173 285.256 50.3173 285.518 50.3376H289.389V49.7821C289.421 49.6606 289.421 49.5333 289.389 49.4118C289.369 49.2712 289.3 49.1409 289.192 49.0415C289.068 48.9094 288.91 48.8101 288.733 48.7534H288.23H283.856V47.3956L288.908 47.2927ZM286.152 51.6337H285.824C285.668 51.66 285.527 51.7408 285.431 51.86L285.3 52.1069C285.255 52.3175 285.255 52.5341 285.3 52.7447C285.289 52.8885 285.289 53.0329 285.3 53.1767C285.323 53.3387 285.399 53.4898 285.518 53.6088L285.803 53.7734C285.925 53.7946 286.051 53.7946 286.174 53.7734H289.148H289.367C289.379 53.7474 289.385 53.7194 289.385 53.6911C289.385 53.6627 289.379 53.6347 289.367 53.6088C289.389 53.5558 289.389 53.4971 289.367 53.4442V51.6337H286.152Z" fill="#313131"/>
<path d="M297.874 55.1727V46.3261C297.852 46.1346 297.852 45.9416 297.874 45.7501C297.919 45.527 298.042 45.3244 298.223 45.174C298.408 45.0014 298.645 44.8865 298.901 44.8448C299.127 44.8235 299.354 44.8235 299.579 44.8448H305.724H306.336C306.546 44.8878 306.751 44.9498 306.949 45.03C307.17 45.1142 307.371 45.2402 307.539 45.4003C307.735 45.5637 307.898 45.7588 308.02 45.9764C308.127 46.2027 308.215 46.4366 308.283 46.6759C308.353 46.9243 308.389 47.1801 308.392 47.4371V48.8361C308.398 49.0837 308.383 49.3313 308.348 49.5767C308.279 49.8543 308.176 50.1235 308.042 50.3791C307.908 50.6251 307.713 50.8369 307.473 50.9963C307.236 51.1785 306.96 51.3117 306.664 51.3872C306.344 51.47 306.013 51.5116 305.68 51.5106H300.126V55.1933L297.874 55.1727ZM304.434 49.9265C304.689 49.9464 304.945 49.9464 305.199 49.9265C305.462 49.9026 305.704 49.7848 305.877 49.5973C305.963 49.4997 306.03 49.3881 306.074 49.2681C306.137 49.1515 306.181 49.0267 306.205 48.8978C306.215 48.7677 306.215 48.637 306.205 48.5069V48.1572C306.227 47.9107 306.227 47.663 306.205 47.4165C306.18 47.1577 306.056 46.9164 305.855 46.7376C305.666 46.5746 305.431 46.4673 305.177 46.429H304.499H300.651C300.548 46.4476 300.456 46.4984 300.388 46.573C300.32 46.6333 300.274 46.7126 300.257 46.7993V50.0293L304.434 49.9265Z" fill="#313131"/>
<path d="M315.652 47.231C315.969 47.2347 316.284 47.2691 316.593 47.3338C316.924 47.3748 317.247 47.4579 317.555 47.5807C317.853 47.6907 318.127 47.851 318.364 48.0539C318.627 48.2493 318.843 48.4947 318.998 48.774C319.109 49.0361 319.204 49.304 319.282 49.5763C319.349 49.8539 319.393 50.1359 319.413 50.4198V51.1399C319.461 51.8399 319.35 52.5413 319.085 53.1973C318.927 53.6471 318.649 54.0509 318.276 54.3699C318.035 54.5774 317.753 54.7382 317.445 54.8431C317.143 54.9632 316.828 55.0529 316.505 55.1106L315.521 55.2134H313.794L312.831 55.1106C312.509 55.0529 312.194 54.9632 311.891 54.8431C311.584 54.7382 311.301 54.5774 311.06 54.3699C310.842 54.1758 310.665 53.9456 310.535 53.691C310.387 53.4225 310.27 53.1397 310.185 52.8475C310.12 52.5696 310.076 52.2877 310.054 52.004V50.5227C310.072 50.2304 310.124 49.9407 310.207 49.6586C310.285 49.358 310.403 49.0678 310.557 48.7945C310.71 48.5196 310.918 48.2751 311.169 48.0745C311.411 47.867 311.693 47.7062 312 47.6013C312.3 47.4786 312.617 47.3955 312.941 47.3544C313.257 47.2886 313.579 47.2541 313.903 47.2515H315.696L315.652 47.231ZM312.132 52.3126C312.176 52.6815 312.345 53.0273 312.613 53.3001C312.897 53.5633 313.252 53.7482 313.64 53.835C314.008 53.9061 314.381 53.9474 314.756 53.9585C315.139 53.9593 315.52 53.9178 315.893 53.835C316.273 53.7448 316.62 53.56 316.899 53.3001C317.172 53.0364 317.348 52.6976 317.402 52.3332C317.402 51.9834 317.402 51.6337 317.402 51.2839V50.7902C317.423 50.6124 317.423 50.433 317.402 50.2553C317.377 50.0646 317.325 49.8779 317.249 49.6998C317.163 49.5123 317.037 49.344 316.877 49.206C316.742 49.0611 316.579 48.9423 316.396 48.8563C316.055 48.697 315.683 48.6059 315.302 48.5888H314.209C313.815 48.6061 313.428 48.697 313.072 48.8563C312.885 48.9371 312.721 49.0567 312.591 49.206C312.442 49.3362 312.33 49.4987 312.263 49.6792C312.184 49.8653 312.126 50.0583 312.088 50.2553V50.8107V51.2839C312.067 51.6265 312.067 51.97 312.088 52.3126H312.132Z" fill="#313131"/>
<path d="M324.29 55.1725H323.656C323.426 55.1513 323.199 55.1099 322.978 55.0491C322.729 54.9634 322.488 54.8603 322.256 54.7405C321.907 54.5483 321.607 54.2867 321.376 53.974C321.146 53.6613 320.991 53.305 320.922 52.93C320.834 52.413 320.79 51.8901 320.791 51.3665V50.6052C320.768 50.3245 320.768 50.0425 320.791 49.7617C320.857 49.4766 320.959 49.2002 321.097 48.9388C321.243 48.6532 321.443 48.3952 321.688 48.1776L322.037 47.9101C322.203 47.793 322.387 47.7026 322.584 47.6427C322.831 47.5453 323.088 47.4696 323.349 47.4164C323.706 47.385 324.065 47.385 324.421 47.4164H328.226V48.7536H325.055C324.522 48.7094 323.989 48.8403 323.546 49.1239C323.22 49.3289 322.981 49.6345 322.868 49.988C322.858 50.1182 322.858 50.2488 322.868 50.3789C322.858 50.5228 322.858 50.6671 322.868 50.811V51.8808C322.847 52.0241 322.847 52.1695 322.868 52.3128C322.858 52.4567 322.858 52.601 322.868 52.7449C322.907 52.8727 322.958 52.9967 323.021 53.1152C323.116 53.2973 323.259 53.4533 323.437 53.5678C323.608 53.6705 323.791 53.7534 323.984 53.8147C324.19 53.8754 324.403 53.9168 324.618 53.9381H328.466V55.2754L324.29 55.1725Z" fill="#313131"/>
<path d="M333.365 55.1724H332.774C332.545 55.1511 332.318 55.1098 332.096 55.0489C331.853 54.9671 331.619 54.8637 331.397 54.7403C331.138 54.6103 330.909 54.4358 330.719 54.226C330.367 53.8791 330.131 53.4427 330.041 52.971C329.954 52.4469 329.91 51.9173 329.91 51.3868V50.6256C329.932 50.3419 329.976 50.06 330.041 49.7821C330.11 49.4979 330.213 49.2219 330.347 48.9592C330.483 48.6733 330.676 48.4148 330.916 48.198L331.265 47.9305C331.436 47.8213 331.619 47.7315 331.812 47.6631C332.068 47.5689 332.331 47.4932 332.599 47.4367C332.949 47.4062 333.3 47.4062 333.649 47.4367H337.476V48.774H334.283C333.751 48.7425 333.222 48.8723 332.774 49.1443C332.468 49.3765 332.234 49.6821 332.096 50.029C332.086 50.1523 332.086 50.2761 332.096 50.3993C332.086 50.5432 332.086 50.6875 332.096 50.8314V51.9012C332.086 52.045 332.086 52.1894 332.096 52.3332C332.096 52.4978 332.096 52.6418 332.206 52.7858C332.226 52.9091 332.271 53.0276 332.337 53.1356C332.447 53.3142 332.596 53.4685 332.774 53.5882C332.938 53.703 333.124 53.7869 333.321 53.8351C333.527 53.8978 333.74 53.9392 333.955 53.9585H337.804V55.2958L333.365 55.1724Z" fill="#313131"/>
<path d="M345.983 55.1722V49.5763V49.4323C345.983 49.4323 345.983 49.4323 345.873 49.4323C345.811 49.477 345.759 49.533 345.72 49.5968L341.784 54.6785C341.651 54.8655 341.48 55.0263 341.281 55.1517C341.038 55.269 340.767 55.3257 340.494 55.3163C340.268 55.3168 340.045 55.2748 339.838 55.1928C339.681 55.1328 339.545 55.0331 339.444 54.9048C339.356 54.8038 339.295 54.6836 339.269 54.555C339.248 54.4324 339.248 54.3073 339.269 54.1847V47.2926H341.237V52.9092C341.227 52.932 341.222 52.9564 341.222 52.9812C341.222 53.0059 341.227 53.0304 341.237 53.0532C341.237 53.0532 341.237 53.0532 341.347 53.0532C341.367 53.064 341.389 53.0697 341.412 53.0697C341.435 53.0697 341.458 53.064 341.478 53.0532V52.9092L345.523 47.7452C345.667 47.5468 345.874 47.3958 346.114 47.3132C346.324 47.282 346.538 47.282 346.748 47.3132H347.054C347.209 47.3299 347.359 47.3792 347.491 47.4572C347.646 47.5407 347.774 47.6614 347.863 47.807C347.998 48.0172 348.059 48.2618 348.038 48.5065V55.2751L345.983 55.1722Z" fill="#313131"/>
<path d="M356.457 55.1728V49.5768V49.4328C356.395 49.4776 356.343 49.5335 356.304 49.5974L352.368 54.679C352.234 54.8661 352.063 55.0268 351.865 55.1522C351.628 55.267 351.365 55.3236 351.099 55.3168C350.867 55.3179 350.637 55.2759 350.421 55.1934C350.268 55.1278 350.133 55.0291 350.028 54.9053C349.939 54.8044 349.879 54.6841 349.853 54.5556C349.842 54.4324 349.842 54.3085 349.853 54.1853V47.2932H351.821V52.9097V53.0537C351.821 53.0537 351.821 53.0537 351.93 53.0537C351.954 53.0633 351.98 53.0683 352.007 53.0683C352.033 53.0683 352.059 53.0633 352.083 53.0537V52.9097L356.063 47.7458C356.207 47.5474 356.414 47.3963 356.654 47.3137C356.864 47.2847 357.078 47.2847 357.288 47.3137H357.616C357.764 47.3307 357.907 47.38 358.031 47.4577C358.186 47.5413 358.314 47.662 358.403 47.8075C358.538 48.0177 358.599 48.2624 358.578 48.507V55.2757L356.457 55.1728Z" fill="#313131"/>
<path d="M58.3753 55.1738V49.5778V49.4338C58.3132 49.4786 58.2611 49.5345 58.2222 49.5984L54.286 54.68C54.1528 54.867 53.9819 55.0278 53.7831 55.1532C53.5468 55.268 53.2835 55.3246 53.0177 55.3178C52.7853 55.3189 52.555 55.2769 52.3398 55.1943C52.1864 55.1288 52.0515 55.0301 51.9462 54.9063C51.8577 54.8053 51.7975 54.6851 51.7712 54.5566C51.7605 54.4333 51.7605 54.3095 51.7712 54.1862V47.2941H53.7393V52.9107V53.0547C53.7393 53.0547 53.7393 53.0547 53.8487 53.0547C53.8729 53.0643 53.8989 53.0693 53.9252 53.0693C53.9515 53.0693 53.9775 53.0643 54.0017 53.0547V52.9107L57.9817 47.7468C58.1258 47.5483 58.3322 47.3973 58.5721 47.3147C58.7823 47.2857 58.996 47.2857 59.2062 47.3147H59.5342C59.6828 47.3317 59.825 47.381 59.9497 47.4587C60.1044 47.5422 60.2327 47.6629 60.3215 47.8085C60.4562 48.0187 60.5173 48.2633 60.4964 48.508V55.2766L58.3753 55.1738Z" fill="#313131"/>
</svg>
