<svg width="44" height="36" viewBox="0 0 44 36" fill="none" xmlns="http://www.w3.org/2000/svg">
<path d="M20.1605 34.7483C24.2818 31.3763 27.4664 28.6366 29.7144 26.5292C31.9623 24.3749 33.578 22.4547 34.5615 20.7688C35.545 19.0828 36.0368 17.3968 36.0368 15.7108C36.0368 13.8375 35.4513 12.3155 34.2805 11.1447C33.1566 9.92704 31.6813 9.31821 29.8549 9.31821C26.1551 9.31821 23.4856 12.2218 21.8465 18.029C21.8465 18.0759 21.7528 18.0993 21.5655 18.0993C21.144 18.0993 20.9567 18.0056 21.0035 17.8183L23.7432 7.1405C23.7432 7.04683 23.8369 7 24.0242 7C24.1647 7 24.2818 7.04683 24.3754 7.1405C24.5159 7.18733 24.5628 7.23416 24.5159 7.281C24.4691 7.46833 24.4457 7.72591 24.4457 8.05373C24.4457 8.80305 24.7969 9.17771 25.4994 9.17771C25.9209 9.17771 26.6234 9.0138 27.6069 8.68597C29.527 8.07715 31.2364 7.77274 32.7351 7.77274C35.1235 7.77274 36.9968 8.42839 38.355 9.7397C39.7599 11.0042 40.4624 12.6667 40.4624 14.7274C40.4624 16.3665 39.9239 18.0056 38.8467 19.6448C37.8164 21.2839 36.2709 23.0401 34.2103 24.9134C32.1965 26.7399 29.3631 29.0581 25.7102 31.8681C25.5228 32.0086 25.4526 32.1256 25.4994 32.2193C25.5931 32.313 25.757 32.3598 25.9912 32.3598C31.1428 32.3598 34.7254 32.2896 36.7392 32.1491C38.753 32.0086 40.2048 31.6339 41.0947 31.0251C41.9845 30.4163 42.5933 29.3391 42.9211 27.7936C42.9211 27.7 43.0382 27.6531 43.2724 27.6531C43.6002 27.6531 43.7641 27.7234 43.7641 27.8639L42.7104 35.0293C42.7104 35.2166 42.6401 35.4039 42.4996 35.5913C42.406 35.7318 42.2655 35.802 42.0782 35.802H20.6523C20.4181 35.802 20.2308 35.6849 20.0903 35.4508C19.9498 35.1698 19.9732 34.9356 20.1605 34.7483Z" fill="white"/>
<path d="M18.0557 16.6555C19.1315 17.8259 19.6709 19.2648 19.6709 20.9723C19.6709 22.4896 19.2268 23.8977 18.34 25.1941C17.4533 26.4904 16.2416 27.5266 14.7048 28.3013C13.168 29.076 11.5136 29.4634 9.7401 29.4634C7.9667 29.4634 6.2394 28.9572 4.7516 27.9461C3.2626 26.9351 2.0985 25.5115 1.2593 23.6768C0.4202 21.8435 0 19.7725 0 17.4637C0 14.6823 0.6331 12.0491 1.9009 9.56701C3.1673 7.08485 5.0374 4.98307 7.5072 3.25884C9.9783 1.53323 12.9243 0.449464 16.3452 0.0075702C16.4713 -0.0231945 16.5512 0.0397333 16.5834 0.197752C16.6142 0.355771 16.5834 0.450862 16.4881 0.481627C13.6051 1.05077 11.1816 2.14153 9.219 3.75388C7.255 5.36623 5.7813 7.28762 4.8007 9.51667C3.8187 11.7456 3.3284 14.0782 3.3284 16.5128C3.3284 18.5992 3.6534 20.5682 4.302 22.4183C4.9506 24.2684 5.8695 25.7548 7.0575 26.8763C8.2454 27.9992 9.6 28.56 11.12 28.56C12.7352 28.56 14.0016 27.9838 14.9206 26.8288C15.8395 25.6751 16.299 24.1341 16.299 22.2043C16.299 20.2745 15.8872 18.9167 15.0634 17.8399C14.2397 16.7659 13.0518 16.2275 11.4996 16.2275C10.6451 16.2275 9.8522 16.394 9.1237 16.7254C8.3953 17.0582 7.6038 17.6189 6.7479 18.409C6.7157 18.4412 6.6681 18.4566 6.605 18.4566C6.5097 18.4566 6.4145 18.409 6.3192 18.3139C6.224 18.2188 6.1917 18.1406 6.224 18.0762C7.0477 17.033 8.0605 16.2429 9.2653 15.7046C10.4686 15.1675 11.784 14.8976 13.2087 14.8976C15.3618 14.8976 16.9784 15.4836 18.0557 16.6526V16.6555Z" fill="white"/>
</svg>
