<svg width="51" height="45" viewBox="0 0 51 45" fill="none" xmlns="http://www.w3.org/2000/svg">
<mask id="mask0_299_78" style="mask-type:luminance" maskUnits="userSpaceOnUse" x="0" y="0" width="51" height="45">
<path d="M51 0.311523H0V44.623H51V0.311523Z" fill="white"/>
</mask>
<g mask="url(#mask0_299_78)">
<mask id="mask1_299_78" style="mask-type:luminance" maskUnits="userSpaceOnUse" x="0" y="0" width="51" height="45">
<path d="M51 0.311523H0V44.623H51V0.311523Z" fill="white"/>
</mask>
<g mask="url(#mask1_299_78)">
<mask id="mask2_299_78" style="mask-type:luminance" maskUnits="userSpaceOnUse" x="0" y="0" width="51" height="45">
<path d="M51 0.311523H0V44.623H51V0.311523Z" fill="white"/>
</mask>
<g mask="url(#mask2_299_78)">
<path d="M9.075 42.8188L5.35812 44.609C5.27937 44.6465 5.18349 44.609 5.06708 44.4932C4.95066 44.3773 4.91128 44.2802 4.95066 44.2036L21.0372 11.7941C21.1536 11.525 21.056 11.3904 20.7461 11.3904C14.242 11.3904 9.76153 11.4688 7.30302 11.6221C4.84451 11.7771 3.23859 12.094 2.48358 12.576C1.72857 13.0581 1.13791 13.9727 0.713313 15.32C0.713313 15.4358 0.634558 15.4938 0.480473 15.4938C0.364053 15.4938 0.247633 15.4649 0.131213 15.4069C0.0147934 15.349 -0.024584 15.2826 0.0147934 15.2042L2.04872 6.88341C2.08638 6.80676 2.22335 6.7778 2.45448 6.79654C2.68731 6.81698 2.78319 6.86468 2.74552 6.94132C2.70615 7.09633 2.68731 7.2888 2.68731 7.51875C2.68731 7.90371 2.87051 8.1541 3.23859 8.26992C3.60669 8.38575 4.35144 8.44367 5.47455 8.44367H22.8947C23.0882 8.44367 23.2337 8.53054 23.3296 8.70428C23.4255 8.87802 23.4358 9.04154 23.3587 9.19484L10.294 41.4322C9.98411 42.0864 9.57664 42.5496 9.075 42.8188Z" fill="white"/>
<path d="M49.0347 20.5752C50.3436 21.9993 50.9998 23.7499 50.9998 25.8273C50.9998 27.6732 50.4595 29.3864 49.3807 30.9637C48.3018 32.5408 46.8276 33.8015 44.9579 34.744C43.0882 35.6866 41.0754 36.1578 38.9177 36.1578C36.76 36.1578 34.6586 35.542 32.8485 34.3119C31.0369 33.0818 29.6206 31.3498 28.5996 29.1176C27.5787 26.8872 27.0674 24.3675 27.0674 21.5586C27.0674 18.1746 27.8378 14.971 29.3802 11.9511C30.921 8.93124 33.1962 6.37412 36.201 4.27636C39.2074 2.1769 42.7917 0.858358 46.9537 0.320734C47.1071 0.283304 47.2043 0.359865 47.2435 0.552116C47.281 0.744368 47.2435 0.86006 47.1276 0.897489C43.62 1.58994 40.6715 2.91699 38.2837 4.87864C35.8942 6.84029 34.1012 9.17793 32.9082 11.8899C31.7134 14.6018 31.1169 17.4397 31.1169 20.4017C31.1169 22.9401 31.5124 25.3356 32.3015 27.5865C33.0905 29.8374 34.2086 31.6459 35.6539 33.0104C37.0992 34.3765 38.7473 35.0587 40.5965 35.0587C42.5616 35.0587 44.1024 34.3578 45.2204 32.9525C46.3384 31.5489 46.8974 29.674 46.8974 27.3262C46.8974 24.9783 46.3964 23.3263 45.3942 22.0163C44.3921 20.7096 42.9468 20.0546 41.0584 20.0546C40.0187 20.0546 39.0541 20.2571 38.1678 20.6603C37.2815 21.0652 36.3186 21.7474 35.2773 22.7087C35.2381 22.7479 35.1801 22.7666 35.1034 22.7666C34.9875 22.7666 34.8716 22.7087 34.7557 22.593C34.6398 22.4773 34.6006 22.3821 34.6398 22.3038C35.642 21.0346 36.8742 20.0733 38.34 19.4183C39.8039 18.765 41.4044 18.4366 43.1377 18.4366C45.7573 18.4366 47.7241 19.1495 49.0347 20.5718V20.5752Z" fill="white"/>
</g>
</g>
</g>
</svg>
