<svg width="192" height="50" viewBox="0 0 192 50" fill="none" xmlns="http://www.w3.org/2000/svg">
<path d="M0.403069 0.179481H9.8243V2.01887H6.09108V13.0469H4.13629V2.01887H0.403069V0.179481ZM13.8361 3.23038C12.9454 4.15153 12.4993 5.27911 12.4993 6.61314C12.4993 7.94716 12.9454 9.07781 13.8361 10.0051C14.7342 10.9324 15.828 11.3959 17.1188 11.3959C18.4156 11.3959 19.5093 10.9324 20.4015 10.0051C21.2981 9.07781 21.7471 7.94716 21.7471 6.61314C21.7471 5.27911 21.2981 4.15153 20.4015 3.23038C19.5093 2.3031 18.4156 1.83954 17.1188 1.83954C15.828 1.83954 14.7342 2.3031 13.8361 3.23038ZM12.4385 11.3062C11.1759 10.0261 10.5446 8.46172 10.5446 6.61314C10.5446 4.76471 11.1759 3.20036 12.4385 1.92025C13.6997 0.640132 15.2603 0 17.1188 0C18.9832 0 20.5452 0.640132 21.8079 1.92025C23.0706 3.20036 23.7004 4.76471 23.7004 6.61314C23.7004 8.46172 23.0706 10.0261 21.8079 11.3062C20.5452 12.5863 18.9832 13.2264 17.1188 13.2264C15.2603 13.2264 13.6997 12.5863 12.4385 11.3062ZM36.6044 0.179481V13.0469H34.6511V2.01887H28.511V13.0469H26.5578V0.179481H36.6044ZM45.3142 6.80165V8.45268H39.0883V6.80165H45.3142ZM53.0429 6.24529C53.1007 6.26918 53.1793 6.30517 53.2771 6.35295C53.3823 6.39491 53.5616 6.50257 53.8165 6.67608C54.0715 6.84346 54.2967 7.03796 54.4938 7.25925C54.6909 7.48054 54.8673 7.78866 55.0229 8.18346C55.1859 8.57228 55.266 9.00001 55.266 9.46664C55.266 10.5195 54.8584 11.4109 54.0418 12.1407C53.2312 12.8646 52.1582 13.2264 50.8199 13.2264C50.2523 13.2264 49.7143 13.1577 49.2045 13.02C48.6962 12.8765 48.2723 12.709 47.9374 12.5175C47.6069 12.3201 47.3209 12.1227 47.0778 11.9253C46.8348 11.7279 46.6584 11.5635 46.5472 11.4318L46.3738 11.2074L47.6158 9.92438C47.6395 9.96021 47.6795 10.014 47.7373 10.0858C47.801 10.1516 47.9344 10.2712 48.1374 10.4448C48.339 10.6123 48.5509 10.7618 48.7703 10.8935C48.997 11.019 49.2919 11.1357 49.6565 11.2434C50.027 11.3451 50.4153 11.3959 50.8199 11.3959C51.5905 11.3959 52.1982 11.2045 52.6442 10.8216C53.0889 10.4328 53.3127 9.95118 53.3127 9.37689C53.3127 8.79664 53.0889 8.31516 52.6442 7.9323C52.1982 7.54348 51.5905 7.34899 50.8199 7.34899H49.578V5.50944H50.8199C51.4335 5.50944 51.9122 5.34497 52.253 5.01602C52.5998 4.68692 52.7747 4.24127 52.7747 3.67893C52.7747 3.11062 52.5998 2.66207 52.253 2.33297C51.9122 2.00402 51.4335 1.83954 50.8199 1.83954C50.2997 1.83954 49.8077 1.95608 49.3438 2.18947C48.8814 2.42271 48.5539 2.64706 48.3627 2.86238L48.0678 3.21231L46.817 1.92913C46.8511 1.88135 46.9044 1.8155 46.9741 1.73173C47.0482 1.64199 47.2112 1.48349 47.4602 1.25622C47.7091 1.02896 47.9744 0.834471 48.259 0.672906C48.542 0.505522 48.9155 0.35299 49.3794 0.215315C49.8418 0.0718211 50.3219 0 50.8199 0C52.0411 0 53 0.326038 53.695 0.978117C54.3886 1.62407 54.7369 2.46161 54.7369 3.49057C54.7369 3.84341 54.6761 4.18445 54.5546 4.5134C54.439 4.83653 54.2967 5.09979 54.1292 5.30316C53.9603 5.50653 53.7958 5.68295 53.6343 5.83257C53.4772 5.97607 53.3379 6.07775 53.2163 6.13763L53.0429 6.24529ZM6.10442 18.3394V25.2983H5.38566V19.0383H2.49865V20.4261C2.49865 21.4517 2.45567 22.3026 2.37119 22.9787C2.28968 23.6516 2.16078 24.1612 1.9859 24.5073C1.81399 24.8502 1.6213 25.0848 1.40789 25.211C1.19893 25.334 0.936621 25.3954 0.623915 25.3954C0.520174 25.3954 0.417892 25.3873 0.314151 25.3711C0.213374 25.355 0.137793 25.3372 0.08444 25.3178L0 25.2983V24.551C0.19118 24.6158 0.36603 24.6498 0.526088 24.653C0.723196 24.653 0.890694 24.6028 1.02852 24.5024C1.16931 24.4021 1.3012 24.2096 1.42273 23.9249C1.54425 23.6402 1.63465 23.2084 1.69097 22.6294C1.75025 22.0502 1.77989 21.3159 1.77989 20.4261V18.3394H6.10442ZM10.2467 22.4157L12.074 18.3394H12.8432L10.34 23.76C10.0659 24.3553 9.78425 24.7775 9.4997 25.0266C9.21516 25.2724 8.83724 25.3954 8.36892 25.3954C8.26518 25.3954 8.16145 25.3873 8.05771 25.3711C7.95842 25.355 7.88282 25.3372 7.83243 25.3178L7.74351 25.2983V24.6044C7.90357 24.6691 8.09626 24.7015 8.32152 24.7015C8.62237 24.7015 8.85949 24.6303 9.03585 24.4879C9.21369 24.3456 9.39152 24.1029 9.57085 23.76L9.86134 23.2116C9.65534 22.8073 9.2641 22.047 8.6876 20.9309C8.11109 19.8148 7.66796 18.9509 7.35822 18.3394H8.12885L10.2467 22.4157ZM14.623 18.3394V20.4261C14.623 20.9826 14.7713 21.413 15.0647 21.7169C15.3626 22.0179 15.7775 22.1682 16.3096 22.1682C16.5156 22.1682 16.7171 22.1441 16.9113 22.0955C17.1054 22.0437 17.267 21.9823 17.3989 21.9111C17.5308 21.8367 17.6449 21.7623 17.7427 21.6878C17.842 21.6102 17.9191 21.5488 17.9724 21.5035L18.0376 21.4209V18.3394H18.7609V25.2983H18.0376V22.2653C17.9873 22.3107 17.9117 22.3673 17.8079 22.4352C17.7042 22.5032 17.4952 22.5921 17.178 22.7021C16.8624 22.8088 16.5393 22.8623 16.2103 22.8623C15.5004 22.8623 14.9387 22.6454 14.5253 22.212C14.1118 21.7785 13.9058 21.1832 13.9058 20.4261V18.3394H14.623ZM20.7808 25.2983V18.3394H21.5041V24.6044H24.2933V18.3394H25.012V24.6044H27.8012V18.3394H28.5244V25.2983H20.7808ZM36.0205 25.2983H35.3017V19.6837L31.1639 25.2983H30.54V18.3394H31.2632V23.9589L35.3951 18.3394H36.0205V25.2983ZM40.1612 21.0765L42.036 18.3394H42.9L40.594 21.6684L43.0927 25.2983H42.2286L40.1612 22.2653L38.0909 25.2983H37.2268L39.7255 21.6684L37.4195 18.3394H38.2835L40.1612 21.0765ZM51.0378 21.7704L50.1219 22.7652V25.2983H49.3987V22.7652L48.4887 21.7704L46.0834 25.2983H45.2149L48.0041 21.222L45.4594 18.3394H46.3709L49.3987 21.7607V18.3394H50.1219V21.7607L53.1511 18.3394H54.067L51.5179 21.222L54.3071 25.2983H53.4431L51.0378 21.7704ZM60.8917 25.2983H60.1729V19.6837L56.0351 25.2983H55.4112V18.3394H56.1344V23.9589L60.2663 18.3394H60.8917V25.2983ZM67.9639 18.3394V25.2983H67.2451V19.0383H64.3567V20.4261C64.3567 21.4517 64.3152 22.3026 64.2307 22.9787C64.1492 23.6516 64.0202 24.1612 63.8454 24.5073C63.6735 24.8502 63.4808 25.0848 63.2674 25.211C63.057 25.334 62.7961 25.3954 62.4834 25.3954C62.3796 25.3954 62.2759 25.3873 62.1737 25.3711C62.0729 25.355 61.9958 25.3372 61.9425 25.3178L61.858 25.2983V24.551C62.0492 24.6158 62.224 24.6498 62.3841 24.653C62.5812 24.653 62.7487 24.6028 62.8865 24.5024C63.0273 24.4021 63.1592 24.2096 63.2807 23.9249C63.4037 23.6402 63.4926 23.2084 63.5489 22.6294C63.6082 22.0502 63.6379 21.3159 63.6379 20.4261V18.3394H67.9639ZM76.4781 25.2983H75.7593V18.3394H76.4781V25.2983ZM72.4396 25.2983H69.9883V18.3394H70.7116V20.926H72.4396C73.0621 20.926 73.5793 21.1347 73.9883 21.552C74.3988 21.9693 74.6033 22.4902 74.6033 23.1147C74.6033 23.7358 74.3988 24.255 73.9883 24.6723C73.5793 25.0897 73.0621 25.2983 72.4396 25.2983ZM70.7116 24.6044H72.4396C72.8738 24.6044 73.2236 24.4684 73.4859 24.1968C73.7497 23.9249 73.8801 23.5643 73.8801 23.1147C73.8801 22.6617 73.7497 22.2993 73.4859 22.0275C73.2266 21.7558 72.8768 21.62 72.4396 21.62H70.7116V24.6044ZM80.6159 21.0765L82.4892 18.3394H83.3532L81.0472 21.6684L83.5459 25.2983H82.6818L80.6159 22.2653L78.544 25.2983H77.68L80.1787 21.6684L77.8727 18.3394H78.7367L80.6159 21.0765ZM87.3072 22.2653L90.7677 18.3394H91.6792L89.1345 21.222L91.9237 25.2983H91.0553L88.6499 21.7704L87.3072 23.2602V25.2983H86.584V18.3394H87.3072V22.2653ZM93.7229 19.7662C93.1938 20.3194 92.9285 21.0036 92.9285 21.8189C92.9285 22.6341 93.1938 23.3183 93.7229 23.8716C94.252 24.4248 94.9011 24.7015 95.6717 24.7015C96.4409 24.7015 97.0915 24.4248 97.6206 23.8716C98.1497 23.3183 98.4135 22.6341 98.4135 21.8189C98.4135 21.0036 98.1497 20.3194 97.6206 19.7662C97.0915 19.2129 96.4409 18.9363 95.6717 18.9363C94.9011 18.9363 94.252 19.2129 93.7229 19.7662ZM98.123 19.2858C98.7958 19.9814 99.1322 20.8257 99.1322 21.8189C99.1322 22.8121 98.7958 23.6565 98.123 24.3521C97.4502 25.0476 96.6321 25.3954 95.6717 25.3954C94.7099 25.3954 93.8933 25.0476 93.2205 24.3521C92.5462 23.6565 92.2097 22.8121 92.2097 21.8189C92.2097 20.8257 92.5462 19.9814 93.2205 19.2858C93.8933 18.5902 94.7099 18.2424 95.6717 18.2424C96.6321 18.2424 97.4502 18.5902 98.123 19.2858ZM106.83 19.6351L104.134 23.3087L101.443 19.6351V25.2983H100.72V18.3394H101.345L104.134 22.1197L106.923 18.3394H107.549V25.2983H106.83V19.6351ZM114.762 18.3394V25.2983H114.038V19.0383H110.29V25.2983H109.567V18.3394H114.762ZM121.829 18.3394V25.2983H121.111V19.0383H118.222V20.4261C118.222 21.4517 118.181 22.3026 118.096 22.9787C118.015 23.6516 117.886 24.1612 117.711 24.5073C117.539 24.8502 117.346 25.0848 117.133 25.211C116.924 25.334 116.662 25.3954 116.349 25.3954C116.245 25.3954 116.143 25.3873 116.039 25.3711C115.938 25.355 115.861 25.3372 115.809 25.3178L115.725 25.2983V24.551C115.915 24.6158 116.091 24.6498 116.25 24.653C116.448 24.653 116.616 24.6028 116.753 24.5024C116.894 24.4021 117.025 24.2096 117.148 23.9249C117.269 23.6402 117.358 23.2084 117.414 22.6294C117.474 22.0502 117.505 21.3159 117.505 20.4261V18.3394H121.829ZM124.577 24.6044H128.568V25.2983H123.854V18.3394H128.47V19.0383H124.577V21.324H127.7V22.0179H124.577V24.6044ZM130.729 22.2653L134.189 18.3394H135.101L132.556 21.222L135.345 25.2983H134.477L132.072 21.7704L130.729 23.2602V25.2983H130.006V18.3394H130.729V22.2653ZM136.641 24.3521C135.968 23.6565 135.631 22.8121 135.631 21.8189C135.631 20.8257 135.968 19.9814 136.641 19.2858C137.315 18.5902 138.132 18.2424 139.093 18.2424C139.434 18.2424 139.762 18.2925 140.075 18.3928C140.387 18.4899 140.645 18.608 140.85 18.7471C141.056 18.8863 141.236 19.027 141.389 19.1693C141.546 19.3117 141.659 19.433 141.727 19.5333L141.835 19.6837L141.352 20.1301C141.333 20.0978 141.305 20.0557 141.268 20.0039C141.229 19.9489 141.142 19.8535 141.004 19.7177C140.866 19.5818 140.716 19.4621 140.553 19.3585C140.393 19.2518 140.183 19.1547 139.919 19.0674C139.657 18.98 139.381 18.9363 139.093 18.9363C138.323 18.9363 137.672 19.2129 137.143 19.7662C136.614 20.3194 136.35 21.0036 136.35 21.8189C136.35 22.6341 136.614 23.3183 137.143 23.8716C137.672 24.4248 138.323 24.7015 139.093 24.7015C139.381 24.7015 139.657 24.6609 139.919 24.5801C140.183 24.496 140.401 24.3957 140.572 24.2793C140.747 24.1628 140.901 24.0479 141.032 23.9347C141.164 23.8182 141.257 23.7164 141.313 23.6289L141.404 23.5076L141.883 23.9589C141.857 23.9978 141.817 24.0496 141.765 24.1142C141.715 24.1758 141.601 24.289 141.422 24.4539C141.247 24.619 141.06 24.7661 140.863 24.8956C140.666 25.025 140.406 25.1415 140.083 25.245C139.765 25.3452 139.434 25.3954 139.093 25.3954C138.132 25.3954 137.315 25.0476 136.641 24.3521ZM144.206 19.7662C143.677 20.3194 143.413 21.0036 143.413 21.8189C143.413 22.6341 143.677 23.3183 144.206 23.8716C144.735 24.4248 145.386 24.7015 146.155 24.7015C146.926 24.7015 147.575 24.4248 148.104 23.8716C148.633 23.3183 148.898 22.6341 148.898 21.8189C148.898 21.0036 148.633 20.3194 148.104 19.7662C147.575 19.2129 146.926 18.9363 146.155 18.9363C145.386 18.9363 144.735 19.2129 144.206 19.7662ZM148.608 19.2858C149.281 19.9814 149.617 20.8257 149.617 21.8189C149.617 22.8121 149.281 23.6565 148.608 24.3521C147.934 25.0476 147.117 25.3954 146.155 25.3954C145.195 25.3954 144.377 25.0476 143.704 24.3521C143.031 23.6565 142.695 22.8121 142.695 21.8189C142.695 20.8257 143.031 19.9814 143.704 19.2858C144.377 18.5902 145.195 18.2424 146.155 18.2424C147.117 18.2424 147.934 18.5902 148.608 19.2858ZM154.91 21.5714C154.941 21.5843 154.981 21.6021 155.027 21.6247C155.074 21.6474 155.161 21.709 155.29 21.8091C155.418 21.9094 155.53 22.0195 155.628 22.1391C155.725 22.2589 155.814 22.4255 155.891 22.639C155.972 22.8493 156.014 23.0726 156.014 23.3087C156.014 23.8845 155.822 24.3602 155.44 24.7354C155.058 25.1107 154.561 25.2983 153.946 25.2983H151.204V18.3394H153.801C154.346 18.3394 154.794 18.5126 155.145 18.8587C155.498 19.2016 155.676 19.6255 155.676 20.1301C155.676 20.3339 155.651 20.5232 155.6 20.6979C155.55 20.8693 155.486 21.0068 155.407 21.1103C155.329 21.2139 155.25 21.3028 155.173 21.3773C155.098 21.4485 155.036 21.497 154.985 21.5229L154.91 21.5714ZM151.928 24.6044H153.946C154.351 24.6044 154.675 24.4831 154.918 24.2404C155.166 23.9978 155.29 23.6873 155.29 23.3087C155.29 22.9237 155.164 22.5969 154.914 22.3284C154.666 22.0568 154.345 21.9208 153.946 21.9208H151.928V24.6044ZM153.801 19.0383H151.928V21.2656H153.801C154.161 21.2656 154.443 21.1653 154.647 20.9649C154.853 20.761 154.957 20.4828 154.957 20.1301C154.957 19.8066 154.853 19.5446 154.647 19.344C154.443 19.1402 154.161 19.0383 153.801 19.0383ZM1.05665 37.5497V30.5908H1.77989V33.6723H5.52641V30.5908H6.24965V37.5497H5.52641V34.3711H1.77989V37.5497H1.05665ZM11.9228 34.9147L10.6275 31.6341L9.32635 34.9147H11.9228ZM12.2148 35.6135H9.04028L8.26965 37.5497H7.49901L10.2896 30.5908H10.961L13.7502 37.5497H12.9854L12.2148 35.6135ZM17.4137 36.6034C16.7409 35.9079 16.403 35.0634 16.403 34.0703C16.403 33.077 16.7409 32.2328 17.4137 31.5372C18.0866 30.8416 18.9031 30.4938 19.865 30.4938C20.2058 30.4938 20.5333 30.5439 20.8461 30.6442C21.1588 30.7413 21.4181 30.8594 21.6212 30.9984C21.8272 31.1376 22.008 31.2784 22.1606 31.4206C22.3177 31.5631 22.4303 31.6843 22.5 31.7847L22.6067 31.935L22.1236 32.3815C22.1043 32.3491 22.0762 32.307 22.0391 32.2553C22.0021 32.2003 21.9131 32.1049 21.7768 31.969C21.639 31.8332 21.4878 31.7134 21.3247 31.6099C21.1662 31.5032 20.9542 31.4061 20.6919 31.3188C20.4281 31.2314 20.1525 31.1877 19.865 31.1877C19.0943 31.1877 18.4452 31.4643 17.9161 32.0176C17.387 32.5707 17.1217 33.255 17.1217 34.0703C17.1217 34.8855 17.387 35.5697 17.9161 36.123C18.4452 36.6762 19.0943 36.9529 19.865 36.9529C20.1525 36.9529 20.4281 36.9123 20.6919 36.8315C20.9542 36.7474 21.1721 36.6471 21.344 36.5307C21.5189 36.4141 21.673 36.2993 21.8049 36.1861C21.9353 36.0696 22.0302 35.9677 22.0865 35.8803L22.1754 35.759L22.6541 36.2103C22.6289 36.2492 22.5904 36.301 22.5371 36.3656C22.4867 36.4272 22.3725 36.5403 22.1947 36.7053C22.0183 36.8704 21.8331 37.0175 21.6345 37.1469C21.4374 37.2763 21.178 37.3929 20.855 37.4964C20.5363 37.5966 20.2058 37.6468 19.865 37.6468C18.9031 37.6468 18.0866 37.299 17.4137 36.6034ZM30.2065 31.8865L27.5107 35.5601L24.8193 31.8865V37.5497H24.0962V30.5908H24.7201L27.5107 34.3711L30.2998 30.5908H30.9238V37.5497H30.2065V31.8865ZM34.0242 32.0176C33.4951 32.5707 33.2298 33.255 33.2298 34.0703C33.2298 34.8855 33.4951 35.5697 34.0242 36.123C34.5532 36.6762 35.2024 36.9529 35.973 36.9529C36.7437 36.9529 37.3928 36.6762 37.9219 36.123C38.451 35.5697 38.7148 34.8855 38.7148 34.0703C38.7148 33.255 38.451 32.5707 37.9219 32.0176C37.3928 31.4643 36.7437 31.1877 35.973 31.1877C35.2024 31.1877 34.5532 31.4643 34.0242 32.0176ZM38.4243 31.5372C39.0972 32.2328 39.4336 33.077 39.4336 34.0703C39.4336 35.0634 39.0972 35.9079 38.4243 36.6034C37.7515 37.299 36.9334 37.6468 35.973 37.6468C35.0112 37.6468 34.1946 37.299 33.5218 36.6034C32.8489 35.9079 32.511 35.0634 32.511 34.0703C32.511 33.077 32.8489 32.2328 33.5218 31.5372C34.1946 30.8416 35.0112 30.4938 35.973 30.4938C36.9334 30.4938 37.7515 30.8416 38.4243 31.5372ZM39.8189 30.5908H44.7733V31.2897H42.6554V37.5497H41.9367V31.2897H39.8189V30.5908ZM45.9707 30.5908H48.5213C49.1437 30.5908 49.661 30.7995 50.0715 31.2168C50.4805 31.6341 50.6865 32.1551 50.6865 32.7795C50.6865 33.4006 50.479 33.9214 50.0655 34.342C49.6565 34.7593 49.1408 34.968 48.5213 34.968H46.694V37.5497H45.9707V30.5908ZM48.5213 31.2897H46.694V34.2692H48.5213C48.957 34.2692 49.3053 34.1334 49.5691 33.8616C49.8314 33.5899 49.9633 33.2291 49.9633 32.7795C49.9633 32.3297 49.8314 31.969 49.5691 31.6972C49.3053 31.4255 48.957 31.2897 48.5213 31.2897ZM54.8703 34.2692V34.9147H51.6483V34.2692H54.8703ZM57.0355 34.5167L60.496 30.5908H61.4075L58.8628 33.4734L61.652 37.5497H60.7835L58.3782 34.0218L57.0355 35.5115V37.5497H56.3123V30.5908H57.0355V34.5167ZM63.4512 32.0176C62.9221 32.5707 62.6568 33.255 62.6568 34.0703C62.6568 34.8855 62.9221 35.5697 63.4512 36.123C63.9802 36.6762 64.6294 36.9529 65.4 36.9529C66.1692 36.9529 66.8198 36.6762 67.3489 36.123C67.878 35.5697 68.1417 34.8855 68.1417 34.0703C68.1417 33.255 67.878 32.5707 67.3489 32.0176C66.8198 31.4643 66.1692 31.1877 65.4 31.1877C64.6294 31.1877 63.9802 31.4643 63.4512 32.0176ZM67.8513 31.5372C68.5241 32.2328 68.8605 33.077 68.8605 34.0703C68.8605 35.0634 68.5241 35.9079 67.8513 36.6034C67.1784 37.299 66.3604 37.6468 65.4 37.6468C64.4382 37.6468 63.6216 37.299 62.9473 36.6034C62.2744 35.9079 61.938 35.0634 61.938 34.0703C61.938 33.077 62.2744 32.2328 62.9473 31.5372C63.6216 30.8416 64.4382 30.4938 65.4 30.4938C66.3604 30.4938 67.1784 30.8416 67.8513 31.5372ZM70.4477 37.5497V30.5908H71.171V33.6723H74.919V30.5908H75.6422V37.5497H74.919V34.3711H71.171V37.5497H70.4477ZM78.384 34.5167L81.846 30.5908H82.7574L80.2113 33.4734L83.0004 37.5497H82.132L79.7282 34.0218L78.384 35.5115V37.5497H77.6607V30.5908H78.384V34.5167ZM86.2224 34.6671L88.0497 30.5908H88.8189L86.3157 36.0114C86.0416 36.6066 85.76 37.0289 85.4754 37.278C85.1909 37.5238 84.813 37.6468 84.3447 37.6468C84.2409 37.6468 84.1372 37.6387 84.0334 37.6224C83.9342 37.6064 83.8586 37.5886 83.8082 37.5691L83.7192 37.5497V36.8558C83.8793 36.9204 84.072 36.9529 84.2972 36.9529C84.5981 36.9529 84.8352 36.8817 85.0116 36.7393C85.1894 36.597 85.3673 36.3543 85.5466 36.0114L85.837 35.463C85.631 35.0587 85.2398 34.2983 84.6633 33.1822C84.0868 32.0661 83.6437 31.2023 83.3339 30.5908H84.1046L86.2224 34.6671ZM89.9749 30.5908H92.5254C93.1478 30.5908 93.6651 30.7995 94.0741 31.2168C94.4846 31.6341 94.6892 32.1551 94.6892 32.7795C94.6892 33.4006 94.4832 33.9214 94.0697 34.342C93.6592 34.7593 93.1449 34.968 92.5254 34.968H90.6981V37.5497H89.9749V30.5908ZM92.5254 31.2897H90.6981V34.2692H92.5254C92.9596 34.2692 93.3094 34.1334 93.5717 33.8616C93.8355 33.5899 93.9659 33.2291 93.9659 32.7795C93.9659 32.3297 93.8355 31.969 93.5717 31.6972C93.3094 31.4255 92.9596 31.2897 92.5254 31.2897ZM96.8084 36.6034C96.1341 35.9079 95.7977 35.0634 95.7977 34.0703C95.7977 33.077 96.1341 32.2328 96.8084 31.5372C97.4813 30.8416 98.2979 30.4938 99.2597 30.4938C99.6006 30.4938 99.9281 30.5439 100.241 30.6442C100.554 30.7413 100.813 30.8594 101.016 30.9984C101.222 31.1376 101.403 31.2784 101.555 31.4206C101.712 31.5631 101.825 31.6843 101.893 31.7847L102.001 31.935L101.518 32.3815C101.499 32.3491 101.471 32.307 101.434 32.2553C101.395 32.2003 101.308 32.1049 101.17 31.969C101.032 31.8332 100.883 31.7134 100.72 31.6099C100.559 31.5032 100.349 31.4061 100.085 31.3188C99.8229 31.2314 99.5472 31.1877 99.2597 31.1877C98.489 31.1877 97.8399 31.4643 97.3108 32.0176C96.7817 32.5707 96.5165 33.255 96.5165 34.0703C96.5165 34.8855 96.7817 35.5697 97.3108 36.123C97.8399 36.6762 98.489 36.9529 99.2597 36.9529C99.5472 36.9529 99.8229 36.9123 100.085 36.8315C100.349 36.7474 100.567 36.6471 100.739 36.5307C100.914 36.4141 101.068 36.2993 101.198 36.1861C101.33 36.0696 101.425 35.9677 101.481 35.8803L101.57 35.759L102.049 36.2103C102.024 36.2492 101.985 36.301 101.932 36.3656C101.881 36.4272 101.767 36.5403 101.588 36.7053C101.413 36.8704 101.226 37.0175 101.029 37.1469C100.832 37.2763 100.573 37.3929 100.25 37.4964C99.931 37.5966 99.6006 37.6468 99.2597 37.6468C98.2979 37.6468 97.4813 37.299 96.8084 36.6034ZM104.214 36.8558H108.205V37.5497H103.491V30.5908H108.107V31.2897H104.214V33.5753H107.337V34.2692H104.214V36.8558ZM115.128 34.9147L113.832 31.6341L112.531 34.9147H115.128ZM115.42 35.6135H112.244L111.474 37.5497H110.704L113.493 30.5908H114.164L116.955 37.5497H116.189L115.42 35.6135ZM118.209 30.5908H120.758C121.382 30.5908 121.898 30.7995 122.308 31.2168C122.719 31.6341 122.923 32.1551 122.923 32.7795C122.923 33.4006 122.717 33.9214 122.304 34.342C121.893 34.7593 121.379 34.968 120.758 34.968H118.932V37.5497H118.209V30.5908ZM120.758 31.2897H118.932V34.2692H120.758C121.194 34.2692 121.543 34.1334 121.806 33.8616C122.069 33.5899 122.2 33.2291 122.2 32.7795C122.2 32.3297 122.069 31.969 121.806 31.6972C121.543 31.4255 121.194 31.2897 120.758 31.2897ZM126.197 33.3279L128.07 30.5908H128.934L126.63 33.9198L129.127 37.5497H128.263L126.197 34.5167L124.126 37.5497H123.261L125.76 33.9198L123.454 30.5908H124.318L126.197 33.3279ZM135.815 37.5497H135.096V31.935L130.959 37.5497H130.335V30.5908H131.058V36.2103L135.19 30.5908H135.815V37.5497ZM137.022 30.5908H141.976V31.2897H139.858V37.5497H139.139V31.2897H137.022V30.5908ZM143.897 36.8558H147.889V37.5497H143.173V30.5908H147.79V31.2897H143.897V33.5753H147.019V34.2692H143.897V36.8558ZM150.049 34.5167L153.511 30.5908H154.422L151.876 33.4734L154.665 37.5497H153.797L151.393 34.0218L150.049 35.5115V37.5497H149.325V30.5908H150.049V34.5167ZM154.953 30.5908H159.907V31.2897H157.789V37.5497H157.07V31.2897H154.953V30.5908ZM163.419 34.6671L165.247 30.5908H166.016L163.513 36.0114C163.237 36.6066 162.957 37.0289 162.672 37.278C162.388 37.5238 162.01 37.6468 161.54 37.6468C161.438 37.6468 161.334 37.6387 161.23 37.6224C161.131 37.6064 161.055 37.5886 161.005 37.5691L160.916 37.5497V36.8558C161.076 36.9204 161.269 36.9529 161.494 36.9529C161.795 36.9529 162.032 36.8817 162.207 36.7393C162.386 36.597 162.564 36.3543 162.743 36.0114L163.034 35.463C162.828 35.0587 162.437 34.2983 161.86 33.1822C161.284 32.0661 160.841 31.2023 160.531 30.5908H161.301L163.419 34.6671ZM167.172 30.5908H169.721C170.345 30.5908 170.86 30.7995 171.271 31.2168C171.682 31.6341 171.886 32.1551 171.886 32.7795C171.886 33.4006 171.68 33.9214 171.267 34.342C170.856 34.7593 170.342 34.968 169.721 34.968H167.895V37.5497H167.172V30.5908ZM169.721 31.2897H167.895V34.2692H169.721C170.157 34.2692 170.506 34.1334 170.769 33.8616C171.032 33.5899 171.163 33.2291 171.163 32.7795C171.163 32.3297 171.032 31.969 170.769 31.6972C170.506 31.4255 170.157 31.2897 169.721 31.2897ZM173.427 37.5497V30.5908H174.151V33.6723H177.897V30.5908H178.62V37.5497H177.897V34.3711H174.151V37.5497H173.427ZM181.721 32.0176C181.192 32.5707 180.926 33.255 180.926 34.0703C180.926 34.8855 181.192 35.5697 181.721 36.123C182.25 36.6762 182.899 36.9529 183.67 36.9529C184.44 36.9529 185.089 36.6762 185.618 36.123C186.148 35.5697 186.411 34.8855 186.411 34.0703C186.411 33.255 186.148 32.5707 185.618 32.0176C185.089 31.4643 184.44 31.1877 183.67 31.1877C182.899 31.1877 182.25 31.4643 181.721 32.0176ZM186.121 31.5372C186.794 32.2328 187.13 33.077 187.13 34.0703C187.13 35.0634 186.794 35.9079 186.121 36.6034C185.448 37.299 184.63 37.6468 183.67 37.6468C182.708 37.6468 181.891 37.299 181.218 36.6034C180.545 35.9079 180.208 35.0634 180.208 34.0703C180.208 33.077 180.545 32.2328 181.218 31.5372C181.891 30.8416 182.708 30.4938 183.67 30.4938C184.63 30.4938 185.448 30.8416 186.121 31.5372ZM191.361 34.2692V34.9147H188.141V34.2692H191.361ZM1.63466 48.8548C0.960344 48.1592 0.623915 47.3148 0.623915 46.3217C0.623915 45.3284 0.960344 44.4841 1.63466 43.7886C2.3075 43.093 3.12408 42.7452 4.08591 42.7452C4.42677 42.7452 4.75428 42.7953 5.06699 42.8956C5.37969 42.9927 5.63758 43.1107 5.8421 43.2498C6.0481 43.389 6.22893 43.5297 6.38157 43.672C6.53867 43.8144 6.6513 43.9357 6.71947 44.036L6.82765 44.1864L6.34449 44.6328C6.32522 44.6005 6.2971 44.5584 6.26005 44.5066C6.22152 44.4517 6.13406 44.3563 5.99623 44.2204C5.85841 44.0846 5.7087 43.9648 5.54568 43.8613C5.38562 43.7546 5.1752 43.6575 4.9114 43.5702C4.64909 43.4827 4.37342 43.4391 4.08591 43.4391C3.31526 43.4391 2.66613 43.7157 2.13705 44.269C1.60797 44.8221 1.34267 45.5064 1.34267 46.3217C1.34267 47.1369 1.60797 47.8211 2.13705 48.3744C2.66613 48.9275 3.31526 49.2043 4.08591 49.2043C4.37342 49.2043 4.64909 49.1637 4.9114 49.0828C5.1752 48.9988 5.39303 48.8984 5.56494 48.7821C5.73982 48.6655 5.89399 48.5507 6.02441 48.4375C6.15631 48.3209 6.24964 48.2191 6.30595 48.1317L6.39636 48.0104L6.87505 48.4617C6.84986 48.5006 6.81136 48.5523 6.758 48.617C6.70762 48.6785 6.59351 48.7917 6.41418 48.9566C6.23931 49.1217 6.05255 49.2689 5.85544 49.3983C5.65833 49.5277 5.39898 49.6442 5.0759 49.7478C4.75726 49.8479 4.42677 49.8982 4.08591 49.8982C3.12408 49.8982 2.3075 49.5504 1.63466 48.8548ZM7.49901 42.8421H12.4534V43.5411H10.3356V49.8011H9.6168V43.5411H7.49901V42.8421ZM13.6509 42.8421H16.2014C16.8253 42.8421 17.3411 43.0509 17.7516 43.4682C18.1621 43.8855 18.3666 44.4065 18.3666 45.0308C18.3666 45.652 18.1606 46.1728 17.7471 46.5934C17.3366 47.0107 16.8209 47.2194 16.2014 47.2194H14.3741V49.8011H13.6509V42.8421ZM16.2014 43.5411H14.3741V46.5206H16.2014C16.6371 46.5206 16.9854 46.3848 17.2492 46.1129C17.5115 45.8413 17.6434 45.4805 17.6434 45.0308C17.6434 44.5811 17.5115 44.2204 17.2492 43.9486C16.9854 43.6769 16.6371 43.5411 16.2014 43.5411ZM20.9868 44.269C20.4578 44.8221 20.194 45.5064 20.194 46.3217C20.194 47.1369 20.4578 47.8211 20.9868 48.3744C21.5159 48.9275 22.1665 49.2043 22.9357 49.2043C23.7064 49.2043 24.3555 48.9275 24.8846 48.3744C25.4136 47.8211 25.6789 47.1369 25.6789 46.3217C25.6789 45.5064 25.4136 44.8221 24.8846 44.269C24.3555 43.7157 23.7064 43.4391 22.9357 43.4391C22.1665 43.4391 21.5159 43.7157 20.9868 44.269ZM25.387 43.7886C26.0613 44.4841 26.3977 45.3284 26.3977 46.3217C26.3977 47.3148 26.0613 48.1592 25.387 48.8548C24.7141 49.5504 23.8975 49.8982 22.9357 49.8982C21.9754 49.8982 21.1573 49.5504 20.4845 48.8548C19.8116 48.1592 19.4752 47.3148 19.4752 46.3217C19.4752 45.3284 19.8116 44.4841 20.4845 43.7886C21.1573 43.093 21.9754 42.7452 22.9357 42.7452C23.8975 42.7452 24.7141 43.093 25.387 43.7886ZM33.4655 49.8011H32.7467V44.1864L28.6089 49.8011H27.985V42.8421H28.7082V48.4617L32.8401 42.8421H33.4655V49.8011ZM34.6718 42.8421H39.6262V43.5411H37.5084V49.8011H36.7896V43.5411H34.6718V42.8421ZM41.5469 49.1072H45.5395V49.8011H40.8237V42.8421H45.4402V43.5411H41.5469V45.8267H44.6695V46.5206H41.5469V49.1072ZM52.0248 42.8421V49.8011H51.306V43.5411H48.4175V44.9289C48.4175 45.9544 48.3761 46.8053 48.2916 47.4814C48.2101 48.1543 48.0811 48.664 47.9062 49.0101C47.7343 49.353 47.5417 49.5876 47.3283 49.7138C47.1178 49.8368 46.857 49.8982 46.5443 49.8982C46.4405 49.8982 46.3368 49.89 46.2345 49.8738C46.1338 49.8577 46.0567 49.84 46.0033 49.8205L45.9189 49.8011V49.0537C46.11 49.1185 46.2864 49.1525 46.445 49.1557C46.6421 49.1557 46.8095 49.1055 46.9474 49.0052C47.0882 48.9049 47.2201 48.7124 47.3431 48.4277C47.4646 48.143 47.5535 47.7111 47.6099 47.1321C47.6691 46.5529 47.6988 45.8186 47.6988 44.9289V42.8421H52.0248ZM56.5983 49.8011H54.0492V42.8421H54.7724V45.4287H56.5983C57.2222 45.4287 57.738 45.6374 58.1485 46.0548C58.559 46.4721 58.7635 46.9929 58.7635 47.6174C58.7635 48.2386 58.559 48.7577 58.1485 49.175C57.738 49.5925 57.2222 49.8011 56.5983 49.8011ZM54.7724 49.1072H56.5983C57.034 49.1072 57.3823 48.9712 57.6461 48.6995C57.9084 48.4277 58.0403 48.067 58.0403 47.6174C58.0403 47.1644 57.9084 46.8021 57.6461 46.5303C57.3823 46.2586 57.034 46.1227 56.5983 46.1227H54.7724V49.1072ZM60.3508 49.8011V42.8421H61.074V45.9237H64.822V42.8421H65.5452V49.8011H64.822V46.6225H61.074V49.8011H60.3508ZM68.6442 44.269C68.1151 44.8221 67.8513 45.5064 67.8513 46.3217C67.8513 47.1369 68.1151 47.8211 68.6442 48.3744C69.1732 48.9275 69.8238 49.2043 70.593 49.2043C71.3637 49.2043 72.0128 48.9275 72.5419 48.3744C73.071 47.8211 73.3362 47.1369 73.3362 46.3217C73.3362 45.5064 73.071 44.8221 72.5419 44.269C72.0128 43.7157 71.3637 43.4391 70.593 43.4391C69.8238 43.4391 69.1732 43.7157 68.6442 44.269ZM73.0443 43.7886C73.7186 44.4841 74.055 45.3284 74.055 46.3217C74.055 47.3148 73.7186 48.1592 73.0443 48.8548C72.3714 49.5504 71.5548 49.8982 70.593 49.8982C69.6327 49.8982 68.8146 49.5504 68.1417 48.8548C67.4689 48.1592 67.1325 47.3148 67.1325 46.3217C67.1325 45.3284 67.4689 44.4841 68.1417 43.7886C68.8146 43.093 69.6327 42.7452 70.593 42.7452C71.5548 42.7452 72.3714 43.093 73.0443 43.7886ZM75.6422 49.8011V42.8421H79.826V43.5411H76.3655V49.8011H75.6422ZM81.8134 44.269C81.2843 44.8221 81.019 45.5064 81.019 46.3217C81.019 47.1369 81.2843 47.8211 81.8134 48.3744C82.3424 48.9275 82.9916 49.2043 83.7622 49.2043C84.5314 49.2043 85.182 48.9275 85.7111 48.3744C86.2402 47.8211 86.504 47.1369 86.504 46.3217C86.504 45.5064 86.2402 44.8221 85.7111 44.269C85.182 43.7157 84.5314 43.4391 83.7622 43.4391C82.9916 43.4391 82.3424 43.7157 81.8134 44.269ZM86.2135 43.7886C86.8863 44.4841 87.2227 45.3284 87.2227 46.3217C87.2227 47.3148 86.8863 48.1592 86.2135 48.8548C85.5406 49.5504 84.7226 49.8982 83.7622 49.8982C82.8004 49.8982 81.9838 49.5504 81.311 48.8548C80.6367 48.1592 80.3002 47.3148 80.3002 46.3217C80.3002 45.3284 80.6367 44.4841 81.311 43.7886C81.9838 43.093 82.8004 42.7452 83.7622 42.7452C84.7226 42.7452 85.5406 43.093 86.2135 43.7886ZM91.525 44.7105C91.0953 45.1021 90.8819 45.6067 90.8819 46.2246C90.8819 46.8393 91.0953 47.3424 91.525 47.7338C91.9563 48.1252 92.5595 48.334 93.3331 48.3598V44.0846C92.5565 44.1105 91.9533 44.319 91.525 44.7105ZM95.8644 47.7338C96.2927 47.3424 96.5076 46.8393 96.5076 46.2246C96.5076 45.6067 96.2927 45.1036 95.8644 44.7154C95.4346 44.3239 94.8329 44.1137 94.0563 44.0846V48.3598C94.8329 48.334 95.4346 48.1252 95.8644 47.7338ZM94.0563 49.0537V50H93.3331V49.0537C92.3713 49.0279 91.6021 48.7464 91.0271 48.2093C90.4506 47.6724 90.1631 47.0107 90.1631 46.2246C90.1631 45.4351 90.4506 44.772 91.0271 44.235C91.6021 43.6979 92.3713 43.4164 93.3331 43.3905V42.6432H94.0563V43.3905C95.0167 43.4164 95.7859 43.6979 96.3624 44.235C96.9404 44.772 97.2308 45.4351 97.2308 46.2246C97.2308 47.0107 96.9404 47.6724 96.3624 48.2093C95.7859 48.7464 95.0167 49.0279 94.0563 49.0537ZM99.8466 44.269C99.3175 44.8221 99.0522 45.5064 99.0522 46.3217C99.0522 47.1369 99.3175 47.8211 99.8466 48.3744C100.376 48.9275 101.025 49.2043 101.795 49.2043C102.566 49.2043 103.215 48.9275 103.744 48.3744C104.273 47.8211 104.537 47.1369 104.537 46.3217C104.537 45.5064 104.273 44.8221 103.744 44.269C103.215 43.7157 102.566 43.4391 101.795 43.4391C101.025 43.4391 100.376 43.7157 99.8466 44.269ZM104.247 43.7886C104.92 44.4841 105.256 45.3284 105.256 46.3217C105.256 47.3148 104.92 48.1592 104.247 48.8548C103.574 49.5504 102.756 49.8982 101.795 49.8982C100.834 49.8982 100.017 49.5504 99.3442 48.8548C98.6713 48.1592 98.3334 47.3148 98.3334 46.3217C98.3334 45.3284 98.6713 44.4841 99.3442 43.7886C100.017 43.093 100.834 42.7452 101.795 42.7452C102.756 42.7452 103.574 43.093 104.247 43.7886ZM106.843 42.8421H109.394C110.016 42.8421 110.533 43.0509 110.944 43.4682C111.353 43.8855 111.559 44.4065 111.559 45.0308C111.559 45.652 111.352 46.1728 110.94 46.5934C110.529 47.0107 110.013 47.2194 109.394 47.2194H107.566V49.8011H106.843V42.8421ZM109.394 43.5411H107.566V46.5206H109.394C109.829 46.5206 110.178 46.3848 110.442 46.1129C110.704 45.8413 110.836 45.4805 110.836 45.0308C110.836 44.5811 110.704 44.2204 110.442 43.9486C110.178 43.6769 109.829 43.5411 109.394 43.5411ZM115.019 46.9185L116.847 42.8421H117.617L115.114 48.2628C114.839 48.858 114.559 49.2802 114.273 49.5294C113.988 49.7752 113.612 49.8982 113.142 49.8982C113.038 49.8982 112.934 49.89 112.832 49.8738C112.731 49.8577 112.656 49.84 112.605 49.8205L112.516 49.8011V49.1072C112.676 49.1718 112.869 49.2043 113.094 49.2043C113.395 49.2043 113.632 49.1331 113.809 48.9906C113.987 48.8484 114.164 48.6056 114.344 48.2628L114.634 47.7144C114.428 47.3101 114.037 46.5497 113.46 45.4336C112.884 44.3175 112.442 43.4536 112.131 42.8421H112.902L115.019 46.9185ZM124.882 44.1379L122.187 47.8114L119.495 44.1379V49.8011H118.772V42.8421H119.397L122.187 46.6225L124.976 42.8421H125.601V49.8011H124.882V44.1379ZM131.273 47.1661L129.978 43.8855L128.676 47.1661H131.273ZM131.565 47.8649H128.39L127.62 49.8011H126.849L129.64 42.8421H130.311L133.1 49.8011H132.335L131.565 47.8649ZM136.426 42.8421V44.9289H135.8V42.8421H136.426ZM137.918 42.8421V44.9289H137.294V42.8421H137.918ZM140.272 46.7681L143.732 42.8421H144.644L142.099 45.7247L144.888 49.8011H144.02L141.614 46.2731L140.272 47.7629V49.8011H139.548V42.8421H140.272V46.7681ZM149.645 47.1661L148.349 43.8855L147.047 47.1661H149.645ZM149.936 47.8649H146.761L145.992 49.8011H145.222L148.011 42.8421H148.682L151.473 49.8011H150.707L149.936 47.8649ZM155.271 46.1227C155.308 46.1292 155.357 46.1453 155.416 46.1711C155.48 46.1938 155.591 46.2505 155.75 46.3411C155.91 46.4284 156.052 46.5319 156.178 46.6517C156.303 46.7713 156.415 46.9396 156.516 47.1563C156.615 47.3698 156.666 47.6061 156.666 47.8649C156.666 48.4084 156.436 48.8839 155.975 49.2916C155.519 49.696 154.93 49.8982 154.21 49.8982C153.915 49.8982 153.631 49.861 153.355 49.7865C153.079 49.7089 152.851 49.6184 152.67 49.5148C152.491 49.4079 152.332 49.3012 152.196 49.1945C152.058 49.0877 151.96 48.9988 151.904 48.9275L151.805 48.8063L152.289 48.3113C152.309 48.3372 152.335 48.3712 152.369 48.4131C152.406 48.452 152.485 48.5233 152.604 48.6268C152.727 48.7271 152.855 48.8176 152.993 48.8984C153.131 48.9761 153.312 49.0473 153.534 49.1119C153.757 49.1735 153.982 49.2043 154.21 49.2043C154.742 49.2043 155.163 49.0715 155.473 48.8063C155.787 48.541 155.942 48.2272 155.942 47.8649C155.942 47.4733 155.787 47.1434 155.473 46.8748C155.163 46.6064 154.742 46.4721 154.21 46.4721H153.444V45.7782H154.21C154.669 45.7782 155.034 45.6665 155.299 45.4433C155.569 45.2201 155.704 44.95 155.704 44.6328C155.704 44.2964 155.571 44.0134 155.304 43.7837C155.038 43.5539 154.674 43.4391 154.21 43.4391C153.897 43.4391 153.601 43.5054 153.322 43.638C153.044 43.7706 152.841 43.9034 152.712 44.036L152.528 44.235L152.049 43.74C152.068 43.7141 152.098 43.6784 152.138 43.6333C152.18 43.5847 152.269 43.5039 152.406 43.3905C152.544 43.2774 152.689 43.1786 152.844 43.0945C152.999 43.0072 153.201 42.9279 153.444 42.8567C153.691 42.7824 153.946 42.7452 154.21 42.7452C154.883 42.7452 155.419 42.9231 155.821 43.2789C156.221 43.6316 156.421 44.0667 156.421 44.5843C156.421 44.8108 156.381 45.0163 156.3 45.2007C156.221 45.3851 156.126 45.5322 156.014 45.6422C155.904 45.7523 155.793 45.846 155.68 45.9237C155.568 45.9981 155.468 46.0515 155.384 46.0839L155.271 46.1227ZM161.705 47.1661L160.409 43.8855L159.108 47.1661H161.705ZM161.997 47.8649H158.822L158.051 49.8011H157.281L160.071 42.8421H160.743L163.532 49.8011H162.766L161.997 47.8649ZM164.786 49.8011V42.8421H165.509V45.9237H169.257V42.8421H169.98V49.8011H169.257V46.6225H165.509V49.8011H164.786ZM178.49 49.8011H177.771V42.8421H178.49V49.8011ZM174.45 49.8011H171.999V42.8421H172.722V45.4287H174.45C175.074 45.4287 175.59 45.6374 176 46.0548C176.411 46.4721 176.615 46.9929 176.615 47.6174C176.615 48.2386 176.411 48.7577 176 49.175C175.59 49.5925 175.074 49.8011 174.45 49.8011ZM172.722 49.1072H174.45C174.886 49.1072 175.235 48.9712 175.498 48.6995C175.762 48.4277 175.892 48.067 175.892 47.6174C175.892 47.1644 175.762 46.8021 175.498 46.5303C175.238 46.2586 174.889 46.1227 174.45 46.1227H172.722V49.1072ZM180.508 49.8011V42.8421H181.232V49.1072H184.022V42.8421H184.74V49.1072H187.53V42.8421H188.253V49.8011H180.508ZM190.508 42.8421V44.9289H189.882V42.8421H190.508ZM192 42.8421V44.9289H191.376V42.8421H192Z" fill="#040404"/>
</svg>
