<svg width="542" height="146" viewBox="0 0 542 146" fill="none" xmlns="http://www.w3.org/2000/svg">
<path d="M48.9346 8.84863L42.241 24.3221H40.0977L46.7749 8.84863H48.9346Z" fill="white"/>
<path fill-rule="evenodd" clip-rule="evenodd" d="M149.483 57.8918C146.499 54.5665 142.707 52.5111 137.167 51.2413C136.871 51.1743 136.36 51.0575 135.915 50.9404C136.36 50.8068 136.904 50.6398 137.431 50.4561C138.965 49.9212 141.504 49.0356 143.284 47.4816C145.592 45.7439 146.845 42.7359 146.631 39.4609C146.4 35.9515 144.603 32.9105 141.817 31.323C139.871 30.2201 136.97 28.8833 134.216 28.8499C133.5 28.8499 132.714 28.8371 131.873 28.8233C131.36 28.8149 130.826 28.8061 130.276 28.7998H116.559C114.416 28.7998 112.421 28.7998 110.74 28.8332H104.541L105.547 29.3178C107.525 30.2369 108.53 32.0917 108.53 34.8321C108.613 49.6371 108.629 65.7622 108.629 78.1779C108.629 80.9181 108.629 84.0094 105.349 85.781L104.492 86.2485H105.464C105.464 86.2485 109.718 86.282 114.944 86.282C120.582 86.282 127.457 86.2485 131.727 86.0982C135.436 85.9647 139.261 85.2796 142.839 84.1098C147.834 82.4721 151.643 78.3115 153.028 72.9643C154.445 67.5335 153.11 61.8854 149.483 57.875V57.8918ZM114.68 48.4174C114.713 46.6295 114.713 44.7913 114.68 43.0368V38.759C114.68 38.2241 114.682 37.6665 114.683 37.0992V37.0693C114.687 35.8913 114.691 34.6724 114.68 33.5287V32.1585C114.68 31.1893 114.861 30.7215 115.883 30.7215H130.425C135.404 30.7215 139.624 34.5146 140.053 39.3604V39.4609C140.399 43.7885 138.965 47.164 136.145 48.7012C134.447 49.6371 131.166 49.9714 129.386 49.9714H115.867C114.861 49.9714 114.68 49.5203 114.663 48.6346V48.4174H114.68ZM146.878 70.8088C146.318 76.323 145.015 79.9823 139.921 82.5056C139.883 82.5287 139.821 82.5622 139.763 82.5932C139.695 82.6302 139.633 82.6637 139.624 82.6726C137.382 83.5749 131.084 84.327 129.402 84.327H115.702C114.894 84.2768 114.663 83.9261 114.68 82.7897V81.5363C114.713 78.4283 114.713 75.2704 114.68 72.2122V65.0938C114.68 63.9565 114.682 62.8059 114.684 61.6511V61.6465C114.687 59.3251 114.691 56.9866 114.68 54.7004V53.2799C114.68 52.6952 114.762 52.3609 114.96 52.1604C115.142 51.9766 115.438 51.8929 115.883 51.8929H129.221C132.123 51.8929 136.162 52.8288 139.525 54.2991C144.273 56.3545 147.026 61.5514 147.026 68.1684C147.026 69.0205 146.977 69.9065 146.878 70.8088Z" fill="white"/>
<path fill-rule="evenodd" clip-rule="evenodd" d="M57.2746 85.7636L54.9995 86.265H70.6945L69.4418 85.7803C67.1335 84.878 66.062 82.8393 65.2377 80.9848C62.4858 74.7328 58.0053 64.5356 53.9337 55.2688L53.9109 55.2172C49.3077 44.7408 45.2325 35.4664 44.7781 34.4475C43.9206 32.5592 43.0799 30.7044 42.3381 29L42.2719 28.8496H33.3528L33.3198 29.3509C35.4796 29.6851 37.1776 31.6569 37.1776 33.8125V34.0798C37.1776 34.1343 37.1793 34.1924 37.1811 34.2517C37.185 34.3741 37.1889 34.5021 37.1776 34.6145C37.1117 35.2662 36.9963 35.6004 36.7324 36.1685C36.0405 37.7549 35.3446 39.3452 34.6486 40.9356L34.6445 40.9452C33.9488 42.5348 33.2531 44.1244 32.5615 45.7101C29.8577 51.9094 27.055 58.3092 24.2688 64.5922L23.2961 66.7811C22.2245 69.204 21.1364 71.6272 20.0483 74.0334C19.7886 74.6224 19.5289 75.2395 19.2692 75.857C19.1827 76.0628 19.0962 76.2683 19.0096 76.473L18.6964 77.2582C18.4161 77.9433 18.1193 78.6452 17.7731 79.3136L17.7401 79.3806C16.5202 81.9705 14.7231 84.7445 10.7004 85.7636L8.77148 86.265H23.6917L23.7247 85.7636C21.532 85.5133 20.0977 84.8114 19.4548 83.6918C18.9107 82.7393 18.9436 81.4862 19.5701 79.9653L23.6093 70.7915C23.7247 70.5077 23.8401 70.2402 23.972 69.9561C24.0297 69.8393 24.0792 69.7225 24.1264 69.6114C24.1467 69.5637 24.1665 69.5167 24.1864 69.4714C24.285 69.2966 24.3652 69.131 24.4476 68.9608L24.4934 68.8664L24.5326 68.7863L24.5655 68.703C24.7469 68.2853 25.5383 67.8672 26.0658 67.8174C26.3327 67.7853 26.6296 67.7689 26.9136 67.7529L26.9561 67.7504H50.6637C50.9767 67.7504 51.2737 67.7839 51.5539 67.8174C52.0813 67.8672 52.8729 68.2853 53.0542 68.703L53.2027 69.0203C53.4662 69.6053 53.73 70.19 53.9608 70.7915C55.3456 73.8831 56.7967 77.2917 58.5441 81.5193C58.8739 82.355 59.2367 83.4244 59.0056 84.1263C58.7916 84.7779 58.0331 85.5966 57.2746 85.7636ZM51.488 65.6281C51.4054 65.7452 51.2573 65.8289 51.1088 65.8289H26.4944C26.3461 65.8289 26.2142 65.762 26.1318 65.6281C26.0493 65.4945 26.0328 65.3443 26.0988 65.1936L38.447 37.2215C38.5297 37.0541 38.6778 36.954 38.8594 36.954C39.0407 36.954 39.1891 37.0374 39.255 37.2047L42.7006 45.0748C45.4209 51.308 48.9327 59.312 51.5208 65.2104C51.5703 65.3443 51.5703 65.4945 51.488 65.6281Z" fill="white"/>
<path d="M491.68 35.0501C491.729 35.9192 491.779 66.1472 491.729 78.9471V79.0073C491.712 81.1147 491.694 83.4906 489.749 85.0798C489.436 85.3305 489.076 85.5809 488.646 85.7985L487.723 86.266H502.031L500.945 85.7817C500.468 85.5809 500.037 85.3305 499.674 85.0631C497.979 83.7431 497.747 81.8714 497.666 80.0667C497.648 79.3983 497.616 77.7774 497.598 76.5745V74.6985C497.594 69.8962 497.587 47.8958 497.63 36.1698C497.63 34.0475 497.648 31.6246 499.61 30.0371C499.923 29.7698 500.301 29.5191 500.696 29.3186L501.636 28.834H487.328L488.414 29.3186C488.895 29.5358 489.322 29.7698 489.668 30.0538C491.384 31.3739 491.612 33.3123 491.68 35.0501Z" fill="white"/>
<path d="M532.582 59.9138C532.582 61.5515 531.283 62.8883 529.666 62.8883C528.049 62.8883 526.746 61.5515 526.746 59.9138C526.746 58.2761 528.049 56.9561 529.666 56.9561C531.283 56.9561 532.582 58.2928 532.582 59.9138Z" fill="white"/>
<path d="M532.582 83.308C532.582 84.9418 531.279 86.2657 529.666 86.2657C528.053 86.2657 526.746 84.9418 526.746 83.308C526.746 81.6746 528.053 80.3506 529.666 80.3506C531.279 80.3506 532.582 81.6746 532.582 83.308Z" fill="white"/>
<path fill-rule="evenodd" clip-rule="evenodd" d="M289.045 86.1828C287.578 86.1158 286.144 85.9321 284.709 85.6479C281.197 84.9461 277.933 83.6093 274.916 81.6208C271.899 79.6324 269.36 77.1593 267.415 74.0847C264.991 70.2748 263.738 66.064 263.244 61.6024C263.185 61.0391 263.144 60.4761 263.103 59.9167C263.075 59.5296 263.047 59.1443 263.013 58.7615C263.013 58.6112 262.985 58.4609 262.957 58.3103C262.948 58.2605 262.939 58.2102 262.931 58.16V56.1214C262.939 56.0502 262.949 55.98 262.959 55.9106C262.986 55.7193 263.013 55.532 263.013 55.3362C263.079 53.8488 263.26 52.3784 263.541 50.9081C264.282 47.0647 265.766 43.5223 267.942 40.2971C269.838 37.49 272.163 35.1504 274.982 33.3291C278.856 30.8226 283.16 29.4189 287.71 28.9845C288.386 28.9176 290.809 28.8174 291.353 28.8174C292.036 28.8174 293.245 28.8953 294.064 28.9481L294.37 28.9678C296.068 29.1348 296.959 29.2685 298.574 29.6362C302.745 30.5719 306.504 32.3766 309.818 35.117C313.049 37.8073 315.522 41.0659 317.171 44.9591C318.572 48.2844 319.215 51.7937 319.446 55.3864C319.483 55.9608 319.493 56.5448 319.502 57.1238V57.1345C319.505 57.3264 319.508 57.5183 319.512 57.7089C319.545 59.5805 319.413 61.4518 319.116 63.29C318.556 66.6989 317.435 69.8906 315.72 72.8815C314.269 75.4215 312.489 77.6941 310.313 79.6156C307.642 81.9719 304.592 83.626 301.212 84.6954C299.58 85.2135 297.997 85.6814 296.299 85.8986L296.106 85.9246C295.085 86.0638 293.406 86.2925 289.012 86.1828H289.045ZM313.033 58.0265C313 56.5726 312.934 55.119 312.802 53.665C312.621 51.8603 312.357 50.0723 311.928 48.3179C311.236 45.4103 310.181 42.6531 308.648 40.0799C307.329 37.8575 305.68 35.936 303.603 34.4319C300.536 32.2095 297.09 31.0231 293.348 30.7724C291.864 30.6722 290.364 30.6889 288.864 30.8059C287.149 30.9395 285.467 31.3071 283.835 31.892C280.785 32.9782 278.131 34.716 275.988 37.1891C274.603 38.7766 273.515 40.5478 272.592 42.4526C271.207 45.327 270.382 48.3848 269.921 51.5598C269.69 53.1636 269.558 54.7846 269.492 56.4055C269.393 59.1959 269.558 61.9532 270.053 64.7105C270.63 67.8687 271.635 70.893 273.119 73.7336C274.059 75.555 275.196 77.2262 276.631 78.6798C280.208 82.2892 284.594 84.0437 289.589 84.3111C290.013 84.3304 290.443 84.3275 290.871 84.3247C291.193 84.3229 291.514 84.3207 291.831 84.3279C293.348 84.3279 294.865 84.1776 296.349 83.86C299.118 83.2418 301.641 82.1055 303.899 80.3677C305.713 78.9807 307.18 77.2597 308.417 75.3378C310.906 71.4279 312.258 67.1166 312.786 62.5215C312.951 61.0341 313.016 59.5638 312.983 58.06L313.033 58.0265Z" fill="white"/>
<path fill-rule="evenodd" clip-rule="evenodd" d="M385.724 29.0179C389.943 29.586 393.686 31.4241 396.52 34.2982H396.538C398.764 36.5542 400.017 40.1134 400.017 43.7894C400.017 44.8922 399.9 45.9954 399.668 47.0815C398.646 51.8938 395.598 55.4697 391.079 57.1907C388.309 58.2437 384.979 58.9289 381.468 59.1628H381.336C381.287 59.1795 381.237 59.1795 381.187 59.1795C380.991 59.2127 380.742 59.2127 380.528 59.2127C376.052 59.4676 371.469 59.4342 367.011 59.4014L366.352 59.3968H364.867C363.959 59.3968 363.745 59.7643 363.681 60.4326V60.4829C363.695 61.7976 363.71 63.1746 363.724 64.5908V64.6058V64.6122V64.6175C363.735 65.8386 363.745 67.0888 363.763 68.3533C363.795 72.4972 363.845 76.775 363.909 80.5012C363.959 82.3896 364.372 84.4949 367.142 85.7818L368.179 86.2661H353.854L354.711 85.7982C357.809 84.0772 357.845 81.4203 357.845 78.6132V38.7933C357.841 38.6096 357.838 38.4248 357.838 38.2396C357.823 36.9762 357.813 35.6832 357.713 34.4152C357.496 31.8753 356.492 30.1542 354.711 29.3187L353.689 28.8341H360.647C362.773 28.8174 365.148 28.8174 367.769 28.8174H381.386C382.654 28.8174 383.267 28.8174 383.448 28.8341C384.157 28.8508 384.897 28.9176 385.724 29.0179ZM363.646 32.1092V33.5463C363.663 35.2674 363.663 37.0054 363.663 38.7264V46.062C363.663 46.6 363.663 47.1392 363.663 47.6787C363.667 49.2993 363.671 50.9245 363.646 52.5287C363.656 52.8179 363.653 53.107 363.649 53.3962C363.649 53.5411 363.646 53.6875 363.646 53.832V55.9042C363.663 56.8232 363.859 57.2912 364.867 57.2912H377.644C383.413 57.2912 387.949 56.1381 389.776 54.1999C391.161 52.7459 392.183 50.8746 392.81 48.6355C393.291 46.881 393.568 44.9926 393.568 43.0879C393.568 38.8101 392.119 34.5489 388.013 32.1092C386.528 31.2069 384.666 30.739 382.654 30.739H364.849C363.845 30.739 363.663 31.1735 363.646 32.1092Z" fill="white"/>
<path fill-rule="evenodd" clip-rule="evenodd" d="M474.431 68.0022C473.922 65.5961 472.9 63.4905 471.447 61.7862C469.998 60.0652 468.1 58.7448 465.842 57.8926C463.072 56.84 459.742 56.1549 456.214 55.9209C456.182 55.9209 456.149 55.9209 456.117 55.9042H455.968C455.861 55.9042 455.751 55.896 455.637 55.8874C455.526 55.8792 455.416 55.8707 455.309 55.8707C450.609 55.6036 445.794 55.6535 441.147 55.7037H439.73C438.722 55.7037 438.508 55.3362 438.441 54.6678V54.6008C438.476 52.1445 438.508 49.4709 438.526 46.7304C438.54 45.421 438.555 44.0981 438.569 42.7837C438.597 39.9382 438.629 37.1311 438.672 34.5823C438.722 32.6941 439.135 30.5886 441.92 29.302L442.942 28.8174H428.634L429.474 29.2853C432.572 31.0064 432.59 33.6633 432.608 36.4705V36.671C432.64 46.0118 432.64 56.1549 432.622 65.9636V76.2904C432.622 77.7276 432.608 79.2147 432.49 80.6683C432.294 83.2083 431.272 84.9293 429.492 85.7651L428.484 86.2494H435.211C437.355 86.2661 439.926 86.2661 442.547 86.2661H456.164C457.435 86.2661 458.062 86.2661 458.193 86.2494C458.934 86.2494 459.678 86.166 460.501 86.0656C464.739 85.4977 468.463 83.6595 471.301 80.7854C474.136 77.9113 475.439 72.7312 474.431 68.0022ZM457.435 84.3446H439.63C438.622 84.3446 438.441 83.8934 438.426 82.9743V69.0217C438.441 66.8659 438.441 64.6937 438.426 62.5546V59.1795C438.426 58.2605 438.64 57.7925 439.644 57.7925H452.425C458.193 57.7925 462.744 58.9456 464.575 60.8838C465.942 62.3374 466.964 64.2091 467.591 66.4482C468.068 68.2027 468.367 70.1078 468.367 71.9958C468.367 76.2737 466.896 80.5347 462.808 82.9743C461.309 83.8767 459.447 84.3446 457.435 84.3446Z" fill="white"/>
<path d="M232.33 30.4044V30.2874C232.248 28.9339 231.193 28.8838 230.352 28.8838H230.105C227.741 28.8949 225.37 28.8912 223.002 28.8875C221.818 28.8856 220.635 28.8838 219.455 28.8838H197.824C196.643 28.8838 195.461 28.8856 194.277 28.8875C191.909 28.8912 189.538 28.8949 187.174 28.8838H187.014C186.192 28.8836 185.046 28.8833 184.948 30.3041V30.4044C184.932 30.5046 184.932 30.6049 184.948 30.6885C184.998 34.7824 184.998 37.6733 184.998 37.6733L185.031 38.3083L185.476 37.7901L185.506 37.7542C186.481 36.5848 187.253 35.6589 188.509 34.7657C193.785 31.1062 196.753 30.772 204.534 30.7052C205.688 30.7052 205.804 32.4263 205.804 33.1616V34.4482C205.787 41.0321 205.787 47.6156 205.787 54.2162C205.787 62.4374 205.787 70.6754 205.755 78.9134C205.738 81.5364 205.721 84.2441 202.606 85.7811L201.649 86.2657H215.63L214.673 85.7811C211.558 84.2441 211.541 81.5378 211.525 78.9148C211.492 70.6768 211.492 62.4374 211.492 54.2162C211.492 47.6156 211.492 41.0321 211.475 34.4482V33.1616C211.475 32.4263 211.591 30.7052 212.745 30.7052C220.526 30.772 223.494 31.1062 228.769 34.7657C230.012 35.6493 230.781 36.5645 231.787 37.7631L231.853 37.8404L232.281 38.3585V37.6733C232.281 37.6733 232.298 34.7824 232.33 30.7219C232.341 30.6432 232.338 30.5721 232.334 30.5035C232.332 30.47 232.33 30.4372 232.33 30.4044Z" fill="white"/>
</svg>
