<svg width="131" height="50" viewBox="0 0 131 50" fill="none" xmlns="http://www.w3.org/2000/svg">
<path d="M8.24905 13.0736H0C0 12.2764 0.115352 11.5541 0.346054 10.9066C0.576756 10.2532 0.876954 9.71077 1.24667 9.2791C1.6223 8.84759 2.03342 8.45198 2.47708 8.09228C2.92813 7.73259 3.37623 7.40588 3.82136 7.11217C4.26502 6.81247 4.67318 6.51876 5.04289 6.23103C5.41852 5.9433 5.72168 5.6077 5.95239 5.22406C6.18309 4.83444 6.29844 4.41182 6.29844 3.95622C6.29844 3.30281 6.10324 2.78735 5.70986 2.4097C5.3224 2.03205 4.77965 1.84315 4.08016 1.84315C3.74002 1.84315 3.41912 1.90913 3.11891 2.04095C2.82462 2.16693 2.59391 2.31978 2.42532 2.49962C2.26413 2.67349 2.1192 2.85027 1.99202 3.03012C1.87075 3.20997 1.78793 3.36572 1.7406 3.49769L1.67997 3.68644L0.0857717 2.94909C0.109433 2.86531 0.140493 2.75728 0.181901 2.62546C0.227745 2.49364 0.349004 2.25978 0.545691 1.92417C0.746816 1.58841 0.981952 1.29178 1.24667 1.03398C1.51286 0.776176 1.89737 0.539395 2.40018 0.323638C2.903 0.107881 3.46199 0 4.08016 0C5.30021 0 6.29844 0.380569 7.07928 1.14186C7.85863 1.90315 8.24905 2.84121 8.24905 3.95622C8.24905 4.54364 8.1337 5.08917 7.90152 5.59266C7.67082 6.09614 7.37652 6.51876 7.01864 6.8605C6.6652 7.19611 6.25852 7.54383 5.79711 7.90353C5.34015 8.25709 4.89501 8.58088 4.46171 8.8746C4.0284 9.16831 3.601 9.52187 3.17953 9.93558C2.76397 10.3432 2.44307 10.7748 2.21828 11.2303H8.24905V13.0736ZM21.1254 6.44679L25.917 0.17985H27.6073V13.0736H25.6567V3.68644L21.1254 9.57588L16.6016 3.68644V13.0736H14.6525V0.17985H16.334L21.1254 6.44679ZM33.0997 11.2303H40.111V13.0736H31.1506V0.17985H39.9365V2.02299H33.0997V5.43076H38.5168V7.27406H33.0997V11.2303ZM48.2728 0C48.9028 0 49.5062 0.0868567 50.0844 0.260721C50.6612 0.4286 51.1388 0.635305 51.5145 0.881139C51.8945 1.12682 52.2273 1.36959 52.5097 1.60944C52.7937 1.84913 53.0007 2.05599 53.1338 2.22985L53.3246 2.48167L52.0853 3.77637C52.0513 3.72849 51.9995 3.6625 51.93 3.57857C51.8664 3.48864 51.7156 3.32982 51.479 3.10209C51.2424 2.87421 50.988 2.67947 50.7173 2.51758C50.4452 2.3497 50.0903 2.19686 49.6511 2.05906C49.2178 1.91512 48.7579 1.84315 48.2728 1.84315C46.9847 1.84315 45.8933 2.30781 44.9971 3.23682C44.1024 4.16 43.6544 5.28989 43.6544 6.62664C43.6544 7.96338 44.0995 9.09634 44.9883 10.0255C45.8845 10.9545 46.9788 11.4192 48.2728 11.4192C48.7579 11.4192 49.2208 11.3503 49.66 11.2123C50.1036 11.0685 50.4719 10.8976 50.7602 10.6998C51.0545 10.502 51.3119 10.3072 51.5307 10.1154C51.757 9.91763 51.9241 9.74975 52.0336 9.61179L52.1726 9.38713L53.4207 10.6818C53.3734 10.7538 53.3024 10.8497 53.2033 10.9696C53.1116 11.0834 52.9001 11.2872 52.5704 11.5809C52.248 11.8748 51.9004 12.1355 51.5307 12.3632C51.1669 12.591 50.6878 12.7978 50.0933 12.9837C49.5032 13.1635 48.8969 13.2534 48.2728 13.2534C46.4124 13.2534 44.8537 12.612 43.5937 11.3293C42.3352 10.0464 41.7052 8.47899 41.7052 6.62664C41.7052 4.77444 42.3352 3.2069 43.5937 1.92417C44.8537 0.641288 46.4124 0 48.2728 0ZM54.4781 0.17985H63.8792V2.02299H60.1525V13.0736H58.2033V2.02299H54.4781V0.17985ZM67.8824 3.23682C66.9922 4.16 66.5485 5.28989 66.5485 6.62664C66.5485 7.96338 66.9922 9.09634 67.8824 10.0255C68.7771 10.9545 69.87 11.4192 71.1581 11.4192C72.4521 11.4192 73.5435 10.9545 74.4338 10.0255C75.3285 9.09634 75.7766 7.96338 75.7766 6.62664C75.7766 5.28989 75.3285 4.16 74.4338 3.23682C73.5435 2.30781 72.4521 1.84315 71.1581 1.84315C69.87 1.84315 68.7771 2.30781 67.8824 3.23682ZM66.4879 11.3293C65.2279 10.0464 64.5979 8.47899 64.5979 6.62664C64.5979 4.77444 65.2279 3.2069 66.4879 1.92417C67.7464 0.641288 69.3036 0 71.1581 0C73.0185 0 74.5772 0.641288 75.8372 1.92417C77.0957 3.2069 77.7257 4.77444 77.7257 6.62664C77.7257 8.47899 77.0957 10.0464 75.8372 11.3293C74.5772 12.612 73.0185 13.2534 71.1581 13.2534C69.3036 13.2534 67.7464 12.612 66.4879 11.3293ZM3.99438 21.6155C4.02544 21.6284 4.06389 21.6462 4.11122 21.6689C4.15854 21.6916 4.2458 21.7531 4.37298 21.8536C4.50164 21.9542 4.61403 22.0643 4.71015 22.1843C4.80776 22.3043 4.89501 22.4713 4.97339 22.6852C5.05473 22.8959 5.09466 23.1196 5.09466 23.3563C5.09466 23.9333 4.90388 24.4099 4.52382 24.7859C4.14227 25.162 3.64537 25.35 3.03313 25.35H0.295767V18.3768H2.8882C3.43094 18.3768 3.87756 18.5502 4.22805 18.8972C4.5815 19.2408 4.75747 19.6655 4.75747 20.1712C4.75747 20.3754 4.73234 20.5651 4.68206 20.7402C4.63326 20.9119 4.56818 21.0497 4.49128 21.1534C4.4129 21.2572 4.33452 21.3463 4.25614 21.4209C4.18072 21.4923 4.11861 21.5409 4.06833 21.5668L3.99438 21.6155ZM1.01745 24.6547H3.03313C3.43685 24.6547 3.75925 24.533 4.00326 24.2899C4.25023 24.0468 4.37298 23.7356 4.37298 23.3563C4.37298 22.9705 4.24875 22.643 3.99882 22.374C3.75185 22.1016 3.42946 21.9655 3.03313 21.9655H1.01745V24.6547ZM2.8882 19.077H1.01745V21.309H2.8882C3.24756 21.309 3.52854 21.2085 3.73115 21.0076C3.93819 20.8034 4.04023 20.5246 4.04023 20.1712C4.04023 19.8471 3.93819 19.5844 3.73115 19.3835C3.52854 19.1792 3.24756 19.077 2.8882 19.077ZM7.73884 18.3768H12.6827V19.077H10.5679V25.35H9.85213V19.077H7.73884V18.3768ZM16.9418 22.7095L15.6478 19.4223L14.3508 22.7095H16.9418ZM17.2331 23.4097H14.0639L13.2964 25.35H12.5274L15.3106 18.3768H15.9805L18.7652 25.35H18.0006L17.2331 23.4097ZM18.6188 18.3768H23.5641V19.077H21.4493V25.35H20.7336V19.077H18.6188V18.3768ZM27.8232 22.7095L26.5292 19.4223L25.2322 22.7095H27.8232ZM28.1131 23.4097H24.9453L24.1778 25.35H23.4088L26.192 18.3768H26.8619L29.6466 25.35H28.882L28.1131 23.4097ZM30.8977 18.3768H33.4414C34.064 18.3768 34.5786 18.586 34.9883 19.0041C35.3979 19.4223 35.602 19.9442 35.602 20.57C35.602 21.1924 35.3964 21.7143 34.9838 22.1357C34.5742 22.5539 34.061 22.763 33.4414 22.763H31.6194V25.35H30.8977V18.3768ZM33.4414 19.077H31.6194V22.0628H33.4414C33.8761 22.0628 34.2252 21.9267 34.4869 21.6543C34.7502 21.3821 34.8803 21.0205 34.8803 20.57C34.8803 20.1193 34.7502 19.7579 34.4869 19.4855C34.2252 19.2133 33.8761 19.077 33.4414 19.077ZM37.7153 24.4018C37.0439 23.7048 36.7082 22.8586 36.7082 21.8635C36.7082 20.8682 37.0439 20.022 37.7153 19.325C38.3881 18.6282 39.203 18.2797 40.1613 18.2797C40.5029 18.2797 40.8297 18.3299 41.1418 18.4304C41.4538 18.5277 41.7111 18.646 41.9152 18.7853C42.1208 18.9247 42.3012 19.0657 42.4535 19.2084C42.6103 19.3509 42.7227 19.4726 42.7907 19.5732L42.8987 19.7238L42.4165 20.1712C42.3973 20.1388 42.3692 20.0966 42.3322 20.0447C42.2938 19.9896 42.2065 19.894 42.069 19.7579C41.9315 19.6216 41.7821 19.5018 41.6194 19.3981C41.4597 19.2911 41.2497 19.1938 40.9865 19.1062C40.7247 19.0187 40.4497 18.975 40.1613 18.975C39.3937 18.975 38.7445 19.2521 38.2166 19.8066C37.6886 20.3608 37.4254 21.0465 37.4254 21.8635C37.4254 22.6803 37.6886 23.3659 38.2166 23.9204C38.7445 24.4747 39.3937 24.7518 40.1613 24.7518C40.4497 24.7518 40.7247 24.7113 40.9865 24.6302C41.2497 24.546 41.4656 24.4455 41.6387 24.3289C41.8132 24.2121 41.9655 24.097 42.0971 23.9836C42.2287 23.8668 42.3219 23.7648 42.3781 23.6771L42.4683 23.5556L42.946 24.0078C42.9208 24.0468 42.8809 24.0987 42.8291 24.1634C42.7788 24.225 42.665 24.3385 42.486 24.5038C42.3115 24.6692 42.1252 24.8167 41.9285 24.9464C41.7318 25.076 41.473 25.1927 41.1506 25.2964C40.8327 25.3969 40.5029 25.4472 40.1613 25.4472C39.203 25.4472 38.3881 25.0987 37.7153 24.4018ZM43.5686 18.3768H48.5124V19.077H46.3991V25.35H45.6818V19.077H43.5686V18.3768ZM52.773 22.7095L51.479 19.4223L50.1805 22.7095H52.773ZM53.0628 23.4097H49.8951L49.1261 25.35H48.3586L51.1418 18.3768H51.8117L54.5949 25.35H53.8318L53.0628 23.4097ZM55.846 25.35V18.3768H56.5677V21.4646H60.3077V18.3768H61.0294V25.35H60.3077V22.1648H56.5677V25.35H55.846ZM63.7668 24.6547H67.7494V25.35H63.0451V18.3768H67.6517V19.077H63.7668V21.3673H66.8827V22.0628H63.7668V24.6547ZM76.1936 18.3768V25.35H75.4719V19.077H71.7334V25.35H71.0117V18.3768H76.1936ZM79.2874 19.8066C78.7594 20.3608 78.4947 21.0465 78.4947 21.8635C78.4947 22.6803 78.7594 23.3659 79.2874 23.9204C79.8153 24.4747 80.4631 24.7518 81.2321 24.7518C82.0011 24.7518 82.6488 24.4747 83.1768 23.9204C83.7047 23.3659 83.9694 22.6803 83.9694 21.8635C83.9694 21.0465 83.7047 20.3608 83.1768 19.8066C82.6488 19.2521 82.0011 18.975 81.2321 18.975C80.4631 18.975 79.8153 19.2521 79.2874 19.8066ZM83.6781 19.325C84.3495 20.022 84.6852 20.8682 84.6852 21.8635C84.6852 22.8586 84.3495 23.7048 83.6781 24.4018C83.0067 25.0987 82.1904 25.4472 81.2321 25.4472C80.2723 25.4472 79.4574 25.0987 78.786 24.4018C78.1146 23.7048 77.7789 22.8586 77.7789 21.8635C77.7789 20.8682 78.1146 20.022 78.786 19.325C79.4574 18.6282 80.2723 18.2797 81.2321 18.2797C82.1904 18.2797 83.0067 18.6282 83.6781 19.325ZM5.47915 30.6532V37.6263H4.75747V31.3534H1.01745V37.6263H0.295767V30.6532H5.47915ZM8.57292 32.0829C8.04497 32.6372 7.78025 33.3228 7.78025 34.1398C7.78025 34.9567 8.04497 35.6423 8.57292 36.1967C9.10087 36.751 9.74862 37.0282 10.5176 37.0282C11.2851 37.0282 11.9344 36.751 12.4623 36.1967C12.9903 35.6423 13.2535 34.9567 13.2535 34.1398C13.2535 33.3228 12.9903 32.6372 12.4623 32.0829C11.9344 31.5285 11.2851 31.2514 10.5176 31.2514C9.74862 31.2514 9.10087 31.5285 8.57292 32.0829ZM12.9636 31.6014C13.635 32.2984 13.9707 33.1445 13.9707 34.1398C13.9707 35.135 13.635 35.9811 12.9636 36.6781C12.2922 37.3751 11.4759 37.7236 10.5176 37.7236C9.55784 37.7236 8.743 37.3751 8.07012 36.6781C7.39872 35.9811 7.06302 35.135 7.06302 34.1398C7.06302 33.1445 7.39872 32.2984 8.07012 31.6014C8.743 30.9046 9.55784 30.5561 10.5176 30.5561C11.4759 30.5561 12.2922 30.9046 12.9636 31.6014ZM14.3553 30.6532H19.2991V31.3534H17.1858V37.6263H16.4685V31.3534H14.3553V30.6532ZM20.494 30.6532H23.0391C23.6602 30.6532 24.1763 30.8624 24.5845 31.2805C24.9941 31.6987 25.1982 32.2206 25.1982 32.8464C25.1982 33.4688 24.9927 33.9907 24.5801 34.4121C24.1704 34.8302 23.6573 35.0394 23.0391 35.0394H21.2157V37.6263H20.494V30.6532ZM23.0391 31.3534H21.2157V34.3392H23.0391C23.4724 34.3392 23.8214 34.2031 24.0832 33.9307C24.3464 33.6585 24.4765 33.2969 24.4765 32.8464C24.4765 32.3957 24.3464 32.0343 24.0832 31.7619C23.8214 31.4897 23.4724 31.3534 23.0391 31.3534ZM27.4579 36.931H31.4405V37.6263H26.7362V30.6532H31.3429V31.3534H27.4579V33.6437H30.5739V34.3392H27.4579V36.931ZM33.5966 31.3534V33.4444H35.4659C36.0604 33.4444 36.5603 33.6486 36.9655 34.0571C37.3751 34.4656 37.5792 34.9584 37.5792 35.5354C37.5792 36.1123 37.3751 36.6052 36.9655 37.0136C36.5603 37.4221 36.0604 37.6263 35.4659 37.6263H32.875V30.6532H37.0498V31.3534H33.5966ZM33.5966 36.931H35.4659C35.8697 36.931 36.2024 36.798 36.4641 36.5322C36.7274 36.2664 36.8575 35.9342 36.8575 35.5354C36.8575 35.1367 36.7274 34.8043 36.4641 34.5385C36.2024 34.2727 35.8697 34.1398 35.4659 34.1398H33.5966V36.931ZM44.6333 37.6263H43.9161V32.0002L39.7871 37.6263H39.1645V30.6532H39.8862V36.2842L44.0093 30.6532H44.6333V37.6263ZM45.8371 30.6532H50.781V31.3534H48.6677V37.6263H47.9504V31.3534H45.8371V30.6532ZM52.6975 36.931H56.6816V37.6263H51.9759V30.6532H56.5825V31.3534H52.6975V33.6437H55.8135V34.3392H52.6975V36.931ZM63.1531 30.6532V37.6263H62.4358V31.3534H59.5535V32.7442C59.5535 33.7719 59.5121 34.6244 59.4263 35.3019C59.3465 35.9762 59.2178 36.4868 59.0433 36.8337C58.8703 37.1773 58.6795 37.4124 58.4666 37.5389C58.2566 37.6619 57.9963 37.7236 57.6843 37.7236C57.5807 37.7236 57.4772 37.7155 57.3752 37.6992C57.2746 37.6831 57.1977 37.6653 57.1445 37.6458L57.0602 37.6263V36.8775C57.2509 36.9424 57.4255 36.9763 57.5852 36.9795C57.7819 36.9795 57.949 36.9293 58.0865 36.8288C58.227 36.7283 58.3586 36.5354 58.4799 36.2501C58.6026 35.9649 58.6913 35.5321 58.7475 34.9519C58.8067 34.3716 58.8363 33.6357 58.8363 32.7442V30.6532H63.1531ZM67.7168 37.6263H65.1717V30.6532H65.8934V33.245H67.7168C68.3379 33.245 68.854 33.4542 69.2637 33.8724C69.6733 34.2905 69.8774 34.8124 69.8774 35.4381C69.8774 36.0605 69.6733 36.5808 69.2637 36.999C68.854 37.4172 68.3379 37.6263 67.7168 37.6263ZM65.8934 36.931H67.7168C68.1516 36.931 68.4991 36.7948 68.7624 36.5225C69.0241 36.2502 69.1557 35.8888 69.1557 35.4381C69.1557 34.9843 69.0241 34.6212 68.7624 34.3488C68.4991 34.0766 68.1516 33.9403 67.7168 33.9403H65.8934V36.931ZM72.038 36.6781C71.3666 35.9811 71.0294 35.135 71.0294 34.1398C71.0294 33.1445 71.3666 32.2984 72.038 31.6014C72.7094 30.9046 73.5243 30.5561 74.4841 30.5561C74.8242 30.5561 75.151 30.6062 75.463 30.7067C75.7751 30.804 76.0339 30.9224 76.2365 31.0617C76.4421 31.201 76.6225 31.3421 76.7748 31.4848C76.9316 31.6273 77.044 31.749 77.1135 31.8495L77.2199 32.0002L76.7378 32.4475C76.7186 32.4152 76.6905 32.373 76.6535 32.3211C76.6166 32.266 76.5293 32.1704 76.3918 32.0343C76.2542 31.898 76.1034 31.7782 75.9407 31.6744C75.7825 31.5675 75.571 31.4702 75.3093 31.3826C75.046 31.2951 74.771 31.2514 74.4841 31.2514C73.7151 31.2514 73.0673 31.5285 72.5394 32.0829C72.0114 32.6372 71.7467 33.3228 71.7467 34.1398C71.7467 34.9567 72.0114 35.6423 72.5394 36.1967C73.0673 36.751 73.7151 37.0282 74.4841 37.0282C74.771 37.0282 75.046 36.9877 75.3093 36.9066C75.571 36.8224 75.7884 36.7219 75.9599 36.6052C76.1344 36.4885 76.2883 36.3734 76.4199 36.26C76.55 36.1432 76.6447 36.0411 76.7009 35.9535L76.7896 35.832L77.2673 36.2842C77.2421 36.3232 77.2037 36.3751 77.1504 36.4398C77.1001 36.5014 76.9863 36.6149 76.8088 36.7802C76.6328 36.9456 76.448 37.0931 76.2498 37.2227C76.0531 37.3524 75.7943 37.469 75.4719 37.5728C75.154 37.6733 74.8242 37.7236 74.4841 37.7236C73.5243 37.7236 72.7094 37.3751 72.038 36.6781ZM79.4279 34.5872L82.881 30.6532H83.7905L81.2513 33.5417L84.0345 37.6263H83.1679L80.7677 34.0912L79.4279 35.584V37.6263H78.7062V30.6532H79.4279V34.5872ZM90.605 37.6263H89.8878V32.0002L85.7588 37.6263H85.1362V30.6532H85.8579V36.2842L89.981 30.6532H90.605V37.6263ZM98.721 31.9516L96.031 35.6327L93.3454 31.9516V37.6263H92.6237V30.6532H93.2478L96.031 34.4412L98.8142 30.6532H99.4383V37.6263H98.721V31.9516ZM1.01745 46.8635L4.47205 42.9296H5.38156L2.84088 45.8181L5.62409 49.9027H4.75747L2.35878 46.3676L1.01745 47.8604V49.9027H0.295767V42.9296H1.01745V46.8635ZM10.3712 47.2622L9.0787 43.9751L7.78025 47.2622H10.3712ZM10.6625 47.9624H7.49484L6.72583 49.9027H5.95683L8.74151 42.9296H9.41144L12.1946 49.9027H11.4315L10.6625 47.9624ZM13.3008 42.9296V45.0205C13.3008 45.5782 13.4472 46.0093 13.7415 46.314C14.0373 46.6156 14.4514 46.7662 14.9823 46.7662C15.1893 46.7662 15.389 46.742 15.5827 46.6934C15.7764 46.6415 15.9391 46.5798 16.0707 46.5086C16.2009 46.434 16.3147 46.3594 16.4123 46.2849C16.5129 46.2071 16.5883 46.1455 16.6416 46.1001L16.7081 46.0174V42.9296H17.4298V49.9027H16.7081V46.8635C16.6578 46.909 16.5809 46.9656 16.4774 47.0337C16.3754 47.1019 16.1654 47.191 15.8504 47.3012C15.5339 47.4081 15.213 47.4617 14.8847 47.4617C14.1748 47.4617 13.6143 47.2444 13.2017 46.81C12.7891 46.3757 12.5836 45.7792 12.5836 45.0205V42.9296H13.3008ZM20.1657 49.2074H24.1497V49.9027H19.444V42.9296H24.0506V43.6298H20.1657V45.9201H23.2816V46.6156H20.1657V49.2074ZM25.9628 48.9545C25.2914 48.2575 24.9557 47.4114 24.9557 46.4162C24.9557 45.4209 25.2914 44.5748 25.9628 43.8778C26.6342 43.1809 27.4505 42.8324 28.4088 42.8324C28.749 42.8324 29.0758 42.8826 29.3878 42.9831C29.7013 43.0804 29.9587 43.1987 30.1613 43.3381C30.3683 43.4774 30.5472 43.6184 30.7011 43.7611C30.8563 43.9037 30.9687 44.0254 31.0382 44.1259L31.1462 44.2766L30.6626 44.7239C30.6449 44.6915 30.6167 44.6493 30.5783 44.5975C30.5413 44.5424 30.4541 44.4468 30.3165 44.3107C30.179 44.1744 30.0282 44.0545 29.867 43.9508C29.7072 43.8439 29.4958 43.7466 29.234 43.6589C28.9708 43.5715 28.6957 43.5277 28.4088 43.5277C27.6398 43.5277 26.9921 43.8049 26.4641 44.3593C25.9362 44.9136 25.6729 45.5992 25.6729 46.4162C25.6729 47.2331 25.9362 47.9187 26.4641 48.4731C26.9921 49.0274 27.6398 49.3045 28.4088 49.3045C28.6957 49.3045 28.9708 49.264 29.234 49.183C29.4958 49.0988 29.7132 48.9982 29.8847 48.8816C30.0607 48.7648 30.213 48.6498 30.3447 48.5363C30.4763 48.4196 30.5694 48.3175 30.6256 48.2299L30.7144 48.1084L31.192 48.5606C31.1669 48.5996 31.1284 48.6514 31.0752 48.7162C31.0249 48.7777 30.911 48.8913 30.7336 49.0566C30.5591 49.222 30.3727 49.3695 30.176 49.4991C29.9794 49.6288 29.7191 49.7454 29.3982 49.8492C29.0787 49.9497 28.749 50 28.4088 50C27.4505 50 26.6342 49.6515 25.9628 48.9545ZM31.8161 42.9296H36.7599V43.6298H34.6466V49.9027H33.9294V43.6298H31.8161V42.9296ZM41.652 46.1682C41.683 46.1811 41.723 46.1989 41.7688 46.2216C41.8161 46.2443 41.9034 46.3059 42.032 46.4064C42.1592 46.5069 42.2731 46.6171 42.3692 46.7371C42.4653 46.8571 42.5541 47.0241 42.631 47.238C42.7123 47.4487 42.7537 47.6724 42.7537 47.909C42.7537 48.486 42.563 48.9626 42.1814 49.3386C41.8013 49.7147 41.3044 49.9027 40.6922 49.9027H37.9548V42.9296H40.5458C41.09 42.9296 41.5366 43.103 41.8871 43.4499C42.2391 43.7935 42.4165 44.2183 42.4165 44.7239C42.4165 44.9282 42.3914 45.1178 42.3411 45.2929C42.2908 45.4646 42.2272 45.6024 42.1489 45.7062C42.0705 45.8099 41.9921 45.8991 41.9152 45.9737C41.8398 46.045 41.7777 46.0937 41.7274 46.1196L41.652 46.1682ZM38.6765 49.2074H40.6922C41.0944 49.2074 41.4183 49.0857 41.6623 48.8426C41.9078 48.5996 42.032 48.2884 42.032 47.909C42.032 47.5232 41.9063 47.1958 41.6564 46.9268C41.4094 46.6544 41.0885 46.5183 40.6922 46.5183H38.6765V49.2074ZM40.5458 43.6298H38.6765V45.8618H40.5458C40.9052 45.8618 41.1861 45.7613 41.3902 45.5604C41.5958 45.3562 41.6993 45.0773 41.6993 44.7239C41.6993 44.3998 41.5958 44.1371 41.3902 43.9362C41.1861 43.732 40.9052 43.6298 40.5458 43.6298ZM47.8336 47.2622L46.5396 43.9751L45.2412 47.2622H47.8336ZM48.1234 47.9624H44.9557L44.1867 49.9027H43.4192L46.2024 42.9296H46.8723L49.6555 49.9027H48.8924L48.1234 47.9624ZM57.004 44.228L54.3139 47.909L51.6298 44.228V49.9027H50.9081V42.9296H51.5307L54.3139 46.7176L57.0986 42.9296H57.7212V49.9027H57.004V44.228ZM61.5633 42.9296H64.1084C64.7295 42.9296 65.2456 43.1387 65.6553 43.5569C66.0649 43.9751 66.269 44.497 66.269 45.1228C66.269 45.7452 66.062 46.2671 65.6508 46.6884C65.2412 47.1066 64.7266 47.3158 64.1084 47.3158H62.285V49.9027H61.5633V42.9296ZM64.1084 43.6298H62.285V46.6156H64.1084C64.5432 46.6156 64.8907 46.4794 65.154 46.2071C65.4157 45.9348 65.5473 45.5733 65.5473 45.1228C65.5473 44.6721 65.4157 44.3107 65.154 44.0383C64.8907 43.7661 64.5432 43.6298 64.1084 43.6298ZM68.5272 49.2074H72.5112V49.9027H67.8055V42.9296H72.4122V43.6298H68.5272V45.9201H71.6446V46.6156H68.5272V49.2074ZM77.6148 41.6119C77.3767 41.8614 77.0661 41.9863 76.6816 41.9863C76.2971 41.9863 75.9851 41.8614 75.744 41.6119C75.5045 41.3622 75.3832 41.0381 75.3832 40.6393H75.9126C75.9126 40.8662 75.9866 41.0559 76.133 41.2083C76.2809 41.3607 76.4613 41.4368 76.6772 41.4368C76.8961 41.4368 77.078 41.3607 77.2258 41.2083C77.3752 41.0559 77.4506 40.8662 77.4506 40.6393H77.9756C77.9756 41.0381 77.8544 41.3622 77.6148 41.6119ZM79.4131 49.9027H78.6973V44.2766L74.5683 49.9027H73.9443V42.9296H74.6659V48.5606L78.7905 42.9296H79.4131V49.9027ZM80.6183 42.9296H85.5622V43.6298H83.4489V49.9027H82.7316V43.6298H80.6183V42.9296ZM92.2259 49.9027H91.5086V44.2766L87.3797 49.9027H86.7571V42.9296H87.4787V48.5606L91.6033 42.9296H92.2259V49.9027ZM94.246 49.9027V42.9296H94.9677V46.0174H98.7062V42.9296H99.4279V49.9027H98.7062V46.7176H94.9677V49.9027H94.246ZM101.444 49.9027V42.9296H105.618V43.6298H102.165V49.9027H101.444ZM109.784 47.2622L108.492 43.9751L107.193 47.2622H109.784ZM110.076 47.9624H106.908L106.139 49.9027H105.37L108.155 42.9296H108.825L111.608 49.9027H110.845L110.076 47.9624ZM115.408 49.2074H119.392V49.9027H114.687V42.9296H119.293V43.6298H115.408V45.9201H118.524V46.6156H115.408V49.2074ZM120.825 42.9296H123.371C123.992 42.9296 124.508 43.1387 124.917 43.5569C125.326 43.9751 125.531 44.497 125.531 45.1228C125.531 45.7452 125.324 46.2671 124.912 46.6884C124.503 47.1066 123.989 47.3158 123.371 47.3158H121.547V49.9027H120.825V42.9296ZM123.371 43.6298H121.547V46.6156H123.371C123.804 46.6156 124.153 46.4794 124.416 46.2071C124.678 45.9348 124.81 45.5733 124.81 45.1228C124.81 44.6721 124.678 44.3107 124.416 44.0383C124.153 43.7661 123.804 43.6298 123.371 43.6298ZM129.608 46.2167C129.645 46.2233 129.694 46.2394 129.753 46.2654C129.815 46.2881 129.926 46.3449 130.086 46.4356C130.244 46.5232 130.388 46.6269 130.512 46.7468C130.638 46.8668 130.75 47.0354 130.849 47.2525C130.95 47.4665 131 47.7031 131 47.9624C131 48.5072 130.769 48.9837 130.311 49.3922C129.854 49.7973 129.267 50 128.548 50C128.255 50 127.971 49.9627 127.696 49.8881C127.421 49.8103 127.193 49.7195 127.012 49.6157C126.834 49.5088 126.676 49.4018 126.538 49.2949C126.401 49.1879 126.305 49.0988 126.248 49.0274L126.149 48.9059L126.631 48.4099C126.651 48.4358 126.677 48.4699 126.711 48.5119C126.75 48.5509 126.827 48.6221 126.946 48.7259C127.068 48.8264 127.198 48.9172 127.335 48.9982C127.473 49.076 127.652 49.1474 127.874 49.2122C128.096 49.2739 128.32 49.3045 128.548 49.3045C129.08 49.3045 129.5 49.1716 129.81 48.9059C130.122 48.6401 130.278 48.3255 130.278 47.9624C130.278 47.5702 130.122 47.2395 129.81 46.9705C129.5 46.7015 129.08 46.5669 128.548 46.5669H127.785V45.8716H128.548C129.008 45.8716 129.37 45.7597 129.636 45.536C129.904 45.3123 130.039 45.0416 130.039 44.7239C130.039 44.3868 129.906 44.1032 129.641 43.873C129.375 43.6428 129.011 43.5277 128.548 43.5277C128.236 43.5277 127.94 43.5942 127.662 43.7271C127.384 43.86 127.182 43.9929 127.054 44.1259L126.871 44.3252L126.393 43.8293C126.411 43.8033 126.441 43.7676 126.482 43.7222C126.522 43.6737 126.612 43.5925 126.75 43.4791C126.887 43.3657 127.032 43.2667 127.185 43.1825C127.341 43.095 127.541 43.0155 127.785 42.9442C128.032 42.8696 128.286 42.8324 128.548 42.8324C129.221 42.8324 129.756 43.0106 130.156 43.3672C130.556 43.7206 130.756 44.1566 130.756 44.6753C130.756 44.9022 130.715 45.1082 130.635 45.2929C130.556 45.4777 130.46 45.6252 130.348 45.7353C130.238 45.8457 130.127 45.9396 130.015 46.0174C129.903 46.092 129.805 46.1455 129.721 46.1779L129.608 46.2167Z" fill="#040404"/>
</svg>
