<svg width="62" height="100" viewBox="0 0 62 100" fill="none" xmlns="http://www.w3.org/2000/svg">
<mask id="mask0_441_151" style="mask-type:luminance" maskUnits="userSpaceOnUse" x="0" y="0" width="62" height="100">
<path d="M61.0741 0H0V100H61.0741V0Z" fill="white"/>
</mask>
<g mask="url(#mask0_441_151)">
<path d="M15.6427 0C19.4941 2.79355 23.2718 5.46505 26.3379 9.04268C28.5802 11.6601 29.6874 14.7307 29.7066 18.1934C29.7494 26.6045 29.742 35.0158 29.745 43.427C29.745 55.4815 29.7317 67.5337 29.7376 79.5883C29.7376 80.0859 29.6372 80.2431 29.1235 80.2409C24.8144 80.2174 20.5038 80.2197 16.1948 80.2409C15.7386 80.2409 15.6309 80.1211 15.6309 79.654C15.6427 53.3123 15.6427 26.9708 15.6397 0.626784C15.6397 0.460124 15.6397 0.295792 15.6397 0.00470245L15.6427 0Z" fill="#040404"/>
<path d="M0.0443073 18.9609C0.478316 19.2708 0.844396 19.5313 1.21197 19.7919C4.02122 21.8061 6.77881 23.8837 9.23376 26.3556C11.4038 28.5364 13.1502 30.9873 13.7407 34.1494C13.9961 35.518 14.1053 36.9008 14.1053 38.2881C14.1186 48.7628 14.1141 59.2375 14.1112 69.7121C14.1112 73.0339 14.0817 76.3557 14.089 79.6774C14.089 80.1257 13.968 80.2361 13.5429 80.2361C9.19834 80.2196 4.85235 80.2196 0.507833 80.2361C0.0841584 80.2361 0 80.1047 0 79.6963C0.0103335 59.6296 0.0103391 39.5604 0.0103391 19.4937C0.0103391 19.3507 0.0280689 19.2075 0.0443073 18.9609Z" fill="#040404"/>
<path d="M31.2438 40.5532C35.1897 43.4195 39.0618 46.1239 42.1427 49.8211C43.0845 50.9504 43.8654 52.1875 44.419 53.5703C44.5091 53.7979 44.5785 53.9294 44.8781 53.8918C51.9787 53.0067 58.5642 57.4577 60.8169 64.9862C60.901 65.2656 60.9719 65.5497 61.0723 65.9159C59.2595 65.3336 57.4836 65.1575 55.6826 65.2679C53.1907 65.4229 50.786 65.9229 48.6499 67.3642C46.5197 68.8033 45.4804 70.8574 45.4627 73.4702C45.4465 75.6299 45.4346 77.7873 45.4464 79.947C45.4494 80.3626 45.3461 80.4846 44.9327 80.4846C40.5321 80.4682 36.13 80.4682 31.7309 80.4846C31.3013 80.4846 31.2305 80.339 31.2305 79.9377C31.2393 67.0028 31.2379 54.0655 31.2379 41.1306V40.5508L31.2438 40.5532Z" fill="#040404"/>
<path d="M18.178 86.6583H17.434V88.5903H16.3652V83.7944H17.434V85.7335H18.2046L19.4269 83.7944H20.5606L19.0401 86.1113L20.6064 88.5928H19.3856L18.178 86.6607V86.6583Z" fill="#040404"/>
<path d="M24.1635 87.5667H22.0068L21.5949 88.5949H20.4922L22.5633 83.7988H23.6247L25.7032 88.5949H24.5754L24.1635 87.5667ZM23.8255 86.7239L23.0889 84.8882L22.3522 86.7239H23.8255Z" fill="#040404"/>
<path d="M29.5973 86.539C29.7494 86.7432 29.8276 86.9779 29.8276 87.2479C29.8276 87.5413 29.7346 87.7948 29.5471 88.0085C29.3611 88.2245 29.1117 88.3888 28.7957 88.5014C28.4784 88.6165 28.1329 88.6728 27.7565 88.6728C27.4376 88.6728 27.1187 88.6305 26.8028 88.5485C26.4869 88.4663 26.1873 88.3395 25.9023 88.1704L26.2345 87.3746C26.4397 87.5014 26.6626 87.6 26.9076 87.6658C27.1527 87.7315 27.3948 87.7644 27.6281 87.7644C27.9469 87.7644 28.2112 87.7057 28.4223 87.5859C28.6319 87.4663 28.7382 87.2995 28.7382 87.0859C28.7382 86.9074 28.6658 86.7737 28.5226 86.6822C28.3794 86.5906 28.1831 86.546 27.9351 86.546H26.8014V85.7102H27.8554C28.0724 85.7102 28.2422 85.6656 28.3632 85.5741C28.4857 85.4825 28.5448 85.3582 28.5448 85.1961C28.5448 85.0083 28.4592 84.8628 28.2835 84.7572C28.1078 84.6516 27.8834 84.5998 27.6103 84.5998C27.4051 84.5998 27.197 84.628 26.98 84.6867C26.7644 84.7455 26.5578 84.8299 26.3644 84.9425L26.0396 84.0787C26.5297 83.8182 27.0626 83.689 27.6325 83.689C27.9971 83.689 28.3307 83.743 28.6363 83.8533C28.9404 83.9637 29.184 84.1233 29.3656 84.3323C29.5471 84.5435 29.6387 84.7876 29.6387 85.0647C29.6387 85.2924 29.5796 85.4966 29.4586 85.675C29.339 85.8534 29.1751 85.9896 28.9684 86.0858C29.2386 86.1821 29.4497 86.3323 29.6017 86.5343L29.5973 86.539Z" fill="#040404"/>
<path d="M33.8217 87.5667H31.665L31.2531 88.5949H30.1504L32.2215 83.7988H33.2829L35.3614 88.5949H34.2336L33.8217 87.5667ZM33.4852 86.7239L32.7485 84.8882L32.0119 86.7239H33.4852Z" fill="#040404"/>
<path d="M40.2404 83.7944V88.5903H39.1642V86.6231H37.0547V88.5903H35.9785V83.7944H37.0547V85.6864H39.1642V83.7944H40.2404Z" fill="#040404"/>
<path d="M44.9595 85.7616C45.2621 86.0222 45.4142 86.4072 45.4142 86.919C45.4142 87.4635 45.2488 87.8767 44.9137 88.1631C44.5801 88.4495 44.1092 88.5903 43.5039 88.5903H41.4062V83.7944H42.475V85.3696H43.6575C44.2229 85.3696 44.6569 85.4986 44.9625 85.7593L44.9595 85.7616ZM44.0959 87.5574C44.2524 87.4166 44.3321 87.21 44.3321 86.94C44.3321 86.4423 44.0368 86.1935 43.4434 86.1935H42.475V87.7688H43.4434C43.7224 87.7688 43.9394 87.6983 44.0974 87.5551L44.0959 87.5574Z" fill="#040404"/>
<path d="M22.7036 98.2042V99.8498H16.3145V98.54L19.5755 95.3589C19.9209 95.0186 20.1542 94.7252 20.2752 94.4787C20.3963 94.2346 20.4568 93.9903 20.4568 93.7486C20.4568 93.3988 20.3431 93.1312 20.1143 92.9434C19.884 92.7556 19.5474 92.6617 19.1046 92.6617C18.734 92.6617 18.3989 92.7345 18.1007 92.88C17.804 93.0256 17.5531 93.2438 17.3538 93.535L15.9277 92.5865C16.2569 92.0794 16.7116 91.6827 17.2918 91.3964C17.8719 91.11 18.5362 90.9668 19.2861 90.9668C19.9135 90.9668 20.4642 91.0724 20.9351 91.2837C21.4045 91.4949 21.7706 91.7955 22.0334 92.1828C22.2947 92.5701 22.4261 93.0256 22.4261 93.549C22.4261 94.0232 22.3301 94.467 22.1367 94.8824C21.9448 95.2979 21.5684 95.7721 21.0148 96.3051L19.0706 98.1995H22.7065L22.7036 98.2042Z" fill="#040404"/>
<path d="M25.2405 99.4648C24.6929 99.1079 24.2648 98.5891 23.9533 97.9131C23.6448 97.2346 23.4883 96.4271 23.4883 95.488C23.4883 94.549 23.6418 93.7392 23.9533 93.063C24.2633 92.3846 24.6929 91.8682 25.2405 91.5113C25.7882 91.1546 26.4112 90.9761 27.1124 90.9761C27.8121 90.9761 28.438 91.1546 28.9828 91.5113C29.5319 91.8682 29.9585 92.387 30.27 93.063C30.58 93.7415 30.7335 94.549 30.7335 95.488C30.7335 96.4271 30.58 97.2369 30.27 97.9131C29.9615 98.5915 29.5319 99.1079 28.9828 99.4648C28.4351 99.8215 27.8121 100 27.1124 100C26.4112 100 25.7867 99.8215 25.2405 99.4648ZM28.3258 97.6055C28.6196 97.1477 28.7672 96.4411 28.7672 95.4857C28.7672 94.5303 28.6196 93.8237 28.3258 93.3659C28.0335 92.9081 27.6276 92.6804 27.1124 92.6804C26.5957 92.6804 26.2045 92.9081 25.9093 93.3659C25.6155 93.8237 25.4679 94.5303 25.4679 95.4857C25.4679 96.4411 25.6155 97.1477 25.9093 97.6055C26.203 98.0633 26.6031 98.291 27.1124 98.291C27.6217 98.291 28.0335 98.0633 28.3258 97.6055Z" fill="#040404"/>
<path d="M37.934 98.2042V99.8498H31.545V98.54L34.8059 95.3589C35.1514 95.0186 35.3861 94.7252 35.5057 94.4787C35.6267 94.2346 35.6887 93.9903 35.6887 93.7486C35.6887 93.3988 35.575 93.1312 35.3448 92.9434C35.1145 92.7556 34.7779 92.6617 34.335 92.6617C33.9645 92.6617 33.6309 92.7345 33.3327 92.88C33.0345 93.0256 32.785 93.2438 32.5842 93.535L31.1582 92.5865C31.4889 92.0794 31.9435 91.6827 32.5222 91.3964C33.1024 91.11 33.7667 90.9668 34.5166 90.9668C35.144 90.9668 35.6946 91.0724 36.1655 91.2837C36.6364 91.4949 37.0026 91.7955 37.2638 92.1828C37.5251 92.5701 37.6565 93.0256 37.6565 93.549C37.6565 94.0232 37.562 94.467 37.3687 94.8824C37.1753 95.2979 36.8003 95.7721 36.2453 96.3051L34.3011 98.1995H37.937L37.934 98.2042Z" fill="#040404"/>
<path d="M44.3979 95.5277C44.7905 95.9715 44.9884 96.523 44.9884 97.1805C44.9884 97.6874 44.8585 98.1546 44.6016 98.5842C44.3447 99.0139 43.952 99.3566 43.4236 99.6124C42.8965 99.8707 42.2514 99.9997 41.4838 99.9997C40.8889 99.9997 40.3028 99.9176 39.7271 99.7556C39.1514 99.5937 38.6628 99.3636 38.2598 99.0632L39.0215 97.516C39.3448 97.7649 39.7153 97.9598 40.139 98.0959C40.5612 98.2321 40.9937 98.3025 41.4366 98.3025C41.9282 98.3025 42.3149 98.2039 42.5969 98.0091C42.8788 97.8142 43.0191 97.5372 43.0191 97.1805C43.0191 96.4644 42.4921 96.1075 41.4366 96.1075H40.5435V94.7742L42.2825 92.7412H38.6834V91.1191H44.6016V92.429L42.6943 94.6732C43.4354 94.7977 44.0022 95.0841 44.3979 95.5277Z" fill="#040404"/>
</g>
</svg>
