<svg width="457" height="93" viewBox="0 0 457 93" fill="none" xmlns="http://www.w3.org/2000/svg">
<g clip-path="url(#clip0_210_30)">
<path d="M6.96107 89.9073C7.66493 89.2441 8.01686 88.4296 8.01686 87.4638C8.01686 86.4979 7.66493 85.6852 6.96107 85.0256C6.26107 84.3625 5.40445 84.0309 4.3912 84.0309C3.37795 84.0309 2.51939 84.3625 1.81553 85.0256C1.11553 85.6852 0.765536 86.4979 0.765536 87.4638C0.765536 88.4296 1.11553 89.2441 1.81553 89.9073C2.51939 90.5668 3.37795 90.8966 4.3912 90.8966C5.40445 90.8966 6.26107 90.5668 6.96107 89.9073ZM7.37874 84.6418C8.19863 85.4167 8.60857 86.3573 8.60857 87.4638C8.60857 88.5702 8.19863 89.5108 7.37874 90.2857C6.55886 91.0606 5.56301 91.448 4.3912 91.448C3.22712 91.448 2.23321 91.0606 1.40946 90.2857C0.585703 89.5108 0.173828 88.5702 0.173828 87.4638C0.173828 86.3573 0.585703 85.4167 1.40946 84.6418C2.23321 83.867 3.22712 83.4795 4.3912 83.4795C5.56301 83.4795 6.55886 83.867 7.37874 84.6418Z" fill="#565656"/>
<path d="M10.1582 90.7888H10.6339C10.6726 90.7599 10.7248 90.7095 10.7905 90.6374C10.8601 90.5653 10.98 90.3941 11.1502 90.1238C11.3204 89.8499 11.4712 89.5454 11.6027 89.2102C11.7342 88.875 11.8521 88.4119 11.9565 87.8209C12.0648 87.2298 12.119 86.5937 12.119 85.9125V83.5879H17.0499V90.7888H18.1173V92.9998H17.5256V91.3402H10.7499V92.9998H10.1582V90.7888ZM12.7107 85.9125C12.7107 86.5757 12.6623 87.1956 12.5657 87.7722C12.4728 88.3488 12.3607 88.8156 12.2292 89.1724C12.1016 89.5256 11.9701 89.8301 11.8347 90.086C11.6994 90.3383 11.5833 90.5203 11.4867 90.632L11.3474 90.7888H16.4524V84.1448H12.7107V85.9125Z" fill="#565656"/>
<path d="M20.9199 91.3402V83.5879H21.5174V87.1343H26.5644V83.5879H27.1561V91.3402H26.5644V87.6857H21.5174V91.3402H20.9199Z" fill="#565656"/>
<path d="M35.4292 88.5182L33.5845 84.3664L31.7456 88.5182H35.4292ZM35.6671 89.0697H31.5077L30.4983 91.3402H29.8428L33.2886 83.5879H33.8862L37.3262 91.3402H36.6765L35.6671 89.0697Z" fill="#565656"/>
<path d="M43.9241 90.2857C43.1003 89.5108 42.6885 88.5702 42.6885 87.4638C42.6885 86.3573 43.1003 85.4167 43.9241 84.6418C44.7478 83.867 45.7418 83.4795 46.9058 83.4795C47.3274 83.4795 47.7315 83.5372 48.1183 83.6525C48.505 83.7642 48.8241 83.903 49.0754 84.0688C49.3307 84.231 49.5531 84.3931 49.7426 84.5553C49.9359 84.7175 50.0751 84.8527 50.1602 84.9608L50.2937 85.1392L49.876 85.4743C49.8528 85.4383 49.8141 85.386 49.76 85.3176C49.7097 85.2491 49.5937 85.132 49.4119 84.9662C49.2301 84.8004 49.031 84.6562 48.8144 84.5337C48.6017 84.4076 48.3232 84.2922 47.979 84.1877C47.6348 84.0832 47.2771 84.0309 46.9058 84.0309C45.8926 84.0309 45.034 84.3625 44.3302 85.0256C43.6302 85.6852 43.2802 86.4979 43.2802 87.4638C43.2802 88.4296 43.6302 89.2441 44.3302 89.9073C45.034 90.5668 45.8926 90.8966 46.9058 90.8966C47.2848 90.8966 47.6464 90.8479 47.9906 90.7506C48.3348 90.6497 48.6191 90.529 48.8434 90.3884C49.0716 90.2479 49.2707 90.1073 49.4409 89.9668C49.6111 89.8262 49.7368 89.7091 49.818 89.6154L49.934 89.4586L50.3517 89.7884C50.3207 89.8316 50.2724 89.8911 50.2066 89.9668C50.1448 90.0424 50.0036 90.1758 49.7832 90.3668C49.5666 90.5578 49.3345 90.7272 49.087 90.875C48.8434 91.0227 48.5224 91.1561 48.1241 91.275C47.7296 91.3903 47.3235 91.448 46.9058 91.448C45.7418 91.448 44.7478 91.0606 43.9241 90.2857Z" fill="#565656"/>
<path d="M59.5076 83.5879V91.3402H58.9159V84.1448H53.869V91.3402H53.2715V83.5879H59.5076Z" fill="#565656"/>
<path d="M67.7808 88.5182L65.936 84.3664L64.0971 88.5182H67.7808ZM68.0186 89.0697H63.8592L62.8499 91.3402H62.1943L65.6402 83.5879H66.2377L69.6777 91.3402H69.028L68.0186 89.0697Z" fill="#565656"/>
<path d="M78.4204 83.5879V91.3402H77.8229V84.1448H73.8434V85.9125C73.8434 87.0334 73.7893 87.974 73.681 88.7345C73.5766 89.4913 73.4199 90.0608 73.2111 90.4428C73.0061 90.8212 72.7857 91.0843 72.5498 91.2321C72.3139 91.3762 72.0335 91.4483 71.7086 91.4483C71.6042 91.4483 71.492 91.4375 71.3722 91.4159C71.2561 91.3942 71.1653 91.3726 71.0995 91.351L70.9951 91.3186V90.7888C71.231 90.8608 71.4476 90.8969 71.6448 90.8969C71.873 90.8969 72.0741 90.8338 72.2481 90.7077C72.426 90.5815 72.5962 90.3509 72.7586 90.0157C72.921 89.6805 73.0429 89.1688 73.1241 88.4804C73.2092 87.7884 73.2517 86.9325 73.2517 85.9125V83.5879H78.4204Z" fill="#565656"/>
<path d="M85.0873 91.3402H82.1172V83.5879H82.7147V86.5775H85.0873C85.8569 86.5775 86.495 86.8063 87.0017 87.264C87.5083 87.7217 87.7616 88.2876 87.7616 88.9615C87.7616 89.6319 87.5083 90.1959 87.0017 90.6536C86.495 91.1113 85.8569 91.3402 85.0873 91.3402ZM82.7147 90.7888H85.0873C85.7061 90.7888 86.2069 90.6176 86.5898 90.2752C86.9765 89.9292 87.1699 89.4913 87.1699 88.9615C87.1699 88.4281 86.9765 87.9902 86.5898 87.6479C86.2069 87.3055 85.7061 87.1343 85.0873 87.1343H82.7147V90.7888Z" fill="#565656"/>
<path d="M90.8545 91.3402V83.5879H91.452V87.1343H96.499V83.5879H97.0907V91.3402H96.499V87.6857H91.452V91.3402H90.8545Z" fill="#565656"/>
<path d="M102.869 83.5879H106.014V91.3402H105.422V88.129H102.748L100.787 91.3402H100.137L102.156 88.0209C102.11 88.0137 102.044 87.9993 101.959 87.9776C101.877 87.9524 101.729 87.8893 101.512 87.7884C101.299 87.6839 101.114 87.5596 100.955 87.4154C100.797 87.2712 100.65 87.0604 100.514 86.7829C100.379 86.5054 100.311 86.1972 100.311 85.8585C100.311 85.217 100.553 84.6782 101.036 84.2421C101.524 83.806 102.135 83.5879 102.869 83.5879ZM105.422 84.1448H102.869C102.282 84.1448 101.808 84.3051 101.448 84.6259C101.089 84.9467 100.909 85.3593 100.909 85.8639C100.909 86.3648 101.089 86.7757 101.448 87.0965C101.808 87.4172 102.282 87.5776 102.869 87.5776H105.422V84.1448Z" fill="#565656"/>
<path d="M36.4744 15.5589L43.7428 0H41.393L34.1445 15.5589H36.4744Z" fill="#D8D8D8"/>
<path fill-rule="evenodd" clip-rule="evenodd" d="M52.7458 77.0107L50.3173 77.5011H67.5032L66.1428 77.0187C65.0683 76.5483 64.1071 75.882 63.3165 75.0595C62.5259 74.237 61.9221 73.2751 61.5412 72.2314C58.5626 66.0245 53.722 55.9541 49.3019 46.7585C44.2213 36.1887 39.6963 26.7748 39.1935 25.7131C38.7621 24.8022 38.3349 23.946 37.9215 23.1176C37.434 22.1404 36.9657 21.2018 36.5326 20.2579V20.1094H26.7892V20.6104C27.9407 20.7868 28.99 21.3297 29.7568 22.1458C30.5235 22.9619 30.9598 24.0002 30.9907 25.0822V25.342C31.0006 25.5213 31.0006 25.7009 30.9907 25.8801C30.9474 26.4188 30.7839 26.9433 30.5105 27.4202L25.9489 36.9577C23.0079 43.1552 19.9469 49.5568 16.8858 55.847L15.8254 58.018C15.0008 59.7453 14.156 61.4633 13.3125 63.1786C12.969 63.8771 12.6258 64.5751 12.2842 65.2731C11.9044 66.0518 11.5246 66.886 11.1448 67.7203L11.1438 67.7224L10.8037 68.5018C10.5036 69.1883 10.1835 69.8934 9.80339 70.5614C9.16064 72.1143 8.12868 73.5031 6.7928 74.613C5.45692 75.7229 3.85549 76.5221 2.12075 76.9445L0 77.4454H16.3056V76.9445C15.408 76.9575 14.5194 76.7765 13.7103 76.4157C12.9012 76.055 12.1937 75.5245 11.644 74.8663C11.3479 74.2825 11.2044 73.6423 11.2253 72.9974C11.2461 72.3526 11.4307 71.7214 11.7641 71.1552L16.5657 61.1353C16.6241 61.0378 16.6689 60.9403 16.7119 60.8465C16.7426 60.7796 16.7725 60.7146 16.8058 60.6529C16.8335 60.6015 16.8732 60.5323 16.9182 60.4538C17.0033 60.3056 17.1074 60.1241 17.1859 59.9663C17.377 59.7197 17.6217 59.513 17.9043 59.3596C18.1869 59.2062 18.5011 59.1094 18.8265 59.0756H46.476C46.8014 59.1094 47.1155 59.2062 47.3981 59.3596C47.6807 59.513 47.9255 59.7197 48.1165 59.9663L48.2766 60.2817C48.5767 60.8755 48.8568 61.4507 49.1169 62.0445C50.6174 65.1433 52.1979 68.5574 54.1186 72.7695C54.571 73.5733 54.7456 74.4868 54.6188 75.3858C54.4549 75.7731 54.1988 76.121 53.8697 76.4037C53.5477 76.6804 53.1639 76.8876 52.7458 77.0107ZM46.2324 57.0352C46.3055 56.9997 46.3684 56.9486 46.416 56.8861L46.516 56.7191C46.5511 56.656 46.5694 56.586 46.5694 56.515C46.5694 56.444 46.5511 56.374 46.516 56.3109C45.6436 54.4861 44.6735 52.4606 43.6621 50.3488C41.4032 45.6323 38.938 40.4848 36.8927 36.1783L33.1714 28.4779C33.1343 28.4002 33.0719 28.3352 32.993 28.2919C32.9141 28.2487 32.8226 28.2294 32.7313 28.2367C32.6382 28.2335 32.5462 28.2567 32.4676 28.3031C32.3891 28.3495 32.3275 28.4169 32.2911 28.4964L18.7865 56.4593C18.7512 56.5257 18.7328 56.5988 18.7328 56.6728C18.7328 56.7468 18.7512 56.8198 18.7865 56.8861C18.8266 56.9508 18.8852 57.0041 18.9558 57.0401C19.0263 57.0761 19.1062 57.0934 19.1866 57.0902H45.9958C46.0783 57.0895 46.1594 57.0707 46.2324 57.0352Z" fill="#D8D8D8"/>
<path d="M78.8054 77.5006C82.0973 76.9792 86.0423 75.907 87.9418 72.8079C88.6284 71.6877 88.9717 69.9274 88.9717 67.527C88.9717 56.1755 88.9717 44.824 88.9717 33.4725C88.9717 29.175 84.5861 26.2709 80.6296 27.9485L78.8452 28.705L78.3037 27.4298L94.5075 20.1299L95.2799 20.6336V67.527C95.2799 70.0074 95.5803 71.8077 96.1811 72.928C97.9119 76.1551 102.392 76.6098 105.575 77.5006H78.8054Z" fill="#D8D8D8"/>
<path d="M258.476 59.653C263.444 55.1073 267.022 51.0318 269.211 47.4266C271.4 43.8214 272.495 40.177 272.495 36.4935C272.495 32.3397 271.274 29.0871 268.832 26.7359C266.39 24.3847 262.896 23.2091 258.35 23.2091C249.425 23.2091 243.598 27.6764 240.82 37.3164H239.28L244.192 19.8779C244.192 19.8779 244.009 23.7969 247.489 23.7969C248.415 23.7969 249.762 23.4834 251.53 22.8564C253.635 22.2294 255.403 21.7984 256.834 21.5632C258.266 21.2497 259.95 21.093 261.886 21.093C267.274 21.093 271.568 22.4253 274.768 25.0901C278.051 27.7548 279.693 31.2424 279.693 35.553C279.693 38.7663 278.641 42.058 276.536 45.4281C274.431 48.7198 270.577 52.4684 266.306 56.5964C259.039 63.6216 247.428 72.7022 247.428 72.7022C255.64 72.7022 265.199 72.7022 269.665 72.7022C276.753 72.7022 278.965 70.8322 281.112 64.7081C281.112 68.945 281.112 77.5003 281.112 77.5003H235.75C235.75 77.5003 254.177 63.5194 258.476 59.653Z" fill="#D8D8D8"/>
<path d="M204.182 15.5588L211.45 0H209.101L201.852 15.5588H204.182Z" fill="#D8D8D8"/>
<path fill-rule="evenodd" clip-rule="evenodd" d="M220.453 77.0107L218.024 77.5011H235.21L233.85 77.0187C232.775 76.5483 231.814 75.882 231.024 75.0594C230.233 74.2369 229.629 73.2751 229.248 72.2313C226.27 66.0245 221.429 55.954 217.009 46.7584C211.928 36.1886 207.403 26.7748 206.901 25.7131C206.469 24.8022 206.042 23.9459 205.629 23.1175C205.141 22.1403 204.673 21.2018 204.24 20.2578V20.1094H194.496V20.6103C195.648 20.7868 196.697 21.3297 197.464 22.1458C198.231 22.9618 198.667 24.0001 198.698 25.0822V25.342C198.708 25.5212 198.708 25.7009 198.698 25.8801C198.654 26.4188 198.491 26.9432 198.218 27.4202L193.656 36.9577C190.715 43.1551 187.654 49.5567 184.593 55.847L183.532 58.0179C182.708 59.7453 181.863 61.4633 181.02 63.1786C180.676 63.8771 180.333 64.5751 179.991 65.2731C179.611 66.0518 179.232 66.886 178.852 67.7203L178.851 67.7224L178.511 68.5018C178.211 69.1883 177.891 69.8934 177.51 70.5614C176.868 72.1143 175.836 73.503 174.5 74.6129C173.164 75.7228 171.563 76.522 169.828 76.9444L167.707 77.4454H184.013V76.9444C183.115 76.9574 182.226 76.7764 181.417 76.4157C180.608 76.055 179.901 75.5245 179.351 74.8662C179.055 74.2825 178.911 73.6422 178.932 72.9974C178.953 72.3526 179.138 71.7214 179.471 71.1552L184.273 61.1353C184.331 61.0378 184.376 60.9403 184.419 60.8465C184.45 60.7796 184.48 60.7146 184.513 60.6528C184.541 60.6014 184.58 60.5323 184.625 60.4538C184.71 60.3055 184.814 60.124 184.893 59.9663C185.084 59.7197 185.329 59.513 185.611 59.3595C185.894 59.2061 186.208 59.1094 186.534 59.0756H214.183C214.508 59.1094 214.823 59.2061 215.105 59.3595C215.388 59.513 215.633 59.7197 215.824 59.9663L215.984 60.2817C216.284 60.8755 216.564 61.4507 216.824 62.0445C218.324 65.1432 219.905 68.5574 221.826 72.7695C222.278 73.5733 222.453 74.4867 222.326 75.3858C222.162 75.7731 221.906 76.121 221.577 76.4037C221.255 76.6803 220.871 76.8876 220.453 77.0107ZM213.939 57.0351C214.013 56.9996 214.075 56.9486 214.123 56.8861L214.223 56.7191C214.258 56.656 214.276 56.586 214.276 56.515C214.276 56.4439 214.258 56.374 214.223 56.3109C213.351 54.486 212.381 52.4606 211.369 50.3488C209.11 45.6322 206.645 40.4847 204.6 36.1783L200.878 28.4778C200.841 28.4001 200.779 28.3351 200.7 28.2919C200.621 28.2486 200.53 28.2293 200.438 28.2366C200.345 28.2335 200.253 28.2567 200.175 28.303C200.096 28.3494 200.035 28.4168 199.998 28.4964L186.493 56.4593C186.458 56.5257 186.44 56.5987 186.44 56.6727C186.44 56.7467 186.458 56.8197 186.493 56.8861C186.534 56.9508 186.592 57.0041 186.663 57.0401C186.733 57.076 186.813 57.0933 186.894 57.0902H213.703C213.785 57.0895 213.866 57.0706 213.939 57.0351Z" fill="#D8D8D8"/>
<path d="M167.977 90.7887H168.453C168.491 90.7599 168.544 90.7094 168.609 90.6374C168.679 90.5653 168.799 90.3941 168.969 90.1238C169.139 89.8499 169.29 89.5453 169.422 89.2102C169.553 88.875 169.671 88.4119 169.775 87.8208C169.884 87.2298 169.938 86.5937 169.938 85.9125V83.5879H174.869V90.7887H175.936V92.9998H175.344V91.3401H168.569V92.9998H167.977V90.7887ZM170.53 85.9125C170.53 86.5756 170.481 87.1955 170.384 87.7722C170.292 88.3488 170.18 88.8155 170.048 89.1723C169.92 89.5255 169.789 89.8301 169.654 90.0859C169.518 90.3382 169.402 90.5202 169.305 90.632L169.166 90.7887H174.271V84.1447H170.53V85.9125Z" fill="#565656"/>
<path d="M184.64 87.1883L184.797 87.2478C184.867 87.273 184.986 87.3397 185.157 87.4478C185.327 87.5559 185.476 87.6767 185.603 87.81C185.735 87.9434 185.855 88.1344 185.963 88.383C186.071 88.6281 186.125 88.8948 186.125 89.1831C186.125 89.803 185.889 90.3184 185.418 90.7293C184.946 91.1365 184.329 91.3401 183.567 91.3401H180.359V83.5879H183.451C184.124 83.5879 184.667 83.7717 185.081 84.1393C185.499 84.5033 185.708 84.9664 185.708 85.5287C185.708 85.7665 185.669 85.9864 185.592 86.1882C185.518 86.39 185.429 86.5504 185.325 86.6693C185.224 86.7883 185.122 86.8892 185.017 86.9721C184.913 87.0514 184.826 87.1054 184.756 87.1343L184.64 87.1883ZM180.957 90.7887H183.567C184.178 90.7887 184.658 90.641 185.006 90.3454C185.354 90.0499 185.528 89.6625 185.528 89.1831C185.528 88.675 185.356 88.2713 185.012 87.9722C184.667 87.6695 184.186 87.5181 183.567 87.5181H180.957V90.7887ZM183.451 84.1447H180.957V86.9667H183.451C183.981 86.9667 184.389 86.8405 184.675 86.5882C184.965 86.3324 185.11 85.9792 185.11 85.5287C185.11 85.107 184.963 84.7718 184.669 84.5231C184.379 84.2709 183.973 84.1447 183.451 84.1447Z" fill="#565656"/>
<path d="M191.5 90.7887H196.605V91.3401H190.902V83.5879H196.489V84.1447H191.5V87.0207H195.537V87.5775H191.5V90.7887Z" fill="#565656"/>
<path d="M206.623 90.2867C205.799 89.5118 205.387 88.5712 205.387 87.4647C205.387 86.3583 205.799 85.4176 206.623 84.6428C207.446 83.8679 208.44 83.4805 209.604 83.4805C210.026 83.4805 210.43 83.5381 210.817 83.6535C211.204 83.7652 211.523 83.904 211.774 84.0697C212.029 84.2319 212.252 84.3941 212.441 84.5563C212.634 84.7185 212.774 84.8536 212.859 84.9617L212.992 85.1401L212.575 85.4753C212.551 85.4393 212.513 85.387 212.459 85.3185C212.408 85.2501 212.292 85.1329 212.11 84.9671C211.929 84.8014 211.73 84.6572 211.513 84.5347C211.3 84.4085 211.022 84.2932 210.678 84.1887C210.333 84.0842 209.976 84.0319 209.604 84.0319C208.591 84.0319 207.733 84.3635 207.029 85.0266C206.329 85.6861 205.979 86.4988 205.979 87.4647C205.979 88.4306 206.329 89.2451 207.029 89.9082C207.733 90.5678 208.591 90.8975 209.604 90.8975C209.983 90.8975 210.345 90.8489 210.689 90.7516C211.033 90.6507 211.318 90.5299 211.542 90.3894C211.77 90.2488 211.969 90.1083 212.139 89.9677C212.31 89.8272 212.435 89.71 212.517 89.6163L212.633 89.4595L213.05 89.7893C213.019 89.8326 212.971 89.892 212.905 89.9677C212.843 90.0434 212.702 90.1767 212.482 90.3678C212.265 90.5588 212.033 90.7282 211.786 90.8759C211.542 91.0237 211.221 91.157 210.823 91.276C210.428 91.3913 210.022 91.449 209.604 91.449C208.44 91.449 207.446 91.0615 206.623 90.2867Z" fill="#565656"/>
<path d="M223.825 83.5879V91.3401H223.234V84.1447H218.187V91.3401H217.589V83.5879H223.825Z" fill="#565656"/>
<path d="M233.719 88.5182L231.874 84.3664L230.035 88.5182H233.719ZM233.957 89.0696H229.797L228.788 91.3401H228.132L231.578 83.5879H232.176L235.616 91.3401H234.966L233.957 89.0696Z" fill="#565656"/>
<path d="M245.979 83.5879V91.3401H245.382V84.1447H241.402V85.9125C241.402 87.0333 241.348 87.974 241.24 88.7344C241.135 89.4913 240.979 90.0607 240.77 90.4427C240.565 90.8212 240.344 91.0843 240.108 91.232C239.873 91.3762 239.592 91.4483 239.267 91.4483C239.163 91.4483 239.051 91.4375 238.931 91.4158C238.815 91.3942 238.724 91.3726 238.658 91.351L238.554 91.3185V90.7887C238.79 90.8608 239.006 90.8968 239.203 90.8968C239.432 90.8968 239.633 90.8338 239.807 90.7076C239.985 90.5815 240.155 90.3508 240.317 90.0157C240.48 89.6805 240.602 89.1687 240.683 88.4804C240.768 87.7884 240.81 86.9324 240.81 85.9125V83.5879H245.979Z" fill="#565656"/>
<path d="M254.266 91.3401H251.296V83.5879H251.893V86.5774H254.266C255.035 86.5774 255.673 86.8063 256.18 87.264C256.687 87.7217 256.94 88.2875 256.94 88.9615C256.94 89.6318 256.687 90.1959 256.18 90.6536C255.673 91.1113 255.035 91.3401 254.266 91.3401ZM251.893 90.7887H254.266C254.884 90.7887 255.385 90.6175 255.768 90.2752C256.155 89.9292 256.348 89.4913 256.348 88.9615C256.348 88.4281 256.155 87.9902 255.768 87.6478C255.385 87.3054 254.884 87.1343 254.266 87.1343H251.893V90.7887Z" fill="#565656"/>
<path d="M261.653 91.3401V83.5879H262.251V87.1343H267.297V83.5879H267.889V91.3401H267.297V87.6857H262.251V91.3401H261.653Z" fill="#565656"/>
<path d="M279.801 91.3401H279.21V84.6421L273.681 91.3401H273.206V83.5879H273.803V90.286L279.326 83.5879H279.801V91.3401Z" fill="#565656"/>
<path d="M344.663 83.5879H350.719V84.1447H347.987V91.3401H347.395V84.1447H344.663V83.5879Z" fill="#565656"/>
<path d="M354.962 83.5879H357.932C358.702 83.5879 359.34 83.8168 359.847 84.2745C360.353 84.7322 360.607 85.298 360.607 85.972C360.607 86.6423 360.353 87.2063 359.847 87.664C359.34 88.1218 358.702 88.3506 357.932 88.3506H355.56V91.3401H354.962V83.5879ZM357.932 84.1447H355.56V87.7992H357.932C358.551 87.7992 359.052 87.628 359.435 87.2856C359.821 86.9396 360.015 86.5017 360.015 85.972C360.015 85.4386 359.821 85.0007 359.435 84.6583C359.052 84.3159 358.551 84.1447 357.932 84.1447Z" fill="#565656"/>
<path d="M371.857 91.3401H371.266V84.6421L365.737 91.3401H365.262V83.5879H365.859V90.286L371.382 83.5879H371.857V91.3401Z" fill="#565656"/>
<path d="M382.711 90.2867C381.887 89.5118 381.475 88.5712 381.475 87.4647C381.475 86.3583 381.887 85.4176 382.711 84.6428C383.534 83.8679 384.528 83.4805 385.692 83.4805C386.114 83.4805 386.518 83.5381 386.905 83.6535C387.292 83.7652 387.611 83.904 387.862 84.0697C388.117 84.2319 388.34 84.3941 388.529 84.5563C388.723 84.7185 388.862 84.8536 388.947 84.9617L389.08 85.1401L388.663 85.4753C388.639 85.4393 388.601 85.387 388.547 85.3185C388.496 85.2501 388.38 85.1329 388.198 84.9671C388.017 84.8014 387.818 84.6572 387.601 84.5347C387.388 84.4085 387.11 84.2932 386.766 84.1887C386.421 84.0842 386.064 84.0319 385.692 84.0319C384.679 84.0319 383.821 84.3635 383.117 85.0266C382.417 85.6861 382.067 86.4988 382.067 87.4647C382.067 88.4306 382.417 89.2451 383.117 89.9082C383.821 90.5678 384.679 90.8975 385.692 90.8975C386.071 90.8975 386.433 90.8489 386.777 90.7516C387.121 90.6507 387.406 90.5299 387.63 90.3894C387.858 90.2488 388.057 90.1083 388.227 89.9677C388.398 89.8272 388.523 89.71 388.605 89.6163L388.721 89.4595L389.138 89.7893C389.107 89.8326 389.059 89.892 388.993 89.9677C388.931 90.0434 388.79 90.1767 388.57 90.3678C388.353 90.5588 388.121 90.7282 387.874 90.8759C387.63 91.0237 387.309 91.157 386.911 91.276C386.516 91.3913 386.11 91.449 385.692 91.449C384.528 91.449 383.534 91.0615 382.711 90.2867Z" fill="#565656"/>
<path d="M399.913 83.5879V91.3401H399.322V84.1447H394.275V91.3401H393.677V83.5879H399.913Z" fill="#565656"/>
<path d="M409.807 88.5182L407.962 84.3664L406.123 88.5182H409.807ZM410.045 89.0696H405.885L404.876 91.3401H404.22L407.666 83.5879H408.264L411.704 91.3401H411.054L410.045 89.0696Z" fill="#565656"/>
<path d="M422.067 83.5879V91.3401H421.47V84.1447H417.49V85.9125C417.49 87.0333 417.436 87.974 417.328 88.7344C417.223 89.4913 417.067 90.0607 416.858 90.4427C416.653 90.8212 416.432 91.0843 416.197 91.232C415.961 91.3762 415.68 91.4483 415.355 91.4483C415.251 91.4483 415.139 91.4375 415.019 91.4158C414.903 91.3942 414.812 91.3726 414.746 91.351L414.642 91.3185V90.7887C414.878 90.8608 415.094 90.8968 415.292 90.8968C415.52 90.8968 415.721 90.8338 415.895 90.7076C416.073 90.5815 416.243 90.3508 416.405 90.0157C416.568 89.6805 416.69 89.1687 416.771 88.4804C416.856 87.7884 416.898 86.9324 416.898 85.9125V83.5879H422.067Z" fill="#565656"/>
<path d="M430.354 91.3401H427.384V83.5879H427.981V86.5774H430.354C431.123 86.5774 431.761 86.8063 432.268 87.264C432.775 87.7217 433.028 88.2875 433.028 88.9615C433.028 89.6318 432.775 90.1959 432.268 90.6536C431.761 91.1113 431.123 91.3401 430.354 91.3401ZM427.981 90.7887H430.354C430.972 90.7887 431.473 90.6175 431.856 90.2752C432.243 89.9292 432.436 89.4913 432.436 88.9615C432.436 88.4281 432.243 87.9902 431.856 87.6478C431.473 87.3054 430.972 87.1343 430.354 87.1343H427.981V90.7887Z" fill="#565656"/>
<path d="M437.741 91.3401V83.5879H438.339V87.1343H443.386V83.5879H443.977V91.3401H443.386V87.6857H438.339V91.3401H437.741Z" fill="#565656"/>
<path d="M455.889 91.3401H455.298V84.6421L449.769 91.3401H449.294V83.5879H449.891V90.286L455.414 83.5879H455.889V91.3401Z" fill="#565656"/>
<path d="M438.492 47.003C443.724 47.3072 447.965 48.7672 451.216 51.3832C454.545 53.9991 456.21 57.3145 456.21 61.3298C456.21 64.6757 455.061 67.6871 452.762 70.3638C450.463 72.9798 447.291 75.0482 443.248 76.5691C439.284 78.0291 434.884 78.7591 430.048 78.7591C423.799 78.7591 418.115 77.4504 412.468 74.9848L410.308 63.6111C410.308 63.6111 414.63 71.387 419.465 74.1965C423.9 76.7735 427.749 77.2991 432.427 77.2991C438.056 77.2991 442.178 75.9303 444.794 73.1927C447.49 70.4551 448.837 67.0483 448.837 62.9723C448.837 58.0447 446.974 54.3337 443.248 51.8394C439.601 49.2843 434.329 48.0068 427.432 48.0068C427.115 48.0068 426.957 47.8243 426.957 47.4593C426.957 47.0943 427.115 46.9118 427.432 46.9118C433.775 46.9118 438.531 45.7559 441.702 43.4441C444.873 41.1324 446.459 37.9994 446.459 34.0451C446.459 30.0907 445.032 26.8969 442.178 24.4635C439.403 22.03 435.756 20.8133 431.238 20.8133C421.861 20.8133 416.883 27.0885 412.211 33.8625L414.351 22.7296C414.351 22.7296 427.883 19.627 432.902 19.627C439.324 19.627 444.279 20.8437 447.767 23.2772C451.255 25.6498 453 28.6003 453 32.1287C453 35.4747 451.533 38.5165 448.6 41.2541C445.666 43.9917 442.297 45.908 438.492 47.003Z" fill="#D8D8D8"/>
<path d="M379.28 15.5588L386.548 0H384.198L376.95 15.5588H379.28Z" fill="#D8D8D8"/>
<path fill-rule="evenodd" clip-rule="evenodd" d="M395.55 77.0107L393.122 77.5011H410.308L408.947 77.0187C407.873 76.5483 406.912 75.882 406.121 75.0594C405.331 74.2369 404.727 73.2751 404.346 72.2313C401.367 66.0245 396.527 55.954 392.107 46.7584C387.026 36.1886 382.501 26.7748 381.998 25.7131C381.567 24.8022 381.14 23.9459 380.726 23.1175C380.239 22.1403 379.77 21.2018 379.337 20.2578V20.1094H369.594V20.6103C370.745 20.7868 371.795 21.3297 372.561 22.1458C373.328 22.9618 373.764 24.0001 373.795 25.0822V25.342C373.805 25.5212 373.805 25.7009 373.795 25.8801C373.752 26.4188 373.589 26.9432 373.315 27.4202L368.754 36.9577C365.813 43.1551 362.752 49.5567 359.69 55.847L358.63 58.0179C357.806 59.7453 356.961 61.4633 356.117 63.1786C355.774 63.8771 355.43 64.5751 355.089 65.2731C354.709 66.0518 354.329 66.886 353.95 67.7203L353.949 67.7224L353.608 68.5018C353.308 69.1883 352.988 69.8934 352.608 70.5614C351.965 72.1143 350.933 73.503 349.597 74.6129C348.262 75.7228 346.66 76.522 344.925 76.9444L342.805 77.4454H359.11V76.9444C358.213 76.9574 357.324 76.7764 356.515 76.4157C355.706 76.055 354.998 75.5245 354.449 74.8662C354.153 74.2825 354.009 73.6422 354.03 72.9974C354.051 72.3526 354.235 71.7214 354.569 71.1552L359.37 61.1353C359.429 61.0378 359.474 60.9403 359.517 60.8465C359.547 60.7796 359.577 60.7146 359.61 60.6528C359.638 60.6014 359.678 60.5323 359.723 60.4538C359.808 60.3055 359.912 60.124 359.991 59.9663C360.182 59.7197 360.426 59.513 360.709 59.3595C360.992 59.2061 361.306 59.1094 361.631 59.0756H389.281C389.606 59.1094 389.92 59.2061 390.203 59.3595C390.485 59.513 390.73 59.7197 390.921 59.9663L391.081 60.2817C391.381 60.8755 391.661 61.4507 391.922 62.0445C393.422 65.1432 395.003 68.5574 396.923 72.7695C397.376 73.5733 397.55 74.4867 397.423 75.3858C397.26 75.7731 397.003 76.121 396.674 76.4037C396.352 76.6803 395.969 76.8876 395.55 77.0107ZM389.037 57.0351C389.11 56.9996 389.173 56.9486 389.221 56.8861L389.321 56.7191C389.356 56.656 389.374 56.586 389.374 56.515C389.374 56.4439 389.356 56.374 389.321 56.3109C388.448 54.486 387.478 52.4606 386.467 50.3488C384.208 45.6322 381.743 40.4847 379.697 36.1783L375.976 28.4778C375.939 28.4001 375.877 28.3351 375.798 28.2919C375.719 28.2486 375.627 28.2293 375.536 28.2366C375.443 28.2335 375.351 28.2567 375.272 28.303C375.194 28.3494 375.132 28.4168 375.096 28.4964L361.591 56.4593C361.556 56.5257 361.538 56.5987 361.538 56.6727C361.538 56.7467 361.556 56.8197 361.591 56.8861C361.631 56.9508 361.69 57.0041 361.76 57.0401C361.831 57.076 361.911 57.0933 361.991 57.0902H388.801C388.883 57.0895 388.964 57.0706 389.037 57.0351Z" fill="#D8D8D8"/>
</g>
<defs>
<clipPath id="clip0_210_30">
<rect width="457" height="93" fill="white"/>
</clipPath>
</defs>
</svg>
