<svg width="128" height="36" viewBox="0 0 128 36" fill="none" xmlns="http://www.w3.org/2000/svg">
<g clip-path="url(#clip0_321_30)">
<mask id="mask0_321_30" style="mask-type:luminance" maskUnits="userSpaceOnUse" x="0" y="0" width="128" height="36">
<path d="M127.559 0H0V36H127.559V0Z" fill="white"/>
</mask>
<g mask="url(#mask0_321_30)">
<mask id="mask1_321_30" style="mask-type:luminance" maskUnits="userSpaceOnUse" x="0" y="0" width="128" height="36">
<path d="M127.559 0H0V36H127.559V0Z" fill="white"/>
</mask>
<g mask="url(#mask1_321_30)">
<path d="M0.850098 16.0586V22.4929" stroke="#FFF7F7" stroke-width="1.16987" stroke-linecap="round"/>
<path d="M93.563 22.5903L94.9279 20.2506M94.9279 20.2506L96.9753 16.741C96.9753 16.741 97.4626 15.961 97.7551 15.7661C98.0477 15.5711 98.6325 16.741 98.6325 16.741L100.797 20.2506M94.9279 20.2506H100.797M100.797 20.2506L102.24 22.5903" stroke="#FFF7F7" stroke-width="1.55983" stroke-linecap="round"/>
<path d="M82.547 16.3496C82.547 16.3496 80.8895 16.3497 80.9871 19.1769C81.0846 22.004 82.547 22.199 82.547 22.199" stroke="#FFF7F7" stroke-width="1.55983"/>
<path d="M90.6379 16.3496H82.5464M82.5464 22.199H90.6379" stroke="#FFF7F7" stroke-width="1.55983" stroke-linecap="round"/>
<path d="M25.3208 16.4473H34.6799" stroke="#FFF7F7" stroke-width="1.55983" stroke-linecap="round"/>
<path d="M30 22.4919V16.6426" stroke="#FFF7F7" stroke-width="1.36485" stroke-linecap="round" stroke-linejoin="round"/>
<path d="M117.35 16.6426H126.709" stroke="#FFF7F7" stroke-width="1.55983" stroke-linecap="round"/>
<path d="M122.029 22.6872V16.8379" stroke="#FFF7F7" stroke-width="1.36485" stroke-linecap="round" stroke-linejoin="round"/>
<path d="M72.8942 11.281C72.8942 11.281 69.0921 0.849601 56.906 0.849609C44.7198 0.849618 39.9429 12.0609 39.9429 16.8378V17.3253" stroke="#FFF7F7" stroke-width="1.55983"/>
<path d="M57.0037 23.9535C51.8367 24.0509 51.252 19.3715 51.252 19.3715C51.252 19.3715 53.1041 19.2739 53.5917 19.3715C54.0789 19.469 54.469 21.7112 57.0037 21.7112C59.5385 21.7112 59.831 19.469 60.4158 19.3715C61.0009 19.2739 62.7555 19.3715 62.7555 19.3715C62.7555 19.3715 62.1707 23.856 57.0037 23.9535Z" stroke="#FFF7F7" stroke-width="1.16987"/>
<path d="M55.6388 17.3258H39.748V19.4706C39.748 20.1531 41.4052 35.1664 57.0037 35.1664C72.5103 35.1664 74.2392 21.2922 74.4506 19.5968L74.454 19.5681C74.6491 18.0082 74.454 14.9861 74.454 14.9861C74.454 14.9861 74.4486 13.0114 75.1366 12.0614C76.2101 10.5786 79.621 10.6966 79.621 10.6966V8.6493C79.621 8.6493 75.5235 8.57208 73.8692 10.2091C72.9123 11.1559 72.4068 11.6715 72.2118 13.2313C72.0168 14.7911 72.5044 17.8133 72.2118 19.5681C71.9193 21.3229 70.1646 33.0231 57.0037 33.1192C43.8424 33.2153 41.7952 19.4706 41.7952 19.4706H44.1349C44.1349 19.4706 45.9874 30.5845 57.0037 30.5845C68.02 30.5845 69.4821 20.738 69.6771 19.5681C69.8721 18.3982 69.7037 14.4012 69.4821 13.2313C69.2604 12.0614 68.7023 10.2091 66.46 9.23423C64.2178 8.25933 62.1704 8.6493 62.1704 8.6493V10.6966C62.1704 10.6966 64.9001 10.6966 66.46 12.0614C68.0197 13.4263 67.4349 19.4706 67.4349 19.4706C67.4349 19.4706 66.265 28.6345 57.0037 28.6345C47.742 28.6345 46.4747 19.4706 46.4747 19.4706H48.9119C48.9119 19.4706 50.4718 26.1974 57.0037 26.1974C63.5353 26.1974 64.8352 20.0555 64.9001 19.4706C64.994 18.6255 64.9001 17.3258 64.9001 17.3258H58.2708C58.2708 17.3258 58.5633 19.5681 57.0037 19.5681C55.4438 19.5681 55.6388 17.3258 55.6388 17.3258Z" stroke="#FFF7F7" stroke-width="1.16987"/>
<path d="M13.2319 16.0586V22.6879M22.2009 16.0586V22.6879" stroke="#FFF7F7" stroke-width="1.16987" stroke-linecap="round"/>
<path d="M13.4263 22.688L21.9078 16.1562" stroke="#FFF7F7" stroke-width="1.55983" stroke-linecap="round"/>
<path d="M105.066 16.252V22.8812M114.036 16.252V22.8812" stroke="#FFF7F7" stroke-width="1.16987" stroke-linecap="round"/>
<path d="M108.088 16.059L111.013 14.0117" stroke="#FFF7F7" stroke-width="1.16987" stroke-linecap="round"/>
<path d="M105.261 22.8814L113.743 16.3496" stroke="#FFF7F7" stroke-width="1.55983" stroke-linecap="round"/>
<path d="M1.33789 19.3718C1.33789 19.3718 5.52993 19.3718 5.9199 19.3718M5.9199 19.3718C9.81946 17.7145 10.4044 16.3496 10.4044 16.3496M5.9199 19.3718C8.06465 19.6642 10.4044 22.3939 10.4044 22.3939" stroke="#FFF7F7" stroke-width="1.55983" stroke-linecap="round"/>
</g>
</g>
</g>
<defs>
<clipPath id="clip0_321_30">
<rect width="128" height="36" fill="white"/>
</clipPath>
</defs>
</svg>
