<?xml version="1.0" encoding="utf-8"?>
<!-- Generator: Adobe Illustrator 28.1.0, SVG Export Plug-In . SVG Version: 6.00 Build 0)  -->
<svg version="1.1" id="Слой_1" xmlns="http://www.w3.org/2000/svg" xmlns:xlink="http://www.w3.org/1999/xlink" x="0px" y="0px"
	 viewBox="0 0 1438.1 442.9" style="enable-background:new 0 0 1438.1 442.9;" xml:space="preserve">
<style type="text/css">
	.st0{fill:#F6F6F6;}
	.st1{fill:#131411;}
</style>
<g>
	<path class="st0" d="M404.6,193.7c-7.6-8.3-17.2-13.5-31.2-16.6c-0.8-0.2-2-0.5-3.2-0.8c1.1-0.3,2.5-0.8,3.8-1.2
		c3.9-1.3,10.3-3.6,14.8-7.4c5.9-4.3,9-11.9,8.5-20.1c-0.6-8.8-5.1-16.4-12.2-20.4c-4.9-2.8-12.3-6.1-19.3-6.2
		c-2.9,0-6.3-0.1-10-0.1h-34.8c-5.4,0-10.5,0-14.8,0.1c-7.8,0-12.9,0-12.9,0l-2.8,0l2.6,1.2c5,2.3,7.6,6.9,7.6,13.8
		c0.2,37,0.3,77.4,0.3,108.5c0,6.9,0,14.6-8.3,19l-2.2,1.2h2.5c0.2,0,10.8,0.1,24,0.1c14.3,0,31.7-0.1,42.6-0.5
		c9.4-0.3,19.1-2,28.2-5c12.7-4.1,22.3-14.5,25.8-27.9C417.2,217.9,413.8,203.7,404.6,193.7 M316.4,170c0.1-4.5,0.1-9.1,0-13.5
		v-10.7c0-4.1,0-8.8,0-13.1v-3.4c0-2.4,0.5-3.6,3.1-3.6h36.9c12.6,0,23.3,9.5,24.4,21.6v0.3c0.9,10.8-2.8,19.3-9.9,23.1
		c-4.3,2.3-12.6,3.2-17.1,3.2h-34.3c-2.6,0-3-1.1-3.1-3.3V170z M398,226c-1.4,13.8-4.7,23-17.6,29.3c-0.2,0.1-0.7,0.4-0.8,0.4
		c-5.7,2.3-21.7,4.1-25.9,4.1H319c-2-0.1-2.6-1-2.6-3.8v-3.1c0.1-7.8,0.1-15.7,0-23.3v-17.8c0-8.6,0-17.4,0-26v-3.6
		c0-1.5,0.2-2.3,0.7-2.8c0.5-0.5,1.2-0.7,2.3-0.7h33.8c7.4,0,17.6,2.3,26.1,6c12,5.1,19,18.1,19,34.7
		C398.4,221.5,398.3,223.8,398,226"/>
	<path class="st0" d="M170.8,263.4l-5.8,1.3h39.8l-3.2-1.2c-5.9-2.3-8.6-7.4-10.7-12c-14.9-33.4-49.7-111.6-51.9-116.4
		c-2.2-4.7-4.3-9.4-6.2-13.6l-0.2-0.4h-22.6l-0.1,1.3c5.5,0.8,9.8,5.8,9.8,11.2v0.7c0,0.4,0,0.9,0,1.3c-0.2,1.6-0.5,2.5-1.1,3.9
		c-3.5,7.9-7.1,15.9-10.6,23.9c-6.9,15.5-14,31.5-21,47.2l-2.5,5.5c-2.7,6.1-5.5,12.1-8.2,18.1c-0.9,2-1.8,4.1-2.6,6.1l-0.8,2
		c-0.7,1.7-1.5,3.5-2.3,5.1l-0.1,0.2c-3.1,6.5-7.7,13.4-17.9,16l-4.9,1.3h37.8l0.1-1.3c-5.6-0.6-9.2-2.4-10.8-5.2
		c-1.4-2.4-1.3-5.5,0.3-9.3l10.2-23c0.3-0.7,0.6-1.4,0.9-2.1c0.2-0.4,0.4-0.8,0.5-1.2c0.3-0.6,0.6-1.1,0.9-1.7l0.1-0.2
		c0.5-1,2.5-2.1,3.8-2.2c0.7-0.1,1.5-0.1,2.3-0.2c0.3,0,0.6,0,0.9,0h52.8c1.5,0,3.1,0,4.6,0h0.9c0.3,0,0.6,0,0.8,0h0.1
		c0.8,0,1.5,0.1,2.3,0.2c1.3,0.1,3.3,1.2,3.8,2.2l0.4,0.8c0.7,1.5,1.3,2.9,1.9,4.4c3.5,7.7,7.2,16.3,11.6,26.8
		c0.8,2.1,1.8,4.8,1.2,6.5C174.6,261,172.7,263,170.8,263.4 M156.1,213.1c-0.2,0.3-0.6,0.5-1,0.5H92.7c-0.4,0-0.7-0.2-0.9-0.5
		c-0.2-0.3-0.3-0.7-0.1-1.1l31.3-70c0.2-0.4,0.6-0.7,1-0.7s0.8,0.2,1,0.6l8.7,19.7c6.9,15.6,15.8,35.6,22.4,50.4
		C156.3,212.3,156.3,212.7,156.1,213.1"/>
	<path class="st0" d="M1272.6,246.4c0.1-32,0-107.7-0.1-109.8c-0.2-4.3-0.8-9.2-5.1-12.5c-0.9-0.7-2-1.3-3.2-1.8l-2.8-1.2l36.3,0
		l-2.4,1.2c-1,0.5-2,1.1-2.8,1.8c-5,4-5,10-5,15.3c-0.1,32.4-0.1,96-0.1,98.7v2.4c0,3,0.1,7.1,0.2,8.7c0.2,4.5,0.8,9.2,5.1,12.5
		c0.9,0.7,2,1.3,3.2,1.8l2.8,1.2h-36.3l2.3-1.2c1.1-0.5,2-1.2,2.8-1.8C1272.6,257.7,1272.6,251.7,1272.6,246.4"/>
	<path class="st0" d="M1376.2,198.8c0,4.1-3.3,7.4-7.4,7.4c-4.1,0-7.4-3.3-7.4-7.4c0-4.1,3.3-7.4,7.4-7.4
		C1372.9,191.4,1376.2,194.7,1376.2,198.8"/>
	<path class="st0" d="M1376.2,257.3c0,4.1-3.3,7.4-7.4,7.4c-4.1,0-7.4-3.3-7.4-7.4c0-4.1,3.3-7.4,7.4-7.4
		C1372.9,249.9,1376.2,253.2,1376.2,257.3"/>
	<polygon class="st0" points="149.6,71 132.6,109.7 127.2,109.7 144.1,71 	"/>
	<path class="st0" d="M153.9,218.4h-60c0.3,0,0.6,0,0.9,0h52.8c1.5,0,3.1,0,4.6,0h0.9C153.4,218.4,153.7,218.4,153.9,218.4"/>
	<path class="st0" d="M758.6,264.5c-3.7-0.2-7.4-0.6-11-1.3c-8.9-1.8-17.2-5.1-24.8-10.1c-7.6-5-14.1-11.2-19-18.9
		c-6.1-9.5-9.3-20.1-10.6-31.2c-0.3-2.4-0.4-4.7-0.6-7.1c0-0.5-0.1-1-0.2-1.5v-5.1c0.1-0.6,0.2-1.3,0.2-1.9
		c0.2-3.7,0.6-7.4,1.3-11.1c1.9-9.6,5.6-18.5,11.2-26.6c4.8-7,10.7-12.9,17.9-17.5c9.8-6.3,20.8-9.8,32.3-10.9
		c1.7-0.2,7.8-0.4,9.2-0.4c2,0,5.7,0.2,7.6,0.4c4.3,0.4,6.6,0.8,10.7,1.7c10.6,2.4,20.1,6.9,28.5,13.7c8.2,6.7,14.5,14.9,18.7,24.6
		c3.6,8.3,5.2,17.1,5.8,26.1c0.1,1.9,0.1,3.9,0.2,5.8c0.1,4.7-0.2,9.3-1,14c-1.4,8.5-4.3,16.5-8.6,24c-3.7,6.3-8.2,12-13.7,16.8
		c-6.8,5.9-14.5,10-23.1,12.7c-4.1,1.3-8.1,2.5-12.4,3C774.5,264.1,770.4,264.8,758.6,264.5 M819.4,194.1c-0.1-3.6-0.2-7.3-0.6-10.9
		c-0.4-4.5-1.1-9-2.2-13.4c-1.7-7.3-4.4-14.2-8.3-20.6c-3.3-5.6-7.5-10.4-12.8-14.1c-7.8-5.6-16.5-8.5-26-9.1
		c-3.8-0.3-7.6-0.2-11.4,0.1c-4.4,0.3-8.6,1.2-12.7,2.7c-7.8,2.7-14.5,7.1-19.9,13.2c-3.5,4-6.3,8.4-8.6,13.1
		c-3.5,7.2-5.6,14.9-6.8,22.8c-0.6,4-0.9,8.1-1.1,12.1c-0.3,7,0.2,13.9,1.4,20.8c1.5,7.9,4,15.5,7.8,22.6c2.4,4.5,5.3,8.8,8.9,12.4
		c9.1,9,20.2,13.4,32.9,14.1c1.9,0.1,3.8,0,5.7,0.1c3.9,0,7.7-0.4,11.5-1.2c7-1.5,13.4-4.4,19.2-8.7c4.6-3.5,8.3-7.8,11.4-12.6
		c6.3-9.8,9.8-20.6,11.1-32.1C819.3,201.5,819.5,197.8,819.4,194.1"/>
	<path class="st0" d="M1031.1,134.7c-7.2-7.2-16.7-11.8-27.4-13.2c-2.1-0.3-4-0.4-5.8-0.5c-0.5,0-2,0-5.2,0h-34.5
		c-6.6,0-12.7,0-18.1,0h-17.6l2.6,1.2c4.5,2.1,7.1,6.4,7.6,12.8c0.3,3.6,0.3,7.4,0.3,11v25.8c0,24.5,0,49.9,0,73.3v0.5
		c0,7-0.1,13.7-7.9,18l-2.2,1.2h36.3l-2.6-1.2c-7-3.2-8.1-8.5-8.2-13.2c-0.2-9.3-0.3-20-0.4-30.4c-0.1-6.9-0.1-13.5-0.2-19.7v-0.1
		c0.2-1.7,0.7-2.6,3-2.6h3.2l0.5,0c11.8,0.1,24,0.3,36-0.4c0.5,0,1.2,0,1.7-0.1c0.1,0,0.3,0,0.4,0h0.3c8.9-0.6,17.4-2.3,24.4-4.9
		c11.5-4.3,19.2-13.3,21.8-25.3c0.6-2.7,0.9-5.5,0.9-8.2C1040,149.2,1036.8,140.3,1031.1,134.7 M947.8,132.8v-3.6
		c0-2.3,0.5-3.4,3.1-3.4H996c5.1,0,9.8,1.2,13.6,3.4c10.4,6.1,14.1,16.8,14.1,27.5c0,4.8-0.7,9.5-1.9,13.9
		c-1.6,5.6-4.2,10.3-7.7,13.9c-4.6,4.9-16.1,7.7-30.8,7.7h-32.4c-2.6,0-3.1-1.2-3.1-3.5v-5.2c0-1.1,0-2.2,0-3.3
		c0.1-5.4,0-10.8,0-16.2v-18.4C947.8,141.4,947.8,137.1,947.8,132.8"/>
	<path class="st0" d="M1228.7,219c-1.3-6-3.9-11.3-7.6-15.6c-3.7-4.3-8.5-7.6-14.2-9.7c-7-2.6-15.5-4.3-24.4-4.9c-0.1,0-0.2,0-0.3,0
		h-0.4c-0.5,0-1.1-0.1-1.7-0.1c-11.9-0.7-24.1-0.5-35.9-0.4l-3.6,0c-2.6,0-3.1-0.9-3.3-2.6v-0.2c0.1-6.1,0.2-12.8,0.2-19.7
		c0.1-10.4,0.2-21.1,0.4-30.4c0.1-4.7,1.2-10,8.2-13.2l2.6-1.2h-36.3l2.1,1.2c7.9,4.3,7.9,11,7.9,18v0.5c0.1,23.4,0.1,48.8,0,73.3
		v25.8c0,3.6,0,7.3-0.3,11c-0.5,6.4-3.1,10.7-7.6,12.8l-2.6,1.2h17.1c5.4,0,12,0,18.6,0h34.5c3.2,0,4.8,0,5.1,0
		c1.9,0,3.8-0.2,5.9-0.5c10.7-1.4,20.2-6,27.4-13.2C1228.1,243.7,1231.3,230.8,1228.7,219 M1185.6,259.9h-45.2c-2.6,0-3-1.1-3.1-3.4
		v-3.6c0-4.3,0-8.7,0-13v-18.4c0-5.4,0-10.8,0-16.2c0-1.1,0-2.2,0-3.3v-5.2c0-2.3,0.5-3.5,3.1-3.5h32.4c14.6,0,26.2,2.9,30.8,7.7
		c3.5,3.6,6.1,8.3,7.7,13.9c1.2,4.4,2,9.2,2,13.9c0,10.7-3.7,21.4-14.1,27.5C1195.5,258.7,1190.7,259.9,1185.6,259.9"/>
	<path class="st0" d="M958.2,121.6c-6.6,0-13.2,0-18.6,0v0H958.2z"/>
	<path class="st0" d="M939,122.2V121l0.6,0h18.6v1.3c-6.6,0-13.2,0-18.6,0L939,122.2z"/>
	<path class="st0" d="M614.7,124.6v0.3c0,0.3,0,0.5,0,0.8c-0.1,10.2-0.1,17.4-0.1,17.4v1.7l-1.1-1.3c-2.6-3.1-4.6-5.4-7.8-7.7
		c-13.4-9.2-20.9-10-40.6-10.2c-2.9,0-3.2,4.3-3.2,6.1v3.2c0,16.5,0,32.9,0,49.5c0,20.6,0,41.2,0.1,61.8c0,6.6,0.1,13.3,8,17.2
		l2.4,1.2h-35.5l2.4-1.2c7.9-3.8,7.9-10.6,8-17.2c0.1-20.6,0.1-41.2,0.1-61.8c0-16.5,0-33,0-49.5v-3.2c0-1.8-0.3-6.1-3.2-6.1
		c-19.7,0.2-27.3,1-40.6,10.2c-3.2,2.3-5.2,4.6-7.7,7.6l-1.1,1.3l-0.1-1.6c0,0,0-7.2-0.1-17.5c0-0.2,0-0.5,0-0.7v-0.3
		c0.3-3.6,3.2-3.6,5.3-3.6h0.3c9,0,18,0,27,0h54.9c9,0,18,0,27,0h0.6C611.9,121.1,614.5,121.2,614.7,124.6"/>
	<g>
		<path class="st0" d="M664.2,399v-47.3h6.2V399H664.2z M666.2,377.4v-5H702v5H666.2z M697.8,399v-47.3h6.1V399H697.8z"/>
		<path class="st0" d="M751,399l-16.5-44h2.4l-16.4,44h-6.2l19.4-47.3h5.2l18.6,47.3H751z M722.9,383.3l1.7-4.8h21.1l2.6,4.8H722.9z
			"/>
		<path class="st0" d="M785.7,399v-47.3h6.1V399H785.7z M787.7,356.5v-4.8h34.6v4.8H787.7z M818.2,399v-47.3h6.1V399H818.2z"/>
		<path class="st0" d="M869.7,399h-30.1v-47.3h27.8v4.9h-21.9v37.5h24.2V399z M841.6,377.3v-4.7h23.1v4.7H841.6z"/>
		<path class="st0" d="M875.5,356.5v-4.8h41.1v4.8H875.5z M892.9,399v-47.3h6.3V399H892.9z"/>
		<path class="st0" d="M956.3,399h-30.1v-47.3H954v4.9h-21.9v37.5h24.2V399z M928.2,377.3v-4.7h23.1v4.7H928.2z"/>
		<path class="st0" d="M979.3,382.4c-0.7,0-1.8,0-3.3-0.1c-1.5-0.1-2.9-0.3-4.4-0.5v-4.6c1.7,0.2,3.2,0.3,4.6,0.4
			c1.4,0.1,2.6,0.1,3.8,0.1c2.8,0,5.2-0.4,7.1-1.3c1.9-0.9,3.3-2.1,4.3-3.7c1-1.6,1.4-3.5,1.4-5.8c0-3.5-1.1-6.2-3.4-8
			c-2.3-1.8-5.2-2.7-9-2.7h-6.5V399h-6v-47.3h13.5c3.5,0,6.6,0.6,9.3,1.7c2.6,1.1,4.7,2.7,6.2,4.7c1.5,2.1,2.2,4.6,2.2,7.5
			c0,2.3-0.5,4.5-1.4,6.5c-0.9,2-2.3,3.8-4,5.4c-1.7,1.5-3.8,2.7-6.2,3.6C985,382,982.3,382.4,979.3,382.4z"/>
		<path class="st0" d="M1010,399v-47.3h27.9v4.6h-22v38.1h8.3c2.5,0,4.5-0.3,5.9-0.8c1.4-0.5,2.5-1.2,3.3-2.2
			c0.7-0.8,1.2-1.7,1.6-2.8c0.4-1.1,0.6-2.3,0.6-3.6c0-2.7-0.9-4.8-2.8-6.3c-1.8-1.5-4.8-2.3-8.9-2.3h-10.1v-4.7h11.2
			c5.3,0,9.4,1.1,12.3,3.3c2.9,2.2,4.3,5.2,4.3,9.1c0,2-0.3,3.9-1,5.6c-0.7,1.7-1.6,3.2-2.8,4.4c-1.4,1.5-3.3,2.7-5.6,3.6
			c-2.3,0.8-5.3,1.3-8.9,1.3H1010z"/>
		<path class="st0" d="M1069.1,389.6l-20.4-38h6.8l17.3,34.1L1069.1,389.6z M1061.3,399.6c-1.1,0-2.3-0.1-3.4-0.4
			c-1.1-0.3-2.2-0.7-3.2-1.2l1.3-3.3c1,0.2,1.9,0.3,2.6,0.4c0.7,0.1,1.4,0.1,2,0.1c1.3,0,2.4-0.3,3.5-1s2-1.7,2.8-3
			c0.9-1.4,1.8-3.1,2.8-5.3l15.2-34.4h6.5l-17.3,36.4c-1.2,2.4-2.4,4.5-3.5,6.3c-1.2,1.7-2.4,3-3.9,4
			C1065.3,399.2,1063.5,399.6,1061.3,399.6z"/>
		<path class="st0" d="M1112.9,382.4c-0.7,0-1.8,0-3.3-0.1c-1.5-0.1-2.9-0.3-4.4-0.5v-4.6c1.7,0.2,3.2,0.3,4.6,0.4
			c1.4,0.1,2.6,0.1,3.8,0.1c2.8,0,5.2-0.4,7.1-1.3c1.9-0.9,3.3-2.1,4.3-3.7c1-1.6,1.4-3.5,1.4-5.8c0-3.5-1.1-6.2-3.4-8
			c-2.3-1.8-5.2-2.7-9-2.7h-6.5V399h-6v-47.3h13.5c3.5,0,6.6,0.6,9.3,1.7c2.6,1.1,4.7,2.7,6.2,4.7c1.5,2.1,2.2,4.6,2.2,7.5
			c0,2.3-0.5,4.5-1.4,6.5c-0.9,2-2.3,3.8-4,5.4c-1.7,1.5-3.8,2.7-6.2,3.6C1118.5,382,1115.8,382.4,1112.9,382.4z"/>
		<path class="st0" d="M1143.6,399v-47.3h6.3V399H1143.6z M1146.4,356.5v-4.8h24.4v4.8H1146.4z"/>
		<path class="st0" d="M1201.3,399.7c-4.8,0-9.1-1-12.8-3c-3.7-2-6.5-4.8-8.6-8.3c-2-3.6-3.1-7.7-3.1-12.5c0-3.8,0.6-7.2,1.9-10.3
			c1.3-3.1,3.1-5.7,5.4-7.9c2.3-2.2,5-3.9,8.1-5c3.1-1.2,6.4-1.8,10-1.8c2.6,0,5.1,0.3,7.6,1c2.5,0.7,4.8,1.7,7,3l-2.9,5.4
			c-2.1-1.6-4.1-2.8-6.3-3.6c-2.1-0.8-4.4-1.2-6.8-1.2c-3.5,0-6.6,0.8-9.2,2.4c-2.6,1.6-4.6,3.9-6,6.8c-1.4,2.9-2.1,6.3-2.1,10.2
			c0,4.1,0.8,7.6,2.4,10.7c1.6,3,3.8,5.4,6.6,7.1c2.8,1.7,5.8,2.6,9.2,2.6c2.6,0,5-0.5,7.2-1.4c2.2-0.9,4.1-2.2,5.8-3.8l2.7,4.8
			c-2.4,1.6-4.9,2.8-7.6,3.6C1207.2,399.3,1204.3,399.7,1201.3,399.7z"/>
		<path class="st0" d="M1227.5,399v-47.3h6V399H1227.5z M1255.8,399l-23.1-24.3l21.6-23h7.4l-24.2,24.1l0.5-2.9l26,26.2H1255.8z"/>
		<path class="st0" d="M1292.5,399.7c-4.6,0-8.7-1-12.3-3.1c-3.6-2.1-6.5-4.9-8.5-8.6c-2.1-3.7-3.1-7.8-3.1-12.4
			c0-3.7,0.6-7.1,1.9-10.1s3.1-5.6,5.4-7.8c2.3-2.2,5-3.8,8-5c3-1.2,6.2-1.8,9.7-1.8c4.6,0,8.7,1,12.3,3.1c3.6,2.1,6.4,4.9,8.4,8.6
			c2,3.6,3.1,7.8,3.1,12.4c0,3.7-0.6,7.1-1.9,10.1c-1.3,3-3.1,5.6-5.3,7.8c-2.3,2.2-4.9,3.8-7.9,5S1296,399.7,1292.5,399.7z
			 M1293.6,395.2c3.5,0,6.5-0.8,9-2.4c2.6-1.6,4.6-3.9,6-6.8c1.4-2.9,2.2-6.2,2.2-10c0-4.1-0.8-7.7-2.4-10.8
			c-1.6-3.1-3.8-5.5-6.6-7.2c-2.8-1.7-5.9-2.6-9.4-2.6c-3.3,0-6.2,0.8-8.8,2.4c-2.6,1.6-4.6,3.8-6,6.7c-1.4,2.9-2.2,6.3-2.2,10.1
			c0,4.1,0.8,7.7,2.4,10.8c1.6,3.1,3.8,5.5,6.6,7.2C1287.1,394.3,1290.2,395.2,1293.6,395.2z"/>
		<path class="st0" d="M1329,399v-47.3h6.1l-0.4,47.3H1329z M1331.8,399V396l30.9-44.4h3.7v3.1l-30.9,44.2H1331.8z M1349.5,347.3
			c-2.6,0-5-0.5-7.2-1.6c-2.2-1.1-3.9-2.6-5.3-4.5l3.8-3.6c1.5,2,3,3.3,4.7,4.1c1.6,0.8,3.3,1.2,5.1,1.2c2.2,0,4-0.5,5.6-1.5
			c1.6-1,3-2.5,4.2-4.5l2.7,1.7c-1.2,2.7-3.1,4.9-5.5,6.4C1355.2,346.5,1352.5,347.3,1349.5,347.3z M1363.1,399l0.5-47.3h5.6V399
			H1363.1z"/>
	</g>
</g>
</svg>
