<svg width="238" height="51" viewBox="0 0 238 51" fill="none" xmlns="http://www.w3.org/2000/svg">
<g clip-path="url(#clip0_187_54)">
<mask id="mask0_187_54" style="mask-type:luminance" maskUnits="userSpaceOnUse" x="0" y="0" width="238" height="51">
<path d="M237.25 0.953125H0.09375V50.5403H237.25V0.953125Z" fill="white"/>
</mask>
<g mask="url(#mask0_187_54)">
<mask id="mask1_187_54" style="mask-type:luminance" maskUnits="userSpaceOnUse" x="0" y="0" width="238" height="51">
<path d="M237.25 0.953125H0.09375V50.5403H237.25V0.953125Z" fill="white"/>
</mask>
<g mask="url(#mask1_187_54)">
<mask id="mask2_187_54" style="mask-type:luminance" maskUnits="userSpaceOnUse" x="0" y="0" width="238" height="51">
<path d="M237.25 0.952148H0.09375V50.5394H237.25V0.952148Z" fill="white"/>
</mask>
<g mask="url(#mask2_187_54)">
<path d="M79.0848 49.3997C79.3492 48.6465 79.6542 47.7915 79.9797 46.8144C80.3051 45.8576 80.6508 44.9824 80.9761 44.1885H82.5219C82.7862 45.0434 83.1116 45.9595 83.4573 46.9162C83.8032 47.8729 84.1082 48.7075 84.3929 49.3793H83.315C83.0913 48.8092 82.9082 48.3818 82.8066 48.0968H80.5288C80.4068 48.4836 80.2644 48.9111 80.1221 49.3793H79.0645L79.0848 49.3997ZM80.7728 47.2622H82.5015C82.2372 46.4887 81.9931 45.7355 81.7693 45.0434H81.566C81.322 45.6745 81.0575 46.4073 80.7525 47.2622H80.7728Z" fill="white"/>
<path d="M84.6367 46.7532C84.6367 46.3257 84.6775 45.9797 84.7385 45.654C84.7995 45.3283 84.9011 45.084 85.0232 44.8805C85.1452 44.677 85.3079 44.5141 85.5317 44.3919C85.735 44.2698 85.9588 44.1884 86.2231 44.1273C86.4875 44.0663 86.7722 44.0459 87.1179 44.0459C87.4637 44.0459 87.7484 44.0663 88.0128 44.1273C88.2772 44.1884 88.5009 44.2698 88.7043 44.3919C88.9077 44.5141 89.0704 44.677 89.2128 44.8805C89.3348 45.084 89.4364 45.3486 89.4975 45.654C89.5585 45.9593 89.5991 46.3257 89.5991 46.7532C89.5991 47.2824 89.5585 47.7303 89.4568 48.0967C89.355 48.4631 89.1924 48.7278 88.989 48.9517C88.7653 49.1552 88.5212 49.2977 88.2162 49.3995C87.9111 49.4809 87.5654 49.5216 87.1179 49.5216C86.7722 49.5216 86.4875 49.5012 86.2231 49.4402C85.9588 49.3791 85.735 49.2977 85.5317 49.1756C85.3282 49.0535 85.1656 48.8906 85.0436 48.6667C84.9215 48.4631 84.8198 48.1985 84.7587 47.8728C84.6977 47.5471 84.6571 47.1807 84.6571 46.7532H84.6367ZM85.7147 46.0815C85.7147 46.2647 85.6943 46.4886 85.6943 46.7532C85.6943 47.0179 85.6943 47.2418 85.7147 47.4249C85.7147 47.6082 85.7553 47.771 85.8164 47.9135C85.857 48.056 85.918 48.1578 85.979 48.2595C86.04 48.341 86.1418 48.402 86.2435 48.4631C86.3451 48.5242 86.4875 48.5445 86.6095 48.5649C86.7316 48.5853 86.9146 48.5853 87.1179 48.5853C87.3213 48.5853 87.484 48.5853 87.6264 48.5649C87.7688 48.5445 87.8908 48.5038 87.9925 48.4631C88.0941 48.4224 88.1958 48.341 88.2568 48.2595C88.3178 48.1781 88.3788 48.056 88.4196 47.9135C88.4602 47.771 88.5009 47.6082 88.5212 47.4249C88.5212 47.2418 88.5416 47.0179 88.5416 46.7532C88.5416 46.4886 88.5416 46.2647 88.5212 46.0815C88.5009 45.8983 88.4806 45.7354 88.4196 45.5929C88.3586 45.4504 88.3178 45.3486 88.2568 45.2673C88.1958 45.1858 88.0941 45.1247 87.9925 45.084C87.8908 45.0434 87.7484 45.0026 87.6264 44.9822C87.5044 44.9619 87.3213 44.9619 87.1179 44.9619C86.9146 44.9619 86.7518 44.9619 86.6095 44.9822C86.4671 45.0026 86.3451 45.023 86.2435 45.084C86.1418 45.1451 86.04 45.2061 85.979 45.2673C85.918 45.3486 85.857 45.4504 85.8164 45.5929C85.7757 45.7354 85.735 45.8983 85.7147 46.0815Z" fill="white"/>
<path d="M92.1406 47.0792L94.1539 45.0029L94.6828 45.5525L93.3609 47.0792L94.6828 48.6262L94.1539 49.1963L92.1406 47.0996V47.0792ZM94.1743 47.0792L96.1878 45.0029L96.7165 45.5525L95.3946 47.0792L96.7165 48.6262L96.1878 49.1963L94.1743 47.0996V47.0792Z" fill="white"/>
<path d="M97.5723 49.3987V44.208H101.314V45.063H98.5688V46.2843H100.379C100.847 46.2843 101.213 46.4267 101.436 46.6914C101.66 46.956 101.762 47.3632 101.762 47.8721C101.762 48.4216 101.64 48.8084 101.416 49.0527C101.192 49.297 100.867 49.4191 100.42 49.4191H97.5926L97.5723 49.3987ZM98.5485 48.5641H100.176C100.501 48.5641 100.684 48.3199 100.684 47.8313C100.684 47.3224 100.501 47.0578 100.155 47.0578H98.5485V48.5438V48.5641Z" fill="white"/>
<path d="M102.575 48.2181C102.575 48.0146 102.595 47.8314 102.656 47.6889C102.697 47.5464 102.778 47.4243 102.839 47.3429C102.921 47.2614 103.023 47.18 103.165 47.1393C103.287 47.0782 103.429 47.0579 103.572 47.0375C103.714 47.0375 103.877 47.0171 104.06 47.0171C104.344 47.0171 104.65 47.0579 104.995 47.1189C104.995 46.9357 104.995 46.8136 104.955 46.7118C104.934 46.6101 104.873 46.5286 104.812 46.4676C104.731 46.4064 104.65 46.3658 104.528 46.3454C104.405 46.325 104.243 46.3047 104.039 46.3047C103.592 46.3047 103.206 46.3658 102.901 46.4676L102.738 45.7144C103.246 45.5922 103.734 45.5107 104.243 45.5107C104.548 45.5107 104.792 45.5311 104.995 45.5719C105.199 45.6126 105.361 45.694 105.504 45.8161C105.646 45.9383 105.748 46.0808 105.809 46.2639C105.87 46.4472 105.91 46.6915 105.91 46.9765V49.1952C105.666 49.297 105.382 49.3784 105.056 49.4192C104.731 49.4598 104.426 49.5006 104.141 49.5006C103.531 49.5006 103.124 49.4192 102.901 49.2359C102.677 49.0528 102.555 48.7066 102.555 48.2181H102.575ZM103.531 48.1775C103.531 48.4217 103.572 48.5642 103.673 48.6456C103.755 48.7066 103.958 48.7474 104.243 48.7474C104.507 48.7474 104.751 48.7066 104.995 48.6253V47.7296C104.792 47.6889 104.527 47.6685 104.243 47.6685C104.1 47.6685 103.978 47.6685 103.917 47.6685C103.836 47.6685 103.775 47.7093 103.714 47.7296C103.653 47.7499 103.612 47.811 103.592 47.8924C103.572 47.9536 103.551 48.0553 103.551 48.1775H103.531Z" fill="white"/>
<path d="M106.906 49.3995V45.6133H107.821V47.0178H109.306V45.6133H110.221V49.3995H109.306V47.7913H107.821V49.3995H106.906Z" fill="white"/>
<path d="M111.28 49.3995V45.6133H112.195V47.4453C112.561 47.0382 113.049 46.4275 113.659 45.6133H114.758C114.026 46.5904 113.558 47.1603 113.314 47.3436C113.395 47.3842 113.476 47.4046 113.538 47.4453C113.599 47.486 113.68 47.5471 113.781 47.6488C113.884 47.7506 113.964 47.8525 114.067 47.9949C114.168 48.1374 114.27 48.3206 114.412 48.5649C114.554 48.8092 114.677 49.0738 114.84 49.3995H113.762C113.599 49.0738 113.457 48.7888 113.314 48.5649C113.171 48.341 113.029 48.1578 112.907 48.0356C112.785 47.9135 112.663 47.8117 112.542 47.7506C112.419 47.6896 112.317 47.6488 112.175 47.6081V49.3587H111.26L111.28 49.3995Z" fill="white"/>
<path d="M116.871 48.5031H117.725C118.193 47.2206 118.458 45.7958 118.518 44.208H121.956V48.5031H122.931L122.769 50.5387H121.854V49.3987H117.949V50.5387H117.034L116.871 48.5031ZM118.803 48.5031H120.959V45.0426H119.413C119.312 46.3861 119.108 47.5463 118.803 48.5031Z" fill="white"/>
<path d="M123.219 46.7532C123.219 46.3257 123.26 45.9797 123.32 45.654C123.382 45.3283 123.483 45.084 123.605 44.8805C123.726 44.677 123.889 44.5141 124.113 44.3919C124.317 44.2698 124.54 44.1884 124.804 44.1273C125.07 44.0663 125.354 44.0459 125.699 44.0459C126.045 44.0459 126.33 44.0663 126.595 44.1273C126.859 44.1884 127.082 44.2698 127.286 44.3919C127.49 44.5141 127.653 44.677 127.795 44.8805C127.917 45.084 128.018 45.3486 128.079 45.654C128.14 45.9593 128.181 46.3257 128.181 46.7532C128.181 47.2824 128.14 47.7303 128.038 48.0967C127.937 48.4631 127.774 48.7278 127.571 48.9517C127.347 49.1552 127.103 49.2977 126.798 49.3995C126.493 49.4809 126.148 49.5216 125.699 49.5216C125.354 49.5216 125.07 49.5012 124.804 49.4402C124.54 49.3791 124.317 49.2977 124.113 49.1756C123.91 49.0535 123.747 48.8906 123.625 48.6667C123.503 48.4631 123.402 48.1985 123.341 47.8728C123.279 47.5471 123.239 47.1807 123.239 46.7532H123.219ZM124.297 46.0815C124.297 46.2647 124.276 46.4886 124.276 46.7532C124.276 47.0179 124.276 47.2418 124.297 47.4249C124.297 47.6082 124.337 47.771 124.398 47.9135C124.439 48.056 124.499 48.1578 124.561 48.2595C124.622 48.341 124.724 48.402 124.825 48.4631C124.927 48.5242 125.07 48.5445 125.191 48.5649C125.313 48.5853 125.497 48.5853 125.699 48.5853C125.903 48.5853 126.066 48.5853 126.208 48.5649C126.35 48.5445 126.472 48.5038 126.575 48.4631C126.676 48.4224 126.777 48.341 126.839 48.2595C126.9 48.1781 126.96 48.056 127.001 47.9135C127.042 47.771 127.082 47.6082 127.103 47.4249C127.103 47.2418 127.123 47.0179 127.123 46.7532C127.123 46.4886 127.123 46.2647 127.103 46.0815C127.082 45.8983 127.063 45.7354 127.001 45.5929C126.94 45.4504 126.9 45.3486 126.839 45.2673C126.777 45.1858 126.676 45.1247 126.575 45.084C126.472 45.0434 126.33 45.0026 126.208 44.9822C126.086 44.9619 125.903 44.9619 125.699 44.9619C125.497 44.9619 125.334 44.9619 125.191 44.9822C125.049 45.0026 124.927 45.023 124.825 45.084C124.724 45.1451 124.622 45.2061 124.561 45.2673C124.499 45.3486 124.439 45.4504 124.398 45.5929C124.357 45.7354 124.317 45.8983 124.297 46.0815Z" fill="white"/>
<path d="M129.195 49.3987V44.208H130.558C131.046 45.2257 131.535 46.3453 132.023 47.5259C132.429 46.4675 132.897 45.3479 133.466 44.208H134.727V49.3987H133.771V45.5311C133.344 46.4675 132.877 47.5871 132.328 48.9305H131.555C130.904 47.2614 130.436 46.1214 130.172 45.5311V49.3987H129.216H129.195Z" fill="white"/>
<path d="M135.848 48.8496C135.848 48.6257 135.888 48.4832 135.969 48.4221C136.05 48.3611 136.193 48.3203 136.417 48.3203C136.66 48.3203 136.803 48.3611 136.885 48.4221C136.966 48.4832 137.006 48.6257 137.006 48.8496C137.006 49.0939 136.966 49.2566 136.885 49.3178C136.803 49.3788 136.64 49.4195 136.417 49.4195C136.193 49.4195 136.05 49.3788 135.969 49.2974C135.888 49.216 135.848 49.0735 135.848 48.8292V48.8496Z" fill="white"/>
<path d="M138.145 49.3987V44.208H140.83C141.786 44.208 142.253 44.7983 142.253 45.9789C142.253 46.2028 142.233 46.4267 142.172 46.61C142.11 46.7931 142.03 46.9764 141.928 47.1393C141.826 47.302 141.663 47.4242 141.481 47.5057C141.298 47.6074 141.094 47.6482 140.85 47.6482H139.121V49.3783H138.145V49.3987ZM139.121 46.8746H140.566C140.768 46.8746 140.931 46.7931 141.032 46.6507C141.135 46.5082 141.195 46.2843 141.195 45.9789C141.195 45.3479 140.993 45.0426 140.585 45.0426H139.121V46.8746Z" fill="white"/>
<path d="M142.781 46.7931C142.781 46.4675 142.821 46.1824 142.883 45.9585C142.944 45.7346 143.066 45.5515 143.229 45.3886C143.391 45.2257 143.615 45.1036 143.899 45.0222C144.184 44.9408 144.53 44.9001 144.957 44.8593V44.208H145.933V44.8593C146.36 44.8797 146.727 44.9408 147.011 45.0222C147.296 45.1036 147.52 45.2257 147.682 45.3886C147.845 45.5515 147.967 45.7346 148.048 45.9585C148.11 46.1824 148.15 46.4675 148.15 46.7931C148.15 47.1189 148.11 47.4038 148.048 47.6278C147.987 47.8517 147.865 48.0552 147.682 48.2181C147.52 48.381 147.296 48.5031 147.011 48.5845C146.727 48.6659 146.36 48.727 145.933 48.7474V49.4191H144.957V48.7474C144.53 48.727 144.184 48.6659 143.899 48.5845C143.615 48.5031 143.391 48.381 143.229 48.2181C143.066 48.0552 142.944 47.8517 142.883 47.6278C142.821 47.4038 142.781 47.1189 142.781 46.7931ZM143.757 46.7931C143.757 46.956 143.757 47.0985 143.777 47.2206C143.777 47.3224 143.818 47.4242 143.879 47.5259C143.94 47.6278 144.002 47.6888 144.082 47.7499C144.164 47.811 144.286 47.8517 144.428 47.8721C144.571 47.8923 144.733 47.9331 144.937 47.9331V45.6736C144.672 45.6736 144.469 45.7143 144.327 45.755C144.184 45.7958 144.062 45.8568 143.981 45.9585C143.899 46.0603 143.839 46.1622 143.818 46.2843C143.798 46.4064 143.777 46.5896 143.777 46.7931H143.757ZM145.913 47.9331C146.137 47.9331 146.3 47.9127 146.442 47.8721C146.584 47.8313 146.706 47.7906 146.787 47.7499C146.889 47.6888 146.95 47.6278 146.991 47.5259C147.032 47.4242 147.073 47.3224 147.092 47.2206C147.092 47.1189 147.113 46.9764 147.113 46.7931C147.113 46.5692 147.113 46.4064 147.072 46.2639C147.032 46.1214 146.991 46.0197 146.91 45.9179C146.828 45.816 146.706 45.755 146.543 45.7143C146.381 45.6736 146.177 45.6533 145.892 45.6533V47.9331H145.913Z" fill="white"/>
<path d="M148.658 48.6262L149.981 47.0995L148.658 45.5321L149.187 44.9824L151.222 47.0587L149.208 49.135L148.679 48.5855L148.658 48.6262ZM150.692 48.6262L152.014 47.0995L150.692 45.5321L151.222 44.9824L153.255 47.0587L151.241 49.135L150.713 48.5855L150.692 48.6262Z" fill="white"/>
<path d="M63.5676 0.952148H61.0254V44.1476H63.5676V0.952148Z" fill="white"/>
<path d="M15.3266 39.0594H2.63595V33.9704H15.3266V39.0594ZM0.09375 31.4463V44.1484H2.63595V41.6039H17.8688V31.4463H0.09375Z" fill="white"/>
<path d="M40.7079 39.0582H33.1017V33.9693H40.7079V39.0582ZM22.9328 33.9693H30.5391V39.0582H22.9328V33.9693ZM20.3906 31.4248V41.5824H30.5391V44.1269H33.0813V41.5824H43.2297V31.4248H20.3906Z" fill="white"/>
<path d="M43.25 26.3564H0.09375V28.9009H43.25V26.3564Z" fill="white"/>
<path d="M39.4466 0.952148L35.6434 4.77907V0.952148H31.8199L25.4746 7.30321V23.812H28.0168V8.58565L33.1012 3.49665V23.812H35.6434V8.58565L40.7075 3.49665V23.812H43.2497V0.952148H39.4466Z" fill="white"/>
<path d="M7.72033 3.49665V21.2878H2.63595V8.58565L7.72033 3.49665ZM0.09375 23.812H10.2422V0.952148H6.43907L0.09375 7.30321V23.812Z" fill="white"/>
<path d="M15.3265 3.49665H20.4109V21.2878H15.3265V3.49665ZM22.9531 0.952148H12.8047V23.812H22.9531V0.952148Z" fill="white"/>
<path d="M85.4911 8.52441V9.90863C89.1926 10.0918 90.2297 11.3132 90.2297 14.0409C90.2297 16.7686 89.1926 18.0103 85.4911 18.1732V19.5777H83.4166V18.1732C79.7965 17.99 78.8203 16.7686 78.8203 14.0409C78.8203 11.3132 79.7965 10.0918 83.4166 9.90863V8.52441H85.4911ZM83.4166 16.4632V11.6389C81.2405 11.7203 80.9152 12.331 80.9152 14.0409C80.9152 15.7508 81.2609 16.3818 83.4166 16.4429V16.4632ZM85.4911 11.6185V16.4632C87.7689 16.4022 88.1147 15.7508 88.1147 14.0612C88.1147 12.3717 87.7892 11.7 85.4911 11.6389V11.6185Z" fill="white"/>
<path d="M101.761 19.5777H99.7064V11.5778C98.2421 14.2648 96.6558 17.0536 95.0288 19.5777H92.2832V8.52441H94.3373V16.8704C96.0457 14.102 97.7337 11.2928 99.2183 8.52441H101.74V19.5777H101.761Z" fill="white"/>
<path d="M106.661 19.5777H104.566V8.52441H106.661V12.7381H111.379V8.52441H113.434V19.5777H111.379V14.6719H106.661V19.5777Z" fill="white"/>
<path d="M122.568 16.8298H117.726C117.402 17.8069 117.116 18.7432 116.873 19.5983H114.676C115.714 16.3005 117.32 11.8426 118.662 8.54492H121.937C123.055 12.1073 124.683 16.6467 125.923 19.5983H123.605C123.279 18.8043 122.913 17.8476 122.547 16.8298H122.568ZM120.004 10.3159C119.456 11.7409 118.866 13.3693 118.297 15.0385H121.977C121.408 13.41 120.859 11.7409 120.432 10.3159H120.004Z" fill="white"/>
<path d="M129.134 19.5777H127.039V8.52441H129.134V12.7381H133.852V8.52441H135.907V19.5777H133.852V14.6719H129.134V19.5777Z" fill="white"/>
<path d="M143.331 8.25962C144.348 8.25962 145.649 8.44282 146.504 8.66674L146.036 10.4988C145.466 10.2952 144.429 10.1527 143.697 10.1527C141.298 10.1527 140.382 10.5598 140.382 13.9593C140.382 17.3587 141.277 17.888 143.697 17.888C144.45 17.888 145.466 17.7455 146.036 17.542L146.504 19.4146C145.649 19.6589 144.348 19.8014 143.331 19.8014C139.833 19.8014 138.145 18.4579 138.145 13.9389C138.145 9.41991 139.833 8.23926 143.331 8.23926V8.25962Z" fill="white"/>
<path d="M157.546 19.5777H155.491V11.5778C154.027 14.2648 152.441 17.0536 150.814 19.5777H148.068V8.52441H150.122V16.8704C151.83 14.102 153.519 11.2928 155.003 8.52441H157.525V19.5777H157.546Z" fill="white"/>
<path d="M160.354 19.5777V8.52441H166.11C168.448 8.52441 169.18 10.1529 169.18 12.3106C169.18 14.2241 168.285 15.934 166.15 15.934H162.449V19.5777H160.354ZM165.52 14.1834C166.394 14.1834 166.883 13.5523 166.883 12.2902C166.883 10.9468 166.415 10.2954 165.56 10.2954H162.429V14.1834H165.5H165.52Z" fill="white"/>
<path d="M180.954 13.9595C180.954 18.5191 179.205 19.822 175.706 19.822C172.208 19.822 170.439 18.5395 170.439 13.9595C170.439 9.37934 172.208 8.25977 175.706 8.25977C179.205 8.25977 180.954 9.46077 180.954 13.9595ZM178.737 14.0001C178.737 10.6618 178.127 10.1529 175.706 10.1529C173.286 10.1529 172.676 10.6414 172.676 14.0001C172.676 17.3589 173.286 17.9288 175.706 17.9288C178.127 17.9288 178.737 17.3182 178.737 14.0001Z" fill="white"/>
<path d="M192.101 16.5651C192.101 18.7431 191.023 19.5981 189.253 19.5981H183.213V8.52441H189.152C191.348 8.52441 191.856 9.56258 191.856 11.1707C191.856 12.6364 191.531 13.5523 189.558 13.7152C191.673 13.817 192.101 14.8958 192.101 16.5447V16.5651ZM185.307 12.9417H188.704C189.395 12.9417 189.66 12.4327 189.66 11.6185C189.66 10.7229 189.416 10.3157 188.704 10.3157H185.307V12.9417ZM188.785 17.8271C189.537 17.8271 189.842 17.2775 189.842 16.2801C189.842 15.2826 189.477 14.6515 188.725 14.6515H185.307V17.8474H188.785V17.8271Z" fill="white"/>
<path d="M200.826 16.8298H195.986C195.661 17.8069 195.376 18.7432 195.132 19.5983H192.936C193.973 16.3005 195.58 11.8426 196.922 8.54492H200.196C201.315 12.1073 202.941 16.6467 204.182 19.5983H201.863C201.539 18.8043 201.172 17.8476 200.806 16.8298H200.826ZM198.264 10.3159C197.715 11.7409 197.126 13.3693 196.555 15.0385H200.237C199.668 13.41 199.118 11.7409 198.691 10.3159H198.264Z" fill="white"/>
<path d="M207.395 19.5777H205.301V8.52441H207.395V12.7381H212.114V8.52441H214.168V19.5777H212.114V14.6719H207.395V19.5777Z" fill="white"/>
<path d="M226.429 19.5777H224.374V11.5778C222.91 14.2648 221.323 17.0536 219.697 19.5777H216.951V8.52441H219.006V16.8704C220.713 14.102 222.401 11.2928 223.887 8.52441H226.408V19.5777H226.429Z" fill="white"/>
<path d="M237.25 8.52441V10.3361H231.332V12.8806H235.562V14.6719H231.332V17.7661H237.25V19.5777H229.236V8.52441H237.25Z" fill="white"/>
<path d="M84.2701 24.6669C85.2869 24.6669 86.5885 24.85 87.4427 25.0739L86.9749 26.9059C86.4054 26.7024 85.3683 26.5599 84.6361 26.5599C82.2362 26.5599 81.3211 26.9671 81.3211 30.3665C81.3211 33.7659 82.216 34.2952 84.6361 34.2952C85.3886 34.2952 86.4054 34.1527 86.9749 33.9492L87.4427 35.8219C86.5885 36.0662 85.2869 36.2086 84.2701 36.2086C80.772 36.2086 79.084 34.8651 79.084 30.3461C79.084 25.8271 80.772 24.6465 84.2701 24.6465V24.6669Z" fill="white"/>
<path d="M91.4093 36.0055V26.7638H87.6875V24.9521H97.2462V26.7638H93.5245V36.0055H91.4093Z" fill="white"/>
<path d="M98.6699 36.0055V24.9521H104.425C106.764 24.9521 107.496 26.5805 107.496 28.7383C107.496 30.6518 106.602 32.3617 104.466 32.3617H100.765V36.0055H98.6699ZM103.836 30.6111C104.71 30.6111 105.198 29.9801 105.198 28.718C105.198 27.3745 104.731 26.7231 103.876 26.7231H100.744V30.6111H103.815H103.836Z" fill="white"/>
<path d="M119.29 30.3667C119.29 34.9265 117.542 36.2292 114.043 36.2292C110.545 36.2292 108.775 34.9467 108.775 30.3667C108.775 25.7866 110.545 24.667 114.043 24.667C117.542 24.667 119.29 25.868 119.29 30.3667ZM117.074 30.4074C117.074 27.0691 116.464 26.5601 114.043 26.5601C111.623 26.5601 111.013 27.0487 111.013 30.4074C111.013 33.7661 111.623 34.3361 114.043 34.3361C116.464 34.3361 117.074 33.7254 117.074 30.4074Z" fill="white"/>
<path d="M131.005 36.0055H128.951V28.0055C127.486 30.6925 125.901 33.4813 124.273 36.0055H121.527V24.9521H123.582V33.2981C125.291 30.5296 126.979 27.7205 128.463 24.9521H130.984V36.0055H131.005Z" fill="white"/>
<path d="M136.192 36.0055V26.7638H132.471V24.9521H142.029V26.7638H138.307V36.0055H136.192Z" fill="white"/>
<path d="M151.486 24.9307V26.7424H145.568V29.2869H149.798V31.0782H145.568V34.1723H151.486V35.984H143.473V24.9307H151.486Z" fill="white"/>
<path d="M156.531 26.7424C156.308 29.5922 155.636 32.951 154.579 35.984H152.383C153.46 32.7067 154.436 28.9611 154.62 24.9307H162.043V35.984H159.989V26.7424H156.551H156.531Z" fill="white"/>
<path d="M166.903 24.9307V28.8594H170.747C172.924 28.8594 173.716 30.4269 173.716 32.4217C173.716 34.6609 172.821 35.984 170.849 35.984H164.809V24.9307H166.903ZM170.259 34.2334C171.093 34.2334 171.438 33.6227 171.438 32.442C171.438 31.2614 171.011 30.61 170.197 30.61H166.883V34.2334H170.238H170.259Z" fill="white"/>
<path d="M180.325 24.6669C181.341 24.6669 182.644 24.85 183.497 25.0739L183.029 26.9059C182.46 26.7024 181.423 26.5599 180.69 26.5599C178.291 26.5599 177.375 26.9671 177.375 30.3665C177.375 33.7659 178.27 34.2952 180.69 34.2952C181.443 34.2952 182.46 34.1527 183.029 33.9492L183.497 35.8219C182.644 36.0662 181.341 36.2086 180.325 36.2086C176.827 36.2086 175.139 34.8651 175.139 30.3461C175.139 25.8271 176.827 24.6465 180.325 24.6465V24.6669Z" fill="white"/>
<path d="M187.463 36.0055V26.7638H183.742V24.9521H193.301V26.7638H189.578V36.0055H187.463Z" fill="white"/>
<path d="M203.632 32.9723C203.632 35.1505 202.554 36.0055 200.784 36.0055H194.744V24.9521H200.683C202.88 24.9521 203.387 25.9902 203.387 27.5984C203.387 29.064 203.062 29.9801 201.089 30.1428C203.204 30.2447 203.632 31.3236 203.632 32.9723ZM196.839 29.349H200.235C200.926 29.349 201.192 28.8401 201.192 28.0259C201.192 27.1302 200.947 26.7231 200.235 26.7231H196.839V29.349ZM200.316 34.2344C201.07 34.2344 201.375 33.6849 201.375 32.6874C201.375 31.69 201.008 31.0589 200.256 31.0589H196.839V34.2548H200.316V34.2344Z" fill="white"/>
<path d="M212.357 33.237H207.516C207.19 34.2141 206.905 35.1505 206.662 36.0055H204.465C205.503 32.7078 207.109 28.2498 208.451 24.9521H211.726C212.844 28.5144 214.472 33.0538 215.711 36.0055H213.394C213.068 35.2115 212.702 34.2548 212.336 33.237H212.357ZM209.793 26.7231C209.245 28.148 208.655 29.7764 208.086 31.4457H211.766C211.197 29.8172 210.648 28.148 210.221 26.7231H209.793Z" fill="white"/>
</g>
</g>
</g>
</g>
<defs>
<clipPath id="clip0_187_54">
<rect width="238" height="51" fill="white"/>
</clipPath>
</defs>
</svg>
