<svg width="270" height="64" viewBox="0 0 270 64" fill="none" xmlns="http://www.w3.org/2000/svg">
<g clip-path="url(#clip0_313_30)">
<path d="M20.6803 0L17.2336 7.73507H16.1299L19.5682 0H20.6803Z" fill="black"/>
<path fill-rule="evenodd" clip-rule="evenodd" d="M72.4571 24.5165C70.9205 22.8543 68.9679 21.8268 66.1154 21.192C65.9627 21.1585 65.6995 21.1001 65.4703 21.0416C65.6995 20.9748 65.9797 20.8913 66.2512 20.7995C67.0408 20.5321 68.3482 20.0894 69.265 19.3125C70.4534 18.4439 71.0988 16.9402 70.9884 15.303C70.8696 13.5487 69.9442 12.0285 68.5094 11.235C67.5077 10.6836 66.0137 10.0154 64.5959 9.9987C64.227 9.9987 63.8221 9.99225 63.3893 9.98538C63.1251 9.98116 62.8501 9.9768 62.5668 9.97363H55.5037C54.4002 9.97363 53.3729 9.97363 52.5069 9.99035H49.3148L49.8329 10.2326C50.8515 10.692 51.3693 11.6192 51.3693 12.9891C51.4118 20.39 51.4202 28.4509 51.4202 34.6574C51.4202 36.0272 51.4203 37.5726 49.7309 38.4582L49.2896 38.6919H49.7902C49.7902 38.6919 51.9806 38.7086 54.6716 38.7086C57.5752 38.7086 61.1151 38.6919 63.3139 38.6168C65.224 38.55 67.1935 38.2075 69.0358 37.6228C71.6081 36.8041 73.5693 34.7242 74.2824 32.0512C75.0124 29.3363 74.3247 26.5129 72.4571 24.5082V24.5165ZM54.5358 19.7804C54.5529 18.8866 54.5529 17.9677 54.5358 17.0906V14.9522C54.5358 14.6848 54.5368 14.406 54.5377 14.1225V14.1075C54.5397 13.5186 54.5417 12.9093 54.5358 12.3376V11.6526C54.5358 11.1681 54.6294 10.9343 55.1556 10.9343H62.6433C65.2071 10.9343 67.3804 12.8304 67.601 15.2528V15.303C67.7794 17.4664 67.0409 19.1538 65.5892 19.9222C64.7147 20.39 63.0254 20.5572 62.1085 20.5572H55.1472C54.6294 20.5572 54.5358 20.3317 54.5274 19.8889V19.7804H54.5358ZM71.1158 30.9737C70.8271 33.7302 70.1565 35.5594 67.5332 36.8208C67.5138 36.8324 67.4819 36.8491 67.452 36.8646C67.417 36.8831 67.3851 36.8998 67.3805 36.9043C66.2258 37.3554 62.983 37.7313 62.117 37.7313H55.0623C54.6462 37.7062 54.5274 37.5309 54.5358 36.9629V36.3363C54.5529 34.7826 54.5529 33.204 54.5358 31.6752V28.1168C54.5358 27.5482 54.5367 26.9731 54.5378 26.3958V26.3935C54.5396 25.233 54.5415 24.064 54.5358 22.9212V22.2111C54.5358 21.9188 54.5784 21.7517 54.6803 21.6514C54.7737 21.5596 54.9264 21.5177 55.1556 21.5177H62.0236C63.5177 21.5177 65.5975 21.9856 67.3294 22.7206C69.7744 23.748 71.1921 26.3459 71.1921 29.6537C71.1921 30.0797 71.1665 30.5226 71.1158 30.9737Z" fill="black"/>
<path fill-rule="evenodd" clip-rule="evenodd" d="M24.9759 38.4499L23.8043 38.7006H31.8862L31.2411 38.4583C30.0526 38.0072 29.5008 36.9881 29.0763 36.061C27.6593 32.9357 25.3521 27.8382 23.2555 23.2058L23.2438 23.18C20.8734 17.9429 18.775 13.3067 18.541 12.7973C18.0995 11.8534 17.6665 10.9262 17.2846 10.0742L17.2505 9.99902H12.6577L12.6408 10.2496C13.7529 10.4166 14.6272 11.4023 14.6272 12.4799V12.6135C14.6272 12.6408 14.6281 12.6698 14.6291 12.6995C14.6311 12.7607 14.6331 12.8246 14.6272 12.8808C14.5933 13.2066 14.5339 13.3737 14.398 13.6576C14.0417 14.4507 13.6834 15.2457 13.325 16.0407L13.3229 16.0455C12.9646 16.8401 12.6064 17.6348 12.2503 18.4274C10.858 21.5264 9.41479 24.7256 7.98008 27.8665L7.47919 28.9607C6.92739 30.1719 6.36707 31.3833 5.80678 32.5861C5.67307 32.8805 5.53934 33.189 5.40563 33.4977C5.36107 33.6006 5.31651 33.7033 5.27193 33.8056L5.11065 34.1981C4.96632 34.5406 4.8135 34.8915 4.63523 35.2256L4.61825 35.2591C3.99004 36.5538 3.06468 37.9405 0.99326 38.4499L0 38.7006H7.68293L7.69991 38.4499C6.57083 38.3248 5.83225 37.9739 5.50116 37.4143C5.221 36.9381 5.23798 36.3117 5.56057 35.5514L7.64048 30.9655C7.69991 30.8236 7.75934 30.6899 7.82726 30.5478C7.85695 30.4895 7.88247 30.4311 7.90675 30.3755C7.9172 30.3517 7.92741 30.3282 7.93763 30.3056C7.9884 30.2182 8.02969 30.1354 8.07214 30.0503L8.09571 30.0031L8.1159 29.9631L8.13288 29.9214C8.22626 29.7126 8.63376 29.5036 8.90542 29.4787C9.04287 29.4627 9.1957 29.4545 9.34196 29.4465L9.36385 29.4452H21.5717C21.7329 29.4452 21.8858 29.462 22.0301 29.4787C22.3017 29.5036 22.7093 29.7126 22.8026 29.9214L22.8791 30.08C23.0148 30.3725 23.1506 30.6648 23.2695 30.9655C23.9826 32.5109 24.7298 34.2149 25.6296 36.3282C25.7994 36.746 25.9862 37.2806 25.8672 37.6314C25.757 37.9572 25.3664 38.3664 24.9759 38.4499ZM21.9962 28.3843C21.9536 28.4429 21.8774 28.4847 21.8009 28.4847H9.12613C9.04972 28.4847 8.98182 28.4512 8.93938 28.3843C8.89693 28.3175 8.88844 28.2424 8.9224 28.1671L15.2809 14.184C15.3235 14.1004 15.3997 14.0503 15.4933 14.0503C15.5866 14.0503 15.6631 14.092 15.697 14.1756L17.4712 18.1099C18.872 21.2258 20.6803 25.2269 22.013 28.1755C22.0385 28.2424 22.0385 28.3175 21.9962 28.3843Z" fill="black"/>
<path d="M248.664 13.0976C248.689 13.532 248.715 28.6428 248.689 35.0414V35.0715C248.68 36.125 248.671 37.3127 247.67 38.1071C247.508 38.2325 247.323 38.3576 247.101 38.4664L246.626 38.7001H253.994L253.435 38.458C253.189 38.3576 252.967 38.2325 252.78 38.0988C251.907 37.4389 251.788 36.5033 251.746 35.6011C251.737 35.267 251.72 34.4567 251.711 33.8554V32.9176C251.709 30.5169 251.706 19.5191 251.728 13.6573C251.728 12.5964 251.737 11.3852 252.747 10.5916C252.909 10.458 253.103 10.3327 253.306 10.2325L253.791 9.99023H246.423L246.982 10.2325C247.23 10.341 247.45 10.458 247.628 10.6C248.511 11.2599 248.629 12.2289 248.664 13.0976Z" fill="black"/>
<path d="M269.725 25.5274C269.725 26.346 269.056 27.0143 268.223 27.0143C267.391 27.0143 266.72 26.346 266.72 25.5274C266.72 24.7087 267.391 24.0488 268.223 24.0488C269.056 24.0488 269.725 24.717 269.725 25.5274Z" fill="black"/>
<path d="M269.725 37.2216C269.725 38.0383 269.054 38.7002 268.223 38.7002C267.393 38.7002 266.72 38.0383 266.72 37.2216C266.72 36.4051 267.393 35.7432 268.223 35.7432C269.054 35.7432 269.725 36.4051 269.725 37.2216Z" fill="black"/>
<path fill-rule="evenodd" clip-rule="evenodd" d="M144.32 38.6581C143.565 38.6246 142.826 38.5328 142.088 38.3907C140.279 38.0399 138.598 37.3716 137.045 36.3776C135.491 35.3836 134.184 34.1473 133.182 32.6103C131.934 30.7058 131.289 28.6008 131.034 26.3705C131.004 26.0889 130.983 25.8075 130.962 25.5278C130.947 25.3343 130.933 25.1417 130.915 24.9504C130.915 24.8752 130.901 24.8001 130.887 24.7248C130.882 24.6999 130.877 24.6748 130.873 24.6497V23.6306C130.877 23.595 130.883 23.5599 130.888 23.5252C130.902 23.4296 130.915 23.336 130.915 23.2381C130.949 22.4945 131.043 21.7595 131.187 21.0245C131.569 19.1032 132.333 17.3324 133.454 15.7201C134.43 14.3169 135.627 13.1473 137.079 12.2369C139.074 10.9839 141.29 10.2822 143.633 10.065C143.981 10.0316 145.229 9.98145 145.509 9.98145C145.861 9.98145 146.483 10.0204 146.905 10.0468L147.062 10.0567C147.937 10.1402 148.395 10.207 149.227 10.3908C151.375 10.8586 153.311 11.7607 155.017 13.1306C156.681 14.4755 157.954 16.1045 158.803 18.0507C159.525 19.7129 159.856 21.4672 159.975 23.2632C159.994 23.5503 159.999 23.8422 160.003 24.1317V24.137C160.005 24.233 160.007 24.3289 160.009 24.4242C160.026 25.3598 159.958 26.2952 159.805 27.2141C159.516 28.9182 158.939 30.5137 158.056 32.0088C157.309 33.2786 156.392 34.4147 155.272 35.3752C153.896 36.5531 152.326 37.38 150.586 37.9145C149.745 38.1735 148.93 38.4074 148.056 38.516L147.956 38.529C147.43 38.5986 146.566 38.7129 144.303 38.6581H144.32ZM156.672 24.5829C156.655 23.8561 156.621 23.1295 156.554 22.4027C156.46 21.5005 156.324 20.6067 156.104 19.7297C155.747 18.2762 155.204 16.8979 154.414 15.6115C153.735 14.5006 152.886 13.54 151.816 12.7882C150.237 11.6772 148.463 11.0841 146.536 10.9588C145.772 10.9087 144.999 10.917 144.227 10.9755C143.344 11.0423 142.478 11.2261 141.638 11.5185C140.067 12.0614 138.7 12.9302 137.597 14.1665C136.883 14.96 136.323 15.8455 135.848 16.7976C135.135 18.2345 134.71 19.7631 134.473 21.3503C134.354 22.152 134.286 22.9623 134.252 23.7726C134.201 25.1675 134.286 26.5459 134.54 27.9242C134.838 29.503 135.355 31.0148 136.119 32.4348C136.603 33.3454 137.189 34.1808 137.928 34.9074C139.77 36.7117 142.028 37.5888 144.6 37.7225C144.819 37.7321 145.04 37.7306 145.261 37.7292C145.426 37.7283 145.591 37.7273 145.755 37.7308C146.536 37.7308 147.317 37.6557 148.081 37.4969C149.507 37.1879 150.806 36.6199 151.969 35.7512C152.903 35.0578 153.659 34.1975 154.295 33.2368C155.577 31.2822 156.273 29.127 156.545 26.83C156.63 26.0864 156.664 25.3514 156.647 24.5997L156.672 24.5829Z" fill="black"/>
<path fill-rule="evenodd" clip-rule="evenodd" d="M194.103 10.0817C196.276 10.3657 198.203 11.2846 199.663 12.7213H199.672C200.818 13.8491 201.464 15.6283 201.464 17.4659C201.464 18.0172 201.403 18.5687 201.284 19.1116C200.758 21.5172 199.188 23.3048 196.861 24.1652C195.434 24.6915 193.72 25.034 191.912 25.151H191.844C191.819 25.1593 191.793 25.1593 191.767 25.1593C191.666 25.1759 191.538 25.1759 191.428 25.1759C189.123 25.3033 186.763 25.2866 184.467 25.2702L184.128 25.2679H183.363C182.896 25.2679 182.786 25.4516 182.753 25.7858V25.8109C182.76 26.4681 182.768 27.1564 182.775 27.8644V27.8719V27.8751V27.8777C182.78 28.4881 182.786 29.1131 182.795 29.7453C182.812 31.8168 182.837 33.9552 182.87 35.8179C182.896 36.7619 183.109 37.8143 184.535 38.4576L185.069 38.6997H177.692L178.134 38.4658C179.729 37.6055 179.747 36.2774 179.747 34.8741V14.9684C179.746 14.8765 179.744 14.7842 179.744 14.6916C179.736 14.06 179.731 13.4136 179.68 12.7798C179.568 11.5101 179.051 10.6497 178.134 10.2321L177.607 9.98979H181.191C182.285 9.98144 183.508 9.98145 184.858 9.98145H191.87C192.523 9.98145 192.838 9.98144 192.932 9.98979C193.296 9.99814 193.678 10.0316 194.103 10.0817ZM182.735 11.6271V12.3454C182.744 13.2058 182.744 14.0746 182.744 14.9349V18.602C182.744 18.8709 182.744 19.1404 182.744 19.4101C182.746 20.2203 182.747 21.0327 182.735 21.8346C182.74 21.9792 182.738 22.1237 182.736 22.2683C182.736 22.3407 182.735 22.4139 182.735 22.4862V23.522C182.744 23.9814 182.845 24.2153 183.363 24.2153H189.943C192.913 24.2153 195.249 23.6389 196.19 22.67C196.903 21.9432 197.43 21.0078 197.752 19.8884C198 19.0114 198.143 18.0674 198.143 17.1152C198.143 14.9768 197.397 12.8466 195.282 11.6271C194.518 11.176 193.559 10.9421 192.523 10.9421H183.354C182.837 10.9421 182.744 11.1593 182.735 11.6271Z" fill="black"/>
<path fill-rule="evenodd" clip-rule="evenodd" d="M239.784 29.5697C239.522 28.3669 238.995 27.3143 238.247 26.4624C237.501 25.6021 236.524 24.942 235.361 24.516C233.934 23.9898 232.22 23.6473 230.403 23.5304C230.386 23.5304 230.37 23.5304 230.353 23.522H230.276C230.221 23.522 230.164 23.5179 230.106 23.5136C230.049 23.5095 229.992 23.5053 229.937 23.5053C227.517 23.3718 225.037 23.3967 222.645 23.4218H221.915C221.396 23.4218 221.286 23.2381 221.251 22.9039V22.8705C221.269 21.6426 221.286 20.3061 221.295 18.9361C221.302 18.2815 221.31 17.6202 221.317 16.9632C221.332 15.5407 221.348 14.1374 221.37 12.8633C221.396 11.9194 221.609 10.8669 223.042 10.2237L223.569 9.98145H216.201L216.634 10.2154C218.229 11.0758 218.238 12.4039 218.247 13.8072V13.9074C218.264 18.5769 218.264 23.6473 218.255 28.5506V33.7129C218.255 34.4314 218.247 35.1748 218.187 35.9014C218.086 37.1712 217.56 38.0315 216.643 38.4493L216.124 38.6914H219.588C220.692 38.6997 222.016 38.6997 223.365 38.6997H230.377C231.032 38.6997 231.354 38.6997 231.422 38.6914C231.804 38.6914 232.187 38.6497 232.611 38.5995C234.793 38.3156 236.711 37.3967 238.172 35.96C239.632 34.5232 240.303 31.9337 239.784 29.5697ZM231.032 37.7392H221.863C221.344 37.7392 221.251 37.5137 221.244 37.0542V30.0794C221.251 29.0017 221.251 27.9158 221.244 26.8465V25.1593C221.244 24.6999 221.354 24.466 221.871 24.466H228.452C231.422 24.466 233.766 25.0424 234.708 26.0113C235.412 26.7379 235.939 27.6736 236.261 28.7929C236.507 29.67 236.661 30.6223 236.661 31.5661C236.661 33.7046 235.904 35.8347 233.799 37.0542C233.027 37.5053 232.068 37.7392 231.032 37.7392Z" fill="black"/>
<path d="M115.116 10.7757V10.7173C115.074 10.0407 114.531 10.0156 114.098 10.0156H113.97C112.753 10.0212 111.532 10.0193 110.313 10.0175C109.703 10.0165 109.094 10.0156 108.486 10.0156H97.3479C96.7399 10.0156 96.1309 10.0165 95.5216 10.0175C94.3018 10.0193 93.081 10.0212 91.8638 10.0156H91.7815C91.3579 10.0155 90.7682 10.0154 90.7178 10.7256V10.7757C90.7093 10.8259 90.7093 10.876 90.7178 10.9177C90.7432 12.9643 90.7432 14.4094 90.7432 14.4094L90.7601 14.7268L90.9893 14.4678L91.0049 14.4499C91.507 13.8653 91.9043 13.4024 92.5514 12.9559C95.268 11.1266 96.7962 10.9595 100.803 10.9261C101.397 10.9261 101.457 11.7865 101.457 12.154V12.7972C101.448 16.0884 101.448 19.3795 101.448 22.6791C101.448 26.7889 101.448 30.907 101.431 35.0251C101.423 36.3363 101.414 37.6899 99.81 38.4582L99.3175 38.7005H106.517L106.024 38.4582C104.42 37.6899 104.411 36.337 104.403 35.0258C104.386 30.9077 104.386 26.7889 104.386 22.6791C104.386 19.3795 104.386 16.0884 104.377 12.7972V12.154C104.377 11.7865 104.437 10.9261 105.031 10.9261C109.038 10.9595 110.566 11.1266 113.283 12.9559C113.923 13.3976 114.318 13.8551 114.837 14.4543L114.87 14.4929L115.091 14.7519V14.4094C115.091 14.4094 115.099 12.9643 115.116 10.9345C115.122 10.8951 115.12 10.8596 115.118 10.8253C115.117 10.8086 115.116 10.7922 115.116 10.7757Z" fill="black"/>
<path d="M123.138 63.3104V52.2939H124.707V56.9365H129.628V52.2939H131.197V63.3104H129.628V58.5103H124.707V63.3104H123.138Z" fill="black"/>
<path d="M132.761 63.3104L136.755 52.2939H138.466L142.46 63.3104H140.82L139.821 60.4775H135.4L134.401 63.3104H132.761ZM135.97 58.9038H139.251L137.61 54.3398L135.97 58.9038Z" fill="black"/>
<path d="M146.595 63.3104V52.2939H154.654V63.3104H153.085V53.9463H148.164V63.3104H146.595Z" fill="black"/>
<path d="M157.502 63.3104V52.2939H164.562V53.9463H159.071V56.7791H163.421V58.4316H159.071V61.6579H164.705V63.3104H157.502Z" fill="black"/>
<path d="M168.633 63.3104V53.9463H165.638V52.2939H173.197V53.9463H170.202V63.3104H168.633Z" fill="black"/>
<path d="M174.913 63.3104V52.2939H181.974V53.9463H176.482V56.7791H180.833V58.4316H176.482V61.6579H182.117V63.3104H174.913Z" fill="black"/>
<path d="M184.19 63.3104V52.2939H188.184C189.145 52.2939 189.944 52.6348 190.581 53.3168C191.218 53.9988 191.536 54.8381 191.536 55.8349C191.536 56.8316 191.218 57.671 190.581 58.3529C189.944 59.0349 189.145 59.3759 188.184 59.3759H185.759V63.3104H184.19ZM185.759 57.8021H188.184C188.679 57.8021 189.097 57.6133 189.44 57.2355C189.791 56.8578 189.967 56.3909 189.967 55.8349C189.967 55.2788 189.791 54.8119 189.44 54.4342C189.097 54.0565 188.679 53.8676 188.184 53.8676H185.759V57.8021Z" fill="black"/>
<path d="M195.176 61.7366H197.743C198.2 61.7366 198.585 61.5635 198.899 61.2172C199.222 60.8605 199.384 60.4303 199.384 59.9267C199.384 59.4231 199.222 58.9982 198.899 58.652C198.585 58.2952 198.2 58.1169 197.743 58.1169H195.176V61.7366ZM193.607 63.3104V52.2939H200.168V53.9463H195.176V56.5431H197.743C198.666 56.5431 199.431 56.8683 200.04 57.5188C200.648 58.1693 200.953 58.972 200.953 59.9267C200.953 60.8815 200.648 61.6841 200.04 62.3346C199.431 62.9851 198.666 63.3104 197.743 63.3104H193.607Z" fill="black"/>
<path d="M202.665 63.2317V61.6579C202.76 61.6999 202.841 61.7261 202.907 61.7366C203.097 61.789 203.302 61.8153 203.521 61.8153C203.987 61.8153 204.357 61.6999 204.633 61.469C204.918 61.2277 205.166 60.871 205.375 60.3989L205.589 59.9267L201.809 52.2939H203.449L206.373 58.1956L208.87 52.2939H210.51L206.801 60.871C206.411 61.7523 205.979 62.4081 205.503 62.8382C205.037 63.2579 204.448 63.4677 203.735 63.4677C203.44 63.4677 203.183 63.431 202.964 63.3576L202.665 63.2317Z" fill="black"/>
<path d="M212.008 63.3104V52.2939H216.001C216.962 52.2939 217.761 52.6348 218.398 53.3168C219.035 53.9988 219.353 54.8381 219.353 55.8349C219.353 56.8316 219.035 57.671 218.398 58.3529C217.761 59.0349 216.962 59.3759 216.001 59.3759H213.577V63.3104H212.008ZM213.577 57.8021H216.001C216.496 57.8021 216.914 57.6133 217.257 57.2355C217.608 56.8578 217.784 56.3909 217.784 55.8349C217.784 55.2788 217.608 54.8119 217.257 54.4342C216.914 54.0565 216.496 53.8676 216.001 53.8676H213.577V57.8021Z" fill="black"/>
<path d="M221.424 63.3104V52.2939H227.843V53.9463H222.993V63.3104H221.424Z" fill="black"/>
<path d="M237.054 60.163L238.052 61.2646C237.748 61.6843 237.396 62.0515 236.997 62.3663C236.065 63.1007 235.038 63.4679 233.916 63.4679C232.423 63.4679 231.168 62.9224 230.15 61.8312C229.142 60.7296 228.638 59.3866 228.638 57.8023C228.638 56.218 229.142 54.8803 230.15 53.7892C231.168 52.6875 232.423 52.1367 233.916 52.1367C235.066 52.1367 236.084 52.4934 236.968 53.2069C237.377 53.5426 237.715 53.8941 237.981 54.2613L236.983 55.3629C236.773 55.0482 236.521 54.7754 236.227 54.5446C235.551 53.9885 234.781 53.7105 233.916 53.7105C232.879 53.7105 232 54.1092 231.277 54.9065C230.564 55.6934 230.207 56.6587 230.207 57.8023C230.207 58.9459 230.564 59.9164 231.277 60.7138C232 61.5007 232.879 61.8942 233.916 61.8942C234.781 61.8942 235.561 61.6056 236.255 61.0286C236.588 60.7663 236.854 60.4777 237.054 60.163Z" fill="black"/>
<path d="M239.908 63.3104V52.2939H241.477V57.6447L245.97 52.2939H247.967L244.116 56.8578L248.253 63.3104H246.327L243.046 58.1169L241.477 60.0054V63.3104H239.908Z" fill="black"/>
<path d="M251.391 54.9065C250.678 55.6934 250.321 56.6587 250.321 57.8023C250.321 58.9459 250.678 59.9164 251.391 60.7138C252.114 61.5007 252.993 61.8942 254.03 61.8942C255.066 61.8942 255.941 61.5007 256.654 60.7138C257.377 59.9164 257.738 58.9459 257.738 57.8023C257.738 56.6587 257.377 55.6934 256.654 54.9065C255.941 54.1092 255.066 53.7105 254.03 53.7105C252.993 53.7105 252.114 54.1092 251.391 54.9065ZM250.264 61.8312C249.256 60.7296 248.752 59.3866 248.752 57.8023C248.752 56.218 249.256 54.8803 250.264 53.7892C251.282 52.6875 252.537 52.1367 254.03 52.1367C255.523 52.1367 256.773 52.6875 257.781 53.7892C258.799 54.8803 259.308 56.218 259.308 57.8023C259.308 59.3866 258.799 60.7296 257.781 61.8312C256.773 62.9224 255.523 63.4679 254.03 63.4679C252.537 63.4679 251.282 62.9224 250.264 61.8312Z" fill="black"/>
<path d="M261.513 63.31V52.2935H263.082V60.3985L268.573 52.2935H270V63.31H268.431V55.205L262.939 63.31H261.513ZM263.652 48.6738H264.722C264.722 48.9885 264.817 49.2508 265.007 49.4606C265.198 49.6705 265.435 49.7754 265.721 49.7754C266.006 49.7754 266.244 49.6705 266.434 49.4606C266.624 49.2508 266.719 48.9885 266.719 48.6738H267.789C267.789 49.3033 267.594 49.8279 267.204 50.2475C266.814 50.6672 266.32 50.8771 265.721 50.8771C265.122 50.8771 264.627 50.6672 264.237 50.2475C263.847 49.8279 263.652 49.3033 263.652 48.6738Z" fill="black"/>
</g>
<defs>
<clipPath id="clip0_313_30">
<rect width="270" height="64" fill="white"/>
</clipPath>
</defs>
</svg>
