<svg width="270" height="64" viewBox="0 0 270 64" fill="none" xmlns="http://www.w3.org/2000/svg">
<path d="M20.6803 0L17.2336 7.73507H16.1299L19.5682 0H20.6803Z" fill="white"/>
<path fill-rule="evenodd" clip-rule="evenodd" d="M72.4571 24.5165C70.9205 22.8543 68.9679 21.8268 66.1154 21.192C65.9627 21.1585 65.6995 21.1001 65.4703 21.0416C65.6995 20.9748 65.9797 20.8913 66.2512 20.7995C67.0408 20.5321 68.3482 20.0894 69.265 19.3125C70.4534 18.4439 71.0988 16.9402 70.9884 15.303C70.8696 13.5487 69.9442 12.0285 68.5094 11.235C67.5077 10.6836 66.0137 10.0154 64.5959 9.9987C64.227 9.9987 63.8221 9.99225 63.3893 9.98538C63.1251 9.98116 62.8501 9.9768 62.5668 9.97363H55.5037C54.4002 9.97363 53.3729 9.97363 52.5069 9.99035H49.3148L49.8329 10.2326C50.8515 10.692 51.3693 11.6192 51.3693 12.9891C51.4118 20.39 51.4202 28.4509 51.4202 34.6574C51.4202 36.0272 51.4203 37.5726 49.7309 38.4582L49.2896 38.6919H49.7902C49.7902 38.6919 51.9806 38.7086 54.6716 38.7086C57.5752 38.7086 61.1151 38.6919 63.3139 38.6168C65.224 38.55 67.1935 38.2075 69.0358 37.6228C71.6081 36.8041 73.5693 34.7242 74.2824 32.0512C75.0124 29.3363 74.3247 26.5129 72.4571 24.5082V24.5165ZM54.5358 19.7804C54.5529 18.8866 54.5529 17.9677 54.5358 17.0906V14.9522C54.5358 14.6848 54.5368 14.406 54.5377 14.1225V14.1075C54.5397 13.5186 54.5417 12.9093 54.5358 12.3376V11.6526C54.5358 11.1681 54.6294 10.9343 55.1556 10.9343H62.6433C65.2071 10.9343 67.3804 12.8304 67.601 15.2528V15.303C67.7794 17.4664 67.0409 19.1538 65.5892 19.9222C64.7147 20.39 63.0254 20.5572 62.1085 20.5572H55.1472C54.6294 20.5572 54.5358 20.3317 54.5274 19.8889V19.7804H54.5358ZM71.1158 30.9737C70.8271 33.7302 70.1565 35.5594 67.5332 36.8208C67.5138 36.8324 67.4819 36.8491 67.452 36.8646C67.417 36.8831 67.3851 36.8998 67.3805 36.9043C66.2258 37.3554 62.983 37.7313 62.117 37.7313H55.0623C54.6462 37.7062 54.5274 37.5309 54.5358 36.9629V36.3363C54.5529 34.7826 54.5529 33.204 54.5358 31.6752V28.1168C54.5358 27.5482 54.5367 26.9731 54.5378 26.3958V26.3935C54.5396 25.233 54.5415 24.064 54.5358 22.9212V22.2111C54.5358 21.9188 54.5784 21.7517 54.6803 21.6514C54.7737 21.5596 54.9264 21.5177 55.1556 21.5177H62.0236C63.5177 21.5177 65.5975 21.9856 67.3294 22.7206C69.7744 23.748 71.1921 26.3459 71.1921 29.6537C71.1921 30.0797 71.1665 30.5226 71.1158 30.9737Z" fill="white"/>
<path fill-rule="evenodd" clip-rule="evenodd" d="M24.9759 38.4497L23.8043 38.7004H31.8862L31.2411 38.4581C30.0526 38.007 29.5008 36.9879 29.0763 36.0608C27.6593 32.9355 25.3521 27.838 23.2555 23.2056L23.2438 23.1798C20.8734 17.9427 18.775 13.3065 18.541 12.7971C18.0995 11.8532 17.6665 10.926 17.2846 10.074L17.2505 9.99878H12.6577L12.6408 10.2494C13.7529 10.4164 14.6272 11.4021 14.6272 12.4797V12.6133C14.6272 12.6406 14.6281 12.6696 14.6291 12.6993C14.6311 12.7605 14.6331 12.8244 14.6272 12.8806C14.5933 13.2064 14.5339 13.3735 14.398 13.6574C14.0417 14.4505 13.6834 15.2455 13.325 16.0405L13.3229 16.0453C12.9646 16.8399 12.6064 17.6346 12.2503 18.4272C10.858 21.5262 9.41479 24.7254 7.98008 27.8663L7.47919 28.9605C6.92739 30.1717 6.36707 31.3831 5.80678 32.5859C5.67307 32.8803 5.53934 33.1888 5.40563 33.4975C5.36107 33.6004 5.31651 33.7031 5.27193 33.8054L5.11065 34.1979C4.96632 34.5404 4.8135 34.8913 4.63523 35.2254L4.61825 35.2589C3.99004 36.5536 3.06468 37.9403 0.99326 38.4497L0 38.7004H7.68293L7.69991 38.4497C6.57083 38.3246 5.83225 37.9737 5.50116 37.4141C5.221 36.9379 5.23798 36.3115 5.56057 35.5512L7.64048 30.9653C7.69991 30.8234 7.75934 30.6897 7.82726 30.5476C7.85695 30.4893 7.88247 30.4309 7.90675 30.3753C7.9172 30.3515 7.92741 30.328 7.93763 30.3054C7.9884 30.218 8.02969 30.1352 8.07214 30.0501L8.09571 30.0029L8.1159 29.9629L8.13288 29.9212C8.22626 29.7124 8.63376 29.5034 8.90542 29.4785C9.04287 29.4625 9.1957 29.4543 9.34196 29.4463L9.36385 29.445H21.5717C21.7329 29.445 21.8858 29.4618 22.0301 29.4785C22.3017 29.5034 22.7093 29.7124 22.8026 29.9212L22.8791 30.0798C23.0148 30.3723 23.1506 30.6646 23.2695 30.9653C23.9826 32.5107 24.7298 34.2147 25.6296 36.328C25.7994 36.7458 25.9862 37.2804 25.8672 37.6312C25.757 37.957 25.3664 38.3662 24.9759 38.4497ZM21.9962 28.3841C21.9536 28.4427 21.8774 28.4845 21.8009 28.4845H9.12613C9.04972 28.4845 8.98182 28.451 8.93938 28.3841C8.89693 28.3173 8.88844 28.2422 8.9224 28.1669L15.2809 14.1838C15.3235 14.1002 15.3997 14.0501 15.4933 14.0501C15.5866 14.0501 15.6631 14.0918 15.697 14.1754L17.4712 18.1097C18.872 21.2256 20.6803 25.2267 22.013 28.1753C22.0385 28.2422 22.0385 28.3173 21.9962 28.3841Z" fill="white"/>
<path d="M248.664 13.098C248.689 13.5324 248.715 28.6432 248.689 35.0418V35.0719C248.68 36.1254 248.671 37.3131 247.67 38.1075C247.508 38.2329 247.323 38.358 247.101 38.4668L246.626 38.7005H253.994L253.435 38.4584C253.189 38.358 252.967 38.2329 252.78 38.0992C251.907 37.4393 251.788 36.5037 251.746 35.6015C251.737 35.2674 251.72 34.4571 251.711 33.8558V32.918C251.709 30.5173 251.706 19.5195 251.728 13.6577C251.728 12.5968 251.737 11.3856 252.747 10.592C252.909 10.4584 253.103 10.3331 253.306 10.2329L253.791 9.9906H246.423L246.982 10.2329C247.23 10.3414 247.45 10.4584 247.628 10.6004C248.511 11.2603 248.629 12.2293 248.664 13.098Z" fill="white"/>
<path d="M269.725 25.5278C269.725 26.3464 269.056 27.0147 268.223 27.0147C267.391 27.0147 266.72 26.3464 266.72 25.5278C266.72 24.7091 267.391 24.0492 268.223 24.0492C269.056 24.0492 269.725 24.7174 269.725 25.5278Z" fill="white"/>
<path d="M269.725 37.2214C269.725 38.0381 269.054 38.7 268.223 38.7C267.393 38.7 266.72 38.0381 266.72 37.2214C266.72 36.4049 267.393 35.743 268.223 35.743C269.054 35.743 269.725 36.4049 269.725 37.2214Z" fill="white"/>
<path fill-rule="evenodd" clip-rule="evenodd" d="M144.32 38.6583C143.565 38.6248 142.826 38.533 142.088 38.3909C140.279 38.0401 138.598 37.3718 137.045 36.3778C135.491 35.3838 134.184 34.1475 133.182 32.6105C131.934 30.706 131.289 28.601 131.034 26.3707C131.004 26.0891 130.983 25.8077 130.962 25.528C130.947 25.3345 130.933 25.1419 130.915 24.9506C130.915 24.8754 130.901 24.8003 130.887 24.725C130.882 24.7001 130.877 24.675 130.873 24.6499V23.6308C130.877 23.5952 130.883 23.5601 130.888 23.5254C130.902 23.4298 130.915 23.3362 130.915 23.2383C130.949 22.4947 131.043 21.7597 131.187 21.0247C131.569 19.1034 132.333 17.3326 133.454 15.7203C134.43 14.3171 135.627 13.1475 137.079 12.2371C139.074 10.9841 141.29 10.2824 143.633 10.0652C143.981 10.0318 145.229 9.98169 145.509 9.98169C145.861 9.98169 146.483 10.0206 146.905 10.047L147.062 10.0569C147.937 10.1404 148.395 10.2072 149.227 10.391C151.375 10.8588 153.311 11.7609 155.017 13.1308C156.681 14.4757 157.954 16.1047 158.803 18.0509C159.525 19.7131 159.856 21.4674 159.975 23.2634C159.994 23.5505 159.999 23.8424 160.003 24.1319V24.1372C160.005 24.2332 160.007 24.3291 160.009 24.4244C160.026 25.36 159.958 26.2954 159.805 27.2143C159.516 28.9184 158.939 30.5139 158.056 32.009C157.309 33.2788 156.392 34.4149 155.272 35.3754C153.896 36.5533 152.326 37.3802 150.586 37.9147C149.745 38.1737 148.93 38.4076 148.056 38.5162L147.956 38.5292C147.43 38.5988 146.566 38.7131 144.303 38.6583H144.32ZM156.672 24.5831C156.655 23.8563 156.621 23.1297 156.554 22.4029C156.46 21.5007 156.324 20.6069 156.104 19.7299C155.747 18.2764 155.204 16.8981 154.414 15.6117C153.735 14.5008 152.886 13.5402 151.816 12.7884C150.237 11.6774 148.463 11.0843 146.536 10.959C145.772 10.9089 144.999 10.9172 144.227 10.9757C143.344 11.0425 142.478 11.2263 141.638 11.5187C140.067 12.0616 138.7 12.9304 137.597 14.1667C136.883 14.9602 136.323 15.8457 135.848 16.7978C135.135 18.2347 134.71 19.7633 134.473 21.3505C134.354 22.1522 134.286 22.9625 134.252 23.7728C134.201 25.1677 134.286 26.5461 134.54 27.9244C134.838 29.5032 135.355 31.015 136.119 32.435C136.603 33.3456 137.189 34.181 137.928 34.9076C139.77 36.7119 142.028 37.589 144.6 37.7227C144.819 37.7323 145.04 37.7308 145.261 37.7294C145.426 37.7285 145.591 37.7275 145.755 37.731C146.536 37.731 147.317 37.6559 148.081 37.4971C149.507 37.1881 150.806 36.6201 151.969 35.7514C152.903 35.058 153.659 34.1977 154.295 33.237C155.577 31.2824 156.273 29.1272 156.545 26.8302C156.63 26.0866 156.664 25.3516 156.647 24.5999L156.672 24.5831Z" fill="white"/>
<path fill-rule="evenodd" clip-rule="evenodd" d="M194.103 10.0819C196.276 10.3659 198.203 11.2848 199.663 12.7215H199.672C200.818 13.8493 201.464 15.6285 201.464 17.4661C201.464 18.0174 201.403 18.5689 201.284 19.1118C200.758 21.5174 199.188 23.305 196.861 24.1654C195.434 24.6917 193.72 25.0342 191.912 25.1512H191.844C191.819 25.1595 191.793 25.1595 191.767 25.1595C191.666 25.1761 191.538 25.1761 191.428 25.1761C189.123 25.3035 186.763 25.2868 184.467 25.2704L184.128 25.2681H183.363C182.896 25.2681 182.786 25.4518 182.753 25.786V25.8111C182.76 26.4683 182.768 27.1566 182.775 27.8646V27.8721V27.8753V27.8779C182.78 28.4883 182.786 29.1133 182.795 29.7455C182.812 31.817 182.837 33.9554 182.87 35.8181C182.896 36.7621 183.109 37.8145 184.535 38.4578L185.069 38.6999H177.692L178.134 38.466C179.729 37.6057 179.747 36.2776 179.747 34.8743V14.9686C179.746 14.8767 179.744 14.7844 179.744 14.6918C179.736 14.0602 179.731 13.4138 179.68 12.78C179.568 11.5103 179.051 10.6499 178.134 10.2323L177.607 9.99004H181.191C182.285 9.98169 183.508 9.98169 184.858 9.98169H191.87C192.523 9.98169 192.838 9.98169 192.932 9.99004C193.296 9.99839 193.678 10.0318 194.103 10.0819ZM182.735 11.6273V12.3456C182.744 13.206 182.744 14.0748 182.744 14.9351V18.6022C182.744 18.8711 182.744 19.1406 182.744 19.4103C182.746 20.2205 182.747 21.0329 182.735 21.8348C182.74 21.9794 182.738 22.1239 182.736 22.2685C182.736 22.3409 182.735 22.4141 182.735 22.4864V23.5222C182.744 23.9816 182.845 24.2155 183.363 24.2155H189.943C192.913 24.2155 195.249 23.6391 196.19 22.6702C196.903 21.9434 197.43 21.008 197.752 19.8886C198 19.0116 198.143 18.0676 198.143 17.1154C198.143 14.977 197.397 12.8468 195.282 11.6273C194.518 11.1762 193.559 10.9423 192.523 10.9423H183.354C182.837 10.9423 182.744 11.1595 182.735 11.6273Z" fill="white"/>
<path fill-rule="evenodd" clip-rule="evenodd" d="M239.784 29.5699C239.522 28.3671 238.995 27.3145 238.247 26.4626C237.501 25.6023 236.524 24.9422 235.361 24.5162C233.934 23.99 232.22 23.6475 230.403 23.5306C230.386 23.5306 230.37 23.5306 230.353 23.5222H230.276C230.221 23.5222 230.164 23.5181 230.106 23.5138C230.049 23.5097 229.992 23.5055 229.937 23.5055C227.517 23.372 225.037 23.3969 222.645 23.422H221.915C221.396 23.422 221.286 23.2383 221.251 22.9041V22.8707C221.269 21.6428 221.286 20.3063 221.295 18.9363C221.302 18.2817 221.31 17.6204 221.317 16.9634C221.332 15.5409 221.348 14.1376 221.37 12.8635C221.396 11.9196 221.609 10.8671 223.042 10.2239L223.569 9.98169H216.201L216.634 10.2156C218.229 11.076 218.238 12.4041 218.247 13.8074V13.9076C218.264 18.5771 218.264 23.6475 218.255 28.5508V33.7131C218.255 34.4316 218.247 35.175 218.187 35.9016C218.086 37.1714 217.56 38.0317 216.643 38.4495L216.124 38.6916H219.588C220.692 38.6999 222.016 38.6999 223.365 38.6999H230.377C231.032 38.6999 231.354 38.6999 231.422 38.6916C231.804 38.6916 232.187 38.6499 232.611 38.5997C234.793 38.3158 236.711 37.3969 238.172 35.9602C239.632 34.5234 240.303 31.9339 239.784 29.5699ZM231.032 37.7394H221.863C221.344 37.7394 221.251 37.5139 221.244 37.0544V30.0796C221.251 29.0019 221.251 27.916 221.244 26.8467V25.1595C221.244 24.7001 221.354 24.4662 221.871 24.4662H228.452C231.422 24.4662 233.766 25.0426 234.708 26.0115C235.412 26.7381 235.939 27.6738 236.261 28.7931C236.507 29.6702 236.661 30.6225 236.661 31.5663C236.661 33.7048 235.904 35.8349 233.799 37.0544C233.027 37.5055 232.068 37.7394 231.032 37.7394Z" fill="white"/>
<path d="M115.116 10.7756V10.7172C115.074 10.0406 114.531 10.0155 114.098 10.0155H113.97C112.753 10.0211 111.532 10.0192 110.313 10.0174C109.703 10.0164 109.094 10.0155 108.486 10.0155H97.3479C96.7399 10.0155 96.1309 10.0164 95.5216 10.0174C94.3018 10.0192 93.081 10.0211 91.8638 10.0155H91.7815C91.3579 10.0154 90.7682 10.0153 90.7178 10.7255V10.7756C90.7093 10.8258 90.7093 10.8759 90.7178 10.9176C90.7432 12.9642 90.7432 14.4093 90.7432 14.4093L90.7601 14.7267L90.9893 14.4677L91.0049 14.4498C91.507 13.8652 91.9043 13.4023 92.5514 12.9558C95.268 11.1265 96.7962 10.9594 100.803 10.926C101.397 10.926 101.457 11.7864 101.457 12.1539V12.7971C101.448 16.0883 101.448 19.3794 101.448 22.679C101.448 26.7888 101.448 30.9069 101.431 35.025C101.423 36.3362 101.414 37.6898 99.81 38.4581L99.3175 38.7004H106.517L106.024 38.4581C104.42 37.6898 104.411 36.3369 104.403 35.0257C104.386 30.9076 104.386 26.7888 104.386 22.679C104.386 19.3794 104.386 16.0883 104.377 12.7971V12.1539C104.377 11.7864 104.437 10.926 105.031 10.926C109.038 10.9594 110.566 11.1265 113.283 12.9558C113.923 13.3975 114.318 13.855 114.837 14.4542L114.87 14.4928L115.091 14.7518V14.4093C115.091 14.4093 115.099 12.9642 115.116 10.9344C115.122 10.895 115.12 10.8595 115.118 10.8252C115.117 10.8085 115.116 10.7921 115.116 10.7756Z" fill="white"/>
</svg>
