<svg width="211" height="57" viewBox="0 0 211 57" fill="none" xmlns="http://www.w3.org/2000/svg">
<g clip-path="url(#clip0_187_30)">
<mask id="mask0_187_30" style="mask-type:luminance" maskUnits="userSpaceOnUse" x="0" y="0" width="212" height="57">
<path d="M211.285 0H0V56.9822H211.285V0Z" fill="white"/>
</mask>
<g mask="url(#mask0_187_30)">
<path d="M19.0974 3.4541L16.4849 9.49321H15.6484L18.2544 3.4541H19.0974Z" fill="white"/>
<path fill-rule="evenodd" clip-rule="evenodd" d="M58.3429 22.5955C57.1782 21.2977 55.6982 20.4955 53.5362 19.9999C53.4205 19.9737 53.221 19.9282 53.0473 19.8824C53.221 19.8303 53.4334 19.7651 53.6392 19.6934C54.2377 19.4847 55.2286 19.139 55.9235 18.5325C56.8242 17.8543 57.3133 16.6803 57.2297 15.4021C57.1396 14.0324 56.4383 12.8456 55.3508 12.226C54.5915 11.7956 53.4591 11.2738 52.3845 11.2608C52.1049 11.2608 51.798 11.2557 51.47 11.2504C51.2697 11.2471 51.0614 11.2437 50.8467 11.2412H45.4931C44.6568 11.2412 43.8782 11.2412 43.2218 11.2543H40.8024L41.195 11.4434C41.9671 11.8021 42.3595 12.526 42.3595 13.5955C42.3918 19.3738 42.3982 25.6672 42.3982 30.5129C42.3982 31.5824 42.3982 32.7889 41.1177 33.4803L40.7832 33.6628H41.1628C41.1628 33.6628 42.8229 33.6759 44.8626 33.6759C47.0632 33.6759 49.7464 33.6628 51.4129 33.6042C52.8607 33.552 54.3534 33.2846 55.7498 32.8281C57.6994 32.1889 59.1858 30.5651 59.7263 28.4781C60.2796 26.3585 59.7584 24.1541 58.3429 22.5889V22.5955ZM44.7596 18.8978C44.7725 18.1999 44.7725 17.4825 44.7596 16.7978V15.1282C44.7596 14.9194 44.7603 14.7018 44.761 14.4804V14.4687C44.7625 14.009 44.764 13.5332 44.7596 13.0868V12.5521C44.7596 12.1738 44.8305 11.9912 45.2294 11.9912H50.9046C52.8479 11.9912 54.4951 13.4716 54.6623 15.3629V15.4021C54.7975 17.0911 54.2377 18.4085 53.1374 19.0085C52.4746 19.3738 51.1941 19.5043 50.4992 19.5043H45.223C44.8305 19.5043 44.7596 19.3282 44.7532 18.9825V18.8978H44.7596ZM57.3262 27.6369C57.1075 29.789 56.5991 31.2172 54.6108 32.202C54.5961 32.211 54.5719 32.2241 54.5493 32.2362C54.5227 32.2506 54.4985 32.2637 54.4951 32.2672C53.6199 32.6193 51.162 32.9129 50.5056 32.9129H45.1586C44.8433 32.8933 44.7532 32.7564 44.7596 32.3129V31.8237C44.7725 30.6106 44.7725 29.3782 44.7596 28.1846V25.4064C44.7596 24.9625 44.7603 24.5134 44.7611 24.0627V24.0609C44.7625 23.1549 44.7639 22.2422 44.7596 21.3499V20.7955C44.7596 20.5673 44.7918 20.4368 44.8691 20.3586C44.9399 20.2869 45.0556 20.2542 45.2294 20.2542H50.4349C51.5673 20.2542 53.1438 20.6194 54.4564 21.1933C56.3096 21.9955 57.3841 24.0238 57.3841 26.6063C57.3841 26.9389 57.3647 27.2847 57.3262 27.6369Z" fill="white"/>
<path fill-rule="evenodd" clip-rule="evenodd" d="M22.3541 33.4727L21.4661 33.6684H27.5917L27.1028 33.4792C26.2019 33.127 25.7837 32.3314 25.4619 31.6075C24.3879 29.1675 22.6392 25.1876 21.0501 21.5709L21.0412 21.5507C19.2446 17.4619 17.6541 13.8422 17.4768 13.4445C17.1421 12.7076 16.814 11.9837 16.5245 11.3185L16.4986 11.2598H13.0176L13.0048 11.4554C13.8477 11.5859 14.5104 12.3554 14.5104 13.1967V13.3011C14.5104 13.3223 14.5111 13.345 14.5118 13.3681C14.5133 13.4159 14.5148 13.4659 14.5104 13.5098C14.4847 13.7641 14.4396 13.8945 14.3367 14.1162C14.0666 14.7354 13.795 15.3561 13.5234 15.9768L13.5218 15.9805C13.2502 16.6009 12.9787 17.2214 12.7088 17.8402C11.6535 20.2598 10.5597 22.7575 9.47225 25.2097L9.09261 26.064C8.67437 27.0096 8.24969 27.9554 7.82502 28.8945C7.72367 29.1244 7.62232 29.3652 7.52097 29.6062C7.4872 29.6865 7.45343 29.7667 7.41964 29.8467L7.29739 30.1531C7.188 30.4205 7.07217 30.6944 6.93706 30.9553L6.92419 30.9814C6.44804 31.9922 5.74667 33.0749 4.17666 33.4727L3.42383 33.6684H9.24703L9.2599 33.4727C8.40413 33.375 7.84432 33.101 7.59338 32.6641C7.38103 32.2923 7.3939 31.8032 7.63841 31.2096L9.21486 27.6292C9.2599 27.5184 9.30494 27.4141 9.35642 27.3032C9.37892 27.2576 9.39827 27.212 9.41667 27.1686C9.42459 27.15 9.43233 27.1317 9.44007 27.114C9.47856 27.0458 9.50986 26.9811 9.54203 26.9147L9.55989 26.8779L9.57519 26.8466L9.58806 26.8141C9.65884 26.6511 9.9677 26.4879 10.1736 26.4684C10.2778 26.4559 10.3936 26.4495 10.5045 26.4433L10.5211 26.4423H19.7739C19.896 26.4423 20.0119 26.4554 20.1213 26.4684C20.3272 26.4879 20.6361 26.6511 20.7069 26.8141L20.7648 26.9379C20.8677 27.1663 20.9706 27.3945 21.0607 27.6292C21.6012 28.8358 22.1675 30.1662 22.8495 31.8162C22.9782 32.1423 23.1198 32.5597 23.0296 32.8336C22.9461 33.088 22.6501 33.4075 22.3541 33.4727ZM20.0956 25.614C20.0634 25.6597 20.0056 25.6924 19.9476 25.6924H10.3409C10.283 25.6924 10.2315 25.6662 10.1993 25.614C10.1672 25.5619 10.1607 25.5032 10.1865 25.4444L15.0059 14.5272C15.0381 14.4619 15.0959 14.4228 15.1668 14.4228C15.2375 14.4228 15.2955 14.4554 15.3212 14.5207L16.666 17.5923C17.7277 20.025 19.0983 23.1489 20.1084 25.451C20.1277 25.5032 20.1277 25.5619 20.0956 25.614Z" fill="white"/>
<path d="M191.895 13.68C191.915 14.0192 191.934 25.8168 191.915 30.8125V30.836C191.908 31.6585 191.901 32.5858 191.142 33.206C191.02 33.3039 190.879 33.4016 190.711 33.4865L190.351 33.669H195.935L195.511 33.48C195.325 33.4016 195.157 33.3039 195.015 33.1995C194.354 32.6843 194.263 31.9538 194.231 31.2495C194.224 30.9886 194.212 30.356 194.205 29.8865V29.1543C194.204 27.28 194.201 18.6935 194.217 14.117C194.217 13.2887 194.224 12.343 194.99 11.7235C195.113 11.6191 195.26 11.5213 195.414 11.443L195.781 11.2539H190.197L190.621 11.443C190.808 11.5278 190.975 11.6191 191.11 11.73C191.78 12.2452 191.869 13.0017 191.895 13.68Z" fill="white"/>
<path d="M207.86 23.3839C207.86 24.023 207.353 24.5448 206.722 24.5448C206.091 24.5448 205.582 24.023 205.582 23.3839C205.582 22.7447 206.091 22.2295 206.722 22.2295C207.353 22.2295 207.86 22.7512 207.86 23.3839Z" fill="white"/>
<path d="M207.86 32.5136C207.86 33.1513 207.351 33.668 206.722 33.668C206.092 33.668 205.582 33.1513 205.582 32.5136C205.582 31.8761 206.092 31.3594 206.722 31.3594C207.351 31.3594 207.86 31.8761 207.86 32.5136Z" fill="white"/>
<path fill-rule="evenodd" clip-rule="evenodd" d="M112.809 33.6361C112.236 33.61 111.676 33.5383 111.117 33.4274C109.746 33.1535 108.472 32.6317 107.295 31.8557C106.117 31.0796 105.126 30.1144 104.367 28.9144C103.421 27.4275 102.932 25.784 102.739 24.0427C102.716 23.8228 102.7 23.6031 102.684 23.3848C102.673 23.2337 102.662 23.0833 102.649 22.9339C102.649 22.8753 102.638 22.8166 102.627 22.7578C102.623 22.7384 102.62 22.7188 102.617 22.6992V21.9035C102.62 21.8757 102.624 21.8483 102.628 21.8212C102.638 21.7466 102.649 21.6735 102.649 21.5971C102.674 21.0165 102.745 20.4427 102.855 19.8688C103.144 18.3688 103.723 16.9862 104.573 15.7275C105.313 14.6319 106.22 13.7188 107.32 13.0079C108.832 12.0297 110.512 11.4819 112.288 11.3123C112.551 11.2862 113.497 11.2471 113.71 11.2471C113.976 11.2471 114.448 11.2775 114.768 11.2981L114.887 11.3058C115.55 11.371 115.897 11.4231 116.528 11.5666C118.156 11.9318 119.623 12.6362 120.916 13.7058C122.177 14.7557 123.143 16.0275 123.786 17.547C124.333 18.8448 124.584 20.2145 124.674 21.6167C124.689 21.8408 124.692 22.0688 124.696 22.2947V22.2989C124.697 22.3738 124.698 22.4487 124.7 22.5231C124.713 23.2536 124.661 23.9839 124.545 24.7013C124.327 26.0318 123.889 27.2775 123.22 28.4448C122.654 29.4361 121.959 30.3231 121.109 31.0731C120.067 31.9927 118.877 32.6383 117.558 33.0556C116.92 33.2578 116.303 33.4405 115.64 33.5252L115.565 33.5354C115.166 33.5897 114.511 33.6789 112.796 33.6361H112.809ZM122.171 22.6471C122.158 22.0796 122.132 21.5123 122.081 20.9448C122.01 20.2405 121.907 19.5426 121.74 18.8579C121.47 17.7231 121.058 16.647 120.459 15.6427C119.945 14.7753 119.301 14.0254 118.491 13.4384C117.294 12.571 115.949 12.1079 114.488 12.0101C113.909 11.971 113.324 11.9775 112.738 12.0232C112.069 12.0753 111.413 12.2188 110.776 12.4471C109.585 12.871 108.549 13.5492 107.713 14.5145C107.172 15.134 106.748 15.8253 106.387 16.5687C105.847 17.6906 105.525 18.884 105.345 20.1232C105.255 20.7491 105.203 21.3818 105.178 22.0144C105.139 23.1035 105.203 24.1796 105.396 25.2557C105.622 26.4884 106.014 27.6687 106.593 28.7774C106.96 29.4883 107.404 30.1405 107.964 30.7078C109.36 32.1165 111.072 32.8013 113.021 32.9057C113.187 32.9132 113.354 32.9121 113.522 32.9109C113.647 32.9102 113.772 32.9094 113.896 32.9122C114.488 32.9122 115.08 32.8535 115.659 32.7296C116.74 32.4883 117.725 32.0448 118.606 31.3666C119.314 30.8253 119.887 30.1536 120.369 29.4035C121.341 27.8775 121.869 26.1948 122.075 24.4014C122.139 23.8209 122.165 23.247 122.152 22.6601L122.171 22.6471Z" fill="white"/>
<path fill-rule="evenodd" clip-rule="evenodd" d="M150.541 11.3253C152.188 11.5471 153.649 12.2645 154.755 13.3862H154.762C155.631 14.2667 156.12 15.6558 156.12 17.0905C156.12 17.5209 156.074 17.9515 155.984 18.3753C155.585 20.2535 154.395 21.6492 152.632 22.3209C151.55 22.7318 150.251 22.9992 148.881 23.0906H148.829C148.81 23.0971 148.79 23.0971 148.771 23.0971C148.694 23.11 148.597 23.11 148.514 23.11C146.767 23.2095 144.978 23.1965 143.238 23.1837L142.981 23.1819H142.401C142.047 23.1819 141.964 23.3253 141.938 23.5862V23.6058C141.944 24.1189 141.95 24.6563 141.955 25.209V25.2149V25.2174V25.2195C141.959 25.696 141.964 26.184 141.97 26.6775C141.983 28.2948 142.002 29.9644 142.027 31.4187C142.047 32.1557 142.208 32.9774 143.289 33.4797L143.694 33.6687H138.103L138.437 33.486C139.647 32.8144 139.661 31.7774 139.661 30.6818V15.1406C139.659 15.0689 139.658 14.9967 139.658 14.9245C139.652 14.4313 139.648 13.9267 139.609 13.4318C139.524 12.4405 139.132 11.7688 138.437 11.4427L138.039 11.2536H140.754C141.584 11.2471 142.511 11.2471 143.534 11.2471H148.849C149.343 11.2471 149.582 11.2471 149.653 11.2536C149.93 11.2601 150.219 11.2862 150.541 11.3253ZM141.925 12.5318V13.0927C141.932 13.7644 141.932 14.4427 141.932 15.1144V17.9774C141.932 18.1874 141.932 18.3979 141.932 18.6084C141.933 19.2409 141.934 19.8752 141.925 20.5013C141.929 20.6142 141.927 20.727 141.926 20.8399C141.926 20.8965 141.925 20.9536 141.925 21.01V21.8187C141.932 22.1774 142.008 22.3601 142.401 22.3601H147.388C149.639 22.3601 151.41 21.91 152.123 21.1536C152.664 20.5861 153.063 19.8558 153.307 18.9819C153.495 18.2971 153.603 17.5601 153.603 16.8167C153.603 15.1471 153.038 13.484 151.435 12.5318C150.856 12.1797 150.129 11.9971 149.343 11.9971H142.394C142.002 11.9971 141.932 12.1666 141.925 12.5318Z" fill="white"/>
<path fill-rule="evenodd" clip-rule="evenodd" d="M185.165 26.5405C184.966 25.6014 184.567 24.7796 184 24.1144C183.434 23.4427 182.694 22.9274 181.812 22.5948C180.731 22.184 179.432 21.9166 178.054 21.8253C178.042 21.8253 178.029 21.8253 178.017 21.8187H177.958C177.917 21.8187 177.874 21.8155 177.829 21.8122C177.786 21.809 177.743 21.8057 177.701 21.8057C175.867 21.7014 173.988 21.7209 172.174 21.7405H171.621C171.228 21.7405 171.144 21.5971 171.118 21.3362V21.3101C171.132 20.3514 171.144 19.3079 171.151 18.2383C171.157 17.7273 171.162 17.211 171.168 16.698C171.179 15.5874 171.191 14.4918 171.208 13.4971C171.228 12.7601 171.389 11.9384 172.476 11.4362L172.875 11.2471H167.29L167.618 11.4297C168.827 12.1014 168.834 13.1384 168.841 14.234V14.3122C168.854 17.9578 168.854 21.9166 168.847 25.7448V29.7753C168.847 30.3362 168.841 30.9166 168.795 31.4839C168.719 32.4752 168.32 33.1469 167.625 33.4731L167.232 33.6621H169.857C170.694 33.6687 171.697 33.6687 172.72 33.6687H178.035C178.531 33.6687 178.776 33.6687 178.827 33.6621C179.116 33.6621 179.407 33.6296 179.728 33.5904C181.382 33.3687 182.835 32.6513 183.943 31.5296C185.049 30.4079 185.558 28.3861 185.165 26.5405ZM178.531 32.9187H171.582C171.189 32.9187 171.118 32.7426 171.112 32.3839V26.9384C171.118 26.097 171.118 25.2492 171.112 24.4143V23.0971C171.112 22.7384 171.196 22.5558 171.588 22.5558H176.576C178.827 22.5558 180.603 23.0058 181.318 23.7622C181.851 24.3296 182.25 25.06 182.495 25.934C182.681 26.6187 182.798 27.3623 182.798 28.0991C182.798 29.7687 182.224 31.4318 180.628 32.3839C180.043 32.7361 179.316 32.9187 178.531 32.9187Z" fill="white"/>
<path d="M90.6752 11.8659V11.8203C90.6431 11.292 90.2313 11.2725 89.903 11.2725H89.8065C88.884 11.2768 87.9587 11.2754 87.0343 11.2739C86.5723 11.2732 86.1108 11.2725 85.6499 11.2725H77.2078C76.7469 11.2725 76.2854 11.2732 75.8235 11.2739C74.899 11.2754 73.9737 11.2768 73.0511 11.2725H72.9887C72.6677 11.2724 72.2207 11.2723 72.1825 11.8268V11.8659C72.1761 11.9051 72.1761 11.9442 72.1825 11.9768C72.2018 13.5746 72.2018 14.7029 72.2018 14.7029L72.2146 14.9507L72.3883 14.7485L72.4002 14.7345C72.7807 14.2781 73.0819 13.9167 73.5723 13.5681C75.6313 12.1398 76.7896 12.0094 79.8266 11.9833C80.277 11.9833 80.3221 12.6551 80.3221 12.942V13.4442C80.3157 16.0138 80.3157 18.5833 80.3157 21.1594C80.3157 24.3681 80.3157 27.5833 80.3029 30.7984C80.2964 31.8222 80.2897 32.879 79.0739 33.4788L78.7006 33.668H84.1571L83.7838 33.4788C82.568 32.879 82.5613 31.8227 82.5549 30.799C82.542 27.5838 82.542 24.3681 82.542 21.1594C82.542 18.5833 82.542 16.0138 82.5356 13.4442V12.942C82.5356 12.6551 82.5806 11.9833 83.0311 11.9833C86.0681 12.0094 87.2264 12.1398 89.2854 13.5681C89.7704 13.913 90.0705 14.2701 90.4632 14.738L90.4887 14.7681L90.6559 14.9703V14.7029C90.6559 14.7029 90.6624 13.5746 90.6752 11.9899C90.6795 11.9591 90.6781 11.9314 90.6766 11.9046C90.6759 11.8916 90.6752 11.8788 90.6752 11.8659Z" fill="white"/>
<path d="M124.383 54.1045V45.8721H125.252V49.5175H129.754V45.8721H130.622V54.1045H129.754V50.3442H125.252V54.1045H124.383Z" fill="white"/>
<path d="M137.437 50.9873L135.88 47.1064L134.317 50.9873H137.437ZM137.787 51.8139H133.973L133.048 54.1045H132.123L135.474 45.8721H136.28L139.631 54.1045H138.712L137.787 51.8139Z" fill="white"/>
<path d="M144.207 46.6989V49.1673H146.458C147.172 49.1673 147.774 49.4084 148.263 49.8907C148.755 50.373 149.001 50.9547 149.001 51.6359C149.001 52.3172 148.755 52.8989 148.263 53.3811C147.774 53.8633 147.172 54.1045 146.458 54.1045H143.338V45.8721H148.365V46.6989H144.207ZM144.207 53.2835H146.458C146.943 53.2835 147.343 53.1266 147.659 52.8128C147.976 52.499 148.133 52.1066 148.133 51.6359C148.133 51.1652 147.976 50.773 147.659 50.459C147.343 50.1452 146.943 49.9883 146.458 49.9883H144.207V53.2835Z" fill="white"/>
<path d="M152.207 47.5605C151.572 48.215 151.254 49.0244 151.254 49.9888C151.254 50.9533 151.572 51.7628 152.207 52.4172C152.842 53.0717 153.623 53.3988 154.549 53.3988C155.473 53.3988 156.254 53.0717 156.889 52.4172C157.526 51.7628 157.843 50.9533 157.843 49.9888C157.843 49.0244 157.526 48.215 156.889 47.5605C156.254 46.9061 155.473 46.5788 154.549 46.5788C153.623 46.5788 152.842 46.9061 152.207 47.5605ZM157.494 46.9921C158.301 47.815 158.706 48.8139 158.706 49.9888C158.706 51.1638 158.301 52.1627 157.494 52.9855C156.685 53.8084 155.703 54.2198 154.549 54.2198C153.394 54.2198 152.413 53.8084 151.604 52.9855C150.795 52.1627 150.391 51.1638 150.391 49.9888C150.391 48.8139 150.795 47.815 151.604 46.9921C152.413 46.1693 153.394 45.7578 154.549 45.7578C155.703 45.7578 156.685 46.1693 157.494 46.9921Z" fill="white"/>
<path d="M166.439 45.8721V54.1045H165.576V46.6989H162.106V48.3406C162.106 49.554 162.056 50.5605 161.953 51.3604C161.856 52.1564 161.702 52.7593 161.492 53.1687C161.285 53.5744 161.053 53.8519 160.797 54.0012C160.545 54.1466 160.231 54.2193 159.855 54.2193C159.731 54.2193 159.607 54.2097 159.483 54.1906C159.363 54.1715 159.271 54.1505 159.207 54.1274L159.105 54.1045V53.2204C159.335 53.297 159.545 53.3372 159.736 53.3409C159.974 53.3409 160.174 53.2816 160.341 53.163C160.509 53.0443 160.668 52.8167 160.815 52.4798C160.961 52.143 161.068 51.6321 161.136 50.947C161.207 50.2619 161.243 49.3932 161.243 48.3406V45.8721H166.439Z" fill="white"/>
<path d="M171.934 54.1045H168.871V45.8721H169.739V48.932H171.934C172.683 48.932 173.303 49.1788 173.796 49.6725C174.288 50.1663 174.535 50.7824 174.535 51.5211C174.535 52.2559 174.288 52.8702 173.796 53.364C173.303 53.8576 172.683 54.1045 171.934 54.1045ZM169.739 53.2835H171.934C172.456 53.2835 172.876 53.1228 173.191 52.8014C173.508 52.4798 173.665 52.0531 173.665 51.5211C173.665 50.9853 173.508 50.5567 173.191 50.2351C172.876 49.9136 172.456 49.753 171.934 49.753H169.739V53.2835Z" fill="white"/>
<path d="M176.443 54.1045V45.8721H177.312V53.2835H180.662V45.8721H181.525V53.2835H184.876V45.8721H185.745V54.1045H176.443Z" fill="white"/>
<path d="M189.463 47.5605C188.828 48.215 188.51 49.0244 188.51 49.9888C188.51 50.9533 188.828 51.7628 189.463 52.4172C190.1 53.0717 190.879 53.3988 191.805 53.3988C192.73 53.3988 193.51 53.0717 194.147 52.4172C194.782 51.7628 195.1 50.9533 195.1 49.9888C195.1 49.0244 194.782 48.215 194.147 47.5605C193.51 46.9061 192.73 46.5788 191.805 46.5788C190.879 46.5788 190.1 46.9061 189.463 47.5605ZM194.75 46.9921C195.559 47.815 195.963 48.8139 195.963 49.9888C195.963 51.1638 195.559 52.1627 194.75 52.9855C193.941 53.8084 192.96 54.2198 191.805 54.2198C190.65 54.2198 189.669 53.8084 188.86 52.9855C188.051 52.1627 187.646 51.1638 187.646 49.9888C187.646 48.8139 188.051 47.815 188.86 46.9921C189.669 46.1693 190.65 45.7578 191.805 45.7578C192.96 45.7578 193.941 46.1693 194.75 46.9921Z" fill="white"/>
<path d="M202.285 44.3171C201.999 44.6118 201.625 44.7592 201.162 44.7592C200.7 44.7592 200.324 44.6118 200.034 44.3171C199.745 44.0224 199.6 43.6397 199.6 43.1689H200.238C200.238 43.4369 200.326 43.6608 200.502 43.8406C200.679 44.0205 200.897 44.1104 201.157 44.1104C201.421 44.1104 201.641 44.0205 201.817 43.8406C201.998 43.6608 202.088 43.4369 202.088 43.1689H202.72C202.72 43.6397 202.575 44.0224 202.285 44.3171ZM204.452 54.1052H203.589V47.463L198.619 54.1052H197.869V45.8728H198.737V52.5207L203.702 45.8728H204.452V54.1052Z" fill="white"/>
</g>
</g>
<defs>
<clipPath id="clip0_187_30">
<rect width="211" height="57" fill="white"/>
</clipPath>
</defs>
</svg>
