<?xml version="1.0" encoding="UTF-8"?><svg id="_лой_2" xmlns="http://www.w3.org/2000/svg" viewBox="0 0 4527.64 4325.63"><defs><style>.cls-1{fill:#131411;}</style></defs><g id="_лой_1-2"><g><path class="cls-1" d="M2746.85,4297.6l-128.88,28.04h888.84l-70.94-27.08c-130.7-50.42-191.43-164.35-238.11-267.97-332.39-745.06-1110.08-2492.88-1158.64-2600.24-48.55-105.49-96.19-209.12-138.18-304.35l-3.74-8.43h-505.12l-1.87,28.04c122.31,18.65,218.46,128.83,218.46,249.28v14.91c0,9.35,.96,20.56,0,29.91-3.74,36.43-10.26,55.07-25.16,86.8-78.46,177.43-157.83,355.73-236.24,533.16-153.13,346.38-311.83,703.93-469.61,1055.01l-55.12,122.31c-60.68,135.4-122.31,270.75-183.9,405.19-19.6,43.9-39.21,90.58-58.81,136.31l-17.78,43.9c-15.86,38.25-32.64,77.5-52.24,114.84l-1.91,3.74c-69.07,144.7-170.82,299.7-398.63,356.64l-109.28,28.04H844.99l1.87-28.04c-124.18-14-205.42-53.2-241.85-115.75-30.77-53.25-28.9-123.27,6.56-208.2l228.72-512.6c6.56-15.86,13.08-30.82,20.56-46.68,4.65-9.35,8.39-18.65,12.13-27.08,7.48-13.08,13.08-25.21,19.6-38.25l1.87-4.7c10.26-23.34,55.12-46.68,84.98-49.46,15.86-1.87,33.6-2.83,50.42-3.74,6.52,0,14,0,20.51-.96h1179.24c34.51,0,68.16-.91,102.67,0h19.6c6.56,.96,13.08,.96,18.69,.96h1.87c17.73,.91,34.56,1.87,50.42,3.74,29.86,2.78,74.67,26.12,84.98,49.46l8.39,17.73c14.95,32.69,29.86,65.37,42.94,98.97,78.41,172.74,160.61,363.2,259.54,599.4,18.69,46.68,39.25,106.45,26.17,145.66-12.13,36.43-55.07,82.15-98.02,91.5Zm-327.74-1125.04c-4.65,6.52-13.08,11.17-21.47,11.17H1003.68c-8.39,0-15.86-3.69-20.51-11.17-4.7-7.48-5.61-15.86-1.87-24.3l699.28-1562.92c4.7-9.35,13.08-14.95,23.34-14.95s18.69,4.7,22.43,14l195.12,439.75c154.04,348.25,352.95,795.48,499.51,1125.08,2.83,7.48,2.83,15.86-1.87,23.34Z"/><path class="cls-1" d="M4527.64,2853.26c0,91.5-73.76,166.17-165.26,166.17s-165.26-74.67-165.26-166.17,73.76-165.26,165.26-165.26,165.26,74.67,165.26,165.26Z"/><circle class="cls-1" cx="4362.39" cy="4160.37" r="165.26"/><polygon class="cls-1" points="2284.99 0 1905.92 864.54 1784.52 864.54 2162.68 0 2284.99 0"/><path class="cls-1" d="M2370.56,3291.13H1029.85c6.52,0,14,0,20.51-.96h1179.24c34.51,0,68.16-.91,102.67,0h19.6c6.56,.96,13.08,.96,18.69,.96Z"/></g></g></svg>